<?xml version="1.0" encoding="UTF-8"?>
<svg width="572px" height="315px" viewBox="0 0 572 315" version="1.1" xmlns="http://www.w3.org/2000/svg" xmlns:xlink="http://www.w3.org/1999/xlink">
    <!-- Generator: Sketch 52.6 (67491) - http://www.bohemiancoding.com/sketch -->
    <title>Group 11</title>
    <desc>Created with Sketch.</desc>
    <defs>
        <rect id="path-1" x="0" y="0" width="572" height="315"></rect>
    </defs>
    <g id="Welcome" stroke="none" stroke-width="1" fill="none" fill-rule="evenodd">
        <g id="Gen3-Webinars---font-and-box" transform="translate(-129.000000, -1744.000000)">
            <g id="Group-11" transform="translate(129.000000, 1744.000000)">
                <mask id="mask-2" fill="white">
                    <use xlink:href="#path-1"></use>
                </mask>
                <use id="Mask" fill="#D3D6E6" fill-rule="nonzero" xlink:href="#path-1"></use>
                <path d="M1007.91757,-48.6684574 C961.222512,-105.995588 873.156172,-136.03382 804.402546,-110.349011 C766.962108,-96.362105 715.516899,-89.6112196 659.227825,-110.349011 C563.199573,-145.727348 496.17916,-151.773358 452.772769,-109.292459 C409.366378,-66.8115605 395.241374,-12.3431414 417.300415,47.9687017 C431.469113,86.7074805 420.718074,114.714893 402.464698,124.254225 C384.211321,133.793557 385.122254,156.900125 383.558289,175.482412 C377.274688,250.141129 466.883243,367.953617 554.252808,378.91585 C641.622372,389.878083 722.343577,370.85098 827.31344,351.502246 C932.283303,332.153512 953.107413,277.87263 1001.71717,205.337733 C1029.45263,163.951208 1076.09984,35.0383387 1007.91757,-48.6684574 Z" id="Path-2" fill="#9ECCC7" fill-rule="nonzero" opacity="0.825558036" mask="url(#mask-2)" transform="translate(713.243202, 121.542349) rotate(-21.000000) translate(-713.243202, -121.542349) "></path>
                <path d="M275.646772,168.092036 C246.096948,131.775893 190.366326,112.746986 146.85728,129.018045 C123.164017,137.878605 86.1870275,147.219792 63.7192423,120.218781 C26.9575008,76.0397862 -47.5290047,64.4635677 -74.9976745,91.3747762 C-102.466344,118.285985 -98.1108077,189.56627 -98.1108077,229.310673 C-98.1108077,251.553928 -102.384291,264.968588 -107.499227,277.636761 C-111.523695,287.604169 -116.069077,297.109452 -119.463684,310.089286 C-140.004051,388.628725 -66.7335313,432.017797 -11.4438456,438.962258 C43.8458401,445.906719 94.9282743,433.853246 161.355877,421.596024 C227.78348,409.338802 240.961507,374.952426 271.723,329.002322 C289.274707,302.784388 318.79425,221.119423 275.646772,168.092036 Z" id="Path-2" fill-opacity="0.2" fill="#793A78" fill-rule="nonzero" opacity="0.825558036" mask="url(#mask-2)"></path>
                <g id="Group-64" mask="url(#mask-2)">
                    <g transform="translate(156.000000, 112.000000)" id="Group-59">
                        <g>
                            <g id="Group-56" fill="#000000" fill-rule="nonzero">
                                <ellipse id="Oval" cx="81.078125" cy="24.7569444" rx="19.921875" ry="18.3680556"></ellipse>
                                <path d="M65.8222342,13.3222854 C65.0966246,5.96302867 65.9339207,1.78043039 68.3341223,0.774490507 C70.7343238,-0.231449377 72.6315835,3.03489545 74.0259012,10.573525 L65.8222342,13.3222854 Z" id="Path-26"></path>
                                <path d="M94.3911697,13.3222854 C94.3257834,6.06223603 93.6014352,1.94795048 92.2181252,0.979428688 C90.1431602,-0.473353999 85.5138567,2.25989159 85.5138567,7.10685208 C85.5138567,10.3381591 88.472961,12.4099702 94.3911697,13.3222854 Z" id="Path-27"></path>
                                <path d="M70.71875,22.4043852 C58.1143622,40.9652968 49.454671,52.5740612 44.7396765,57.2306785 C37.6671846,64.2156044 36.8060647,74.7090573 39.2272113,84.132604 C40.841309,90.4149685 44.9865494,94.2268481 51.6629323,95.5682428 C59.3452233,98.5723722 65.6971625,100.105148 70.71875,100.166571 C75.7403375,100.227994 83.8508516,98.8656202 95.0502925,96.0794506 C96.0735616,91.7546605 95.3489777,89.5922655 92.8765408,89.5922655 C89.1678855,89.5922655 95.0502925,81.2655651 96.6701067,73.2485967 C98.2899209,65.2316282 96.9847885,59.5553389 96.9847885,56.7435801 C96.9847885,54.8690742 97.2240351,48.9056003 97.7025284,38.8531584 C99.7309131,25.1372749 98.3155845,18.6727017 93.4565425,19.4594388 C88.5975005,20.2461759 81.0182363,21.2278247 70.71875,22.4043852 Z" id="Path-29"></path>
                                <path d="" id="Path-30"></path>
                                <path d="M38.5415815,85.1694253 C25.2164233,86.5629756 16.5202865,88.1389511 5.99118794,99.4869256 C0.707710953,105.181313 -0.549583294,109.825187 0.467828447,112.857765 C1.47795058,115.868615 5.73723569,115.165902 6.98893367,113.017241 C9.50136257,108.704415 12.3818516,96.1153652 42.4603965,93.536674 C72.5389414,90.9579828 51.8667397,83.775875 38.5415815,85.1694253 Z" id="Path-31"></path>
                            </g>
                            <ellipse id="Oval" fill="#FFFFFF" fill-rule="nonzero" cx="92.625" cy="19.1666667" rx="1.59375" ry="1.59722222"></ellipse>
                            <ellipse id="Oval" fill="#FFFFFF" fill-rule="nonzero" cx="81.625" cy="19.1666667" rx="1.59375" ry="1.59722222"></ellipse>
                            <path d="M83.6721706,24.393112 C83.4550609,24.2224721 83.4173896,23.9081389 83.5880295,23.6910292 C83.7586694,23.4739194 84.0730026,23.4362481 84.2901123,23.606888 C86.7041481,25.5042269 89.1426998,25.5042269 91.7426981,23.5968501 C91.9653516,23.4335099 92.2782613,23.4815929 92.4416015,23.7042464 C92.6049417,23.9269 92.5568587,24.2398097 92.3342052,24.4031499 C89.377595,26.5721396 86.4446067,26.5721396 83.6721706,24.393112 Z" id="Path-3" fill="#793A78" fill-rule="nonzero"></path>
                        </g>
                    </g>
                </g>
                <path d="M142.265644,-178.359926 C105.77629,-235.697818 36.9577954,-265.741687 -16.7689875,-240.052057 C-46.0264154,-226.062526 -86.2277209,-219.310373 -130.214213,-240.052057 C-205.254459,-275.437036 -250.299766,-274.349724 -298.238849,-218.258239 C-332.338295,-178.359926 -344.267142,-127.816854 -319.265788,-81.7046279 C-294.264434,-35.5924019 -336.113796,-0.706357443 -345.63321,45.8330171 C-370.997311,169.835336 -280.51982,238.34035 -212.245813,249.304641 C-143.971805,260.268932 -87.4364102,269.100046 1.13448463,221.885891 C89.7053795,174.671736 121.512822,141.611018 159.498394,69.0625055 C181.171974,27.6682127 195.545947,-94.637418 142.265644,-178.359926 Z" id="Path-2" fill="#FFFFFF" fill-rule="nonzero" opacity="0.35312035" mask="url(#mask-2)"></path>
                <path d="M282.188574,133.532861 L285.209808,124.032356 L288.631446,124.032356 L283.207786,140 L279.507078,140 L274.095551,124.032356 L277.517189,124.032356 L280.514156,133.532861 C280.659758,134.026292 280.827603,134.66127 281.017695,135.437816 C281.207787,136.214362 281.323053,136.752274 281.363498,137.051567 C281.452478,136.323556 281.7275,135.150665 282.188574,133.532861 Z M294.030839,140 L290.645602,140 L290.645602,124.032356 L294.030839,124.032356 L294.030839,140 Z M302.876138,137.209302 C306.136012,137.209302 307.765925,135.458056 307.765925,131.955511 C307.765925,128.525766 306.253301,126.81092 303.228008,126.81092 L301.432255,126.81092 L301.432255,137.209302 L302.876138,137.209302 Z M303.05814,124.032356 C305.654715,124.032356 307.674917,124.71789 309.118807,126.088979 C310.562697,127.460068 311.284631,129.421625 311.284631,131.973711 C311.284631,134.525796 310.536408,136.50151 309.039939,137.90091 C307.543471,139.30031 305.383735,140 302.560667,140 L298.047017,140 L298.047017,124.032356 L303.05814,124.032356 Z M323.782103,137.209302 L323.782103,140 L314.597068,140 L314.597068,124.032356 L323.782103,124.032356 L323.782103,126.81092 L317.982305,126.81092 L317.982305,130.317492 L323.381699,130.317492 L323.381699,133.083923 L317.982305,133.083923 L317.982305,137.209302 L323.782103,137.209302 Z M334.02275,126.604651 C332.679973,126.604651 331.666839,127.057629 330.983316,127.9636 C330.299794,128.86957 329.958038,130.212327 329.958038,131.991911 C329.958038,135.583436 331.306862,137.379171 334.00455,137.379171 C336.702238,137.379171 338.051062,135.583436 338.051062,131.991911 C338.051062,128.400386 336.708305,126.604651 334.02275,126.604651 Z M328.368554,125.888777 C329.695153,124.489376 331.583911,123.789687 334.034884,123.789687 C336.485857,123.789687 338.360459,124.497465 339.658746,125.913043 C340.957034,127.328622 341.606168,129.358935 341.606168,132.004044 C341.606168,134.649154 340.950967,136.679467 339.640546,138.095046 C338.330125,139.510624 336.451478,140.218402 334.00455,140.218402 C331.557622,140.218402 329.678975,139.510624 328.368554,138.095046 C327.058133,136.679467 326.402932,134.641065 326.402932,131.979778 C326.402932,129.31849 327.058133,127.288177 328.368554,125.888777 Z M270.055106,156.628918 C268.78513,156.628918 267.798285,157.106163 267.09454,158.060667 C266.398884,159.023261 266.051062,160.357929 266.051062,162.064712 C266.051062,165.62388 267.38573,167.403438 270.055106,167.403438 C271.187569,167.403438 272.546504,167.124371 274.131951,166.566229 L274.131951,169.40546 C272.829619,169.947424 271.365529,170.218402 269.739636,170.218402 C267.418087,170.218402 265.642574,169.512646 264.413043,168.101112 C263.183513,166.689578 262.568756,164.669376 262.568756,162.040445 C262.544489,159.549027 263.21789,157.545003 264.588979,156.028311 C265.960068,154.51162 267.782092,153.769464 270.055106,153.80182 C271.608198,153.80182 273.169355,154.177954 274.738625,154.930233 L273.646613,157.68453 C272.166322,156.980785 270.969165,156.628918 270.055106,156.628918 Z M283.984328,156.604651 C282.64155,156.604651 281.628416,157.057629 280.944894,157.9636 C280.261372,158.86957 279.919616,160.212327 279.919616,161.991911 C279.919616,165.583436 281.268439,167.379171 283.966127,167.379171 C286.663815,167.379171 288.012639,165.583436 288.012639,161.991911 C288.012639,158.400386 286.669882,156.604651 283.984328,156.604651 Z M278.330131,155.888777 C279.656731,154.489376 281.545488,153.789687 283.996461,153.789687 C286.447434,153.789687 288.322036,154.497465 289.620324,155.913043 C290.918611,157.328622 291.567745,159.358935 291.567745,162.004044 C291.567745,164.649154 290.912544,166.679467 289.602123,168.095046 C288.291702,169.510624 286.413056,170.218402 283.966127,170.218402 C281.519199,170.218402 279.640553,169.510624 278.330131,168.095046 C277.01971,166.679467 276.36451,164.641065 276.36451,161.979778 C276.36451,159.31849 277.01971,157.288177 278.330131,155.888777 Z M308.785137,162.440849 C308.785137,161.931241 308.787159,161.524774 308.791203,161.221436 C308.795248,160.918098 308.849848,159.678474 308.955005,157.502528 L308.857937,157.502528 L304.732558,170 L301.638524,170 L297.792214,157.478261 L297.695147,157.478261 C297.83266,160.107192 297.901416,161.805861 297.901416,162.574317 L297.901416,170 L294.880182,170 L294.880182,154.032356 L299.478766,154.032356 L303.264408,166.238625 L303.325076,166.238625 L307.32912,154.032356 L311.939838,154.032356 L311.939838,170 L308.785137,170 L308.785137,162.440849 Z M319.353387,170 L315.96815,170 L315.96815,154.032356 L319.353387,154.032356 L319.353387,170 Z M337.529323,154.032356 L337.529323,170 L333.221941,170 L326.281598,157.927199 L326.18453,157.927199 C326.322043,160.111234 326.390799,161.631947 326.390799,162.489383 L326.390799,170 L323.369565,170 L323.369565,154.032356 L327.628413,154.032356 L334.568756,165.995956 L334.641557,165.995956 C334.5364,163.997968 334.483822,162.529833 334.483822,161.591507 L334.483822,154.032356 L337.529323,154.032356 Z M347.600101,163.848332 L347.600101,161.033367 L353.933771,161.033367 L353.933771,169.308392 C352.105653,169.915069 350.212851,170.218402 348.255308,170.218402 C345.85287,170.218402 344.014668,169.510624 342.740647,168.095046 C341.466627,166.679467 340.829626,164.667354 340.829626,162.058645 C340.829626,159.449936 341.565716,157.421645 343.037917,155.973711 C344.526297,154.525776 346.572788,153.80182 349.177452,153.80182 C350.819523,153.80182 352.396858,154.12942 353.909505,154.784631 L352.793225,157.502528 C351.628407,156.920118 350.415072,156.628918 349.153185,156.628918 C347.697162,156.628918 346.526294,157.120319 345.640546,158.103134 C344.754798,159.08595 344.311931,160.424663 344.311931,162.119312 C344.311931,163.813962 344.667843,165.118297 345.379676,166.032356 C346.09151,166.946415 347.122845,167.403438 348.473711,167.403438 C349.177455,167.403438 349.893323,167.330638 350.621335,167.185035 L350.621335,163.848332 L347.600101,163.848332 Z M286.884226,195.571284 C286.884226,197.003041 286.366537,198.135486 285.331143,198.968655 C284.295748,199.801824 282.88828,200.218402 281.108696,200.218402 C279.329111,200.218402 277.788176,199.898891 276.485844,199.259858 L276.485844,196.11729 C277.561684,196.586453 278.471685,196.922143 279.215875,197.124368 C279.960064,197.326594 280.675932,197.427705 281.363498,197.427705 C282.051065,197.427705 282.590999,197.284127 282.983316,196.996967 C283.375634,196.709806 283.57179,196.287162 283.57179,195.729019 C283.57179,195.405458 283.482812,195.124369 283.304853,194.885743 C283.126895,194.647117 282.882206,194.420628 282.570779,194.206269 C282.259351,193.99191 281.583928,193.640043 280.544489,193.150657 C279.50505,192.661272 278.746716,192.206271 278.269464,191.785642 C277.201714,190.863494 276.667846,189.706781 276.667846,188.31547 C276.667846,186.924159 277.145091,185.824069 278.099596,185.015167 C279.0541,184.206265 280.376635,183.80182 282.06724,183.80182 C283.498996,183.80182 285.080376,184.177954 286.811426,184.930233 L285.719414,187.563195 C284.870067,187.215367 284.162288,186.9727 283.596057,186.835187 C283.029825,186.697674 282.457536,186.628918 281.879171,186.628918 C281.300806,186.628918 280.839739,186.774518 280.495956,187.065723 C280.152172,187.356928 279.980283,187.749239 279.980283,188.242669 C279.980283,188.808901 280.267439,189.286146 280.841759,189.674419 C281.124875,189.868555 281.840742,190.2366 282.989383,190.778564 C284.469674,191.490398 285.488875,192.206265 286.047017,192.926188 C286.60516,193.646111 286.884226,194.527801 286.884226,195.571284 Z M296.688069,186.604651 C295.345292,186.604651 294.332157,187.057629 293.648635,187.9636 C292.965113,188.86957 292.623357,190.212327 292.623357,191.991911 C292.623357,195.583436 293.972181,197.379171 296.669869,197.379171 C299.367556,197.379171 300.71638,195.583436 300.71638,191.991911 C300.71638,188.400386 299.373623,186.604651 296.688069,186.604651 Z M291.033873,185.888777 C292.360472,184.489376 294.249229,183.789687 296.700202,183.789687 C299.151175,183.789687 301.025777,184.497465 302.324065,185.913043 C303.622352,187.328622 304.271486,189.358935 304.271486,192.004044 C304.271486,194.649154 303.616286,196.679467 302.305865,198.095046 C300.995443,199.510624 299.116797,200.218402 296.669869,200.218402 C294.22294,200.218402 292.344294,199.510624 291.033873,198.095046 C289.723451,196.679467 289.068251,194.641065 289.068251,191.979778 C289.068251,189.31849 289.723451,187.288177 291.033873,185.888777 Z M314.487867,186.604651 C313.145089,186.604651 312.131955,187.057629 311.448433,187.9636 C310.764911,188.86957 310.423155,190.212327 310.423155,191.991911 C310.423155,195.583436 311.771978,197.379171 314.469666,197.379171 C317.167354,197.379171 318.516178,195.583436 318.516178,191.991911 C318.516178,188.400386 317.173421,186.604651 314.487867,186.604651 Z M308.83367,185.888777 C310.16027,184.489376 312.049027,183.789687 314.5,183.789687 C316.950973,183.789687 318.825575,184.497465 320.123862,185.913043 C321.42215,187.328622 322.071284,189.358935 322.071284,192.004044 C322.071284,194.649154 321.416083,196.679467 320.105662,198.095046 C318.795241,199.510624 316.916595,200.218402 314.469666,200.218402 C312.022738,200.218402 310.144091,199.510624 308.83367,198.095046 C307.523249,196.679467 306.868049,194.641065 306.868049,191.979778 C306.868049,189.31849 307.523249,187.288177 308.83367,185.888777 Z M339.543478,184.032356 L339.543478,200 L335.236097,200 L328.295753,187.927199 L328.198686,187.927199 C328.336199,190.111234 328.404954,191.631947 328.404954,192.489383 L328.404954,200 L325.383721,200 L325.383721,184.032356 L329.642568,184.032356 L336.582912,195.995956 L336.655713,195.995956 C336.550556,193.997968 336.497978,192.529833 336.497978,191.591507 L336.497978,184.032356 L339.543478,184.032356 Z" id="VIDEO-COMING-SOON" fill="#000000" mask="url(#mask-2)"></path>
                <path d="M396.155701,193.140048 C394.3808,194.161616 392.055422,194.97853 390.490502,196.548683 C388.948865,198.095836 388.177299,200.406023 387.194685,202.155701 C386.193914,200.388774 385.4012,198.059632 383.839057,196.493313 C382.292507,194.942114 379.969692,194.160552 378.155701,193.136428 C379.895142,192.164054 382.227356,191.390158 383.783945,189.841301 C385.361682,188.271788 386.172766,185.936258 387.193617,184.155701 C388.165978,185.869601 388.962109,188.187882 390.518058,189.756756 C392.061403,191.313279 394.370333,192.115073 396.155701,193.140048" id="Fill-1" fill="#FFFFFF" mask="url(#mask-2)" transform="translate(387.155701, 193.155701) rotate(1.000000) translate(-387.155701, -193.155701) "></path>
                <path d="M379.224901,212.202292 C376.661156,213.67789 373.302276,214.857877 371.041836,217.125875 C368.815028,219.360651 367.700544,222.697589 366.281212,225.224901 C364.835653,222.672673 363.690623,219.308358 361.434193,217.045897 C359.200288,214.805276 355.845111,213.676352 353.224901,212.197063 C355.737427,210.792522 359.106181,209.674672 361.354587,207.437435 C363.633541,205.17036 364.805107,201.796817 366.279669,199.224901 C367.68419,201.700535 368.834158,205.049162 371.081639,207.315315 C373.310916,209.563626 376.646037,210.721772 379.224901,212.202292" id="Fill-1" fill="#FFFFFF" mask="url(#mask-2)" transform="translate(366.224901, 212.224901) rotate(1.000000) translate(-366.224901, -212.224901) "></path>
                <path d="M210.173001,98.1556093 C208.200889,99.290685 205.617136,100.198367 203.878335,101.942981 C202.165406,103.66204 201.30811,106.228915 200.216317,108.173001 C199.104349,106.209748 198.223556,103.621814 196.487841,101.881459 C194.769453,100.157905 192.188547,99.2895019 190.173001,98.1515867 C192.105713,97.0711707 194.697062,96.2112865 196.426606,94.4903348 C198.179647,92.7464307 199.080851,90.1513974 200.21513,88.173001 C201.295531,90.0773347 202.180121,92.6532017 203.908953,94.3963958 C205.623781,96.1258659 208.189259,97.0167477 210.173001,98.1556093" id="Fill-1" fill="#FFFFFF" mask="url(#mask-2)" transform="translate(200.173001, 98.173001) rotate(1.000000) translate(-200.173001, -98.173001) "></path>
                <g id="Group-5" opacity="0.662481399" mask="url(#mask-2)">
                    <g transform="translate(444.168098, 83.862399) rotate(223.000000) translate(-444.168098, -83.862399) translate(288.168098, 35.362399)" id="Group-13-Copy">
                        <g transform="translate(16.052903, 74.794708) rotate(53.000000) translate(-16.052903, -74.794708) translate(5.059585, 64.219703)">
                            <g id="Group-13" transform="translate(0.000000, 0.024419)" fill="#3498D6">
                                <path d="M14.9122402,-9.76744186e-06 C15.0672309,0.0374483721 15.2245335,0.0678006977 15.3768314,0.113585581 C16.0159492,0.305808837 16.4637737,0.720607674 16.8042656,1.25857395 C17.1001732,1.72604372 17.2465012,2.2371007 17.3012471,2.77833907 C17.3505312,3.26578326 17.3705751,3.75247047 17.2985035,4.23874256 C17.1301755,5.37479372 16.7101686,6.39580884 15.8185081,7.1976914 C15.5671085,7.42375884 15.2893395,7.61410186 14.9814665,7.76481349 C14.2206374,8.13717279 13.5148337,8.01888907 12.860448,7.53447279 C12.2503164,7.08280186 11.8993326,6.46191 11.7433002,5.75401465 C11.3719169,4.06881349 11.7029584,2.51601 12.7942702,1.13733558 C13.2185196,0.601371628 13.7944319,0.258265814 14.4705127,0.0744181395 C14.5430416,0.0547123256 14.612649,0.0250437209 14.6836028,-9.76744186e-06 L14.9122402,-9.76744186e-06 Z" id="Fill-1"></path>
                                <path d="M0,9.27906 C0.0340923788,9.07120884 0.0649330254,8.86282047 0.102988453,8.65565302 C0.179963048,8.23677628 0.289226328,7.8292786 0.587039261,7.49540302 C1.06908314,6.95504372 1.67774134,6.72147977 2.41474134,6.80176814 C2.95788222,6.86095884 3.3989746,7.13412977 3.81415473,7.44409953 C4.76012933,8.15043209 5.31980831,9.09611581 5.61142263,10.1990065 C5.74652194,10.7100147 5.72881524,11.230717 5.69586605,11.7508088 C5.6668291,12.2094635 5.54074827,12.6407937 5.25449423,13.014667 C4.940194,13.4252414 4.54942725,13.7409251 4.00857275,13.8317623 C3.57698152,13.9042856 3.16805081,13.8035833 2.77535335,13.6387821 C1.63915242,13.16196 0.894099307,12.3291879 0.437256351,11.2405821 C0.216621247,10.7148007 0.0710300231,10.1699484 0.0234988453,9.60292395 C0.0212378753,9.57591698 0.00807852194,9.54978907 0,9.52324605 L0,9.27906 Z" id="Fill-4"></path>
                                <path d="M4.13044665,18.7229065 C4.20670993,18.3745263 4.27324342,18.0238995 4.36088776,17.6782053 C4.75810716,16.1114588 5.53113025,14.7193542 6.49923187,13.4148635 C7.22896628,12.4315751 8.18040277,11.731567 9.34459908,11.2947426 C10.3485714,10.9180367 11.3798785,10.8259298 12.428994,11.0878193 C13.1319016,11.2633158 13.7414236,11.6200228 14.3035413,12.0540147 C15.2508624,12.7854007 16.0027746,13.6837856 16.6788046,14.6443402 C17.1905206,15.3714286 17.6899917,16.1069414 18.0724005,16.9075786 C18.3265945,17.4397821 18.552285,17.9836821 18.6312411,18.5695088 C18.7072758,19.133603 18.678442,19.6863914 18.313994,20.1690984 C17.9478947,20.654003 17.426449,20.8731112 16.8232781,20.9512751 C16.1856845,21.0339077 15.6037007,20.8599984 15.0282203,20.6271426 C14.460285,20.3973635 13.888158,20.1768879 13.3144559,19.9606612 C12.4795229,19.6460763 11.6206591,19.6202414 10.7439871,19.7617716 C10.0122457,19.8799088 9.34033118,20.1684147 8.64651824,20.3971681 C8.12852748,20.5680007 7.60604018,20.7337298 7.07420416,20.8562623 C6.51485543,20.9851437 5.94364296,20.9863402 5.41363603,20.7270147 C4.71476767,20.3850565 4.33967529,19.80951 4.19413487,19.0827879 C4.18216952,19.02306 4.17566605,18.9619402 4.17165219,18.9011867 C4.16791778,18.8444623 4.17083926,18.7872984 4.17083926,18.7303542 C4.15740046,18.7278635 4.14391085,18.7253972 4.13044665,18.7229065" id="Fill-6"></path>
                                <path d="M10.2334727,4.8559643 C10.2526783,5.53795151 10.0919716,6.25703058 9.67420023,6.90895849 C9.29753279,7.49673872 8.775706,7.89485965 8.04266905,7.99360849 C7.7447037,8.03372826 7.46223487,7.97546547 7.18911478,7.86650965 C6.36777298,7.53886081 5.76653279,6.9735457 5.31708245,6.24899686 C4.90683072,5.58771663 4.64867367,4.86983407 4.5657037,4.10772942 C4.48730647,3.38784453 4.46393464,2.6610736 4.70402933,1.95676779 C4.92946582,1.29546314 5.31136651,0.740037558 5.94393002,0.376517791 C6.54128337,0.0332410465 7.15654665,0.0567805814 7.77368984,0.337008488 C8.59218637,0.70868407 9.16550739,1.31739105 9.57230416,2.07820151 C10.0232025,2.9214736 10.2326344,3.75473407 10.2334727,4.8559643" id="Fill-9"></path>
                                <path d="M21.9756247,9.14690407 C21.9214376,10.344539 21.5234307,11.4167355 20.7184492,12.3366576 C20.1755624,12.9570855 19.4998372,13.3816029 18.6503984,13.4908762 C17.8786455,13.5901866 17.2789296,13.2832692 16.842791,12.6826448 C16.3846524,12.0517657 16.2152575,11.3413308 16.2823499,10.5785424 C16.369791,9.58382616 16.6812206,8.66361105 17.2896247,7.84610058 C17.7757841,7.19285407 18.3993037,6.70445756 19.2006016,6.460125 C20.066858,6.19598895 20.7599342,6.39360872 21.3926247,7.18022965 C21.7379434,7.60955756 21.9037055,8.109675 21.9479088,8.64776337 C21.9615508,8.81380988 21.9666316,8.9805157 21.9756247,9.14690407" id="Fill-11"></path>
                            </g>
                        </g>
                        <g transform="translate(55.991850, 83.960357) rotate(79.000000) translate(-55.991850, -83.960357) translate(44.998532, 73.385353)">
                            <g id="Group-13" transform="translate(0.000000, 0.024419)" fill="#3498D6">
                                <path d="M14.9122402,-9.76744186e-06 C15.0672309,0.0374483721 15.2245335,0.0678006977 15.3768314,0.113585581 C16.0159492,0.305808837 16.4637737,0.720607674 16.8042656,1.25857395 C17.1001732,1.72604372 17.2465012,2.2371007 17.3012471,2.77833907 C17.3505312,3.26578326 17.3705751,3.75247047 17.2985035,4.23874256 C17.1301755,5.37479372 16.7101686,6.39580884 15.8185081,7.1976914 C15.5671085,7.42375884 15.2893395,7.61410186 14.9814665,7.76481349 C14.2206374,8.13717279 13.5148337,8.01888907 12.860448,7.53447279 C12.2503164,7.08280186 11.8993326,6.46191 11.7433002,5.75401465 C11.3719169,4.06881349 11.7029584,2.51601 12.7942702,1.13733558 C13.2185196,0.601371628 13.7944319,0.258265814 14.4705127,0.0744181395 C14.5430416,0.0547123256 14.612649,0.0250437209 14.6836028,-9.76744186e-06 L14.9122402,-9.76744186e-06 Z" id="Fill-1"></path>
                                <path d="M0,9.27906 C0.0340923788,9.07120884 0.0649330254,8.86282047 0.102988453,8.65565302 C0.179963048,8.23677628 0.289226328,7.8292786 0.587039261,7.49540302 C1.06908314,6.95504372 1.67774134,6.72147977 2.41474134,6.80176814 C2.95788222,6.86095884 3.3989746,7.13412977 3.81415473,7.44409953 C4.76012933,8.15043209 5.31980831,9.09611581 5.61142263,10.1990065 C5.74652194,10.7100147 5.72881524,11.230717 5.69586605,11.7508088 C5.6668291,12.2094635 5.54074827,12.6407937 5.25449423,13.014667 C4.940194,13.4252414 4.54942725,13.7409251 4.00857275,13.8317623 C3.57698152,13.9042856 3.16805081,13.8035833 2.77535335,13.6387821 C1.63915242,13.16196 0.894099307,12.3291879 0.437256351,11.2405821 C0.216621247,10.7148007 0.0710300231,10.1699484 0.0234988453,9.60292395 C0.0212378753,9.57591698 0.00807852194,9.54978907 0,9.52324605 L0,9.27906 Z" id="Fill-4"></path>
                                <path d="M4.13044665,18.7229065 C4.20670993,18.3745263 4.27324342,18.0238995 4.36088776,17.6782053 C4.75810716,16.1114588 5.53113025,14.7193542 6.49923187,13.4148635 C7.22896628,12.4315751 8.18040277,11.731567 9.34459908,11.2947426 C10.3485714,10.9180367 11.3798785,10.8259298 12.428994,11.0878193 C13.1319016,11.2633158 13.7414236,11.6200228 14.3035413,12.0540147 C15.2508624,12.7854007 16.0027746,13.6837856 16.6788046,14.6443402 C17.1905206,15.3714286 17.6899917,16.1069414 18.0724005,16.9075786 C18.3265945,17.4397821 18.552285,17.9836821 18.6312411,18.5695088 C18.7072758,19.133603 18.678442,19.6863914 18.313994,20.1690984 C17.9478947,20.654003 17.426449,20.8731112 16.8232781,20.9512751 C16.1856845,21.0339077 15.6037007,20.8599984 15.0282203,20.6271426 C14.460285,20.3973635 13.888158,20.1768879 13.3144559,19.9606612 C12.4795229,19.6460763 11.6206591,19.6202414 10.7439871,19.7617716 C10.0122457,19.8799088 9.34033118,20.1684147 8.64651824,20.3971681 C8.12852748,20.5680007 7.60604018,20.7337298 7.07420416,20.8562623 C6.51485543,20.9851437 5.94364296,20.9863402 5.41363603,20.7270147 C4.71476767,20.3850565 4.33967529,19.80951 4.19413487,19.0827879 C4.18216952,19.02306 4.17566605,18.9619402 4.17165219,18.9011867 C4.16791778,18.8444623 4.17083926,18.7872984 4.17083926,18.7303542 C4.15740046,18.7278635 4.14391085,18.7253972 4.13044665,18.7229065" id="Fill-6"></path>
                                <path d="M10.2334727,4.8559643 C10.2526783,5.53795151 10.0919716,6.25703058 9.67420023,6.90895849 C9.29753279,7.49673872 8.775706,7.89485965 8.04266905,7.99360849 C7.7447037,8.03372826 7.46223487,7.97546547 7.18911478,7.86650965 C6.36777298,7.53886081 5.76653279,6.9735457 5.31708245,6.24899686 C4.90683072,5.58771663 4.64867367,4.86983407 4.5657037,4.10772942 C4.48730647,3.38784453 4.46393464,2.6610736 4.70402933,1.95676779 C4.92946582,1.29546314 5.31136651,0.740037558 5.94393002,0.376517791 C6.54128337,0.0332410465 7.15654665,0.0567805814 7.77368984,0.337008488 C8.59218637,0.70868407 9.16550739,1.31739105 9.57230416,2.07820151 C10.0232025,2.9214736 10.2326344,3.75473407 10.2334727,4.8559643" id="Fill-9"></path>
                                <path d="M21.9756247,9.14690407 C21.9214376,10.344539 21.5234307,11.4167355 20.7184492,12.3366576 C20.1755624,12.9570855 19.4998372,13.3816029 18.6503984,13.4908762 C17.8786455,13.5901866 17.2789296,13.2832692 16.842791,12.6826448 C16.3846524,12.0517657 16.2152575,11.3413308 16.2823499,10.5785424 C16.369791,9.58382616 16.6812206,8.66361105 17.2896247,7.84610058 C17.7757841,7.19285407 18.3993037,6.70445756 19.2006016,6.460125 C20.066858,6.19598895 20.7599342,6.39360872 21.3926247,7.18022965 C21.7379434,7.60955756 21.9037055,8.109675 21.9479088,8.64776337 C21.9615508,8.81380988 21.9666316,8.9805157 21.9756247,9.14690407" id="Fill-11"></path>
                            </g>
                        </g>
                        <g transform="translate(89.433799, 47.138532) rotate(36.000000) translate(-89.433799, -47.138532) translate(78.440480, 36.563527)">
                            <g id="Group-13" transform="translate(0.000000, 0.024419)" fill="#3498D6">
                                <path d="M14.9122402,-9.76744186e-06 C15.0672309,0.0374483721 15.2245335,0.0678006977 15.3768314,0.113585581 C16.0159492,0.305808837 16.4637737,0.720607674 16.8042656,1.25857395 C17.1001732,1.72604372 17.2465012,2.2371007 17.3012471,2.77833907 C17.3505312,3.26578326 17.3705751,3.75247047 17.2985035,4.23874256 C17.1301755,5.37479372 16.7101686,6.39580884 15.8185081,7.1976914 C15.5671085,7.42375884 15.2893395,7.61410186 14.9814665,7.76481349 C14.2206374,8.13717279 13.5148337,8.01888907 12.860448,7.53447279 C12.2503164,7.08280186 11.8993326,6.46191 11.7433002,5.75401465 C11.3719169,4.06881349 11.7029584,2.51601 12.7942702,1.13733558 C13.2185196,0.601371628 13.7944319,0.258265814 14.4705127,0.0744181395 C14.5430416,0.0547123256 14.612649,0.0250437209 14.6836028,-9.76744186e-06 L14.9122402,-9.76744186e-06 Z" id="Fill-1"></path>
                                <path d="M0,9.27906 C0.0340923788,9.07120884 0.0649330254,8.86282047 0.102988453,8.65565302 C0.179963048,8.23677628 0.289226328,7.8292786 0.587039261,7.49540302 C1.06908314,6.95504372 1.67774134,6.72147977 2.41474134,6.80176814 C2.95788222,6.86095884 3.3989746,7.13412977 3.81415473,7.44409953 C4.76012933,8.15043209 5.31980831,9.09611581 5.61142263,10.1990065 C5.74652194,10.7100147 5.72881524,11.230717 5.69586605,11.7508088 C5.6668291,12.2094635 5.54074827,12.6407937 5.25449423,13.014667 C4.940194,13.4252414 4.54942725,13.7409251 4.00857275,13.8317623 C3.57698152,13.9042856 3.16805081,13.8035833 2.77535335,13.6387821 C1.63915242,13.16196 0.894099307,12.3291879 0.437256351,11.2405821 C0.216621247,10.7148007 0.0710300231,10.1699484 0.0234988453,9.60292395 C0.0212378753,9.57591698 0.00807852194,9.54978907 0,9.52324605 L0,9.27906 Z" id="Fill-4"></path>
                                <path d="M4.13044665,18.7229065 C4.20670993,18.3745263 4.27324342,18.0238995 4.36088776,17.6782053 C4.75810716,16.1114588 5.53113025,14.7193542 6.49923187,13.4148635 C7.22896628,12.4315751 8.18040277,11.731567 9.34459908,11.2947426 C10.3485714,10.9180367 11.3798785,10.8259298 12.428994,11.0878193 C13.1319016,11.2633158 13.7414236,11.6200228 14.3035413,12.0540147 C15.2508624,12.7854007 16.0027746,13.6837856 16.6788046,14.6443402 C17.1905206,15.3714286 17.6899917,16.1069414 18.0724005,16.9075786 C18.3265945,17.4397821 18.552285,17.9836821 18.6312411,18.5695088 C18.7072758,19.133603 18.678442,19.6863914 18.313994,20.1690984 C17.9478947,20.654003 17.426449,20.8731112 16.8232781,20.9512751 C16.1856845,21.0339077 15.6037007,20.8599984 15.0282203,20.6271426 C14.460285,20.3973635 13.888158,20.1768879 13.3144559,19.9606612 C12.4795229,19.6460763 11.6206591,19.6202414 10.7439871,19.7617716 C10.0122457,19.8799088 9.34033118,20.1684147 8.64651824,20.3971681 C8.12852748,20.5680007 7.60604018,20.7337298 7.07420416,20.8562623 C6.51485543,20.9851437 5.94364296,20.9863402 5.41363603,20.7270147 C4.71476767,20.3850565 4.33967529,19.80951 4.19413487,19.0827879 C4.18216952,19.02306 4.17566605,18.9619402 4.17165219,18.9011867 C4.16791778,18.8444623 4.17083926,18.7872984 4.17083926,18.7303542 C4.15740046,18.7278635 4.14391085,18.7253972 4.13044665,18.7229065" id="Fill-6"></path>
                                <path d="M10.2334727,4.8559643 C10.2526783,5.53795151 10.0919716,6.25703058 9.67420023,6.90895849 C9.29753279,7.49673872 8.775706,7.89485965 8.04266905,7.99360849 C7.7447037,8.03372826 7.46223487,7.97546547 7.18911478,7.86650965 C6.36777298,7.53886081 5.76653279,6.9735457 5.31708245,6.24899686 C4.90683072,5.58771663 4.64867367,4.86983407 4.5657037,4.10772942 C4.48730647,3.38784453 4.46393464,2.6610736 4.70402933,1.95676779 C4.92946582,1.29546314 5.31136651,0.740037558 5.94393002,0.376517791 C6.54128337,0.0332410465 7.15654665,0.0567805814 7.77368984,0.337008488 C8.59218637,0.70868407 9.16550739,1.31739105 9.57230416,2.07820151 C10.0232025,2.9214736 10.2326344,3.75473407 10.2334727,4.8559643" id="Fill-9"></path>
                                <path d="M21.9756247,9.14690407 C21.9214376,10.344539 21.5234307,11.4167355 20.7184492,12.3366576 C20.1755624,12.9570855 19.4998372,13.3816029 18.6503984,13.4908762 C17.8786455,13.5901866 17.2789296,13.2832692 16.842791,12.6826448 C16.3846524,12.0517657 16.2152575,11.3413308 16.2823499,10.5785424 C16.369791,9.58382616 16.6812206,8.66361105 17.2896247,7.84610058 C17.7757841,7.19285407 18.3993037,6.70445756 19.2006016,6.460125 C20.066858,6.19598895 20.7599342,6.39360872 21.3926247,7.18022965 C21.7379434,7.60955756 21.9037055,8.109675 21.9479088,8.64776337 C21.9615508,8.81380988 21.9666316,8.9805157 21.9756247,9.14690407" id="Fill-11"></path>
                            </g>
                        </g>
                        <g transform="translate(125.460903, 59.720384) rotate(53.000000) translate(-125.460903, -59.720384) translate(114.467585, 49.145379)">
                            <g id="Group-13" transform="translate(0.000000, 0.024419)" fill="#3498D6">
                                <path d="M14.9122402,-9.76744186e-06 C15.0672309,0.0374483721 15.2245335,0.0678006977 15.3768314,0.113585581 C16.0159492,0.305808837 16.4637737,0.720607674 16.8042656,1.25857395 C17.1001732,1.72604372 17.2465012,2.2371007 17.3012471,2.77833907 C17.3505312,3.26578326 17.3705751,3.75247047 17.2985035,4.23874256 C17.1301755,5.37479372 16.7101686,6.39580884 15.8185081,7.1976914 C15.5671085,7.42375884 15.2893395,7.61410186 14.9814665,7.76481349 C14.2206374,8.13717279 13.5148337,8.01888907 12.860448,7.53447279 C12.2503164,7.08280186 11.8993326,6.46191 11.7433002,5.75401465 C11.3719169,4.06881349 11.7029584,2.51601 12.7942702,1.13733558 C13.2185196,0.601371628 13.7944319,0.258265814 14.4705127,0.0744181395 C14.5430416,0.0547123256 14.612649,0.0250437209 14.6836028,-9.76744186e-06 L14.9122402,-9.76744186e-06 Z" id="Fill-1"></path>
                                <path d="M0,9.27906 C0.0340923788,9.07120884 0.0649330254,8.86282047 0.102988453,8.65565302 C0.179963048,8.23677628 0.289226328,7.8292786 0.587039261,7.49540302 C1.06908314,6.95504372 1.67774134,6.72147977 2.41474134,6.80176814 C2.95788222,6.86095884 3.3989746,7.13412977 3.81415473,7.44409953 C4.76012933,8.15043209 5.31980831,9.09611581 5.61142263,10.1990065 C5.74652194,10.7100147 5.72881524,11.230717 5.69586605,11.7508088 C5.6668291,12.2094635 5.54074827,12.6407937 5.25449423,13.014667 C4.940194,13.4252414 4.54942725,13.7409251 4.00857275,13.8317623 C3.57698152,13.9042856 3.16805081,13.8035833 2.77535335,13.6387821 C1.63915242,13.16196 0.894099307,12.3291879 0.437256351,11.2405821 C0.216621247,10.7148007 0.0710300231,10.1699484 0.0234988453,9.60292395 C0.0212378753,9.57591698 0.00807852194,9.54978907 0,9.52324605 L0,9.27906 Z" id="Fill-4"></path>
                                <path d="M4.13044665,18.7229065 C4.20670993,18.3745263 4.27324342,18.0238995 4.36088776,17.6782053 C4.75810716,16.1114588 5.53113025,14.7193542 6.49923187,13.4148635 C7.22896628,12.4315751 8.18040277,11.731567 9.34459908,11.2947426 C10.3485714,10.9180367 11.3798785,10.8259298 12.428994,11.0878193 C13.1319016,11.2633158 13.7414236,11.6200228 14.3035413,12.0540147 C15.2508624,12.7854007 16.0027746,13.6837856 16.6788046,14.6443402 C17.1905206,15.3714286 17.6899917,16.1069414 18.0724005,16.9075786 C18.3265945,17.4397821 18.552285,17.9836821 18.6312411,18.5695088 C18.7072758,19.133603 18.678442,19.6863914 18.313994,20.1690984 C17.9478947,20.654003 17.426449,20.8731112 16.8232781,20.9512751 C16.1856845,21.0339077 15.6037007,20.8599984 15.0282203,20.6271426 C14.460285,20.3973635 13.888158,20.1768879 13.3144559,19.9606612 C12.4795229,19.6460763 11.6206591,19.6202414 10.7439871,19.7617716 C10.0122457,19.8799088 9.34033118,20.1684147 8.64651824,20.3971681 C8.12852748,20.5680007 7.60604018,20.7337298 7.07420416,20.8562623 C6.51485543,20.9851437 5.94364296,20.9863402 5.41363603,20.7270147 C4.71476767,20.3850565 4.33967529,19.80951 4.19413487,19.0827879 C4.18216952,19.02306 4.17566605,18.9619402 4.17165219,18.9011867 C4.16791778,18.8444623 4.17083926,18.7872984 4.17083926,18.7303542 C4.15740046,18.7278635 4.14391085,18.7253972 4.13044665,18.7229065" id="Fill-6"></path>
                                <path d="M10.2334727,4.8559643 C10.2526783,5.53795151 10.0919716,6.25703058 9.67420023,6.90895849 C9.29753279,7.49673872 8.775706,7.89485965 8.04266905,7.99360849 C7.7447037,8.03372826 7.46223487,7.97546547 7.18911478,7.86650965 C6.36777298,7.53886081 5.76653279,6.9735457 5.31708245,6.24899686 C4.90683072,5.58771663 4.64867367,4.86983407 4.5657037,4.10772942 C4.48730647,3.38784453 4.46393464,2.6610736 4.70402933,1.95676779 C4.92946582,1.29546314 5.31136651,0.740037558 5.94393002,0.376517791 C6.54128337,0.0332410465 7.15654665,0.0567805814 7.77368984,0.337008488 C8.59218637,0.70868407 9.16550739,1.31739105 9.57230416,2.07820151 C10.0232025,2.9214736 10.2326344,3.75473407 10.2334727,4.8559643" id="Fill-9"></path>
                                <path d="M21.9756247,9.14690407 C21.9214376,10.344539 21.5234307,11.4167355 20.7184492,12.3366576 C20.1755624,12.9570855 19.4998372,13.3816029 18.6503984,13.4908762 C17.8786455,13.5901866 17.2789296,13.2832692 16.842791,12.6826448 C16.3846524,12.0517657 16.2152575,11.3413308 16.2823499,10.5785424 C16.369791,9.58382616 16.6812206,8.66361105 17.2896247,7.84610058 C17.7757841,7.19285407 18.3993037,6.70445756 19.2006016,6.460125 C20.066858,6.19598895 20.7599342,6.39360872 21.3926247,7.18022965 C21.7379434,7.60955756 21.9037055,8.109675 21.9479088,8.64776337 C21.9615508,8.81380988 21.9666316,8.9805157 21.9756247,9.14690407" id="Fill-11"></path>
                            </g>
                        </g>
                        <g transform="translate(186.939219, 45.291438) rotate(53.000000) translate(-186.939219, -45.291438) translate(175.945901, 34.716434)">
                            <g id="Group-13" transform="translate(0.000000, 0.024419)" fill="#3498D6">
                                <path d="M14.9122402,-9.76744186e-06 C15.0672309,0.0374483721 15.2245335,0.0678006977 15.3768314,0.113585581 C16.0159492,0.305808837 16.4637737,0.720607674 16.8042656,1.25857395 C17.1001732,1.72604372 17.2465012,2.2371007 17.3012471,2.77833907 C17.3505312,3.26578326 17.3705751,3.75247047 17.2985035,4.23874256 C17.1301755,5.37479372 16.7101686,6.39580884 15.8185081,7.1976914 C15.5671085,7.42375884 15.2893395,7.61410186 14.9814665,7.76481349 C14.2206374,8.13717279 13.5148337,8.01888907 12.860448,7.53447279 C12.2503164,7.08280186 11.8993326,6.46191 11.7433002,5.75401465 C11.3719169,4.06881349 11.7029584,2.51601 12.7942702,1.13733558 C13.2185196,0.601371628 13.7944319,0.258265814 14.4705127,0.0744181395 C14.5430416,0.0547123256 14.612649,0.0250437209 14.6836028,-9.76744186e-06 L14.9122402,-9.76744186e-06 Z" id="Fill-1"></path>
                                <path d="M0,9.27906 C0.0340923788,9.07120884 0.0649330254,8.86282047 0.102988453,8.65565302 C0.179963048,8.23677628 0.289226328,7.8292786 0.587039261,7.49540302 C1.06908314,6.95504372 1.67774134,6.72147977 2.41474134,6.80176814 C2.95788222,6.86095884 3.3989746,7.13412977 3.81415473,7.44409953 C4.76012933,8.15043209 5.31980831,9.09611581 5.61142263,10.1990065 C5.74652194,10.7100147 5.72881524,11.230717 5.69586605,11.7508088 C5.6668291,12.2094635 5.54074827,12.6407937 5.25449423,13.014667 C4.940194,13.4252414 4.54942725,13.7409251 4.00857275,13.8317623 C3.57698152,13.9042856 3.16805081,13.8035833 2.77535335,13.6387821 C1.63915242,13.16196 0.894099307,12.3291879 0.437256351,11.2405821 C0.216621247,10.7148007 0.0710300231,10.1699484 0.0234988453,9.60292395 C0.0212378753,9.57591698 0.00807852194,9.54978907 0,9.52324605 L0,9.27906 Z" id="Fill-4"></path>
                                <path d="M4.13044665,18.7229065 C4.20670993,18.3745263 4.27324342,18.0238995 4.36088776,17.6782053 C4.75810716,16.1114588 5.53113025,14.7193542 6.49923187,13.4148635 C7.22896628,12.4315751 8.18040277,11.731567 9.34459908,11.2947426 C10.3485714,10.9180367 11.3798785,10.8259298 12.428994,11.0878193 C13.1319016,11.2633158 13.7414236,11.6200228 14.3035413,12.0540147 C15.2508624,12.7854007 16.0027746,13.6837856 16.6788046,14.6443402 C17.1905206,15.3714286 17.6899917,16.1069414 18.0724005,16.9075786 C18.3265945,17.4397821 18.552285,17.9836821 18.6312411,18.5695088 C18.7072758,19.133603 18.678442,19.6863914 18.313994,20.1690984 C17.9478947,20.654003 17.426449,20.8731112 16.8232781,20.9512751 C16.1856845,21.0339077 15.6037007,20.8599984 15.0282203,20.6271426 C14.460285,20.3973635 13.888158,20.1768879 13.3144559,19.9606612 C12.4795229,19.6460763 11.6206591,19.6202414 10.7439871,19.7617716 C10.0122457,19.8799088 9.34033118,20.1684147 8.64651824,20.3971681 C8.12852748,20.5680007 7.60604018,20.7337298 7.07420416,20.8562623 C6.51485543,20.9851437 5.94364296,20.9863402 5.41363603,20.7270147 C4.71476767,20.3850565 4.33967529,19.80951 4.19413487,19.0827879 C4.18216952,19.02306 4.17566605,18.9619402 4.17165219,18.9011867 C4.16791778,18.8444623 4.17083926,18.7872984 4.17083926,18.7303542 C4.15740046,18.7278635 4.14391085,18.7253972 4.13044665,18.7229065" id="Fill-6"></path>
                                <path d="M10.2334727,4.8559643 C10.2526783,5.53795151 10.0919716,6.25703058 9.67420023,6.90895849 C9.29753279,7.49673872 8.775706,7.89485965 8.04266905,7.99360849 C7.7447037,8.03372826 7.46223487,7.97546547 7.18911478,7.86650965 C6.36777298,7.53886081 5.76653279,6.9735457 5.31708245,6.24899686 C4.90683072,5.58771663 4.64867367,4.86983407 4.5657037,4.10772942 C4.48730647,3.38784453 4.46393464,2.6610736 4.70402933,1.95676779 C4.92946582,1.29546314 5.31136651,0.740037558 5.94393002,0.376517791 C6.54128337,0.0332410465 7.15654665,0.0567805814 7.77368984,0.337008488 C8.59218637,0.70868407 9.16550739,1.31739105 9.57230416,2.07820151 C10.0232025,2.9214736 10.2326344,3.75473407 10.2334727,4.8559643" id="Fill-9"></path>
                                <path d="M21.9756247,9.14690407 C21.9214376,10.344539 21.5234307,11.4167355 20.7184492,12.3366576 C20.1755624,12.9570855 19.4998372,13.3816029 18.6503984,13.4908762 C17.8786455,13.5901866 17.2789296,13.2832692 16.842791,12.6826448 C16.3846524,12.0517657 16.2152575,11.3413308 16.2823499,10.5785424 C16.369791,9.58382616 16.6812206,8.66361105 17.2896247,7.84610058 C17.7757841,7.19285407 18.3993037,6.70445756 19.2006016,6.460125 C20.066858,6.19598895 20.7599342,6.39360872 21.3926247,7.18022965 C21.7379434,7.60955756 21.9037055,8.109675 21.9479088,8.64776337 C21.9615508,8.81380988 21.9666316,8.9805157 21.9756247,9.14690407" id="Fill-11"></path>
                            </g>
                        </g>
                        <g transform="translate(226.878166, 54.467114) rotate(79.000000) translate(-226.878166, -54.467114) translate(215.884848, 43.892110)">
                            <g id="Group-13" transform="translate(0.000000, 0.024419)" fill="#3498D6">
                                <path d="M14.9122402,-9.76744186e-06 C15.0672309,0.0374483721 15.2245335,0.0678006977 15.3768314,0.113585581 C16.0159492,0.305808837 16.4637737,0.720607674 16.8042656,1.25857395 C17.1001732,1.72604372 17.2465012,2.2371007 17.3012471,2.77833907 C17.3505312,3.26578326 17.3705751,3.75247047 17.2985035,4.23874256 C17.1301755,5.37479372 16.7101686,6.39580884 15.8185081,7.1976914 C15.5671085,7.42375884 15.2893395,7.61410186 14.9814665,7.76481349 C14.2206374,8.13717279 13.5148337,8.01888907 12.860448,7.53447279 C12.2503164,7.08280186 11.8993326,6.46191 11.7433002,5.75401465 C11.3719169,4.06881349 11.7029584,2.51601 12.7942702,1.13733558 C13.2185196,0.601371628 13.7944319,0.258265814 14.4705127,0.0744181395 C14.5430416,0.0547123256 14.612649,0.0250437209 14.6836028,-9.76744186e-06 L14.9122402,-9.76744186e-06 Z" id="Fill-1"></path>
                                <path d="M0,9.27906 C0.0340923788,9.07120884 0.0649330254,8.86282047 0.102988453,8.65565302 C0.179963048,8.23677628 0.289226328,7.8292786 0.587039261,7.49540302 C1.06908314,6.95504372 1.67774134,6.72147977 2.41474134,6.80176814 C2.95788222,6.86095884 3.3989746,7.13412977 3.81415473,7.44409953 C4.76012933,8.15043209 5.31980831,9.09611581 5.61142263,10.1990065 C5.74652194,10.7100147 5.72881524,11.230717 5.69586605,11.7508088 C5.6668291,12.2094635 5.54074827,12.6407937 5.25449423,13.014667 C4.940194,13.4252414 4.54942725,13.7409251 4.00857275,13.8317623 C3.57698152,13.9042856 3.16805081,13.8035833 2.77535335,13.6387821 C1.63915242,13.16196 0.894099307,12.3291879 0.437256351,11.2405821 C0.216621247,10.7148007 0.0710300231,10.1699484 0.0234988453,9.60292395 C0.0212378753,9.57591698 0.00807852194,9.54978907 0,9.52324605 L0,9.27906 Z" id="Fill-4"></path>
                                <path d="M4.13044665,18.7229065 C4.20670993,18.3745263 4.27324342,18.0238995 4.36088776,17.6782053 C4.75810716,16.1114588 5.53113025,14.7193542 6.49923187,13.4148635 C7.22896628,12.4315751 8.18040277,11.731567 9.34459908,11.2947426 C10.3485714,10.9180367 11.3798785,10.8259298 12.428994,11.0878193 C13.1319016,11.2633158 13.7414236,11.6200228 14.3035413,12.0540147 C15.2508624,12.7854007 16.0027746,13.6837856 16.6788046,14.6443402 C17.1905206,15.3714286 17.6899917,16.1069414 18.0724005,16.9075786 C18.3265945,17.4397821 18.552285,17.9836821 18.6312411,18.5695088 C18.7072758,19.133603 18.678442,19.6863914 18.313994,20.1690984 C17.9478947,20.654003 17.426449,20.8731112 16.8232781,20.9512751 C16.1856845,21.0339077 15.6037007,20.8599984 15.0282203,20.6271426 C14.460285,20.3973635 13.888158,20.1768879 13.3144559,19.9606612 C12.4795229,19.6460763 11.6206591,19.6202414 10.7439871,19.7617716 C10.0122457,19.8799088 9.34033118,20.1684147 8.64651824,20.3971681 C8.12852748,20.5680007 7.60604018,20.7337298 7.07420416,20.8562623 C6.51485543,20.9851437 5.94364296,20.9863402 5.41363603,20.7270147 C4.71476767,20.3850565 4.33967529,19.80951 4.19413487,19.0827879 C4.18216952,19.02306 4.17566605,18.9619402 4.17165219,18.9011867 C4.16791778,18.8444623 4.17083926,18.7872984 4.17083926,18.7303542 C4.15740046,18.7278635 4.14391085,18.7253972 4.13044665,18.7229065" id="Fill-6"></path>
                                <path d="M10.2334727,4.8559643 C10.2526783,5.53795151 10.0919716,6.25703058 9.67420023,6.90895849 C9.29753279,7.49673872 8.775706,7.89485965 8.04266905,7.99360849 C7.7447037,8.03372826 7.46223487,7.97546547 7.18911478,7.86650965 C6.36777298,7.53886081 5.76653279,6.9735457 5.31708245,6.24899686 C4.90683072,5.58771663 4.64867367,4.86983407 4.5657037,4.10772942 C4.48730647,3.38784453 4.46393464,2.6610736 4.70402933,1.95676779 C4.92946582,1.29546314 5.31136651,0.740037558 5.94393002,0.376517791 C6.54128337,0.0332410465 7.15654665,0.0567805814 7.77368984,0.337008488 C8.59218637,0.70868407 9.16550739,1.31739105 9.57230416,2.07820151 C10.0232025,2.9214736 10.2326344,3.75473407 10.2334727,4.8559643" id="Fill-9"></path>
                                <path d="M21.9756247,9.14690407 C21.9214376,10.344539 21.5234307,11.4167355 20.7184492,12.3366576 C20.1755624,12.9570855 19.4998372,13.3816029 18.6503984,13.4908762 C17.8786455,13.5901866 17.2789296,13.2832692 16.842791,12.6826448 C16.3846524,12.0517657 16.2152575,11.3413308 16.2823499,10.5785424 C16.369791,9.58382616 16.6812206,8.66361105 17.2896247,7.84610058 C17.7757841,7.19285407 18.3993037,6.70445756 19.2006016,6.460125 C20.066858,6.19598895 20.7599342,6.39360872 21.3926247,7.18022965 C21.7379434,7.60955756 21.9037055,8.109675 21.9479088,8.64776337 C21.9615508,8.81380988 21.9666316,8.9805157 21.9756247,9.14690407" id="Fill-11"></path>
                            </g>
                        </g>
                        <g transform="translate(260.320115, 15.669046) rotate(36.000000) translate(-260.320115, -15.669046) translate(249.326796, 5.094042)">
                            <g id="Group-13" transform="translate(0.000000, 0.024419)" fill="#3498D6">
                                <path d="M14.9122402,-9.76744186e-06 C15.0672309,0.0374483721 15.2245335,0.0678006977 15.3768314,0.113585581 C16.0159492,0.305808837 16.4637737,0.720607674 16.8042656,1.25857395 C17.1001732,1.72604372 17.2465012,2.2371007 17.3012471,2.77833907 C17.3505312,3.26578326 17.3705751,3.75247047 17.2985035,4.23874256 C17.1301755,5.37479372 16.7101686,6.39580884 15.8185081,7.1976914 C15.5671085,7.42375884 15.2893395,7.61410186 14.9814665,7.76481349 C14.2206374,8.13717279 13.5148337,8.01888907 12.860448,7.53447279 C12.2503164,7.08280186 11.8993326,6.46191 11.7433002,5.75401465 C11.3719169,4.06881349 11.7029584,2.51601 12.7942702,1.13733558 C13.2185196,0.601371628 13.7944319,0.258265814 14.4705127,0.0744181395 C14.5430416,0.0547123256 14.612649,0.0250437209 14.6836028,-9.76744186e-06 L14.9122402,-9.76744186e-06 Z" id="Fill-1"></path>
                                <path d="M0,9.27906 C0.0340923788,9.07120884 0.0649330254,8.86282047 0.102988453,8.65565302 C0.179963048,8.23677628 0.289226328,7.8292786 0.587039261,7.49540302 C1.06908314,6.95504372 1.67774134,6.72147977 2.41474134,6.80176814 C2.95788222,6.86095884 3.3989746,7.13412977 3.81415473,7.44409953 C4.76012933,8.15043209 5.31980831,9.09611581 5.61142263,10.1990065 C5.74652194,10.7100147 5.72881524,11.230717 5.69586605,11.7508088 C5.6668291,12.2094635 5.54074827,12.6407937 5.25449423,13.014667 C4.940194,13.4252414 4.54942725,13.7409251 4.00857275,13.8317623 C3.57698152,13.9042856 3.16805081,13.8035833 2.77535335,13.6387821 C1.63915242,13.16196 0.894099307,12.3291879 0.437256351,11.2405821 C0.216621247,10.7148007 0.0710300231,10.1699484 0.0234988453,9.60292395 C0.0212378753,9.57591698 0.00807852194,9.54978907 0,9.52324605 L0,9.27906 Z" id="Fill-4"></path>
                                <path d="M4.13044665,18.7229065 C4.20670993,18.3745263 4.27324342,18.0238995 4.36088776,17.6782053 C4.75810716,16.1114588 5.53113025,14.7193542 6.49923187,13.4148635 C7.22896628,12.4315751 8.18040277,11.731567 9.34459908,11.2947426 C10.3485714,10.9180367 11.3798785,10.8259298 12.428994,11.0878193 C13.1319016,11.2633158 13.7414236,11.6200228 14.3035413,12.0540147 C15.2508624,12.7854007 16.0027746,13.6837856 16.6788046,14.6443402 C17.1905206,15.3714286 17.6899917,16.1069414 18.0724005,16.9075786 C18.3265945,17.4397821 18.552285,17.9836821 18.6312411,18.5695088 C18.7072758,19.133603 18.678442,19.6863914 18.313994,20.1690984 C17.9478947,20.654003 17.426449,20.8731112 16.8232781,20.9512751 C16.1856845,21.0339077 15.6037007,20.8599984 15.0282203,20.6271426 C14.460285,20.3973635 13.888158,20.1768879 13.3144559,19.9606612 C12.4795229,19.6460763 11.6206591,19.6202414 10.7439871,19.7617716 C10.0122457,19.8799088 9.34033118,20.1684147 8.64651824,20.3971681 C8.12852748,20.5680007 7.60604018,20.7337298 7.07420416,20.8562623 C6.51485543,20.9851437 5.94364296,20.9863402 5.41363603,20.7270147 C4.71476767,20.3850565 4.33967529,19.80951 4.19413487,19.0827879 C4.18216952,19.02306 4.17566605,18.9619402 4.17165219,18.9011867 C4.16791778,18.8444623 4.17083926,18.7872984 4.17083926,18.7303542 C4.15740046,18.7278635 4.14391085,18.7253972 4.13044665,18.7229065" id="Fill-6"></path>
                                <path d="M10.2334727,4.8559643 C10.2526783,5.53795151 10.0919716,6.25703058 9.67420023,6.90895849 C9.29753279,7.49673872 8.775706,7.89485965 8.04266905,7.99360849 C7.7447037,8.03372826 7.46223487,7.97546547 7.18911478,7.86650965 C6.36777298,7.53886081 5.76653279,6.9735457 5.31708245,6.24899686 C4.90683072,5.58771663 4.64867367,4.86983407 4.5657037,4.10772942 C4.48730647,3.38784453 4.46393464,2.6610736 4.70402933,1.95676779 C4.92946582,1.29546314 5.31136651,0.740037558 5.94393002,0.376517791 C6.54128337,0.0332410465 7.15654665,0.0567805814 7.77368984,0.337008488 C8.59218637,0.70868407 9.16550739,1.31739105 9.57230416,2.07820151 C10.0232025,2.9214736 10.2326344,3.75473407 10.2334727,4.8559643" id="Fill-9"></path>
                                <path d="M21.9756247,9.14690407 C21.9214376,10.344539 21.5234307,11.4167355 20.7184492,12.3366576 C20.1755624,12.9570855 19.4998372,13.3816029 18.6503984,13.4908762 C17.8786455,13.5901866 17.2789296,13.2832692 16.842791,12.6826448 C16.3846524,12.0517657 16.2152575,11.3413308 16.2823499,10.5785424 C16.369791,9.58382616 16.6812206,8.66361105 17.2896247,7.84610058 C17.7757841,7.19285407 18.3993037,6.70445756 19.2006016,6.460125 C20.066858,6.19598895 20.7599342,6.39360872 21.3926247,7.18022965 C21.7379434,7.60955756 21.9037055,8.109675 21.9479088,8.64776337 C21.9615508,8.81380988 21.9666316,8.9805157 21.9756247,9.14690407" id="Fill-11"></path>
                            </g>
                        </g>
                        <g transform="translate(296.935008, 15.798195) rotate(53.000000) translate(-296.935008, -15.798195) translate(285.941690, 5.223191)">
                            <g id="Group-13" transform="translate(0.000000, 0.024419)" fill="#3498D6">
                                <path d="M14.9122402,-9.76744186e-06 C15.0672309,0.0374483721 15.2245335,0.0678006977 15.3768314,0.113585581 C16.0159492,0.305808837 16.4637737,0.720607674 16.8042656,1.25857395 C17.1001732,1.72604372 17.2465012,2.2371007 17.3012471,2.77833907 C17.3505312,3.26578326 17.3705751,3.75247047 17.2985035,4.23874256 C17.1301755,5.37479372 16.7101686,6.39580884 15.8185081,7.1976914 C15.5671085,7.42375884 15.2893395,7.61410186 14.9814665,7.76481349 C14.2206374,8.13717279 13.5148337,8.01888907 12.860448,7.53447279 C12.2503164,7.08280186 11.8993326,6.46191 11.7433002,5.75401465 C11.3719169,4.06881349 11.7029584,2.51601 12.7942702,1.13733558 C13.2185196,0.601371628 13.7944319,0.258265814 14.4705127,0.0744181395 C14.5430416,0.0547123256 14.612649,0.0250437209 14.6836028,-9.76744186e-06 L14.9122402,-9.76744186e-06 Z" id="Fill-1"></path>
                                <path d="M0,9.27906 C0.0340923788,9.07120884 0.0649330254,8.86282047 0.102988453,8.65565302 C0.179963048,8.23677628 0.289226328,7.8292786 0.587039261,7.49540302 C1.06908314,6.95504372 1.67774134,6.72147977 2.41474134,6.80176814 C2.95788222,6.86095884 3.3989746,7.13412977 3.81415473,7.44409953 C4.76012933,8.15043209 5.31980831,9.09611581 5.61142263,10.1990065 C5.74652194,10.7100147 5.72881524,11.230717 5.69586605,11.7508088 C5.6668291,12.2094635 5.54074827,12.6407937 5.25449423,13.014667 C4.940194,13.4252414 4.54942725,13.7409251 4.00857275,13.8317623 C3.57698152,13.9042856 3.16805081,13.8035833 2.77535335,13.6387821 C1.63915242,13.16196 0.894099307,12.3291879 0.437256351,11.2405821 C0.216621247,10.7148007 0.0710300231,10.1699484 0.0234988453,9.60292395 C0.0212378753,9.57591698 0.00807852194,9.54978907 0,9.52324605 L0,9.27906 Z" id="Fill-4"></path>
                                <path d="M4.13044665,18.7229065 C4.20670993,18.3745263 4.27324342,18.0238995 4.36088776,17.6782053 C4.75810716,16.1114588 5.53113025,14.7193542 6.49923187,13.4148635 C7.22896628,12.4315751 8.18040277,11.731567 9.34459908,11.2947426 C10.3485714,10.9180367 11.3798785,10.8259298 12.428994,11.0878193 C13.1319016,11.2633158 13.7414236,11.6200228 14.3035413,12.0540147 C15.2508624,12.7854007 16.0027746,13.6837856 16.6788046,14.6443402 C17.1905206,15.3714286 17.6899917,16.1069414 18.0724005,16.9075786 C18.3265945,17.4397821 18.552285,17.9836821 18.6312411,18.5695088 C18.7072758,19.133603 18.678442,19.6863914 18.313994,20.1690984 C17.9478947,20.654003 17.426449,20.8731112 16.8232781,20.9512751 C16.1856845,21.0339077 15.6037007,20.8599984 15.0282203,20.6271426 C14.460285,20.3973635 13.888158,20.1768879 13.3144559,19.9606612 C12.4795229,19.6460763 11.6206591,19.6202414 10.7439871,19.7617716 C10.0122457,19.8799088 9.34033118,20.1684147 8.64651824,20.3971681 C8.12852748,20.5680007 7.60604018,20.7337298 7.07420416,20.8562623 C6.51485543,20.9851437 5.94364296,20.9863402 5.41363603,20.7270147 C4.71476767,20.3850565 4.33967529,19.80951 4.19413487,19.0827879 C4.18216952,19.02306 4.17566605,18.9619402 4.17165219,18.9011867 C4.16791778,18.8444623 4.17083926,18.7872984 4.17083926,18.7303542 C4.15740046,18.7278635 4.14391085,18.7253972 4.13044665,18.7229065" id="Fill-6"></path>
                                <path d="M10.2334727,4.8559643 C10.2526783,5.53795151 10.0919716,6.25703058 9.67420023,6.90895849 C9.29753279,7.49673872 8.775706,7.89485965 8.04266905,7.99360849 C7.7447037,8.03372826 7.46223487,7.97546547 7.18911478,7.86650965 C6.36777298,7.53886081 5.76653279,6.9735457 5.31708245,6.24899686 C4.90683072,5.58771663 4.64867367,4.86983407 4.5657037,4.10772942 C4.48730647,3.38784453 4.46393464,2.6610736 4.70402933,1.95676779 C4.92946582,1.29546314 5.31136651,0.740037558 5.94393002,0.376517791 C6.54128337,0.0332410465 7.15654665,0.0567805814 7.77368984,0.337008488 C8.59218637,0.70868407 9.16550739,1.31739105 9.57230416,2.07820151 C10.0232025,2.9214736 10.2326344,3.75473407 10.2334727,4.8559643" id="Fill-9"></path>
                                <path d="M21.9756247,9.14690407 C21.9214376,10.344539 21.5234307,11.4167355 20.7184492,12.3366576 C20.1755624,12.9570855 19.4998372,13.3816029 18.6503984,13.4908762 C17.8786455,13.5901866 17.2789296,13.2832692 16.842791,12.6826448 C16.3846524,12.0517657 16.2152575,11.3413308 16.2823499,10.5785424 C16.369791,9.58382616 16.6812206,8.66361105 17.2896247,7.84610058 C17.7757841,7.19285407 18.3993037,6.70445756 19.2006016,6.460125 C20.066858,6.19598895 20.7599342,6.39360872 21.3926247,7.18022965 C21.7379434,7.60955756 21.9037055,8.109675 21.9479088,8.64776337 C21.9615508,8.81380988 21.9666316,8.9805157 21.9756247,9.14690407" id="Fill-11"></path>
                            </g>
                        </g>
                    </g>
                </g>
            </g>
        </g>
    </g>
</svg>
