<?xml version="1.0" encoding="UTF-8"?>
<svg width="125px" height="102px" viewBox="0 0 125 102" version="1.1" xmlns="http://www.w3.org/2000/svg" xmlns:xlink="http://www.w3.org/1999/xlink">
    <!-- Generator: Sketch 52.2 (67145) - http://www.bohemiancoding.com/sketch -->
    <title>Group 32</title>
    <desc>Created with Sketch.</desc>
    <g id="Welcome" stroke="none" stroke-width="1" fill="none" fill-rule="evenodd">
        <g id="Desktop-3.1-Get-Started" transform="translate(-336.000000, -1037.000000)">
            <g id="Group-32" transform="translate(336.000000, 1037.000000)">
                <g id="floor" transform="translate(0.000000, 56.000000)">
                    <path d="M66.1275175,0.971622222 C64.0783492,0.418344444 60.9670329,0.273955556 58.799992,0.971622222 L1.51135881,19.1518444 C-0.504131682,21.1400667 -0.504131682,24.3920111 1.51135881,26.3802333 L58.799992,44.5604556 C61.3064021,45.5916222 63.9423424,45.6631778 66.1275175,44.5604556 L123.416151,26.3802333 C125.431641,24.3920111 125.431641,21.1400667 123.416151,19.1518444 L66.1275175,0.971622222 Z" id="Fill-1" fill="#ECE8F4"></path>
                    <path d="M66.1661442,42.0605155 C63.9795487,43.1689039 61.3418951,43.098265 58.8338558,42.0605155 L1.50798489,23.7868764 C0.738075168,23.0239763 0.266278636,22.7137354 0.0848184319,21.7222222 C-0.209406328,23.3276516 0.261094059,25.0473875 1.50798489,26.2829259 L58.8338558,44.556565 C61.3418951,45.5930302 63.9795487,45.6649535 66.1661442,44.556565 L123.492015,26.2829259 C124.738906,25.0473875 125.209406,23.3276516 124.915182,21.7222222 C124.733721,22.7137354 124.261925,23.0239763 123.492015,23.7868764 L66.1661442,42.0605155 Z" id="Fill-4" fill="#98B3C5"></path>
                </g>
                <path d="M94.3977928,76.6 L94.3977928,79.6 L56.8449171,79.6 C55.2446121,79.6 53.8977928,79.128864 53.8977928,77.5937759 L53.8977928,75.5 L42,75.5 L42,72.5 L56.8977928,72.5 L56.8977928,76.6 L94.3977928,76.6 Z" id="Stroke-3" fill="#DBCB32" fill-rule="nonzero" transform="translate(68.198896, 76.050000) scale(1, -1) translate(-68.198896, -76.050000) "></path>
                <g id="Group-9" transform="translate(35.500000, 16.000000) rotate(-270.000000) translate(-35.500000, -16.000000) translate(29.500000, -2.500000)" fill="#000000">
                    <g id="Group-2" transform="translate(-0.000000, 17.000000)">
                        <polygon id="Fill-38" points="0 3.7 3.7 3.7 3.7 0 0 0"></polygon>
                        <polygon id="Fill-39" points="0 11.4 3.7 11.4 3.7 7.7 0 7.7"></polygon>
                        <polygon id="Fill-40" points="0 19.1 3.7 19.1 3.7 15.4 0 15.4"></polygon>
                    </g>
                    <g id="Group-2" transform="translate(8.000000, -0.000000)">
                        <polygon id="Fill-38" points="0 3.7 3.7 3.7 3.7 0 0 0"></polygon>
                        <polygon id="Fill-39" points="0 11.4 3.7 11.4 3.7 7.7 0 7.7"></polygon>
                        <polygon id="Fill-40" points="0 19.1 3.7 19.1 3.7 15.4 0 15.4"></polygon>
                    </g>
                </g>
                <g id="Group-21" transform="translate(7.000000, 27.000000)">
                    <g id="Group-17">
                        <path d="M64.993223,41.1601427 C64.9653635,42.8121578 63.9260655,43.933594 62.1698933,44.1730959 C61.3293496,44.2878505 60.4748762,44.3610227 59.6265182,44.3632791 C53.2650229,44.3787516 48.3039806,44.4067956 41.942825,44.3436161 C37.5753275,44.3436161 38.6876718,47.279529 39.1721566,48.6691557 C40.1920887,51.5941089 40.4706844,51.7817134 45.3298014,51.7817134 C45.6736293,51.7817134 45.6009226,53.1391057 45.6009226,54.0777726 C45.6009226,55 45.5757811,55 45.3016021,55 C37.4686457,55 27.8832543,54.9661538 20.0496184,54.9954872 C19.3935594,54.9954872 19.4278743,54.9674432 19.4278743,54.3292013 C19.4278743,53.5391351 19.2794031,51.8026658 19.8049977,51.8026658 C23.9849527,51.8026658 25.5641148,51.8303874 26.6689846,48.6691557 C28.0606042,44.6878799 26.4382938,44.37166 22.1934464,44.37166 C16.5437291,44.37166 10.8940118,44.379074 5.24463425,44.3629567 C4.44350169,44.3610227 3.63625361,44.2855941 2.84361482,44.1727735 C1.09457732,43.924246 0.0457663693,42.8021651 0.00941302577,41.1559522 C-0.0150490372,40.0760984 0.0151887906,39.0952044 0.0213043064,38.0147059 C0.540103892,38.0495191 1.05924323,38.0147059 1.57838256,38.0147059 C22.1937861,38.0198634 42.8091897,38.0198634 63.424933,38.0150282 C63.9437326,38.0150282 64.4632117,38.048552 64.9820113,38.0150282 C64.9874473,39.0955267 65.0115696,40.0799665 64.993223,41.1601427 Z" id="Fill-3" fill="#98B3C5"></path>
                        <path d="M0.00912993141,38.0121694 C0.00539144136,26.5775645 -0.0048044406,15.0395739 0.0026725395,3.60463666 C0.00437185316,1.24936802 1.29483065,0.00574629508 3.72348973,0.0047490042 C22.9226753,-0.00189960168 42.121521,-0.00156717139 61.3207066,0.00574629508 C63.766019,0.00674358596 64.9993808,1.22543304 64.9997207,3.60895825 C65.00142,15.0435631 64.9949626,26.5775645 64.9912241,38.0125018 C64.9912241,38.0174882 0.0026725395,38.0125018 0.00912993141,38.0121694 Z" id="Fill-5" fill="#4F586F"></path>
                        <path d="M60.4607745,35.5882353 C60.9528401,35.5882353 60.9598648,35.3637565 60.9538436,34.3882109 C60.8940506,24.7006265 60.9598648,15.0126171 60.9876292,5.32465531 C60.9903053,4.39947838 60.7802325,4.04247359 59.753953,4.04412334 C41.3260813,4.07249895 22.8985442,4.07117915 4.4706725,4.04478323 C3.48252726,4.04346344 3.20689027,4.33513833 3.20990087,5.29858934 C3.24201392,15.0324141 3.2413449,24.7665688 3.2413449,34.5003935 C3.2413449,34.9834388 3.19049924,35.5882353 3.7166849,35.5882353 C22.6312699,35.5882353 41.5461895,35.5882353 60.4607745,35.5882353 Z" id="Path" fill="#4F586F"></path>
                        <path d="M33.7037037,41.6544118 C33.7037037,42.7711763 32.8055963,43.6764706 31.6976974,43.6764706 C30.5894654,43.6764706 29.691358,42.7711763 29.691358,41.6544118 C29.691358,40.5376472 30.5894654,39.6323529 31.6976974,39.6323529 C32.8055963,39.6323529 33.7037037,40.5376472 33.7037037,41.6544118" id="Fill-8" fill="#000000"></path>
                        <g id="home" transform="translate(36.111111, 6.470588)" fill-rule="nonzero">
                            <path d="M4.56400629,1.232493 L5.86801863,1.232493 C6.22809001,1.232493 6.52006173,1.55082178 6.52006173,1.94357763 L6.52006173,10.4761905 L3.91203704,10.4761905 L3.91203705,1.94349708 C3.91196319,1.55082178 4.20393491,1.232493 4.56400629,1.232493 Z" id="Shape" fill="#9ECCC7"></path>
                            <path d="M10.2560516,4.92997199 L11.9121583,4.92997199 C12.1750289,4.92997199 12.3881173,5.18172022 12.3881173,5.49228241 L12.3881173,11.092437 L9.78009259,11.092437 L9.78009259,5.49236967 C9.78009259,5.18180748 9.99318099,4.92997199 10.2560516,4.92997199 Z" id="Shape" fill="#FFFFFF"></path>
                            <path d="M15.6764865,7.39495798 L17.5318469,7.39495798 C17.7396644,7.39495798 17.908179,7.58595558 17.908179,7.82168683 L17.908179,11.092437 L15.3001543,11.092437 L15.3001543,7.82168683 C15.3002282,7.58603935 15.468669,7.39495798 15.6764865,7.39495798 Z" id="Shape" fill="#98B3C5"></path>
                            <g id="Group" fill="#AEA016">
                                <path d="M20.0726675,11.5046653 L2.34813885,11.5046653 C1.0713198,11.5046653 0.0362286275,10.5426369 0.0362286275,9.3559432 L0.0362286275,0.761135903 C0.0362286275,0.365598377 0.381229919,0.0448681542 0.806894468,0.0448681542 C1.23255902,0.0448681542 1.57756031,0.365517241 1.57756031,0.761135903 L1.57756031,9.3559432 C1.57756031,9.75148073 1.9225616,10.072211 2.34822615,10.072211 L20.0726675,10.072211 C20.4982447,10.072211 20.8433333,10.39286 20.8433333,10.7884787 C20.8433333,11.1840974 20.4982447,11.5046653 20.0726675,11.5046653 Z" id="Shape"></path>
                            </g>
                        </g>
                    </g>
                    <g id="Shape" transform="translate(7.000000, 6.000000)" fill-rule="nonzero">
                        <path d="M11.6395012,0.555405197 L11.6395012,12.5877134 L1.94004977,18.6038676 L1.66843524,18.7842409 C0.570110488,16.9173544 -0.00740000786,14.7726385 7.15891164e-05,12.5877134 C0.000291341969,5.94229727 5.21129073,0.555405197 11.6395012,0.555405197 Z" fill="#DBCB32"></path>
                        <path d="M22.9999484,12.5877134 C23.009178,15.7801393 21.7794411,18.8433052 19.5856484,21.0904749 L11.3605188,12.5877134 L11.3605188,0.555405197 C17.7887293,0.555632368 22.9999484,5.94252444 22.9999484,12.5877134 Z" fill="#98B3C5"></path>
                        <path d="M19.6780022,20.8449412 C17.1484272,23.466715 13.5906285,24.7361433 10.0350273,24.2856644 C6.47964593,23.8349583 3.32377521,21.7147768 1.48180681,18.5389344 L1.75342133,18.358561 L11.4528727,12.3424069 L19.6780022,20.8449412 Z" fill="#FFFFFF"></path>
                    </g>
                </g>
                <g id="Group-8" transform="translate(55.000000, 0.000000)">
                    <g transform="translate(0.000000, 0.468571)">
                        <path d="M49.8517088,78.7296881 L12.6940299,78.7296881 L24.6655185,28.5211757 C26.05589,26.2787689 28.5244492,24.8342857 31.2710826,24.8342857 L31.274656,24.8342857 C34.0372073,24.8342857 36.517786,26.2963845 37.9032847,28.5613002 L49.8517088,78.7296881 Z" id="path-1_72_" fill="#9ECCC7"></path>
                        <path d="M46.0905148,43.5868309 L16.4552239,43.5868309 L26.0031439,22.1884589 C27.1120416,21.2327673 29.0808532,20.6171429 31.2714443,20.6171429 L31.2742943,20.6171429 C33.4775808,20.6171429 35.4559786,21.2402749 36.56099,22.2055596 L46.0905148,43.5868309 Z" id="path-1_72_" fill="#4EA098"></path>
                        <rect id="Rectangle" fill="#4F586F" fill-rule="nonzero" x="10.8134328" y="77.7828571" width="41.3731343" height="3.74857143"></rect>
                        <path d="M28.268194,29.6638514 C27.8328358,29.6638514 27.3970075,29.4979771 27.0650821,29.1671657 L22.8694701,24.9856343 C22.2046791,24.3235429 22.2046791,23.2495771 22.8694701,22.5874857 C23.5342612,21.9244571 24.6113731,21.9244571 25.2761642,22.5874857 L29.4717761,26.76808 C30.1365672,27.4311086 30.1365672,28.5046057 29.4717761,29.1671657 C29.1393806,29.4979771 28.7040224,29.6638514 28.268194,29.6638514 Z" id="path-6_68_" fill="#793A78"></path>
                        <path d="M38.8794627,40.2385714 C38.4441045,40.2385714 38.0082761,40.0731657 37.6758806,39.7414171 L33.3998731,35.4806971 C32.7346119,34.8190743 32.7346119,33.7441714 33.3998731,33.0816114 C34.0646642,32.4190514 35.1417761,32.4190514 35.8070373,33.0816114 L40.0830448,37.3423314 C40.7478358,38.0044229 40.7478358,39.0788571 40.0830448,39.7414171 C39.7506493,40.0731657 39.3148209,40.2385714 38.8794627,40.2385714 Z" id="path-7_67_" fill="#793A78"></path>
                        <path d="M34.6025149,29.6647886 C34.1671567,29.6647886 33.7313284,29.4993829 33.399403,29.1681029 C32.7341418,28.5050743 32.7341418,27.4320457 33.399403,26.7690171 L37.6387388,22.5439086 C38.3035299,21.88088 39.3806418,21.88088 40.045903,22.5439086 C40.7102239,23.2069371 40.7102239,24.2804343 40.045903,24.9425257 L35.806097,29.1681029 C35.4737015,29.4993829 35.0378731,29.6647886 34.6025149,29.6647886 Z" id="path-8_51_" fill="#793A78"></path>
                        <path d="M24.0236866,40.2081143 C23.5883284,40.2081143 23.1529701,40.04224 22.8201045,39.7104914 C22.1553134,39.0488686 22.1553134,37.9749029 22.8201045,37.3118743 L27.0650821,33.0811429 C27.7298731,32.4181143 28.8069851,32.4181143 29.4717761,33.0811429 C30.1365672,33.7427657 30.1365672,34.8172 29.4717761,35.47976 L25.2272687,39.7104914 C24.8948731,40.04224 24.4590448,40.2081143 24.0236866,40.2081143 Z" id="path-9_44_" fill="#793A78"></path>
                        <path d="M35.9170522,31.1243886 C35.9170522,33.5909486 33.9109254,35.5903429 31.4355896,35.5903429 C28.9607239,35.5903429 26.954597,33.5909486 26.954597,31.1243886 C26.954597,28.6578286 28.9607239,26.6579657 31.4355896,26.6579657 C33.9109254,26.6579657 35.9170522,28.6578286 35.9170522,31.1243886 Z" id="path-10_40_" fill="#DBCB32"></path>
                        <path d="M11.6073574,1.80717136 C9.75496931,-0.449000064 6.35296931,-0.618154349 4.28431259,1.44355994 L1.44837229,4.26951422 C-0.620284422,6.33169708 -0.450560541,9.72227994 1.81367826,11.5679828 L17.3596335,24.2447142 C19.3257977,25.8476971 22.1908872,25.7052514 23.9868574,23.9153085 L23.9967305,23.9054685 C25.7927007,22.1155257 25.935626,19.2600514 24.3272454,17.3004857 L11.6073574,1.80717136 Z" id="path-11_33_" fill="#AEA016"></path>
                        <path d="M24.0678806,38.5376571 C22.2719104,36.7477143 19.4068209,36.6052686 17.4406567,38.2082514 L1.89470149,50.8849829 C-0.369537313,52.7311543 -0.539261194,56.1212686 1.52939552,58.1829829 L4.36533582,61.0098743 C6.43399254,63.07112 9.83599254,62.9019657 11.6883806,60.6453257 L24.4082687,45.1520114 C26.0166493,43.1929143 25.8737239,40.33744 24.0777537,38.5474971 L24.0678806,38.5376571 Z" id="path-15_19_" fill="#DBCB32"></path>
                        <path d="M23.9868574,38.4603406 C22.1908872,36.6703978 19.3257977,36.5279521 17.3596335,38.1309349 L1.81367826,50.8076663 C-0.450560541,52.6538378 -0.620284422,56.0439521 1.44837229,58.1056663 L4.28431259,60.9325578 C6.35296931,62.9938035 9.75496931,62.8246492 11.6073574,60.5680092 L24.3272454,45.0746949 C25.935626,43.1155978 25.7927007,40.2601235 23.9967305,38.4701806 L23.9868574,38.4603406 Z" id="path-15_19_" fill="#AEA016"></path>
                        <path d="M61.1286484,1.44319777 C59.3326783,-0.346745092 56.4675887,-0.489190806 54.5014245,1.11379205 L38.9554693,13.7905235 C36.6912305,15.6366949 36.5215066,19.0268092 38.5901633,21.0885235 L41.4261036,23.9154149 C43.4947604,25.9766606 46.8967604,25.8075063 48.7491484,23.5508663 L61.4690365,8.05755205 C63.0774171,6.09845491 62.9344917,3.24298062 61.1385215,1.45303777 L61.1286484,1.44319777 Z" id="path-15_19_" fill="#AEA016" transform="translate(49.864185, 12.679264) rotate(-180.000000) translate(-49.864185, -12.679264) "></path>
                        <path d="M45.6966246,38.1309349 C43.7309306,36.5279521 40.865841,36.6703978 39.0698709,38.4603406 L39.0599978,38.4701806 C37.2640276,40.2601235 37.1211022,43.1155978 38.7294828,45.0746949 L51.4493709,60.5680092 C53.301759,62.8246492 56.703759,62.9938035 58.7724157,60.9325578 L61.608356,58.1056663 C63.6770127,56.0439521 63.5072888,52.6538378 61.24305,50.8076663 L45.6966246,38.1309349 Z" id="path-17_13_" fill="#AEA016"></path>
                    </g>
                </g>
            </g>
        </g>
    </g>
</svg>
