<?xml version="1.0" encoding="utf-8"?>
<!-- Generator: Adobe Illustrator 22.1.0, SVG Export Plug-In . SVG Version: 6.00 Build 0)  -->
<svg version="1.1" id="Calque_1" xmlns="http://www.w3.org/2000/svg" xmlns:xlink="http://www.w3.org/1999/xlink" x="0px" y="0px"
	 viewBox="0 0 800 600" style="enable-background:new 0 0 800 600;" xml:space="preserve">
<style type="text/css">
	.st0{fill:#EDF7F9;stroke:#000000;stroke-width:0.75;stroke-miterlimit:10;}
	.st1{fill:#EDF7F9;stroke:#3283C8;stroke-width:3;stroke-miterlimit:10;}
	.st2{fill:#F5F5F5;stroke:#1E1E1E;stroke-width:0.75;stroke-miterlimit:10;}
	.st3{fill:#FFFFFF;stroke:#1E1E1E;stroke-width:0.75;stroke-miterlimit:10;}
	.st4{fill:none;stroke:#1E1E1E;stroke-width:0.75;stroke-miterlimit:10;}
	.st5{enable-background:new    ;}
	.st6{fill:#303030;}
	.st7{fill:none;stroke:#7EC500;stroke-width:2;stroke-miterlimit:10;}
	
		.st8{fill:#FFFFFF;stroke:#3283C8;stroke-width:2;stroke-linecap:round;stroke-linejoin:round;stroke-miterlimit:10;stroke-dasharray:1,4;}
	.st9{fill:none;stroke:#05B8EE;stroke-width:2;stroke-linecap:round;stroke-miterlimit:10;}
	.st10{fill:#FFFFFF;stroke:#000000;stroke-width:1.5;stroke-miterlimit:10;}
	.st11{fill:none;stroke:#3283C8;stroke-width:2;stroke-linecap:round;stroke-linejoin:round;}
	.st12{fill:none;stroke:#3283C8;stroke-width:2;stroke-linecap:round;stroke-linejoin:round;stroke-dasharray:0.9904,3.9615;}
	.st13{fill:none;stroke:#3283C8;stroke-width:2;stroke-linecap:round;stroke-linejoin:round;stroke-dasharray:0.948,3.792;}
	.st14{fill:none;stroke:#3283C8;stroke-width:2;stroke-linecap:round;stroke-linejoin:round;stroke-dasharray:1.0131,4.0523;}
	.st15{fill:none;stroke:#3283C8;stroke-width:2;stroke-linecap:round;stroke-linejoin:round;stroke-dasharray:1.0527,4.2107;}
	.st16{fill:none;stroke:#3283C8;stroke-width:2;stroke-linecap:round;stroke-linejoin:round;stroke-dasharray:0.9833,3.9334;}
	.st17{fill:none;stroke:#3283C8;stroke-width:2;stroke-linecap:round;stroke-linejoin:round;stroke-dasharray:0.9952,3.9809;}
	.st18{stroke:#FFFFFF;stroke-width:0.25;stroke-miterlimit:10;}
	.st19{fill:none;stroke:#F4B940;stroke-width:4;stroke-linecap:round;stroke-linejoin:round;stroke-dasharray:0.9999,6.9993;}
	.st20{stroke:#FFFFFF;stroke-miterlimit:10;}
	.st21{stroke:#FFFFFF;stroke-width:1.3;stroke-miterlimit:10;}
	.st22{fill:#FFFFFF;stroke:#FFFFFF;stroke-width:0.75;stroke-miterlimit:10;}
	.st23{fill:#05B8EE;}
	.st24{fill:#FFFFFF;}
	.st25{stroke:#FFFFFF;stroke-width:0.5;stroke-miterlimit:10;}
	.st26{stroke:#FFFFFF;stroke-width:0.75;stroke-miterlimit:10;}
	.st27{font-family:'SourceSansPro-SemiBold';}
	.st28{font-size:10.318px;}
	.st29{fill:#F4B940;}
	.st30{fill:#606060;}
	.st31{fill:#F5F5F5;}
	.st32{fill:#FFD160;}
	.st33{fill:#D39424;}
	.st34{fill:#FFDCA9;}
	.st35{fill:#3283C8;stroke:#000000;stroke-width:0.5;stroke-miterlimit:10;}
</style>
<g>
	<g>
		<path class="st0" d="M765.6,439.5H63.5c-5.5,0-10-4.5-10-10V197c0-5.5,4.5-10,10-10h702.1c5.5,0,10,4.5,10,10v232.5
			C775.6,435,771.1,439.5,765.6,439.5z"/>
	</g>
	<path class="st1" d="M764.2,438h-699c-5.5,0-10-4.5-10-10V198.7c0-5.5,4.5-10,10-10h699c5.5,0,10,4.5,10,10V428
		C774.2,433.5,769.7,438,764.2,438z"/>
</g>
<g>
	<rect x="303.5" y="474.7" class="st2" width="36.2" height="46.4"/>
	<g>
		<rect x="298.4" y="472.1" class="st2" width="46.4" height="12.1"/>
		<circle class="st3" cx="306.3" cy="478.1" r="2.9"/>
		<circle class="st3" cx="312.9" cy="478.1" r="0.7"/>
	</g>
	<g>
		<g>
			<rect x="298.4" y="486.6" class="st2" width="46.4" height="12.1"/>
			<circle class="st3" cx="306.3" cy="492.7" r="2.9"/>
			<circle class="st3" cx="312.9" cy="492.7" r="0.7"/>
		</g>
		<g>
			<line class="st4" x1="334.7" y1="491.3" x2="341.6" y2="491.3"/>
			<line class="st4" x1="334.7" y1="494" x2="341.6" y2="494"/>
		</g>
	</g>
	<g>
		<g>
			<rect x="298.4" y="501.2" class="st2" width="46.4" height="12.1"/>
			<circle class="st3" cx="306.3" cy="507.3" r="2.9"/>
			<circle class="st3" cx="312.9" cy="507.3" r="0.7"/>
		</g>
		<g>
			<line class="st4" x1="334.7" y1="505.9" x2="341.6" y2="505.9"/>
			<line class="st4" x1="334.7" y1="508.6" x2="341.6" y2="508.6"/>
		</g>
	</g>
	<g>
		<g>
			<rect x="298.4" y="515.8" class="st2" width="46.4" height="12.1"/>
			<circle class="st3" cx="306.3" cy="521.8" r="2.9"/>
			<circle class="st3" cx="312.9" cy="521.8" r="0.7"/>
		</g>
		<g>
			<line class="st4" x1="334.7" y1="520.5" x2="341.6" y2="520.5"/>
			<line class="st4" x1="334.7" y1="523.2" x2="341.6" y2="523.2"/>
		</g>
	</g>
</g>
<g class="st5">
	<path d="M310.1,459.8v3c0,0-0.1,0.1-0.1,0.2c-0.1,0.1-0.2,0.2-0.4,0.4c-0.2,0.2-0.5,0.3-0.7,0.5c-0.3,0.1-0.6,0.3-1,0.4
		c-0.4,0.1-0.8,0.2-1.3,0.2c-1.3,0-2.3-0.4-3.2-1.3c-0.9-0.8-1.3-1.9-1.3-3.1s0.4-2.2,1.3-3.1c0.9-0.8,1.9-1.3,3.2-1.3
		c0.4,0,0.8,0.1,1.2,0.2c0.4,0.1,0.7,0.2,1,0.4c0.3,0.2,0.5,0.3,0.7,0.5s0.3,0.3,0.4,0.4l0.1,0.2l-0.8,0.8c0,0-0.1-0.1-0.1-0.1
		c0-0.1-0.1-0.2-0.3-0.3c-0.2-0.1-0.3-0.3-0.5-0.4c-0.2-0.1-0.4-0.2-0.7-0.3c-0.3-0.1-0.6-0.1-0.9-0.1c-0.9,0-1.6,0.3-2.2,0.9
		c-0.6,0.6-0.9,1.3-0.9,2.2c0,0.9,0.3,1.6,0.9,2.2c0.6,0.6,1.3,0.9,2.2,0.9c0.3,0,0.6,0,0.8-0.1s0.5-0.1,0.6-0.2
		c0.2-0.1,0.3-0.2,0.4-0.3c0.1-0.1,0.2-0.2,0.3-0.2l0.1-0.1V461h-1.6v-1.2H310.1z"/>
	<path d="M312.4,459.3c0.6-0.6,1.3-0.9,2.1-0.9c0.8,0,1.5,0.3,2.1,0.9c0.6,0.6,0.9,1.3,0.9,2.1s-0.3,1.5-0.9,2.1
		c-0.6,0.6-1.3,0.9-2.1,0.9c-0.8,0-1.5-0.3-2.1-0.9s-0.9-1.3-0.9-2.1S311.8,459.9,312.4,459.3z M315.8,460c-0.4-0.4-0.8-0.6-1.3-0.6
		c-0.5,0-0.9,0.2-1.3,0.6c-0.4,0.4-0.5,0.8-0.5,1.4c0,0.5,0.2,1,0.5,1.4c0.4,0.4,0.8,0.6,1.3,0.6c0.5,0,0.9-0.2,1.3-0.6
		s0.5-0.8,0.5-1.4C316.3,460.9,316.1,460.4,315.8,460z"/>
	<path d="M319.4,459.3c0.6-0.6,1.3-0.9,2.1-0.9c0.8,0,1.5,0.3,2.1,0.9c0.6,0.6,0.9,1.3,0.9,2.1s-0.3,1.5-0.9,2.1
		c-0.6,0.6-1.3,0.9-2.1,0.9c-0.8,0-1.5-0.3-2.1-0.9s-0.9-1.3-0.9-2.1S318.8,459.9,319.4,459.3z M322.7,460c-0.4-0.4-0.8-0.6-1.3-0.6
		c-0.5,0-0.9,0.2-1.3,0.6c-0.4,0.4-0.5,0.8-0.5,1.4c0,0.5,0.2,1,0.5,1.4c0.4,0.4,0.8,0.6,1.3,0.6c0.5,0,0.9-0.2,1.3-0.6
		s0.5-0.8,0.5-1.4C323.3,460.9,323.1,460.4,322.7,460z"/>
	<path d="M329.9,463.5L329.9,463.5c-0.1,0.1-0.2,0.2-0.3,0.2c-0.1,0.1-0.2,0.2-0.4,0.2c-0.1,0.1-0.3,0.1-0.5,0.2
		c-0.2,0.1-0.4,0.1-0.6,0.1c-0.7,0-1.4-0.3-1.9-0.8c-0.5-0.6-0.8-1.2-0.8-2s0.3-1.5,0.8-2c0.5-0.6,1.2-0.8,1.9-0.8
		c0.3,0,0.6,0.1,0.9,0.2c0.3,0.1,0.5,0.2,0.6,0.4l0.2,0.2v-0.6h1.2v5.4c0,0.8-0.3,1.5-0.8,2c-0.6,0.6-1.2,0.8-2.1,0.8
		c-0.3,0-0.6,0-0.9-0.1c-0.3-0.1-0.5-0.2-0.7-0.3c-0.2-0.1-0.4-0.2-0.5-0.3c-0.1-0.1-0.2-0.2-0.3-0.3l-0.1-0.1l0.8-0.8
		c0,0,0,0.1,0.1,0.1s0.1,0.1,0.2,0.2c0.1,0.1,0.2,0.2,0.4,0.3s0.3,0.2,0.5,0.2c0.2,0.1,0.4,0.1,0.6,0.1c0.5,0,0.9-0.2,1.2-0.5
		c0.3-0.3,0.5-0.8,0.5-1.3V463.5z M327.1,462.6c0.3,0.3,0.7,0.5,1.1,0.5c0.4,0,0.8-0.2,1.1-0.5c0.3-0.3,0.5-0.8,0.5-1.3
		s-0.2-0.9-0.5-1.3c-0.3-0.3-0.7-0.5-1.1-0.5c-0.4,0-0.8,0.2-1.1,0.5c-0.3,0.3-0.5,0.8-0.5,1.3S326.8,462.2,327.1,462.6z"/>
	<path d="M334.1,464.3h-1.2v-8.4h1.2V464.3z"/>
	<path d="M336.7,461.8c0.1,0.4,0.3,0.8,0.6,1.1s0.7,0.4,1.2,0.4c0.3,0,0.7-0.1,0.9-0.2c0.3-0.2,0.5-0.3,0.6-0.4l0.2-0.2l0.8,0.8
		c0,0-0.1,0.1-0.1,0.1c0,0.1-0.2,0.2-0.3,0.3c-0.2,0.1-0.3,0.3-0.5,0.4s-0.4,0.2-0.7,0.3s-0.6,0.1-0.9,0.1c-0.8,0-1.5-0.3-2.1-0.9
		c-0.6-0.6-0.9-1.3-0.9-2.2c0-0.8,0.3-1.5,0.9-2.1c0.6-0.6,1.3-0.9,2.1-0.9s1.5,0.3,2,0.8c0.5,0.5,0.8,1.2,0.8,2l-0.1,0.6H336.7z
		 M337.4,459.8c-0.3,0.3-0.5,0.6-0.6,1h3.3c-0.1-0.4-0.3-0.7-0.5-1c-0.3-0.3-0.7-0.4-1.1-0.4C338.1,459.4,337.7,459.6,337.4,459.8z"
		/>
</g>
<g class="st5">
	<path d="M389.3,243.8c1.4,0,2.5,0.5,3.5,1.4s1.5,2.1,1.5,3.5s-0.5,2.5-1.5,3.5s-2.1,1.4-3.5,1.4h-3.4v-9.8H389.3z M387.4,245.2v7
		h1.9c1,0,1.8-0.3,2.4-1s1-1.5,1-2.5s-0.3-1.8-1-2.5s-1.5-1-2.4-1H387.4z"/>
	<path d="M397.4,245.4c-0.2,0.2-0.4,0.2-0.6,0.2s-0.4-0.1-0.6-0.2s-0.2-0.4-0.2-0.6s0.1-0.4,0.2-0.6s0.4-0.2,0.6-0.2
		s0.4,0.1,0.6,0.2s0.2,0.4,0.2,0.6S397.6,245.2,397.4,245.4z M397.5,253.6h-1.4v-6.7h1.4V253.6z"/>
	<path d="M400.1,247.8c0.7-0.7,1.5-1,2.5-1c0.5,0,1,0.1,1.5,0.3s0.8,0.4,1,0.7l0.3,0.3l-0.9,0.9c0-0.1-0.1-0.2-0.2-0.3
		c-0.1-0.1-0.3-0.3-0.6-0.4s-0.6-0.3-1-0.3c-0.6,0-1.1,0.2-1.5,0.6s-0.6,1-0.6,1.6c0,0.6,0.2,1.2,0.6,1.6s0.9,0.6,1.5,0.6
		c0.4,0,0.7-0.1,1-0.3s0.5-0.4,0.7-0.5l0.2-0.3l0.9,0.9c0,0-0.1,0.1-0.1,0.2c-0.1,0.1-0.2,0.2-0.4,0.3c-0.2,0.2-0.4,0.3-0.6,0.4
		c-0.2,0.1-0.5,0.2-0.8,0.3c-0.3,0.1-0.6,0.2-1,0.2c-0.9,0-1.8-0.3-2.5-1c-0.7-0.7-1-1.5-1-2.5C399.1,249.3,399.5,248.5,400.1,247.8
		z"/>
	<path d="M407.6,244.6h1.3v2.2h1.4v1.3h-1.4v3.5c0,0.3,0.1,0.5,0.2,0.6c0.2,0.2,0.4,0.2,0.6,0.2c0.1,0,0.2,0,0.3,0s0.2,0,0.3-0.1
		l0.1,0v1.3c-0.3,0.1-0.6,0.1-1,0.1c-1.3,0-2-0.7-2-2.1v-3.5h-1.3v-1.3h0.7c0.5,0,0.7-0.3,0.7-0.8V244.6z"/>
	<path d="M413.5,245.4c-0.2,0.2-0.4,0.2-0.6,0.2c-0.2,0-0.4-0.1-0.6-0.2c-0.2-0.2-0.2-0.4-0.2-0.6s0.1-0.4,0.2-0.6
		c0.2-0.2,0.4-0.2,0.6-0.2c0.2,0,0.4,0.1,0.6,0.2c0.2,0.2,0.2,0.4,0.2,0.6S413.6,245.2,413.5,245.4z M413.6,253.6h-1.4v-6.7h1.4
		V253.6z"/>
	<path d="M416.2,247.8c0.7-0.7,1.5-1,2.5-1s1.8,0.3,2.5,1s1,1.5,1,2.5c0,0.9-0.3,1.8-1,2.5c-0.7,0.7-1.5,1-2.5,1s-1.8-0.3-2.5-1
		c-0.7-0.7-1-1.5-1-2.5C415.2,249.3,415.5,248.5,416.2,247.8z M420.2,248.6c-0.4-0.4-0.9-0.6-1.5-0.6c-0.6,0-1.1,0.2-1.5,0.6
		s-0.6,1-0.6,1.6c0,0.6,0.2,1.2,0.6,1.6s0.9,0.6,1.5,0.6c0.6,0,1.1-0.2,1.5-0.6c0.4-0.4,0.6-1,0.6-1.6
		C420.8,249.6,420.6,249.1,420.2,248.6z"/>
	<path d="M425.1,247.6L425.1,247.6c0.1-0.1,0.2-0.2,0.3-0.3c0.1-0.1,0.3-0.2,0.4-0.3c0.1-0.1,0.3-0.1,0.6-0.2
		c0.2-0.1,0.5-0.1,0.7-0.1c0.8,0,1.5,0.3,2,0.8s0.8,1.2,0.8,2.1v3.9h-1.4v-3.9c0-0.5-0.2-0.9-0.5-1.2s-0.7-0.5-1.1-0.5
		c-0.5,0-1,0.2-1.3,0.5c-0.3,0.3-0.5,0.8-0.5,1.4v3.6h-1.4v-6.7h1.4V247.6z"/>
	<path d="M435.8,253.6v-0.7c0,0,0,0-0.1,0.1s-0.1,0.1-0.3,0.2c-0.1,0.1-0.3,0.2-0.4,0.3c-0.2,0.1-0.3,0.1-0.6,0.2
		c-0.2,0.1-0.5,0.1-0.7,0.1c-0.7,0-1.2-0.2-1.7-0.6s-0.7-0.8-0.7-1.4c0-0.6,0.2-1,0.5-1.4s0.8-0.6,1.4-0.7l2.5-0.4
		c0-0.4-0.1-0.7-0.4-0.9s-0.6-0.4-1-0.4c-0.4,0-0.7,0.1-1,0.2c-0.3,0.1-0.5,0.3-0.6,0.4l-0.2,0.2l-0.9-0.9c0,0,0.1-0.1,0.1-0.1
		c0-0.1,0.2-0.2,0.3-0.3c0.2-0.1,0.3-0.3,0.5-0.4c0.2-0.1,0.4-0.2,0.7-0.3c0.3-0.1,0.6-0.1,1-0.1c0.8,0,1.5,0.2,2,0.7
		c0.5,0.5,0.8,1.1,0.8,1.8v4.3H435.8z M435.4,251.9c0.3-0.3,0.5-0.8,0.5-1.5v-0.1l-2.2,0.3c-0.3,0-0.5,0.1-0.6,0.3
		c-0.2,0.2-0.2,0.4-0.2,0.6c0,0.2,0.1,0.4,0.3,0.6s0.5,0.3,0.9,0.3C434.6,252.5,435,252.3,435.4,251.9z"/>
	<path d="M442.3,248c-0.5,0-1,0.2-1.3,0.5c-0.3,0.3-0.5,0.8-0.5,1.4v3.6h-1.4v-6.7h1.4v0.7l0.1-0.1c0,0,0.1-0.1,0.3-0.2
		c0.1-0.1,0.3-0.2,0.4-0.3c0.1-0.1,0.3-0.1,0.6-0.2c0.2-0.1,0.5-0.1,0.7-0.1h0.3v1.3C442.8,248,442.6,248,442.3,248z"/>
	<path d="M446,253.6l-2.7-6.7h1.5l2,4.9l2-4.9h1.5l-3,7.4c-0.3,0.8-0.7,1.4-1,1.7s-0.8,0.5-1.3,0.5c-0.2,0-0.4,0-0.5,0
		s-0.3,0-0.4-0.1l-0.1,0v-1.3c0.2,0.1,0.5,0.1,0.7,0.1c0.5,0,0.9-0.3,1.2-1L446,253.6z"/>
</g>
<g class="st5">
	<path d="M103.6,250c-0.2-0.2-0.4-0.4-0.7-0.5c-0.3-0.1-0.6-0.2-1-0.3c-0.4-0.1-0.7-0.2-1.1-0.3s-0.7-0.3-1-0.5s-0.6-0.5-0.7-0.8
		c-0.2-0.4-0.3-0.8-0.3-1.3c0-0.8,0.3-1.4,0.9-1.9c0.6-0.5,1.4-0.8,2.4-0.8c0.4,0,0.7,0,1,0.1s0.6,0.2,0.8,0.3
		c0.2,0.1,0.4,0.2,0.6,0.4c0.2,0.1,0.3,0.2,0.4,0.3l0.1,0.1l-1,1c0,0,0,0-0.1-0.1c0,0-0.1-0.1-0.2-0.2c-0.1-0.1-0.3-0.2-0.4-0.3
		c-0.1-0.1-0.3-0.1-0.5-0.2s-0.5-0.1-0.7-0.1c-0.5,0-0.9,0.1-1.2,0.4s-0.5,0.5-0.5,0.9c0,0.3,0.1,0.6,0.3,0.8s0.4,0.4,0.7,0.5
		c0.3,0.1,0.6,0.2,1,0.3c0.4,0.1,0.7,0.2,1.1,0.3c0.4,0.1,0.7,0.3,1,0.5s0.6,0.5,0.7,0.8s0.3,0.8,0.3,1.3c0,0.9-0.3,1.6-0.9,2.1
		s-1.5,0.8-2.6,0.8c-0.4,0-0.9-0.1-1.3-0.2c-0.4-0.1-0.7-0.2-1-0.4c-0.3-0.1-0.5-0.3-0.7-0.4s-0.3-0.3-0.4-0.4l-0.1-0.2l1-1
		c0,0,0,0.1,0.1,0.1c0,0.1,0.1,0.1,0.3,0.3c0.2,0.1,0.3,0.2,0.5,0.3c0.2,0.1,0.4,0.2,0.7,0.3c0.3,0.1,0.6,0.1,0.9,0.1
		c0.6,0,1.1-0.1,1.4-0.4s0.5-0.7,0.5-1.1C103.9,250.5,103.8,250.2,103.6,250z"/>
	<path d="M108.6,247.6C108.6,247.5,108.6,247.5,108.6,247.6c0.1-0.1,0.2-0.2,0.4-0.3c0.1-0.1,0.3-0.2,0.4-0.3
		c0.2-0.1,0.3-0.1,0.6-0.2c0.2-0.1,0.5-0.1,0.7-0.1c0.8,0,1.5,0.3,2,0.8s0.8,1.2,0.8,2.1v3.9h-1.4v-3.9c0-0.5-0.2-0.9-0.5-1.2
		s-0.7-0.5-1.2-0.5c-0.5,0-1,0.2-1.3,0.5c-0.3,0.3-0.5,0.8-0.5,1.4v3.6h-1.4v-9.8h1.4V247.6z"/>
	<path d="M116.3,250.7c0.1,0.5,0.3,0.9,0.7,1.2s0.9,0.5,1.4,0.5c0.4,0,0.8-0.1,1.1-0.3s0.6-0.4,0.7-0.5l0.2-0.3l0.9,0.9
		c0,0-0.1,0.1-0.1,0.2c-0.1,0.1-0.2,0.2-0.4,0.3c-0.2,0.2-0.4,0.3-0.6,0.4c-0.2,0.1-0.5,0.2-0.8,0.3c-0.3,0.1-0.7,0.2-1,0.2
		c-1,0-1.8-0.3-2.5-1c-0.7-0.7-1-1.5-1-2.5c0-0.9,0.3-1.8,1-2.4c0.7-0.7,1.5-1,2.4-1s1.7,0.3,2.4,0.9c0.6,0.6,0.9,1.4,0.9,2.4
		l-0.1,0.7H116.3z M117,248.4c-0.3,0.3-0.6,0.7-0.7,1.2h3.9c-0.1-0.5-0.3-0.9-0.6-1.2c-0.3-0.3-0.8-0.4-1.3-0.4
		C117.8,247.9,117.4,248.1,117,248.4z"/>
	<path d="M124.1,250.7c0.1,0.5,0.3,0.9,0.7,1.2s0.9,0.5,1.4,0.5c0.4,0,0.8-0.1,1.1-0.3s0.6-0.4,0.7-0.5l0.2-0.3l0.9,0.9
		c0,0-0.1,0.1-0.1,0.2c-0.1,0.1-0.2,0.2-0.4,0.3c-0.2,0.2-0.4,0.3-0.6,0.4c-0.2,0.1-0.5,0.2-0.8,0.3c-0.3,0.1-0.7,0.2-1,0.2
		c-1,0-1.8-0.3-2.5-1c-0.7-0.7-1-1.5-1-2.5c0-0.9,0.3-1.8,1-2.4c0.7-0.7,1.5-1,2.4-1s1.7,0.3,2.4,0.9c0.6,0.6,0.9,1.4,0.9,2.4
		l-0.1,0.7H124.1z M124.8,248.4c-0.3,0.3-0.6,0.7-0.7,1.2h3.9c-0.1-0.5-0.3-0.9-0.6-1.2c-0.3-0.3-0.8-0.4-1.3-0.4
		C125.6,247.9,125.2,248.1,124.8,248.4z"/>
	<path d="M133.8,253.6c-0.2-0.1-0.4-0.1-0.6-0.2c-0.2-0.1-0.3-0.2-0.4-0.3c-0.1-0.1-0.2-0.2-0.3-0.2l-0.1-0.1v3.7h-1.4v-9.7h1.4v0.8
		c0.1-0.1,0.2-0.1,0.3-0.3s0.4-0.2,0.7-0.4s0.8-0.3,1.2-0.3c0.9,0,1.7,0.3,2.3,1c0.7,0.7,1,1.5,1,2.5s-0.3,1.8-1,2.5
		c-0.7,0.7-1.4,1-2.3,1C134.3,253.7,134,253.7,133.8,253.6z M133,248.6c-0.4,0.4-0.6,1-0.6,1.6c0,0.6,0.2,1.1,0.6,1.6
		s0.9,0.7,1.4,0.7s1-0.2,1.4-0.7s0.6-1,0.6-1.6c0-0.6-0.2-1.1-0.6-1.6s-0.9-0.7-1.4-0.7S133.4,248.2,133,248.6z"/>
	<path d="M142.9,246.8c0.2,0.1,0.4,0.1,0.6,0.2s0.3,0.2,0.4,0.3c0.1,0.1,0.2,0.2,0.3,0.2l0.1,0.1v-3.9h1.4v9.8h-1.4v-0.8
		c-0.1,0.1-0.2,0.1-0.3,0.3s-0.4,0.2-0.7,0.4c-0.4,0.2-0.8,0.2-1.2,0.2c-0.9,0-1.7-0.3-2.3-1c-0.7-0.7-1-1.5-1-2.5s0.3-1.8,1-2.5
		c0.7-0.7,1.4-1,2.3-1C142.5,246.7,142.7,246.7,142.9,246.8z M143.8,251.8c0.4-0.4,0.6-1,0.6-1.6c0-0.6-0.2-1.1-0.6-1.6
		s-0.9-0.7-1.4-0.7s-1,0.2-1.4,0.7s-0.6,1-0.6,1.6c0,0.6,0.2,1.1,0.6,1.6s0.9,0.7,1.4,0.7S143.4,252.2,143.8,251.8z"/>
	<path d="M148.5,247.8c0.7-0.7,1.5-1,2.5-1s1.8,0.3,2.5,1s1,1.5,1,2.5c0,0.9-0.3,1.8-1,2.5c-0.7,0.7-1.5,1-2.5,1s-1.8-0.3-2.5-1
		c-0.7-0.7-1-1.5-1-2.5C147.5,249.3,147.8,248.5,148.5,247.8z M152.4,248.6c-0.4-0.4-0.9-0.6-1.5-0.6s-1.1,0.2-1.5,0.6
		s-0.6,1-0.6,1.6c0,0.6,0.2,1.2,0.6,1.6s0.9,0.6,1.5,0.6s1.1-0.2,1.5-0.6s0.6-1,0.6-1.6C153.1,249.6,152.9,249.1,152.4,248.6z"/>
	<path d="M160.7,252.6L160.7,252.6c-0.1,0.1-0.2,0.2-0.3,0.3c-0.1,0.1-0.3,0.2-0.4,0.3c-0.2,0.1-0.3,0.1-0.6,0.2
		c-0.2,0.1-0.5,0.1-0.7,0.1c-0.8,0-1.6-0.3-2.2-1c-0.6-0.7-0.9-1.4-0.9-2.4s0.3-1.7,0.9-2.4c0.6-0.7,1.4-1,2.2-1
		c0.4,0,0.7,0.1,1.1,0.2s0.6,0.3,0.7,0.4l0.2,0.2v-0.7h1.4v6.3c0,0.9-0.3,1.7-1,2.4s-1.4,1-2.4,1c-0.4,0-0.7,0-1.1-0.1
		c-0.3-0.1-0.6-0.2-0.9-0.3c-0.2-0.1-0.4-0.3-0.6-0.4s-0.3-0.3-0.4-0.4l-0.1-0.1l0.9-0.9c0,0,0,0.1,0.1,0.1c0,0,0.1,0.1,0.3,0.3
		c0.1,0.1,0.3,0.2,0.4,0.3c0.2,0.1,0.3,0.2,0.6,0.3c0.2,0.1,0.5,0.1,0.7,0.1c0.6,0,1-0.2,1.4-0.6s0.6-0.9,0.6-1.5V252.6z
		 M157.5,251.6c0.4,0.4,0.8,0.6,1.3,0.6s0.9-0.2,1.3-0.6s0.6-0.9,0.6-1.5s-0.2-1.1-0.6-1.5s-0.8-0.6-1.3-0.6s-0.9,0.2-1.3,0.6
		s-0.6,0.9-0.6,1.5S157.2,251.2,157.5,251.6z"/>
</g>
<g class="st5">
	<path class="st6" d="M93.3,386.8c1.1,0,2.1,0.4,2.8,1.1c0.8,0.8,1.2,1.7,1.2,2.7c0,1.1-0.4,2-1.2,2.7c-0.8,0.8-1.7,1.1-2.8,1.1
		h-2.4v-7.7H93.3z M91.7,387.5v6.2h1.6c0.9,0,1.7-0.3,2.3-0.9s0.9-1.3,0.9-2.2s-0.3-1.6-0.9-2.2c-0.6-0.6-1.4-0.9-2.3-0.9H91.7z"/>
	<path class="st6" d="M102,391.1c0-0.4-0.1-0.7-0.4-1s-0.6-0.4-1-0.4c-0.3,0-0.5,0.1-0.8,0.2c-0.2,0.1-0.4,0.3-0.5,0.4l-0.2,0.2
		l-0.5-0.5c0,0,0.1-0.1,0.1-0.1s0.1-0.1,0.2-0.2c0.1-0.1,0.3-0.2,0.4-0.3s0.3-0.2,0.6-0.2c0.2-0.1,0.5-0.1,0.7-0.1
		c0.6,0,1.1,0.2,1.5,0.6c0.4,0.4,0.6,0.9,0.6,1.5v3.4H102v-0.7c0,0,0,0.1-0.1,0.1c0,0-0.1,0.1-0.2,0.2c-0.1,0.1-0.2,0.2-0.3,0.3
		s-0.3,0.1-0.5,0.2c-0.2,0.1-0.4,0.1-0.6,0.1c-0.5,0-1-0.2-1.3-0.5c-0.4-0.3-0.5-0.7-0.5-1.1c0-0.4,0.1-0.8,0.4-1.1s0.6-0.4,1.1-0.5
		L102,391.1z M101.5,393.4c0.3-0.3,0.5-0.7,0.5-1.3v-0.3l-1.8,0.3c-0.7,0.1-1,0.4-1,0.9c0,0.2,0.1,0.4,0.3,0.6
		c0.2,0.2,0.5,0.2,0.8,0.2C100.8,393.9,101.2,393.7,101.5,393.4z"/>
	<path class="st6" d="M105,387.4h0.7v1.8h1.2v0.7h-1.2v3.1c0,0.6,0.2,0.8,0.7,0.8c0.1,0,0.2,0,0.4,0c0.1,0,0.2-0.1,0.3-0.1l0.1,0
		v0.7c-0.2,0.1-0.5,0.2-0.7,0.2c-0.5,0-0.8-0.1-1.1-0.4c-0.3-0.3-0.4-0.6-0.4-1.1v-3.1h-1v-0.7h0.6c0.3,0,0.4-0.2,0.4-0.5V387.4z"/>
	<path class="st6" d="M111.5,391.1c0-0.4-0.1-0.7-0.4-1s-0.6-0.4-1-0.4c-0.3,0-0.5,0.1-0.8,0.2c-0.2,0.1-0.4,0.3-0.5,0.4l-0.2,0.2
		l-0.5-0.5c0,0,0.1-0.1,0.1-0.1s0.1-0.1,0.2-0.2c0.1-0.1,0.3-0.2,0.4-0.3s0.3-0.2,0.6-0.2c0.2-0.1,0.5-0.1,0.7-0.1
		c0.6,0,1.1,0.2,1.5,0.6c0.4,0.4,0.6,0.9,0.6,1.5v3.4h-0.8v-0.7c0,0,0,0.1-0.1,0.1c0,0-0.1,0.1-0.2,0.2c-0.1,0.1-0.2,0.2-0.3,0.3
		s-0.3,0.1-0.5,0.2c-0.2,0.1-0.4,0.1-0.6,0.1c-0.5,0-1-0.2-1.3-0.5c-0.4-0.3-0.5-0.7-0.5-1.1c0-0.4,0.1-0.8,0.4-1.1s0.6-0.4,1.1-0.5
		L111.5,391.1z M111,393.4c0.3-0.3,0.5-0.7,0.5-1.3v-0.3l-1.8,0.3c-0.7,0.1-1,0.4-1,0.9c0,0.2,0.1,0.4,0.3,0.6
		c0.2,0.2,0.5,0.2,0.8,0.2C110.2,393.9,110.7,393.7,111,393.4z"/>
	<path class="st6" d="M119.8,391.7c-0.2-0.2-0.4-0.3-0.6-0.4c-0.2-0.1-0.5-0.2-0.8-0.3s-0.6-0.2-0.9-0.3c-0.3-0.1-0.6-0.2-0.8-0.4
		c-0.2-0.1-0.4-0.4-0.6-0.6s-0.2-0.6-0.2-1c0-0.6,0.2-1.1,0.7-1.5s1.1-0.6,1.8-0.6c0.3,0,0.5,0,0.8,0.1c0.3,0.1,0.5,0.2,0.6,0.2
		s0.3,0.2,0.5,0.3s0.2,0.2,0.3,0.2l0.1,0.1l-0.6,0.6c0,0,0,0-0.1-0.1s-0.1-0.1-0.2-0.2s-0.2-0.2-0.3-0.2c-0.1-0.1-0.3-0.1-0.5-0.2
		s-0.4-0.1-0.6-0.1c-0.5,0-0.9,0.1-1.2,0.4c-0.3,0.3-0.4,0.6-0.4,0.9c0,0.3,0.1,0.5,0.2,0.7c0.2,0.2,0.4,0.3,0.6,0.4
		s0.5,0.2,0.8,0.3s0.6,0.2,0.9,0.3c0.3,0.1,0.6,0.2,0.8,0.4s0.4,0.4,0.6,0.6s0.2,0.6,0.2,1c0,0.7-0.2,1.2-0.7,1.6s-1.1,0.6-1.9,0.6
		c-0.3,0-0.6,0-0.9-0.1c-0.3-0.1-0.5-0.2-0.7-0.3s-0.4-0.2-0.5-0.3s-0.2-0.2-0.3-0.3l-0.1-0.1l0.5-0.6c0,0,0,0.1,0.1,0.1
		c0,0,0.1,0.1,0.2,0.2s0.3,0.2,0.4,0.3c0.1,0.1,0.3,0.2,0.6,0.2c0.2,0.1,0.5,0.1,0.8,0.1c0.6,0,1-0.1,1.3-0.4c0.3-0.3,0.5-0.6,0.5-1
		C120.1,392.1,120,391.9,119.8,391.7z"/>
	<path class="st6" d="M126.1,393.8C126.1,393.8,126.1,393.8,126.1,393.8c-0.1,0.1-0.2,0.2-0.3,0.3c-0.1,0.1-0.2,0.2-0.3,0.3
		s-0.3,0.1-0.5,0.2s-0.4,0.1-0.6,0.1c-0.6,0-1.1-0.2-1.5-0.6c-0.4-0.4-0.6-1-0.6-1.7v-3.1h0.8v3.1c0,0.5,0.1,0.8,0.4,1.1
		s0.6,0.5,1.1,0.5c0.4,0,0.8-0.2,1.1-0.5c0.3-0.3,0.5-0.8,0.5-1.3v-2.9h0.8v5.3h-0.8V393.8z"/>
	<path class="st6" d="M129.5,390C129.6,390,129.6,390,129.5,390c0.1-0.1,0.2-0.2,0.3-0.3c0.1-0.1,0.2-0.2,0.4-0.3s0.3-0.2,0.5-0.2
		c0.2-0.1,0.4-0.1,0.7-0.1c0.7,0,1.3,0.3,1.8,0.8c0.5,0.5,0.8,1.2,0.8,1.9s-0.3,1.4-0.8,1.9s-1.1,0.8-1.8,0.8c-0.2,0-0.4,0-0.7-0.1
		c-0.2-0.1-0.4-0.1-0.5-0.2c-0.1-0.1-0.3-0.2-0.4-0.3c-0.1-0.1-0.2-0.2-0.2-0.2l-0.1-0.1v0.8h-0.8v-7.7h0.8V390z M130.1,393.3
		c0.4,0.4,0.8,0.6,1.3,0.6c0.5,0,0.9-0.2,1.2-0.6c0.4-0.4,0.5-0.9,0.5-1.4c0-0.6-0.2-1-0.5-1.4c-0.4-0.4-0.8-0.6-1.2-0.6
		c-0.5,0-0.9,0.2-1.3,0.6c-0.4,0.4-0.6,0.9-0.6,1.4C129.5,392.4,129.7,392.8,130.1,393.3z"/>
	<path class="st6" d="M142.3,391.3c0-0.5-0.1-0.9-0.4-1.1c-0.2-0.3-0.6-0.4-1-0.4c-0.4,0-0.7,0.2-1,0.5c-0.3,0.3-0.4,0.7-0.4,1.3
		v2.9h-0.8v-3.1c0-0.5-0.1-0.9-0.4-1.1s-0.6-0.4-1-0.4c-0.4,0-0.7,0.2-1,0.5c-0.3,0.3-0.4,0.7-0.4,1.3v2.9h-0.8v-5.3h0.8v0.7
		c0,0,0,0,0.1-0.1s0.1-0.1,0.2-0.2c0.1-0.1,0.2-0.2,0.3-0.2c0.1-0.1,0.2-0.1,0.4-0.2s0.4-0.1,0.6-0.1c0.2,0,0.5,0,0.7,0.1
		c0.2,0.1,0.4,0.1,0.5,0.2c0.1,0.1,0.2,0.2,0.3,0.3c0.1,0.1,0.2,0.2,0.2,0.2l0.1,0.1c0,0,0-0.1,0.1-0.1s0.1-0.1,0.2-0.2
		s0.2-0.2,0.3-0.3c0.1-0.1,0.3-0.2,0.5-0.2c0.2-0.1,0.5-0.1,0.7-0.1c0.6,0,1.1,0.2,1.5,0.6c0.4,0.4,0.6,1,0.6,1.7v3.1h-0.8V391.3z"
		/>
	<path class="st6" d="M144.9,387.1c0.1-0.1,0.2-0.1,0.4-0.1s0.3,0,0.4,0.1c0.1,0.1,0.1,0.2,0.1,0.4c0,0.1,0,0.3-0.1,0.4
		c-0.1,0.1-0.2,0.1-0.4,0.1s-0.3,0-0.4-0.1c-0.1-0.1-0.1-0.2-0.1-0.4C144.8,387.3,144.8,387.2,144.9,387.1z M144.9,389.2h0.8v5.3
		h-0.8V389.2z"/>
	<path class="st6" d="M150,390.3c0,0-0.1-0.1-0.1-0.2c-0.1-0.1-0.2-0.1-0.4-0.2c-0.2-0.1-0.4-0.2-0.6-0.2c-0.3,0-0.5,0.1-0.7,0.2
		c-0.2,0.2-0.3,0.3-0.3,0.5c0,0.2,0.1,0.4,0.3,0.5s0.4,0.2,0.7,0.3s0.6,0.2,0.8,0.3s0.5,0.3,0.7,0.5s0.3,0.5,0.3,0.9
		c0,0.5-0.2,0.8-0.5,1.1s-0.8,0.5-1.4,0.5c-0.3,0-0.5,0-0.7-0.1s-0.4-0.1-0.5-0.2c-0.1-0.1-0.3-0.2-0.4-0.3
		c-0.1-0.1-0.2-0.2-0.2-0.2l-0.1-0.1l0.6-0.5c0,0,0,0,0.1,0.1s0.1,0.1,0.2,0.2c0.1,0.1,0.2,0.2,0.3,0.2c0.1,0.1,0.2,0.1,0.4,0.2
		s0.3,0.1,0.5,0.1c0.4,0,0.7-0.1,0.9-0.2c0.2-0.2,0.3-0.4,0.3-0.6c0-0.2-0.1-0.4-0.3-0.5s-0.4-0.2-0.7-0.3c-0.3-0.1-0.6-0.2-0.8-0.3
		s-0.5-0.3-0.7-0.5s-0.3-0.5-0.3-0.8c0-0.4,0.2-0.7,0.5-1c0.3-0.3,0.8-0.4,1.3-0.4c0.2,0,0.4,0,0.6,0.1c0.2,0,0.4,0.1,0.5,0.2
		c0.1,0.1,0.2,0.1,0.3,0.2c0.1,0.1,0.2,0.1,0.2,0.2l0.1,0.1L150,390.3z"/>
	<path class="st6" d="M154.8,390.3c0,0-0.1-0.1-0.1-0.2c-0.1-0.1-0.2-0.1-0.4-0.2c-0.2-0.1-0.4-0.2-0.6-0.2c-0.3,0-0.5,0.1-0.7,0.2
		c-0.2,0.2-0.3,0.3-0.3,0.5c0,0.2,0.1,0.4,0.3,0.5s0.4,0.2,0.7,0.3s0.6,0.2,0.8,0.3s0.5,0.3,0.7,0.5s0.3,0.5,0.3,0.9
		c0,0.5-0.2,0.8-0.5,1.1s-0.8,0.5-1.4,0.5c-0.3,0-0.5,0-0.7-0.1s-0.4-0.1-0.5-0.2c-0.1-0.1-0.3-0.2-0.4-0.3
		c-0.1-0.1-0.2-0.2-0.2-0.2l-0.1-0.1l0.6-0.5c0,0,0,0,0.1,0.1s0.1,0.1,0.2,0.2c0.1,0.1,0.2,0.2,0.3,0.2c0.1,0.1,0.2,0.1,0.4,0.2
		s0.3,0.1,0.5,0.1c0.4,0,0.7-0.1,0.9-0.2c0.2-0.2,0.3-0.4,0.3-0.6c0-0.2-0.1-0.4-0.3-0.5s-0.4-0.2-0.7-0.3c-0.3-0.1-0.6-0.2-0.8-0.3
		s-0.5-0.3-0.7-0.5s-0.3-0.5-0.3-0.8c0-0.4,0.2-0.7,0.5-1c0.3-0.3,0.8-0.4,1.3-0.4c0.2,0,0.4,0,0.6,0.1c0.2,0,0.4,0.1,0.5,0.2
		c0.1,0.1,0.2,0.1,0.3,0.2c0.1,0.1,0.2,0.1,0.2,0.2l0.1,0.1L154.8,390.3z"/>
	<path class="st6" d="M156.9,387.1c0.1-0.1,0.2-0.1,0.4-0.1s0.3,0,0.4,0.1c0.1,0.1,0.1,0.2,0.1,0.4c0,0.1,0,0.3-0.1,0.4
		c-0.1,0.1-0.2,0.1-0.4,0.1s-0.3,0-0.4-0.1c-0.1-0.1-0.1-0.2-0.1-0.4C156.7,387.3,156.8,387.2,156.9,387.1z M156.9,389.2h0.8v5.3
		h-0.8V389.2z"/>
	<path class="st6" d="M159.8,389.9c0.5-0.5,1.2-0.8,1.9-0.8s1.4,0.3,1.9,0.8c0.5,0.5,0.8,1.2,0.8,2s-0.3,1.4-0.8,2s-1.2,0.8-1.9,0.8
		s-1.4-0.3-1.9-0.8c-0.5-0.5-0.8-1.2-0.8-2S159.3,390.4,159.8,389.9z M163.1,390.4c-0.4-0.4-0.8-0.6-1.4-0.6c-0.5,0-1,0.2-1.4,0.6
		c-0.4,0.4-0.6,0.9-0.6,1.4c0,0.6,0.2,1,0.6,1.4c0.4,0.4,0.8,0.6,1.4,0.6c0.5,0,1-0.2,1.4-0.6c0.4-0.4,0.6-0.9,0.6-1.4
		S163.4,390.8,163.1,390.4z"/>
	<path class="st6" d="M166.5,390C166.5,389.9,166.6,389.9,166.5,390c0.1-0.1,0.2-0.2,0.3-0.3c0.1-0.1,0.2-0.2,0.3-0.3
		c0.1-0.1,0.3-0.1,0.5-0.2c0.2-0.1,0.4-0.1,0.6-0.1c0.6,0,1.2,0.2,1.6,0.6c0.4,0.4,0.6,1,0.6,1.6v3.1h-0.8v-3.1
		c0-0.5-0.1-0.8-0.4-1.1c-0.3-0.3-0.6-0.4-1-0.4c-0.5,0-0.9,0.2-1.2,0.5s-0.5,0.8-0.5,1.3v2.9h-0.8v-5.3h0.8V390z"/>
</g>
<g class="st5">
	<path class="st6" d="M533.2,386.8c1.1,0,2.1,0.4,2.8,1.1c0.8,0.8,1.2,1.7,1.2,2.7c0,1.1-0.4,2-1.2,2.7c-0.8,0.8-1.7,1.1-2.8,1.1
		h-2.4v-7.7H533.2z M531.6,387.5v6.2h1.6c0.9,0,1.7-0.3,2.3-0.9s0.9-1.3,0.9-2.2s-0.3-1.6-0.9-2.2c-0.6-0.6-1.4-0.9-2.3-0.9H531.6z"
		/>
	<path class="st6" d="M541.9,391.1c0-0.4-0.1-0.7-0.4-1s-0.6-0.4-1-0.4c-0.3,0-0.5,0.1-0.8,0.2s-0.4,0.3-0.5,0.4l-0.2,0.2l-0.5-0.5
		c0,0,0.1-0.1,0.1-0.1c0,0,0.1-0.1,0.2-0.2c0.1-0.1,0.3-0.2,0.4-0.3s0.3-0.2,0.6-0.2c0.2-0.1,0.5-0.1,0.7-0.1c0.6,0,1.1,0.2,1.5,0.6
		c0.4,0.4,0.6,0.9,0.6,1.5v3.4h-0.8v-0.7c0,0,0,0.1-0.1,0.1c0,0-0.1,0.1-0.2,0.2s-0.2,0.2-0.3,0.3c-0.1,0.1-0.3,0.1-0.5,0.2
		c-0.2,0.1-0.4,0.1-0.6,0.1c-0.5,0-1-0.2-1.3-0.5c-0.4-0.3-0.5-0.7-0.5-1.1c0-0.4,0.1-0.8,0.4-1.1c0.3-0.3,0.6-0.4,1.1-0.5
		L541.9,391.1z M541.4,393.4c0.3-0.3,0.5-0.7,0.5-1.3v-0.3l-1.8,0.3c-0.7,0.1-1,0.4-1,0.9c0,0.2,0.1,0.4,0.3,0.6
		c0.2,0.2,0.5,0.2,0.8,0.2C540.6,393.9,541.1,393.7,541.4,393.4z"/>
	<path class="st6" d="M544.9,387.4h0.7v1.8h1.2v0.7h-1.2v3.1c0,0.6,0.2,0.8,0.7,0.8c0.1,0,0.2,0,0.4,0c0.1,0,0.2-0.1,0.3-0.1l0.1,0
		v0.7c-0.2,0.1-0.5,0.2-0.7,0.2c-0.5,0-0.8-0.1-1.1-0.4s-0.4-0.6-0.4-1.1v-3.1h-1v-0.7h0.6c0.3,0,0.4-0.2,0.4-0.5V387.4z"/>
	<path class="st6" d="M551.3,391.1c0-0.4-0.1-0.7-0.4-1s-0.6-0.4-1-0.4c-0.3,0-0.5,0.1-0.8,0.2s-0.4,0.3-0.5,0.4l-0.2,0.2l-0.5-0.5
		c0,0,0.1-0.1,0.1-0.1c0,0,0.1-0.1,0.2-0.2c0.1-0.1,0.3-0.2,0.4-0.3s0.3-0.2,0.6-0.2c0.2-0.1,0.5-0.1,0.7-0.1c0.6,0,1.1,0.2,1.5,0.6
		c0.4,0.4,0.6,0.9,0.6,1.5v3.4h-0.8v-0.7c0,0,0,0.1-0.1,0.1c0,0-0.1,0.1-0.2,0.2s-0.2,0.2-0.3,0.3c-0.1,0.1-0.3,0.1-0.5,0.2
		c-0.2,0.1-0.4,0.1-0.6,0.1c-0.5,0-1-0.2-1.3-0.5c-0.4-0.3-0.5-0.7-0.5-1.1c0-0.4,0.1-0.8,0.4-1.1c0.3-0.3,0.6-0.4,1.1-0.5
		L551.3,391.1z M550.8,393.4c0.3-0.3,0.5-0.7,0.5-1.3v-0.3l-1.8,0.3c-0.7,0.1-1,0.4-1,0.9c0,0.2,0.1,0.4,0.3,0.6
		c0.2,0.2,0.5,0.2,0.8,0.2C550.1,393.9,550.5,393.7,550.8,393.4z"/>
	<path class="st6" d="M559.2,386.8c0.7,0,1.3,0.2,1.8,0.7c0.5,0.5,0.7,1,0.7,1.7s-0.2,1.3-0.7,1.7c-0.5,0.5-1.1,0.7-1.8,0.7h-2.1
		v2.9h-0.8v-7.7H559.2z M557.1,387.5v3.3h2.1c0.5,0,0.9-0.2,1.2-0.5s0.5-0.7,0.5-1.2c0-0.5-0.2-0.9-0.5-1.2s-0.7-0.5-1.2-0.5H557.1z
		"/>
	<path class="st6" d="M563.3,389.9c0.5-0.5,1.2-0.8,1.9-0.8c0.7,0,1.4,0.3,1.9,0.8c0.5,0.5,0.8,1.2,0.8,2s-0.3,1.4-0.8,2
		c-0.5,0.5-1.2,0.8-1.9,0.8c-0.7,0-1.4-0.3-1.9-0.8s-0.8-1.2-0.8-2S562.7,390.4,563.3,389.9z M566.5,390.4c-0.4-0.4-0.8-0.6-1.4-0.6
		c-0.5,0-1,0.2-1.4,0.6c-0.4,0.4-0.6,0.9-0.6,1.4c0,0.6,0.2,1,0.6,1.4s0.8,0.6,1.4,0.6c0.5,0,1-0.2,1.4-0.6c0.4-0.4,0.6-0.9,0.6-1.4
		S566.9,390.8,566.5,390.4z"/>
	<path class="st6" d="M572,389.8h-0.3c-0.5,0-0.8,0.2-1.2,0.5s-0.5,0.7-0.5,1.2v2.9h-0.8v-5.3h0.8v0.7c0,0,0-0.1,0.1-0.1
		c0,0,0.1-0.1,0.2-0.2s0.2-0.2,0.3-0.3c0.1-0.1,0.3-0.1,0.5-0.2c0.2-0.1,0.4-0.1,0.7-0.1h0.2V389.8z"/>
	<path class="st6" d="M573.5,387.4h0.7v1.8h1.2v0.7h-1.2v3.1c0,0.6,0.2,0.8,0.7,0.8c0.1,0,0.2,0,0.4,0c0.1,0,0.2-0.1,0.3-0.1l0.1,0
		v0.7c-0.2,0.1-0.5,0.2-0.7,0.2c-0.5,0-0.8-0.1-1.1-0.4s-0.4-0.6-0.4-1.1v-3.1h-1v-0.7h0.6c0.3,0,0.4-0.2,0.4-0.5V387.4z"/>
	<path class="st6" d="M580,391.1c0-0.4-0.1-0.7-0.4-1s-0.6-0.4-1-0.4c-0.3,0-0.5,0.1-0.8,0.2s-0.4,0.3-0.5,0.4l-0.2,0.2l-0.5-0.5
		c0,0,0.1-0.1,0.1-0.1c0,0,0.1-0.1,0.2-0.2c0.1-0.1,0.3-0.2,0.4-0.3s0.3-0.2,0.6-0.2c0.2-0.1,0.5-0.1,0.7-0.1c0.6,0,1.1,0.2,1.5,0.6
		c0.4,0.4,0.6,0.9,0.6,1.5v3.4H580v-0.7c0,0,0,0.1-0.1,0.1c0,0-0.1,0.1-0.2,0.2s-0.2,0.2-0.3,0.3c-0.1,0.1-0.3,0.1-0.5,0.2
		c-0.2,0.1-0.4,0.1-0.6,0.1c-0.5,0-1-0.2-1.3-0.5c-0.4-0.3-0.5-0.7-0.5-1.1c0-0.4,0.1-0.8,0.4-1.1c0.3-0.3,0.6-0.4,1.1-0.5
		L580,391.1z M579.5,393.4c0.3-0.3,0.5-0.7,0.5-1.3v-0.3l-1.8,0.3c-0.7,0.1-1,0.4-1,0.9c0,0.2,0.1,0.4,0.3,0.6
		c0.2,0.2,0.5,0.2,0.8,0.2C578.7,393.9,579.1,393.7,579.5,393.4z"/>
	<path class="st6" d="M583.3,394.5h-0.8v-7.7h0.8V394.5z"/>
</g>
<g class="st5">
	<path d="M251.3,243.8h1.5v9.8h-1.5V243.8z"/>
	<path d="M256.5,247.6L256.5,247.6c0.1-0.1,0.2-0.2,0.3-0.3c0.1-0.1,0.3-0.2,0.4-0.3c0.1-0.1,0.3-0.1,0.6-0.2
		c0.2-0.1,0.5-0.1,0.7-0.1c0.8,0,1.5,0.3,2,0.8s0.8,1.2,0.8,2.1v3.9h-1.4v-3.9c0-0.5-0.2-0.9-0.5-1.2s-0.7-0.5-1.1-0.5
		c-0.5,0-1,0.2-1.3,0.5c-0.3,0.3-0.5,0.8-0.5,1.4v3.6h-1.4v-6.7h1.4V247.6z"/>
	<path d="M266.8,246.8c0.2,0.1,0.4,0.1,0.6,0.2s0.3,0.2,0.4,0.3c0.1,0.1,0.2,0.2,0.3,0.2l0.1,0.1v-3.9h1.4v9.8h-1.4v-0.8
		c-0.1,0.1-0.2,0.1-0.3,0.3s-0.4,0.2-0.7,0.4c-0.4,0.2-0.8,0.2-1.2,0.2c-0.9,0-1.7-0.3-2.3-1c-0.7-0.7-1-1.5-1-2.5s0.3-1.8,1-2.5
		c0.7-0.7,1.4-1,2.3-1C266.3,246.7,266.6,246.7,266.8,246.8z M267.6,251.8c0.4-0.4,0.6-1,0.6-1.6c0-0.6-0.2-1.1-0.6-1.6
		s-0.9-0.7-1.4-0.7s-1,0.2-1.4,0.7s-0.6,1-0.6,1.6c0,0.6,0.2,1.1,0.6,1.6s0.9,0.7,1.4,0.7S267.2,252.2,267.6,251.8z"/>
	<path d="M272.7,250.7c0.1,0.5,0.3,0.9,0.7,1.2s0.9,0.5,1.4,0.5c0.4,0,0.8-0.1,1.1-0.3s0.6-0.4,0.7-0.5l0.2-0.3l0.9,0.9
		c0,0-0.1,0.1-0.1,0.2c-0.1,0.1-0.2,0.2-0.4,0.3c-0.2,0.2-0.4,0.3-0.6,0.4c-0.2,0.1-0.5,0.2-0.8,0.3c-0.3,0.1-0.7,0.2-1,0.2
		c-1,0-1.8-0.3-2.5-1c-0.7-0.7-1-1.5-1-2.5c0-0.9,0.3-1.8,1-2.4c0.7-0.7,1.5-1,2.4-1s1.7,0.3,2.4,0.9c0.6,0.6,0.9,1.4,0.9,2.4
		l-0.1,0.7H272.7z M273.5,248.4c-0.3,0.3-0.6,0.7-0.7,1.2h3.9c-0.1-0.5-0.3-0.9-0.6-1.2c-0.3-0.3-0.8-0.4-1.3-0.4
		C274.2,247.9,273.8,248.1,273.5,248.4z"/>
	<path d="M285.5,253.6h-1.6l-1.8-2.4l-1.8,2.4h-1.6l2.5-3.5l-2.3-3.2h1.6l1.5,2.2l1.5-2.2h1.6l-2.3,3.2L285.5,253.6z"/>
	<path d="M290.5,243.8c1.4,0,2.5,0.5,3.5,1.4s1.5,2.1,1.5,3.5s-0.5,2.5-1.5,3.5s-2.1,1.4-3.5,1.4h-3.4v-9.8H290.5z M288.6,245.2v7
		h1.9c1,0,1.8-0.3,2.4-1s1-1.5,1-2.5s-0.3-1.8-1-2.5s-1.5-1-2.4-1H288.6z"/>
</g>
<g class="st5">
	<path d="M671.6,243.8c0.9,0,1.7,0.3,2.3,0.9c0.6,0.6,0.9,1.4,0.9,2.2c0,0.9-0.3,1.6-0.9,2.2c-0.6,0.6-1.4,0.9-2.3,0.9h-2.4v3.5
		h-1.5v-9.8H671.6z M669.2,245.2v3.5h2.4c0.5,0,0.9-0.2,1.2-0.5c0.3-0.3,0.5-0.7,0.5-1.2c0-0.5-0.2-0.9-0.5-1.2s-0.8-0.5-1.2-0.5
		H669.2z"/>
	<path d="M677.3,250.7c0.1,0.5,0.3,0.9,0.7,1.2c0.4,0.3,0.9,0.5,1.4,0.5c0.4,0,0.8-0.1,1.1-0.3c0.3-0.2,0.6-0.4,0.7-0.5l0.2-0.3
		l0.9,0.9c0,0-0.1,0.1-0.1,0.2c-0.1,0.1-0.2,0.2-0.4,0.3c-0.2,0.2-0.4,0.3-0.6,0.4c-0.2,0.1-0.5,0.2-0.8,0.3c-0.3,0.1-0.7,0.2-1,0.2
		c-1,0-1.8-0.3-2.5-1c-0.7-0.7-1-1.5-1-2.5c0-0.9,0.3-1.8,1-2.4c0.7-0.7,1.5-1,2.4-1c0.9,0,1.7,0.3,2.4,0.9c0.6,0.6,0.9,1.4,0.9,2.4
		l-0.1,0.7H677.3z M678.1,248.4c-0.3,0.3-0.6,0.7-0.7,1.2h3.9c-0.1-0.5-0.3-0.9-0.6-1.2c-0.3-0.3-0.8-0.4-1.3-0.4
		C678.9,247.9,678.4,248.1,678.1,248.4z"/>
	<path d="M687.4,248c-0.5,0-1,0.2-1.3,0.5c-0.3,0.3-0.5,0.8-0.5,1.4v3.6h-1.4v-6.7h1.4v0.7l0.1-0.1c0,0,0.1-0.1,0.3-0.2
		c0.1-0.1,0.3-0.2,0.4-0.3c0.1-0.1,0.3-0.1,0.6-0.2c0.2-0.1,0.5-0.1,0.7-0.1h0.3v1.3C687.8,248,687.6,248,687.4,248z"/>
	<path d="M690.1,250.7c0.1,0.5,0.3,0.9,0.7,1.2c0.4,0.3,0.9,0.5,1.4,0.5c0.4,0,0.8-0.1,1.1-0.3c0.3-0.2,0.6-0.4,0.7-0.5l0.2-0.3
		l0.9,0.9c0,0-0.1,0.1-0.1,0.2c-0.1,0.1-0.2,0.2-0.4,0.3c-0.2,0.2-0.4,0.3-0.6,0.4c-0.2,0.1-0.5,0.2-0.8,0.3c-0.3,0.1-0.7,0.2-1,0.2
		c-1,0-1.8-0.3-2.5-1c-0.7-0.7-1-1.5-1-2.5c0-0.9,0.3-1.8,1-2.4c0.7-0.7,1.5-1,2.4-1c0.9,0,1.7,0.3,2.4,0.9c0.6,0.6,0.9,1.4,0.9,2.4
		l-0.1,0.7H690.1z M690.8,248.4c-0.3,0.3-0.6,0.7-0.7,1.2h3.9c-0.1-0.5-0.3-0.9-0.6-1.2c-0.3-0.3-0.8-0.4-1.3-0.4
		C691.6,247.9,691.2,248.1,690.8,248.4z"/>
	<path d="M701.7,252.6L701.7,252.6c-0.1,0.1-0.2,0.2-0.3,0.3c-0.1,0.1-0.3,0.2-0.4,0.3c-0.2,0.1-0.3,0.1-0.6,0.2
		c-0.2,0.1-0.5,0.1-0.7,0.1c-0.8,0-1.6-0.3-2.2-1c-0.6-0.7-0.9-1.4-0.9-2.4s0.3-1.7,0.9-2.4c0.6-0.7,1.4-1,2.2-1
		c0.4,0,0.7,0.1,1.1,0.2c0.3,0.1,0.6,0.3,0.7,0.4l0.2,0.2v-0.7h1.4v6.3c0,0.9-0.3,1.7-1,2.4c-0.6,0.6-1.4,1-2.4,1
		c-0.4,0-0.7,0-1.1-0.1c-0.3-0.1-0.6-0.2-0.9-0.3c-0.2-0.1-0.4-0.3-0.6-0.4c-0.2-0.1-0.3-0.3-0.4-0.4l-0.1-0.1l0.9-0.9
		c0,0,0,0.1,0.1,0.1c0,0,0.1,0.1,0.3,0.3c0.1,0.1,0.3,0.2,0.4,0.3c0.2,0.1,0.3,0.2,0.6,0.3c0.2,0.1,0.5,0.1,0.7,0.1
		c0.6,0,1-0.2,1.4-0.6c0.4-0.4,0.6-0.9,0.6-1.5V252.6z M698.5,251.6c0.4,0.4,0.8,0.6,1.3,0.6s0.9-0.2,1.3-0.6s0.6-0.9,0.6-1.5
		s-0.2-1.1-0.6-1.5s-0.8-0.6-1.3-0.6s-0.9,0.2-1.3,0.6c-0.4,0.4-0.6,0.9-0.6,1.5S698.1,251.2,698.5,251.6z"/>
	<path d="M708.2,248c-0.5,0-1,0.2-1.3,0.5c-0.3,0.3-0.5,0.8-0.5,1.4v3.6H705v-6.7h1.4v0.7l0.1-0.1c0,0,0.1-0.1,0.3-0.2
		c0.1-0.1,0.3-0.2,0.4-0.3c0.1-0.1,0.3-0.1,0.6-0.2c0.2-0.1,0.5-0.1,0.7-0.1h0.3v1.3C708.6,248,708.4,248,708.2,248z"/>
	<path d="M711.3,245.4c-0.2,0.2-0.4,0.2-0.6,0.2c-0.2,0-0.4-0.1-0.6-0.2c-0.2-0.2-0.2-0.4-0.2-0.6s0.1-0.4,0.2-0.6
		c0.2-0.2,0.4-0.2,0.6-0.2c0.2,0,0.4,0.1,0.6,0.2c0.2,0.2,0.2,0.4,0.2,0.6S711.5,245.2,711.3,245.4z M711.4,253.6H710v-6.7h1.4
		V253.6z"/>
	<path d="M714.8,247.6L714.8,247.6c0.1-0.1,0.2-0.2,0.3-0.3c0.1-0.1,0.3-0.2,0.4-0.3c0.1-0.1,0.3-0.1,0.6-0.2
		c0.2-0.1,0.5-0.1,0.7-0.1c0.8,0,1.5,0.3,2,0.8c0.5,0.5,0.8,1.2,0.8,2.1v3.9h-1.4v-3.9c0-0.5-0.2-0.9-0.5-1.2s-0.7-0.5-1.1-0.5
		c-0.5,0-1,0.2-1.3,0.5c-0.3,0.3-0.5,0.8-0.5,1.4v3.6h-1.4v-6.7h1.4V247.6z"/>
	<path d="M722.5,250.7c0.1,0.5,0.3,0.9,0.7,1.2c0.4,0.3,0.9,0.5,1.4,0.5c0.4,0,0.8-0.1,1.1-0.3c0.3-0.2,0.6-0.4,0.7-0.5l0.2-0.3
		l0.9,0.9c0,0-0.1,0.1-0.1,0.2c-0.1,0.1-0.2,0.2-0.4,0.3c-0.2,0.2-0.4,0.3-0.6,0.4c-0.2,0.1-0.5,0.2-0.8,0.3c-0.3,0.1-0.7,0.2-1,0.2
		c-1,0-1.8-0.3-2.5-1c-0.7-0.7-1-1.5-1-2.5c0-0.9,0.3-1.8,1-2.4c0.7-0.7,1.5-1,2.4-1c0.9,0,1.7,0.3,2.4,0.9c0.6,0.6,0.9,1.4,0.9,2.4
		l-0.1,0.7H722.5z M723.3,248.4c-0.3,0.3-0.6,0.7-0.7,1.2h3.9c-0.1-0.5-0.3-0.9-0.6-1.2c-0.3-0.3-0.8-0.4-1.3-0.4
		C724.1,247.9,723.6,248.1,723.3,248.4z"/>
</g>
<g class="st5">
	<path d="M538.6,251.3l2.4-7.5h1.6l-3.2,9.8h-1.5l-2.4-7.4l-2.4,7.4h-1.5l-3.2-9.8h1.6l2.4,7.5l2.4-7.5h1.5L538.6,251.3z"/>
	<path d="M545.3,245.4c-0.2,0.2-0.4,0.2-0.6,0.2c-0.2,0-0.4-0.1-0.6-0.2c-0.2-0.2-0.2-0.4-0.2-0.6s0.1-0.4,0.2-0.6
		c0.2-0.2,0.4-0.2,0.6-0.2c0.2,0,0.4,0.1,0.6,0.2c0.2,0.2,0.2,0.4,0.2,0.6S545.5,245.2,545.3,245.4z M545.4,253.6H544v-6.7h1.4
		V253.6z"/>
	<path d="M548.8,247.6L548.8,247.6c0.1-0.1,0.2-0.2,0.3-0.3c0.1-0.1,0.3-0.2,0.4-0.3c0.1-0.1,0.3-0.1,0.6-0.2
		c0.2-0.1,0.5-0.1,0.7-0.1c0.8,0,1.5,0.3,2,0.8c0.5,0.5,0.8,1.2,0.8,2.1v3.9h-1.4v-3.9c0-0.5-0.2-0.9-0.5-1.2s-0.7-0.5-1.1-0.5
		c-0.5,0-1,0.2-1.3,0.5c-0.3,0.3-0.5,0.8-0.5,1.4v3.6h-1.4v-6.7h1.4V247.6z"/>
	<path d="M559.1,246.8c0.2,0.1,0.4,0.1,0.6,0.2c0.2,0.1,0.3,0.2,0.4,0.3c0.1,0.1,0.2,0.2,0.3,0.2l0.1,0.1v-3.9h1.4v9.8h-1.4v-0.8
		c-0.1,0.1-0.2,0.1-0.3,0.3s-0.4,0.2-0.7,0.4c-0.4,0.2-0.8,0.2-1.2,0.2c-0.9,0-1.7-0.3-2.3-1c-0.7-0.7-1-1.5-1-2.5s0.3-1.8,1-2.5
		c0.7-0.7,1.4-1,2.3-1C558.7,246.7,558.9,246.7,559.1,246.8z M560,251.8c0.4-0.4,0.6-1,0.6-1.6c0-0.6-0.2-1.1-0.6-1.6
		s-0.9-0.7-1.4-0.7c-0.5,0-1,0.2-1.4,0.7c-0.4,0.4-0.6,1-0.6,1.6c0,0.6,0.2,1.1,0.6,1.6c0.4,0.4,0.9,0.7,1.4,0.7
		C559.1,252.5,559.5,252.2,560,251.8z"/>
	<path d="M572.8,249.7c0-0.6-0.1-1-0.4-1.3c-0.3-0.3-0.6-0.4-1-0.4c-0.4,0-0.8,0.2-1.1,0.5c-0.3,0.3-0.4,0.8-0.4,1.4v3.6h-1.4v-3.9
		c0-0.6-0.1-1-0.4-1.3c-0.3-0.3-0.6-0.4-1-0.4c-0.4,0-0.8,0.2-1.1,0.5s-0.4,0.8-0.4,1.4v3.6h-1.4v-6.7h1.4v0.7
		c0.1-0.1,0.1-0.1,0.2-0.2c0.1-0.1,0.3-0.2,0.6-0.4c0.3-0.2,0.6-0.2,1-0.2c0.3,0,0.5,0,0.8,0.1c0.2,0.1,0.4,0.2,0.6,0.3
		c0.1,0.1,0.3,0.2,0.4,0.3c0.1,0.1,0.2,0.2,0.2,0.3l0.1,0.1c0,0,0-0.1,0.1-0.1c0,0,0.1-0.1,0.3-0.3s0.3-0.2,0.5-0.3
		c0.2-0.1,0.4-0.2,0.6-0.3c0.3-0.1,0.5-0.1,0.8-0.1c0.8,0,1.4,0.3,1.8,0.8c0.4,0.5,0.7,1.2,0.7,2.2v3.9h-1.4V249.7z"/>
	<path d="M577.5,245.4c-0.2,0.2-0.4,0.2-0.6,0.2c-0.2,0-0.4-0.1-0.6-0.2c-0.2-0.2-0.2-0.4-0.2-0.6s0.1-0.4,0.2-0.6
		c0.2-0.2,0.4-0.2,0.6-0.2c0.2,0,0.4,0.1,0.6,0.2c0.2,0.2,0.2,0.4,0.2,0.6S577.6,245.2,577.5,245.4z M577.6,253.6h-1.4v-6.7h1.4
		V253.6z"/>
	<path d="M581.2,253.6h-1.4v-9.8h1.4V253.6z"/>
	<path d="M584.8,253.6h-1.4v-9.8h1.4V253.6z"/>
</g>
<g class="st5">
	<path class="st6" d="M671.3,386.8c1.1,0,2.1,0.4,2.8,1.1c0.8,0.8,1.2,1.7,1.2,2.7c0,1.1-0.4,2-1.2,2.7c-0.8,0.8-1.7,1.1-2.8,1.1
		h-2.4v-7.7H671.3z M669.7,387.5v6.2h1.6c0.9,0,1.7-0.3,2.3-0.9s0.9-1.3,0.9-2.2s-0.3-1.6-0.9-2.2c-0.6-0.6-1.4-0.9-2.3-0.9H669.7z"
		/>
	<path class="st6" d="M680,391.1c0-0.4-0.1-0.7-0.4-1s-0.6-0.4-1-0.4c-0.3,0-0.5,0.1-0.8,0.2c-0.2,0.1-0.4,0.3-0.5,0.4l-0.2,0.2
		l-0.5-0.5c0,0,0.1-0.1,0.1-0.1c0,0,0.1-0.1,0.2-0.2c0.1-0.1,0.3-0.2,0.4-0.3s0.3-0.2,0.6-0.2c0.2-0.1,0.5-0.1,0.7-0.1
		c0.6,0,1.1,0.2,1.5,0.6c0.4,0.4,0.6,0.9,0.6,1.5v3.4H680v-0.7c0,0,0,0.1-0.1,0.1c0,0-0.1,0.1-0.2,0.2c-0.1,0.1-0.2,0.2-0.3,0.3
		c-0.1,0.1-0.3,0.1-0.5,0.2c-0.2,0.1-0.4,0.1-0.6,0.1c-0.5,0-1-0.2-1.3-0.5c-0.4-0.3-0.5-0.7-0.5-1.1c0-0.4,0.1-0.8,0.4-1.1
		c0.3-0.3,0.6-0.4,1.1-0.5L680,391.1z M679.5,393.4c0.3-0.3,0.5-0.7,0.5-1.3v-0.3l-1.8,0.3c-0.7,0.1-1,0.4-1,0.9
		c0,0.2,0.1,0.4,0.3,0.6c0.2,0.2,0.5,0.2,0.8,0.2C678.8,393.9,679.2,393.7,679.5,393.4z"/>
	<path class="st6" d="M683,387.4h0.7v1.8h1.2v0.7h-1.2v3.1c0,0.6,0.2,0.8,0.7,0.8c0.1,0,0.2,0,0.4,0c0.1,0,0.2-0.1,0.3-0.1l0.1,0
		v0.7c-0.2,0.1-0.5,0.2-0.7,0.2c-0.5,0-0.8-0.1-1.1-0.4c-0.3-0.3-0.4-0.6-0.4-1.1v-3.1h-1v-0.7h0.6c0.3,0,0.4-0.2,0.4-0.5V387.4z"/>
	<path class="st6" d="M689.4,391.1c0-0.4-0.1-0.7-0.4-1s-0.6-0.4-1-0.4c-0.3,0-0.5,0.1-0.8,0.2c-0.2,0.1-0.4,0.3-0.5,0.4l-0.2,0.2
		l-0.5-0.5c0,0,0.1-0.1,0.1-0.1c0,0,0.1-0.1,0.2-0.2c0.1-0.1,0.3-0.2,0.4-0.3s0.3-0.2,0.6-0.2c0.2-0.1,0.5-0.1,0.7-0.1
		c0.6,0,1.1,0.2,1.5,0.6c0.4,0.4,0.6,0.9,0.6,1.5v3.4h-0.8v-0.7c0,0,0,0.1-0.1,0.1c0,0-0.1,0.1-0.2,0.2c-0.1,0.1-0.2,0.2-0.3,0.3
		c-0.1,0.1-0.3,0.1-0.5,0.2c-0.2,0.1-0.4,0.1-0.6,0.1c-0.5,0-1-0.2-1.3-0.5c-0.4-0.3-0.5-0.7-0.5-1.1c0-0.4,0.1-0.8,0.4-1.1
		c0.3-0.3,0.6-0.4,1.1-0.5L689.4,391.1z M688.9,393.4c0.3-0.3,0.5-0.7,0.5-1.3v-0.3l-1.8,0.3c-0.7,0.1-1,0.4-1,0.9
		c0,0.2,0.1,0.4,0.3,0.6c0.2,0.2,0.5,0.2,0.8,0.2C688.2,393.9,688.6,393.7,688.9,393.4z"/>
	<path class="st6" d="M697.8,391.7c-0.2-0.2-0.4-0.3-0.6-0.4c-0.2-0.1-0.5-0.2-0.8-0.3c-0.3-0.1-0.6-0.2-0.9-0.3
		c-0.3-0.1-0.6-0.2-0.8-0.4s-0.4-0.4-0.6-0.6c-0.2-0.3-0.2-0.6-0.2-1c0-0.6,0.2-1.1,0.7-1.5c0.5-0.4,1.1-0.6,1.8-0.6
		c0.3,0,0.5,0,0.8,0.1c0.3,0.1,0.5,0.2,0.6,0.2c0.2,0.1,0.3,0.2,0.5,0.3c0.1,0.1,0.2,0.2,0.3,0.2l0.1,0.1l-0.6,0.6c0,0,0,0-0.1-0.1
		c0,0-0.1-0.1-0.2-0.2s-0.2-0.2-0.3-0.2c-0.1-0.1-0.3-0.1-0.5-0.2c-0.2-0.1-0.4-0.1-0.6-0.1c-0.5,0-0.9,0.1-1.2,0.4
		s-0.4,0.6-0.4,0.9c0,0.3,0.1,0.5,0.2,0.7c0.2,0.2,0.4,0.3,0.6,0.4s0.5,0.2,0.8,0.3c0.3,0.1,0.6,0.2,0.9,0.3
		c0.3,0.1,0.6,0.2,0.8,0.4s0.4,0.4,0.6,0.6c0.2,0.3,0.2,0.6,0.2,1c0,0.7-0.2,1.2-0.7,1.6c-0.5,0.4-1.1,0.6-1.9,0.6
		c-0.3,0-0.6,0-0.9-0.1c-0.3-0.1-0.5-0.2-0.7-0.3c-0.2-0.1-0.4-0.2-0.5-0.3c-0.1-0.1-0.2-0.2-0.3-0.3l-0.1-0.1l0.5-0.6
		c0,0,0,0.1,0.1,0.1c0,0,0.1,0.1,0.2,0.2c0.1,0.1,0.3,0.2,0.4,0.3c0.1,0.1,0.3,0.2,0.6,0.2c0.2,0.1,0.5,0.1,0.8,0.1
		c0.6,0,1-0.1,1.3-0.4c0.3-0.3,0.5-0.6,0.5-1C698,392.1,698,391.9,697.8,391.7z"/>
	<path class="st6" d="M700.6,392.1c0,0.5,0.2,0.9,0.6,1.2s0.8,0.5,1.3,0.5c0.3,0,0.6-0.1,0.9-0.2c0.3-0.1,0.5-0.3,0.6-0.4l0.2-0.2
		l0.5,0.5c0,0-0.1,0.1-0.1,0.1c0,0.1-0.1,0.1-0.3,0.3c-0.1,0.1-0.3,0.2-0.4,0.3s-0.4,0.2-0.6,0.3c-0.3,0.1-0.5,0.1-0.8,0.1
		c-0.7,0-1.3-0.3-1.9-0.8c-0.5-0.5-0.8-1.2-0.8-1.9s0.3-1.4,0.8-1.9c0.5-0.5,1.1-0.8,1.8-0.8c0.7,0,1.3,0.2,1.8,0.7
		c0.5,0.5,0.7,1.1,0.7,1.9l-0.1,0.4L700.6,392.1z M701.2,390.3c-0.3,0.3-0.5,0.7-0.6,1.2h3.6c-0.1-0.5-0.2-0.9-0.6-1.2
		c-0.3-0.3-0.7-0.5-1.2-0.5S701.6,390,701.2,390.3z"/>
	<path class="st6" d="M709.5,391.1c0-0.4-0.1-0.7-0.4-1s-0.6-0.4-1-0.4c-0.3,0-0.5,0.1-0.8,0.2c-0.2,0.1-0.4,0.3-0.5,0.4l-0.2,0.2
		l-0.5-0.5c0,0,0.1-0.1,0.1-0.1c0,0,0.1-0.1,0.2-0.2c0.1-0.1,0.3-0.2,0.4-0.3s0.3-0.2,0.6-0.2c0.2-0.1,0.5-0.1,0.7-0.1
		c0.6,0,1.1,0.2,1.5,0.6c0.4,0.4,0.6,0.9,0.6,1.5v3.4h-0.8v-0.7c0,0,0,0.1-0.1,0.1c0,0-0.1,0.1-0.2,0.2c-0.1,0.1-0.2,0.2-0.3,0.3
		c-0.1,0.1-0.3,0.1-0.5,0.2c-0.2,0.1-0.4,0.1-0.6,0.1c-0.5,0-1-0.2-1.3-0.5c-0.4-0.3-0.5-0.7-0.5-1.1c0-0.4,0.1-0.8,0.4-1.1
		c0.3-0.3,0.6-0.4,1.1-0.5L709.5,391.1z M709.1,393.4c0.3-0.3,0.5-0.7,0.5-1.3v-0.3l-1.8,0.3c-0.7,0.1-1,0.4-1,0.9
		c0,0.2,0.1,0.4,0.3,0.6c0.2,0.2,0.5,0.2,0.8,0.2C708.3,393.9,708.7,393.7,709.1,393.4z"/>
	<path class="st6" d="M714.8,389.8h-0.3c-0.5,0-0.8,0.2-1.2,0.5s-0.5,0.7-0.5,1.2v2.9h-0.8v-5.3h0.8v0.7c0,0,0-0.1,0.1-0.1
		c0,0,0.1-0.1,0.2-0.2s0.2-0.2,0.3-0.3c0.1-0.1,0.3-0.1,0.5-0.2c0.2-0.1,0.4-0.1,0.7-0.1h0.2V389.8z"/>
	<path class="st6" d="M716.3,389.9c0.5-0.5,1.1-0.8,1.9-0.8c0.4,0,0.8,0.1,1.2,0.3c0.4,0.2,0.6,0.4,0.8,0.5l0.2,0.3l-0.6,0.5
		c0,0,0-0.1-0.1-0.1c0,0-0.1-0.1-0.2-0.2s-0.2-0.2-0.3-0.3c-0.1-0.1-0.3-0.1-0.4-0.2c-0.2-0.1-0.4-0.1-0.6-0.1
		c-0.5,0-0.9,0.2-1.3,0.6c-0.4,0.4-0.6,0.9-0.6,1.4s0.2,1.1,0.6,1.4c0.4,0.4,0.8,0.6,1.3,0.6c0.3,0,0.6-0.1,0.9-0.2
		c0.3-0.1,0.5-0.3,0.6-0.4l0.2-0.2l0.5,0.5c0,0-0.1,0.1-0.1,0.1s-0.1,0.1-0.3,0.3c-0.1,0.1-0.3,0.2-0.5,0.3
		c-0.2,0.1-0.4,0.2-0.6,0.3c-0.2,0.1-0.5,0.1-0.8,0.1c-0.7,0-1.3-0.3-1.9-0.8c-0.5-0.5-0.8-1.2-0.8-1.9S715.7,390.4,716.3,389.9z"/>
	<path class="st6" d="M722.3,390C722.4,389.9,722.4,389.9,722.3,390c0.1-0.1,0.2-0.2,0.3-0.3c0.1-0.1,0.2-0.2,0.3-0.3
		c0.1-0.1,0.3-0.1,0.5-0.2c0.2-0.1,0.4-0.1,0.6-0.1c0.6,0,1.2,0.2,1.5,0.6c0.4,0.4,0.6,1,0.6,1.6v3.1h-0.8v-3.1
		c0-0.5-0.1-0.8-0.4-1.1s-0.6-0.4-1-0.4c-0.5,0-0.9,0.2-1.2,0.5c-0.3,0.3-0.5,0.8-0.5,1.3v2.9h-0.8v-7.7h0.8V390z"/>
</g>
<polyline class="st7" points="130.3,237.9 130.3,220.2 412.8,220.2 412.8,229.4 "/>
<polyline class="st7" points="422.3,229.1 412.9,238.4 403.6,229.1 "/>
<g>
	<g>
		<circle class="st8" cx="414" cy="321.1" r="51.6"/>
		<circle class="st7" cx="414" cy="321.1" r="59.1"/>
	</g>
	<g>
		<g>
			<polyline class="st9" points="387.7,321.4 387.7,312.4 441,312.4 441,321.4 			"/>
			<line class="st9" x1="414.4" y1="321.4" x2="414.4" y2="302.3"/>
		</g>
		<g>
			<g id="kEGzIv.tif_3_">
				<g>
					<g>
						<path class="st10" d="M414,302.1c2.8,0,5.5,0,8.3,0c2.3,0,3.7-1.3,3.7-3.6c0.1-3.4,0.1-6.7,0-10.1c0-2.2-1.4-3.5-3.6-3.5
							c-5.5,0-11.1,0-16.6,0c-2.4,0-3.8,1.3-3.8,3.7c0,3.3,0,6.6,0,9.9c0,2.3,1.4,3.6,3.7,3.6C408.4,302.1,411.2,302.1,414,302.1z
							 M387.1,333.4c2,0,3.9,0,5.9,0c2.2,0,3.7-1.4,3.7-3.6c0.1-2.1,0.1-4.1,0-6.2c-0.1-2.2-1.4-3.7-3.7-3.7
							c-3.9-0.1-7.7-0.1-11.6,0c-2.2,0-3.6,1.6-3.7,3.8c0,2,0,4,0,6c0,2.3,1.4,3.7,3.8,3.8C383.4,333.5,385.2,333.4,387.1,333.4z
							 M413.9,333.4c1.8,0,3.7,0,5.5,0c2.5,0,4-1.4,4-3.9c0-2,0-3.9,0-5.9c0-2.2-1.4-3.8-3.6-3.8c-3.9-0.1-7.8-0.1-11.7,0
							c-2.2,0.1-3.6,1.6-3.6,3.8c0,2,0,4,0,6c0.1,2.2,1.5,3.7,3.7,3.7C410.1,333.5,412,333.4,413.9,333.4z M440.8,333.5
							C440.8,333.4,440.8,333.4,440.8,333.5c1.9,0,3.8,0,5.7,0c2.2-0.1,3.7-1.5,3.7-3.7c0.1-2.1,0.1-4.1,0-6.2s-1.4-3.6-3.5-3.7
							c-3.9-0.1-7.8-0.1-11.7,0c-2.2,0.1-3.6,1.6-3.6,3.8c0,2,0,4,0,6c0,2.3,1.5,3.7,3.8,3.8C437,333.5,438.9,333.5,440.8,333.5z"/>
					</g>
				</g>
			</g>
		</g>
		<g>
			<g>
				<line class="st11" x1="414" y1="293.5" x2="413.5" y2="293.5"/>
				<line class="st12" x1="409.5" y1="293.5" x2="322.4" y2="293.5"/>
				<line class="st11" x1="320.4" y1="293.5" x2="319.9" y2="293.5"/>
			</g>
		</g>
		<g>
			<g>
				<line class="st11" x1="441.1" y1="327.3" x2="441.1" y2="327.8"/>
				<line class="st13" x1="441.1" y1="331.5" x2="441.1" y2="353.4"/>
				<polyline class="st11" points="441.1,355.2 441.1,355.7 440.6,355.7 				"/>
				<line class="st14" x1="436.5" y1="355.7" x2="296.7" y2="355.7"/>
				<line class="st11" x1="294.7" y1="355.7" x2="294.2" y2="355.7"/>
			</g>
		</g>
		<g>
			<g>
				<line class="st11" x1="414.2" y1="325.8" x2="414.2" y2="326.3"/>
				<line class="st15" x1="414.2" y1="330.5" x2="414.3" y2="338.9"/>
				<polyline class="st11" points="414.4,341 414.4,341.5 413.9,341.5 				"/>
				<line class="st16" x1="409.9" y1="341.5" x2="308.7" y2="341.5"/>
				<line class="st11" x1="306.7" y1="341.5" x2="306.2" y2="341.5"/>
			</g>
		</g>
		<g>
			<g>
				<line class="st11" x1="386.2" y1="325.8" x2="385.7" y2="325.8"/>
				<line class="st17" x1="381.7" y1="325.8" x2="299.1" y2="325.8"/>
				<line class="st11" x1="297.1" y1="325.8" x2="296.6" y2="325.8"/>
			</g>
		</g>
	</g>
</g>
<g>
	<g>
		<circle class="st8" cx="273.1" cy="321.1" r="51.6"/>
		<circle class="st7" cx="273.1" cy="321.1" r="59.1"/>
	</g>
	<g>
		<g>
			<g>
				<path class="st18" d="M298.1,303.6l-13.6-6.6c-1.1-0.5-2.5-0.5-3.6,0l-13.6,6.6c-0.7,0.3-1.2,1-1.3,1.8h-15
					c-2.4,0-4.4,2-4.4,4.4v27.3c0,2.4,2,4.4,4.4,4.4h44c2.4,0,4.4-2,4.4-4.4v-31.4C299.5,304.8,298.9,304,298.1,303.6z M297.7,337.1
					c0,1.5-1.2,2.6-2.6,2.6h-44c-1.5,0-2.6-1.2-2.6-2.6v-27.3c0-1.5,1.2-2.6,2.6-2.6h15v6.7c0.1,7.6,3.7,14.8,9.8,19.4l5.2,4.1
					c1,0.8,2.4,0.8,3.4,0l5.2-4.1c3.5-2.8,6.3-6.4,8-10.6V337.1L297.7,337.1z M297.7,313.8c-0.1,7.1-3.5,13.8-9.1,18.1l-5.2,4.1
					c-0.4,0.3-0.9,0.3-1.2,0l-5.2-4.1c-5.7-4.3-9-11-9.1-18.1v-8.1c0-0.3,0.2-0.5,0.4-0.6l13.6-6.6c0.7-0.3,1.4-0.3,2.1,0l13.6,6.6
					c0.2,0.1,0.4,0.3,0.4,0.6v8.1H297.7z"/>
				<path class="st18" d="M282.7,305.5c-4.8,0-8.8,3.9-8.8,8.8s4,8.8,8.8,8.8s8.8-4,8.7-8.8C291.5,309.4,287.5,305.4,282.7,305.5z
					 M282.7,321.2c-3.9,0-7-3.1-7-7s3.2-7,7-7c3.9,0,7,3.2,7,7C289.7,318.1,286.6,321.2,282.7,321.2z"/>
				<path class="st18" d="M285,311.8l-3.7,3.7l-0.8-0.8c-0.3-0.3-0.9-0.3-1.2,0c-0.3,0.3-0.3,0.9,0,1.2l1.4,1.4
					c0.2,0.2,0.4,0.3,0.6,0.3s0.5-0.1,0.6-0.3l4.3-4.3c0.3-0.3,0.3-0.9,0-1.2S285.3,311.5,285,311.8z"/>
				<path class="st18" d="M266,330.9h-13.9c-0.5,0-0.9,0.4-0.9,0.9s0.4,0.9,0.9,0.9H266c0.5,0,0.9-0.4,0.9-0.9
					S266.5,330.9,266,330.9z"/>
				<path class="st18" d="M259,334.5h-6.8c-0.5,0-0.9,0.4-0.9,0.9s0.4,0.9,0.9,0.9h6.8c0.5,0,0.9-0.4,0.9-0.9
					C259.8,334.8,259.4,334.5,259,334.5z"/>
				<path class="st18" d="M265,324.3L265,324.3l-3.1-1.5c-0.1,0-0.2-0.1-0.2-0.2v-0.9c0-0.1,0.1-0.1,0.1-0.2
					c0.4-0.5,0.7-1.1,0.9-1.8c0.5-0.3,0.9-0.9,0.9-1.5v-1.3c0-0.4-0.1-0.7-0.3-1v-1.5c0.1-0.9-0.2-1.8-0.8-2.4
					c-1-0.9-2.3-1.4-3.6-1.3c-1.3-0.1-2.7,0.4-3.6,1.3c-0.6,0.7-0.9,1.6-0.8,2.4v1.5c-0.2,0.3-0.3,0.7-0.3,1v1.3
					c0,0.5,0.2,1,0.5,1.3c0.2,0.8,0.6,1.5,1.1,2.2v0.9c0,0.1-0.1,0.2-0.1,0.2l-2.9,1.5c-1.1,0.6-1.8,1.7-1.8,3v1
					c0,0.2,0.1,0.5,0.3,0.6c0.2,0.2,0.4,0.3,0.6,0.3H266c0.2,0,0.5-0.1,0.6-0.3c0.2-0.2,0.3-0.4,0.3-0.6v-1
					C266.9,326,266.1,324.8,265,324.3z M265.1,327.4h-12.3v-0.1c0-0.6,0.3-1.2,0.9-1.4l2.9-1.5c0.7-0.4,1.1-1,1.1-1.8v-1.2
					c0-0.2-0.1-0.4-0.2-0.6c-0.5-0.6-0.8-1.3-1-2c-0.1-0.2-0.2-0.5-0.4-0.6v-1.3c0.2-0.2,0.3-0.4,0.3-0.7v-1.8v-0.1
					c0-0.4,0.1-0.8,0.4-1.1c0.6-0.5,1.5-0.8,2.3-0.7c0.8-0.1,1.6,0.2,2.3,0.7c0.3,0.3,0.4,0.7,0.4,1.1v0.1v1.8
					c0,0.3,0.1,0.5,0.3,0.7l-0.1,1.3c-0.3,0.1-0.5,0.3-0.6,0.6c-0.2,0.6-0.5,1.1-0.8,1.6c-0.1,0.1-0.1,0.2-0.2,0.3
					c-0.1,0.2-0.2,0.4-0.2,0.6v1.2c0,0.8,0.4,1.5,1.1,1.8l3.1,1.5C264.8,326.1,265.1,326.7,265.1,327.4L265.1,327.4L265.1,327.4z"/>
			</g>
		</g>
	</g>
</g>
<polyline class="st7" points="556.8,407 556.8,422.3 271.9,422.3 271.9,403.2 "/>
<polyline class="st7" points="547.5,407.9 556.8,398.5 566.1,407.9 "/>
<polyline class="st7" points="697.7,407 697.7,422.3 556.8,422.3 "/>
<polyline class="st7" points="688.4,407.9 697.7,398.5 707,407.9 "/>
<g class="st5">
	<path class="st6" d="M248.7,393.4c-0.8,0.8-1.7,1.2-2.8,1.2s-2-0.4-2.8-1.2c-0.8-0.8-1.2-1.7-1.2-2.8c0-1.1,0.4-2,1.2-2.8
		c0.8-0.8,1.7-1.2,2.8-1.2s2,0.4,2.8,1.2c0.8,0.8,1.2,1.7,1.2,2.8C249.8,391.7,249.4,392.7,248.7,393.4z M243.6,392.9
		c0.6,0.6,1.3,0.9,2.2,0.9s1.6-0.3,2.2-0.9s0.9-1.4,0.9-2.3s-0.3-1.7-0.9-2.3s-1.3-0.9-2.2-0.9s-1.6,0.3-2.2,0.9s-0.9,1.4-0.9,2.3
		S243,392.3,243.6,392.9z"/>
	<path class="st6" d="M252.1,390C252.2,390,252.2,390,252.1,390c0.1-0.1,0.2-0.2,0.3-0.3c0.1-0.1,0.2-0.2,0.4-0.3s0.3-0.2,0.5-0.2
		c0.2-0.1,0.4-0.1,0.7-0.1c0.7,0,1.3,0.3,1.8,0.8c0.5,0.5,0.8,1.2,0.8,1.9s-0.3,1.4-0.8,1.9s-1.1,0.8-1.8,0.8c-0.2,0-0.4,0-0.7-0.1
		c-0.2-0.1-0.4-0.1-0.5-0.2c-0.1-0.1-0.3-0.2-0.4-0.3c-0.1-0.1-0.2-0.2-0.2-0.2l-0.1-0.1v0.8h-0.8v-7.7h0.8V390z M252.7,393.3
		c0.4,0.4,0.8,0.6,1.3,0.6c0.5,0,0.9-0.2,1.2-0.6c0.4-0.4,0.5-0.9,0.5-1.4c0-0.6-0.2-1-0.5-1.4c-0.4-0.4-0.8-0.6-1.2-0.6
		c-0.5,0-0.9,0.2-1.3,0.6c-0.4,0.4-0.6,0.9-0.6,1.4C252.1,392.4,252.3,392.8,252.7,393.3z"/>
	<path class="st6" d="M257.9,389.2h0.8v6c0,1-0.5,1.5-1.4,1.5c-0.1,0-0.2,0-0.3,0c-0.1,0-0.2-0.1-0.2-0.1l-0.1,0v-0.7
		c0.2,0.1,0.4,0.2,0.6,0.2c0.5,0,0.7-0.3,0.7-0.8V389.2z M257.9,387.1c0.1-0.1,0.2-0.1,0.4-0.1s0.3,0,0.4,0.1
		c0.1,0.1,0.1,0.2,0.1,0.4c0,0.1,0,0.3-0.1,0.4c-0.1,0.1-0.2,0.1-0.4,0.1s-0.3,0-0.4-0.1c-0.1-0.1-0.1-0.2-0.1-0.4
		C257.8,387.3,257.8,387.2,257.9,387.1z"/>
	<path class="st6" d="M260.8,392.1c0,0.5,0.2,0.9,0.6,1.2c0.4,0.3,0.8,0.5,1.3,0.5c0.3,0,0.6-0.1,0.9-0.2s0.5-0.3,0.6-0.4l0.2-0.2
		l0.5,0.5c0,0-0.1,0.1-0.1,0.1c0,0.1-0.1,0.1-0.3,0.3c-0.1,0.1-0.3,0.2-0.4,0.3c-0.2,0.1-0.4,0.2-0.6,0.3c-0.3,0.1-0.5,0.1-0.8,0.1
		c-0.7,0-1.3-0.3-1.9-0.8s-0.8-1.2-0.8-1.9s0.3-1.4,0.8-1.9c0.5-0.5,1.1-0.8,1.8-0.8c0.7,0,1.3,0.2,1.8,0.7c0.5,0.5,0.7,1.1,0.7,1.9
		l-0.1,0.4L260.8,392.1z M261.4,390.3c-0.3,0.3-0.5,0.7-0.6,1.2h3.6c-0.1-0.5-0.2-0.9-0.6-1.2s-0.7-0.5-1.2-0.5
		S261.8,390,261.4,390.3z"/>
	<path class="st6" d="M266.9,389.9c0.5-0.5,1.1-0.8,1.9-0.8c0.4,0,0.8,0.1,1.2,0.3c0.4,0.2,0.6,0.4,0.8,0.5l0.2,0.3l-0.6,0.5
		c0,0,0-0.1-0.1-0.1s-0.1-0.1-0.2-0.2c-0.1-0.1-0.2-0.2-0.3-0.3s-0.3-0.1-0.4-0.2c-0.2-0.1-0.4-0.1-0.6-0.1c-0.5,0-0.9,0.2-1.3,0.6
		c-0.4,0.4-0.6,0.9-0.6,1.4s0.2,1.1,0.6,1.4c0.4,0.4,0.8,0.6,1.3,0.6c0.3,0,0.6-0.1,0.9-0.2s0.5-0.3,0.6-0.4l0.2-0.2l0.5,0.5
		c0,0-0.1,0.1-0.1,0.1c0,0.1-0.1,0.1-0.3,0.3c-0.1,0.1-0.3,0.2-0.5,0.3s-0.4,0.2-0.6,0.3c-0.2,0.1-0.5,0.1-0.8,0.1
		c-0.7,0-1.3-0.3-1.9-0.8s-0.8-1.2-0.8-1.9S266.4,390.4,266.9,389.9z"/>
	<path class="st6" d="M272.7,387.4h0.7v1.8h1.2v0.7h-1.2v3.1c0,0.6,0.2,0.8,0.7,0.8c0.1,0,0.2,0,0.4,0c0.1,0,0.2-0.1,0.3-0.1l0.1,0
		v0.7c-0.2,0.1-0.5,0.2-0.7,0.2c-0.5,0-0.8-0.1-1.1-0.4c-0.3-0.3-0.4-0.6-0.4-1.1v-3.1h-1v-0.7h0.6c0.3,0,0.4-0.2,0.4-0.5V387.4z"/>
	<path class="st6" d="M278.6,386.8h0.8v7.7h-0.8V386.8z"/>
	<path class="st6" d="M282.1,390C282.2,389.9,282.2,389.9,282.1,390c0.1-0.1,0.2-0.2,0.3-0.3c0.1-0.1,0.2-0.2,0.3-0.3
		c0.1-0.1,0.3-0.1,0.5-0.2c0.2-0.1,0.4-0.1,0.6-0.1c0.6,0,1.2,0.2,1.6,0.6c0.4,0.4,0.6,1,0.6,1.6v3.1h-0.8v-3.1
		c0-0.5-0.1-0.8-0.4-1.1c-0.3-0.3-0.6-0.4-1-0.4c-0.5,0-0.9,0.2-1.2,0.5s-0.5,0.8-0.5,1.3v2.9h-0.8v-5.3h0.8V390z"/>
	<path class="st6" d="M291.8,386.8h0.8v7.7h-0.8v-0.8c0,0,0,0.1-0.1,0.1s-0.1,0.1-0.2,0.2s-0.2,0.2-0.4,0.3s-0.3,0.2-0.5,0.2
		c-0.2,0.1-0.4,0.1-0.7,0.1c-0.7,0-1.3-0.3-1.8-0.8c-0.5-0.5-0.8-1.2-0.8-1.9s0.3-1.4,0.8-1.9c0.5-0.5,1.1-0.8,1.8-0.8
		c0.2,0,0.4,0,0.7,0.1c0.2,0.1,0.4,0.1,0.5,0.2s0.3,0.2,0.4,0.3c0.1,0.1,0.2,0.2,0.2,0.2l0.1,0.1V386.8z M291.2,390.4
		c-0.4-0.4-0.8-0.6-1.3-0.6c-0.5,0-0.9,0.2-1.2,0.6c-0.4,0.4-0.5,0.9-0.5,1.4c0,0.6,0.2,1,0.5,1.4c0.4,0.4,0.8,0.6,1.2,0.6
		c0.5,0,0.9-0.2,1.3-0.6c0.4-0.4,0.6-0.9,0.6-1.4C291.8,391.3,291.6,390.8,291.2,390.4z"/>
	<path class="st6" d="M294.7,392.1c0,0.5,0.2,0.9,0.6,1.2c0.4,0.3,0.8,0.5,1.3,0.5c0.3,0,0.6-0.1,0.9-0.2s0.5-0.3,0.6-0.4l0.2-0.2
		l0.5,0.5c0,0-0.1,0.1-0.1,0.1c0,0.1-0.1,0.1-0.3,0.3c-0.1,0.1-0.3,0.2-0.4,0.3c-0.2,0.1-0.4,0.2-0.6,0.3c-0.3,0.1-0.5,0.1-0.8,0.1
		c-0.7,0-1.3-0.3-1.9-0.8s-0.8-1.2-0.8-1.9s0.3-1.4,0.8-1.9c0.5-0.5,1.1-0.8,1.8-0.8c0.7,0,1.3,0.2,1.8,0.7c0.5,0.5,0.7,1.1,0.7,1.9
		l-0.1,0.4L294.7,392.1z M295.3,390.3c-0.3,0.3-0.5,0.7-0.6,1.2h3.6c-0.1-0.5-0.2-0.9-0.6-1.2s-0.7-0.5-1.2-0.5
		S295.7,390,295.3,390.3z"/>
	<path class="st6" d="M300.7,394.5h-0.9l2-2.8l-1.8-2.5h0.9l1.4,1.9l1.4-1.9h0.9l-1.8,2.5l2,2.8h-0.9l-1.5-2.1L300.7,394.5z"/>
</g>
<g class="st5">
	<path d="M375.6,455.9h1.3l3.5,8.4H379l-0.9-2.2h-3.7l-0.9,2.2h-1.4L375.6,455.9z M374.8,460.9h2.8l-1.4-3.5L374.8,460.9z"/>
	<path d="M389.1,462.3l2-6.4h1.4l-2.8,8.4h-1.3l-2-6.4l-2,6.4H383l-2.8-8.4h1.4l2,6.4l2-6.4h1.3L389.1,462.3z"/>
	<path d="M397.8,461.2c-0.2-0.2-0.4-0.3-0.6-0.4c-0.3-0.1-0.5-0.2-0.9-0.3c-0.3-0.1-0.6-0.2-1-0.3c-0.3-0.1-0.6-0.3-0.9-0.4
		c-0.3-0.2-0.5-0.4-0.6-0.7s-0.2-0.7-0.2-1.1c0-0.6,0.2-1.2,0.7-1.6s1.2-0.7,2-0.7c0.3,0,0.6,0,0.9,0.1c0.3,0.1,0.5,0.2,0.7,0.3
		c0.2,0.1,0.4,0.2,0.5,0.3s0.2,0.2,0.3,0.3l0.1,0.1l-0.8,0.8c0,0,0,0-0.1-0.1s-0.1-0.1-0.2-0.2c-0.1-0.1-0.2-0.2-0.3-0.2
		c-0.1-0.1-0.3-0.1-0.5-0.2s-0.4-0.1-0.6-0.1c-0.4,0-0.8,0.1-1,0.3c-0.3,0.2-0.4,0.5-0.4,0.8c0,0.3,0.1,0.5,0.2,0.7
		c0.2,0.2,0.4,0.3,0.6,0.4c0.3,0.1,0.5,0.2,0.9,0.3c0.3,0.1,0.6,0.2,1,0.3c0.3,0.1,0.6,0.3,0.9,0.4c0.3,0.2,0.5,0.4,0.6,0.7
		s0.2,0.7,0.2,1.1c0,0.7-0.3,1.4-0.8,1.8c-0.5,0.5-1.3,0.7-2.2,0.7c-0.4,0-0.7,0-1.1-0.1s-0.6-0.2-0.9-0.3s-0.4-0.3-0.6-0.4
		s-0.3-0.2-0.4-0.3l-0.1-0.1l0.8-0.8c0,0,0,0.1,0.1,0.1c0,0,0.1,0.1,0.3,0.2c0.1,0.1,0.3,0.2,0.4,0.3s0.4,0.2,0.6,0.2
		c0.3,0.1,0.5,0.1,0.8,0.1c0.5,0,0.9-0.1,1.2-0.4c0.3-0.3,0.5-0.6,0.5-0.9C398.1,461.6,398,461.4,397.8,461.2z"/>
</g>
<g>
	<rect x="367.8" y="475.5" class="st2" width="36.2" height="46.4"/>
	<g>
		<rect x="362.7" y="472.9" class="st2" width="46.4" height="12.1"/>
		<circle class="st3" cx="370.7" cy="479" r="2.9"/>
		<circle class="st3" cx="377.2" cy="479" r="0.7"/>
	</g>
	<g>
		<g>
			<rect x="362.7" y="487.5" class="st2" width="46.4" height="12.1"/>
			<circle class="st3" cx="370.7" cy="493.5" r="2.9"/>
			<circle class="st3" cx="377.2" cy="493.5" r="0.7"/>
		</g>
		<g>
			<line class="st4" x1="399" y1="492.2" x2="405.9" y2="492.2"/>
			<line class="st4" x1="399" y1="494.9" x2="405.9" y2="494.9"/>
		</g>
	</g>
	<g>
		<g>
			<rect x="362.7" y="502.1" class="st2" width="46.4" height="12.1"/>
			<circle class="st3" cx="370.7" cy="508.1" r="2.9"/>
			<circle class="st3" cx="377.2" cy="508.1" r="0.7"/>
		</g>
		<g>
			<line class="st4" x1="399" y1="506.8" x2="405.9" y2="506.8"/>
			<line class="st4" x1="399" y1="509.5" x2="405.9" y2="509.5"/>
		</g>
	</g>
	<g>
		<g>
			<rect x="362.7" y="516.7" class="st2" width="46.4" height="12.1"/>
			<circle class="st3" cx="370.7" cy="522.7" r="2.9"/>
			<circle class="st3" cx="377.2" cy="522.7" r="0.7"/>
		</g>
		<g>
			<line class="st4" x1="399" y1="521.3" x2="405.9" y2="521.3"/>
			<line class="st4" x1="399" y1="524" x2="405.9" y2="524"/>
		</g>
	</g>
</g>
<g class="st5">
	<path d="M437.7,455.9h1.3l3.5,8.4h-1.4l-0.9-2.2h-3.7l-0.9,2.2h-1.4L437.7,455.9z M437,460.9h2.8l-1.4-3.5L437,460.9z"/>
	<path d="M447.9,459.6l-3.2,3.6h3.3v1.1h-4.8v-1.1l3.2-3.6h-3.1v-1.1h4.6V459.6z"/>
	<path d="M453.4,463.7L453.4,463.7c-0.1,0.1-0.2,0.2-0.3,0.2c-0.1,0.1-0.2,0.2-0.4,0.2c-0.1,0.1-0.3,0.1-0.5,0.2
		c-0.2,0.1-0.4,0.1-0.6,0.1c-0.7,0-1.3-0.2-1.7-0.7c-0.4-0.5-0.6-1.1-0.6-1.8v-3.4h1.2v3.4c0,0.4,0.1,0.8,0.4,1
		c0.3,0.3,0.6,0.4,1,0.4c0.5,0,0.8-0.1,1.1-0.4s0.4-0.7,0.4-1.2v-3.1h1.2v5.8h-1.2V463.7z"/>
	<path d="M459.1,459.5c-0.5,0-0.8,0.1-1.1,0.4c-0.3,0.3-0.4,0.7-0.4,1.2v3.1h-1.2v-5.8h1.2v0.6l0.1-0.1c0,0,0.1-0.1,0.2-0.2
		c0.1-0.1,0.2-0.2,0.4-0.2c0.1-0.1,0.3-0.1,0.5-0.2c0.2-0.1,0.4-0.1,0.6-0.1h0.3v1.1C459.5,459.5,459.3,459.5,459.1,459.5z"/>
	<path d="M461.4,461.8c0.1,0.4,0.3,0.8,0.6,1.1s0.7,0.4,1.2,0.4c0.3,0,0.7-0.1,0.9-0.2c0.3-0.2,0.5-0.3,0.6-0.4l0.2-0.2l0.8,0.8
		c0,0-0.1,0.1-0.1,0.1c0,0.1-0.2,0.2-0.3,0.3c-0.2,0.1-0.3,0.3-0.5,0.4c-0.2,0.1-0.4,0.2-0.7,0.3s-0.6,0.1-0.9,0.1
		c-0.8,0-1.5-0.3-2.1-0.9c-0.6-0.6-0.9-1.3-0.9-2.2c0-0.8,0.3-1.5,0.9-2.1c0.6-0.6,1.3-0.9,2.1-0.9s1.5,0.3,2,0.8
		c0.5,0.5,0.8,1.2,0.8,2l-0.1,0.6H461.4z M462.1,459.8c-0.3,0.3-0.5,0.6-0.6,1h3.3c-0.1-0.4-0.3-0.7-0.5-1c-0.3-0.3-0.7-0.4-1.1-0.4
		C462.7,459.4,462.4,459.6,462.1,459.8z"/>
</g>
<g>
	<rect x="432.2" y="474.7" class="st2" width="36.2" height="46.4"/>
	<g>
		<rect x="427.1" y="472.1" class="st2" width="46.4" height="12.1"/>
		<circle class="st3" cx="435" cy="478.1" r="2.9"/>
		<circle class="st3" cx="441.6" cy="478.1" r="0.7"/>
	</g>
	<g>
		<g>
			<rect x="427.1" y="486.6" class="st2" width="46.4" height="12.1"/>
			<circle class="st3" cx="435" cy="492.7" r="2.9"/>
			<circle class="st3" cx="441.6" cy="492.7" r="0.7"/>
		</g>
		<g>
			<line class="st4" x1="463.3" y1="491.3" x2="470.3" y2="491.3"/>
			<line class="st4" x1="463.3" y1="494" x2="470.3" y2="494"/>
		</g>
	</g>
	<g>
		<g>
			<rect x="427.1" y="501.2" class="st2" width="46.4" height="12.1"/>
			<circle class="st3" cx="435" cy="507.3" r="2.9"/>
			<circle class="st3" cx="441.6" cy="507.3" r="0.7"/>
		</g>
		<g>
			<line class="st4" x1="463.3" y1="505.9" x2="470.3" y2="505.9"/>
			<line class="st4" x1="463.3" y1="508.6" x2="470.3" y2="508.6"/>
		</g>
	</g>
	<g>
		<g>
			<rect x="427.1" y="515.8" class="st2" width="46.4" height="12.1"/>
			<circle class="st3" cx="435" cy="521.8" r="2.9"/>
			<circle class="st3" cx="441.6" cy="521.8" r="0.7"/>
		</g>
		<g>
			<line class="st4" x1="463.3" y1="520.5" x2="470.3" y2="520.5"/>
			<line class="st4" x1="463.3" y1="523.2" x2="470.3" y2="523.2"/>
		</g>
	</g>
</g>
<g class="st5">
	<path d="M499.8,455.9c0.8,0,1.5,0.3,2,0.8c0.5,0.5,0.8,1.2,0.8,1.9s-0.3,1.4-0.8,1.9c-0.5,0.5-1.2,0.8-2,0.8h-2v3h-1.3v-8.4H499.8z
		 M497.8,457.1v3h2c0.4,0,0.8-0.1,1.1-0.4c0.3-0.3,0.4-0.6,0.4-1.1s-0.1-0.8-0.4-1.1s-0.6-0.4-1.1-0.4H497.8z"/>
	<path d="M506.9,459.5c-0.5,0-0.8,0.1-1.1,0.4c-0.3,0.3-0.4,0.7-0.4,1.2v3.1h-1.2v-5.8h1.2v0.6l0.1-0.1c0,0,0.1-0.1,0.2-0.2
		c0.1-0.1,0.2-0.2,0.4-0.2c0.1-0.1,0.3-0.1,0.5-0.2c0.2-0.1,0.4-0.1,0.6-0.1h0.3v1.1C507.3,459.5,507.1,459.5,506.9,459.5z"/>
	<path d="M509.6,457.2c-0.1,0.1-0.3,0.2-0.5,0.2c-0.2,0-0.4-0.1-0.5-0.2c-0.1-0.1-0.2-0.3-0.2-0.5c0-0.2,0.1-0.4,0.2-0.5
		c0.1-0.1,0.3-0.2,0.5-0.2c0.2,0,0.4,0.1,0.5,0.2c0.1,0.1,0.2,0.3,0.2,0.5C509.8,456.9,509.7,457.1,509.6,457.2z M509.6,464.3h-1.2
		v-5.8h1.2V464.3z"/>
	<path d="M513,464.3l-2.3-5.8h1.3l1.7,4.2l1.7-4.2h1.3l-2.4,5.8H513z"/>
	<path d="M521,464.3v-0.6c0,0,0,0-0.1,0.1s-0.1,0.1-0.2,0.2s-0.2,0.2-0.4,0.2c-0.1,0.1-0.3,0.1-0.5,0.2c-0.2,0.1-0.4,0.1-0.6,0.1
		c-0.6,0-1.1-0.2-1.5-0.5s-0.6-0.7-0.6-1.2c0-0.5,0.1-0.9,0.4-1.2s0.7-0.5,1.2-0.6l2.1-0.4c0-0.3-0.1-0.6-0.3-0.8s-0.5-0.3-0.9-0.3
		c-0.3,0-0.6,0.1-0.8,0.2c-0.2,0.1-0.4,0.3-0.5,0.4l-0.2,0.2l-0.8-0.8c0,0,0.1-0.1,0.1-0.1s0.1-0.1,0.3-0.3c0.1-0.1,0.3-0.2,0.5-0.3
		c0.2-0.1,0.4-0.2,0.6-0.3c0.3-0.1,0.5-0.1,0.8-0.1c0.7,0,1.3,0.2,1.7,0.6c0.5,0.4,0.7,0.9,0.7,1.5v3.7H521z M520.5,462.9
		c0.3-0.3,0.4-0.7,0.4-1.2v-0.1l-1.9,0.3c-0.2,0-0.4,0.1-0.5,0.3c-0.1,0.1-0.2,0.3-0.2,0.5c0,0.2,0.1,0.4,0.3,0.5
		c0.2,0.1,0.4,0.2,0.7,0.2C519.9,463.3,520.3,463.2,520.5,462.9z"/>
	<path d="M524.6,456.6h1.1v1.9h1.2v1.1h-1.2v3c0,0.2,0.1,0.4,0.2,0.5c0.1,0.1,0.3,0.2,0.5,0.2c0.1,0,0.2,0,0.3,0
		c0.1,0,0.2,0,0.2-0.1l0.1,0v1.1c-0.2,0.1-0.5,0.1-0.8,0.1c-1.1,0-1.7-0.6-1.7-1.8v-3h-1.1v-1.1h0.6c0.4,0,0.6-0.2,0.6-0.7V456.6z"
		/>
	<path d="M528.8,461.8c0.1,0.4,0.3,0.8,0.6,1.1s0.7,0.4,1.2,0.4c0.3,0,0.7-0.1,0.9-0.2c0.3-0.2,0.5-0.3,0.6-0.4l0.2-0.2l0.8,0.8
		c0,0-0.1,0.1-0.1,0.1c0,0.1-0.2,0.2-0.3,0.3c-0.2,0.1-0.3,0.3-0.5,0.4c-0.2,0.1-0.4,0.2-0.7,0.3s-0.6,0.1-0.9,0.1
		c-0.8,0-1.5-0.3-2.1-0.9c-0.6-0.6-0.9-1.3-0.9-2.2c0-0.8,0.3-1.5,0.9-2.1c0.6-0.6,1.3-0.9,2.1-0.9s1.5,0.3,2,0.8
		c0.5,0.5,0.8,1.2,0.8,2l-0.1,0.6H528.8z M529.4,459.8c-0.3,0.3-0.5,0.6-0.6,1h3.3c-0.1-0.4-0.3-0.7-0.5-1c-0.3-0.3-0.7-0.4-1.1-0.4
		C530.1,459.4,529.7,459.6,529.4,459.8z"/>
</g>
<g>
	<rect x="496.5" y="474.7" class="st2" width="36.2" height="46.4"/>
	<g>
		<rect x="491.4" y="472.1" class="st2" width="46.4" height="12.1"/>
		<circle class="st3" cx="499.3" cy="478.1" r="2.9"/>
		<circle class="st3" cx="505.9" cy="478.1" r="0.7"/>
	</g>
	<g>
		<g>
			<rect x="491.4" y="486.6" class="st2" width="46.4" height="12.1"/>
			<circle class="st3" cx="499.3" cy="492.7" r="2.9"/>
			<circle class="st3" cx="505.9" cy="492.7" r="0.7"/>
		</g>
		<g>
			<line class="st4" x1="527.7" y1="491.3" x2="534.6" y2="491.3"/>
			<line class="st4" x1="527.7" y1="494" x2="534.6" y2="494"/>
		</g>
	</g>
	<g>
		<g>
			<rect x="491.4" y="501.2" class="st2" width="46.4" height="12.1"/>
			<circle class="st3" cx="499.3" cy="507.3" r="2.9"/>
			<circle class="st3" cx="505.9" cy="507.3" r="0.7"/>
		</g>
		<g>
			<line class="st4" x1="527.7" y1="505.9" x2="534.6" y2="505.9"/>
			<line class="st4" x1="527.7" y1="508.6" x2="534.6" y2="508.6"/>
		</g>
	</g>
	<g>
		<g>
			<rect x="491.4" y="515.8" class="st2" width="46.4" height="12.1"/>
			<circle class="st3" cx="499.3" cy="521.8" r="2.9"/>
			<circle class="st3" cx="505.9" cy="521.8" r="0.7"/>
		</g>
		<g>
			<line class="st4" x1="527.7" y1="520.5" x2="534.6" y2="520.5"/>
			<line class="st4" x1="527.7" y1="523.2" x2="534.6" y2="523.2"/>
		</g>
	</g>
</g>
<g>
	<path class="st19" d="M785.6,550.3H43.4c-5.5,0-10-4.5-10-10V214.1c0-5.5,4.5-10,10-10h742.3c5.5,0,10,4.5,10,10v326.2
		C795.6,545.8,791.1,550.3,785.6,550.3z"/>
</g>
<g>
	<g>
		<circle class="st8" cx="130.5" cy="321.1" r="51.6"/>
		<circle class="st7" cx="130.5" cy="321.1" r="59.1"/>
	</g>
	<g id="AXELiG.tif_2_">
		<g>
			<g>
				<path class="st20" d="M146.6,314.8c-0.9,0-1.8,0-2.8,0c0-1.7,0-3.4,0-5.1c-0.3,0-0.5,0-0.7,0c-2.7,0-5.4,0-8.1,0
					c-1.3,0-1.8-0.6-1.8-1.8c0-3,0-6.1,0-9.1c0-0.5-0.2-0.7-0.7-0.7c-6.3,0-12.7,0-19,0c-1.4,0-1.9,0.4-1.9,1.9c0,13.5,0,27,0,40.5
					c0,0.3,0,0.7,0,1c0,0.8,0.5,1.3,1.3,1.4c0.3,0,0.6,0,1,0c5.8,0,11.6,0,17.4,0c0.4,0,0.7,0.1,1,0.4c0.8,0.8,1.6,1.5,2.4,2.3
					c-0.2,0-0.4,0-0.6,0c-7,0-13.9,0-20.9,0c-2.7,0-4.4-1.8-4.4-4.5c0-13.8,0-27.7,0-41.5c0-2.5,1.8-4.3,4.3-4.3c7,0,13.9,0,20.9,0
					c1.4,0,2.6,0.5,3.5,1.5c2.6,2.9,5.3,5.8,7.9,8.6c0.7,0.8,1.1,1.8,1.1,2.8c0,2.1,0,4.2,0,6.3
					C146.7,314.6,146.6,314.7,146.6,314.8z M136.5,299.6c0,0.2-0.1,0.3-0.1,0.3c0,2,0,4.1,0,6.1c0,0.4,0.2,0.5,0.5,0.5
					c1.8,0,3.6,0,5.4,0c0.1,0,0.2,0,0.4-0.1C140.6,304.1,138.6,301.9,136.5,299.6z"/>
				<path class="st21" d="M145.1,317.9c7.6,0,13.8,6.2,13.8,13.8c0,7.6-6.2,13.8-13.8,13.8s-13.9-6.2-13.9-13.8
					C131.3,324.1,137.4,317.9,145.1,317.9z M134.4,331.7c0.1,6.1,4.8,10.7,10.9,10.6c5.8-0.1,10.5-4.9,10.4-10.8S150.8,321,145,321
					C139.1,321.2,134.3,326,134.4,331.7z"/>
				<path class="st20" d="M134.5,318c-0.7,0.8-1.4,1.7-2.1,2.5c-0.1,0.1-0.4,0.2-0.6,0.2c-4.5,0-8.9,0-13.4,0c-0.9,0-1.4-0.4-1.5-1
					c-0.2-0.9,0.4-1.6,1.4-1.6c2.5,0,5,0,7.6,0c2.9,0,5.7,0,8.6,0c0.1,0,0.3,0,0.4,0C134.6,318.1,134.6,318.1,134.5,318z"/>
				<path class="st20" d="M123,313.2c-1.6,0-3.2,0-4.9,0c-0.9,0-1.4-0.5-1.4-1.3s0.6-1.3,1.4-1.3c3.3,0,6.5,0,9.8,0
					c0.9,0,1.5,0.5,1.5,1.3s-0.5,1.3-1.5,1.3C126.2,313.2,124.6,313.2,123,313.2z"/>
				<path class="st20" d="M129.1,325.7c-0.3,0.9-0.5,1.7-0.8,2.6c-1.9,0-3.7,0-5.5,0c-1.5,0-3,0-4.5,0c-0.8,0-1.4-0.5-1.4-1.3
					s0.5-1.4,1.4-1.4c3.6,0,7.1,0,10.7,0C128.9,325.7,129,325.7,129.1,325.7z"/>
				<path class="st20" d="M128.1,333.3c0.1,0.8,0.2,1.6,0.4,2.5c-0.1,0-0.2,0-0.3,0c-3.4,0-6.7,0-10.1,0c-0.6,0-1-0.3-1.2-0.8
					s-0.1-1.1,0.4-1.4c0.2-0.2,0.5-0.3,0.8-0.3C121.4,333.3,124.7,333.3,128.1,333.3C128,333.3,128,333.3,128.1,333.3z"/>
				<path class="st22" d="M136.5,299.6c2.1,2.3,4.1,4.5,6.2,6.8c-0.2,0-0.3,0.1-0.4,0.1c-1.8,0-3.6,0-5.4,0c-0.3,0-0.5-0.1-0.5-0.5
					c0-2,0-4.1,0-6.1C136.4,299.9,136.4,299.8,136.5,299.6z"/>
				<path class="st23" d="M134.4,331.7c-0.1-5.7,4.7-10.6,10.5-10.6c5.9-0.1,10.7,4.6,10.7,10.5c0.1,5.9-4.6,10.7-10.4,10.8
					C139.3,342.4,134.5,337.8,134.4,331.7z M143.7,333.2c0,1.4,0,2.6,0,3.9c0,0.9,0.6,1.5,1.4,1.5s1.3-0.6,1.3-1.5c0-1,0-2.1,0-3.1
					c0-0.3,0-0.5,0-0.8c1,0,1.9,0,2.8,0c0.6,0,0.7-0.2,0.4-0.7c-1.4-2.4-2.8-4.8-4.2-7.3c-0.3-0.5-0.5-0.5-0.8,0
					c-1.4,2.4-2.8,4.8-4.2,7.2c-0.3,0.6-0.2,0.8,0.4,0.8C141.8,333.2,142.7,333.2,143.7,333.2z"/>
				<path class="st24" d="M143.7,333.2c-1,0-1.9,0-2.8,0c-0.7,0-0.8-0.2-0.4-0.8c1.4-2.4,2.8-4.8,4.2-7.2c0.3-0.5,0.5-0.5,0.8,0
					c1.4,2.4,2.8,4.8,4.2,7.3c0.3,0.5,0.2,0.7-0.4,0.7c-0.9,0-1.8,0-2.8,0c0,0.3,0,0.6,0,0.8c0,1,0,2.1,0,3.1c0,0.9-0.6,1.5-1.3,1.5
					c-0.8,0-1.4-0.6-1.4-1.5C143.7,335.9,143.7,334.6,143.7,333.2z"/>
			</g>
		</g>
	</g>
</g>
<g>
	<g>
		
			<ellipse transform="matrix(0.3162 -0.9487 0.9487 0.3162 76.1611 747.9407)" class="st8" cx="556.9" cy="321.1" rx="51.6" ry="51.6"/>
		
			<ellipse transform="matrix(0.7071 -0.7071 0.7071 0.7071 -63.9581 487.8474)" class="st7" cx="556.9" cy="321.1" rx="59.1" ry="59.1"/>
	</g>
	<g>
		<g>
			<g>
				<path class="st25" d="M556.9,304.4c-9,0-16.3,7.3-16.3,16.3s7.3,16.3,16.3,16.3s16.3-7.3,16.3-16.3S565.9,304.4,556.9,304.4z
					 M551.6,307.6c-1,1.3-1.7,2.9-2.2,4.5c-0.9-0.3-1.8-0.7-2.6-1.2C548.2,309.4,549.8,308.3,551.6,307.6z M545.4,312.5
					c1,0.6,2.2,1.2,3.4,1.6c-0.4,1.7-0.7,3.6-0.7,5.5h-5.3C543,317,544,314.5,545.4,312.5z M545.4,328.9c-1.5-2-2.4-4.5-2.6-7.1h5.3
					c0.1,1.9,0.3,3.8,0.7,5.5C547.6,327.7,546.5,328.2,545.4,328.9z M546.8,330.5c0.8-0.5,1.7-0.9,2.6-1.2c0.5,1.6,1.2,3.1,2.2,4.5
					C549.8,333,548.2,331.9,546.8,330.5z M555.9,334.6c-2.2-0.8-3.7-3.7-4.4-5.9c1.4-0.3,2.9-0.5,4.4-0.6V334.6z M555.9,326
					c-1.7,0.1-3.4,0.3-5,0.7c-0.4-1.5-0.6-3.2-0.6-4.9h5.6V326L555.9,326z M555.9,319.6h-5.6c0.1-1.7,0.3-3.4,0.6-4.9
					c1.6,0.4,3.3,0.6,5,0.7V319.6z M555.9,313.2c-1.5-0.1-3-0.3-4.4-0.6c0.8-2.2,2.2-5.1,4.4-5.9V313.2z M568.4,312.5
					c1.5,2,2.4,4.5,2.6,7.1h-5.3c-0.1-1.9-0.3-3.8-0.7-5.5C566.3,313.6,567.4,313.1,568.4,312.5z M567.1,310.8
					c-0.8,0.5-1.7,0.9-2.6,1.2c-0.5-1.6-1.2-3.1-2.2-4.5C564.1,308.3,565.7,309.4,567.1,310.8z M558,306.7c2.2,0.8,3.7,3.7,4.4,5.9
					c-1.4,0.3-2.9,0.5-4.4,0.6V306.7L558,306.7z M558,315.4c1.7-0.1,3.4-0.3,5-0.7c0.4,1.5,0.6,3.2,0.6,4.9H558V315.4z M558,321.7
					h5.6c-0.1,1.7-0.3,3.4-0.6,4.9c-1.6-0.4-3.3-0.6-5-0.7V321.7z M558,334.6v-6.5c1.5,0.1,3,0.3,4.4,0.6
					C561.7,330.9,560.2,333.8,558,334.6z M562.2,333.8c1-1.3,1.7-2.9,2.2-4.5c0.9,0.3,1.8,0.7,2.6,1.2
					C565.7,331.9,564.1,333,562.2,333.8z M568.4,328.9c-1-0.6-2.2-1.2-3.4-1.6c0.4-1.7,0.7-3.6,0.7-5.5h5.3
					C570.8,324.4,569.9,326.8,568.4,328.9z"/>
			</g>
		</g>
		<g>
			<g>
				<path class="st26" d="M556.9,301.6c0.6,0,1-0.5,1-1V294l2.3,2.3c0.2,0.2,0.5,0.3,0.7,0.3s0.5-0.1,0.7-0.3c0.4-0.4,0.4-1.1,0-1.5
					l-4.1-4.1c-0.4-0.4-1.1-0.4-1.5,0l-4.1,4.1c-0.4,0.4-0.4,1.1,0,1.5s1.1,0.4,1.5,0l2.3-2.3v6.5
					C555.9,301.1,556.4,301.6,556.9,301.6z"/>
				<path class="st26" d="M556.9,340.6c-0.6,0-1,0.5-1,1v6.5l-2.3-2.3c-0.4-0.4-1.1-0.4-1.5,0s-0.4,1.1,0,1.5l4.1,4.1
					c0.2,0.2,0.5,0.3,0.7,0.3s0.5-0.1,0.7-0.3l4.1-4.1c0.4-0.4,0.4-1.1,0-1.5s-1.1-0.4-1.5,0l-2.3,2.3v-6.5
					C558,341.1,557.5,340.6,556.9,340.6z"/>
				<path class="st26" d="M537.4,321.1c0-0.6-0.5-1-1-1h-6.5l2.3-2.3c0.4-0.4,0.4-1.1,0-1.5s-1.1-0.4-1.5,0l-4.1,4.1
					c-0.4,0.4-0.4,1.1,0,1.5l4.1,4.1c0.2,0.2,1.3,0.3,1.6,0.3s-0.3-0.1-0.1-0.3c0.4-0.4,0.4-1.1,0-1.5l-2.3-2.3h6.5
					C537,322.1,537.4,321.7,537.4,321.1z"/>
				<path class="st26" d="M583.2,316.3c-0.4-0.4-1.1-0.4-1.5,0s-0.4,1.1,0,1.5l2.3,2.3h-6.5c-0.6,0-1,0.5-1,1s0.5,1,1,1h6.5
					l-2.3,2.3c-0.4,0.4-0.4,1.1,0,1.5c0.2,0.2,0.5,0.3,0.7,0.3s0.5-0.1,0.7-0.3l4.1-4.1c0.4-0.4,0.4-1.1,0-1.5L583.2,316.3z"/>
				<path class="st26" d="M535.1,300.3v5.8c0,0.6,0.5,1,1,1c0.6,0,1-0.5,1-1v-3.3l4.6,4.6c0.2,0.2,0.5,0.3,0.7,0.3s0.5-0.1,0.7-0.3
					c0.4-0.4,0.4-1.1,0-1.5l-4.6-4.6h3.3c0.6,0,1-0.5,1-1s-0.5-1-1-1h-5.7C535.6,299.2,535.1,299.7,535.1,300.3z"/>
				<path class="st26" d="M570.9,341.9c0,0.6,0.5,1,1,1h5.8c0.6,0,1-0.5,1-1v-5.8c0-0.6-0.5-1-1-1c-0.6,0-1,0.5-1,1v3.3l-4.6-4.6
					c-0.4-0.4-1.1-0.4-1.5,0s-0.4,1.1,0,1.5l4.6,4.6h-3.3C571.4,340.9,570.9,341.3,570.9,341.9z"/>
				<path class="st26" d="M543.3,334.8c-0.4-0.4-1.1-0.4-1.5,0l-4.6,4.6v-3.3c0-0.6-0.5-1-1-1c-0.6,0-1,0.5-1,1v5.8c0,0.6,0.5,1,1,1
					h5.8c0.6,0,1-0.5,1-1s-0.5-1-1-1h-3.3l4.6-4.6C543.7,335.8,543.7,335.2,543.3,334.8z"/>
				<path class="st26" d="M577.7,307.1c0.6,0,1-0.5,1-1v-5.8c0-0.6-0.5-1-1-1h-5.8c-0.6,0-1,0.5-1,1s0.5,1,1,1h3.3l-4.6,4.6
					c-0.4,0.4-0.4,1.1,0,1.5c0.2,0.2,0.5,0.3,0.7,0.3s0.5-0.1,0.7-0.3l4.6-4.6v3.3C576.7,306.6,577.2,307.1,577.7,307.1z"/>
			</g>
		</g>
	</g>
</g>
<g>
	<g>
		<circle class="st8" cx="697.5" cy="321.1" r="51.6"/>
		<circle class="st7" cx="697.5" cy="321.1" r="59.1"/>
	</g>
	<g>
		<g id="_x39_NIxEo.tif_2_">
			<g>
				<g>
					<path class="st24" d="M703.4,337.8c3.4-4.5,2.3-10.3-1.4-13.4c-3.8-3.1-9.4-3-12.9,0.4c-3.6,3.5-4.1,9-1.1,13
						c3,3.9,8.9,5.3,13.8,1.7c0.2,0.2,0.4,0.5,0.6,0.7c1.9,1.9,3.8,3.8,5.8,5.8c0.6,0.6,1.3,0.6,1.9,0.1c0.5-0.5,0.4-1.2-0.1-1.8
						c-0.8-0.8-1.6-1.6-2.5-2.5C706.1,340.4,704.8,339.1,703.4,337.8z"/>
					<path d="M729.8,322.1c-0.2,0.9-0.3,1.7-0.6,2.6c-1.6,5.5-6.7,9.5-12.5,9.6c-2.5,0-5,0-7.5,0c-0.8,0-1.4-0.5-1.4-1.2
						s0.5-1.2,1.4-1.2c2.3,0,4.6,0,6.9,0c5.4,0,9.7-3.5,10.9-8.6c1.4-6.1-2.9-12.3-9-13.1c-0.5-0.1-1-0.1-1.5-0.1
						c-1-0.1-1.4-0.5-1.6-1.4c-1.1-6.7-6.8-12.2-13.6-13c-8.3-1-15.7,4.3-17.5,12.5c-0.3,1.6-0.4,3.2-0.2,4.9c0,0.4,0.1,0.8,0,1.2
						c-0.2,0.6-0.6,0.8-1.2,0.8c-4.6,0-8.2,3.3-8.6,8c-0.4,4.2,2.8,8.1,7.1,8.9c0.4,0.1,0.9,0.1,1.3,0.1c0.8,0,1.3,0.5,1.3,1.2
						s-0.6,1.2-1.4,1.2c-4.8,0-9.2-3.5-10.4-8.2c-1.6-6.4,2.6-12.7,9.1-13.6c0.1,0,0.2,0,0.3-0.1c-0.2-5.5,1.5-10.2,5.3-14.1
						c2.8-2.9,6.3-4.6,10.3-5.2c2.3-0.4,4.6-0.2,6.9,0.3c2.3,0.5,4.3,1.5,6.2,2.8s3.5,3,4.8,5c1.3,1.9,2.1,4.1,2.6,6.3
						c2.4,0.2,4.6,0.9,6.6,2.3c3.3,2.3,5.3,5.4,5.9,9.5c0,0.1,0.1,0.3,0.1,0.4C729.8,320.5,729.8,321.3,729.8,322.1z"/>
					<path d="M703.4,337.8c1.3,1.3,2.7,2.6,4,4c0.8,0.8,1.6,1.6,2.5,2.5c0.6,0.6,0.6,1.3,0.1,1.8s-1.2,0.5-1.9-0.1
						c-1.9-1.9-3.8-3.8-5.8-5.8c-0.2-0.2-0.4-0.5-0.6-0.7c-4.8,3.6-10.8,2.2-13.8-1.7c-3-4-2.6-9.5,1.1-13c3.5-3.4,9.1-3.5,12.9-0.4
						C705.8,327.5,706.8,333.3,703.4,337.8z M695.8,324.5c-4,0-7.3,3.2-7.3,7.3c0,4,3.3,7.3,7.3,7.3s7.3-3.2,7.3-7.3
						C703,327.8,699.8,324.6,695.8,324.5z"/>
					<path class="st9" d="M695.8,324.5c4,0,7.3,3.3,7.3,7.3c0,4.1-3.3,7.3-7.3,7.3s-7.3-3.3-7.3-7.3S691.8,324.5,695.8,324.5z"/>
				</g>
			</g>
		</g>
	</g>
	<text transform="matrix(1 0 0 1 688.4856 316.4039)" class="st27 st28">JSON</text>
</g>
<g>
	<g>
		<g id="hI0AoV.tif_2_">
			<g>
				<g>
					<path class="st29" d="M64.9,506.2c1.5,5.5,2.8,11,3.1,16.8c1.2,18.4-5.4,33-20.9,43.3c-3.5,2.3-7.3,4.2-11.3,5.5
						c-5.9-1.6-11-4.6-15.8-8.4C7.1,553,2.2,539.3,3.3,523.1c0.4-5.6,1.5-11,3.1-16.3c0.3-0.9,0.7-1.3,1.7-1.5
						c2.6-0.4,4.2-2.4,5.5-4.4c0.7-1,1.4-1.3,2.5-1.3c13.1,0,26.3,0,39.4,0c1,0,1.6,0.2,2.2,1.1c1.6,2.3,3.3,4.5,6.4,4.7
						C64.6,505.4,64.6,505.9,64.9,506.2z M35.8,503.2c-5.9,0-11.8,0-17.7,0c-0.9,0-1.5,0.2-2,0.9c-1,1.3-2.1,2.7-3.6,3.3
						c-2.4,0.8-3,2.7-3.4,4.8c-0.1,0.5-0.2,1-0.3,1.5c-1.6,7.3-2.2,14.6-0.9,22c2.5,13.8,10.3,23.7,22.7,30c5.8,3,4.2,3,10,0.1
						c11.3-5.6,19-14.4,22.2-26.7c2.6-10,1.4-20-1.2-29.8c-0.2-0.6-0.5-0.8-1-1c-2.1-0.8-3.8-2.3-5.2-4.1c-0.6-0.7-1.2-1-2.1-1
						C47.4,503.2,41.6,503.2,35.8,503.2z"/>
					<path class="st30" d="M35.8,503.2c5.8,0,11.6,0,17.4,0c0.9,0,1.5,0.3,2.1,1c1.4,1.8,3,3.3,5.2,4.1c0.5,0.2,0.8,0.4,1,1
						c2.7,9.9,3.8,19.8,1.2,29.8c-3.2,12.3-10.9,21.1-22.2,26.7c-5.7,2.9-4.1,2.9-10-0.1c-12.4-6.3-20.2-16.2-22.7-30
						c-1.3-7.4-0.7-14.7,0.9-22c0.1-0.5,0.2-1,0.3-1.5c0.4-2.1,1-4,3.4-4.8c1.5-0.5,2.6-2,3.6-3.3c0.5-0.7,1.1-0.9,2-0.9
						C24,503.2,29.9,503.2,35.8,503.2z M35.7,505.4c-5.1,0-10.2,0-15.3,0c-1.2,0-2,0.3-2.7,1.3c-1,1.4-2.2,2.8-3.9,3.3
						c-1.1,0.3-1.5,0.9-1.8,1.9c-2.1,7.8-3.1,15.8-1.6,23.8c2.7,14.1,11.2,23.2,24.1,28.7c0.8,0.3,1.5,0.3,2.3,0
						c3.7-1.4,7.1-3.4,10.3-5.9c7.5-5.9,12.2-13.5,13.9-23c1.4-8.2,0.3-16.2-1.8-24.1c-0.2-0.6-0.4-1-1-1.2c-2-0.6-3.5-1.9-4.6-3.6
						c-0.7-1-1.5-1.3-2.6-1.2C45.9,505.4,40.8,505.4,35.7,505.4z"/>
					<path class="st31" d="M35.7,505.4c5.1,0,10.2,0,15.3,0c1.1,0,1.9,0.3,2.6,1.2c1.1,1.7,2.6,3,4.6,3.6c0.6,0.2,0.8,0.6,1,1.2
						c2.1,7.9,3.2,15.9,1.8,24.1c-1.7,9.4-6.3,17.1-13.9,23c-3.1,2.5-6.6,4.4-10.3,5.9c-0.8,0.3-1.5,0.4-2.3,0
						c-13-5.4-21.5-14.6-24.1-28.7c-1.5-8.1-0.5-16,1.6-23.8c0.3-1,0.7-1.5,1.8-1.9c1.7-0.5,2.9-1.8,3.9-3.3c0.7-1,1.5-1.3,2.7-1.3
						C25.5,505.4,30.6,505.4,35.7,505.4z"/>
				</g>
			</g>
		</g>
		<g>
			<path class="st32" d="M47.6,543.5c0,0.7-0.6,1.3-1.3,1.3H25c-0.7,0-1.3-0.6-1.3-1.3v-17.9c0-0.7,0.6-1.3,1.3-1.3h21.3
				c0.7,0,1.3,0.6,1.3,1.3V543.5z"/>
			<path class="st33" d="M47.6,543.5c0,0.7-0.6,1.3-1.3,1.3H25c-0.7,0-1.3-0.6-1.3-1.3v-17.9c0-0.7,0.6-1.3,1.3-1.3h21.3
				c0.7,0,1.3,0.6,1.3,1.3V543.5z"/>
			<path class="st29" d="M47.6,542.2c0,0.7-0.6,1.3-1.3,1.3H25c-0.7,0-1.3-0.6-1.3-1.3v-14c0-0.7,0.6-1.3,1.3-1.3h21.3
				c0.7,0,1.3,0.6,1.3,1.3V542.2z"/>
			<path class="st30" d="M37.2,535.4c0-0.9-0.7-1.6-1.6-1.6c-0.9,0-1.6,0.7-1.6,1.6c0,0.6,0.4,1.2,0.9,1.4v2.5
				c0,0.2,0.1,0.3,0.3,0.3H36c0.2,0,0.3-0.1,0.3-0.3v-2.5C36.9,536.6,37.2,536.1,37.2,535.4z"/>
			<path class="st33" d="M47.6,527.5c0,0.7-0.6,1.3-1.3,1.3H25c-0.7,0-1.3-0.6-1.3-1.3v-1.9c0-0.7,0.6-1.3,1.3-1.3h21.3
				c0.7,0,1.3,0.6,1.3,1.3V527.5z"/>
			<path class="st34" d="M44.3,521.6v4.3c0,0.4-0.6,0.7-1.4,0.7v-4.7c0-4-3.2-7.2-7.2-7.2s-7.2,3.2-7.2,7.2v4.7
				c-0.8,0-1.4-0.3-1.4-0.7v-4.3c0-4.7,3.8-8.6,8.6-8.6S44.3,516.9,44.3,521.6z"/>
			<path class="st29" d="M42.9,521.8v4.7c-0.8,0-1.4-0.3-1.4-0.7v-4.3c0-3.2-2.6-5.8-5.8-5.8s-5.8,2.6-5.8,5.8v4.3
				c0,0.4-0.6,0.7-1.4,0.7v-4.7c0-4,3.2-7.2,7.2-7.2S42.9,517.9,42.9,521.8z"/>
		</g>
	</g>
	<rect x="25.9" y="484.3" class="st24" width="16.5" height="10.7"/>
	<g class="st5">
		<path d="M25.9,484.7v1.2h-4.6v2.3h3.6v1.2h-3.6v3.7H20v-8.4H25.9z"/>
		<path d="M27.4,490.7c0.1,0.4,0.3,0.8,0.6,1.1s0.7,0.4,1.2,0.4c0.3,0,0.7-0.1,0.9-0.2c0.3-0.2,0.5-0.3,0.6-0.4l0.2-0.2l0.8,0.8
			c0,0-0.1,0.1-0.1,0.1c0,0.1-0.2,0.2-0.3,0.3c-0.2,0.1-0.3,0.3-0.5,0.4s-0.4,0.2-0.7,0.3s-0.6,0.1-0.9,0.1c-0.8,0-1.5-0.3-2.1-0.9
			c-0.6-0.6-0.9-1.3-0.9-2.2c0-0.8,0.3-1.5,0.9-2.1c0.6-0.6,1.3-0.9,2.1-0.9s1.5,0.3,2,0.8c0.5,0.5,0.8,1.2,0.8,2l-0.1,0.6H27.4z
			 M28.1,488.6c-0.3,0.3-0.5,0.6-0.6,1h3.3c-0.1-0.4-0.3-0.7-0.5-1c-0.3-0.3-0.7-0.4-1.1-0.4C28.7,488.2,28.3,488.4,28.1,488.6z"/>
		<path d="M34.5,487.9L34.5,487.9c0.1-0.1,0.2-0.2,0.3-0.2c0.1-0.1,0.2-0.2,0.4-0.2s0.3-0.1,0.5-0.2c0.2-0.1,0.4-0.1,0.6-0.1
			c0.7,0,1.3,0.2,1.7,0.7s0.6,1.1,0.6,1.8v3.4h-1.2v-3.4c0-0.4-0.1-0.8-0.4-1c-0.3-0.3-0.6-0.4-1-0.4c-0.5,0-0.8,0.1-1.1,0.4
			c-0.3,0.3-0.4,0.7-0.4,1.2v3.1h-1.2v-5.8h1.2V487.9z"/>
		<path d="M40.8,488.1c0.6-0.6,1.3-0.9,2.1-0.9c0.5,0,0.9,0.1,1.3,0.3c0.4,0.2,0.7,0.4,0.8,0.6l0.3,0.3l-0.8,0.8
			c0-0.1-0.1-0.1-0.2-0.2c-0.1-0.1-0.3-0.2-0.5-0.4c-0.3-0.2-0.6-0.2-0.9-0.2c-0.5,0-0.9,0.2-1.3,0.6c-0.4,0.4-0.5,0.8-0.5,1.4
			c0,0.5,0.2,1,0.5,1.4c0.4,0.4,0.8,0.6,1.3,0.6c0.3,0,0.6-0.1,0.9-0.2c0.3-0.2,0.5-0.3,0.6-0.4l0.2-0.2l0.8,0.8
			c0,0-0.1,0.1-0.1,0.1c0,0.1-0.1,0.2-0.3,0.3c-0.2,0.1-0.3,0.3-0.5,0.4s-0.4,0.2-0.7,0.3c-0.3,0.1-0.6,0.1-0.8,0.1
			c-0.8,0-1.5-0.3-2.1-0.9s-0.9-1.3-0.9-2.1S40.2,488.7,40.8,488.1z"/>
		<path d="M47.4,490.7c0.1,0.4,0.3,0.8,0.6,1.1s0.7,0.4,1.2,0.4c0.3,0,0.7-0.1,0.9-0.2c0.3-0.2,0.5-0.3,0.6-0.4l0.2-0.2l0.8,0.8
			c0,0-0.1,0.1-0.1,0.1c0,0.1-0.2,0.2-0.3,0.3c-0.2,0.1-0.3,0.3-0.5,0.4s-0.4,0.2-0.7,0.3s-0.6,0.1-0.9,0.1c-0.8,0-1.5-0.3-2.1-0.9
			c-0.6-0.6-0.9-1.3-0.9-2.2c0-0.8,0.3-1.5,0.9-2.1c0.6-0.6,1.3-0.9,2.1-0.9s1.5,0.3,2,0.8c0.5,0.5,0.8,1.2,0.8,2l-0.1,0.6H47.4z
			 M48,488.6c-0.3,0.3-0.5,0.6-0.6,1h3.3c-0.1-0.4-0.3-0.7-0.5-1c-0.3-0.3-0.7-0.4-1.1-0.4C48.7,488.2,48.3,488.4,48,488.6z"/>
	</g>
</g>
<g id="Symbols_2_">
	<g id="footer_2_" transform="translate(-820.000000, -34.000000)">
		<g id="gen3_2_" transform="translate(820.000000, 34.000000)">
			<g id="Page-1_2_">
				<path id="Fill-1_2_" class="st35" d="M353.2,163.6c0-15.8,9.4-23.7,19.5-23.7c6.1,0,9.6,1.7,13.2,5.1l-3.5,3.6
					c-2.8-2.6-5.9-3.8-9.7-3.8c-6.7,0-13.2,4.7-13.2,18.8c0,13.4,4.2,18.9,12.3,18.9c3.2,0,6.2-0.7,8.8-2.2v-14h-9.1l-0.7-4.9h15.6
					v21.9c-4.2,2.3-8.6,4-15.2,4C360.3,187.3,353.2,179.5,353.2,163.6"/>
				<polygon id="Fill-3_2_" class="st35" points="395.4,168.6 407.5,168.6 407.5,171.9 395.4,171.9 395.4,183.3 410.2,183.3 
					410.2,186.6 391.3,186.6 391.3,154.4 409.8,154.4 409.3,157.8 395.4,157.8 				"/>
				<path id="Fill-5_2_" class="st35" d="M417.2,158.3c0.1,1.4,0.6,7.2,0.6,12.2v16.1H414v-32.2h5.6l11.7,28.4
					c0-1.3-0.6-6.5-0.6-12.3v-16.1h3.8v32.2h-5.8L417.2,158.3z"/>
				<g id="Group-9_2_" transform="translate(42.051282, 0.077156)">
					<g id="Clip-8_2_">
					</g>
					<path id="Fill-7_2_" class="st35" d="M415.1,164.7v-6.1c3,0,5.1-0.3,6.1-1c1.9-1.2,2.8-3.1,2.8-5.7c0-2-0.7-3.6-2-4.9
						c-1.3-1.3-3.1-1.9-5.2-1.9c-2,0-3.5,0.5-4.6,1.4c-1,1-1.8,2.6-2.3,4.9h-7.1c0.7-4.4,2.3-7.7,4.5-9.7c2.3-2.1,5.5-3.1,9.6-3.1
						c4.2,0,7.5,1.2,10.2,3.7c2.6,2.4,3.9,5.5,3.9,9.3c0,4.3-1.7,7.6-5.2,10c3.9,2.3,5.9,6,5.9,11.2c0,4.2-1.4,7.7-4.3,10.3
						c-2.9,2.7-6.5,4-11,4c-5.7,0-10-2.1-12.7-6.2c-1.1-1.7-1.9-4.2-2.2-7.2h6.9c0.4,2.3,1.3,4,2.7,5.2c1.4,1.2,3.3,1.8,5.6,1.8
						c2.3,0,4.2-0.8,5.7-2.3c1.5-1.6,2.3-3.5,2.3-5.9c0-3.2-1.1-5.4-3.4-6.8C420,165.1,417.9,164.7,415.1,164.7"/>
				</g>
				<g id="Group-12_2_" transform="translate(0.000000, 25.981917)">
					<g id="Clip-11_2_">
					</g>
				</g>
				<g id="Group-23_2_" transform="translate(25.128205, 25.981917)">
					<g id="Clip-22_2_">
					</g>
				</g>
			</g>
		</g>
	</g>
</g>
<g class="st5">
	<path class="st6" d="M3.2,582.4l-0.9,2.1H1.4l3.2-7.7h0.8l3.2,7.7H7.7l-0.9-2.1H3.2z M5,578l-1.5,3.6h3L5,578z"/>
	<path class="st6" d="M13.5,583.8C13.5,583.8,13.5,583.9,13.5,583.8c-0.1,0.1-0.2,0.2-0.3,0.3c-0.1,0.1-0.2,0.2-0.3,0.3
		s-0.3,0.1-0.5,0.2s-0.4,0.1-0.6,0.1c-0.6,0-1.1-0.2-1.5-0.6c-0.4-0.4-0.6-1-0.6-1.7v-3.1h0.8v3.1c0,0.5,0.1,0.8,0.4,1.1
		s0.6,0.5,1.1,0.5c0.4,0,0.8-0.2,1.1-0.5c0.3-0.3,0.5-0.8,0.5-1.3v-2.9h0.8v5.3h-0.8V583.8z"/>
	<path class="st6" d="M16.6,577.5h0.7v1.8h1.2v0.7h-1.2v3.1c0,0.6,0.2,0.8,0.7,0.8c0.1,0,0.2,0,0.4,0c0.1,0,0.2-0.1,0.3-0.1l0.1,0
		v0.7c-0.2,0.1-0.5,0.2-0.7,0.2c-0.5,0-0.8-0.1-1.1-0.4c-0.3-0.3-0.4-0.6-0.4-1.1v-3.1h-1v-0.7h0.6c0.3,0,0.4-0.2,0.4-0.5V577.5z"/>
	<path class="st6" d="M20.9,580C20.9,580,20.9,580,20.9,580c0.1-0.1,0.2-0.2,0.3-0.3c0.1-0.1,0.2-0.2,0.3-0.3s0.3-0.1,0.5-0.2
		s0.4-0.1,0.6-0.1c0.6,0,1.2,0.2,1.5,0.6c0.4,0.4,0.6,1,0.6,1.6v3.1H24v-3.1c0-0.5-0.1-0.8-0.4-1.1s-0.6-0.4-1-0.4
		c-0.5,0-0.9,0.2-1.2,0.5s-0.5,0.8-0.5,1.3v2.9h-0.8v-7.7h0.8V580z"/>
	<path class="st6" d="M33.1,576.8v7.7h-0.7l-4.7-6.2v6.2h-0.8v-7.7h0.7l4.7,6.2v-6.2H33.1z"/>
	<path class="st6" d="M35.3,586.8h-0.7l3.3-10.1h0.7L35.3,586.8z"/>
	<path class="st6" d="M41.1,582.4l-0.9,2.1h-0.9l3.2-7.7h0.8l3.2,7.7h-0.9l-0.9-2.1H41.1z M42.9,578l-1.5,3.6h3L42.9,578z"/>
	<path class="st6" d="M51.4,583.8C51.4,583.8,51.4,583.9,51.4,583.8c-0.1,0.1-0.2,0.2-0.3,0.3c-0.1,0.1-0.2,0.2-0.3,0.3
		s-0.3,0.1-0.5,0.2s-0.4,0.1-0.6,0.1c-0.6,0-1.1-0.2-1.5-0.6c-0.4-0.4-0.6-1-0.6-1.7v-3.1h0.8v3.1c0,0.5,0.1,0.8,0.4,1.1
		s0.6,0.5,1.1,0.5c0.4,0,0.8-0.2,1.1-0.5c0.3-0.3,0.5-0.8,0.5-1.3v-2.9h0.8v5.3h-0.8V583.8z"/>
	<path class="st6" d="M54.5,577.5h0.7v1.8h1.2v0.7h-1.2v3.1c0,0.6,0.2,0.8,0.7,0.8c0.1,0,0.2,0,0.4,0c0.1,0,0.2-0.1,0.3-0.1l0.1,0
		v0.7c-0.2,0.1-0.5,0.2-0.7,0.2c-0.5,0-0.8-0.1-1.1-0.4c-0.3-0.3-0.4-0.6-0.4-1.1v-3.1h-1v-0.7H54c0.3,0,0.4-0.2,0.4-0.5V577.5z"/>
	<path class="st6" d="M58.8,580C58.8,580,58.8,580,58.8,580c0.1-0.1,0.2-0.2,0.3-0.3c0.1-0.1,0.2-0.2,0.3-0.3s0.3-0.1,0.5-0.2
		s0.4-0.1,0.6-0.1c0.6,0,1.2,0.2,1.5,0.6c0.4,0.4,0.6,1,0.6,1.6v3.1h-0.8v-3.1c0-0.5-0.1-0.8-0.4-1.1s-0.6-0.4-1-0.4
		c-0.5,0-0.9,0.2-1.2,0.5s-0.5,0.8-0.5,1.3v2.9H58v-7.7h0.8V580z"/>
	<path class="st6" d="M64.2,577.6v-0.8h5.3v0.8l-4.5,6.2h4.6v0.8H64v-0.8l4.5-6.2H64.2z"/>
</g>
</svg>
