<?xml version="1.0" standalone="no"?>
<!DOCTYPE svg PUBLIC "-//W3C//DTD SVG 20010904//EN"
 "http://www.w3.org/TR/2001/REC-SVG-20010904/DTD/svg10.dtd">
<svg version="1.0" xmlns="http://www.w3.org/2000/svg"
 width="236.000000pt" height="53.000000pt" viewBox="0 0 236.000000 53.000000"
 preserveAspectRatio="xMidYMid meet">
<metadata>
Created by potrace 1.16, written by Peter Selinger 2001-2019
</metadata>
<g transform="translate(0.000000,53.000000) scale(0.100000,-0.100000)"
fill="#000000" stroke="none">
<path d="M433 421 c-17 -11 -34 -17 -37 -14 -3 4 -6 -1 -6 -11 0 -17 15 -50
32 -70 4 -6 16 -20 26 -32 19 -23 71 -59 77 -53 5 5 9 48 7 76 -1 12 -10 24
-19 26 -17 4 -17 5 0 6 17 1 17 3 1 33 -15 29 -38 58 -46 58 -2 0 -17 -9 -35
-19z"/>
<path d="M1430 370 c0 -29 4 -40 15 -40 9 0 15 9 15 25 0 14 5 25 10 25 6 0
10 -11 10 -25 0 -16 6 -25 15 -25 8 0 15 5 15 11 0 6 7 3 16 -5 17 -18 32 -20
53 -7 9 6 23 5 37 -1 30 -14 51 2 50 38 -1 35 -29 53 -56 37 -12 -8 -21 -9
-25 -3 -10 16 -53 12 -63 -6 -8 -14 -10 -14 -21 0 -8 9 -26 16 -42 16 -27 0
-29 -3 -29 -40z"/>
<path d="M110 291 c0 -30 5 -51 13 -54 9 -4 9 -6 -1 -6 -9 -1 -7 -12 8 -40 25
-51 28 -52 70 -34 19 9 38 15 43 15 11 -3 8 23 -5 36 -7 7 -9 12 -4 12 4 0 -2
12 -13 26 -12 15 -21 34 -21 42 0 8 -3 12 -6 9 -4 -4 -20 5 -36 18 -16 14 -34
25 -39 25 -5 0 -9 -22 -9 -49z"/>
<path d="M839 48 c0 -13 -3 -17 -6 -10 -2 6 -13 12 -24 12 -14 0 -19 -7 -19
-25 0 -25 0 -25 90 -23 72 1 90 4 93 17 4 13 5 13 6 -1 1 -14 9 -18 40 -16 31
1 38 5 34 17 -3 12 -2 12 7 -1 12 -19 70 -25 70 -7 0 5 -4 7 -10 4 -5 -3 -10
3 -10 13 0 15 -9 21 -37 24 -21 3 -39 2 -40 -1 -5 -11 -167 -3 -171 8 -7 20
-22 12 -23 -11z"/>
<path d="M1582 45 c-7 -14 -12 -29 -12 -34 0 -4 67 -8 149 -9 134 -1 150 0
154 16 4 16 5 16 6 0 1 -12 9 -18 25 -18 15 0 26 7 29 18 4 16 5 16 6 0 1 -14
10 -18 46 -18 25 0 45 5 45 11 0 5 -4 8 -9 5 -5 -3 -8 2 -7 12 1 22 -43 29
-142 22 -54 -4 -72 -2 -72 8 0 6 -4 12 -10 12 -5 0 -10 -6 -10 -12 0 -9 -19
-12 -67 -11 -37 1 -72 -2 -79 -8 -9 -7 -14 -4 -19 10 -9 28 -19 26 -33 -4z"/>
</g>
</svg>
