<svg width="192" height="50" viewBox="0 0 192 50" fill="none" xmlns="http://www.w3.org/2000/svg">
<path d="M21.6641 7.95703C22.3889 8.6111 23.1499 9.22883 23.9472 9.81023C24.9257 9.70122 25.9042 9.51953 26.8826 9.30151C26.8464 9.19249 26.8102 9.04715 26.7739 8.93813C25.5055 8.17505 24.2734 7.30296 23.1137 6.39453C22.6425 6.93959 22.1714 7.44831 21.6641 7.95703Z" fill="#4FAEDC"/>
<path d="M11.9146 32.596C10.9723 32.1236 9.99384 31.6876 9.01535 31.3242C8.58047 32.4507 8.03687 33.5771 7.45703 34.6309C8.90663 33.8315 10.3925 33.1411 11.9146 32.596Z" fill="#E34A3B"/>
<path d="M26.4083 7.52353C26.0822 5.88835 25.901 4.1805 25.8647 2.47266C25.2124 3.56277 24.5238 4.61655 23.7266 5.59766C24.5963 6.25173 25.5023 6.9058 26.4083 7.52353Z" fill="#4FAEDC"/>
<path d="M13.5092 32.0849C13.6179 32.0486 13.7266 32.0123 13.8354 32.0123C13.5454 31.1038 13.2193 30.1954 12.8206 29.3233C11.9146 28.9236 10.9724 28.5966 10.0301 28.2695C9.84894 28.9599 9.6315 29.6503 9.41406 30.3408C10.7549 30.8495 12.0596 31.4672 13.328 32.1576C13.4005 32.1213 13.4367 32.1213 13.5092 32.0849Z" fill="#E34A3B"/>
<path d="M11.2999 26.3077C11.0824 25.9443 10.865 25.6173 10.6476 25.2539C10.5388 25.908 10.4301 26.5984 10.2852 27.2524C10.9375 27.4341 11.5536 27.6522 12.1696 27.9065C11.916 27.3978 11.626 26.8527 11.2999 26.3077Z" fill="#E34A3B"/>
<path d="M6.4786 23.1484C5.24643 24.2386 3.90555 25.1833 2.49219 26.0554C3.72435 26.0554 4.95651 26.1644 6.15244 26.3461C6.33364 25.2923 6.44236 24.2386 6.4786 23.1484Z" fill="#E34A3B"/>
<path d="M9.05092 27.9802C8.3986 27.7985 7.71004 27.6532 7.05771 27.5078C6.94899 28.1255 6.84027 28.7433 6.69531 29.361C7.27515 29.5427 7.89124 29.7244 8.47108 29.9424C8.65228 29.3247 8.86972 28.6706 9.05092 27.9802Z" fill="#E34A3B"/>
<path d="M10.2461 14.899C10.3911 15.5167 10.4998 16.1708 10.6085 16.8249C11.1521 15.9891 11.6595 15.1533 12.0943 14.2812C11.4783 14.4993 10.8622 14.681 10.2461 14.899Z" fill="#9F7AB0"/>
<path d="M22.3886 9.92024C21.8812 9.52053 21.3738 9.08448 20.9027 8.64844C20.4316 9.08448 19.9605 9.52053 19.4531 9.92024C20.4316 9.99292 21.4101 9.99292 22.3886 9.92024Z" fill="#4FAEDC"/>
<path d="M29.9258 9.52317C30.9043 9.99555 31.8827 10.4316 32.8612 10.8313C33.2961 9.70485 33.8397 8.5784 34.4196 7.48828C32.97 8.2877 31.4841 8.97811 29.9258 9.52317Z" fill="#1B75BB"/>
<path d="M9.01362 10.8676C10.0283 10.4679 11.0068 9.99555 11.9853 9.52316C10.3907 8.97811 8.86866 8.2877 7.38281 7.48828C7.99889 8.5784 8.5425 9.70485 9.01362 10.8676Z" fill="#9F7AB0"/>
<path d="M20.9006 4.46875C20.4657 4.9048 19.9946 5.30451 19.5234 5.70421C19.9583 6.21294 20.4294 6.72166 20.9368 7.19404C21.4079 6.72166 21.879 6.21294 22.3139 5.70421C21.8066 5.34084 21.3354 4.9048 20.9006 4.46875Z" fill="#4FAEDC"/>
<path d="M20.1763 7.95703C19.6689 7.44831 19.1978 6.93959 18.7267 6.39453C17.6032 7.30296 16.4073 8.13872 15.1751 8.9018C15.1389 9.04715 15.1026 9.1925 15.0664 9.33784C16.0086 9.55587 16.9871 9.70122 17.9656 9.81023C18.7267 9.22883 19.4515 8.6111 20.1763 7.95703Z" fill="#4FAEDC"/>
<path d="M19.4531 32.16C19.9605 32.5597 20.4678 32.9957 20.9752 33.4681C21.4463 33.0321 21.9537 32.5597 22.4611 32.16C21.4826 32.0873 20.4678 32.0873 19.4531 32.16Z" fill="#F9A533"/>
<path d="M15.5742 34.7031C15.8641 36.302 16.0453 37.9008 16.0816 39.4996C16.6977 38.4822 17.3862 37.4648 18.111 36.52C17.3137 35.9023 16.444 35.2845 15.5742 34.7031Z" fill="#F9A533"/>
<path d="M20.9748 37.6483C21.4459 37.2123 21.8808 36.8126 22.3881 36.3765C21.9533 35.8678 21.4821 35.3591 21.011 34.8867C20.5399 35.3591 20.0688 35.8678 19.5977 36.4129C20.0688 36.8126 20.5037 37.2123 20.9748 37.6483Z" fill="#F9A533"/>
<path d="M20.2505 34.1591C19.5257 33.4687 18.7646 32.8509 17.9311 32.2695C16.9889 32.3785 16.0466 32.5239 15.1406 32.7419C15.1769 32.9236 15.2493 33.1053 15.2856 33.2506C16.4815 34.0137 17.6774 34.8131 18.8009 35.7216C19.2358 35.2128 19.7431 34.6678 20.2505 34.1591Z" fill="#F9A533"/>
<path d="M35.2178 12.7572C34.638 12.5755 34.0581 12.3938 33.4783 12.1758C33.2608 12.8299 33.0434 13.4839 32.8984 14.138C33.5508 14.3197 34.2031 14.465 34.8916 14.574C34.9641 13.9563 35.0728 13.3386 35.2178 12.7572Z" fill="#1B75BB"/>
<path d="M35.8672 14.7547C37.6067 15.0091 39.3825 15.0818 41.1582 15.0091C41.0495 14.682 40.9408 14.3187 40.8321 13.9916C39.2738 13.7736 37.7517 13.4829 36.2296 13.0469C36.0846 13.5919 35.9759 14.1733 35.8672 14.7547Z" fill="#1B75BB"/>
<path d="M39.4936 25.9836C38.044 25.1115 36.6668 24.1304 35.3984 23.0039C35.4709 24.094 35.5796 25.1841 35.7246 26.2743C36.9568 26.0926 38.2252 25.9836 39.4936 25.9836Z" fill="#8BC53F"/>
<path d="M2.5625 16.1344C3.93962 16.9702 5.24427 17.915 6.47643 18.9688C6.40395 17.915 6.29523 16.8612 6.15027 15.8438C4.95435 16.0254 3.75842 16.0981 2.5625 16.1344Z" fill="#9F7AB0"/>
<path d="M34.3111 19.9864C34.3474 18.4966 34.4923 17.0431 34.6735 15.5896C33.985 15.4442 33.2964 15.2989 32.6078 15.1172C32.3904 16.062 32.2454 17.0067 32.1367 17.9515C32.7166 18.7509 33.3689 19.514 34.0212 20.2407C34.1299 20.1681 34.2386 20.0954 34.3111 19.9864Z" fill="#1B75BB"/>
<path d="M32.8964 31.2148C31.8817 31.6146 30.9394 32.0506 29.9609 32.523C31.5193 33.068 33.0413 33.7221 34.4547 34.5215C33.8749 33.4677 33.3313 32.3413 32.8964 31.2148Z" fill="#8BC53F"/>
<path d="M21.7344 34.1591C22.2417 34.6678 22.7129 35.1765 23.184 35.7216C24.3437 34.7768 25.5396 33.941 26.808 33.1416C26.8442 32.9963 26.8805 32.8873 26.9167 32.7419C25.9745 32.5239 24.996 32.3785 24.0175 32.2695C23.2202 32.8509 22.4592 33.505 21.7344 34.1591Z" fill="#F9A533"/>
<path d="M9.77617 24.0213C9.19633 23.2582 8.58025 22.4951 7.92793 21.8047C7.81921 21.9137 7.67425 22.059 7.56553 22.1681C7.52929 23.6215 7.42057 25.075 7.20312 26.5285C7.89169 26.6739 8.61649 26.8192 9.30505 27.0009C9.48625 26.0198 9.66745 25.0387 9.77617 24.0213Z" fill="#E34A3B"/>
<path d="M31.3012 25.3281C30.7938 26.1275 30.2864 26.9633 29.8516 27.8354C30.4314 27.6174 31.0475 27.3993 31.6636 27.2177C31.5186 26.5999 31.3736 25.9822 31.3012 25.3281Z" fill="#8BC53F"/>
<path d="M32.5352 30.2693C32.2815 29.5789 32.1003 28.9248 31.9191 28.2344C31.0131 28.5251 30.1071 28.8521 29.2374 29.2518C28.8387 30.1603 28.5126 31.0687 28.2227 32.0135C28.3676 32.0498 28.4763 32.0861 28.6213 32.1225C29.8535 31.4321 31.1943 30.778 32.5352 30.2693Z" fill="#8BC53F"/>
<path d="M13.764 10.066C13.619 10.0297 13.5103 9.99337 13.3653 9.95703C12.0607 10.6474 10.756 11.3015 9.37891 11.8466C9.63259 12.5006 9.81379 13.191 10.0312 13.8814C10.9735 13.5908 11.8795 13.2274 12.7855 12.8277C13.1479 11.9556 13.474 11.0108 13.764 10.066Z" fill="#9F7AB0"/>
<path d="M25.9741 39.6083C25.9741 37.9004 26.1553 36.2289 26.4815 34.5938C25.5755 35.2115 24.7057 35.8292 23.8359 36.5196C24.597 37.5007 25.3218 38.5182 25.9741 39.6083Z" fill="#F9A533"/>
<path d="M6.55072 20.7117C6.55072 20.6027 6.55072 20.4936 6.55072 20.421C4.77495 18.7495 2.74551 17.3686 0.571105 16.2422C-0.153697 19.3672 -0.226177 22.6739 0.571105 25.9806C2.78175 24.8178 4.77495 23.4006 6.55072 21.7291C6.55072 21.3657 6.55072 21.0387 6.55072 20.7117Z" fill="#E34A3B"/>
<path d="M21.7344 38.3386C22.8216 39.4287 23.8725 40.5915 24.851 41.8269C25.2134 41.7543 25.5758 41.6816 25.902 41.6089C25.1047 40.0101 24.1262 38.5203 23.039 37.1758C22.5679 37.5755 22.133 37.9389 21.7344 38.3386Z" fill="#F9A533"/>
<path d="M13.219 33.2852C10.8634 34.0119 8.61647 35.0657 6.55078 36.4102C8.94263 38.6994 11.8418 40.3709 15.031 41.3157C15.1397 38.8448 14.9222 36.3738 14.3786 33.9392C13.98 33.7212 13.5814 33.5032 13.219 33.2852Z" fill="#F9A533"/>
<path d="M18.3281 42.0058C20.0676 42.2238 21.8434 42.2238 23.6192 42.0058C22.7857 40.952 21.8797 39.9709 20.9374 39.0625C20.0314 40.0073 19.1616 40.9884 18.3281 42.0058Z" fill="#F9A533"/>
<path d="M6.40663 30.3789C6.00799 31.8687 5.53687 33.2859 4.95703 34.703C5.21071 34.9937 5.42815 35.2481 5.68183 35.5388C6.62407 34.0853 7.42136 32.5228 8.03744 30.924C7.53008 30.7423 6.98648 30.5606 6.40663 30.3789Z" fill="#E34A3B"/>
<path d="M6.00547 27.3631C4.33842 27.1087 2.5989 27.0361 0.859375 27.1087C0.968095 27.4721 1.07682 27.8355 1.22178 28.1625C2.70762 28.3805 4.19346 28.6712 5.64307 29.0709C5.78803 28.5259 5.89675 27.9445 6.00547 27.3631Z" fill="#E34A3B"/>
<path d="M1.66016 29.2891C2.34872 30.9242 3.21848 32.4141 4.2332 33.7949C4.70432 32.5957 5.10296 31.3603 5.42912 30.0885C4.19696 29.7614 2.92856 29.5071 1.66016 29.2891Z" fill="#E34A3B"/>
<path d="M18.9077 37.2109C17.8205 38.5918 16.8782 40.0452 16.1172 41.6077C16.4796 41.6804 16.8057 41.7531 17.1681 41.8258C18.1104 40.5903 19.1251 39.4275 20.2123 38.3374C19.8137 37.974 19.3788 37.5743 18.9077 37.2109Z" fill="#F9A533"/>
<path d="M27.6802 33.8326C27.1003 36.2672 26.8829 38.7744 27.0279 41.3181C30.3257 40.3369 33.1887 38.6291 35.508 36.3762C33.3699 34.9954 31.0868 33.9416 28.6949 33.2148C28.3687 33.4329 28.0426 33.6146 27.6802 33.8326Z" fill="#8BC53F"/>
<path d="M41.4488 16.0977C39.1657 17.2604 37.1362 18.7503 35.3242 20.4581C35.3242 20.8215 35.3242 21.1849 35.3242 21.5482C37.1362 23.2561 39.2019 24.7459 41.485 25.9087C42.2461 22.7837 42.2823 19.4043 41.4488 16.0977Z" fill="#1B75BB"/>
<path d="M37.7528 33.8684C38.84 32.4149 39.746 30.8524 40.4345 29.1445C39.0937 29.3626 37.789 29.6169 36.4844 29.9803C36.8468 31.3248 37.2454 32.6329 37.7528 33.8684Z" fill="#8BC53F"/>
<path d="M35.9062 27.2889C36.015 27.8703 36.1237 28.4153 36.2687 28.9967C37.7907 28.5607 39.3491 28.27 40.9074 28.052C41.0161 27.7249 41.1248 27.3979 41.2335 27.0345C39.4215 26.9618 37.6458 27.0345 35.9062 27.2889Z" fill="#8BC53F"/>
<path d="M34.8916 27.4727C34.2393 27.5817 33.5508 27.7634 32.8984 27.945C33.0796 28.5991 33.2608 29.2532 33.5145 29.9072C34.0944 29.6892 34.6742 29.5075 35.254 29.3258C35.1091 28.7081 35.0004 28.0904 34.8916 27.4727Z" fill="#8BC53F"/>
<path d="M33.875 30.8497C34.5273 32.4849 35.3246 34.0838 36.3031 35.5736C36.5568 35.3192 36.7742 35.0649 36.9916 34.8105C36.3756 33.3207 35.9044 31.8309 35.5058 30.3047C34.9622 30.4864 34.4186 30.6681 33.875 30.8497Z" fill="#8BC53F"/>
<path d="M34.7087 26.4531C34.4912 24.9633 34.3463 23.5098 34.31 22.02C34.2376 21.9473 34.1288 21.8383 34.0564 21.7656C33.3678 22.4924 32.7517 23.2918 32.1719 24.0912C32.2806 25.036 32.4618 26.0171 32.643 26.9255C33.3316 26.7438 34.0201 26.5985 34.7087 26.4531Z" fill="#8BC53F"/>
<path d="M20.1409 3.7817C19.0537 2.72792 18.0752 1.60147 17.133 0.402344C16.7706 0.475018 16.4444 0.547693 16.082 0.620367C16.8793 2.14653 17.8216 3.60002 18.8725 4.94449C19.3074 4.54478 19.706 4.14508 20.1409 3.7817Z" fill="#4FAEDC"/>
<path d="M35.4706 11.7365C35.8693 10.2466 36.3404 8.75681 36.9565 7.30333C36.7391 7.04896 36.4854 6.75827 36.2317 6.50391C35.2532 7.99373 34.4559 9.55623 33.8398 11.1914C34.3834 11.3731 34.927 11.5548 35.4706 11.7365Z" fill="#1B75BB"/>
<path d="M28.6198 8.83285C31.0117 8.1061 33.2948 7.05232 35.3967 5.67151C33.0049 3.45494 30.1057 1.78343 26.9528 0.875C26.8441 3.4186 27.0615 5.88953 27.6414 8.28779C27.9675 8.46947 28.2937 8.65116 28.6198 8.83285Z" fill="#4FAEDC"/>
<path d="M40.3994 12.866C39.6746 11.1945 38.7686 9.632 37.6814 8.21484C37.2103 9.45031 36.7754 10.7221 36.4492 12.0303C37.7539 12.3936 39.0585 12.648 40.3994 12.866Z" fill="#1B75BB"/>
<path d="M5.96923 14.825C5.86051 14.2436 5.75179 13.6986 5.60683 13.1172C4.15722 13.5169 2.67138 13.8439 1.18554 14.062C1.07682 14.389 0.931855 14.7524 0.859375 15.1157C2.56266 15.1521 4.30218 15.0794 5.96923 14.825Z" fill="#9F7AB0"/>
<path d="M35.3984 19.0035C36.6306 17.9134 37.9715 16.9323 39.4211 16.0602C38.1889 16.0602 36.9568 15.9512 35.7246 15.7695C35.5434 16.8233 35.4347 17.9134 35.3984 19.0035Z" fill="#1B75BB"/>
<path d="M23.4753 0.146479C21.772 -0.0715441 20.0325 -0.0352069 18.293 0.182816C19.1265 1.20026 19.96 2.14503 20.9023 3.05346C21.8083 2.10869 22.678 1.16392 23.4753 0.146479Z" fill="#4FAEDC"/>
<path d="M29.8516 14.2461C30.2864 15.0818 30.7576 15.9176 31.2649 16.717C31.3736 16.0993 31.4824 15.4816 31.6273 14.8638C31.0475 14.6458 30.4314 14.4641 29.8516 14.2461Z" fill="#1B75BB"/>
<path d="M22.9659 4.94295C24.0531 3.59847 24.9591 2.10865 25.7564 0.546148C25.394 0.473474 25.0316 0.400799 24.6692 0.328125C23.7269 1.52725 22.7122 2.69004 21.625 3.78016C22.0599 4.14353 22.4948 4.54324 22.9659 4.94295Z" fill="#4FAEDC"/>
<path d="M8.03744 11.2308C7.42136 9.63199 6.62407 8.10583 5.68183 6.65234C5.42815 6.9067 5.17447 7.1974 4.95703 7.4881C5.53687 8.90525 6.00799 10.3224 6.37039 11.8122C6.95024 11.6305 7.49384 11.4489 8.03744 11.2308Z" fill="#9F7AB0"/>
<path d="M9.73819 18.062C9.62947 17.0809 9.44827 16.1362 9.23083 15.1914C8.54227 15.3731 7.85371 15.5548 7.12891 15.6638C7.34635 17.0809 7.45507 18.4981 7.52755 19.9516C7.63627 20.0606 7.78123 20.1696 7.88995 20.315C8.57851 19.5882 9.19459 18.8615 9.73819 18.062Z" fill="#9F7AB0"/>
<path d="M4.19696 8.42969C3.18224 9.8105 2.31248 11.3367 1.66016 12.8992C2.92856 12.6811 4.16072 12.4268 5.39288 12.0997C5.06672 10.8643 4.66808 9.62882 4.19696 8.42969Z" fill="#9F7AB0"/>
<path d="M14.2699 8.25027C14.8135 5.88835 15.031 3.41742 14.9222 0.910156C11.6969 1.89126 8.87015 3.59911 6.55078 5.77934C8.61647 7.12382 10.8996 8.14126 13.219 8.83167C13.5814 8.64998 13.9438 8.43196 14.2699 8.25027Z" fill="#9F7AB0"/>
<path d="M16.0113 2.61719C15.975 4.25236 15.8301 5.88754 15.5039 7.45004C16.3737 6.86864 17.2434 6.25091 18.077 5.5605C17.3159 4.65207 16.6273 3.67097 16.0113 2.61719Z" fill="#4FAEDC"/>
<path d="M6.9874 14.6455C7.67596 14.5002 8.32829 14.3548 9.01685 14.1731C8.83565 13.5191 8.61821 12.865 8.40077 12.2109C7.82092 12.429 7.20484 12.6106 6.625 12.7923C6.76996 13.4101 6.87868 14.0278 6.9874 14.6455Z" fill="#9F7AB0"/>
<path d="M28.4384 9.95821C28.3296 9.99455 28.2209 9.99455 28.1484 10.0309C28.4384 10.9757 28.8008 11.9204 29.1994 12.8289C30.0692 13.1922 30.9752 13.5193 31.8812 13.81C32.0624 13.1195 32.2798 12.4655 32.4972 11.7751C31.1201 11.23 29.8155 10.6123 28.5108 9.92188C28.4746 9.95821 28.4746 9.95821 28.4384 9.95821Z" fill="#1B75BB"/>
<path d="M57.2511 17.1897C54.2432 17.1897 52.25 15.0458 52.25 12.1752C52.25 9.44989 54.3157 7.16064 57.2511 7.16064C58.9182 7.16064 59.9691 7.63303 60.9476 8.46878L59.8604 9.74059C59.0994 9.08652 58.3746 8.68681 57.1424 8.68681C55.3666 8.68681 54.0258 10.2493 54.0258 12.1025C54.0258 14.1011 55.3304 15.5909 57.3236 15.5909C58.2296 15.5909 59.0631 15.3002 59.643 14.8641V13.0473H57.1787V11.6301H61.31V15.6999C60.3315 16.4993 58.9544 17.1897 57.2511 17.1897Z" fill="#1B75BB"/>
<path d="M63.4116 17.008V6.90625H65.0787V17.008H63.4116Z" fill="#1B75BB"/>
<path d="M70.7322 17.1899C68.5215 17.1899 66.8545 15.482 66.8545 13.4108C66.8545 11.3033 68.5215 9.55908 70.7322 9.55908C72.9791 9.55908 74.6099 11.2669 74.6099 13.3745C74.6099 15.4457 72.9791 17.1899 70.7322 17.1899ZM70.7322 11.0126C69.3913 11.0126 68.5215 12.0663 68.5215 13.3382C68.5215 14.6463 69.4638 15.7001 70.7322 15.7001C72.0731 15.7001 72.9428 14.6463 72.9428 13.3745C72.9428 12.1027 72.0368 11.0126 70.7322 11.0126Z" fill="#1B75BB"/>
<path d="M80.481 17.1897C79.2851 17.1897 78.524 16.5719 78.0167 15.9179V17.0443H76.3496V6.90625H78.0167V10.9033C78.5603 10.1403 79.3213 9.52253 80.481 9.52253C82.2205 9.52253 83.8876 10.9033 83.8876 13.3379C83.8513 15.8089 82.2205 17.1897 80.481 17.1897ZM80.0823 11.0124C78.9589 11.0124 77.9442 11.9571 77.9442 13.3743C77.9442 14.7914 78.9227 15.7362 80.0823 15.7362C81.242 15.7362 82.1843 14.8278 82.1843 13.3743C82.148 11.9208 81.2058 11.0124 80.0823 11.0124Z" fill="#1B75BB"/>
<path d="M90.0484 17.008V16.0996C89.541 16.681 88.78 17.1534 87.6928 17.1534C86.3157 17.1534 85.0835 16.3539 85.0835 14.9004C85.0835 13.3379 86.3519 12.5385 88.0552 12.5385C88.9249 12.5385 89.5048 12.6475 90.0846 12.8292V12.6475C90.0846 11.6301 89.4323 11.085 88.2726 11.085C87.4753 11.085 86.8593 11.2667 86.1707 11.5574L85.6996 10.2129C86.4969 9.84958 87.2941 9.59521 88.4901 9.59521C90.6282 9.59521 91.6792 10.7217 91.6792 12.6839V17.008H90.0484ZM90.0846 13.9193C89.6498 13.7377 89.0699 13.6286 88.4176 13.6286C87.3666 13.6286 86.7505 14.0647 86.7505 14.7914V14.8278C86.7505 15.5182 87.3666 15.9179 88.1639 15.9179C89.2511 15.9179 90.0846 15.3002 90.0846 14.3917V13.9193Z" fill="#1B75BB"/>
<path d="M93.7808 17.008V6.90625H95.4478V17.008H93.7808Z" fill="#1B75BB"/>
<path d="M111.212 17.0079H109.4L108.422 14.6823H103.856L102.877 17.0079H101.138L105.378 7.26953H106.936L111.212 17.0079ZM106.139 9.30441L104.472 13.1925H107.806L106.139 9.30441Z" fill="#1B75BB"/>
<path d="M112.771 17.008V6.90625H114.438V17.008H112.771Z" fill="#1B75BB"/>
<path d="M116.721 17.008V6.90625H118.388V17.008H116.721Z" fill="#1B75BB"/>
<path d="M120.599 8.57784V6.979H122.411V8.57784H120.599ZM120.671 17.0081V9.7043H122.338V17.0081H120.671Z" fill="#1B75BB"/>
<path d="M128.97 17.008V16.0996C128.463 16.681 127.702 17.1534 126.615 17.1534C125.238 17.1534 124.005 16.3539 124.005 14.9004C124.005 13.3379 125.274 12.5385 126.977 12.5385C127.847 12.5385 128.427 12.6475 129.006 12.8292V12.6475C129.006 11.6301 128.354 11.085 127.194 11.085C126.397 11.085 125.781 11.2667 125.093 11.5574L124.621 10.2129C125.419 9.84958 126.216 9.59521 127.412 9.59521C129.55 9.59521 130.601 10.7217 130.601 12.6839V17.008H128.97ZM129.006 13.9193C128.572 13.7377 127.992 13.6286 127.339 13.6286C126.288 13.6286 125.672 14.0647 125.672 14.7914V14.8278C125.672 15.5182 126.288 15.9179 127.086 15.9179C128.173 15.9179 129.006 15.3002 129.006 14.3917V13.9193Z" fill="#1B75BB"/>
<path d="M134.297 17.0082H132.63V9.70443H134.297V10.8309C134.769 10.1405 135.457 9.55908 136.581 9.55908C138.211 9.55908 139.19 10.6492 139.19 12.357V17.0082H137.523V12.8658C137.523 11.7393 136.943 11.0852 135.964 11.0852C134.986 11.0852 134.334 11.7757 134.334 12.9021V17.0082H134.297Z" fill="#1B75BB"/>
<path d="M144.553 17.1899C142.379 17.1899 140.784 15.482 140.784 13.4108C140.784 11.3396 142.379 9.55908 144.553 9.55908C145.93 9.55908 146.8 10.0678 147.452 10.8309L146.401 11.9573C145.894 11.4123 145.35 11.0489 144.517 11.0489C143.285 11.0489 142.415 12.1027 142.415 13.3745C142.415 14.6826 143.321 15.7364 144.589 15.7364C145.387 15.7364 145.967 15.373 146.474 14.828L147.489 15.8091C146.8 16.6085 145.967 17.1899 144.553 17.1899Z" fill="#1B75BB"/>
<path d="M152.2 15.8091C152.997 15.8091 153.577 15.5184 154.193 14.937L155.172 15.8091C154.483 16.6448 153.541 17.1899 152.2 17.1899C150.098 17.1899 148.467 15.6637 148.467 13.3745C148.467 11.2669 149.953 9.55908 152.019 9.55908C154.338 9.55908 155.498 11.3759 155.498 13.5198C155.498 13.6652 155.498 13.8105 155.462 13.9922H150.098C150.316 15.155 151.149 15.8091 152.2 15.8091ZM153.831 12.8658C153.722 11.7757 153.07 10.9399 151.983 10.9399C150.968 10.9399 150.243 11.7393 150.098 12.8658H153.831Z" fill="#1B75BB"/>
<path d="M55.91 25.7289V26.5647H53.8443V32.2696H52.9021V26.5647H51.9961V25.7289H52.9021V25.1475C52.9021 23.7304 53.6269 22.9673 54.8591 22.9673C55.3302 22.9673 55.6201 23.0036 55.9463 23.149V23.9847C55.5839 23.8757 55.3302 23.803 55.004 23.803C54.243 23.803 53.8806 24.2754 53.8806 25.1839V25.7289H55.91Z" fill="#77787B"/>
<path d="M60.0052 32.4151C58.0482 32.4151 56.5986 30.8526 56.5986 28.9994C56.5986 27.1462 58.0482 25.5474 60.0052 25.5474C61.9622 25.5474 63.4118 27.1099 63.4118 28.9631C63.448 30.8163 61.9984 32.4151 60.0052 32.4151ZM60.0052 26.4195C58.5918 26.4195 57.6134 27.5459 57.6134 28.9631C57.6134 30.3802 58.6643 31.543 60.0414 31.543C61.4548 31.543 62.4333 30.4166 62.4333 28.9994C62.4695 27.5459 61.4186 26.4195 60.0052 26.4195Z" fill="#77787B"/>
<path d="M66.2021 32.2334H65.2236V25.6927H66.2021V27.4005C66.6732 26.3104 67.6155 25.511 68.8839 25.5837V26.6375H68.8114C67.398 26.6375 66.2021 27.6549 66.2021 29.6535V32.2334Z" fill="#77787B"/>
<path d="M78.4152 32.415C75.6247 32.415 73.9214 30.3801 73.9214 27.8365C73.9214 25.4019 75.6972 23.2217 78.3789 23.2217C79.8648 23.2217 80.807 23.6577 81.6768 24.3845L81.0244 25.1475C80.3359 24.5662 79.5748 24.1301 78.3427 24.1301C76.3857 24.1301 74.9723 25.8016 74.9723 27.8002C74.9723 29.9441 76.3132 31.5066 78.4876 31.5066C79.5024 31.5066 80.4446 31.1069 81.0607 30.6345V28.4179H78.3789V27.5095H82.0392V31.0342C81.1332 31.7973 79.901 32.415 78.4152 32.415Z" fill="#77787B"/>
<path d="M86.9315 31.5428C87.8375 31.5428 88.4536 31.1794 88.9972 30.6344L89.6133 31.1794C88.961 31.9062 88.1637 32.4149 86.9315 32.4149C85.1195 32.4149 83.6699 31.0341 83.6699 28.9992C83.6699 27.1097 85.0108 25.5835 86.8228 25.5835C88.7435 25.5835 89.867 27.146 89.867 29.0719C89.867 29.1445 89.867 29.2536 89.867 29.3626H84.6846C84.7571 30.7434 85.7718 31.5428 86.9315 31.5428ZM88.8523 28.5995C88.7435 27.4004 88.055 26.3829 86.7503 26.3829C85.6269 26.3829 84.7571 27.3277 84.6122 28.5995H88.8523Z" fill="#77787B"/>
<path d="M92.5127 32.2334H91.5342V25.6927H92.5127V26.8192C92.9475 26.0924 93.6361 25.5474 94.7595 25.5474C96.3541 25.5474 97.2601 26.6011 97.2601 28.1636V32.2334H96.2816V28.418C96.2816 27.1825 95.6293 26.4558 94.4696 26.4558C93.3462 26.4558 92.5127 27.2915 92.5127 28.527V32.2334Z" fill="#77787B"/>
<path d="M102.334 32.4151C100.377 32.4151 98.9272 30.8526 98.9272 28.9994C98.9272 27.1462 100.377 25.5474 102.334 25.5474C104.291 25.5474 105.74 27.1099 105.74 28.9631C105.74 30.8163 104.291 32.4151 102.334 32.4151ZM102.334 26.4195C100.92 26.4195 99.942 27.5459 99.942 28.9631C99.942 30.3802 100.993 31.543 102.37 31.543C103.783 31.543 104.762 30.4166 104.762 28.9994C104.762 27.5459 103.711 26.4195 102.334 26.4195Z" fill="#77787B"/>
<path d="M114.982 25.5474C116.504 25.5474 117.41 26.5648 117.41 28.2V32.2697H116.431V28.418C116.431 27.1462 115.815 26.4558 114.728 26.4558C113.749 26.4558 112.916 27.1825 112.916 28.4907V32.2697H111.974V28.3817C111.974 27.1462 111.321 26.4195 110.307 26.4195C109.256 26.4195 108.495 27.2915 108.495 28.4907V32.2334H107.516V25.6927H108.495V26.7828C108.929 26.1288 109.509 25.5474 110.597 25.5474C111.647 25.5474 112.336 26.1288 112.698 26.8555C113.17 26.1288 113.858 25.5474 114.982 25.5474Z" fill="#77787B"/>
<path d="M119.584 24.239V23.1489H120.707V24.239H119.584ZM119.62 32.2332V25.6925H120.599V32.2332H119.62Z" fill="#77787B"/>
<path d="M125.817 32.4151C123.896 32.4151 122.447 30.8526 122.447 28.9994C122.447 27.1462 123.896 25.5474 125.817 25.5474C127.049 25.5474 127.81 26.0561 128.426 26.7102L127.774 27.4006C127.267 26.8555 126.687 26.4195 125.781 26.4195C124.44 26.4195 123.425 27.5459 123.425 28.9631C123.425 30.3802 124.476 31.543 125.817 31.543C126.651 31.543 127.303 31.107 127.81 30.5619L128.426 31.1433C127.81 31.87 127.049 32.4151 125.817 32.4151Z" fill="#77787B"/>
<path d="M132.268 32.3785C131.326 32.3785 130.311 32.0151 129.55 31.3974L130.057 30.707C130.782 31.252 131.543 31.5427 132.304 31.5427C133.101 31.5427 133.645 31.143 133.645 30.4889V30.4526C133.645 29.7985 132.884 29.5442 132.014 29.2898C130.999 28.9991 129.84 28.6357 129.84 27.4366V27.4003C129.84 26.2738 130.782 25.5107 132.05 25.5107C132.848 25.5107 133.717 25.8014 134.406 26.2375L133.971 26.9642C133.355 26.5645 132.666 26.3465 132.05 26.3465C131.289 26.3465 130.782 26.7462 130.782 27.2913V27.3276C130.782 27.9453 131.579 28.1997 132.449 28.4541C133.464 28.7448 134.551 29.1445 134.551 30.3436V30.3799C134.587 31.6517 133.572 32.3785 132.268 32.3785Z" fill="#77787B"/>
<path d="M153.94 28.2364V32.2335H152.925V23.3672H153.94V27.3279H159.049V23.3672H160.064V32.2335H159.049V28.2364H153.94Z" fill="#77787B"/>
<path d="M165.283 31.5428C166.189 31.5428 166.805 31.1794 167.348 30.6344L167.964 31.1794C167.312 31.9062 166.515 32.4149 165.283 32.4149C163.471 32.4149 162.021 31.0341 162.021 28.9992C162.021 27.1097 163.362 25.5835 165.174 25.5835C167.095 25.5835 168.218 27.146 168.218 29.0719C168.218 29.1445 168.218 29.2536 168.218 29.3626H163.036C163.144 30.7434 164.159 31.5428 165.283 31.5428ZM167.203 28.5995C167.095 27.4004 166.406 26.3829 165.101 26.3829C163.978 26.3829 163.108 27.3277 162.963 28.5995H167.203Z" fill="#77787B"/>
<path d="M170.284 26.928L169.994 26.1286C170.719 25.8015 171.407 25.5835 172.386 25.5835C174.161 25.5835 175.176 26.4919 175.176 28.2361V32.2332H174.234V31.2521C173.763 31.8335 173.002 32.3785 171.878 32.3785C170.682 32.3785 169.45 31.6881 169.45 30.3073C169.45 28.9265 170.574 28.1634 172.241 28.1634C173.074 28.1634 173.654 28.2724 174.27 28.4541V28.2361C174.27 27.0733 173.545 26.4556 172.313 26.4556C171.48 26.4556 170.9 26.6736 170.284 26.928ZM170.392 30.3073C170.392 31.1431 171.153 31.6155 172.023 31.6155C173.219 31.6155 174.198 30.8887 174.198 29.8349V29.2172C173.726 29.0719 173.074 28.9265 172.277 28.9265C171.081 28.9265 170.392 29.4716 170.392 30.3073Z" fill="#77787B"/>
<path d="M177.314 32.2331V23.0034H178.293V32.2694H177.314V32.2331Z" fill="#77787B"/>
<path d="M181.881 30.3802C181.881 31.1796 182.315 31.4703 182.968 31.4703C183.294 31.4703 183.584 31.3976 183.91 31.2523V32.088C183.584 32.2697 183.185 32.3787 182.75 32.3787C181.699 32.3787 180.902 31.87 180.902 30.5255V26.5648H179.996V25.6927H180.902V23.7305H181.881V25.6927H183.946V26.5648H181.881V30.3802Z" fill="#77787B"/>
<path d="M186.628 32.2331H185.649V23.0034H186.628V26.8552C187.063 26.1284 187.751 25.5834 188.875 25.5834C190.469 25.5834 191.375 26.6371 191.375 28.1996V32.2694H190.397V28.4177C190.397 27.1822 189.745 26.4555 188.585 26.4555C187.461 26.4555 186.628 27.2912 186.628 28.5267V32.2331Z" fill="#77787B"/>
<path d="M55.0782 50.0011C53.3387 50.0011 52.0703 48.6566 52.0703 46.9124C52.0703 45.2045 53.3387 43.8237 55.0782 43.8237C56.1654 43.8237 56.8178 44.2234 57.3976 44.7685L56.9265 45.2772C56.4191 44.8048 55.8755 44.4415 55.042 44.4415C53.7374 44.4415 52.7226 45.4952 52.7226 46.9124C52.7226 48.2932 53.7374 49.3833 55.042 49.3833C55.8755 49.3833 56.3829 49.0563 56.9627 48.5112L57.3976 48.9473C56.854 49.565 56.1654 50.0011 55.0782 50.0011Z" fill="#1B75BB"/>
<path d="M60.4779 50.0011C59.1733 50.0011 58.1948 48.9473 58.1948 47.7118C58.1948 46.44 59.1733 45.3862 60.5142 45.3862C61.8188 45.3862 62.7973 46.44 62.7973 47.6755C62.7973 48.9109 61.8188 50.0011 60.4779 50.0011ZM60.4779 45.9676C59.5357 45.9676 58.8834 46.7307 58.8834 47.6755C58.8834 48.6202 59.5719 49.4197 60.5142 49.4197C61.4564 49.4197 62.145 48.6566 62.145 47.7118C62.1087 46.7307 61.4202 45.9676 60.4779 45.9676Z" fill="#1B75BB"/>
<path d="M64.0293 49.8916V43.6416H64.6816V49.8916H64.0293Z" fill="#1B75BB"/>
<path d="M66.2764 49.8916V43.6416H66.9287V49.8916H66.2764Z" fill="#1B75BB"/>
<path d="M68.7047 46.2947L68.5235 45.7496C68.9947 45.5316 69.502 45.3862 70.1181 45.3862C71.314 45.3862 72.0026 46.004 72.0026 47.1668V49.8557H71.3865V49.2016C71.0966 49.6013 70.553 49.9647 69.7919 49.9647C68.9584 49.9647 68.1611 49.4923 68.1611 48.5839C68.1611 47.6391 68.9222 47.1304 70.0456 47.1304C70.6255 47.1304 71.0241 47.2031 71.3865 47.3121V47.1668C71.3865 46.3673 70.9154 45.9676 70.0818 45.9676C69.5382 46.004 69.1396 46.113 68.7047 46.2947ZM68.7772 48.5839C68.7772 49.1653 69.2846 49.456 69.9006 49.456C70.6979 49.456 71.3865 48.9473 71.3865 48.2569V47.8208C71.0603 47.7118 70.6254 47.6391 70.0818 47.6391C69.2483 47.6391 68.7772 48.0025 68.7772 48.5839Z" fill="#1B75BB"/>
<path d="M75.735 49.9645C74.9015 49.9645 74.3941 49.5284 74.0317 49.0197V49.8555H73.3794V43.6055H74.0317V46.3308C74.3941 45.7857 74.9015 45.3497 75.735 45.3497C76.786 45.3497 77.8369 46.1854 77.8369 47.6389C77.8369 49.1287 76.8222 49.9645 75.735 49.9645ZM75.6263 45.9674C74.7928 45.9674 74.0317 46.6578 74.0317 47.6752C74.0317 48.6927 74.7928 49.3831 75.6263 49.3831C76.496 49.3831 77.1846 48.7654 77.1846 47.6752C77.1846 46.6215 76.4598 45.9674 75.6263 45.9674Z" fill="#1B75BB"/>
<path d="M81.0624 50.0011C79.7578 50.0011 78.7793 48.9473 78.7793 47.7118C78.7793 46.44 79.7578 45.3862 81.0987 45.3862C82.4033 45.3862 83.3818 46.44 83.3818 47.6755C83.3818 48.9109 82.4033 50.0011 81.0624 50.0011ZM81.0624 45.9676C80.1202 45.9676 79.4679 46.7307 79.4679 47.6755C79.4679 48.6202 80.1564 49.4197 81.0987 49.4197C82.0409 49.4197 82.7295 48.6566 82.7295 47.7118C82.7295 46.7307 82.0047 45.9676 81.0624 45.9676Z" fill="#1B75BB"/>
<path d="M85.23 49.8918H84.5776V45.4587H85.23V46.6215C85.5561 45.8947 86.2085 45.3497 87.042 45.386V46.1127H86.9695C85.991 46.1127 85.23 46.8031 85.23 48.1476V49.8918Z" fill="#1B75BB"/>
<path d="M88.0568 46.2947L87.8756 45.7496C88.3467 45.5316 88.8541 45.3862 89.4702 45.3862C90.6661 45.3862 91.3546 46.004 91.3546 47.1668V49.8557H90.7386V49.2016C90.4486 49.6013 89.905 49.9647 89.144 49.9647C88.3105 49.9647 87.5132 49.4923 87.5132 48.5839C87.5132 47.6391 88.2742 47.1304 89.3977 47.1304C89.9775 47.1304 90.3762 47.2031 90.7386 47.3121V47.1668C90.7386 46.3673 90.2674 45.9676 89.4339 45.9676C88.8903 46.004 88.4917 46.113 88.0568 46.2947ZM88.1655 48.5839C88.1655 49.1653 88.6729 49.456 89.289 49.456C90.0862 49.456 90.7748 48.9473 90.7748 48.2569V47.8208C90.4486 47.7118 90.0138 47.6391 89.4702 47.6391C88.6004 47.6391 88.1655 48.0025 88.1655 48.5839Z" fill="#1B75BB"/>
<path d="M93.6014 48.6199C93.6014 49.1649 93.8913 49.3466 94.3262 49.3466C94.5437 49.3466 94.7249 49.3103 94.9785 49.2013V49.7827C94.7611 49.8917 94.5074 49.9644 94.1813 49.9644C93.4565 49.9644 92.9491 49.601 92.9491 48.7289V46.0763H92.333V45.4949H92.9491V44.1504H93.6014V45.4949H95.0148V46.0763H93.6014V48.6199Z" fill="#1B75BB"/>
<path d="M97.9866 49.4194C98.6027 49.4194 99.0014 49.165 99.3638 48.8016L99.7624 49.165C99.3275 49.6737 98.7839 50.0008 97.9504 50.0008C96.7545 50.0008 95.7397 49.056 95.7397 47.6752C95.7397 46.4034 96.6457 45.3496 97.8417 45.3496C99.1463 45.3496 99.9074 46.4034 99.9074 47.6752C99.9074 47.7479 99.9074 47.8205 99.9074 47.8932H96.3921C96.5008 48.8743 97.1893 49.4194 97.9866 49.4194ZM99.255 47.4208C99.1826 46.6214 98.7114 45.931 97.8417 45.931C97.0806 45.931 96.5008 46.5851 96.3921 47.4208H99.255Z" fill="#1B75BB"/>
<path d="M100.922 49.8918V48.9834H101.719V49.8918H100.922Z" fill="#1B75BB"/>
<path d="M106.503 43.896V49.8916H105.814V43.896H106.503Z" fill="#1B75BB"/>
<path d="M108.786 49.8918H108.134V45.4586H108.786V46.2217C109.076 45.7493 109.547 45.3496 110.308 45.3496C111.359 45.3496 112.011 46.0764 112.011 47.1301V49.8918H111.359V47.3118C111.359 46.4761 110.924 45.9673 110.127 45.9673C109.366 45.9673 108.822 46.5124 108.822 47.3482V49.8918H108.786Z" fill="#1B75BB"/>
<path d="M114.041 49.8918H113.389V45.4586H114.041V46.2217C114.331 45.7493 114.802 45.3496 115.563 45.3496C116.614 45.3496 117.266 46.0764 117.266 47.1301V49.8918H116.614V47.3118C116.614 46.4761 116.179 45.9673 115.382 45.9673C114.621 45.9673 114.077 46.5124 114.077 47.3482V49.8918H114.041Z" fill="#1B75BB"/>
<path d="M120.637 50.0011C119.332 50.0011 118.354 48.9473 118.354 47.7118C118.354 46.44 119.332 45.3862 120.673 45.3862C121.978 45.3862 122.956 46.44 122.956 47.6755C122.956 48.9109 121.978 50.0011 120.637 50.0011ZM120.637 45.9676C119.694 45.9676 119.006 46.7307 119.006 47.6755C119.006 48.6202 119.694 49.4197 120.637 49.4197C121.579 49.4197 122.267 48.6566 122.267 47.7118C122.304 46.7307 121.579 45.9676 120.637 45.9676Z" fill="#1B75BB"/>
<path d="M127.16 45.4585H127.885L125.964 49.928H125.384L123.463 45.4585H124.188L125.674 49.1286L127.16 45.4585Z" fill="#1B75BB"/>
<path d="M128.936 46.2947L128.754 45.7496C129.226 45.5316 129.733 45.3862 130.349 45.3862C131.545 45.3862 132.234 46.004 132.234 47.1668V49.8557H131.617V49.2016C131.328 49.6013 130.784 49.9647 130.023 49.9647C129.189 49.9647 128.392 49.4923 128.392 48.5839C128.392 47.6391 129.153 47.1304 130.277 47.1304C130.856 47.1304 131.255 47.2031 131.617 47.3121V47.1668C131.617 46.3673 131.146 45.9676 130.313 45.9676C129.769 46.004 129.334 46.113 128.936 46.2947ZM129.008 48.5839C129.008 49.1653 129.516 49.456 130.132 49.456C130.929 49.456 131.617 48.9473 131.617 48.2569V47.8208C131.291 47.7118 130.856 47.6391 130.313 47.6391C129.479 47.6391 129.008 48.0025 129.008 48.5839Z" fill="#1B75BB"/>
<path d="M134.48 48.6199C134.48 49.1649 134.77 49.3466 135.205 49.3466C135.423 49.3466 135.604 49.3103 135.857 49.2013V49.7827C135.64 49.8917 135.386 49.9644 135.06 49.9644C134.335 49.9644 133.828 49.601 133.828 48.7289V46.0763H133.212V45.4949H133.828V44.1504H134.48V45.4949H135.894V46.0763H134.48V48.6199Z" fill="#1B75BB"/>
<path d="M138.829 49.4194C139.445 49.4194 139.844 49.165 140.206 48.8016L140.605 49.165C140.17 49.6737 139.626 50.0008 138.793 50.0008C137.597 50.0008 136.582 49.056 136.582 47.6752C136.582 46.4034 137.488 45.3496 138.684 45.3496C139.989 45.3496 140.75 46.4034 140.75 47.6752C140.75 47.7479 140.75 47.8205 140.75 47.8932H137.234C137.379 48.8743 138.068 49.4194 138.829 49.4194ZM140.134 47.4208C140.061 46.6214 139.59 45.931 138.72 45.931C137.959 45.931 137.379 46.5851 137.271 47.4208H140.134Z" fill="#1B75BB"/>
<path d="M141.801 49.8918V48.9834H142.598V49.8918H141.801Z" fill="#1B75BB"/>
<path d="M152.165 49.8918H151.441L150.752 48.293H147.491L146.766 49.8918H146.077L148.795 43.8599H149.411L152.165 49.8918ZM149.121 44.6593L147.744 47.7116H150.462L149.121 44.6593Z" fill="#1B75BB"/>
<path d="M155.029 50.0011C153.724 50.0011 152.782 48.9473 152.782 47.7118C152.782 46.44 153.76 45.3862 155.029 45.3862C155.862 45.3862 156.37 45.7496 156.804 46.1856L156.37 46.658C156.007 46.2947 155.645 46.004 155.029 46.004C154.123 46.004 153.434 46.767 153.434 47.7118C153.434 48.6929 154.123 49.456 155.065 49.456C155.645 49.456 156.08 49.1653 156.406 48.8019L156.841 49.2016C156.37 49.6377 155.862 50.0011 155.029 50.0011Z" fill="#1B75BB"/>
<path d="M159.776 50.0011C158.471 50.0011 157.529 48.9473 157.529 47.7118C157.529 46.44 158.507 45.3862 159.776 45.3862C160.609 45.3862 161.117 45.7496 161.551 46.1856L161.117 46.658C160.754 46.2947 160.392 46.004 159.776 46.004C158.87 46.004 158.181 46.767 158.181 47.7118C158.181 48.6929 158.87 49.456 159.812 49.456C160.392 49.456 160.827 49.1653 161.153 48.8019L161.588 49.2016C161.117 49.6377 160.609 50.0011 159.776 50.0011Z" fill="#1B75BB"/>
<path d="M164.451 49.4194C165.067 49.4194 165.466 49.165 165.828 48.8016L166.227 49.165C165.792 49.6737 165.248 50.0008 164.415 50.0008C163.219 50.0008 162.204 49.056 162.204 47.6752C162.204 46.4034 163.11 45.3496 164.306 45.3496C165.611 45.3496 166.372 46.4034 166.372 47.6752C166.372 47.7479 166.372 47.8205 166.372 47.8932H162.856C163.001 48.8743 163.69 49.4194 164.451 49.4194ZM165.756 47.4208C165.683 46.6214 165.212 45.931 164.342 45.931C163.581 45.931 163.001 46.5851 162.893 47.4208H165.756Z" fill="#1B75BB"/>
<path d="M167.64 49.8916V43.6416H168.292V49.8916H167.64Z" fill="#1B75BB"/>
<path d="M171.771 49.4194C172.387 49.4194 172.786 49.165 173.148 48.8016L173.547 49.165C173.112 49.6737 172.569 50.0008 171.735 50.0008C170.539 50.0008 169.524 49.056 169.524 47.6752C169.524 46.4034 170.43 45.3496 171.626 45.3496C172.931 45.3496 173.692 46.4034 173.692 47.6752C173.692 47.7479 173.692 47.8205 173.692 47.8932H170.213C170.285 48.8743 170.974 49.4194 171.771 49.4194ZM173.04 47.4208C172.967 46.6214 172.496 45.931 171.626 45.931C170.865 45.931 170.285 46.5851 170.177 47.4208H173.04Z" fill="#1B75BB"/>
<path d="M175.504 49.8918H174.852V45.4587H175.504V46.6215C175.83 45.8947 176.482 45.3497 177.316 45.386V46.1127H177.28C176.301 46.1127 175.54 46.8031 175.54 48.1476V49.8918H175.504Z" fill="#1B75BB"/>
<path d="M178.367 46.2947L178.186 45.7496C178.657 45.5316 179.164 45.3862 179.78 45.3862C180.976 45.3862 181.665 46.004 181.665 47.1668V49.8557H181.049V49.2016C180.759 49.6013 180.215 49.9647 179.454 49.9647C178.621 49.9647 177.823 49.4923 177.823 48.5839C177.823 47.6391 178.584 47.1304 179.708 47.1304C180.288 47.1304 180.686 47.2031 181.049 47.3121V47.1668C181.049 46.3673 180.577 45.9676 179.744 45.9676C179.164 46.004 178.765 46.113 178.367 46.2947ZM178.439 48.5839C178.439 49.1653 178.947 49.456 179.563 49.456C180.36 49.456 181.049 48.9473 181.049 48.2569V47.8208C180.722 47.7118 180.288 47.6391 179.744 47.6391C178.91 47.6391 178.439 48.0025 178.439 48.5839Z" fill="#1B75BB"/>
<path d="M183.875 48.6199C183.875 49.1649 184.165 49.3466 184.6 49.3466C184.818 49.3466 184.999 49.3103 185.252 49.2013V49.7827C185.035 49.8917 184.781 49.9644 184.455 49.9644C183.73 49.9644 183.223 49.601 183.223 48.7289V46.0763H182.607V45.4949H183.223V44.1504H183.875V45.4949H185.289V46.0763H183.875V48.6199Z" fill="#1B75BB"/>
<path d="M188.261 49.4194C188.877 49.4194 189.275 49.165 189.638 48.8016L190.036 49.165C189.601 49.6737 189.058 50.0008 188.224 50.0008C187.028 50.0008 186.014 49.056 186.014 47.6752C186.014 46.4034 186.92 45.3496 188.116 45.3496C189.42 45.3496 190.181 46.4034 190.181 47.6752C190.181 47.7479 190.181 47.8205 190.181 47.8932H186.666C186.811 48.8743 187.5 49.4194 188.261 49.4194ZM189.565 47.4208C189.493 46.6214 189.022 45.931 188.152 45.931C187.391 45.931 186.811 46.5851 186.702 47.4208H189.565Z" fill="#1B75BB"/>
<path d="M191.196 49.8918V48.9834H191.993V49.8918H191.196Z" fill="#1B75BB"/>
<path d="M145.929 27.6567V26.5666H144.95V27.6567H143.428C142.051 27.6567 141.906 26.7483 141.906 26.3486C141.906 25.5855 142.486 25.0768 143.392 25.0768C143.609 25.0768 143.827 25.1131 143.936 25.1494L144.189 24.3864C144.044 24.35 143.646 24.2773 143.32 24.2773C141.87 24.2773 140.928 25.0768 140.928 26.2759C140.928 27.584 141.906 27.9474 141.942 27.9474L142.196 28.0201L141.942 28.0927C141.145 28.3471 140.602 29.1465 140.602 30.0913C140.602 31.4358 141.725 32.3805 143.283 32.3805C144.95 32.3805 145.965 31.3631 145.965 29.6552V28.5288H147.016V27.693H145.929V27.6567ZM144.842 29.6189C144.842 30.7817 144.262 31.3994 143.211 31.3994C142.269 31.3994 141.616 30.818 141.616 30.0186C141.616 29.1465 142.269 28.6378 143.356 28.6015H144.878L144.842 29.6189Z" fill="#77787B"/>
</svg>
