<?xml version="1.0" encoding="UTF-8" standalone="no"?>
<svg
   xmlns:dc="http://purl.org/dc/elements/1.1/"
   xmlns:cc="http://creativecommons.org/ns#"
   xmlns:rdf="http://www.w3.org/1999/02/22-rdf-syntax-ns#"
   xmlns:svg="http://www.w3.org/2000/svg"
   xmlns="http://www.w3.org/2000/svg"
   xmlns:sodipodi="http://sodipodi.sourceforge.net/DTD/sodipodi-0.dtd"
   xmlns:inkscape="http://www.inkscape.org/namespaces/inkscape"
   inkscape:version="1.0 (4035a4f, 2020-05-01)"
   sodipodi:docname="mds.svg"
   id="svg51"
   version="1.1"
   viewBox="0 0 140 110.00001"
   height="110"
   width="140">
  <metadata
     id="metadata57">
    <rdf:RDF>
      <cc:Work
         rdf:about="">
        <dc:format>image/svg+xml</dc:format>
        <dc:type
           rdf:resource="http://purl.org/dc/dcmitype/StillImage" />
        <dc:title></dc:title>
      </cc:Work>
    </rdf:RDF>
  </metadata>
  <defs
     id="defs55" />
  <sodipodi:namedview
     inkscape:current-layer="svg51"
     inkscape:window-maximized="1"
     inkscape:window-y="23"
     inkscape:window-x="0"
     inkscape:cy="120.64069"
     inkscape:cx="-173.95505"
     inkscape:zoom="1.0326718"
     width="100mm"
     units="px"
     showgrid="false"
     id="namedview53"
     inkscape:window-height="985"
     inkscape:window-width="1920"
     inkscape:pageshadow="2"
     inkscape:pageopacity="0"
     guidetolerance="10"
     gridtolerance="10"
     objecttolerance="10"
     borderopacity="1"
     bordercolor="#666666"
     pagecolor="#ffffff"
     inkscape:document-rotation="0" />
  <g
     transform="matrix(1.9712377,0,0,1.7017058,0.4695277,9.6837656)"
     id="icon_AOI">
    <g
       transform="translate(0,30.03)"
       id="floor">
      <path
         fill="#ece8f4"
         transform="translate(0,0.281)"
         d="m 37.032,0.264 a 8.142,8.142 0 0 0 -4.1,0 L 0.847,10.444 a 2.843,2.843 0 0 0 0,4.048 l 32.081,10.181 a 4.916,4.916 0 0 0 4.1,0 L 69.113,14.492 a 2.843,2.843 0 0 0 0,-4.048 z"
         data-name="Fill 1"
         id="Fill_1" />
      <path
         fill="#98b3c5"
         transform="translate(0,12.164)"
         d="m 37.053,11.389 a 4.9,4.9 0 0 1 -4.106,0 L 0.844,1.156 C 0.413,0.729 0.149,0.555 0.047,0 a 2.86,2.86 0 0 0 0.8,2.554 l 32.1,10.233 a 4.9,4.9 0 0 0 4.106,0 L 69.153,2.554 A 2.86,2.86 0 0 0 69.953,0 c -0.1,0.555 -0.366,0.729 -0.8,1.156 z"
         data-name="Fill 4"
         id="Fill_4" />
    </g>
    <g
       transform="translate(11.538)"
       data-name="icon aip"
       id="icon_aip">
      <rect
         y="0"
         x="0"
         fill="#98b3c5"
         transform="translate(0,6.93)"
         height="35.419998"
         width="40.769001"
         data-name="Rectangle 6"
         id="Rectangle_6" />
      <path
         fill="#4f586f"
         d="M 40.88,0.969 A 0.96,0.96 0 0 0 39.9,0 H 0.976 A 0.96,0.96 0 0 0 0,0.969 V 6.72 h 40.88 z"
         id="Shape" />
      <g
         transform="translate(9.707,22.96)"
         data-name="Group 3"
         id="Group_3">
        <path
           d="M 0,2.072 H 2.072 V 0 H 0 Z"
           data-name="Fill 38"
           id="Fill_38" />
        <path
           transform="translate(0,4.312)"
           d="M 0,2.072 H 2.072 V 0 H 0 Z"
           data-name="Fill 39"
           id="Fill_39" />
        <path
           transform="translate(0,8.624)"
           d="M 0,2.072 H 2.072 V 0 H 0 Z"
           data-name="Fill 40"
           id="Fill_40" />
      </g>
      <g
         transform="translate(5.04,22.96)"
         data-name="Group 3"
         id="Group_3-2">
        <path
           d="M 0,2.072 H 2.072 V 0 H 0 Z"
           data-name="Fill 38"
           id="Fill_38-2" />
        <path
           transform="translate(0,4.312)"
           d="M 0,2.072 H 2.072 V 0 H 0 Z"
           data-name="Fill 39"
           id="Fill_39-2" />
        <path
           transform="translate(0,8.624)"
           d="M 0,2.072 H 2.072 V 0 H 0 Z"
           data-name="Fill 40"
           id="Fill_40-2" />
      </g>
      <g
         transform="translate(14.373,27.272)"
         data-name="Group 3"
         id="Group_3-3">
        <path
           d="M 0,2.072 H 2.072 V 0 H 0 Z"
           data-name="Fill 39"
           id="Fill_39-3" />
        <path
           transform="translate(0,4.312)"
           d="M 0,2.072 H 2.072 V 0 H 0 Z"
           data-name="Fill 40"
           id="Fill_40-3" />
      </g>
      <g
         transform="translate(19.04,22.96)"
         data-name="Group 3"
         id="Group_3-4">
        <path
           d="M 0,2.072 H 2.072 V 0 H 0 Z"
           data-name="Fill 38"
           id="Fill_38-3" />
        <path
           transform="translate(0,4.312)"
           d="M 0,2.072 H 2.072 V 0 H 0 Z"
           data-name="Fill 39"
           id="Fill_39-4" />
        <path
           transform="translate(0,8.624)"
           d="M 0,2.072 H 2.072 V 0 H 0 Z"
           data-name="Fill 40"
           id="Fill_40-4" />
      </g>
      <g
         transform="translate(28.373,22.96)"
         data-name="Group 3"
         id="Group_3-5">
        <path
           d="M 0,2.072 H 2.072 V 0 H 0 Z"
           data-name="Fill 38"
           id="Fill_38-4" />
        <path
           transform="translate(0,4.312)"
           d="M 0,2.072 H 2.072 V 0 H 0 Z"
           data-name="Fill 39"
           id="Fill_39-5" />
        <path
           transform="translate(0,8.624)"
           d="M 0,2.072 H 2.072 V 0 H 0 Z"
           data-name="Fill 40"
           id="Fill_40-5" />
      </g>
      <g
         transform="translate(33.04,22.96)"
         data-name="Group 3"
         id="Group_3-6">
        <path
           d="M 0,2.072 H 2.072 V 0 H 0 Z"
           data-name="Fill 38"
           id="Fill_38-5" />
        <path
           transform="translate(0,4.312)"
           d="M 0,2.072 H 2.072 V 0 H 0 Z"
           data-name="Fill 39"
           id="Fill_39-6" />
        <path
           transform="translate(0,8.624)"
           d="M 0,2.072 H 2.072 V 0 H 0 Z"
           data-name="Fill 40"
           id="Fill_40-6" />
      </g>
      <g
         transform="translate(23.707,22.96)"
         data-name="Group 3"
         id="Group_3-7">
        <path
           d="M 0,2.072 H 2.072 V 0 H 0 Z"
           data-name="Fill 38"
           id="Fill_38-6" />
        <path
           transform="translate(0,8.624)"
           d="M 0,2.072 H 2.072 V 0 H 0 Z"
           data-name="Fill 40"
           id="Fill_40-7" />
      </g>
      <rect
         y="0"
         x="0"
         fill="#f4f5f9"
         transform="translate(13.846,2.31)"
         height="1.54"
         width="24.615"
         id="Rectangle-path" />
      <ellipse
         fill="#dbcb32"
         transform="translate(10,2.31)"
         ry="0.76999998"
         rx="0.76899999"
         cy="0.76999998"
         cx="0.76899999"
         id="Oval" />
      <ellipse
         fill="#9eccc7"
         transform="translate(5.385,2.31)"
         ry="0.76999998"
         rx="1.154"
         cy="0.76999998"
         cx="1.154"
         data-name="Oval"
         id="Oval-2" />
      <ellipse
         fill="#793a78"
         transform="translate(2.308,2.31)"
         ry="0.76999998"
         rx="0.76899999"
         cy="0.76999998"
         cx="0.76899999"
         data-name="Oval"
         id="Oval-3" />
      <g
         transform="translate(27.44,25.76)"
         data-name="Group 4"
         id="Group_4">
        <path
           fill="#4ea098"
           d="M 17.544,12.484 A 9.8,9.8 0 0 0 17.8,10.36 9.8,9.8 0 0 0 17.548,8.236 L 18.8,7.1 A 0.577,0.577 0 0 0 18.9,6.375 L 17.594,3.989 A 0.552,0.552 0 0 0 16.894,3.73 L 15.284,4.3 A 8.4,8.4 0 0 0 11.712,2.176 L 11.356,0.466 A 0.594,0.594 0 0 0 10.8,0 H 8.187 A 0.594,0.594 0 0 0 7.634,0.466 L 7.281,2.176 A 8.72,8.72 0 0 0 3.71,4.3 L 2.1,3.73 A 0.57,0.57 0 0 0 1.4,3.989 L 0.088,6.371 a 0.559,0.559 0 0 0 0.1,0.725 l 1.258,1.14 a 9.8,9.8 0 0 0 -0.252,2.124 9.8,9.8 0 0 0 0.252,2.124 l -1.258,1.139 a 0.577,0.577 0 0 0 -0.1,0.725 L 1.4,16.731 a 0.552,0.552 0 0 0 0.7,0.259 l 1.61,-0.57 a 8.4,8.4 0 0 0 3.572,2.124 l 0.352,1.709 a 0.594,0.594 0 0 0 0.553,0.466 h 2.666 a 0.594,0.594 0 0 0 0.553,-0.466 l 0.352,-1.709 A 8.72,8.72 0 0 0 15.33,16.42 l 1.61,0.57 a 0.57,0.57 0 0 0 0.7,-0.259 l 1.308,-2.383 a 0.559,0.559 0 0 0 -0.1,-0.725 z"
           data-name="Shape"
           id="Shape-2" />
        <path
           fill="#9eccc7"
           transform="translate(3.257,3.937)"
           d="M 6.238,12.847 A 6.365,6.365 0 0 1 0,6.423 6.365,6.365 0 0 1 6.238,0 6.332,6.332 0 0 1 12.476,6.423 6.332,6.332 0 0 1 6.238,12.847 Z"
           id="Path" />
        <ellipse
           fill="#4ea098"
           transform="translate(4.914,5.651)"
           ry="4.7090001"
           rx="4.6059999"
           cy="4.7090001"
           cx="4.6059999"
           data-name="Oval"
           id="Oval-4" />
      </g>
    </g>
  </g>
</svg>
