
<svg width="125px" height="99px" viewBox="0 0 125 99" version="1.1" xmlns="http://www.w3.org/2000/svg" xmlns:xlink="http://www.w3.org/1999/xlink">
    <!-- Generator: Sketch 51.2 (57519) - http://www.bohemiancoding.com/sketch -->
    <desc>Created with Sketch.</desc>
    <defs>
        <path d="M-1.03739239e-12,22.7147435 C0.0129811362,21.421857 0.516767803,20.1329746 1.51136,19.1518 L58.8,0.9716 C60.967,0.274 64.0783,0.4183 66.1275,0.9716 L123.4162,19.1518 C125.4316,21.1401 125.4316,24.392 123.4162,26.3802 L66.1275,44.5605 C63.9423,45.6632 61.3064,45.5916 58.8,44.5605 L1.51136,26.3802 C0.516767803,25.3990747 0.0129811362,24.1102173 -1.00897068e-12,22.8173315 L0,22.7147435 Z" id="path-1"></path>
        <path d="M-8.98126018e-12,1.65267998 C0.000188889274,1.34113361 0.0284894965,1.0295739 0.08482,0.7222 C0.26628,1.7137 0.73808,2.024 1.50798,2.7869 L58.8339,21.0605 C61.3419,22.0983 63.9795,22.1689 66.1661,21.0605 L123.492,2.7869 C124.2619,2.024 124.7337,1.7137 124.9152,0.7222 C124.971208,1.027846 124.999502,1.33763087 125,1.64742589 L125,1.66408827 C124.997889,2.97602909 124.497266,4.28682438 123.492,5.2829 L66.1661,23.5566 C63.9795,24.665 61.3419,24.593 58.8339,23.5566 L1.50798,5.2829 C0.501411806,4.28552653 0.000796472068,2.97261271 -1.42108547e-13,1.65896002 L0,1.65268018 L-8.98126018e-12,1.65267998 Z" id="path-3"></path>
        <polygon id="path-5" points="0 0 73 0 73 64 0 64"></polygon>
        <path d="M71.2567,0 C72.2374,0 73,0.7568 73,1.7298 L73,12 L0,12 L0,1.7298 C0,0.7568 0.7626,0 1.7433,0 L71.2567,0 Z" id="path-7"></path>
        <polygon id="path-9" points="0.3333 0 4.0333 0 4.0333 3.7 0.3333 3.7"></polygon>
        <polygon id="path-11" points="0.3333 0.7 4.0333 0.7 4.0333 4.4 0.3333 4.4"></polygon>
        <polygon id="path-13" points="0.3333 0.4 4.0333 0.4 4.0333 4.1 0.3333 4.1"></polygon>
        <polygon id="path-15" points="0 0 3.7 0 3.7 3.7 0 3.7"></polygon>
        <polygon id="path-17" points="0 0.7 3.7 0.7 3.7 4.4 0 4.4"></polygon>
        <polygon id="path-19" points="0 0.4 3.7 0.4 3.7 4.1 0 4.1"></polygon>
        <polygon id="path-21" points="0.6667 0.7 4.3667 0.7 4.3667 4.4 0.6667 4.4"></polygon>
        <polygon id="path-23" points="0.6667 0.4 4.3667 0.4 4.3667 4.1 0.6667 4.1"></polygon>
        <polygon id="path-25" points="0 0 3.7 0 3.7 3.7 0 3.7"></polygon>
        <polygon id="path-27" points="0 0.7 3.7 0.7 3.7 4.4 0 4.4"></polygon>
        <polygon id="path-29" points="0 0.4 3.7 0.4 3.7 4.1 0 4.1"></polygon>
        <polygon id="path-31" points="0.6667 0 4.3667 0 4.3667 3.7 0.6667 3.7"></polygon>
        <polygon id="path-33" points="0.6667 0.7 4.3667 0.7 4.3667 4.4 0.6667 4.4"></polygon>
        <polygon id="path-35" points="0.6667 0.4 4.3667 0.4 4.3667 4.1 0.6667 4.1"></polygon>
        <polygon id="path-37" points="0 0 3.7 0 3.7 3.7 0 3.7"></polygon>
        <polygon id="path-39" points="0 0.7 3.7 0.7 3.7 4.4 0 4.4"></polygon>
        <polygon id="path-41" points="0 0.4 3.7 0.4 3.7 4.1 0 4.1"></polygon>
        <polygon id="path-43" points="0.3333 0 4.0333 0 4.0333 3.7 0.3333 3.7"></polygon>
        <polygon id="path-45" points="0.3333 0.4 4.0333 0.4 4.0333 4.1 0.3333 4.1"></polygon>
        <polygon id="path-47" points="0 0 44 0 44 4 0 4"></polygon>
        <path d="M2,4 C0.8954,4 0,3.1046 0,2 C0,0.8954 0.8954,0 2,0 C3.1046,0 4,0.8954 4,2 C4,3.1046 3.1046,4 2,4 Z" id="path-49"></path>
        <path d="M2,4 C0.8954,4 0,3.1046 0,2 C0,0.8954 0.8954,0 2,0 C3.1046,0 4,0.8954 4,2 C4,3.1046 3.1046,4 2,4 Z" id="path-51"></path>
        <path d="M2,4 C0.8954,4 0,3.1046 0,2 C0,0.8954 0.8954,0 2,0 C3.1046,0 4,0.8954 4,2 C4,3.1046 3.1046,4 2,4 Z" id="path-53"></path>
        <path d="M4.5748,10.517 L3.2625,13.5118 L0.9659,13.5118 L6.6528,0.5349 L8.9494,0.5349 L14.6362,13.5118 L12.3396,13.5118 L11.0273,10.517 L4.5748,10.517 Z M7.8558,3.0857 L5.4498,8.4096 L10.1524,8.4096 L7.8558,3.0857 Z" id="path-55"></path>
        <path d="M2.6619,9.7409 L2.6617,13.5118 L0.4745,13.5118 L0.4745,0.5349 L4.849,0.5349 C6.8176,0.5349 8.2393,0.8679 9.1142,1.6442 C9.9892,2.4205 10.4265,3.6405 10.4265,5.1933 C10.4265,6.7461 9.989,7.8552 9.1142,8.6317 C8.2395,9.4082 6.8176,9.7409 4.9585,9.7409 L2.6619,9.7409 Z M2.6619,2.5315 L2.7712,2.5315 L2.7712,7.6335 L5.2865,7.6335 C6.4896,7.6335 7.2552,7.4116 7.6926,6.968 C8.13,6.5244 8.3488,5.859 8.3488,4.9716 C8.3488,4.0843 8.0207,3.4188 7.4738,3.0861 C6.9271,2.7534 6.0522,2.5315 4.8492,2.5315 L2.6619,2.5315 Z" id="path-57"></path>
        <polygon id="path-59" points="0.7675 0.5349 2.9547 0.5349 2.9547 13.5118 0.7675 13.5118"></polygon>
        <path d="M14.6194,37 C14.1703,37 13.7211,36.6301 13.6313,36.1675 L13.0025,33.115 C10.5772,32.3751 8.3313,31.0801 6.6245,29.3225 L3.7499,30.34 C3.211,30.5249 2.7618,30.34 2.4923,29.8775 L0.1567,25.6225 C-0.1128,25.2526 -0.0229,24.6974 0.3364,24.3275 L2.5822,22.2924 C2.3127,21.09 2.133,19.795 2.133,18.5 C2.133,17.2051 2.3127,15.9101 2.5822,14.7076 L0.3364,12.6725 C-0.023,12.395 -0.1128,11.84 0.1567,11.3775 L2.4923,7.1225 C2.7618,6.66 3.3008,6.4749 3.7499,6.66 L6.6245,7.6775 C8.4211,5.9201 10.577,4.6251 13.0025,3.885 L13.6313,0.8325 C13.7211,0.3699 14.1703,0 14.6194,0 L19.2906,0 C19.7398,0 20.189,0.3699 20.2788,0.8325 L20.9075,3.885 C23.3329,4.6249 25.5787,5.9199 27.2856,7.6775 L30.1601,6.66 C30.6991,6.4751 31.1483,6.66 31.4178,7.1225 L33.7534,11.3775 C34.0229,11.7474 33.9329,12.3026 33.5737,12.6725 L31.3279,14.7076 C31.5973,15.91 31.777,17.2051 31.777,18.5 C31.777,19.7949 31.5973,21.0899 31.3279,22.2924 L33.6636,24.3275 C33.8802925,24.4948127 33.9989793,24.763003 34,25.0509749 L34,25.0584696 C33.9993364,25.2458418 33.9489019,25.4412722 33.8433,25.6225 L31.5077,29.8775 C31.2382,30.34 30.6992,30.5251 30.2501,30.34 L27.3755,29.3225 C25.5789,31.0799 23.423,32.3749 20.9975,33.115 L20.3687,36.1675 C20.2789,36.6301 19.8297,37 19.3806,37 L14.6194,37 Z" id="path-61"></path>
        <path d="M11.9549,22.9701 C5.8463,22.9701 0.8158,17.79 0.8158,11.5 C0.8158,5.21 5.8463,0.0299 11.9549,0.0299 C18.1532,0.0299 23.094,5.21 23.094,11.5 C23.094,17.79 18.1532,22.9701 11.9549,22.9701 Z" id="path-63"></path>
        <path d="M9,16.9091 C4.457,16.9091 0.7742,13.1442 0.7742,8.5 C0.7742,3.8558 4.457,0.0909 9,0.0909 C13.543,0.0909 17.2258,3.8558 17.2258,8.5 C17.2258,13.1442 13.543,16.9091 9,16.9091 Z" id="path-65"></path>
    </defs>
    <g id="Page-1" stroke="none" stroke-width="1" fill="none" fill-rule="evenodd">
        <g id="Mobile-2.1-products" transform="translate(-97.000000, -2850.000000)">
            <g id="Group-1685" transform="translate(97.000000, 2903.000000)">
                <mask id="mask-2" fill="white">
                    <use xlink:href="#path-1"></use>
                </mask>
                <g id="Clip-1684"></g>
                <polygon id="Fill-1683" fill="#ECE8F4" mask="url(#mask-2)" points="-5.00026 50.3609 129.92774 50.3609 129.92774 -4.49902 -5.00026 -4.49902"></polygon>
            </g>
            <g id="Group-1688" transform="translate(97.000000, 2924.000000)">
                <mask id="mask-4" fill="white">
                    <use xlink:href="#path-3"></use>
                </mask>
                <g id="Clip-1687"></g>
                <polygon id="Fill-1686" fill="#98B3C5" mask="url(#mask-4)" points="-5 29.3611 130 29.3611 130 -4.27779 -5 -4.27779"></polygon>
            </g>
            <g id="Group-1723" transform="translate(118.000000, 2862.000000)">
                <mask id="mask-6" fill="white">
                    <use xlink:href="#path-5"></use>
                </mask>
                <g id="Clip-1722"></g>
                <polygon id="Fill-1721" fill="#98B3C5" mask="url(#mask-6)" points="-5 69 78 69 78 -5 -5 -5"></polygon>
            </g>
            <g id="Group-1726" transform="translate(118.000000, 2850.000000)">
                <mask id="mask-8" fill="white">
                    <use xlink:href="#path-7"></use>
                </mask>
                <g id="Clip-1725"></g>
                <polygon id="Fill-1724" fill="#4F586F" mask="url(#mask-8)" points="-5 17 78 17 78 -5 -5 -5"></polygon>
            </g>
            <g id="Group-1729" transform="translate(135.000000, 2891.000000)">
                <mask id="mask-10" fill="white">
                    <use xlink:href="#path-9"></use>
                </mask>
                <g id="Clip-1728"></g>
                <polygon id="Fill-1727" fill="#000000" mask="url(#mask-10)" points="-4.6667 8.7 9.0333 8.7 9.0333 -5 -4.6667 -5"></polygon>
            </g>
            <g id="Group-1732" transform="translate(135.000000, 2898.000000)">
                <mask id="mask-12" fill="white">
                    <use xlink:href="#path-11"></use>
                </mask>
                <g id="Clip-1731"></g>
                <polygon id="Fill-1730" fill="#000000" mask="url(#mask-12)" points="-4.6667 9.4 9.0333 9.4 9.0333 -4.3 -4.6667 -4.3"></polygon>
            </g>
            <g id="Group-1735" transform="translate(135.000000, 2906.000000)">
                <mask id="mask-14" fill="white">
                    <use xlink:href="#path-13"></use>
                </mask>
                <g id="Clip-1734"></g>
                <polygon id="Fill-1733" fill="#000000" mask="url(#mask-14)" points="-4.6667 9.1 9.0333 9.1 9.0333 -4.6 -4.6667 -4.6"></polygon>
            </g>
            <g id="Group-1738" transform="translate(127.000000, 2891.000000)">
                <mask id="mask-16" fill="white">
                    <use xlink:href="#path-15"></use>
                </mask>
                <g id="Clip-1737"></g>
                <polygon id="Fill-1736" fill="#000000" mask="url(#mask-16)" points="-5 8.7 8.7 8.7 8.7 -5 -5 -5"></polygon>
            </g>
            <g id="Group-1741" transform="translate(127.000000, 2898.000000)">
                <mask id="mask-18" fill="white">
                    <use xlink:href="#path-17"></use>
                </mask>
                <g id="Clip-1740"></g>
                <polygon id="Fill-1739" fill="#000000" mask="url(#mask-18)" points="-5 9.4 8.7 9.4 8.7 -4.3 -5 -4.3"></polygon>
            </g>
            <g id="Group-1744" transform="translate(127.000000, 2906.000000)">
                <mask id="mask-20" fill="white">
                    <use xlink:href="#path-19"></use>
                </mask>
                <g id="Clip-1743"></g>
                <polygon id="Fill-1742" fill="#000000" mask="url(#mask-20)" points="-5 9.1 8.7 9.1 8.7 -4.6 -5 -4.6"></polygon>
            </g>
            <g id="Group-1747" transform="translate(143.000000, 2898.000000)">
                <mask id="mask-22" fill="white">
                    <use xlink:href="#path-21"></use>
                </mask>
                <g id="Clip-1746"></g>
                <polygon id="Fill-1745" fill="#000000" mask="url(#mask-22)" points="-4.3333 9.4 9.3667 9.4 9.3667 -4.3 -4.3333 -4.3"></polygon>
            </g>
            <g id="Group-1750" transform="translate(143.000000, 2906.000000)">
                <mask id="mask-24" fill="white">
                    <use xlink:href="#path-23"></use>
                </mask>
                <g id="Clip-1749"></g>
                <polygon id="Fill-1748" fill="#000000" mask="url(#mask-24)" points="-4.3333 9.1 9.3667 9.1 9.3667 -4.6 -4.3333 -4.6"></polygon>
            </g>
            <g id="Group-1753" transform="translate(152.000000, 2891.000000)">
                <mask id="mask-26" fill="white">
                    <use xlink:href="#path-25"></use>
                </mask>
                <g id="Clip-1752"></g>
                <polygon id="Fill-1751" fill="#000000" mask="url(#mask-26)" points="-5 8.7 8.7 8.7 8.7 -5 -5 -5"></polygon>
            </g>
            <g id="Group-1756" transform="translate(152.000000, 2898.000000)">
                <mask id="mask-28" fill="white">
                    <use xlink:href="#path-27"></use>
                </mask>
                <g id="Clip-1755"></g>
                <polygon id="Fill-1754" fill="#000000" mask="url(#mask-28)" points="-5 9.4 8.7 9.4 8.7 -4.3 -5 -4.3"></polygon>
            </g>
            <g id="Group-1759" transform="translate(152.000000, 2906.000000)">
                <mask id="mask-30" fill="white">
                    <use xlink:href="#path-29"></use>
                </mask>
                <g id="Clip-1758"></g>
                <polygon id="Fill-1757" fill="#000000" mask="url(#mask-30)" points="-5 9.1 8.7 9.1 8.7 -4.6 -5 -4.6"></polygon>
            </g>
            <g id="Group-1762" transform="translate(168.000000, 2891.000000)">
                <mask id="mask-32" fill="white">
                    <use xlink:href="#path-31"></use>
                </mask>
                <g id="Clip-1761"></g>
                <polygon id="Fill-1760" fill="#000000" mask="url(#mask-32)" points="-4.3333 8.7 9.3667 8.7 9.3667 -5 -4.3333 -5"></polygon>
            </g>
            <g id="Group-1765" transform="translate(168.000000, 2898.000000)">
                <mask id="mask-34" fill="white">
                    <use xlink:href="#path-33"></use>
                </mask>
                <g id="Clip-1764"></g>
                <polygon id="Fill-1763" fill="#000000" mask="url(#mask-34)" points="-4.3333 9.4 9.3667 9.4 9.3667 -4.3 -4.3333 -4.3"></polygon>
            </g>
            <g id="Group-1768" transform="translate(168.000000, 2906.000000)">
                <mask id="mask-36" fill="white">
                    <use xlink:href="#path-35"></use>
                </mask>
                <g id="Clip-1767"></g>
                <polygon id="Fill-1766" fill="#000000" mask="url(#mask-36)" points="-4.3333 9.1 9.3667 9.1 9.3667 -4.6 -4.3333 -4.6"></polygon>
            </g>
            <g id="Group-1771" transform="translate(177.000000, 2891.000000)">
                <mask id="mask-38" fill="white">
                    <use xlink:href="#path-37"></use>
                </mask>
                <g id="Clip-1770"></g>
                <polygon id="Fill-1769" fill="#000000" mask="url(#mask-38)" points="-5 8.7 8.7 8.7 8.7 -5 -5 -5"></polygon>
            </g>
            <g id="Group-1774" transform="translate(177.000000, 2898.000000)">
                <mask id="mask-40" fill="white">
                    <use xlink:href="#path-39"></use>
                </mask>
                <g id="Clip-1773"></g>
                <polygon id="Fill-1772" fill="#000000" mask="url(#mask-40)" points="-5 9.4 8.7 9.4 8.7 -4.3 -5 -4.3"></polygon>
            </g>
            <g id="Group-1777" transform="translate(177.000000, 2906.000000)">
                <mask id="mask-42" fill="white">
                    <use xlink:href="#path-41"></use>
                </mask>
                <g id="Clip-1776"></g>
                <polygon id="Fill-1775" fill="#000000" mask="url(#mask-42)" points="-5 9.1 8.7 9.1 8.7 -4.6 -5 -4.6"></polygon>
            </g>
            <g id="Group-1780" transform="translate(160.000000, 2891.000000)">
                <mask id="mask-44" fill="white">
                    <use xlink:href="#path-43"></use>
                </mask>
                <g id="Clip-1779"></g>
                <polygon id="Fill-1778" fill="#000000" mask="url(#mask-44)" points="-4.6667 8.7 9.0333 8.7 9.0333 -5 -4.6667 -5"></polygon>
            </g>
            <g id="Group-1783" transform="translate(160.000000, 2906.000000)">
                <mask id="mask-46" fill="white">
                    <use xlink:href="#path-45"></use>
                </mask>
                <g id="Clip-1782"></g>
                <polygon id="Fill-1781" fill="#000000" mask="url(#mask-46)" points="-4.6667 9.1 9.0333 9.1 9.0333 -4.6 -4.6667 -4.6"></polygon>
            </g>
            <g id="Group-1786" transform="translate(143.000000, 2854.000000)">
                <mask id="mask-48" fill="white">
                    <use xlink:href="#path-47"></use>
                </mask>
                <g id="Clip-1785"></g>
                <polygon id="Fill-1784" fill="#F4F5F9" mask="url(#mask-48)" points="-5 9 49 9 49 -5 -5 -5"></polygon>
            </g>
            <g id="Group-1789" transform="translate(135.000000, 2854.000000)">
                <mask id="mask-50" fill="white">
                    <use xlink:href="#path-49"></use>
                </mask>
                <g id="Clip-1788"></g>
                <polygon id="Fill-1787" fill="#DBCB32" mask="url(#mask-50)" points="-5 9 9 9 9 -5 -5 -5"></polygon>
            </g>
            <g id="Group-1792" transform="translate(128.000000, 2854.000000)">
                <mask id="mask-52" fill="white">
                    <use xlink:href="#path-51"></use>
                </mask>
                <g id="Clip-1791"></g>
                <polygon id="Fill-1790" fill="#9ECCC7" mask="url(#mask-52)" points="-5 9 9 9 9 -5 -5 -5"></polygon>
            </g>
            <g id="Group-1795" transform="translate(121.000000, 2854.000000)">
                <mask id="mask-54" fill="white">
                    <use xlink:href="#path-53"></use>
                </mask>
                <g id="Clip-1794"></g>
                <polygon id="Fill-1793" fill="#793A78" mask="url(#mask-54)" points="-5 9 9 9 9 -5 -5 -5"></polygon>
            </g>
            <g id="Group-1798" transform="translate(137.000000, 2869.000000)">
                <mask id="mask-56" fill="white">
                    <use xlink:href="#path-55"></use>
                </mask>
                <g id="Clip-1797"></g>
                <polygon id="Fill-1796" fill="#000000" mask="url(#mask-56)" points="-4.0341 18.5118 19.63616 18.5118 19.63616 -4.46504 -4.0341 -4.46504"></polygon>
            </g>
            <g id="Group-1801" transform="translate(154.000000, 2869.000000)">
                <mask id="mask-58" fill="white">
                    <use xlink:href="#path-57"></use>
                </mask>
                <g id="Clip-1800"></g>
                <polygon id="Fill-1799" fill="#000000" mask="url(#mask-58)" points="-4.5255 18.5118 15.42658 18.5118 15.42658 -4.46504 -4.5255 -4.46504"></polygon>
            </g>
            <g id="Group-1804" transform="translate(167.000000, 2869.000000)">
                <mask id="mask-60" fill="white">
                    <use xlink:href="#path-59"></use>
                </mask>
                <g id="Clip-1803"></g>
                <polygon id="Fill-1802" fill="#000000" mask="url(#mask-60)" points="-4.2325 18.5118 7.95476 18.5118 7.95476 -4.46504 -4.2325 -4.46504"></polygon>
            </g>
            <g id="Group-1807" transform="translate(167.000000, 2896.000000)">
                <mask id="mask-62" fill="white">
                    <use xlink:href="#path-61"></use>
                </mask>
                <g id="Clip-1806"></g>
                <polygon id="Fill-1805" fill="#4EA098" mask="url(#mask-62)" points="-5 42 39 42 39 -5 -5 -5"></polygon>
            </g>
            <g id="Group-1810" transform="translate(172.000000, 2903.000000)">
                <mask id="mask-64" fill="white">
                    <use xlink:href="#path-63"></use>
                </mask>
                <g id="Clip-1809"></g>
                <polygon id="Fill-1808" fill="#9ECCC7" mask="url(#mask-64)" points="-4.1842 27.9701 28.09407 27.9701 28.09407 -4.97008 -4.1842 -4.97008"></polygon>
            </g>
            <g id="Group-1813" transform="translate(175.000000, 2906.000000)">
                <mask id="mask-66" fill="white">
                    <use xlink:href="#path-65"></use>
                </mask>
                <g id="Clip-1812"></g>
                <polygon id="Fill-1811" fill="#4EA098" mask="url(#mask-66)" points="-4.2258 21.9091 22.22581 21.9091 22.22581 -4.90908 -4.2258 -4.90908"></polygon>
            </g>
        </g>
    </g>
</svg>