<?xml version="1.0" encoding="UTF-8"?>
<svg width="125px" height="99px" viewBox="0 0 125 99" version="1.1" xmlns="http://www.w3.org/2000/svg" xmlns:xlink="http://www.w3.org/1999/xlink">
    <!-- Generator: Sketch 51.2 (57519) - http://www.bohemiancoding.com/sketch -->
    <title>icon_AOI</title>
    <desc>Created with Sketch.</desc>
    <defs></defs>
    <g id="Welcome" stroke="none" stroke-width="1" fill="none" fill-rule="evenodd">
        <g id="Desktop-2.1-products" transform="translate(-973.000000, -1315.000000)">
            <g id="icon_AOI" transform="translate(973.000000, 1315.000000)">
                <g id="floor" transform="translate(0.000000, 53.000000)" fill-rule="evenodd">
                    <path d="M66.1275175,0.971622222 C64.0783492,0.418344444 60.9670329,0.273955556 58.799992,0.971622222 L1.51135881,19.1518444 C-0.504131682,21.1400667 -0.504131682,24.3920111 1.51135881,26.3802333 L58.799992,44.5604556 C61.3064021,45.5916222 63.9423424,45.6631778 66.1275175,44.5604556 L123.416151,26.3802333 C125.431641,24.3920111 125.431641,21.1400667 123.416151,19.1518444 L66.1275175,0.971622222 Z" id="Fill-1" fill="#ECE8F4"></path>
                    <path d="M66.1661442,42.0605155 C63.9795487,43.1689039 61.3418951,43.098265 58.8338558,42.0605155 L1.50798489,23.7868764 C0.738075168,23.0239763 0.266278636,22.7137354 0.0848184319,21.7222222 C-0.209406328,23.3276516 0.261094059,25.0473875 1.50798489,26.2829259 L58.8338558,44.556565 C61.3418951,45.5930302 63.9795487,45.6649535 66.1661442,44.556565 L123.492015,26.2829259 C124.738906,25.0473875 125.209406,23.3276516 124.915182,21.7222222 C124.733721,22.7137354 124.261925,23.0239763 123.492015,23.7868764 L66.1661442,42.0605155 Z" id="Fill-4" fill="#98B3C5"></path>
                </g>
                <g id="icon-aip" transform="translate(21.000000, 0.000000)">
                    <rect id="Rectangle-6" fill="#98B3C5" fill-rule="nonzero" x="0" y="12" width="73" height="64"></rect>
                    <path d="M73,1.72977177 C73,0.756842452 72.2373977,0 71.2566505,0 L1.74334946,0 C0.762602335,-5.9776897e-17 0,0.756842452 0,1.72977177 L0,12 L73,12 L73,1.72977177 Z" id="Shape" fill="#4F586F" fill-rule="nonzero"></path>
                    <g id="Group-3" stroke-width="1" fill-rule="evenodd" transform="translate(17.333333, 41.000000)" fill="#000000">
                        <polygon id="Fill-38" points="0 3.7 3.7 3.7 3.7 0 0 0"></polygon>
                        <polygon id="Fill-39" points="0 11.4 3.7 11.4 3.7 7.7 0 7.7"></polygon>
                        <polygon id="Fill-40" points="0 19.1 3.7 19.1 3.7 15.4 0 15.4"></polygon>
                    </g>
                    <g id="Group-3" stroke-width="1" fill-rule="evenodd" transform="translate(9.000000, 41.000000)" fill="#000000">
                        <polygon id="Fill-38" points="0 3.7 3.7 3.7 3.7 0 0 0"></polygon>
                        <polygon id="Fill-39" points="0 11.4 3.7 11.4 3.7 7.7 0 7.7"></polygon>
                        <polygon id="Fill-40" points="0 19.1 3.7 19.1 3.7 15.4 0 15.4"></polygon>
                    </g>
                    <g id="Group-3" stroke-width="1" fill-rule="evenodd" transform="translate(25.666667, 48.000000)" fill="#000000">
                        <polygon id="Fill-39" points="0 4.4 3.7 4.4 3.7 0.7 0 0.7"></polygon>
                        <polygon id="Fill-40" points="0 12.1 3.7 12.1 3.7 8.4 0 8.4"></polygon>
                    </g>
                    <g id="Group-3" stroke-width="1" fill-rule="evenodd" transform="translate(34.000000, 41.000000)" fill="#000000">
                        <polygon id="Fill-38" points="0 3.7 3.7 3.7 3.7 0 0 0"></polygon>
                        <polygon id="Fill-39" points="0 11.4 3.7 11.4 3.7 7.7 0 7.7"></polygon>
                        <polygon id="Fill-40" points="0 19.1 3.7 19.1 3.7 15.4 0 15.4"></polygon>
                    </g>
                    <g id="Group-3" stroke-width="1" fill-rule="evenodd" transform="translate(50.666667, 41.000000)" fill="#000000">
                        <polygon id="Fill-38" points="0 3.7 3.7 3.7 3.7 0 0 0"></polygon>
                        <polygon id="Fill-39" points="0 11.4 3.7 11.4 3.7 7.7 0 7.7"></polygon>
                        <polygon id="Fill-40" points="0 19.1 3.7 19.1 3.7 15.4 0 15.4"></polygon>
                    </g>
                    <g id="Group-3" stroke-width="1" fill-rule="evenodd" transform="translate(59.000000, 41.000000)" fill="#000000">
                        <polygon id="Fill-38" points="0 3.7 3.7 3.7 3.7 0 0 0"></polygon>
                        <polygon id="Fill-39" points="0 11.4 3.7 11.4 3.7 7.7 0 7.7"></polygon>
                        <polygon id="Fill-40" points="0 19.1 3.7 19.1 3.7 15.4 0 15.4"></polygon>
                    </g>
                    <g id="Group-3" stroke-width="1" fill-rule="evenodd" transform="translate(42.333333, 41.000000)" fill="#000000">
                        <polygon id="Fill-38" points="0 3.7 3.7 3.7 3.7 0 0 0"></polygon>
                        <polygon id="Fill-40" points="0 19.1 3.7 19.1 3.7 15.4 0 15.4"></polygon>
                    </g>
                    <rect id="Rectangle-path" fill="#F4F5F9" fill-rule="nonzero" x="25" y="4" width="44" height="4"></rect>
                    <circle id="Oval" fill="#DBCB32" fill-rule="nonzero" cx="19" cy="6" r="2"></circle>
                    <circle id="Oval" fill="#9ECCC7" fill-rule="nonzero" cx="12" cy="6" r="2"></circle>
                    <circle id="Oval" fill="#793A78" fill-rule="nonzero" cx="5" cy="6" r="2"></circle>
                    <path d="M23.5748275,29.5170239 L30.0273187,29.5170239 L31.3396405,32.5117785 L33.6362038,32.5117785 L27.9493547,19.5349384 L25.6527915,19.5349384 L19.9659425,32.5117785 L22.2625057,32.5117785 L23.5748275,29.5170239 Z M26.8558137,22.085746 L29.1523769,27.4096109 L24.4497693,27.4096109 L26.8558137,22.085746 Z" id="Shape" fill="#000000" fill-rule="nonzero"></path>
                    <path d="M38.661902,28.7408993 L40.9584652,28.7408993 C42.8176484,28.7408993 44.2394514,28.4081693 45.1142116,27.6316764 C45.9889718,26.8551835 46.4265334,25.7461448 46.4265334,24.1933432 C46.4265334,22.6405416 45.9891534,21.42047 45.1142116,20.6441613 C44.2392699,19.8678525 42.8176484,19.5349384 40.848984,19.5349384 L36.4744568,19.5349384 L36.4744568,32.5117785 L38.6617204,32.5117785 L38.661902,28.7408993 Z M38.661902,21.5315028 L40.8491656,21.5315028 C42.0521878,21.5315028 42.9271296,21.7533842 43.4738093,22.0861142 C44.0206706,22.4188443 44.348751,23.0843044 44.348751,23.9716459 C44.348751,24.8589874 44.1299702,25.5244475 43.6925901,25.9680262 C43.25521,26.4116049 42.4895679,26.6334863 41.2865457,26.6334863 L38.7712016,26.6334863 L38.7712016,21.5315028 L38.661902,21.5315028 Z" id="Shape" fill="#000000" fill-rule="nonzero"></path>
                    <rect id="Rectangle-path" fill="#000000" fill-rule="nonzero" x="49.7674692" y="19.5349384" width="2.1872636" height="12.9768401"></rect>
                    <g id="Group-4" stroke-width="1" fill-rule="evenodd" transform="translate(49.000000, 46.000000)">
                        <path d="M31.3278505,22.2924463 C31.5973361,21.0898771 31.7770429,19.7948618 31.7770429,18.5 C31.7770429,17.2051382 31.5973361,15.9099693 31.3278505,14.7075537 L33.5736634,12.6725077 C33.9329278,12.3025691 34.0228558,11.7474309 33.7533701,11.3774923 L31.4177785,7.12250768 C31.1482929,6.65996929 30.6991005,6.47507678 30.1601292,6.65996929 L27.2855663,7.67749232 C25.5787247,5.91993857 23.3329119,4.62492322 20.9075414,3.88504607 L20.2787913,0.832476965 C20.1890125,0.369938574 19.7398201,0 19.2906277,0 L14.6194443,0 C14.1702519,0 13.7210596,0.369938574 13.6312807,0.832476965 L13.0025307,3.88504607 C10.577011,4.62507678 8.42112615,5.92009214 6.6245057,7.67749232 L3.7499428,6.65996929 C3.30075041,6.47492322 2.76177918,6.65996929 2.49229357,7.12250768 L0.156701896,11.3774923 C-0.112783715,11.8400307 -0.0230048891,12.3950154 0.336408682,12.6725077 L2.58222153,14.7075537 C2.31273592,15.9101229 2.13302913,17.2051382 2.13302913,18.5 C2.13302913,19.7950154 2.31273592,21.0900307 2.58222153,22.2924463 L0.336408682,24.3274923 C-0.0228557549,24.6974309 -0.112783715,25.2525691 0.156701896,25.6225077 L2.49229357,29.8774923 C2.76177918,30.3400307 3.21097158,30.5249232 3.7499428,30.3400307 L6.6245057,29.3225077 C8.33134733,31.0800614 10.5771602,32.3750768 13.0025307,33.1149539 L13.6312807,36.167523 C13.7210596,36.6300614 14.1702519,37 14.6194443,37 L19.3805557,37 C19.8297481,37 20.2789404,36.6300614 20.3687193,36.167523 L20.9974693,33.1149539 C23.422989,32.3749232 25.5788738,31.0799079 27.3754943,29.3225077 L30.2500572,30.3400307 C30.6992496,30.5250768 31.2382208,30.3400307 31.5077064,29.8774923 L33.8432981,25.6225077 C34.1127837,25.1599693 34.0230049,24.6049846 33.6635913,24.3274923 L31.3278505,22.2924463 Z" id="Shape" fill="#4EA098" fill-rule="nonzero"></path>
                        <path d="M16.9548869,29.9700921 C10.8463475,29.9700921 5.8157506,24.7900307 5.8157506,18.5 C5.8157506,12.2099693 10.8463475,7.02990786 16.9548869,7.02990786 C23.1532051,7.02990786 28.0940232,12.2099693 28.0940232,18.5 C28.0940232,24.7900307 23.1532051,29.9700921 16.9548869,29.9700921 Z" id="Path" fill="#9ECCC7" fill-rule="nonzero"></path>
                        <ellipse id="Oval" fill="#4EA098" fill-rule="nonzero" cx="17" cy="18.5" rx="8.22580645" ry="8.40909091"></ellipse>
                    </g>
                </g>
            </g>
        </g>
    </g>
</svg>