
<svg width="133px" height="109px" viewBox="0 0 133 109" version="1.1" xmlns="http://www.w3.org/2000/svg" xmlns:xlink="http://www.w3.org/1999/xlink">
    <!-- Generator: Sketch 51.2 (57519) - http://www.bohemiancoding.com/sketch -->
    <desc>Created with Sketch.</desc>
    <defs>
        <path d="M-1.03739239e-12,22.7147075 C0.0129811362,21.4218583 0.516767803,20.1330266 1.51136,19.152 L58.8,0.972 C60.967,0.274 64.0783,0.418 66.1275,0.972 L123.4162,19.152 C125.4316,21.14 125.4316,24.392 123.4162,26.38 L66.1275,44.56 C63.9423,45.663 61.3064,45.592 58.8,44.56 L1.51136,26.38 C0.516767803,25.3989734 0.0129811362,24.1101417 -1.00897068e-12,22.8172925 L0,22.7147074 Z" id="path-1"></path>
        <path d="M-4.40536496e-12,1.65265204 C0.000188889731,1.34108108 0.028489497,1.02946963 0.08482,0.722 C0.26628,1.714 0.73808,2.024 1.50798,2.787 L58.8339,21.061 C61.3419,22.098 63.9795,22.169 66.1661,21.061 L123.492,2.787 C124.2619,2.024 124.7337,1.714 124.9152,0.722 C124.971208,1.02774118 124.999502,1.33757775 125,1.64739754 L125,1.66406122 C124.997889,2.97610285 124.497266,4.28652128 123.492,5.283 L66.1661,23.557 C63.9795,24.665 61.3419,24.593 58.8339,23.557 L1.50798,5.283 C0.501411806,4.2852229 0.000796472068,2.97268745 -1.42108547e-13,1.65893257 L0,1.65265204 Z" id="path-3"></path>
        <path d="M94.9742,53.579 C94.9816,55.153 95.0169,56.729 94.9901,58.303 C94.9495,60.711 93.4301,62.345 90.864,62.694 C89.6356,62.862 88.3865,62.968 87.1464,62.971 C77.8488,62.994 68.5501,63.035 59.2535,62.943 L32.4367,62.984 C24.1794,62.984 15.922,62.995 7.6652,62.971 C6.4942,62.968 5.3153,62.858 4.1564,62.694 C1.5998,62.331 0.0667,60.696 0.0135,58.297 C-0.0218,56.723 0.0224,55.148 0.0314,53.573 C0.0256,37.414 0.0114,21.254 0.0219,5.094 C0.024,1.765 1.9097,0.008 5.4581,0.007 C33.5092,-0.003 61.5602,-0.002 89.6108,0.008 C93.1845,0.009 94.9858,1.731 94.9864,5.1 C94.989,21.26 94.9795,37.419 94.9742,53.579 Z" id="path-5"></path>
        <path d="M101.7294,5 C101.686,7.626 100.0647,9.409 97.325,9.789 C96.0138,9.972 94.6808,10.088 93.3574,10.092 C83.4334,10.116 75.6942,10.161 65.7708,10.061 C58.9575,10.061 60.6928,14.727 61.4486,16.936 C63.0397,21.586 63.4743,21.884 71.0545,21.884 C71.5909,21.884 71.4774,24.042 71.4774,25.534 C71.4774,27 71.4382,27 71.0105,27 C58.7911,27 43.8379,26.946 31.6174,26.993 C30.594,26.993 30.6475,26.948 30.6475,25.934 C30.6475,24.678 30.4159,21.917 31.2358,21.917 C37.7565,21.917 40.22,21.962 41.9436,16.936 C44.1145,10.608 41.5837,10.105 34.9618,10.105 C26.1482,10.105 17.3347,10.117 8.5216,10.091 C7.2719,10.088 6.0126,9.968 4.776,9.789 C2.0475,9.394 0.4114,7.61 0.3547,4.993 C0.3165,3.277 0.3637,1.718 0.3732,0 C1.1826,0.055 1.9924,0 2.8023,0 C34.9623,0.008 67.1223,0.008 99.2829,0.001 C100.0922,0.001 100.9026,0.054 101.7119,0.001 C101.7204,1.718 101.758,3.283 101.7294,5 Z" id="path-7"></path>
        <path d="M95.6246,55.67 C96.4014,55.67 96.4125,55.312 96.403,53.758 C96.3086,38.318 96.4125,22.877 96.4563,7.437 C96.4606,5.963 96.1289,5.394 94.5087,5.396 C65.4165,5.441 36.3249,5.439 7.2327,5.397 C5.6727,5.395 5.2375,5.86 5.2423,7.396 C5.293,22.909 5.2919,38.423 5.2919,53.936 C5.2919,54.706 5.2117,55.67 6.0424,55.67 C35.9029,55.67 65.764,55.67 95.6246,55.67 Z M0.3506,60.635 C0.3448,42.547 0.3289,24.296 0.3405,6.207 C0.3432,2.481 2.3562,0.514 6.1447,0.513 C36.0937,0.502 66.0421,0.503 95.9911,0.514 C99.8056,0.516 101.7295,2.443 101.7301,6.214 C101.7327,24.302 101.7226,42.547 101.7168,60.636 C101.7168,60.644 0.3405,60.636 0.3506,60.635 Z" id="path-9"></path>
        <path d="M6,3 C6,4.657 4.657,6 3.0002,6 C1.343,6 0,4.657 0,3 C0,1.343 1.343,0 3.0002,0 C4.657,0 6,1.343 6,3 Z" id="path-11"></path>
        <path d="M0.5,6.053 C7.5148,5.043 12.5986,2.62 15.75,0.5 C18.9019,2.62 23.9847,5.043 31,6.053 L31,18.774 C31,26.851 27.3397,34.423 21.3418,39.168 C19.6134,40.582 17.6814,41.692 15.75,42.5 C13.8186,41.692 11.9884,40.582 10.1582,39.168 C4.058,34.524 0.5,26.851 0.5,18.774 L0.5,6.053 Z" id="path-13"></path>
        <path d="M1.6,9.533 L1.6,17.513 C1.6,18.031 1.9995,18.342 2.4,18.342 L11.7001,18.342 C12.2008,18.342 12.5006,17.927 12.5006,17.513 L12.5006,9.533 C12.5006,9.015 12.1001,8.704 11.7001,8.704 L2.4,8.704 C1.8999,8.704 1.6,9.119 1.6,9.533 Z M3.8999,3.937 L3.7997,7.15 L10,7.15 L10,3.937 C10,2.59 9.0003,1.554 7.7001,1.554 L6.2003,1.554 C4.9001,1.554 3.8999,2.59 3.8999,3.937 Z M2.4,20 C1.0999,20 0.0996,18.86 0,17.616 L0,9.637 C0,8.29 0.9997,7.253 2.2999,7.253 L2.2999,4.041 C2.2999,1.761 4.1001,0 6.2003,0 L7.8003,0 C10,0 11.7001,1.865 11.7001,4.041 L11.7001,7.253 C13.0003,7.253 14,8.29 14,9.637 L14,17.616 C14,18.963 13.0003,20 11.7001,20 L2.4,20 Z" id="path-15"></path>
        <path d="M2.9979,2.048 C2.5699,2.048 2.1418,2.339 2.1418,2.822 C2.1418,3.306 2.5699,3.597 2.9979,3.597 C3.5331,3.597 3.8546,3.21 3.8546,2.822 C3.8546,2.339 3.426,2.048 2.9979,2.048 Z M2.1418,4.855 C1.0714,4.468 0.3224,3.403 0.5367,2.339 C0.7505,1.274 1.8203,0.5 2.9979,0.5 C4.1755,0.5 5.2454,1.274 5.4591,2.339 C5.6734,3.403 5.0311,4.468 3.8546,4.855 L3.8546,5.726 C3.8546,6.21 3.426,6.5 2.9979,6.5 C2.4627,6.5 2.1418,6.113 2.1418,5.726 L2.1418,4.855 Z" id="path-17"></path>
        <path d="M37.1052,11.769 C29.7485,10.765 24.6781,8.157 21.4969,6.15 C21.1988,5.95 20.7011,5.95 20.403,6.15 C17.3214,8.157 12.2515,10.866 4.8938,11.769 C4.3971,11.869 4,12.271 4,12.772 L4,26.316 C4,34.944 7.8764,43.171 14.2393,48.187 C16.228,49.793 18.4148,50.997 20.6021,51.9 C20.8012,52 20.8012,52 20.9997,52 C21.1988,52 21.2979,51.9 21.3974,51.9 C23.5847,50.997 25.7715,49.793 27.7597,48.187 C34.2221,43.171 38,34.944 38,26.316 L38,12.772 C38,12.271 37.6024,11.869 37.1052,11.769 Z M0,7.581 C12.2998,7.379 18.9002,2.022 21.0003,0 C23.0998,2.022 29.7998,7.278 42,7.581 L42,25.877 C42,35.783 37.6002,45.184 30.2003,51.047 C27.2998,53.271 24.2001,54.989 21.0003,56 C17.7999,54.989 14.7002,53.372 11.8002,51.047 C4.3998,45.285 0,35.783 0,25.877 L0,7.581 Z" id="path-19"></path>
    </defs>
    <g id="Page-1" stroke="none" stroke-width="1" fill="none" fill-rule="evenodd">
        <g id="Mobile-2.1-products" transform="translate(-92.000000, -2435.000000)">
            <g id="Group-1646" transform="translate(97.000000, 2498.000000)">
                <mask id="mask-2" fill="white">
                    <use xlink:href="#path-1"></use>
                </mask>
                <g id="Clip-1645"></g>
                <polygon id="Fill-1644" fill="#ECE8F4" mask="url(#mask-2)" points="-5.00026 50.361 129.92774 50.361 129.92774 -4.49892 -5.00026 -4.49892"></polygon>
            </g>
            <g id="Group-1649" transform="translate(97.000000, 2519.000000)">
                <mask id="mask-4" fill="white">
                    <use xlink:href="#path-3"></use>
                </mask>
                <g id="Clip-1648"></g>
                <polygon id="Fill-1647" fill="#98B3C5" mask="url(#mask-4)" points="-5 29.361 130 29.361 130 -4.27789 -5 -4.27789"></polygon>
            </g>
            <g id="Group-1652" transform="translate(112.000000, 2437.000000)">
                <mask id="mask-6" fill="white">
                    <use xlink:href="#path-5"></use>
                </mask>
                <g id="Clip-1651"></g>
                <polygon id="Fill-1650" fill="#FEFEFE" mask="url(#mask-6)" points="-5 68 100 68 100 -5 -5 -5"></polygon>
            </g>
            <g id="Group-1655" transform="translate(107.000000, 2495.000000)">
                <mask id="mask-8" fill="white">
                    <use xlink:href="#path-7"></use>
                </mask>
                <g id="Clip-1654"></g>
                <polygon id="Fill-1653" fill="#98B3C5" mask="url(#mask-8)" points="-4.66 32 106.74 32 106.74 -5 -4.66 -5"></polygon>
            </g>
            <g id="Group-1658" transform="translate(107.000000, 2435.000000)">
                <mask id="mask-10" fill="white">
                    <use xlink:href="#path-9"></use>
                </mask>
                <g id="Clip-1657"></g>
                <polygon id="Fill-1656" fill="#4F586F" mask="url(#mask-10)" points="-4.6636 65.639 106.7305 65.639 106.7305 -4.49539 -4.6636 -4.49539"></polygon>
            </g>
            <g id="Group-1661" transform="translate(155.000000, 2498.000000)">
                <mask id="mask-12" fill="white">
                    <use xlink:href="#path-11"></use>
                </mask>
                <g id="Clip-1660"></g>
                <polygon id="Fill-1659" fill="#425D67" mask="url(#mask-12)" points="-5 11 11 11 11 -5 -5 -5"></polygon>
            </g>
            <g id="Group-1664" transform="translate(142.000000, 2445.000000)">
                <mask id="mask-14" fill="white">
                    <use xlink:href="#path-13"></use>
                </mask>
                <g id="Clip-1663"></g>
                <polygon id="Fill-1662" fill="#DBCB32" mask="url(#mask-14)" points="-4.5 47.5 36 47.5 36 -4.5 -4.5 -4.5"></polygon>
            </g>
            <g id="Group-1667" transform="translate(151.000000, 2455.000000)">
                <mask id="mask-16" fill="white">
                    <use xlink:href="#path-15"></use>
                </mask>
                <g id="Clip-1666"></g>
                <polygon id="Fill-1665" fill="#000000" mask="url(#mask-16)" points="-5 25 19 25 19 -5 -5 -5"></polygon>
            </g>
            <g id="Group-1670" transform="translate(155.000000, 2465.000000)">
                <mask id="mask-18" fill="white">
                    <use xlink:href="#path-17"></use>
                </mask>
                <g id="Clip-1669"></g>
                <polygon id="Fill-1668" fill="#000000" mask="url(#mask-18)" points="-4.5 11.5 10.5 11.5 10.5 -4.5 -4.5 -4.5"></polygon>
            </g>
            <g id="Group-1679" transform="translate(94.000000, 2449.000000)" stroke="#DBCB32" stroke-linecap="round" stroke-linejoin="round" stroke-width="3">
                <path d="M11.824321,0 C10.795571,0.3196277 -23.53826,4.412274 44.17376,17.75745" id="Stroke-1671"></path>
                <path d="M11.634,37 C10.50299,36.67823 -29.24936,26.874019 45,22" id="Stroke-1673"></path>
                <path d="M116.07936,0 C117.26494,0.3196277 160.82353,5.184337 84,18.52951" id="Stroke-1675"></path>
                <path d="M116.30537,37 C117.42488,36.67823 156.96866,26.92152 84,22" id="Stroke-1677"></path>
            </g>
            <g id="Group-1682" transform="translate(137.000000, 2438.000000)">
                <mask id="mask-20" fill="white">
                    <use xlink:href="#path-19"></use>
                </mask>
                <g id="Clip-1681"></g>
                <polygon id="Fill-1680" fill="#9ECCC7" mask="url(#mask-20)" points="-5 61 47 61 47 -5 -5 -5"></polygon>
            </g>
        </g>
    </g>
</svg>