<?xml version="1.0" encoding="UTF-8"?>
<svg width="133px" height="109px" viewBox="0 0 133 109" version="1.1" xmlns="http://www.w3.org/2000/svg" xmlns:xlink="http://www.w3.org/1999/xlink">
    <!-- Generator: Sketch 51.2 (57519) - http://www.bohemiancoding.com/sketch -->
    <title>Data-fence</title>
    <desc>Created with Sketch.</desc>
    <defs></defs>
    <g id="Welcome" stroke="none" stroke-width="1" fill="none" fill-rule="evenodd">
        <g id="Desktop-2.1-products" transform="translate(-968.000000, -1002.000000)">
            <g id="Data-fence" transform="translate(972.000000, 1002.000000)">
                <g id="floor" transform="translate(1.000000, 63.000000)">
                    <path d="M66.1275175,0.971622222 C64.0783492,0.418344444 60.9670329,0.273955556 58.799992,0.971622222 L1.51135881,19.1518444 C-0.504131682,21.1400667 -0.504131682,24.3920111 1.51135881,26.3802333 L58.799992,44.5604556 C61.3064021,45.5916222 63.9423424,45.6631778 66.1275175,44.5604556 L123.416151,26.3802333 C125.431641,24.3920111 125.431641,21.1400667 123.416151,19.1518444 L66.1275175,0.971622222 Z" id="Fill-1" fill="#ECE8F4"></path>
                    <path d="M66.1661442,42.0605155 C63.9795487,43.1689039 61.3418951,43.098265 58.8338558,42.0605155 L1.50798489,23.7868764 C0.738075168,23.0239763 0.266278636,22.7137354 0.0848184319,21.7222222 C-0.209406328,23.3276516 0.261094059,25.0473875 1.50798489,26.2829259 L58.8338558,44.556565 C61.3418951,45.5930302 63.9795487,45.6649535 66.1661442,44.556565 L123.492015,26.2829259 C124.738906,25.0473875 125.209406,23.3276516 124.915182,21.7222222 C124.733721,22.7137354 124.261925,23.0239763 123.492015,23.7868764 L66.1661442,42.0605155 Z" id="Fill-4" fill="#98B3C5"></path>
                </g>
                <g id="icon-auth" stroke-width="1">
                    <g id="Group-26" transform="translate(-2.000000, 0.000000)">
                        <path d="M112.974245,55.5790197 C112.979515,39.4192666 112.989001,23.2595134 112.986366,7.10027419 C112.985839,3.73149585 111.184491,2.00907043 107.61078,2.00804242 C79.5602354,1.99776235 51.5091636,1.99724835 23.4580917,2.00701441 C19.909678,2.00804242 18.0240068,3.76542008 18.0218987,7.09410615 C18.0113584,23.2538593 18.0255879,39.4136125 18.0313851,55.5733657 C18.0224258,57.1477581 17.9781562,58.7231786 18.0134665,60.297057 C18.0666953,62.6964249 19.5997913,64.3314698 22.1563567,64.6938422 C23.3152698,64.8583233 24.4942095,64.967806 25.665244,64.971404 C33.9220385,64.9945342 42.17936,64.9837401 50.4366815,64.9837401 L77.2534767,64.9431338 C86.5500781,65.0346265 95.8487876,64.9935062 105.146443,64.971404 C106.386517,64.96832 107.63555,64.8619213 108.86403,64.6943562 C111.430081,64.3453479 112.949475,62.710817 112.990055,60.3032251 C113.016933,58.7288326 112.981623,57.1534122 112.974245,55.5790197" id="Fill-1" fill="#FEFEFE"></path>
                        <path d="M114.729428,65.000019 C114.685967,67.6260794 113.064662,69.408726 110.325034,69.7894407 C109.013785,69.9718558 107.680807,70.0881711 106.357368,70.0917579 C96.4334357,70.1163532 88.6942097,70.1609322 78.7708069,70.0605014 C71.9575109,70.0605014 73.6927681,74.7274591 74.4485643,76.9364242 C76.0396584,81.5859602 76.4742677,81.8841782 84.0544902,81.8841782 C84.5908617,81.8841782 84.4774393,84.0419031 84.4774393,85.5340178 C84.4774393,87 84.4382185,87 84.0104993,87 C71.7910873,87 56.8378767,86.9461978 44.6174046,86.9928264 C43.5939527,86.9928264 43.6474838,86.9482474 43.6474838,85.9336914 C43.6474838,84.677794 43.4158689,81.9174843 44.2357965,81.9174843 C50.7565263,81.9174843 53.2200191,81.9615509 54.943616,76.9364242 C57.1145426,70.6077468 54.5837383,70.1050804 47.9617763,70.1050804 C39.1482174,70.1050804 30.3346584,70.1168656 21.5216294,70.0912455 C20.2718626,70.0881711 19.0125556,69.968269 17.7760391,69.7889283 C15.0475406,69.3938664 13.4113955,67.6101949 13.3546843,64.9933578 C13.3165235,63.276811 13.3636945,61.7175716 13.3732347,60 C14.1825621,60.0553394 14.9924194,60 15.8022768,60 C47.9623064,60.0081984 80.1223359,60.0081984 112.282895,60.0005124 C113.092223,60.0005124 113.90261,60.0538022 114.711938,60.0005124 C114.720418,61.718084 114.758049,63.2829598 114.729428,65.000019 Z" id="Fill-3" fill="#98B3C5"></path>
                        <path d="M108.624595,55.6701776 C109.401422,55.6701776 109.412512,55.3124104 109.403006,53.7576172 C109.308611,38.3178567 109.412512,22.877419 109.456344,7.4370569 C109.460569,5.96253966 109.128925,5.3935569 107.508732,5.39618621 C78.4165395,5.44141034 49.3248752,5.4393069 20.2326829,5.39723793 C18.6726921,5.39513448 18.2375423,5.85999655 18.2422951,7.39551379 C18.2929922,22.9089707 18.291936,38.4229534 18.291936,53.9364103 C18.291936,54.7062724 18.2116656,55.6701776 19.0423581,55.6701776 C48.9029278,55.6701776 78.7640256,55.6701776 108.624595,55.6701776 Z M13.3506121,60.6353672 C13.3447804,42.5472897 13.3288757,24.295669 13.3405391,6.20706552 C13.3431899,2.48133276 15.356189,0.514082759 19.1446776,0.512505172 C49.0936717,0.501987931 79.0421356,0.502513793 108.99113,0.514082759 C112.805596,0.515660345 114.729529,2.44347069 114.730059,6.21390172 C114.73271,24.3019793 114.722637,42.5472897 114.716805,60.6358931 C114.716805,60.643781 13.3405391,60.6358931 13.3506121,60.6353672 Z" id="Fill-5" fill="#4F586F"></path>
                        <path d="M67,66 C67,67.6568725 65.656984,69 64.000249,69 C62.343016,69 61,67.6568725 61,66 C61,64.3431275 62.343016,63 64.000249,63 C65.656984,63 67,64.3431275 67,66" id="Fill-8" fill="#425D67"></path>
                        <path d="M48.5,16.0525494 L48.5,28.7740098 C48.5,36.8511522 52.0580201,44.523945 58.1582289,49.168263 C59.988396,50.5819314 61.818563,51.6923376 63.75,52.5 C65.681437,51.6923376 67.613396,50.5819314 69.3417711,49.168263 C75.3396659,44.423376 79,36.8511522 79,28.7740098 L79,16.0525494 C71.9847077,15.0432306 66.9018964,12.619725 63.75,10.5 C60.5986257,12.619725 55.5147703,15.0432306 48.5,16.0525494" id="Fill-12" fill="#DBCB32"></path>
                        <path d="M58.6,29.5333617 C58.6,29.1188677 58.8998716,28.7043737 59.4,28.7043737 L68.7001284,28.7043737 C69.1001284,28.7043737 69.5006418,29.0151112 69.5006418,29.5333617 L69.5006418,37.5130361 C69.5006418,37.926998 69.2007702,38.3420241 68.7001284,38.3420241 L59.4,38.3420241 C58.9994865,38.3420241 58.6,38.0307545 58.6,37.5130361 L58.6,29.5333617 Z M60.8998716,23.9374268 C60.8998716,22.5901884 61.9001284,21.5542194 63.2002567,21.5542194 L64.7001284,21.5542194 C66.0002567,21.5542194 67,22.5901884 67,23.9374268 L67,27.1501543 L60.7997433,27.1501543 L60.8998716,23.9374268 Z M59.4,40 L68.7001284,40 C70.0002567,40 71,38.963499 71,37.6162605 L71,29.6371182 C71,28.2898797 70.0002567,27.2533787 68.7001284,27.2533787 L68.7001284,24.0411834 C68.7001284,21.8649569 67,20 64.8002567,20 L63.2002567,20 C61.1001284,20 59.2998716,21.7612004 59.2998716,24.0411834 L59.2998716,27.2533787 C57.9997433,27.2533787 57,28.2898797 57,29.6371182 L57,37.6162605 C57.0996149,38.8597425 58.0998716,40 59.4,40 Z" id="Fill-14" fill="#000000"></path>
                        <path d="M63.9979161,32.048323 C64.4259784,32.048323 64.8545903,32.3385093 64.8545903,32.8224845 C64.8545903,33.2095652 64.5331314,33.596646 63.9979161,33.596646 C63.5698537,33.596646 63.1417914,33.3064596 63.1417914,32.8224845 C63.1417914,32.3385093 63.5698537,32.048323 63.9979161,32.048323 M63.1417914,34.8547826 L63.1417914,35.7258385 C63.1417914,36.1129193 63.4627008,36.5 63.9979161,36.5 C64.4259784,36.5 64.8545903,36.2098137 64.8545903,35.7258385 L64.8545903,34.8547826 C66.0310749,34.4677019 66.6734432,33.403354 66.4591372,32.3385093 C66.2453808,31.2741615 65.1754997,30.5 63.9979161,30.5 C62.8203325,30.5 61.7504514,31.2741615 61.5366949,32.3385093 C61.322389,33.403354 62.0713607,34.4677019 63.1417914,34.8547826" id="Fill-16" fill="#000000"></path>
                        <path d="M11.8243204,14 C10.7955707,14.3196277 -23.538262,18.4122743 44.1737572,31.7574506" id="Stroke-18" stroke="#DBCB32" stroke-width="3" stroke-linecap="round" stroke-linejoin="round"></path>
                        <path d="M11.633996,51 C10.5029942,50.6782321 -29.2493649,40.874019 45,36" id="Stroke-20" stroke="#DBCB32" stroke-width="3" stroke-linecap="round" stroke-linejoin="round"></path>
                        <path d="M116.079364,14 C117.264942,14.3196277 160.823529,19.1843374 84,32.5295137" id="Stroke-22" stroke="#DBCB32" stroke-width="3" stroke-linecap="round" stroke-linejoin="round"></path>
                        <path d="M116.305372,51 C117.424881,50.6782321 156.968663,40.92152 84,36" id="Stroke-24" stroke="#DBCB32" stroke-width="3" stroke-linecap="round" stroke-linejoin="round"></path>
                        <path d="M80.1051691,14.768883 C80.6023541,14.8693346 81,15.2706258 81,15.7723685 L81,29.3163329 C81,37.9443513 77.2221088,46.1710785 70.759725,51.187476 C68.7714955,52.7926408 66.5846983,53.9970296 64.3973907,54.8995484 C64.2978516,54.8995484 64.1988229,55 63.9997448,55 C63.8011771,55 63.8011771,55 63.6020989,54.8995484 C61.4147912,53.9970296 59.2279941,52.7926408 57.2392541,51.187476 C50.8764094,46.1710785 47,37.9443513 47,29.3163329 L47,15.7723685 C47,15.2706258 47.3971354,14.8693346 47.89381,14.768883 C55.2515351,13.865849 60.3213926,11.1572622 63.4030207,9.15029102 C63.7011275,8.94990299 64.1988229,8.94990299 64.4969298,9.15029102 C67.6780969,11.1572622 72.7484649,13.7653974 80.1051691,14.768883 M43,10.5813005 L43,28.8772151 C43,38.7831986 47.3997848,48.2853859 54.8001932,54.0470082 C57.7001797,56.3722103 60.7998998,57.9894713 64.0002567,59 C67.2001002,57.9894713 70.2998203,56.2710017 73.2003203,54.0470082 C80.6002152,48.1841774 85,38.7831986 85,28.8772151 L85,10.5813005 C72.7998264,10.2776748 66.0997689,5.02157633 64.0002567,3 C61.9002311,5.02157633 55.2997836,10.3788834 43,10.5813005" id="Fill-10" fill="#9ECCC7"></path>
                    </g>
                </g>
            </g>
        </g>
    </g>
</svg>