<?xml version="1.0" encoding="UTF-8"?>
<svg width="125px" height="101px" viewBox="0 0 125 101" version="1.1" xmlns="http://www.w3.org/2000/svg" xmlns:xlink="http://www.w3.org/1999/xlink">
    <!-- Generator: Sketch 51.2 (57519) - http://www.bohemiancoding.com/sketch -->
    <title>icon_buildapps</title>
    <desc>Created with Sketch.</desc>
    <defs></defs>
    <g id="Welcome" stroke="none" stroke-width="1" fill="none" fill-rule="evenodd">
        <g id="Desktop-3.1-Get-Started" transform="translate(-973.000000, -659.000000)">
            <g id="icon_buildapps" transform="translate(973.000000, 659.000000)">
                <g id="floor" transform="translate(0.000000, 55.000000)">
                    <path d="M66.1275175,0.971622222 C64.0783492,0.418344444 60.9670329,0.273955556 58.799992,0.971622222 L1.51135881,19.1518444 C-0.504131682,21.1400667 -0.504131682,24.3920111 1.51135881,26.3802333 L58.799992,44.5604556 C61.3064021,45.5916222 63.9423424,45.6631778 66.1275175,44.5604556 L123.416151,26.3802333 C125.431641,24.3920111 125.431641,21.1400667 123.416151,19.1518444 L66.1275175,0.971622222 Z" id="Fill-1" fill="#ECE8F4"></path>
                    <path d="M66.1661442,42.0605155 C63.9795487,43.1689039 61.3418951,43.098265 58.8338558,42.0605155 L1.50798489,23.7868764 C0.738075168,23.0239763 0.266278636,22.7137354 0.0848184319,21.7222222 C-0.209406328,23.3276516 0.261094059,25.0473875 1.50798489,26.2829259 L58.8338558,44.556565 C61.3418951,45.5930302 63.9795487,45.6649535 66.1661442,44.556565 L123.492015,26.2829259 C124.738906,25.0473875 125.209406,23.3276516 124.915182,21.7222222 C124.733721,22.7137354 124.261925,23.0239763 123.492015,23.7868764 L66.1661442,42.0605155 Z" id="Fill-4" fill="#98B3C5"></path>
                </g>
                <g id="Group" stroke-width="1" transform="translate(19.000000, 0.000000)">
                    <g id="icon-app">
                        <g id="Group-66">
                            <path d="M35.6238636,10.0770992 L35.6238636,0.492366412 L2.66931818,0.492366412 C1.48295455,0.492366412 0.494318182,1.47709924 0.494318182,2.65877863 L0.494318182,64.8938931 C0.494318182,66.0755725 1.48295455,67.0603053 2.66931818,67.0603053 L45.2465909,67.0603053 C46.4329545,67.0603053 47.4215909,66.0755725 47.4215909,64.8938931 L47.4215909,12.2435115 L37.7329545,12.2435115 C36.6125,12.2435115 35.6238636,11.2587786 35.6238636,10.0770992" id="Fill-1" fill="#98B3C5"></path>
                            <path d="M35.6898386,0.492300763 L35.6239295,0.492300763 L35.6239295,10.0770336 C35.6239295,11.258713 36.6125659,12.2434458 37.7989295,12.2434458 L47.4875659,12.2434458 L35.6898386,0.492300763 Z" id="Fill-5" fill="#4F586F"></path>
                            <path d="M55.1326909,69.752171 L54.3424409,69.292629 C54.6054182,68.1109496 54.7372364,66.9286137 54.7372364,65.7469344 C54.7372364,64.5659115 54.6054182,63.3842321 54.3424409,62.2025527 L55.1326909,61.7430107 C55.7258727,61.4147664 56.1213273,60.8895756 56.3197136,60.233087 C56.5174409,59.5765985 56.3849636,58.9201099 56.0554182,58.3292702 L53.4849636,53.8651481 C53.1554182,53.2736519 52.6281455,52.8804153 51.9690545,52.6834687 C51.3099636,52.4858656 50.6508727,52.6171634 50.05835,52.9454076 L49.2674409,53.4056061 C47.4872364,51.8293771 45.3781455,50.5827053 43.0713273,49.8599115 L43.0713273,48.941484 C43.0713273,47.5622015 41.9508727,46.4468275 40.5667818,46.4468275 L35.3599636,46.4468275 C33.9758727,46.4468275 32.8554182,47.5622015 32.8554182,48.941484 L32.8554182,49.8599115 C30.5486,50.5827053 28.4395091,51.8293771 26.6599636,53.4056061 L25.8697136,52.9454076 C25.2758727,52.6171634 24.6167818,52.552171 23.9576909,52.6834687 C23.2986,52.8804153 22.7713273,53.2736519 22.4417818,53.8651481 L19.8713273,58.3292702 C19.5417818,58.9201099 19.4758727,59.5765985 19.60835,60.233087 C19.8054182,60.8895756 20.2008727,61.4147664 20.7940545,61.7430107 L21.5856227,62.2025527 C21.3213273,63.3842321 21.1895091,64.5659115 21.1895091,65.7469344 C21.1895091,66.9286137 21.3213273,68.1109496 21.5856227,69.292629 L20.7940545,69.752171 C20.2008727,70.0804153 19.8054182,70.6056061 19.60835,71.2620947 C19.4099636,71.9185832 19.5417818,72.5750718 19.8713273,73.165255 L22.4417818,77.6300336 C23.1667818,78.811713 24.6826909,79.2049496 25.8697136,78.5484611 L26.6599636,78.0889191 C28.4395091,79.6651481 30.5486,80.9124763 32.8554182,81.6346137 L32.8554182,82.5536977 C32.8554182,83.9323237 33.9758727,85.0483542 35.3599636,85.0483542 L40.5667818,85.0483542 C41.9508727,85.0483542 43.0713273,83.9323237 43.0713273,82.5536977 L43.0713273,81.6346137 C45.3781455,80.9124763 47.4872364,79.6651481 49.2674409,78.0889191 L50.05835,78.5484611 C51.2447136,79.271255 52.8258727,78.811713 53.4849636,77.6300336 L56.0554182,73.165255 C56.3849636,72.5750718 56.4508727,71.9185832 56.3197136,71.2620947 C56.1213273,70.6056061 55.7258727,70.0804153 55.1326909,69.752171" id="Fill-9" fill="#693670"></path>
                            <path d="M37.9306818,53.6682015 C44.6283636,53.6682015 50.0579545,59.0756977 50.0579545,65.7469344 C50.0579545,72.4188275 44.6283636,77.8269802 37.9306818,77.8269802 C31.233,77.8269802 25.8034091,72.4188275 25.8034091,65.7469344 C25.8034091,59.0756977 31.233,53.6682015 37.9306818,53.6682015" id="Fill-13" fill="#FFFFFF"></path>
                            <path d="M66.2715909,40.2755725 L65.9420455,40.078626 C66.0738636,39.5534351 66.1397727,39.0282443 66.1397727,38.5030534 C66.1397727,37.9778626 66.0738636,37.4526718 65.9420455,36.9274809 L66.2715909,36.7305344 C66.5352273,36.5992366 66.7329545,36.3366412 66.7988636,36.0740458 C66.8647727,35.8114504 66.8647727,35.4832061 66.6670455,35.2206107 L65.4806818,33.1854962 C65.3488636,32.9229008 65.0852273,32.7259542 64.8215909,32.6603053 C64.5579545,32.5946565 64.2284091,32.5946565 63.9647727,32.7916031 L63.6352273,32.9885496 C62.8443182,32.2664122 61.9215909,31.7412214 60.8670455,31.4129771 L60.8670455,31.019084 C60.8670455,30.4282443 60.3397727,29.9030534 59.7465909,29.9030534 L57.3738636,29.9030534 C56.7806818,29.9030534 56.2534091,30.4282443 56.2534091,31.019084 L56.2534091,31.4129771 C55.1988636,31.7412214 54.2761364,32.2664122 53.4852273,32.9885496 L53.1556818,32.7916031 C52.8920455,32.6603053 52.5625,32.5946565 52.2988636,32.6603053 C52.0352273,32.7259542 51.7715909,32.9229008 51.6397727,33.1854962 L50.4534091,35.2206107 C50.3215909,35.4832061 50.2556818,35.8114504 50.3215909,36.0740458 C50.3875,36.3366412 50.5852273,36.5992366 50.8488636,36.7305344 L51.1784091,36.9274809 C51.0465909,37.4526718 50.9806818,37.9778626 50.9806818,38.5030534 C50.9806818,39.0282443 51.0465909,39.5534351 51.1784091,40.078626 L50.8488636,40.2755725 C50.5852273,40.4068702 50.3875,40.6694656 50.3215909,40.9320611 C50.2556818,41.1946565 50.2556818,41.5229008 50.4534091,41.7854962 L51.6397727,43.8206107 C51.9693182,44.3458015 52.6284091,44.5427481 53.1556818,44.2145038 L53.4852273,44.0175573 C54.2761364,44.7396947 55.1988636,45.2648855 56.2534091,45.5931298 L56.2534091,45.9870229 C56.2534091,46.5778626 56.7806818,47.1030534 57.3738636,47.1030534 L59.6806818,47.1030534 C60.2738636,47.1030534 60.8011364,46.5778626 60.8011364,45.9870229 L60.8011364,45.5931298 C61.8556818,45.2648855 62.7784091,44.7396947 63.5693182,44.0175573 L63.8988636,44.2145038 C64.4261364,44.5427481 65.1511364,44.3458015 65.4147727,43.8206107 L66.6011364,41.7854962 C66.7329545,41.5229008 66.7988636,41.1946565 66.7329545,40.9320611 C66.7329545,40.6694656 66.5352273,40.4725191 66.2715909,40.2755725" id="Fill-17" fill="#9ECCC7"></path>
                            <path d="M58.5600955,34.0389313 C61.0356409,34.0389313 63.0419136,36.0372824 63.0419136,38.5030534 C63.0419136,40.9688244 61.0356409,42.9671756 58.5600955,42.9671756 C56.0852091,42.9671756 54.0782773,40.9688244 54.0782773,38.5030534 C54.0782773,36.0372824 56.0852091,34.0389313 58.5600955,34.0389313" id="Fill-21" fill="#FFFFFF"></path>
                            <path d="M84.9237318,62.7276122 L84.3312091,62.3993679 C84.5282773,61.480284 84.6607545,60.5612 84.6607545,59.642116 C84.6607545,58.7223756 84.5282773,57.8039481 84.3312091,56.8848641 L84.9237318,56.5566198 C85.3850955,56.2940244 85.7146409,55.9001313 85.8464591,55.3749405 C85.9789364,54.8497496 85.9123682,54.3245588 85.6493909,53.9306656 L83.6721182,50.4512763 C83.4078227,49.9917344 83.0130273,49.6634901 82.4850955,49.5315359 C81.9578227,49.4008947 81.4964591,49.4665435 81.0357545,49.7291389 L80.4419136,50.0573832 C79.0584818,48.810055 77.4760045,47.8903145 75.6964591,47.3001313 L75.6964591,46.6436427 C75.6964591,45.5926046 74.8396409,44.739826 73.7857545,44.739826 L69.7646409,44.739826 C68.7100955,44.739826 67.8539364,45.5926046 67.8539364,46.6436427 L67.8539364,47.3001313 C66.0737318,47.8903145 64.4919136,48.810055 63.1078227,50.0573832 L62.5146409,49.7291389 C62.0532773,49.4665435 61.5260045,49.4008947 61.0646409,49.5315359 C60.5373682,49.6634901 60.1419136,49.9917344 59.8782773,50.4512763 L57.9010045,53.9306656 C57.6380273,54.3902076 57.5714591,54.9153985 57.7032773,55.3749405 C57.8350955,55.9001313 58.1646409,56.2940244 58.6266636,56.5566198 L59.2191864,56.8848641 C59.0214591,57.8039481 58.8896409,58.7223756 58.8896409,59.642116 C58.8896409,60.5612 59.0214591,61.480284 59.2191864,62.3993679 L58.6266636,62.7276122 C58.1646409,62.9895511 57.8350955,63.3841008 57.7032773,63.9092916 C57.5714591,64.4344824 57.6380273,64.8940244 57.9010045,65.3535664 L59.8782773,68.8329557 C60.40555,69.7520397 61.5925727,70.080284 62.5146409,69.5544366 L63.1078227,69.2261924 C64.4919136,70.4741771 66.0737318,71.3932611 67.8539364,71.9841008 L67.8539364,72.6405893 C67.8539364,73.690971 68.7100955,74.5444061 69.7646409,74.5444061 L73.7857545,74.5444061 C74.8396409,74.5444061 75.6964591,73.690971 75.6964591,72.6405893 L75.6964591,71.9841008 C77.4760045,71.3932611 79.0584818,70.4741771 80.4419136,69.2261924 L81.0357545,69.5544366 C81.9578227,70.080284 83.1441864,69.7520397 83.6721182,68.8329557 L85.6493909,65.3535664 C85.9123682,64.8940244 85.9789364,64.3688336 85.8464591,63.9092916 C85.7146409,63.4497496 85.3850955,62.9895511 84.9237318,62.7276122" id="Fill-25" fill="#003E7D"></path>
                            <path d="M71.6762682,51.1730198 C76.3716318,51.1730198 80.1778818,54.9648977 80.1778818,59.6417221 C80.1778818,64.3185466 76.3716318,68.1110809 71.6762682,68.1110809 C66.9802455,68.1110809 63.1739955,64.3185466 63.1739955,59.6417221 C63.1739955,54.9648977 66.9802455,51.1730198 71.6762682,51.1730198" id="Fill-29" fill="#FFFFFF"></path>
                            <path d="M9.65574773,16.0512107 L11.6989295,16.0512107" id="Stroke-33" stroke="#FFFFFF" stroke-width="1.5" stroke-linecap="round"></path>
                            <path d="M14.5329545,16.0512107 L16.5761364,16.0512107" id="Stroke-35" stroke="#FFFFFF" stroke-width="1.5" stroke-linecap="round"></path>
                            <path d="M19.4761364,16.0512107 L29.1647727,16.0512107" id="Stroke-37" stroke="#FFFFFF" stroke-width="1.5" stroke-linecap="round"></path>
                            <path d="M9.65574773,23.2068702 L13.0830205,23.2068702" id="Stroke-39" stroke="#FFFFFF" stroke-width="1.5" stroke-linecap="round"></path>
                            <path d="M26.5285409,23.2068702 L30.0217227,23.2068702" id="Stroke-41" stroke="#FFFFFF" stroke-width="1.5" stroke-linecap="round"></path>
                            <path d="M15.7191864,23.2068702 L24.5510045,23.2068702" id="Stroke-43" stroke="#FFFFFF" stroke-width="1.5" stroke-linecap="round"></path>
                            <path d="M9.65574773,30.3625298 L11.6989295,30.3625298" id="Stroke-45" stroke="#FFFFFF" stroke-width="1.5" stroke-linecap="round"></path>
                            <path d="M14.5329545,30.3625298 L16.5761364,30.3625298" id="Stroke-47" stroke="#FFFFFF" stroke-width="1.5" stroke-linecap="round"></path>
                            <path d="M19.4761364,30.3625298 L29.1647727,30.3625298" id="Stroke-49" stroke="#FFFFFF" stroke-width="1.5" stroke-linecap="round"></path>
                            <path d="M9.65574773,37.5181893 L11.5671114,37.5181893" id="Stroke-51" stroke="#FFFFFF" stroke-width="1.5" stroke-linecap="round"></path>
                            <path d="M19.1465909,37.5181893 L31.0761364,37.5181893" id="Stroke-53" stroke="#FFFFFF" stroke-width="1.5" stroke-linecap="round"></path>
                            <path d="M14.1374341,37.5181893 L16.7737977,37.5181893" id="Stroke-55" stroke="#FFFFFF" stroke-width="1.5" stroke-linecap="round"></path>
                            <polyline id="Stroke-57" stroke="#FFFFFF" stroke-width="1.5" stroke-linecap="round" points="10.3148386 43.5580153 13.0830205 45.7900763 10.3148386 47.8251908"></polyline>
                            <path d="M13.7419136,48.5470656 L17.8941864,48.5470656" id="Stroke-59" stroke="#FFFFFF" stroke-width="1.5" stroke-linecap="round"></path>
                            <polygon id="Fill-61" fill="#693670" points="30.5488636 64.3687023 32.6579545 64.3687023 32.6579545 62.2679389 30.5488636 62.2679389"></polygon>
                            <polygon id="Fill-63" fill="#693670" points="34.0420455 64.3687023 45.3125 64.3687023 45.3125 62.2679389 34.0420455 62.2679389"></polygon>
                            <polygon id="Fill-64" fill="#693670" points="43.2034091 68.8978168 45.3125 68.8978168 45.3125 66.7977099 43.2034091 66.7977099"></polygon>
                            <polygon id="Fill-65" fill="#693670" points="30.5488636 68.8978168 41.8199773 68.8978168 41.8199773 66.7977099 30.5488636 66.7977099"></polygon>
                        </g>
                    </g>
                </g>
            </g>
        </g>
    </g>
</svg>