
<svg width="125px" height="96px" viewBox="0 0 125 96" version="1.1" xmlns="http://www.w3.org/2000/svg" xmlns:xlink="http://www.w3.org/1999/xlink">
    <!-- Generator: Sketch 51.2 (57519) - http://www.bohemiancoding.com/sketch -->
    <desc>Created with Sketch.</desc>
    <defs>
        <path d="M-1.03739239e-12,22.7147075 C0.0129811362,21.4218583 0.516767803,20.1330266 1.51136,19.152 L58.8,0.972 C60.967,0.274 64.0783,0.418 66.1275,0.972 L123.4162,19.152 C125.4316,21.14 125.4316,24.392 123.4162,26.38 L66.1275,44.56 C63.9423,45.663 61.3064,45.592 58.8,44.56 L1.51136,26.38 C0.516767803,25.3989734 0.0129811362,24.1101417 -1.00897068e-12,22.8172925 L0,22.7147074 Z" id="path-1"></path>
        <path d="M-4.40536496e-12,1.65265204 C0.000188889731,1.34108108 0.028489497,1.02946963 0.08482,0.722 C0.26628,1.714 0.73808,2.024 1.50798,2.787 L58.8339,21.061 C61.3419,22.098 63.9795,22.169 66.1661,21.061 L123.492,2.787 C124.2619,2.024 124.7337,1.714 124.9152,0.722 C124.971208,1.02774118 124.999502,1.33757775 125,1.64739754 L125,1.66406122 C124.997889,2.97610285 124.497266,4.28652128 123.492,5.283 L66.1661,23.557 C63.9795,24.665 61.3419,24.593 58.8339,23.557 L1.50798,5.283 C0.501411806,4.2852229 0.000796472068,2.97268745 -1.42108547e-13,1.65893257 L0,1.65265204 Z" id="path-3"></path>
        <path d="M10.9383,6.321 C11.2243,6.036 11.2243,5.467 10.9383,5.182 C10.6523,4.897 10.0804,4.897 9.7944,5.182 L6.2673,8.694 L5.5047,7.935 C5.2187,7.65 4.6467,7.65 4.3607,7.935 C4.0748,8.22 4.0748,8.789 4.3607,9.074 L5.6953,10.403 C5.886,10.593 6.0766,10.688 6.2673,10.688 C6.4579,10.688 6.7439,10.593 6.8393,10.403 L10.9383,6.321 Z M7.6019,0.815 C11.3196,0.815 14.2748,3.853 14.2748,7.46 C14.2748,11.163 11.3196,14.106 7.6019,14.106 C3.8841,14.106 0.929,11.163 0.929,7.46 C0.929,3.758 3.9794,0.815 7.6019,0.815 Z" id="path-5"></path>
        <path d="M15.2524,17.592 L15.2524,16.936 C15.2524,16.082 14.7248,15.294 13.9994,14.965 L11.955,13.98 C11.889,13.98 11.8231,13.914 11.8231,13.849 L11.8231,13.258 C11.8231,13.192 11.889,13.192 11.889,13.126 C12.1528,12.798 12.3507,12.404 12.4825,11.944 C12.8123,11.747 13.0761,11.353 13.0761,10.959 L13.0761,10.105 C13.0761,9.842 13.0101,9.645 12.8782,9.448 L12.8782,8.463 C12.9442,7.872 12.7463,7.281 12.3507,6.887 C11.6912,6.296 10.8338,5.967 9.9765,6.033 C9.1191,5.967 8.1958,6.296 7.6023,6.887 C7.2066,7.346 7.0087,7.938 7.0747,8.463 L7.0747,9.448 C6.9428,9.645 6.8768,9.908 6.8768,10.105 L6.8768,10.959 C6.8768,11.287 7.0087,11.616 7.2066,11.813 C7.3385,12.338 7.6023,12.798 7.932,13.258 L7.932,13.849 C7.932,13.914 7.8661,13.98 7.8661,13.98 L5.9535,14.965 C5.2281,15.359 4.7665,16.082 4.7665,16.936 L4.7665,17.592 C4.7665,17.724 4.8324,17.921 4.9643,17.986 C5.0962,18.118 5.2281,18.184 5.36,18.184 L14.6589,18.184 C14.7908,18.184 14.9886,18.118 15.0546,17.986 C15.1865,17.855 15.2524,17.724 15.2524,17.592 Z M15.2027,21.766 C15.5649,21.766 15.8547,21.477 15.8547,21.116 C15.8547,20.755 15.5649,20.467 15.2027,20.467 L5.1325,20.467 C4.7703,20.467 4.4805,20.755 4.4805,21.116 C4.4805,21.477 4.7703,21.766 5.1325,21.766 L15.2027,21.766 Z M10.1314,24.363 C10.4936,24.363 10.7834,24.074 10.7834,23.714 C10.711,23.281 10.4212,23.064 10.1314,23.064 L5.2049,23.064 C4.8427,23.064 4.5529,23.353 4.5529,23.714 C4.5529,24.074 4.8427,24.363 5.2049,24.363 L10.1314,24.363 Z M39.2749,25.593 C42.6113,22.935 45.2805,19.518 46.901,15.53 L46.901,29.201 C46.901,30.625 45.7571,31.669 44.4225,31.669 L2.4786,31.669 C1.0487,31.669 0.0001,30.53 0.0001,29.201 L0.0001,3.283 C0.0001,1.859 1.144,0.815 2.4786,0.815 L16.7777,0.815 L16.7777,7.176 C16.873,14.391 20.3048,21.226 26.1197,25.593 L31.0767,29.486 C32.03,30.245 33.3646,30.245 34.3179,29.486 L39.2749,25.593 Z" id="path-7"></path>
        <path d="M14.6019,23.91 C19.1776,23.91 22.9907,20.112 22.8953,15.555 C22.9907,10.903 19.1776,7.106 14.6019,7.201 C10.0262,7.201 6.2131,10.903 6.2131,15.555 C6.2131,20.207 10.0262,23.91 14.6019,23.91 Z M28.8056,6.821 C28.9963,6.916 29.1869,7.106 29.1869,7.391 L29.1869,15.081 C29.0916,21.821 25.5645,28.182 20.2262,32.264 L15.2692,36.157 C14.8879,36.441 14.4112,36.441 14.1252,36.157 L9.1682,32.264 C3.7346,28.182 0.5888,21.821 0.4935,15.081 L0.4935,7.391 C0.4935,7.106 0.6841,6.916 0.8748,6.821 L13.8393,0.555 C14.5065,0.27 15.1738,0.27 15.8411,0.555 L28.8056,6.821 Z" id="path-9"></path>
        <path d="M10.2748,6.106 C10.5607,5.821 10.5607,5.251 10.2748,4.967 C9.9888,4.682 9.4168,4.682 9.1308,4.967 L5.6037,8.479 L4.8411,7.72 C4.5551,7.435 3.9832,7.435 3.6972,7.72 C3.4112,8.005 3.4112,8.574 3.6972,8.859 L5.0318,10.188 C5.2224,10.378 5.4131,10.473 5.6037,10.473 C5.7944,10.473 6.0804,10.378 6.1757,10.188 L10.2748,6.106 Z M6.9383,0.599 C10.6561,0.599 13.6112,3.637 13.6112,7.245 C13.6112,10.948 10.6561,13.891 6.9383,13.891 C3.2206,13.891 0.2654,10.948 0.2654,7.245 C0.2654,3.543 3.3159,0.599 6.9383,0.599 Z" id="path-11"></path>
        <path d="M39.6113,25.378 C42.9478,22.72 45.6169,19.302 47.2375,15.315 L47.2375,28.986 C47.2375,30.41 46.0936,31.454 44.759,31.454 L2.815,31.454 C1.3851,31.454 0.3365,30.315 0.3365,28.986 L0.3365,3.068 C0.3365,1.644 1.4805,0.6 2.815,0.6 L17.1141,0.6 L17.1141,6.961 C17.2094,14.176 20.6412,21.011 26.4562,25.378 L31.4132,29.271 C32.3665,30.03 33.701,30.03 34.6543,29.271 L39.6113,25.378 Z" id="path-13"></path>
        <path d="M14.9383,23.695 C19.514,23.695 23.3271,19.897 23.2318,15.34 C23.3271,10.688 19.514,6.891 14.9383,6.986 C10.3626,6.986 6.5495,10.688 6.5495,15.34 C6.5495,19.992 10.3626,23.695 14.9383,23.695 Z M29.1421,6.606 C29.3327,6.701 29.5234,6.891 29.5234,7.176 L29.5234,14.865 C29.428,21.606 25.9009,27.967 20.5626,32.049 L15.6056,35.941 C15.2243,36.226 14.7477,36.226 14.4617,35.941 L9.5047,32.049 C4.071,27.967 0.9252,21.606 0.8299,14.865 L0.8299,7.176 C0.8299,6.891 1.0206,6.701 1.2112,6.606 L14.1757,0.34 C14.843,0.055 15.5103,0.055 16.1776,0.34 L29.1421,6.606 Z" id="path-15"></path>
        <path d="M11.5889,12.377 C11.5889,12.509 11.5229,12.64 11.391,12.771 C11.3251,12.903 11.1272,12.968 10.9953,12.968 L1.6964,12.968 C1.5645,12.968 1.4326,12.903 1.3007,12.771 C1.1688,12.706 1.1029,12.509 1.1029,12.377 L1.1029,11.72 C1.1029,10.867 1.5645,10.144 2.29,9.75 L4.2025,8.765 C4.2025,8.765 4.2685,8.699 4.2685,8.633 L4.2685,8.042 C3.9387,7.583 3.6749,7.123 3.543,6.597 C3.3452,6.4 3.2133,6.072 3.2133,5.744 L3.2133,4.89 C3.2133,4.693 3.2792,4.43 3.4111,4.233 L3.4111,3.248 C3.3452,2.722 3.543,2.131 3.9387,1.671 C4.5323,1.08 5.4556,0.752 6.3129,0.818 C7.1703,0.752 8.0276,1.08 8.6871,1.671 C9.0828,2.066 9.2806,2.657 9.2147,3.248 L9.2147,4.233 C9.3466,4.43 9.4125,4.627 9.4125,4.89 L9.4125,5.744 C9.4125,6.138 9.1487,6.532 8.819,6.729 C8.6871,7.189 8.4893,7.583 8.2255,7.911 C8.2255,7.977 8.1595,7.977 8.1595,8.042 L8.1595,8.633 C8.1595,8.699 8.2255,8.765 8.2914,8.765 L10.3358,9.75 C11.0613,10.078 11.5889,10.867 11.5889,11.72 L11.5889,12.377 Z M11.5391,16.55 L1.4689,16.55 C1.1067,16.55 0.8169,16.262 0.8169,15.901 C0.8169,15.54 1.1067,15.252 1.4689,15.252 L11.5391,15.252 C11.9014,15.252 12.1912,15.54 12.1912,15.901 C12.1912,16.262 11.9014,16.55 11.5391,16.55 Z M6.4678,19.148 L1.5414,19.148 C1.1792,19.148 0.8894,18.859 0.8894,18.498 C0.8894,18.138 1.1792,17.849 1.5414,17.849 L6.4678,17.849 C6.7576,17.849 7.0474,18.066 7.1199,18.498 C7.1199,18.859 6.8301,19.148 6.4678,19.148 Z" id="path-17"></path>
        <path d="M8.3908,7.312 C8.6043,7.312 8.7751,6.94 8.7751,6.476 C8.7751,6.012 8.6043,5.641 8.3908,5.641 L2.4551,5.641 C2.2416,5.641 2.0708,6.012 2.0708,6.476 C2.0708,6.94 2.2416,7.312 2.4551,7.312 L8.3908,7.312 Z M8.3908,11.109 C8.6043,11.109 8.7751,10.738 8.7751,10.274 C8.7751,9.809 8.6043,9.438 8.3908,9.438 L2.4551,9.438 C2.2416,9.438 2.0708,9.809 2.0708,10.274 C2.0708,10.738 2.2416,11.109 2.4551,11.109 L8.3908,11.109 Z M20.6111,17.559 L23.5329,15.283 C25.4995,13.729 27.0728,11.731 28.028,9.4 L28.028,17.392 C28.028,18.225 27.3538,18.835 26.5671,18.835 L1.8441,18.835 C1.0013,18.835 0.3832,18.169 0.3832,17.392 L0.3832,2.241 C0.3832,1.408 1.0574,0.797 1.8441,0.797 L10.985,0.797 L10.985,4.516 C11.0412,8.734 12.3514,12.73 15.7789,15.283 L18.7007,17.559 C19.2626,18.003 20.0492,18.003 20.6111,17.559 Z" id="path-19"></path>
        <path d="M8.2666,0.117 L15.1581,3.545 C15.2594,3.597 15.3607,3.701 15.3607,3.857 L15.3607,8.065 C15.3101,11.753 13.4352,15.233 10.5976,17.467 L7.9626,19.596 C7.7599,19.752 7.5066,19.752 7.3545,19.596 L4.7196,17.467 C1.8313,15.233 0.1591,11.753 0.1084,8.065 L0.1084,3.857 C0.1084,3.701 0.2098,3.597 0.3111,3.545 L7.2025,0.117 C7.5572,-0.039 7.9119,-0.039 8.2666,0.117 Z" id="path-21"></path>
    </defs>
    <g id="Page-1" stroke="none" stroke-width="1" fill="none" fill-rule="evenodd">
        <g id="Mobile-2.1-products" transform="translate(-97.000000, -2023.000000)">
            <g id="Group-1640" transform="translate(97.000000, 2073.000000)">
                <mask id="mask-2" fill="white">
                    <use xlink:href="#path-1"></use>
                </mask>
                <g id="Clip-1639"></g>
                <polygon id="Fill-1638" fill="#ECE8F4" mask="url(#mask-2)" points="-5.00026 50.361 129.92774 50.361 129.92774 -4.49892 -5.00026 -4.49892"></polygon>
            </g>
            <g id="Group-1643" transform="translate(97.000000, 2094.000000)">
                <mask id="mask-4" fill="white">
                    <use xlink:href="#path-3"></use>
                </mask>
                <g id="Clip-1642"></g>
                <polygon id="Fill-1641" fill="#98B3C5" mask="url(#mask-4)" points="-5 29.361 130 29.361 130 -4.27789 -5 -4.27789"></polygon>
            </g>
            <g id="Group-1693" transform="translate(128.000000, 2043.000000)" stroke="#DBCB32" stroke-width="3">
                <path d="M38.14957,41.80391 L2.351502,41.80391 C1.5927758,41.80391 0.972,41.12675 0.972,40.29911 L0.972,23.671" id="Stroke-1689"></path>
                <path d="M54.42277,0.95999 L54.42277,11.36985 C54.42277,11.63089 53.81426,11.84447 53.07052,11.84447 L40.9763,11.84447 L40.9763,25.836" id="Stroke-1691"></path>
            </g>
            <g id="Group-1696" transform="translate(133.000000, 2043.000000)">
                <mask id="mask-6" fill="white">
                    <use xlink:href="#path-5"></use>
                </mask>
                <g id="Clip-1695"></g>
                <polygon id="Fill-1694" fill="#4EA098" mask="url(#mask-6)" points="-4.071 19.106 19.27479 19.106 19.27479 -4.18514 -4.071 -4.18514"></polygon>
            </g>
            <g id="Group-1699" transform="translate(108.000000, 2043.000000)">
                <mask id="mask-8" fill="white">
                    <use xlink:href="#path-7"></use>
                </mask>
                <g id="Clip-1698"></g>
                <polygon id="Fill-1697" fill="#9ECCC7" mask="url(#mask-8)" points="-4.9999 36.669 51.90103 36.669 51.90103 -4.18543 -4.9999 -4.18543"></polygon>
            </g>
            <g id="Group-1702" transform="translate(126.000000, 2035.000000)">
                <mask id="mask-10" fill="white">
                    <use xlink:href="#path-9"></use>
                </mask>
                <g id="Clip-1701"></g>
                <polygon id="Fill-1700" fill="#98B3C5" mask="url(#mask-10)" points="-4.5065 41.37 34.18696 41.37 34.18696 -4.65848 -4.5065 -4.65848"></polygon>
            </g>
            <g id="Group-1705" transform="translate(188.000000, 2066.000000)">
                <mask id="mask-12" fill="white">
                    <use xlink:href="#path-11"></use>
                </mask>
                <g id="Clip-1704"></g>
                <polygon id="Fill-1703" fill="#4EA098" mask="url(#mask-12)" points="-4.7346 18.891 18.61119 18.891 18.61119 -4.40014 -4.7346 -4.40014"></polygon>
            </g>
            <g id="Group-1708" transform="translate(162.000000, 2066.000000)">
                <mask id="mask-14" fill="white">
                    <use xlink:href="#path-13"></use>
                </mask>
                <g id="Clip-1707"></g>
                <polygon id="Fill-1706" fill="#793A78" mask="url(#mask-14)" points="-4.6635 36.454 52.23743 36.454 52.23743 -4.40043 -4.6635 -4.40043"></polygon>
            </g>
            <g id="Group-1711" transform="translate(180.000000, 2058.000000)">
                <mask id="mask-16" fill="white">
                    <use xlink:href="#path-15"></use>
                </mask>
                <g id="Clip-1710"></g>
                <polygon id="Fill-1709" fill="#98B3C5" mask="url(#mask-16)" points="-4.1701 41.155 34.52336 41.155 34.52336 -4.87348 -4.1701 -4.87348"></polygon>
            </g>
            <g id="Group-1714" transform="translate(166.000000, 2071.000000)">
                <mask id="mask-18" fill="white">
                    <use xlink:href="#path-17"></use>
                </mask>
                <g id="Clip-1713"></g>
                <polygon id="Fill-1712" fill="#FFFFFF" mask="url(#mask-18)" points="-4.1831 24.148 17.19116 24.148 17.19116 -4.1905 -4.1831 -4.1905"></polygon>
            </g>
            <g id="Group-1717" transform="translate(161.000000, 2026.000000)">
                <mask id="mask-20" fill="white">
                    <use xlink:href="#path-19"></use>
                </mask>
                <g id="Clip-1716"></g>
                <polygon id="Fill-1715" fill="#000000" mask="url(#mask-20)" points="-4.6168 23.835 33.02806 23.835 33.02806 -4.20297 -4.6168 -4.20297"></polygon>
            </g>
            <g id="Group-1720" transform="translate(173.000000, 2023.000000)">
                <mask id="mask-22" fill="white">
                    <use xlink:href="#path-21"></use>
                </mask>
                <g id="Clip-1719"></g>
                <polygon id="Fill-1718" fill="#4F586F" mask="url(#mask-22)" points="-4.8916 24.713 20.36074 24.713 20.36074 -5.00033 -4.8916 -5.00033"></polygon>
            </g>
        </g>
    </g>
</svg>