<?xml version="1.0" encoding="UTF-8"?>
<svg width="125px" height="107px" viewBox="0 0 125 107" version="1.1" xmlns="http://www.w3.org/2000/svg" xmlns:xlink="http://www.w3.org/1999/xlink">
    <!-- Generator: Sketch 51.2 (57519) - http://www.bohemiancoding.com/sketch -->
    <title>icon_protal</title>
    <desc>Created with Sketch.</desc>
    <defs></defs>
    <g id="Welcome" stroke="none" stroke-width="1" fill="none" fill-rule="evenodd">
        <g id="Desktop-2.1-products" transform="translate(-353.000000, -1307.000000)">
            <g id="icon_protal" transform="translate(353.000000, 1307.000000)">
                <g id="floor" transform="translate(0.000000, 61.000000)" fill-rule="evenodd">
                    <path d="M66.1275175,0.971622222 C64.0783492,0.418344444 60.9670329,0.273955556 58.799992,0.971622222 L1.51135881,19.1518444 C-0.504131682,21.1400667 -0.504131682,24.3920111 1.51135881,26.3802333 L58.799992,44.5604556 C61.3064021,45.5916222 63.9423424,45.6631778 66.1275175,44.5604556 L123.416151,26.3802333 C125.431641,24.3920111 125.431641,21.1400667 123.416151,19.1518444 L66.1275175,0.971622222 Z" id="Fill-1" fill="#ECE8F4"></path>
                    <path d="M66.1661442,42.0605155 C63.9795487,43.1689039 61.3418951,43.098265 58.8338558,42.0605155 L1.50798489,23.7868764 C0.738075168,23.0239763 0.266278636,22.7137354 0.0848184319,21.7222222 C-0.209406328,23.3276516 0.261094059,25.0473875 1.50798489,26.2829259 L58.8338558,44.556565 C61.3418951,45.5930302 63.9795487,45.6649535 66.1661442,44.556565 L123.492015,26.2829259 C124.738906,25.0473875 125.209406,23.3276516 124.915182,21.7222222 C124.733721,22.7137354 124.261925,23.0239763 123.492015,23.7868764 L66.1661442,42.0605155 Z" id="Fill-4" fill="#98B3C5"></path>
                </g>
                <g id="portal-icon" transform="translate(11.000000, 0.000000)">
                    <path d="M101.389428,65.000019 C101.345967,67.6260794 99.7246623,69.408726 96.9850335,69.7894407 C95.6737854,69.9718558 94.3408068,70.0881711 93.0173684,70.0917579 C83.0934357,70.1163532 75.3542097,70.1609322 65.4308069,70.0605014 C58.6175109,70.0605014 60.3527681,74.7274591 61.1085643,76.9364242 C62.6996584,81.5859602 63.1342677,81.8841782 70.7144902,81.8841782 C71.2508617,81.8841782 71.1374393,84.0419031 71.1374393,85.5340178 C71.1374393,87 71.0982185,87 70.6704993,87 C58.4510873,87 43.4978767,86.9461978 31.2774046,86.9928264 C30.2539527,86.9928264 30.3074838,86.9482474 30.3074838,85.9336914 C30.3074838,84.677794 30.0758689,81.9174843 30.8957965,81.9174843 C37.4165263,81.9174843 39.8800191,81.9615509 41.603616,76.9364242 C43.7745426,70.6077468 41.2437383,70.1050804 34.6217763,70.1050804 C25.8082174,70.1050804 16.9946584,70.1168656 8.18162943,70.0912455 C6.93186263,70.0881711 5.67255563,69.968269 4.43603912,69.7889283 C1.70754062,69.3938664 0.0713955362,67.6101949 0.0146843202,64.9933578 C-0.023476498,63.276811 0.0236945134,61.7175716 0.033234718,60 C0.842562071,60.0553394 1.65241944,60 2.4622768,60 C34.6223064,60.0081984 66.7823359,60.0081984 98.9428955,60.0005124 C99.7522228,60.0005124 100.56261,60.0538022 101.371938,60.0005124 C101.380418,61.718084 101.418049,63.2829598 101.389428,65.000019 Z" id="Fill-3" fill="#98B3C5" fill-rule="evenodd"></path>
                    <path d="M0.0142418677,60.1303744 C0.00841016118,42.0422968 -0.00749449306,23.7906761 0.00416892005,5.70207266 C0.00681969575,1.9763399 2.01981877,0.00908990148 5.8083074,0.00751231527 C35.7573015,-0.00300492611 65.7057654,-0.00247906404 95.6547595,0.00908990148 C99.4692257,0.0106674877 101.393159,1.93847783 101.393689,5.70890887 C101.39634,23.7969865 101.386267,42.0422968 101.380435,60.1309002 C101.380435,60.1387882 0.00416892005,60.1309002 0.0142418677,60.1303744 Z" id="Fill-5" fill="#000000" fill-rule="evenodd"></path>
                    <path d="M95.2882251,55.1651847 C96.0650519,55.1651847 96.0761419,54.8074176 96.0666362,53.2526244 C95.9722406,37.8128639 96.0761419,22.3724261 96.1199738,6.93206404 C96.1241985,5.4575468 95.7925552,4.88856404 94.1723616,4.89119335 C65.0801693,4.93641749 35.988505,4.93431404 6.89631271,4.89224507 C5.33632186,4.89014163 4.90117207,5.35500369 4.90592492,6.89052094 C4.95662199,22.4039778 4.9555658,37.9179606 4.9555658,53.4314175 C4.9555658,54.2012796 4.87529545,55.1651847 5.70598794,55.1651847 C35.5665576,55.1651847 65.4276554,55.1651847 95.2882251,55.1651847 Z" id="Path" fill="#4F586F" fill-rule="evenodd"></path>
                    <path d="M29.7244149,10.8886483 L29.7244149,30.1403415 L14.1209496,39.7661881 L13.6840045,40.0547854 C11.9171343,37.0677671 10.9880956,33.6362216 11.0001152,30.1403415 C11.0004687,19.5076756 19.3833807,10.8886483 29.7244149,10.8886483 Z" id="Shape" fill="#DBCB32" fill-rule="nonzero"></path>
                    <path d="M47.999917,30.1403415 C48.0147647,35.2482229 46.0364922,40.1492883 42.5073474,43.7447599 L29.2756173,30.1403415 L29.2756173,10.8886483 C39.6166515,10.8890118 47.999917,19.5080391 47.999917,30.1403415 Z" id="Shape" fill="#98B3C5" fill-rule="nonzero"></path>
                    <path d="M42.6559166,43.351906 C38.5866002,47.546744 32.8631849,49.5778293 27.1433048,48.857063 C21.4237782,48.1359332 16.3469427,44.7436428 13.3837762,39.662295 L13.8207213,39.3736977 L29.4241866,29.7478511 L42.6559166,43.351906 Z" id="Shape" fill="#FFFFFF" fill-rule="nonzero"></path>
                    <path d="M53,66 C53,67.6568725 51.656984,69 50.000249,69 C48.343016,69 47,67.6568725 47,66 C47,64.3431275 48.343016,63 50.000249,63 C51.656984,63 53,64.3431275 53,66" id="Fill-8" fill="#000000" fill-rule="evenodd"></path>
                    <g id="home" stroke-width="1" fill-rule="evenodd" transform="translate(57.000000, 9.000000)">
                        <path d="M6.99994337,2 L8.99994336,2 C9.55219485,2 10,2.51656079 10,3.15389643 L10,17 L6,17 L6.00000002,3.15376572 C5.99988674,2.51656079 6.44769189,2 6.99994337,2 Z" id="Shape" fill="#9ECCC7" fill-rule="nonzero"></path>
                        <path d="M15.7299915,8 L18.2700085,8 C18.6731804,8 19,8.40851871 19,8.91247646 L19,18 L15,18 L15,8.91261806 C15,8.40866031 15.3268196,8 15.7299915,8 Z" id="Shape" fill="#FFFFFF" fill-rule="nonzero"></path>
                        <path d="M25.5771911,12 L28.4228089,12 C28.7415444,12 29,12.309937 29,12.6924645 L29,18 L25,18 L25,12.6924645 C25.0001133,12.310073 25.2584556,12 25.5771911,12 Z" id="Shape" fill="#98B3C5" fill-rule="nonzero"></path>
                        <path d="M1.18552419,37 C0.70599899,36.999866 0.273754706,36.7115488 0.090272514,36.2694894 C-0.0932096775,35.82743 0.00820251477,35.3186193 0.347228175,34.9801717 L4.59928693,30.7370446 C6.00723739,29.3963901 8.22245576,29.3963901 9.63027191,30.7370446 L11.0187459,32.1238083 C11.4817496,32.5857055 12.2323341,32.5857055 12.6953379,32.1238083 L17.6422381,27.1872993 C19.0497856,25.8467788 21.264601,25.8467788 22.6721485,27.1872993 L24.0618313,28.574063 C24.524835,29.0359602 25.2754196,29.0359602 25.7384233,28.574063 L29.9904821,24.3321422 C30.4557693,23.883783 31.1953395,23.8900828 31.6527018,24.3466184 C32.1100641,24.8030199 32.1165115,25.5410367 31.6672084,26.0053465 L27.4151497,30.2484737 C26.0243923,31.6302781 23.7759967,31.6302781 22.3852393,30.2484737 L20.9955564,28.8605036 C20.5270455,28.4118763 19.787341,28.4118763 19.3189644,28.8605036 L14.3720642,33.7970127 C12.9829187,35.1827041 10.7312994,35.1827041 9.34215382,33.7970127 L7.95247099,32.4102489 C7.48396009,31.9616216 6.74425553,31.9616216 6.27587896,32.4102489 L2.02382021,36.6533761 C1.80151931,36.87521 1.49996915,37 1.18552419,37 Z" id="Shape" fill="#F4F5F9" fill-rule="nonzero"></path>
                        <g id="Group" fill="#793A78" fill-rule="nonzero">
                            <path d="M30.7860084,18.6689342 L3.60140586,18.6689342 C1.64311297,18.6689342 0.0555648536,17.1078245 0.0555648536,15.1821442 L0.0555648536,1.23511599 C0.0555648536,0.593266458 0.584702929,0.0728087774 1.23755649,0.0728087774 C1.89041004,0.0728087774 2.41954812,0.593134796 2.41954812,1.23511599 L2.41954812,15.1821442 C2.41954812,15.8239937 2.94868619,16.3444514 3.60153975,16.3444514 L30.7860084,16.3444514 C31.438728,16.3444514 31.968,16.8647774 31.968,17.5067586 C31.968,18.1487398 31.438728,18.6689342 30.7860084,18.6689342 Z" id="Shape"></path>
                            <path d="M30.7860084,41.9138934 L3.60140586,41.9138934 C1.64311297,41.9138934 0.0555648536,40.3527837 0.0555648536,38.4271034 L0.0555648536,24.4802069 C0.0555648536,23.8383574 0.584702929,23.3178997 1.23755649,23.3178997 C1.89041004,23.3178997 2.41954812,23.8382257 2.41954812,24.4802069 L2.41954812,38.4272351 C2.41954812,39.0690846 2.94868619,39.5895423 3.60153975,39.5895423 L30.7860084,39.5895423 C31.438728,39.5895423 31.968,40.1098683 31.968,40.7518495 C31.968,41.3938307 31.438728,41.9138934 30.7860084,41.9138934 Z" id="Shape"></path>
                        </g>
                    </g>
                </g>
            </g>
        </g>
    </g>
</svg>