
<svg width="125px" height="107px" viewBox="0 0 125 107" version="1.1" xmlns="http://www.w3.org/2000/svg" xmlns:xlink="http://www.w3.org/1999/xlink">
    <!-- Generator: Sketch 51.2 (57519) - http://www.bohemiancoding.com/sketch -->
    <desc>Created with Sketch.</desc>
    <defs>
        <path d="M-1.03739239e-12,22.7147075 C0.0129811362,21.4218583 0.516767803,20.1330266 1.51136,19.152 L58.8,0.972 C60.967,0.274 64.0783,0.418 66.1275,0.972 L123.4162,19.152 C125.4316,21.14 125.4316,24.392 123.4162,26.38 L66.1275,44.56 C63.9423,45.663 61.3064,45.592 58.8,44.56 L1.51136,26.38 C0.516767803,25.3989734 0.0129811362,24.1101417 -1.00897068e-12,22.8172925 L0,22.7147074 Z" id="path-1"></path>
        <path d="M-4.40536496e-12,1.65265204 C0.000188889731,1.34108108 0.028489497,1.02946963 0.08482,0.722 C0.26628,1.714 0.73808,2.024 1.50798,2.787 L58.8339,21.061 C61.3419,22.098 63.9795,22.169 66.1661,21.061 L123.492,2.787 C124.2619,2.024 124.7337,1.714 124.9152,0.722 C124.971208,1.02774118 124.999502,1.33757775 125,1.64739754 L125,1.66406122 C124.997889,2.97610285 124.497266,4.28652128 123.492,5.283 L66.1661,23.557 C63.9795,24.665 61.3419,24.593 58.8339,23.557 L1.50798,5.283 C0.501411806,4.2852229 0.000796472068,2.97268745 -1.42108547e-13,1.65893257 L0,1.65265204 Z" id="path-3"></path>
        <path d="M0,3.6062564 L0,3.5541102 C0.000380813216,2.3737386 0.0264125824,1.22745089 0.0332,0 C0.8426,0.055 1.6524,0 2.4623,0 C34.6223,0.008 66.7823,0.008 98.9429,0.001 C99.7522,0.001 100.5626,0.054 101.3719,0.001 C101.3804,1.718 101.418,3.283 101.3894,5 C101.346,7.626 99.7247,9.409 96.985,9.789 C95.6738,9.972 94.3408,10.088 93.0174,10.092 C83.0934,10.116 75.3542,10.161 65.4308,10.061 C58.6175,10.061 60.3528,14.727 61.1086,16.936 C62.6997,21.586 63.1343,21.884 70.7145,21.884 C71.2509,21.884 71.1374,24.042 71.1374,25.534 C71.1374,27 71.0982,27 70.6705,27 C58.4511,27 43.4979,26.946 31.2774,26.993 C30.254,26.993 30.3075,26.948 30.3075,25.934 C30.3075,24.678 30.0759,21.917 30.8958,21.917 C37.4165,21.917 39.88,21.962 41.6036,16.936 C43.7745,10.608 41.2437,10.105 34.6218,10.105 C25.8082,10.105 16.9947,10.117 8.1816,10.091 C6.9319,10.088 5.6726,9.968 4.436,9.789 C1.7075,9.394 0.0714,7.61 0.0147,4.993 C0.004194298,4.52106847 0.000147834194,4.06101164 1.42108547e-14,3.6062564 Z" id="path-5"></path>
        <path d="M0.0142,60.13 C0.0084,42.042 -0.0075,23.791 0.0042,5.702 C0.0068,1.976 2.0198,0.009 5.8083,0.008 C35.7573,-0.003 65.7058,-0.002 95.6548,0.009 C99.4692,0.011 101.3932,1.938 101.3937,5.709 C101.3963,23.797 101.3863,42.042 101.3804,60.131 C101.3804,60.139 0.0042,60.131 0.0142,60.13 Z" id="path-7"></path>
        <path d="M91.2882,51.165 C61.4277,51.165 31.5666,51.165 1.706,51.165 C0.8753,51.165 0.9556,50.201 0.9556,49.431 C0.9556,33.918 0.9566,18.404 0.9059,2.891 C0.9012,1.355 1.3363,0.89 2.8963,0.892 C31.9885,0.934 61.0802,0.936 90.1724,0.891 C91.7926,0.889 92.1242,1.458 92.12,2.932 C92.0761,18.372 91.9722,33.813 92.0666,49.253 C92.0761,50.807 92.0651,51.165 91.2882,51.165 Z" id="path-9"></path>
        <path d="M18.7244,0.889 L18.7244,20.14 L3.1209,29.766 L2.684,30.055 C0.9171,27.068 -0.0119,23.636 0.0001,20.14 C0.0005,9.508 8.3834,0.889 18.7244,0.889 Z" id="path-11"></path>
        <path d="M18.9999,20.14 C19.0148,25.248 17.0365,30.149 13.5073,33.745 L0.2756,20.14 L0.2756,0.889 C10.6167,0.889 18.9999,9.508 18.9999,20.14 Z" id="path-13"></path>
        <path d="M29.6559,14.352 C25.5866,18.547 19.8632,20.578 14.1433,19.857 C8.4238,19.136 3.3469,15.744 0.3838,10.662 L0.8207,10.374 L16.4242,0.748 L29.6559,14.352 Z" id="path-15"></path>
        <path d="M6,3 C6,4.657 4.657,6 3.0002,6 C1.343,6 0,4.657 0,3 C0,1.343 1.343,0 3.0002,0 C4.657,0 6,1.343 6,3 Z" id="path-17"></path>
        <path d="M0.9999,0 L2.9999,0 C3.5522,0 4,0.517 4,1.154 L4,15 L-1.67452869e-08,15 L5.82983528e-17,1.154 C-0.0001,0.517 0.4477,0 0.9999,0 Z" id="path-19"></path>
        <path d="M0.73,0 L3.27,0 C3.6732,0 4,0.409 4,0.912 L4,10 L0,10 L0,0.913 C0,0.409 0.3268,0 0.73,0 Z" id="path-21"></path>
        <path d="M0.5772,0 L3.4228,0 C3.7415,0 4,0.31 4,0.692 L4,6 L0,6 L0,0.692 C0.0001,0.31 0.2585,0 0.5772,0 Z" id="path-23"></path>
        <path d="M1.1855,13 C0.706,13 0.2738,12.712 0.0903,12.269 C-0.0932,11.827 0.0082,11.319 0.3472,10.98 L4.5993,6.737 C6.0072,5.396 8.2225,5.396 9.6303,6.737 L11.0187,8.124 C11.4817,8.586 12.2323,8.586 12.6953,8.124 L17.6422,3.187 C19.0498,1.847 21.2646,1.847 22.6721,3.187 L24.0618,4.574 C24.5248,5.036 25.2754,5.036 25.7384,4.574 L29.9905,0.332 C30.4558,-0.116 31.1953,-0.11 31.6527,0.347 C32.1101,0.803 32.1165,1.541 31.6672,2.005 L27.4151,6.248 C26.0244,7.63 23.776,7.63 22.3852,6.248 L20.9956,4.861 C20.527,4.412 19.7873,4.412 19.319,4.861 L14.3721,9.797 C12.9829,11.183 10.7313,11.183 9.3422,9.797 L7.9525,8.41 C7.484,7.962 6.7443,7.962 6.2759,8.41 L2.0238,12.653 C1.8015,12.875 1.5,13 1.1855,13 Z" id="path-25"></path>
        <path d="M30.786,18.669 L3.6014,18.669 C1.6431,18.669 0.0556,17.108 0.0556,15.182 L0.0556,1.235 C0.0556,0.593 0.5847,0.073 1.2376,0.073 C1.8904,0.073 2.4195,0.593 2.4195,1.235 L2.4195,15.182 C2.4195,15.824 2.9487,16.344 3.6015,16.344 L30.786,16.344 C31.4387,16.344 31.968,16.865 31.968,17.507 C31.968,18.149 31.4387,18.669 30.786,18.669 Z" id="path-27"></path>
        <path d="M30.786,18.914 L3.6014,18.914 C1.6431,18.914 0.0556,17.353 0.0556,15.427 L0.0556,1.48 C0.0556,0.838 0.5847,0.318 1.2376,0.318 C1.8904,0.318 2.4195,0.838 2.4195,1.48 L2.4195,15.427 C2.4195,16.069 2.9487,16.59 3.6015,16.59 L30.786,16.59 C31.4387,16.59 31.968,17.11 31.968,17.752 C31.968,18.394 31.4387,18.914 30.786,18.914 Z" id="path-29"></path>
    </defs>
    <g id="Page-1" stroke="none" stroke-width="1" fill="none" fill-rule="evenodd">
        <g id="Mobile-2.1-products" transform="translate(-97.000000, -1601.000000)">
            <g id="Group-40" transform="translate(97.000000, 1662.000000)">
                <mask id="mask-2" fill="white">
                    <use xlink:href="#path-1"></use>
                </mask>
                <g id="Clip-39"></g>
                <polygon id="Fill-38" fill="#ECE8F4" mask="url(#mask-2)" points="-5.00026 50.361 129.92774 50.361 129.92774 -4.49892 -5.00026 -4.49892"></polygon>
            </g>
            <g id="Group-43" transform="translate(97.000000, 1683.000000)">
                <mask id="mask-4" fill="white">
                    <use xlink:href="#path-3"></use>
                </mask>
                <g id="Clip-42"></g>
                <polygon id="Fill-41" fill="#98B3C5" mask="url(#mask-4)" points="-5 29.361 130 29.361 130 -4.27789 -5 -4.27789"></polygon>
            </g>
            <g id="Group-270" transform="translate(108.000000, 1661.000000)">
                <mask id="mask-6" fill="white">
                    <use xlink:href="#path-5"></use>
                </mask>
                <g id="Clip-269"></g>
                <polygon id="Fill-268" fill="#98B3C5" mask="url(#mask-6)" points="-5 32 106.4 32 106.4 -5 -5 -5"></polygon>
            </g>
            <g id="Group-273" transform="translate(108.000000, 1601.000000)">
                <mask id="mask-8" fill="white">
                    <use xlink:href="#path-7"></use>
                </mask>
                <g id="Clip-272"></g>
                <polygon id="Fill-271" fill="#000000" mask="url(#mask-8)" points="-5 65.134 106.3941 65.134 106.3941 -5.00039 -5 -5.00039"></polygon>
            </g>
            <g id="Group-276" transform="translate(112.000000, 1605.000000)">
                <mask id="mask-10" fill="white">
                    <use xlink:href="#path-9"></use>
                </mask>
                <g id="Clip-275"></g>
                <polygon id="Fill-274" fill="#4F586F" mask="url(#mask-10)" points="-4.0941 56.165 97.12 56.165 97.12 -4.109 -4.0941 -4.109"></polygon>
            </g>
            <g id="Group-279" transform="translate(119.000000, 1611.000000)">
                <mask id="mask-12" fill="white">
                    <use xlink:href="#path-11"></use>
                </mask>
                <g id="Clip-278"></g>
                <polygon id="Fill-277" fill="#DBCB32" mask="url(#mask-12)" points="-5 35.055 23.72441 35.055 23.72441 -4.11114 -5 -4.11114"></polygon>
            </g>
            <g id="Group-282" transform="translate(137.000000, 1611.000000)">
                <mask id="mask-14" fill="white">
                    <use xlink:href="#path-13"></use>
                </mask>
                <g id="Clip-281"></g>
                <polygon id="Fill-280" fill="#98B3C5" mask="url(#mask-14)" points="-4.7244 38.745 23.99998 38.745 23.99998 -4.11111 -4.7244 -4.11111"></polygon>
            </g>
            <g id="Group-285" transform="translate(121.000000, 1630.000000)">
                <mask id="mask-16" fill="white">
                    <use xlink:href="#path-15"></use>
                </mask>
                <g id="Clip-284"></g>
                <polygon id="Fill-283" fill="#FFFFFF" mask="url(#mask-16)" points="-4.6162 25 34.65594 25 34.65594 -4.25215 -4.6162 -4.25215"></polygon>
            </g>
            <g id="Group-288" transform="translate(155.000000, 1664.000000)">
                <mask id="mask-18" fill="white">
                    <use xlink:href="#path-17"></use>
                </mask>
                <g id="Clip-287"></g>
                <polygon id="Fill-286" fill="#000000" mask="url(#mask-18)" points="-5 11 11 11 11 -5 -5 -5"></polygon>
            </g>
            <g id="Group-291" transform="translate(171.000000, 1612.000000)">
                <mask id="mask-20" fill="white">
                    <use xlink:href="#path-19"></use>
                </mask>
                <g id="Clip-290"></g>
                <polygon id="Fill-289" fill="#9ECCC7" mask="url(#mask-20)" points="-5 20 9 20 9 -5 -5 -5"></polygon>
            </g>
            <g id="Group-294" transform="translate(180.000000, 1618.000000)">
                <mask id="mask-22" fill="white">
                    <use xlink:href="#path-21"></use>
                </mask>
                <g id="Clip-293"></g>
                <polygon id="Fill-292" fill="#FFFFFF" mask="url(#mask-22)" points="-5 15 9 15 9 -5 -5 -5"></polygon>
            </g>
            <g id="Group-297" transform="translate(190.000000, 1622.000000)">
                <mask id="mask-24" fill="white">
                    <use xlink:href="#path-23"></use>
                </mask>
                <g id="Clip-296"></g>
                <polygon id="Fill-295" fill="#98B3C5" mask="url(#mask-24)" points="-5 11 9 11 9 -5 -5 -5"></polygon>
            </g>
            <g id="Group-300" transform="translate(165.000000, 1634.000000)">
                <mask id="mask-26" fill="white">
                    <use xlink:href="#path-25"></use>
                </mask>
                <g id="Clip-299"></g>
                <polygon id="Fill-298" fill="#F4F5F9" mask="url(#mask-26)" points="-5 18 37 18 37 -5 -5 -5"></polygon>
            </g>
            <g id="Group-303" transform="translate(165.000000, 1610.000000)">
                <mask id="mask-28" fill="white">
                    <use xlink:href="#path-27"></use>
                </mask>
                <g id="Clip-302"></g>
                <polygon id="Fill-301" fill="#793A78" mask="url(#mask-28)" points="-4.9444 23.669 36.96804 23.669 36.96804 -4.92713 -4.9444 -4.92713"></polygon>
            </g>
            <g id="Group-306" transform="translate(165.000000, 1633.000000)">
                <mask id="mask-30" fill="white">
                    <use xlink:href="#path-29"></use>
                </mask>
                <g id="Clip-305"></g>
                <polygon id="Fill-304" fill="#793A78" mask="url(#mask-30)" points="-4.9444 23.914 36.96804 23.914 36.96804 -4.68199 -4.9444 -4.68199"></polygon>
            </g>
        </g>
    </g>
</svg>