<?xml version="1.0" encoding="UTF-8"?>
<svg width="125px" height="101px" viewBox="0 0 125 101" version="1.1" xmlns="http://www.w3.org/2000/svg" xmlns:xlink="http://www.w3.org/1999/xlink">
    <!-- Generator: Sketch 51.2 (57519) - http://www.bohemiancoding.com/sketch -->
    <title>icon_datasearch</title>
    <desc>Created with Sketch.</desc>
    <defs></defs>
    <g id="Welcome" stroke="none" stroke-width="1" fill="none" fill-rule="evenodd">
        <g id="Desktop-2.1-products" transform="translate(-353.000000, -1010.000000)">
            <g id="icon_datasearch" transform="translate(353.000000, 1010.000000)">
                <g id="floor" transform="translate(0.000000, 55.000000)">
                    <path d="M66.1275175,0.971622222 C64.0783492,0.418344444 60.9670329,0.273955556 58.799992,0.971622222 L1.51135881,19.1518444 C-0.504131682,21.1400667 -0.504131682,24.3920111 1.51135881,26.3802333 L58.799992,44.5604556 C61.3064021,45.5916222 63.9423424,45.6631778 66.1275175,44.5604556 L123.416151,26.3802333 C125.431641,24.3920111 125.431641,21.1400667 123.416151,19.1518444 L66.1275175,0.971622222 Z" id="Fill-1" fill="#ECE8F4"></path>
                    <path d="M66.1661442,42.0605155 C63.9795487,43.1689039 61.3418951,43.098265 58.8338558,42.0605155 L1.50798489,23.7868764 C0.738075168,23.0239763 0.266278636,22.7137354 0.0848184319,21.7222222 C-0.209406328,23.3276516 0.261094059,25.0473875 1.50798489,26.2829259 L58.8338558,44.556565 C61.3418951,45.5930302 63.9795487,45.6649535 66.1661442,44.556565 L123.492015,26.2829259 C124.738906,25.0473875 125.209406,23.3276516 124.915182,21.7222222 C124.733721,22.7137354 124.261925,23.0239763 123.492015,23.7868764 L66.1661442,42.0605155 Z" id="Fill-4" fill="#98B3C5"></path>
                </g>
                <g id="icon-search" transform="translate(3.000000, 0.000000)">
                    <g id="Group-2" stroke-width="1" transform="translate(10.000000, 15.000000)" fill="#000000">
                        <polygon id="Fill-38" points="0 3.7 3.7 3.7 3.7 0 0 0"></polygon>
                        <polygon id="Fill-39" points="0 11.4 3.7 11.4 3.7 7.7 0 7.7"></polygon>
                        <polygon id="Fill-40" points="0 19.1 3.7 19.1 3.7 15.4 0 15.4"></polygon>
                    </g>
                    <g id="Group-2" stroke-width="1" transform="translate(20.000000, 7.000000)" fill="#000000">
                        <polygon id="Fill-38" points="0 3.7 3.7 3.7 3.7 0 0 0"></polygon>
                        <polygon id="Fill-39" points="0 11.4 3.7 11.4 3.7 7.7 0 7.7"></polygon>
                        <polygon id="Fill-40" points="0 19.1 3.7 19.1 3.7 15.4 0 15.4"></polygon>
                    </g>
                    <g id="Group-2" stroke-width="1" transform="translate(82.000000, 7.000000)" fill="#000000">
                        <polygon id="Fill-38" points="0 3.7 3.7 3.7 3.7 0 0 0"></polygon>
                        <polygon id="Fill-39" points="0 11.4 3.7 11.4 3.7 7.7 0 7.7"></polygon>
                        <polygon id="Fill-40" points="0 19.1 3.7 19.1 3.7 15.4 0 15.4"></polygon>
                    </g>
                    <g id="Group-2" stroke-width="1" transform="translate(10.000000, 39.000000)" fill="#000000">
                        <polygon id="Fill-38" points="0 3.7 3.7 3.7 3.7 0 0 0"></polygon>
                        <polygon id="Fill-39" points="0 11.4 3.7 11.4 3.7 7.7 0 7.7"></polygon>
                        <polygon id="Fill-40" points="0 19.1 3.7 19.1 3.7 15.4 0 15.4"></polygon>
                    </g>
                    <g id="Group-2" stroke-width="1" transform="translate(0.000000, 39.000000)" fill="#000000">
                        <polygon id="Fill-38" points="0 3.7 3.7 3.7 3.7 0 0 0"></polygon>
                        <polygon id="Fill-39" points="0 11.4 3.7 11.4 3.7 7.7 0 7.7"></polygon>
                        <polygon id="Fill-40" points="0 19.1 3.7 19.1 3.7 15.4 0 15.4"></polygon>
                    </g>
                    <g id="Group-2" stroke-width="1" transform="translate(92.000000, 15.000000)" fill="#000000">
                        <polygon id="Fill-38" points="0 3.7 3.7 3.7 3.7 0 0 0"></polygon>
                        <polygon id="Fill-39" points="0 11.4 3.7 11.4 3.7 7.7 0 7.7"></polygon>
                        <polygon id="Fill-40" points="0 19.1 3.7 19.1 3.7 15.4 0 15.4"></polygon>
                    </g>
                    <g id="Group-2" stroke-width="1" transform="translate(108.000000, 15.000000)" fill="#000000">
                        <polygon id="Fill-38" points="0 3.7 3.7 3.7 3.7 0 0 0"></polygon>
                        <polygon id="Fill-39" points="0 11.4 3.7 11.4 3.7 7.7 0 7.7"></polygon>
                        <polygon id="Fill-40" points="0 19.1 3.7 19.1 3.7 15.4 0 15.4"></polygon>
                    </g>
                    <g id="Group-2" stroke-width="1" transform="translate(20.000000, 47.000000)" fill="#000000">
                        <polygon id="Fill-38" points="0 3.7 3.7 3.7 3.7 0 0 0"></polygon>
                        <polygon id="Fill-39" points="0 11.4 3.7 11.4 3.7 7.7 0 7.7"></polygon>
                        <polygon id="Fill-40" points="0 19.1 3.7 19.1 3.7 15.4 0 15.4"></polygon>
                    </g>
                    <g id="Group-2" stroke-width="1" transform="translate(31.000000, 53.000000)" fill="#000000">
                        <polygon id="Fill-38" points="0 3.7 3.7 3.7 3.7 0 0 0"></polygon>
                        <polygon id="Fill-39" points="0 11.4 3.7 11.4 3.7 7.7 0 7.7"></polygon>
                        <polygon id="Fill-40" points="0 19.1 3.7 19.1 3.7 15.4 0 15.4"></polygon>
                    </g>
                    <g id="Group-2" stroke-width="1" transform="translate(41.000000, 45.000000)" fill="#000000">
                        <polygon id="Fill-38" points="0 3.7 3.7 3.7 3.7 0 0 0"></polygon>
                        <polygon id="Fill-39" points="0 11.4 3.7 11.4 3.7 7.7 0 7.7"></polygon>
                        <polygon id="Fill-40" points="0 19.1 3.7 19.1 3.7 15.4 0 15.4"></polygon>
                    </g>
                    <g id="Group-2" stroke-width="1" transform="translate(100.000000, 39.000000)" fill="#000000">
                        <polygon id="Fill-38" points="0 3.7 3.7 3.7 3.7 0 0 0"></polygon>
                        <polygon id="Fill-39" points="0 11.4 3.7 11.4 3.7 7.7 0 7.7"></polygon>
                        <polygon id="Fill-40" points="0 19.1 3.7 19.1 3.7 15.4 0 15.4"></polygon>
                    </g>
                    <g id="Group-2" stroke-width="1" transform="translate(92.000000, 39.000000)" fill="#000000">
                        <polygon id="Fill-38" points="0 3.7 3.7 3.7 3.7 0 0 0"></polygon>
                        <polygon id="Fill-39" points="0 11.4 3.7 11.4 3.7 7.7 0 7.7"></polygon>
                        <polygon id="Fill-40" points="0 19.1 3.7 19.1 3.7 15.4 0 15.4"></polygon>
                    </g>
                    <g id="Group-2" stroke-width="1" transform="translate(70.000000, 45.000000)" fill="#000000">
                        <polygon id="Fill-38" points="0 3.7 3.7 3.7 3.7 0 0 0"></polygon>
                        <polygon id="Fill-39" points="0 11.4 3.7 11.4 3.7 7.7 0 7.7"></polygon>
                        <polygon id="Fill-40" points="0 19.1 3.7 19.1 3.7 15.4 0 15.4"></polygon>
                    </g>
                    <g id="iconsearch" transform="translate(23.000000, 0.000000)">
                        <path d="M60.4967308,53.2014161 L54.856382,47.5612084 C54.6180156,47.3226922 54.2884497,47.197666 53.9518683,47.2212059 C53.615287,47.2434986 53.3047404,47.4099922 53.1000478,47.6776605 C52.3216547,48.6953298 51.470146,49.6682578 50.5689062,50.5691633 C49.66829,51.4699129 48.6954935,52.3212444 47.6774869,53.0997739 C47.4096561,53.3046173 47.2431582,53.6151561 47.2210209,53.9515731 C47.1984158,54.2879901 47.3223538,54.6177038 47.560876,54.85622 L53.2012249,60.4964277 C53.4297697,60.7249668 53.7292476,60.8390805 54.0285696,60.8390805 C54.3278916,60.8390805 54.6273695,60.7249668 54.8557584,60.4964277 L60.4965749,54.8557523 C60.7159218,54.6364109 60.8390803,54.3388112 60.8390803,54.0285842 C60.8392362,53.7182013 60.7160777,53.4206016 60.4967308,53.2014161" id="Fill-1" fill="#9ECCC7"></path>
                        <path d="M51.9394628,8.90974162 C46.1913024,3.1642829 38.5487179,0 30.4197024,0 C22.290229,0 14.6477971,3.1642829 8.89963675,8.90974162 C-2.96662192,20.7704231 -2.96646924,40.0689625 8.89963675,51.9293388 C14.6477971,57.6749502 22.2903816,60.8390805 30.4197024,60.8390805 C38.5490233,60.8390805 46.1914551,57.6747976 51.9397681,51.9293388 C63.8055688,40.0688099 63.8055688,20.7702705 51.9394628,8.90974162" id="Fill-3" fill="#9ECCC7"></path>
                        <path d="M30.4194635,6.35632184 C17.1508185,6.35632184 6.35632184,17.1510065 6.35632184,30.4195402 C6.35632184,43.688074 17.1509721,54.4827586 30.4194635,54.4827586 C43.6879549,54.4827586 54.4827586,43.688074 54.4827586,30.4195402 C54.4827586,17.1510065 43.6878013,6.35632184 30.4194635,6.35632184" id="Fill-5" fill="#ECE8F4"></path>
                        <path d="M76.9019829,66.900549 L62.1282287,52.126641 C61.9116828,51.9099412 61.6177222,51.7883553 61.311603,51.7883553 C61.0053298,51.7883553 60.7118309,51.9099412 60.4949772,52.126641 L52.1046324,60.5169858 C51.8882404,60.7335317 51.7666546,61.0273384 51.7666546,61.3336115 C51.7666546,61.6398847 51.8882404,61.9336914 52.1046324,62.1502373 L66.8785404,76.9241453 C68.2172157,78.2628206 69.9971397,79.0000308 71.8903386,79.0000308 C73.7835375,79.0000308 75.5633076,78.2628206 76.9019829,76.9241453 C78.2406581,75.5854701 78.9778683,73.8055461 78.9778683,71.9125011 C78.9778683,70.0191483 78.2406581,68.2392242 76.9019829,66.900549" id="Fill-9" fill="#4F586F"></path>
                        <path d="M41.0009881,39.127596 C39.4229559,37.9869855 37.6619725,37.1158902 35.8205967,36.5417522 C38.1021793,34.9941093 39.601224,32.4090321 39.601224,29.4857577 L39.601224,23.0998718 C39.601224,22.6568121 39.5667256,22.2214178 39.5003823,21.796295 C38.9034494,17.969884 35.7206916,14.9688825 31.7649181,14.5730416 C31.4719152,14.5437598 31.1745415,14.5287356 30.8738896,14.5287356 C30.1219476,14.5287356 29.392016,14.62256 28.6953341,14.7990174 C28.1378949,14.9402139 27.6021538,15.1341484 27.0935744,15.3751484 C26.9663516,15.4353984 26.8410019,15.4987145 26.7172132,15.5647902 C26.4699481,15.6969416 26.2298637,15.8404377 25.9975843,15.9945121 C25.8814447,16.071626 25.7674904,16.1513461 25.6554094,16.2338257 C25.0951603,16.6454573 24.5868932,17.1216316 24.1418472,17.6510036 C23.9638912,17.8627218 23.7960819,18.0830252 23.6390436,18.310994 C23.4820053,18.5391161 23.3358941,18.7749036 23.2013344,19.0177433 C23.1342107,19.1391631 23.0698967,19.2624226 23.0083927,19.3872152 C22.8856967,19.6369537 22.7750206,19.8934378 22.6769887,20.1559009 C22.3338772,21.0743683 22.1465551,22.0659636 22.1465551,23.0998718 L22.1465551,26.2879089 L22.1465551,29.4857577 C22.1465551,32.4091854 23.6454438,34.9941093 25.9270264,36.5415989 C24.0853384,37.1157369 22.3241989,37.9871388 20.7461667,39.127596 C17.8031811,41.254896 15.6140107,44.2175705 14.5818662,47.4701502 C14.4427796,47.9083041 14.5821784,48.3857048 14.9366854,48.6848084 C19.3665398,52.4236807 25.0264756,54.4827586 30.8734213,54.4827586 C36.720367,54.4827586 42.3803028,52.423834 46.8101571,48.6848084 C47.1648202,48.3857048 47.3043752,47.9084574 47.1652885,47.4701502 C46.1333001,44.2175705 43.9439736,41.254896 41.0009881,39.127596 Z" id="Fill-12" fill="#793A78"></path>
                    </g>
                </g>
            </g>
        </g>
    </g>
</svg>