
<svg width="125px" height="101px" viewBox="0 0 125 101" version="1.1" xmlns="http://www.w3.org/2000/svg" xmlns:xlink="http://www.w3.org/1999/xlink">
    <!-- Generator: Sketch 51.2 (57519) - http://www.bohemiancoding.com/sketch -->
    <desc>Created with Sketch.</desc>
    <defs>
        <path d="M-1.03739239e-12,22.7147075 C0.0129811362,21.4218583 0.516767803,20.1330266 1.51136,19.152 L58.8,0.972 C60.967,0.274 64.0783,0.418 66.1275,0.972 L123.4162,19.152 C125.4316,21.14 125.4316,24.392 123.4162,26.38 L66.1275,44.56 C63.9423,45.663 61.3064,45.592 58.8,44.56 L1.51136,26.38 C0.516767803,25.3989734 0.0129811362,24.1101417 -1.00897068e-12,22.8172925 L0,22.7147074 Z" id="path-1"></path>
        <path d="M-4.40536496e-12,1.65265204 C0.000188889731,1.34108108 0.028489497,1.02946963 0.08482,0.722 C0.26628,1.714 0.73808,2.024 1.50798,2.787 L58.8339,21.061 C61.3419,22.098 63.9795,22.169 66.1661,21.061 L123.492,2.787 C124.2619,2.024 124.7337,1.714 124.9152,0.722 C124.971208,1.02774118 124.999502,1.33757775 125,1.64739754 L125,1.66406122 C124.997889,2.97610285 124.497266,4.28652128 123.492,5.283 L66.1661,23.557 C63.9795,24.665 61.3419,24.593 58.8339,23.557 L1.50798,5.283 C0.501411806,4.2852229 0.000796472068,2.97268745 -1.42108547e-13,1.65893257 L0,1.65265204 Z" id="path-3"></path>
        <polygon id="path-5" points="0 0 3.7 0 3.7 3.7 0 3.7"></polygon>
        <polygon id="path-7" points="0 0.7 3.7 0.7 3.7 4.4 0 4.4"></polygon>
        <polygon id="path-9" points="0 0.4 3.7 0.4 3.7 4.1 0 4.1"></polygon>
        <polygon id="path-11" points="0 0 3.7 0 3.7 3.7 0 3.7"></polygon>
        <polygon id="path-13" points="0 0.7 3.7 0.7 3.7 4.4 0 4.4"></polygon>
        <polygon id="path-15" points="0 0.4 3.7 0.4 3.7 4.1 0 4.1"></polygon>
        <polygon id="path-17" points="0 0 3.7 0 3.7 3.7 0 3.7"></polygon>
        <polygon id="path-19" points="0 0.7 3.7 0.7 3.7 4.4 0 4.4"></polygon>
        <polygon id="path-21" points="0 0.4 3.7 0.4 3.7 4.1 0 4.1"></polygon>
        <polygon id="path-23" points="0 0 3.7 0 3.7 3.7 0 3.7"></polygon>
        <polygon id="path-25" points="0 0.7 3.7 0.7 3.7 4.4 0 4.4"></polygon>
        <polygon id="path-27" points="0 0.4 3.7 0.4 3.7 4.1 0 4.1"></polygon>
        <polygon id="path-29" points="0 0 3.7 0 3.7 3.7 0 3.7"></polygon>
        <polygon id="path-31" points="0 0.7 3.7 0.7 3.7 4.4 0 4.4"></polygon>
        <polygon id="path-33" points="0 0.4 3.7 0.4 3.7 4.1 0 4.1"></polygon>
        <polygon id="path-35" points="0 0 3.7 0 3.7 3.7 0 3.7"></polygon>
        <polygon id="path-37" points="0 0.7 3.7 0.7 3.7 4.4 0 4.4"></polygon>
        <polygon id="path-39" points="0 0.4 3.7 0.4 3.7 4.1 0 4.1"></polygon>
        <polygon id="path-41" points="0 0 3.7 0 3.7 3.7 0 3.7"></polygon>
        <polygon id="path-43" points="0 0.7 3.7 0.7 3.7 4.4 0 4.4"></polygon>
        <polygon id="path-45" points="0 0.4 3.7 0.4 3.7 4.1 0 4.1"></polygon>
        <polygon id="path-47" points="0 0 3.7 0 3.7 3.7 0 3.7"></polygon>
        <polygon id="path-49" points="0 0.7 3.7 0.7 3.7 4.4 0 4.4"></polygon>
        <polygon id="path-51" points="0 0.4 3.7 0.4 3.7 4.1 0 4.1"></polygon>
        <polygon id="path-53" points="0 0 3.7 0 3.7 3.7 0 3.7"></polygon>
        <polygon id="path-55" points="0 0.7 3.7 0.7 3.7 4.4 0 4.4"></polygon>
        <polygon id="path-57" points="0 0.4 3.7 0.4 3.7 4.1 0 4.1"></polygon>
        <polygon id="path-59" points="0 0 3.7 0 3.7 3.7 0 3.7"></polygon>
        <polygon id="path-61" points="0 0.7 3.7 0.7 3.7 4.4 0 4.4"></polygon>
        <polygon id="path-63" points="0 0.4 3.7 0.4 3.7 4.1 0 4.1"></polygon>
        <polygon id="path-65" points="0 0 3.7 0 3.7 3.7 0 3.7"></polygon>
        <polygon id="path-67" points="0 0.7 3.7 0.7 3.7 4.4 0 4.4"></polygon>
        <polygon id="path-69" points="0 0.4 3.7 0.4 3.7 4.1 0 4.1"></polygon>
        <polygon id="path-71" points="0 0 3.7 0 3.7 3.7 0 3.7"></polygon>
        <polygon id="path-73" points="0 0.7 3.7 0.7 3.7 4.4 0 4.4"></polygon>
        <polygon id="path-75" points="0 0.4 3.7 0.4 3.7 4.1 0 4.1"></polygon>
        <polygon id="path-77" points="0 0 3.7 0 3.7 3.7 0 3.7"></polygon>
        <polygon id="path-79" points="0 0.7 3.7 0.7 3.7 4.4 0 4.4"></polygon>
        <polygon id="path-81" points="0 0.4 3.7 0.4 3.7 4.1 0 4.1"></polygon>
        <path d="M13.4967,6.201 C13.7161,6.421 13.8392,6.718 13.8391,7.029 C13.8391,7.339 13.7159,7.636 13.4966,7.856 L7.8558,13.496 C7.6274,13.725 7.3279,13.839 7.0286,13.839 C6.7292,13.839 6.4298,13.725 6.2012,13.496 L0.5609,7.856 C0.3224,7.618 0.1984,7.288 0.221,6.952 C0.2432,6.615 0.4097,6.305 0.6775,6.1 C1.6955,5.321 2.6683,4.47 3.5689,3.569 C4.4701,2.668 5.3217,1.695 6.1,0.678 C6.3047,0.41 6.6153,0.243 6.9519,0.221 C7.2884,0.198 7.618,0.323 7.8564,0.561 L13.4967,6.201 Z" id="path-83"></path>
        <path d="M0,30.4471472 L0,30.3917544 C0.00702318096,22.6112559 2.97354406,14.8329596 8.8996,8.91 C14.6478,3.164 22.2902,0 30.4197,0 C38.5487,0 46.1913,3.164 51.9395,8.91 C63.8056,20.77 63.8056,40.069 51.9398,51.929 C46.1915,57.675 38.549,60.839 30.4197,60.839 C22.2904,60.839 14.6478,57.675 8.8996,51.929 C2.973569,46.0060154 0.00702321052,38.2276785 -1.17239551e-11,30.4471466 L0,30.4471472 Z" id="path-85"></path>
        <path d="M24.4195,0.356 C37.6878,0.356 48.4828,11.151 48.4828,24.42 C48.4828,37.688 37.688,48.483 24.4195,48.483 C11.151,48.483 0.3563,37.688 0.3563,24.42 C0.3563,11.151 11.1508,0.356 24.4195,0.356 Z" id="path-87"></path>
        <path d="M25.902,15.901 C27.2407,17.239 27.9779,19.019 27.9779,20.913 C27.9779,22.806 27.2407,24.585 25.902,25.924 C24.5633,27.263 22.7835,28 20.8903,28 C18.9971,28 17.2172,27.263 15.8785,25.924 L1.1046,11.15 C0.8882,10.934 0.7667,10.64 0.7667,10.334 C0.7667,10.027 0.8882,9.734 1.1046,9.517 L9.495,1.127 C9.7118,0.91 10.0053,0.788 10.3116,0.788 C10.6177,0.788 10.9117,0.91 11.1282,1.127 L25.902,15.901 Z" id="path-89"></path>
        <path d="M27.001,25.128 C29.944,27.255 32.1333,30.218 33.1653,33.47 C33.3044,33.908 33.1648,34.386 32.8102,34.685 C28.3803,38.424 22.7204,40.483 16.8734,40.483 C11.0265,40.483 5.3665,38.424 0.9367,34.685 C0.5822,34.386 0.4428,33.908 0.5819,33.47 C1.614,30.218 3.8032,27.255 6.7462,25.128 C8.3242,23.987 10.0853,23.116 11.927,22.542 C9.6454,20.994 8.1466,18.409 8.1466,15.486 L8.1466,12.288 L8.1466,9.1 C8.1466,8.066 8.3339,7.074 8.677,6.156 C8.775,5.893 8.8857,5.637 9.0084,5.387 C9.0699,5.262 9.1342,5.139 9.2013,5.018 C9.3359,4.775 9.482,4.539 9.639,4.311 C9.7961,4.083 9.9639,3.863 10.1418,3.651 C10.5869,3.122 11.0952,2.645 11.6554,2.234 C11.7675,2.151 11.8814,2.072 11.9976,1.995 C12.2299,1.84 12.4699,1.697 12.7172,1.565 C12.841,1.499 12.9664,1.435 13.0936,1.375 C13.6022,1.134 14.1379,0.94 14.6953,0.799 C15.392,0.623 16.1219,0.529 16.8739,0.529 C17.1745,0.529 17.4719,0.544 17.7649,0.573 C21.7207,0.969 24.9034,3.97 25.5004,7.796 C25.5667,8.221 25.6012,8.657 25.6012,9.1 L25.6012,15.486 C25.6012,18.409 24.1022,20.994 21.8206,22.542 C23.662,23.116 25.423,23.987 27.001,25.128 Z" id="path-91"></path>
    </defs>
    <g id="Page-1" stroke="none" stroke-width="1" fill="none" fill-rule="evenodd">
        <g id="Mobile-2.1-products" transform="translate(-97.000000, -1187.000000)">
            <g id="Group-34" transform="translate(97.000000, 1242.000000)">
                <mask id="mask-2" fill="white">
                    <use xlink:href="#path-1"></use>
                </mask>
                <g id="Clip-33"></g>
                <polygon id="Fill-32" fill="#ECE8F4" mask="url(#mask-2)" points="-5.00026 50.361 129.92774 50.361 129.92774 -4.49892 -5.00026 -4.49892"></polygon>
            </g>
            <g id="Group-37" transform="translate(97.000000, 1263.000000)">
                <mask id="mask-4" fill="white">
                    <use xlink:href="#path-3"></use>
                </mask>
                <g id="Clip-36"></g>
                <polygon id="Fill-35" fill="#98B3C5" mask="url(#mask-4)" points="-5 29.361 130 29.361 130 -4.27789 -5 -4.27789"></polygon>
            </g>
            <g id="Group-138" transform="translate(113.000000, 1202.000000)">
                <mask id="mask-6" fill="white">
                    <use xlink:href="#path-5"></use>
                </mask>
                <g id="Clip-137"></g>
                <polygon id="Fill-136" fill="#000000" mask="url(#mask-6)" points="-5 8.7 8.7 8.7 8.7 -5 -5 -5"></polygon>
            </g>
            <g id="Group-141" transform="translate(113.000000, 1209.000000)">
                <mask id="mask-8" fill="white">
                    <use xlink:href="#path-7"></use>
                </mask>
                <g id="Clip-140"></g>
                <polygon id="Fill-139" fill="#000000" mask="url(#mask-8)" points="-5 9.4 8.7 9.4 8.7 -4.3 -5 -4.3"></polygon>
            </g>
            <g id="Group-144" transform="translate(113.000000, 1217.000000)">
                <mask id="mask-10" fill="white">
                    <use xlink:href="#path-9"></use>
                </mask>
                <g id="Clip-143"></g>
                <polygon id="Fill-142" fill="#000000" mask="url(#mask-10)" points="-5 9.1 8.7 9.1 8.7 -4.6 -5 -4.6"></polygon>
            </g>
            <g id="Group-147" transform="translate(123.000000, 1194.000000)">
                <mask id="mask-12" fill="white">
                    <use xlink:href="#path-11"></use>
                </mask>
                <g id="Clip-146"></g>
                <polygon id="Fill-145" fill="#000000" mask="url(#mask-12)" points="-5 8.7 8.7 8.7 8.7 -5 -5 -5"></polygon>
            </g>
            <g id="Group-150" transform="translate(123.000000, 1201.000000)">
                <mask id="mask-14" fill="white">
                    <use xlink:href="#path-13"></use>
                </mask>
                <g id="Clip-149"></g>
                <polygon id="Fill-148" fill="#000000" mask="url(#mask-14)" points="-5 9.4 8.7 9.4 8.7 -4.3 -5 -4.3"></polygon>
            </g>
            <g id="Group-153" transform="translate(123.000000, 1209.000000)">
                <mask id="mask-16" fill="white">
                    <use xlink:href="#path-15"></use>
                </mask>
                <g id="Clip-152"></g>
                <polygon id="Fill-151" fill="#000000" mask="url(#mask-16)" points="-5 9.1 8.7 9.1 8.7 -4.6 -5 -4.6"></polygon>
            </g>
            <g id="Group-156" transform="translate(185.000000, 1194.000000)">
                <mask id="mask-18" fill="white">
                    <use xlink:href="#path-17"></use>
                </mask>
                <g id="Clip-155"></g>
                <polygon id="Fill-154" fill="#000000" mask="url(#mask-18)" points="-5 8.7 8.7 8.7 8.7 -5 -5 -5"></polygon>
            </g>
            <g id="Group-159" transform="translate(185.000000, 1201.000000)">
                <mask id="mask-20" fill="white">
                    <use xlink:href="#path-19"></use>
                </mask>
                <g id="Clip-158"></g>
                <polygon id="Fill-157" fill="#000000" mask="url(#mask-20)" points="-5 9.4 8.7 9.4 8.7 -4.3 -5 -4.3"></polygon>
            </g>
            <g id="Group-162" transform="translate(185.000000, 1209.000000)">
                <mask id="mask-22" fill="white">
                    <use xlink:href="#path-21"></use>
                </mask>
                <g id="Clip-161"></g>
                <polygon id="Fill-160" fill="#000000" mask="url(#mask-22)" points="-5 9.1 8.7 9.1 8.7 -4.6 -5 -4.6"></polygon>
            </g>
            <g id="Group-165" transform="translate(113.000000, 1226.000000)">
                <mask id="mask-24" fill="white">
                    <use xlink:href="#path-23"></use>
                </mask>
                <g id="Clip-164"></g>
                <polygon id="Fill-163" fill="#000000" mask="url(#mask-24)" points="-5 8.7 8.7 8.7 8.7 -5 -5 -5"></polygon>
            </g>
            <g id="Group-168" transform="translate(113.000000, 1233.000000)">
                <mask id="mask-26" fill="white">
                    <use xlink:href="#path-25"></use>
                </mask>
                <g id="Clip-167"></g>
                <polygon id="Fill-166" fill="#000000" mask="url(#mask-26)" points="-5 9.4 8.7 9.4 8.7 -4.3 -5 -4.3"></polygon>
            </g>
            <g id="Group-171" transform="translate(113.000000, 1241.000000)">
                <mask id="mask-28" fill="white">
                    <use xlink:href="#path-27"></use>
                </mask>
                <g id="Clip-170"></g>
                <polygon id="Fill-169" fill="#000000" mask="url(#mask-28)" points="-5 9.1 8.7 9.1 8.7 -4.6 -5 -4.6"></polygon>
            </g>
            <g id="Group-174" transform="translate(103.000000, 1226.000000)">
                <mask id="mask-30" fill="white">
                    <use xlink:href="#path-29"></use>
                </mask>
                <g id="Clip-173"></g>
                <polygon id="Fill-172" fill="#000000" mask="url(#mask-30)" points="-5 8.7 8.7 8.7 8.7 -5 -5 -5"></polygon>
            </g>
            <g id="Group-177" transform="translate(103.000000, 1233.000000)">
                <mask id="mask-32" fill="white">
                    <use xlink:href="#path-31"></use>
                </mask>
                <g id="Clip-176"></g>
                <polygon id="Fill-175" fill="#000000" mask="url(#mask-32)" points="-5 9.4 8.7 9.4 8.7 -4.3 -5 -4.3"></polygon>
            </g>
            <g id="Group-180" transform="translate(103.000000, 1241.000000)">
                <mask id="mask-34" fill="white">
                    <use xlink:href="#path-33"></use>
                </mask>
                <g id="Clip-179"></g>
                <polygon id="Fill-178" fill="#000000" mask="url(#mask-34)" points="-5 9.1 8.7 9.1 8.7 -4.6 -5 -4.6"></polygon>
            </g>
            <g id="Group-183" transform="translate(195.000000, 1202.000000)">
                <mask id="mask-36" fill="white">
                    <use xlink:href="#path-35"></use>
                </mask>
                <g id="Clip-182"></g>
                <polygon id="Fill-181" fill="#000000" mask="url(#mask-36)" points="-5 8.7 8.7 8.7 8.7 -5 -5 -5"></polygon>
            </g>
            <g id="Group-186" transform="translate(195.000000, 1209.000000)">
                <mask id="mask-38" fill="white">
                    <use xlink:href="#path-37"></use>
                </mask>
                <g id="Clip-185"></g>
                <polygon id="Fill-184" fill="#000000" mask="url(#mask-38)" points="-5 9.4 8.7 9.4 8.7 -4.3 -5 -4.3"></polygon>
            </g>
            <g id="Group-189" transform="translate(195.000000, 1217.000000)">
                <mask id="mask-40" fill="white">
                    <use xlink:href="#path-39"></use>
                </mask>
                <g id="Clip-188"></g>
                <polygon id="Fill-187" fill="#000000" mask="url(#mask-40)" points="-5 9.1 8.7 9.1 8.7 -4.6 -5 -4.6"></polygon>
            </g>
            <g id="Group-192" transform="translate(211.000000, 1202.000000)">
                <mask id="mask-42" fill="white">
                    <use xlink:href="#path-41"></use>
                </mask>
                <g id="Clip-191"></g>
                <polygon id="Fill-190" fill="#000000" mask="url(#mask-42)" points="-5 8.7 8.7 8.7 8.7 -5 -5 -5"></polygon>
            </g>
            <g id="Group-195" transform="translate(211.000000, 1209.000000)">
                <mask id="mask-44" fill="white">
                    <use xlink:href="#path-43"></use>
                </mask>
                <g id="Clip-194"></g>
                <polygon id="Fill-193" fill="#000000" mask="url(#mask-44)" points="-5 9.4 8.7 9.4 8.7 -4.3 -5 -4.3"></polygon>
            </g>
            <g id="Group-198" transform="translate(211.000000, 1217.000000)">
                <mask id="mask-46" fill="white">
                    <use xlink:href="#path-45"></use>
                </mask>
                <g id="Clip-197"></g>
                <polygon id="Fill-196" fill="#000000" mask="url(#mask-46)" points="-5 9.1 8.7 9.1 8.7 -4.6 -5 -4.6"></polygon>
            </g>
            <g id="Group-201" transform="translate(123.000000, 1234.000000)">
                <mask id="mask-48" fill="white">
                    <use xlink:href="#path-47"></use>
                </mask>
                <g id="Clip-200"></g>
                <polygon id="Fill-199" fill="#000000" mask="url(#mask-48)" points="-5 8.7 8.7 8.7 8.7 -5 -5 -5"></polygon>
            </g>
            <g id="Group-204" transform="translate(123.000000, 1241.000000)">
                <mask id="mask-50" fill="white">
                    <use xlink:href="#path-49"></use>
                </mask>
                <g id="Clip-203"></g>
                <polygon id="Fill-202" fill="#000000" mask="url(#mask-50)" points="-5 9.4 8.7 9.4 8.7 -4.3 -5 -4.3"></polygon>
            </g>
            <g id="Group-207" transform="translate(123.000000, 1249.000000)">
                <mask id="mask-52" fill="white">
                    <use xlink:href="#path-51"></use>
                </mask>
                <g id="Clip-206"></g>
                <polygon id="Fill-205" fill="#000000" mask="url(#mask-52)" points="-5 9.1 8.7 9.1 8.7 -4.6 -5 -4.6"></polygon>
            </g>
            <g id="Group-210" transform="translate(134.000000, 1240.000000)">
                <mask id="mask-54" fill="white">
                    <use xlink:href="#path-53"></use>
                </mask>
                <g id="Clip-209"></g>
                <polygon id="Fill-208" fill="#000000" mask="url(#mask-54)" points="-5 8.7 8.7 8.7 8.7 -5 -5 -5"></polygon>
            </g>
            <g id="Group-213" transform="translate(134.000000, 1247.000000)">
                <mask id="mask-56" fill="white">
                    <use xlink:href="#path-55"></use>
                </mask>
                <g id="Clip-212"></g>
                <polygon id="Fill-211" fill="#000000" mask="url(#mask-56)" points="-5 9.4 8.7 9.4 8.7 -4.3 -5 -4.3"></polygon>
            </g>
            <g id="Group-216" transform="translate(134.000000, 1255.000000)">
                <mask id="mask-58" fill="white">
                    <use xlink:href="#path-57"></use>
                </mask>
                <g id="Clip-215"></g>
                <polygon id="Fill-214" fill="#000000" mask="url(#mask-58)" points="-5 9.1 8.7 9.1 8.7 -4.6 -5 -4.6"></polygon>
            </g>
            <g id="Group-219" transform="translate(144.000000, 1232.000000)">
                <mask id="mask-60" fill="white">
                    <use xlink:href="#path-59"></use>
                </mask>
                <g id="Clip-218"></g>
                <polygon id="Fill-217" fill="#000000" mask="url(#mask-60)" points="-5 8.7 8.7 8.7 8.7 -5 -5 -5"></polygon>
            </g>
            <g id="Group-222" transform="translate(144.000000, 1239.000000)">
                <mask id="mask-62" fill="white">
                    <use xlink:href="#path-61"></use>
                </mask>
                <g id="Clip-221"></g>
                <polygon id="Fill-220" fill="#000000" mask="url(#mask-62)" points="-5 9.4 8.7 9.4 8.7 -4.3 -5 -4.3"></polygon>
            </g>
            <g id="Group-225" transform="translate(144.000000, 1247.000000)">
                <mask id="mask-64" fill="white">
                    <use xlink:href="#path-63"></use>
                </mask>
                <g id="Clip-224"></g>
                <polygon id="Fill-223" fill="#000000" mask="url(#mask-64)" points="-5 9.1 8.7 9.1 8.7 -4.6 -5 -4.6"></polygon>
            </g>
            <g id="Group-228" transform="translate(203.000000, 1226.000000)">
                <mask id="mask-66" fill="white">
                    <use xlink:href="#path-65"></use>
                </mask>
                <g id="Clip-227"></g>
                <polygon id="Fill-226" fill="#000000" mask="url(#mask-66)" points="-5 8.7 8.7 8.7 8.7 -5 -5 -5"></polygon>
            </g>
            <g id="Group-231" transform="translate(203.000000, 1233.000000)">
                <mask id="mask-68" fill="white">
                    <use xlink:href="#path-67"></use>
                </mask>
                <g id="Clip-230"></g>
                <polygon id="Fill-229" fill="#000000" mask="url(#mask-68)" points="-5 9.4 8.7 9.4 8.7 -4.3 -5 -4.3"></polygon>
            </g>
            <g id="Group-234" transform="translate(203.000000, 1241.000000)">
                <mask id="mask-70" fill="white">
                    <use xlink:href="#path-69"></use>
                </mask>
                <g id="Clip-233"></g>
                <polygon id="Fill-232" fill="#000000" mask="url(#mask-70)" points="-5 9.1 8.7 9.1 8.7 -4.6 -5 -4.6"></polygon>
            </g>
            <g id="Group-237" transform="translate(195.000000, 1226.000000)">
                <mask id="mask-72" fill="white">
                    <use xlink:href="#path-71"></use>
                </mask>
                <g id="Clip-236"></g>
                <polygon id="Fill-235" fill="#000000" mask="url(#mask-72)" points="-5 8.7 8.7 8.7 8.7 -5 -5 -5"></polygon>
            </g>
            <g id="Group-240" transform="translate(195.000000, 1233.000000)">
                <mask id="mask-74" fill="white">
                    <use xlink:href="#path-73"></use>
                </mask>
                <g id="Clip-239"></g>
                <polygon id="Fill-238" fill="#000000" mask="url(#mask-74)" points="-5 9.4 8.7 9.4 8.7 -4.3 -5 -4.3"></polygon>
            </g>
            <g id="Group-243" transform="translate(195.000000, 1241.000000)">
                <mask id="mask-76" fill="white">
                    <use xlink:href="#path-75"></use>
                </mask>
                <g id="Clip-242"></g>
                <polygon id="Fill-241" fill="#000000" mask="url(#mask-76)" points="-5 9.1 8.7 9.1 8.7 -4.6 -5 -4.6"></polygon>
            </g>
            <g id="Group-246" transform="translate(173.000000, 1232.000000)">
                <mask id="mask-78" fill="white">
                    <use xlink:href="#path-77"></use>
                </mask>
                <g id="Clip-245"></g>
                <polygon id="Fill-244" fill="#000000" mask="url(#mask-78)" points="-5 8.7 8.7 8.7 8.7 -5 -5 -5"></polygon>
            </g>
            <g id="Group-249" transform="translate(173.000000, 1239.000000)">
                <mask id="mask-80" fill="white">
                    <use xlink:href="#path-79"></use>
                </mask>
                <g id="Clip-248"></g>
                <polygon id="Fill-247" fill="#000000" mask="url(#mask-80)" points="-5 9.4 8.7 9.4 8.7 -4.3 -5 -4.3"></polygon>
            </g>
            <g id="Group-252" transform="translate(173.000000, 1247.000000)">
                <mask id="mask-82" fill="white">
                    <use xlink:href="#path-81"></use>
                </mask>
                <g id="Clip-251"></g>
                <polygon id="Fill-250" fill="#000000" mask="url(#mask-82)" points="-5 9.1 8.7 9.1 8.7 -4.6 -5 -4.6"></polygon>
            </g>
            <g id="Group-255" transform="translate(173.000000, 1234.000000)">
                <mask id="mask-84" fill="white">
                    <use xlink:href="#path-83"></use>
                </mask>
                <g id="Clip-254"></g>
                <polygon id="Fill-253" fill="#9ECCC7" mask="url(#mask-84)" points="-4.7816 18.839 18.83909 18.839 18.83909 -4.78169 -4.7816 -4.78169"></polygon>
            </g>
            <g id="Group-258" transform="translate(126.000000, 1187.000000)">
                <mask id="mask-86" fill="white">
                    <use xlink:href="#path-85"></use>
                </mask>
                <g id="Clip-257"></g>
                <polygon id="Fill-256" fill="#9ECCC7" mask="url(#mask-86)" points="-5 65.839 65.83908 65.839 65.83908 -5.00008 -5 -5.00008"></polygon>
            </g>
            <g id="Group-261" transform="translate(132.000000, 1193.000000)">
                <mask id="mask-88" fill="white">
                    <use xlink:href="#path-87"></use>
                </mask>
                <g id="Clip-260"></g>
                <polygon id="Fill-259" fill="#ECE8F4" mask="url(#mask-88)" points="-4.6437 53.483 53.48274 53.483 53.48274 -4.64344 -4.6437 -4.64344"></polygon>
            </g>
            <g id="Group-264" transform="translate(177.000000, 1238.000000)">
                <mask id="mask-90" fill="white">
                    <use xlink:href="#path-89"></use>
                </mask>
                <g id="Clip-263"></g>
                <polygon id="Fill-262" fill="#4F586F" mask="url(#mask-90)" points="-4.2333 33 32.97791 33 32.97791 -4.21168 -4.2333 -4.21168"></polygon>
            </g>
            <g id="Group-267" transform="translate(140.000000, 1201.000000)">
                <mask id="mask-92" fill="white">
                    <use xlink:href="#path-91"></use>
                </mask>
                <g id="Clip-266"></g>
                <polygon id="Fill-265" fill="#793A78" mask="url(#mask-92)" points="-4.4713 45.483 38.21836 45.483 38.21836 -4.47102 -4.4713 -4.47102"></polygon>
            </g>
        </g>
    </g>
</svg>