<?xml version="1.0" encoding="UTF-8"?>
<svg width="125px" height="113px" viewBox="0 0 125 113" version="1.1" xmlns="http://www.w3.org/2000/svg" xmlns:xlink="http://www.w3.org/1999/xlink">
    <!-- Generator: Sketch 51.2 (57519) - http://www.bohemiancoding.com/sketch -->
    <title>Group 3</title>
    <desc>Created with Sketch.</desc>
    <defs></defs>
    <g id="Welcome" stroke="none" stroke-width="1" fill="none" fill-rule="evenodd">
        <g id="Desktop-3.1-Get-Started" transform="translate(-344.000000, -272.000000)">
            <g id="Group-3" transform="translate(344.000000, 272.000000)">
                <g id="floor" transform="translate(0.000000, 67.000000)">
                    <path d="M66.1275175,0.971622222 C64.0783492,0.418344444 60.9670329,0.273955556 58.799992,0.971622222 L1.51135881,19.1518444 C-0.504131682,21.1400667 -0.504131682,24.3920111 1.51135881,26.3802333 L58.799992,44.5604556 C61.3064021,45.5916222 63.9423424,45.6631778 66.1275175,44.5604556 L123.416151,26.3802333 C125.431641,24.3920111 125.431641,21.1400667 123.416151,19.1518444 L66.1275175,0.971622222 Z" id="Fill-1" fill="#ECE8F4"></path>
                    <path d="M66.1661442,42.0605155 C63.9795487,43.1689039 61.3418951,43.098265 58.8338558,42.0605155 L1.50798489,23.7868764 C0.738075168,23.0239763 0.266278636,22.7137354 0.0848184319,21.7222222 C-0.209406328,23.3276516 0.261094059,25.0473875 1.50798489,26.2829259 L58.8338558,44.556565 C61.3418951,45.5930302 63.9795487,45.6649535 66.1661442,44.556565 L123.492015,26.2829259 C124.738906,25.0473875 125.209406,23.3276516 124.915182,21.7222222 C124.733721,22.7137354 124.261925,23.0239763 123.492015,23.7868764 L66.1661442,42.0605155 Z" id="Fill-4" fill="#98B3C5"></path>
                </g>
                <g id="Group" transform="translate(22.000000, 0.000000)">
                    <g id="icon-buildgen3">
                        <g id="Group-48" stroke-width="1">
                            <path d="M30.2993495,91.7282051 L5.88439626,91.7282051 C4.54981682,91.7282051 3.52925607,90.6948718 3.52925607,89.3435897 L3.52925607,32.6692308 C3.52925607,31.3179487 4.54981682,30.2846154 5.88439626,30.2846154 L30.2993495,30.2846154 C31.633929,30.2846154 32.6544897,31.3179487 32.6544897,32.6692308 L32.6544897,89.3435897 C32.6544897,90.6948718 31.5554243,91.7282051 30.2993495,91.7282051" id="Fill-1" fill="#9ECCC7"></path>
                            <polygon id="Fill-5" fill="#000000" points="9.33813084 47.374359 12.9493458 47.374359 12.9493458 43.7179487 9.33813084 43.7179487"></polygon>
                            <path d="M76.8524636,91.7282051 L52.4375103,91.7282051 C51.1814355,91.7282051 50.0823701,90.6948718 50.0823701,89.3435897 L50.0823701,32.6692308 C50.0823701,31.3179487 51.1814355,30.2846154 52.4375103,30.2846154 L76.8524636,30.2846154 C78.1085383,30.2846154 79.2076037,31.3179487 79.2076037,32.6692308 L79.2076037,89.3435897 C79.2076037,90.6948718 78.1085383,91.7282051 76.8524636,91.7282051" id="Fill-11" fill="#693670"></path>
                            <polygon id="Fill-7" fill="#000000" points="9.33813084 54.8461538 12.9493458 54.8461538 12.9493458 51.1897436 9.33813084 51.1897436"></polygon>
                            <polygon id="Fill-8" fill="#000000" points="9.33813084 62.3179487 12.9493458 62.3179487 12.9493458 58.6615385 9.33813084 58.6615385"></polygon>
                            <polygon id="Fill-9" fill="#4EA098" points="0.588785047 91.6781282 82.9401869 91.6781282 82.9401869 87.0678718 0.588785047 87.0678718"></polygon>
                            <path d="M58.7181981,91.7282051 L19.7790953,91.7282051 C18.4453009,91.7282051 17.4239551,90.6948718 17.4239551,89.3435897 L17.4239551,26.7871795 C17.4239551,25.4358974 18.4453009,24.4025641 19.7790953,24.4025641 L58.7181981,24.4025641 C60.0519925,24.4025641 61.0733383,25.4358974 61.0733383,26.7871795 L61.0733383,89.3435897 C61.0733383,90.6948718 59.9742729,91.7282051 58.7181981,91.7282051" id="Fill-13" fill="#FFFFFF"></path>
                            <polygon id="Fill-15" fill="#FFFFFF" points="67.2745794 47.374359 70.8865794 47.374359 70.8865794 43.7179487 67.2745794 43.7179487"></polygon>
                            <polygon id="Fill-16" fill="#FFFFFF" points="67.2745794 54.8461538 70.8865794 54.8461538 70.8865794 51.1897436 67.2745794 51.1897436"></polygon>
                            <polygon id="Fill-17" fill="#FFFFFF" points="67.2745794 62.3179487 70.8865794 62.3179487 70.8865794 58.6615385 67.2745794 58.6615385"></polygon>
                            <polygon id="Fill-18" fill="#000000" points="27.2371963 37.2 30.8484112 37.2 30.8484112 33.5435897 27.2371963 33.5435897"></polygon>
                            <polygon id="Fill-19" fill="#000000" points="27.2371963 44.6717949 30.8484112 44.6717949 30.8484112 41.0153846 27.2371963 41.0153846"></polygon>
                            <polygon id="Fill-20" fill="#000000" points="27.2371963 52.1443846 30.8484112 52.1443846 30.8484112 48.4871795 27.2371963 48.4871795"></polygon>
                            <polygon id="Fill-21" fill="#000000" points="37.4428037 37.2 41.0540187 37.2 41.0540187 33.5435897 37.4428037 33.5435897"></polygon>
                            <polygon id="Fill-22" fill="#000000" points="37.4428037 44.6717949 41.0540187 44.6717949 41.0540187 41.0153846 37.4428037 41.0153846"></polygon>
                            <polygon id="Fill-23" fill="#000000" points="37.4428037 52.1443846 41.0540187 52.1443846 41.0540187 48.4871795 37.4428037 48.4871795"></polygon>
                            <polygon id="Fill-24" fill="#000000" points="47.6484112 37.2 51.2604112 37.2 51.2604112 33.5435897 47.6484112 33.5435897"></polygon>
                            <polygon id="Fill-25" fill="#000000" points="47.6484112 44.6717949 51.2604112 44.6717949 51.2604112 41.0153846 47.6484112 41.0153846"></polygon>
                            <polygon id="Fill-26" fill="#000000" points="47.6484112 52.1443846 51.2604112 52.1443846 51.2604112 48.4871795 47.6484112 48.4871795"></polygon>
                            <polygon id="Fill-27" fill="#000000" points="27.2371963 59.5358974 30.8484112 59.5358974 30.8484112 55.8794872 27.2371963 55.8794872"></polygon>
                            <polygon id="Fill-28" fill="#000000" points="27.2371963 67.0084872 30.8484112 67.0084872 30.8484112 63.3512821 27.2371963 63.3512821"></polygon>
                            <polygon id="Fill-29" fill="#000000" points="27.2371963 74.4794872 30.8484112 74.4794872 30.8484112 70.8230769 27.2371963 70.8230769"></polygon>
                            <polygon id="Fill-30" fill="#000000" points="47.6484112 59.5358974 51.2604112 59.5358974 51.2604112 55.8794872 47.6484112 55.8794872"></polygon>
                            <polygon id="Fill-31" fill="#000000" points="47.6484112 67.0084872 51.2604112 67.0084872 51.2604112 63.3512821 47.6484112 63.3512821"></polygon>
                            <polygon id="Fill-32" fill="#000000" points="47.6484112 74.4794872 51.2604112 74.4794872 51.2604112 70.8230769 47.6484112 70.8230769"></polygon>
                            <polygon id="Fill-33" fill="#003E7D" points="36.9725607 93 41.5258318 93 41.5258318 59.5358974 36.9725607 59.5358974"></polygon>
                            <path d="M17.9739589,7.47179487 C17.9739589,2.78205128 20.7216224,0 24.2543327,0 C26.1384449,0 27.3945196,0.874358974 28.258071,1.82820513 L27.0019963,3.4974359 C26.3739589,2.78205128 25.5889121,2.22564103 24.3328374,2.22564103 C21.9776972,2.22564103 20.4076037,4.21282051 20.4076037,7.39230769 C20.4076037,10.6512821 21.8206879,12.6384615 24.4898467,12.6384615 C25.1963888,12.6384615 25.9814355,12.4 26.3739589,12.0025641 L26.3739589,8.9025641 L23.8618093,8.9025641 L23.8618093,6.83589744 L28.4150804,6.83589744 L28.4150804,13.1153846 C27.551529,14.0692308 25.9814355,14.7846154 24.175828,14.7846154 C20.6431178,14.8641026 17.9739589,12.2410256 17.9739589,7.47179487" id="Fill-35" fill="#606060"></path>
                            <polygon id="Fill-36" fill="#606060" points="31.0843963 2.38469487 37.8357981 2.38469487 37.8357981 4.2129 33.0470131 4.2129 33.0470131 7.3129 37.0507514 7.3129 37.0507514 9.14110513 33.0470131 9.14110513 33.0470131 12.7180282 37.9928075 12.7180282 37.9928075 14.6257205 31.0843963 14.6257205"></polygon>
                            <path d="M40.3477907,2.38469487 L42.3889121,2.38469487 L45.8431178,9.22059231 L47.0206879,11.8436692 L47.0991925,11.8436692 C47.0206879,10.5718744 46.8636785,9.06161795 46.8636785,7.7103359 L46.8636785,2.38469487 L48.7477907,2.38469487 L48.7477907,14.6257205 L46.7066692,14.6257205 L43.2524636,7.78982308 L42.0748935,5.16674615 L41.9963888,5.16674615 C42.0748935,6.43854103 42.2319028,7.94879744 42.2319028,9.30007949 L42.2319028,14.6257205 L40.3477907,14.6257205 L40.3477907,2.38469487 Z" id="Fill-37" fill="#606060"></path>
                            <path d="M51.9663252,13.1154641 L53.3794093,10.8898231 C53.457914,10.9693103 53.7719327,10.8103359 53.8504374,10.8898231 C54.6354841,11.6052077 55.4990355,12.0026436 56.363372,12.0026436 C57.5409421,12.0026436 58.3259888,11.5257205 58.3259888,10.6513615 C58.3259888,9.61802821 57.8541757,8.98213077 55.5783252,8.90264359 C55.4205308,8.90264359 55.1858019,7.94879744 55.0280075,7.94879744 L55.1858019,6.43854103 C55.3420262,6.43854103 55.4205308,6.12059231 55.5783252,6.12059231 C57.3831477,6.04110513 57.9334654,5.40520769 57.9334654,4.45136154 C57.9334654,3.57700256 57.4616523,3.10007949 56.5195963,3.10007949 C55.7345495,3.10007949 55.1065121,3.41802821 54.4007551,4.05392564 C54.3214654,4.13341282 54.0082318,3.89495128 53.9289421,3.97443846 L52.4381383,1.98725897 C52.5158579,1.90777179 52.4381383,1.74879744 52.5158579,1.74879744 C53.7719327,0.635976923 55.1858019,7.94871795e-05 56.7558953,7.94871795e-05 C59.7382879,7.94871795e-05 61.6224,1.5103359 61.6224,4.13341282 C61.6224,5.56418205 60.9158579,6.59751538 59.4242692,7.3129 L59.4242692,7.39238718 C60.9158579,7.86931026 62.0149234,9.06161795 62.0149234,10.8898231 C62.0149234,13.6718744 59.5812785,15.1821308 56.7558953,15.1821308 C54.5569794,15.1821308 52.986886,14.387259 51.9663252,13.1154641" id="Fill-38" fill="#DBCB32"></path>
                            <path d="M53.3792523,1.43068974 C54.2035514,1.43068974 54.8708411,2.10712564 54.8708411,2.94094615 C54.8708411,3.77476667 54.2035514,4.45120256 53.3792523,4.45120256 C52.5557383,4.45120256 51.8884486,3.77476667 51.8884486,2.94094615 C51.8884486,2.10712564 52.5557383,1.43068974 53.3792523,1.43068974" id="Fill-39" fill="#DBCB32"></path>
                            <path d="M52.8303477,10.4129795 C53.6538617,10.4129795 54.3211514,11.0894154 54.3211514,11.9232359 C54.3211514,12.7570564 53.6538617,13.4334923 52.8303477,13.4334923 C52.0060486,13.4334923 51.3387589,12.7570564 51.3387589,11.9232359 C51.3387589,11.0894154 52.0060486,10.4129795 52.8303477,10.4129795" id="Fill-40" fill="#DBCB32"></path>
                            <path d="M55.6562019,6.04118462 C56.4365383,6.04118462 57.069286,6.68185128 57.069286,7.47195385 C57.069286,8.26205641 56.4365383,8.90272308 55.6562019,8.90272308 C54.8758654,8.90272308 54.2431178,8.26205641 54.2431178,7.47195385 C54.2431178,6.68185128 54.8758654,6.04118462 55.6562019,6.04118462" id="Fill-41" fill="#DBCB32"></path>
                            <path d="M58.6392224,11.4461538 C59.5498766,11.4461538 60.2886056,12.1933333 60.2886056,13.1153846 C60.2886056,14.0374359 59.5498766,14.7846154 58.6392224,14.7846154 C57.7293533,14.7846154 56.9906243,14.0374359 56.9906243,13.1153846 C56.9906243,12.1933333 57.7293533,11.4461538 58.6392224,11.4461538" id="Fill-42" fill="#DBCB32"></path>
                            <path d="M59.3460785,0.953687179 C60.3438729,0.953687179 61.151686,1.77240513 61.151686,2.78189231 C61.151686,3.79137949 60.3438729,4.61009744 59.3460785,4.61009744 C58.3482841,4.61009744 57.540471,3.79137949 57.540471,2.78189231 C57.540471,1.77240513 58.3482841,0.953687179 59.3460785,0.953687179" id="Fill-43" fill="#DBCB32"></path>
                            <polygon id="Fill-44" fill="#98B3C5" points="29.0428037 24.4025641 30.2988785 24.4025641 30.2988785 17.4076923 29.0428037 17.4076923"></polygon>
                            <polygon id="Fill-46" fill="#98B3C5" points="50.6315888 24.4025641 51.8884486 24.4025641 51.8884486 17.4076923 50.6315888 17.4076923"></polygon>
                        </g>
                        <polygon id="Fill-9" fill="#4F586F" points="16.4859813 92.8410256 36.8971963 92.8410256 36.8971963 89.5061335 16.4859813 89.5061335"></polygon>
                        <polygon id="Fill-9" fill="#4F586F" points="41.6074766 92.8410256 62.0186916 92.8410256 62.0186916 89.5061335 41.6074766 89.5061335"></polygon>
                    </g>
                </g>
            </g>
        </g>
    </g>
</svg>
