
<svg width="125px" height="82px" viewBox="0 0 125 82" version="1.1" xmlns="http://www.w3.org/2000/svg" xmlns:xlink="http://www.w3.org/1999/xlink">
    <!-- Generator: Sketch 51.2 (57519) - http://www.bohemiancoding.com/sketch -->
    <desc>Created with Sketch.</desc>
    <defs>
        <path d="M-1.44950718e-12,22.7157138 C0.0127300077,21.4225271 0.516530008,20.1332811 1.5114,19.152 L58.8,0.972 C60.967,0.274 64.0783,0.418 66.1275,0.972 L123.4162,19.152 C125.4316,21.14 125.4316,24.392 123.4162,26.38 L66.1275,44.56 C63.9423,45.663 61.3064,45.592 58.8,44.56 L1.5114,26.38 C0.516530008,25.3987189 0.0127300077,24.1094729 -1.40687462e-12,22.8162862 L0,22.7157137 Z" id="path-1"></path>
        <path d="M-4.26325641e-14,1.65289295 C0.000174303282,1.3412417 0.0284749784,1.02954887 0.08482,0.722 C0.26628,1.714 0.73808,2.024 1.508,2.787 L58.8339,21.061 C61.3419,22.098 63.9795,22.169 66.1661,21.061 L123.492,2.787 C124.2619,2.024 124.7337,1.714 124.9152,0.722 C124.971208,1.02774118 124.999502,1.33757775 125,1.64739754 L125,1.66406122 C124.997889,2.97610285 124.497266,4.28652128 123.492,5.283 L66.1661,23.557 C63.9795,24.665 61.3419,24.593 58.8339,23.557 L1.508,5.283 C0.501352931,4.28516072 0.000734821103,2.97252386 -3.69482223e-13,1.65868696 L0,1.65289295 Z" id="path-3"></path>
        <path d="M14.4446,8.8 L10.188,8.8 L10.188,27.286 L5.0286,27.286 L5.0286,8.8 L0.7076,8.8 L6.8344,1.275 C7.6083,0.497 7.5438,0.497 8.3178,1.275 L14.4446,8.8 Z" id="path-5"></path>
        <path d="M13.9057,8.8 L9.6485,8.8 L9.6485,27.286 L4.4891,27.286 L4.4891,8.8 L0.1681,8.8 L6.2949,1.275 C7.0688,0.497 7.005,0.497 7.7789,1.275 L13.9057,8.8 Z" id="path-7"></path>
        <path d="M13.8527,8.671 L9.5955,8.671 L9.5955,21.06 L4.4367,21.06 L4.4367,8.671 L0.1157,8.671 L6.2425,1.146 C7.0164,0.367 6.9519,0.367 7.7259,1.146 L13.8527,8.671 Z" id="path-9"></path>
        <path d="M35.5908,21.827 L2.377,21.827 C1.2807,21.827 0.4423,20.984 0.4423,19.881 L0.4423,2.757 C0.4423,1.654 1.2807,0.811 2.377,0.811 L35.5908,0.811 C36.6233,0.811 37.5256,1.654 37.5256,2.757 L37.5256,19.881 C37.5256,20.984 36.6233,21.827 35.5908,21.827 Z" id="path-11"></path>
        <polygon id="path-13" points="0.3431 0.259 23.6895 0.259 23.6895 10.378 0.3431 10.378"></polygon>
        <polygon id="path-15" points="0.825 0.151 3.2112 0.151 3.2112 2.551 0.825 2.551"></polygon>
        <polygon id="path-17" points="0.7909 0.151 3.1772 0.151 3.1772 2.551 0.7909 2.551"></polygon>
        <polygon id="path-19" points="0.7569 0.151 3.1425 0.151 3.1425 2.551 0.7569 2.551"></polygon>
        <path d="M32.0852,19.492 L2.4185,19.492 C1.3222,19.492 0.4838,18.649 0.4838,17.546 L0.4838,2.432 C0.4838,1.33 1.3222,0.486 2.4185,0.486 L32.0852,0.486 C33.1816,0.486 34.02,1.33 34.02,2.432 L34.02,17.546 C34.02,18.649 33.1816,19.492 32.0852,19.492 Z" id="path-21"></path>
        <polygon id="path-23" points="0.675 0.416 21.7641 0.416 21.7641 9.627 0.675 9.627"></polygon>
        <polygon id="path-25" points="0.125 0.789 2.5112 0.789 2.5112 3.189 0.125 3.189"></polygon>
        <polygon id="path-27" points="0.0264 0.789 2.4127 0.789 2.4127 3.189 0.0264 3.189"></polygon>
        <polygon id="path-29" points="0.9924 0.789 3.3786 0.789 3.3786 3.189 0.9924 3.189"></polygon>
        <path d="M32.4528,19.492 L2.7861,19.492 C1.6898,19.492 0.8513,18.649 0.8513,17.546 L0.8513,2.432 C0.8513,1.33 1.6898,0.486 2.7861,0.486 L32.4528,0.486 C33.4847,0.486 34.3876,1.33 34.3876,2.432 L34.3876,17.546 C34.3876,18.649 33.5485,19.492 32.4528,19.492 Z" id="path-31"></path>
        <polygon id="path-33" points="0.0424 0.416 21.1315 0.416 21.1315 9.627 0.0424 9.627"></polygon>
        <polygon id="path-35" points="0.5195 0.79 2.9057 0.79 2.9057 3.19 0.5195 3.19"></polygon>
        <polygon id="path-37" points="0.4622 0.79 2.8484 0.79 2.8484 3.19 0.4622 3.19"></polygon>
        <polygon id="path-39" points="0.4049 0.79 2.7912 0.79 2.7912 3.19 0.4049 3.19"></polygon>
        <polygon id="path-41" points="0.0634 0.611 2.4496 0.611 2.4496 3.011 0.0634 3.011"></polygon>
        <polygon id="path-43" points="0.0634 0.605 2.4496 0.605 2.4496 3.005 0.0634 3.005"></polygon>
        <polygon id="path-45" points="0.0634 0.6 2.4496 0.6 2.4496 3 0.0634 3"></polygon>
        <polygon id="path-47" points="0.0344 0.611 2.4207 0.611 2.4207 3.011 0.0344 3.011"></polygon>
        <polygon id="path-49" points="0.0344 0.605 2.4207 0.605 2.4207 3.005 0.0344 3.005"></polygon>
        <polygon id="path-51" points="0.0344 0.6 2.4207 0.6 2.4207 3 0.0344 3"></polygon>
        <polygon id="path-53" points="0.7909 0.227 3.1772 0.227 3.1772 2.627 0.7909 2.627"></polygon>
        <polygon id="path-55" points="0.7909 0.222 3.1772 0.222 3.1772 2.622 0.7909 2.622"></polygon>
        <polygon id="path-57" points="0.7909 0.216 3.1772 0.216 3.1772 2.616 0.7909 2.616"></polygon>
    </defs>
    <g id="Page-1" stroke="none" stroke-width="1" fill="none" fill-rule="evenodd">
        <g id="Mobile-2.1-products" transform="translate(-99.000000, -805.000000)">
            <g id="Group-46" transform="translate(99.000000, 841.000000)">
                <mask id="mask-2" fill="white">
                    <use xlink:href="#path-1"></use>
                </mask>
                <g id="Clip-45"></g>
                <polygon id="Fill-44" fill="#ECE8F4" mask="url(#mask-2)" points="-5.00026 50.361 129.92774 50.361 129.92774 -4.49892 -5.00026 -4.49892"></polygon>
            </g>
            <g id="Group-49" transform="translate(99.000000, 862.000000)">
                <mask id="mask-4" fill="white">
                    <use xlink:href="#path-3"></use>
                </mask>
                <g id="Clip-48"></g>
                <polygon id="Fill-47" fill="#98B3C5" mask="url(#mask-4)" points="-5 29.361 130 29.361 130 -4.27789 -5 -4.27789"></polygon>
            </g>
            <g id="Group-54" transform="translate(136.000000, 819.000000)" stroke="#DBCB32" stroke-width="3">
                <path d="M26.9508,16.25943 L47.33116,16.25943 C47.7826,16.25943 48.10507,15.67565 48.10507,14.96214 L48.10507,0.627" id="Stroke-50"></path>
                <path d="M37.33453,16.25943 L1.627205,16.25943 C0.8704022,16.25943 0.2512,15.67565 0.2512,14.96214 L0.2512,0.627" id="Stroke-52"></path>
            </g>
            <g id="Group-57" transform="translate(122.000000, 831.000000)">
                <mask id="mask-6" fill="white">
                    <use xlink:href="#path-5"></use>
                </mask>
                <g id="Clip-56"></g>
                <polygon id="Fill-55" fill="#4F586F" mask="url(#mask-6)" points="-4.2924 32.286 19.44456 32.286 19.44456 -4.30859 -4.2924 -4.30859"></polygon>
            </g>
            <g id="Group-60" transform="translate(186.000000, 831.000000)">
                <mask id="mask-8" fill="white">
                    <use xlink:href="#path-7"></use>
                </mask>
                <g id="Clip-59"></g>
                <polygon id="Fill-58" fill="#4F586F" mask="url(#mask-8)" points="-4.8319 32.286 18.9057 32.286 18.9057 -4.30859 -4.8319 -4.30859"></polygon>
            </g>
            <g id="Group-63" transform="translate(154.000000, 855.000000)">
                <mask id="mask-10" fill="white">
                    <use xlink:href="#path-9"></use>
                </mask>
                <g id="Clip-62"></g>
                <polygon id="Fill-61" fill="#003E7D" mask="url(#mask-10)" points="-4.8843 26.06 18.85266 26.06 18.85266 -4.43795 -4.8843 -4.43795"></polygon>
            </g>
            <g id="Group-66" transform="translate(142.000000, 829.000000)">
                <mask id="mask-12" fill="white">
                    <use xlink:href="#path-11"></use>
                </mask>
                <g id="Clip-65"></g>
                <polygon id="Fill-64" fill="#4F586F" mask="url(#mask-12)" points="-4.5577 26.827 42.52563 26.827 42.52563 -4.18857 -4.5577 -4.18857"></polygon>
            </g>
            <g id="Group-69" transform="translate(149.000000, 835.000000)">
                <mask id="mask-14" fill="white">
                    <use xlink:href="#path-13"></use>
                </mask>
                <g id="Clip-68"></g>
                <polygon id="Fill-67" fill="#FFFFFF" mask="url(#mask-14)" points="-4.6569 15.378 28.68948 15.378 28.68948 -4.74092 -4.6569 -4.74092"></polygon>
            </g>
            <g id="Group-72" transform="translate(154.000000, 839.000000)">
                <mask id="mask-16" fill="white">
                    <use xlink:href="#path-15"></use>
                </mask>
                <g id="Clip-71"></g>
                <polygon id="Fill-70" fill="#000000" mask="url(#mask-16)" points="-4.175 7.551 8.21123 7.551 8.21123 -4.849 -4.175 -4.849"></polygon>
            </g>
            <g id="Group-75" transform="translate(159.000000, 839.000000)">
                <mask id="mask-18" fill="white">
                    <use xlink:href="#path-17"></use>
                </mask>
                <g id="Clip-74"></g>
                <polygon id="Fill-73" fill="#000000" mask="url(#mask-18)" points="-4.2091 7.551 8.17713 7.551 8.17713 -4.849 -4.2091 -4.849"></polygon>
            </g>
            <g id="Group-78" transform="translate(164.000000, 839.000000)">
                <mask id="mask-20" fill="white">
                    <use xlink:href="#path-19"></use>
                </mask>
                <g id="Clip-77"></g>
                <polygon id="Fill-76" fill="#000000" mask="url(#mask-20)" points="-4.2431 7.551 8.14249 7.551 8.14249 -4.849 -4.2431 -4.849"></polygon>
            </g>
            <g id="Group-81" transform="translate(117.000000, 805.000000)">
                <mask id="mask-22" fill="white">
                    <use xlink:href="#path-21"></use>
                </mask>
                <g id="Clip-80"></g>
                <polygon id="Fill-79" fill="#793A78" mask="url(#mask-22)" points="-4.5162 24.492 39.02003 24.492 39.02003 -4.51341 -4.5162 -4.51341"></polygon>
            </g>
            <g id="Group-84" transform="translate(123.000000, 810.000000)">
                <mask id="mask-24" fill="white">
                    <use xlink:href="#path-23"></use>
                </mask>
                <g id="Clip-83"></g>
                <polygon id="Fill-82" fill="#FFFFFF" mask="url(#mask-24)" points="-4.325 14.627 26.76413 14.627 26.76413 -4.58381 -4.325 -4.58381"></polygon>
            </g>
            <g id="Group-87" transform="translate(128.000000, 813.000000)">
                <mask id="mask-26" fill="white">
                    <use xlink:href="#path-25"></use>
                </mask>
                <g id="Clip-86"></g>
                <polygon id="Fill-85" fill="#000000" mask="url(#mask-26)" points="-4.875 8.189 7.51123 8.189 7.51123 -4.211 -4.875 -4.211"></polygon>
            </g>
            <g id="Group-90" transform="translate(133.000000, 813.000000)">
                <mask id="mask-28" fill="white">
                    <use xlink:href="#path-27"></use>
                </mask>
                <g id="Clip-89"></g>
                <polygon id="Fill-88" fill="#000000" mask="url(#mask-28)" points="-4.9736 8.189 7.41263 8.189 7.41263 -4.211 -4.9736 -4.211"></polygon>
            </g>
            <g id="Group-93" transform="translate(137.000000, 813.000000)">
                <mask id="mask-30" fill="white">
                    <use xlink:href="#path-29"></use>
                </mask>
                <g id="Clip-92"></g>
                <polygon id="Fill-91" fill="#000000" mask="url(#mask-30)" points="-4.0076 8.189 8.37863 8.189 8.37863 -4.211 -4.0076 -4.211"></polygon>
            </g>
            <g id="Group-96" transform="translate(171.000000, 805.000000)">
                <mask id="mask-32" fill="white">
                    <use xlink:href="#path-31"></use>
                </mask>
                <g id="Clip-95"></g>
                <polygon id="Fill-94" fill="#86C9C4" mask="url(#mask-32)" points="-4.1487 24.492 39.38753 24.492 39.38753 -4.51341 -4.1487 -4.51341"></polygon>
            </g>
            <g id="Group-99" transform="translate(178.000000, 810.000000)">
                <mask id="mask-34" fill="white">
                    <use xlink:href="#path-33"></use>
                </mask>
                <g id="Clip-98"></g>
                <polygon id="Fill-97" fill="#FFFFFF" mask="url(#mask-34)" points="-4.9576 14.627 26.13153 14.627 26.13153 -4.58381 -4.9576 -4.58381"></polygon>
            </g>
            <g id="Group-102" transform="translate(182.000000, 813.000000)">
                <mask id="mask-36" fill="white">
                    <use xlink:href="#path-35"></use>
                </mask>
                <g id="Clip-101"></g>
                <polygon id="Fill-100" fill="#000000" mask="url(#mask-36)" points="-4.4805 8.19 7.90573 8.19 7.90573 -4.21 -4.4805 -4.21"></polygon>
            </g>
            <g id="Group-105" transform="translate(187.000000, 813.000000)">
                <mask id="mask-38" fill="white">
                    <use xlink:href="#path-37"></use>
                </mask>
                <g id="Clip-104"></g>
                <polygon id="Fill-103" fill="#000000" mask="url(#mask-38)" points="-4.5378 8.19 7.84843 8.19 7.84843 -4.21 -4.5378 -4.21"></polygon>
            </g>
            <g id="Group-108" transform="translate(192.000000, 813.000000)">
                <mask id="mask-40" fill="white">
                    <use xlink:href="#path-39"></use>
                </mask>
                <g id="Clip-107"></g>
                <polygon id="Fill-106" fill="#000000" mask="url(#mask-40)" points="-4.5951 8.19 7.79113 8.19 7.79113 -4.21 -4.5951 -4.21"></polygon>
            </g>
            <g id="Group-111" transform="translate(120.000000, 846.000000)">
                <mask id="mask-42" fill="white">
                    <use xlink:href="#path-41"></use>
                </mask>
                <g id="Clip-110"></g>
                <polygon id="Fill-109" fill="#000000" mask="url(#mask-42)" points="-4.9366 8.011 7.44963 8.011 7.44963 -4.389 -4.9366 -4.389"></polygon>
            </g>
            <g id="Group-114" transform="translate(120.000000, 851.000000)">
                <mask id="mask-44" fill="white">
                    <use xlink:href="#path-43"></use>
                </mask>
                <g id="Clip-113"></g>
                <polygon id="Fill-112" fill="#000000" mask="url(#mask-44)" points="-4.9366 8.005 7.44963 8.005 7.44963 -4.395 -4.9366 -4.395"></polygon>
            </g>
            <g id="Group-117" transform="translate(120.000000, 856.000000)">
                <mask id="mask-46" fill="white">
                    <use xlink:href="#path-45"></use>
                </mask>
                <g id="Clip-116"></g>
                <polygon id="Fill-115" fill="#000000" mask="url(#mask-46)" points="-4.9366 8 7.44963 8 7.44963 -4.4 -4.9366 -4.4"></polygon>
            </g>
            <g id="Group-120" transform="translate(200.000000, 846.000000)">
                <mask id="mask-48" fill="white">
                    <use xlink:href="#path-47"></use>
                </mask>
                <g id="Clip-119"></g>
                <polygon id="Fill-118" fill="#000000" mask="url(#mask-48)" points="-4.9656 8.011 7.42063 8.011 7.42063 -4.389 -4.9656 -4.389"></polygon>
            </g>
            <g id="Group-123" transform="translate(200.000000, 851.000000)">
                <mask id="mask-50" fill="white">
                    <use xlink:href="#path-49"></use>
                </mask>
                <g id="Clip-122"></g>
                <polygon id="Fill-121" fill="#000000" mask="url(#mask-50)" points="-4.9656 8.005 7.42063 8.005 7.42063 -4.395 -4.9656 -4.395"></polygon>
            </g>
            <g id="Group-126" transform="translate(200.000000, 856.000000)">
                <mask id="mask-52" fill="white">
                    <use xlink:href="#path-51"></use>
                </mask>
                <g id="Clip-125"></g>
                <polygon id="Fill-124" fill="#000000" mask="url(#mask-52)" points="-4.9656 8 7.42063 8 7.42063 -4.4 -4.9656 -4.4"></polygon>
            </g>
            <g id="Group-129" transform="translate(159.000000, 805.000000)">
                <mask id="mask-54" fill="white">
                    <use xlink:href="#path-53"></use>
                </mask>
                <g id="Clip-128"></g>
                <polygon id="Fill-127" fill="#000000" mask="url(#mask-54)" points="-4.2091 7.627 8.17713 7.627 8.17713 -4.773 -4.2091 -4.773"></polygon>
            </g>
            <g id="Group-132" transform="translate(159.000000, 810.000000)">
                <mask id="mask-56" fill="white">
                    <use xlink:href="#path-55"></use>
                </mask>
                <g id="Clip-131"></g>
                <polygon id="Fill-130" fill="#000000" mask="url(#mask-56)" points="-4.2091 7.622 8.17713 7.622 8.17713 -4.778 -4.2091 -4.778"></polygon>
            </g>
            <g id="Group-135" transform="translate(159.000000, 815.000000)">
                <mask id="mask-58" fill="white">
                    <use xlink:href="#path-57"></use>
                </mask>
                <g id="Clip-134"></g>
                <polygon id="Fill-133" fill="#000000" mask="url(#mask-58)" points="-4.2091 7.616 8.17713 7.616 8.17713 -4.784 -4.2091 -4.784"></polygon>
            </g>
        </g>
    </g>
</svg>