<?xml version="1.0" encoding="UTF-8"?>
<svg width="125px" height="82px" viewBox="0 0 125 82" version="1.1" xmlns="http://www.w3.org/2000/svg" xmlns:xlink="http://www.w3.org/1999/xlink">
    <!-- Generator: Sketch 51.2 (57519) - http://www.bohemiancoding.com/sketch -->
    <title>Group 2</title>
    <desc>Created with Sketch.</desc>
    <defs></defs>
    <g id="Welcome" stroke="none" stroke-width="1" fill="none" fill-rule="evenodd">
        <g id="Desktop-2.1-products" transform="translate(-353.000000, -728.000000)">
            <g id="Group-2" transform="translate(353.000000, 728.000000)">
                <g id="floor" transform="translate(0.000000, 36.000000)">
                    <path d="M66.1275175,0.971622222 C64.0783492,0.418344444 60.9670329,0.273955556 58.799992,0.971622222 L1.51135881,19.1518444 C-0.504131682,21.1400667 -0.504131682,24.3920111 1.51135881,26.3802333 L58.799992,44.5604556 C61.3064021,45.5916222 63.9423424,45.6631778 66.1275175,44.5604556 L123.416151,26.3802333 C125.431641,24.3920111 125.431641,21.1400667 123.416151,19.1518444 L66.1275175,0.971622222 Z" id="Fill-1" fill="#ECE8F4"></path>
                    <path d="M66.1661442,42.0605155 C63.9795487,43.1689039 61.3418951,43.098265 58.8338558,42.0605155 L1.50798489,23.7868764 C0.738075168,23.0239763 0.266278636,22.7137354 0.0848184319,21.7222222 C-0.209406328,23.3276516 0.261094059,25.0473875 1.50798489,26.2829259 L58.8338558,44.556565 C61.3418951,45.5930302 63.9795487,45.6649535 66.1661442,44.556565 L123.492015,26.2829259 C124.738906,25.0473875 125.209406,23.3276516 124.915182,21.7222222 C124.733721,22.7137354 124.261925,23.0239763 123.492015,23.7868764 L66.1661442,42.0605155 Z" id="Fill-4" fill="#98B3C5"></path>
                </g>
                <g id="icon-submit" transform="translate(18.000000, 0.000000)">
                    <g id="Group-47">
                        <path d="M45.950829,30.2595243 L66.3311841,30.2595243 C66.7826333,30.2595243 67.1050971,29.6757405 67.1050971,28.962227 L67.1050971,14.6270919" id="Stroke-1" stroke="#DBCB32" stroke-width="3"></path>
                        <path d="M56.3345493,30.2595243 L20.6272209,30.2595243 C19.8704182,30.2595243 19.2512159,29.6757405 19.2512159,28.962227 L19.2512159,14.6270919" id="Stroke-3" stroke="#DBCB32" stroke-width="3"></path>
                        <path d="M19.4445652,34.7997405 L13.3177536,27.2754162 C12.5438406,26.4970378 12.6083333,26.4970378 11.8344203,27.2754162 L5.7076087,34.7997405 L10.0286232,34.7997405 L10.0286232,53.286227 L15.1880435,53.286227 L15.1880435,34.7997405 L19.4445652,34.7997405 Z" id="Fill-5" fill="#4F586F"></path>
                        <path d="M82.9056928,34.7997405 L76.7788812,27.2754162 C76.0049681,26.4970378 76.0688159,26.4970378 75.2949029,27.2754162 L69.1680913,34.7997405 L73.4891058,34.7997405 L73.4891058,53.286227 L78.6485261,53.286227 L78.6485261,34.7997405 L82.9056928,34.7997405 Z" id="Fill-9" fill="#4F586F"></path>
                        <path d="M50.8526652,58.6705297 L44.7258536,51.1455568 C43.9519406,50.3671784 44.0164333,50.3671784 43.2425203,51.1455568 L37.1157087,58.6705297 L41.4367232,58.6705297 L41.4367232,71.0597189 L46.5954986,71.0597189 L46.5954986,58.6705297 L50.8526652,58.6705297 Z" id="Fill-13" fill="#003E7D"></path>
                        <path d="M60.590813,45.8267676 L27.3770449,45.8267676 C26.2806681,45.8267676 25.4422623,44.9835243 25.4422623,43.8808216 L25.4422623,26.7571459 C25.4422623,25.6537946 26.2806681,24.8112 27.3770449,24.8112 L60.590813,24.8112 C61.623342,24.8112 62.5255957,25.6537946 62.5255957,26.7571459 L62.5255957,43.8808216 C62.5255957,44.9835243 61.623342,45.8267676 60.590813,45.8267676" id="Fill-17" fill="#4F586F"></path>
                        <polygon id="Fill-21" fill="#FFFFFF" points="32.3431159 40.3783784 55.6894928 40.3783784 55.6894928 30.2594595 32.3431159 30.2594595"></polygon>
                        <polygon id="Fill-23" fill="#000000" points="37.825 36.5513514 40.2112319 36.5513514 40.2112319 34.1513514 37.825 34.1513514"></polygon>
                        <polygon id="Fill-24" fill="#000000" points="42.790942 36.5513514 45.1771739 36.5513514 45.1771739 34.1513514 42.790942 34.1513514"></polygon>
                        <polygon id="Fill-25" fill="#000000" points="47.7568841 36.5513514 50.142471 36.5513514 50.142471 34.1513514 47.7568841 34.1513514"></polygon>
                        <path d="M32.0852094,19.4918919 L2.41854275,19.4918919 C1.32216594,19.4918919 0.483760145,18.6486486 0.483760145,17.5459459 L0.483760145,2.43243243 C0.483760145,1.32972973 1.32216594,0.486486486 2.41854275,0.486486486 L32.0852094,0.486486486 C33.1815862,0.486486486 34.019992,1.32972973 34.019992,2.43243243 L34.019992,17.5459459 C34.019992,18.6486486 33.1815862,19.4918919 32.0852094,19.4918919" id="Fill-26" fill="#793A78"></path>
                        <polygon id="Fill-28" fill="#FFFFFF" points="6.675 14.627027 27.7641304 14.627027 27.7641304 5.41621622 6.675 5.41621622"></polygon>
                        <polygon id="Fill-29" fill="#000000" points="11.125 11.1891892 13.5112319 11.1891892 13.5112319 8.78918919 11.125 8.78918919"></polygon>
                        <polygon id="Fill-30" fill="#000000" points="16.0264493 11.1891892 18.4126812 11.1891892 18.4126812 8.78918919 16.0264493 8.78918919"></polygon>
                        <polygon id="Fill-31" fill="#000000" points="20.9923913 11.1891892 23.3786232 11.1891892 23.3786232 8.78918919 20.9923913 8.78918919"></polygon>
                        <path d="M86.4527942,19.4918919 L56.7861275,19.4918919 C55.6897507,19.4918919 54.8513449,18.6486486 54.8513449,17.5459459 L54.8513449,2.43243243 C54.8513449,1.32972973 55.6897507,0.486486486 56.7861275,0.486486486 L86.4527942,0.486486486 C87.4846783,0.486486486 88.3875768,1.32972973 88.3875768,2.43243243 L88.3875768,17.5459459 C88.3875768,18.6486486 87.5485261,19.4918919 86.4527942,19.4918919" id="Fill-32" fill="#86C9C4"></path>
                        <polygon id="Fill-34" fill="#FFFFFF" points="61.0423913 14.627027 82.1315217 14.627027 82.1315217 5.41621622 61.0423913 5.41621622"></polygon>
                        <polygon id="Fill-35" fill="#000000" points="65.5194783 11.1898378 67.9057101 11.1898378 67.9057101 8.78983784 65.5194783 8.78983784"></polygon>
                        <polygon id="Fill-36" fill="#000000" points="70.4622029 11.1898378 72.8484348 11.1898378 72.8484348 8.78983784 70.4622029 8.78983784"></polygon>
                        <polygon id="Fill-37" fill="#000000" points="75.4049275 11.1898378 77.7911594 11.1898378 77.7911594 8.78983784 75.4049275 8.78983784"></polygon>
                        <polygon id="Fill-38" fill="#000000" points="3.0634058 44.0108108 5.44963768 44.0108108 5.44963768 41.6108108 3.0634058 41.6108108"></polygon>
                        <polygon id="Fill-39" fill="#000000" points="3.0634058 49.0054054 5.44963768 49.0054054 5.44963768 46.6054054 3.0634058 46.6054054"></polygon>
                        <polygon id="Fill-40" fill="#000000" points="3.0634058 54 5.44963768 54 5.44963768 51.6 3.0634058 51.6"></polygon>
                        <polygon id="Fill-41" fill="#000000" points="83.0344203 44.0108108 85.4206522 44.0108108 85.4206522 41.6108108 83.0344203 41.6108108"></polygon>
                        <polygon id="Fill-42" fill="#000000" points="83.0344203 49.0054054 85.4206522 49.0054054 85.4206522 46.6054054 83.0344203 46.6054054"></polygon>
                        <polygon id="Fill-43" fill="#000000" points="83.0344203 54 85.4206522 54 85.4206522 51.6 83.0344203 51.6"></polygon>
                        <polygon id="Fill-44" fill="#000000" points="42.790942 2.62702703 45.1771739 2.62702703 45.1771739 0.227027027 42.790942 0.227027027"></polygon>
                        <polygon id="Fill-45" fill="#000000" points="42.790942 7.62162162 45.1771739 7.62162162 45.1771739 5.22162162 42.790942 5.22162162"></polygon>
                        <polygon id="Fill-46" fill="#000000" points="42.790942 12.6162162 45.1771739 12.6162162 45.1771739 10.2162162 42.790942 10.2162162"></polygon>
                    </g>
                </g>
            </g>
        </g>
    </g>
</svg>