<?xml version="1.0" encoding="UTF-8"?>
<svg width="125px" height="78px" viewBox="0 0 125 78" version="1.1" xmlns="http://www.w3.org/2000/svg" xmlns:xlink="http://www.w3.org/1999/xlink">
    <!-- Generator: Sketch 51.2 (57519) - http://www.bohemiancoding.com/sketch -->
    <title>icon-research</title>
    <desc>Created with Sketch.</desc>
    <defs></defs>
    <g id="Welcome" stroke="none" stroke-width="1" fill="none" fill-rule="evenodd">
        <g id="Desktop-1.1-about" transform="translate(-658.000000, -1321.000000)">
            <g id="icon-research" transform="translate(658.000000, 1321.000000)">
                <g id="floor" transform="translate(0.000000, 32.000000)">
                    <path d="M66.1275175,0.971622222 C64.0783492,0.418344444 60.9670329,0.273955556 58.799992,0.971622222 L1.51135881,19.1518444 C-0.504131682,21.1400667 -0.504131682,24.3920111 1.51135881,26.3802333 L58.799992,44.5604556 C61.3064021,45.5916222 63.9423424,45.6631778 66.1275175,44.5604556 L123.416151,26.3802333 C125.431641,24.3920111 125.431641,21.1400667 123.416151,19.1518444 L66.1275175,0.971622222 Z" id="Fill-1" fill="#FFFFFF"></path>
                    <path d="M66.1661442,42.0605155 C63.9795487,43.1689039 61.3418951,43.098265 58.8338558,42.0605155 L1.50798489,23.7868764 C0.738075168,23.0239763 0.266278636,22.7137354 0.0848184319,21.7222222 C-0.209406328,23.3276516 0.261094059,25.0473875 1.50798489,26.2829259 L58.8338558,44.556565 C61.3418951,45.5930302 63.9795487,45.6649535 66.1661442,44.556565 L123.492015,26.2829259 C124.738906,25.0473875 125.209406,23.3276516 124.915182,21.7222222 C124.733721,22.7137354 124.261925,23.0239763 123.492015,23.7868764 L66.1661442,42.0605155 Z" id="Fill-4" fill="#98B3C5"></path>
                </g>
                <g id="researcher" transform="translate(33.000000, 0.000000)">
                    <path d="M32.1533362,1.28205128e-05 C38.2234252,0.0164230769 43.7380694,4.5145 45.061154,10.6468077 C46.2382104,16.1023205 44.8520304,20.8398846 40.7825662,24.7114231 C36.3684447,28.9109103 29.0936551,29.2265513 24.3147831,25.4566795 C17.6490629,20.1982179 16.792731,10.6534744 22.4681215,4.34142308 C25.0386529,1.48270513 28.2972191,0.0416794872 32.1533362,1.28205128e-05" id="Fill-1" fill="#000000"></path>
                    <path d="M18.058057,40.2073462 C17.7616492,39.5155513 17.5091395,38.9101667 17.2439594,38.3104231 C16.4626254,36.5436282 16.1939898,34.7024744 16.5863846,32.8104231 C16.8149616,31.7083718 17.1789443,30.6332436 17.5091395,29.5543974 C17.6460809,29.1070897 17.53512,28.8956795 17.062992,28.8956795 C13.9937121,28.8955513 10.9243043,28.8972179 7.85502451,28.8935 C7.40094208,28.8929872 7.30828265,29.0746538 7.45149523,29.4963205 C7.63591822,30.0402949 7.73830434,30.6119615 7.91952777,31.1572179 C8.7858423,33.7636282 8.57441497,36.2804231 7.34718937,38.7276026 C7.11490087,39.1906795 6.93214165,39.6786282 6.70394859,40.2073462 L18.058057,40.2073462 Z M12.3610375,54.4232436 C9.61043449,54.4229872 6.85970347,54.427859 4.10910043,54.4217051 C1.02535857,54.4146538 -0.846259653,51.5615769 0.380454013,48.7113205 C2.01543232,44.9123462 3.6536102,41.1143974 5.33607007,37.3363205 C6.09219154,35.6383718 6.26573601,33.9442692 5.69262972,32.1702949 C5.48312213,31.5215769 5.33888568,30.8519615 5.13974469,30.1996538 C4.5747013,28.3501667 5.71963406,26.5723462 7.64103753,26.5329872 C10.8806623,26.4665769 14.1234866,26.4705513 17.3633672,26.5305513 C19.3157425,26.5668333 20.4910072,28.3904231 19.8691395,30.2442692 C19.6522089,30.8909359 19.4453889,31.5414487 19.208621,32.1808077 C18.5666601,33.9137564 18.6786449,35.5961923 19.422736,37.2818333 C21.0584822,40.9872179 22.5855711,44.742859 24.297851,48.4120897 C25.625031,51.2560641 23.5508163,54.6117051 20.3557295,54.4508077 C17.697146,54.3169615 15.0264041,54.4233718 12.3610375,54.4232436 Z" id="Fill-3" fill="#000000"></path>
                    <path d="M38.8037497,54.7134359 C39.4606846,53.3765128 40.0682182,52.136 40.6794633,50.8972821 C41.8021271,48.6218974 42.9192876,46.3438205 44.0587171,44.0767692 C44.2427562,43.7104872 44.2165197,43.4924103 43.8996347,43.2125385 C42.909049,42.3381795 41.9517388,41.426 40.9274937,40.4785641 C41.1048777,40.371 41.2319644,40.2761282 41.3727453,40.2113846 C42.8044872,39.5529231 44.2334134,38.8877949 45.6755219,38.2525385 C46.0410403,38.091641 46.1823332,37.9121538 46.1301163,37.4918974 C45.8723592,35.4163846 45.6477497,33.3367692 45.4121336,31.2584359 C45.3908885,31.071 45.3751466,30.8829231 45.3393115,30.5162564 C46.7631184,31.2715128 48.1022009,31.915359 49.3755002,32.670359 C52.4986607,34.5225385 55.2011423,36.8368974 57.0562508,40.0242051 C58.0546434,41.7393333 58.7036434,43.5781795 58.9364438,45.5572821 C59.1134438,47.0627949 58.558767,48.2098462 57.3045371,49.0565128 C54.6266282,50.8643333 51.6841792,52.0821538 48.602613,52.9797179 C45.6499254,53.8397179 42.629023,54.3593333 39.5716456,54.671 C39.3612421,54.6924103 39.1490469,54.6948462 38.8037497,54.7134359" id="Fill-5" fill="#000000"></path>
                    <path d="M30.394138,54.9417949 C28.490908,46.1761538 26.6000924,37.4675641 24.6665306,28.5624359 C25.0820902,28.6546154 25.4284113,28.6398718 25.659164,28.7960256 C29.862626,31.6425641 34.5712356,31.6410256 38.7521727,28.7692308 C38.8504633,28.7016667 38.9573289,28.6466667 39.1768191,28.5170513 C38.8709406,29.9470513 38.5938581,31.255641 38.3110165,32.5629487 C36.7372139,39.8379487 35.1562443,47.1115385 33.6011271,54.3905128 C33.5015566,54.8560256 33.3240447,54.969359 32.8866,54.9512821 C32.0791575,54.9180769 31.2694113,54.9417949 30.394138,54.9417949" id="Fill-7" fill="#000000"></path>
                    <path d="M10.1430087,17.7390256 C11.5616963,17.7410769 12.7125163,18.8903077 12.7047093,20.2977436 C12.6971584,21.688641 11.5011605,22.8694103 10.1176681,22.8519744 C8.72816052,22.8344103 7.57734056,21.6440256 7.59282646,20.2404359 C7.6080564,18.8642821 8.75721258,17.7371026 10.1430087,17.7390256" id="Fill-10" fill="#000000"></path>
                    <path d="M6.61110998,15.6131154 C5.5519256,15.6190128 4.70224881,14.7677308 4.71018373,13.7085 C4.71799067,12.6705513 5.5364397,11.8463205 6.57348308,11.8319615 C7.64520976,11.8170897 8.49514252,12.6418333 8.50013384,13.7019615 C8.50525315,14.7738846 7.6818128,15.6069615 6.61110998,15.6131154" id="Fill-12" fill="#000000"></path>
                    <path d="M14.7715139,33.0226026 C14.7145616,32.9806795 14.6574813,32.9388846 14.6005291,32.8969615 C13.3077764,33.9227308 12.0385725,34.9801667 10.7139521,35.962859 C9.84546182,36.6070897 9.65412777,37.5486282 9.34517766,38.5037564 L15.5012709,38.5037564 C14.7525725,36.7169615 14.579028,34.894141 14.7715139,33.0226026 M18.0581082,40.2073462 L6.70399978,40.2073462 C6.93219284,39.6786282 7.11482408,39.1906795 7.34711258,38.7276026 C8.57446616,36.2804231 8.78589349,33.7636282 7.91957896,31.1572179 C7.73835553,30.6119615 7.63596941,30.0402949 7.45141844,29.4963205 C7.30833384,29.0746538 7.40099328,28.8929872 7.8550757,28.8935 C10.9243555,28.8972179 13.9936354,28.8955513 17.0629152,28.8956795 C17.5351711,28.8956795 17.6460041,29.1070897 17.5091907,29.5543974 C17.1789954,30.6332436 16.8150128,31.7083718 16.5864358,32.8104231 C16.194041,34.7026026 16.4626766,36.5436282 17.2438826,38.3104231 C17.5091907,38.9101667 17.7615725,39.5156795 18.0581082,40.2073462" id="Fill-14" fill="#FFFFFF"></path>
                    <path d="M14.7715139,33.0226026 C14.579028,34.894141 14.7525725,36.7169615 15.5012709,38.5037564 L9.34517766,38.5037564 C9.65412777,37.5486282 9.84546182,36.6070897 10.7139521,35.962859 C12.0385725,34.9801667 13.3077764,33.9227308 14.6005291,32.8969615 C14.6574813,32.9388846 14.7145616,32.9806795 14.7715139,33.0226026" id="Fill-16" fill="#000000"></path>
                </g>
            </g>
        </g>
    </g>
</svg>