<?xml version="1.0" encoding="UTF-8"?>
<svg width="125px" height="78px" viewBox="0 0 125 78" version="1.1" xmlns="http://www.w3.org/2000/svg" xmlns:xlink="http://www.w3.org/1999/xlink">
    <!-- Generator: Sketch 51.2 (57519) - http://www.bohemiancoding.com/sketch -->
    <title>icon-bio</title>
    <desc>Created with Sketch.</desc>
    <defs></defs>
    <g id="Welcome" stroke="none" stroke-width="1" fill="none" fill-rule="evenodd">
        <g id="Desktop-1.1-about" transform="translate(-239.000000, -1321.000000)">
            <g id="icon-bio" transform="translate(239.000000, 1321.000000)">
                <g id="floor" transform="translate(0.000000, 32.000000)">
                    <path d="M66.1275175,0.971622222 C64.0783492,0.418344444 60.9670329,0.273955556 58.799992,0.971622222 L1.51135881,19.1518444 C-0.504131682,21.1400667 -0.504131682,24.3920111 1.51135881,26.3802333 L58.799992,44.5604556 C61.3064021,45.5916222 63.9423424,45.6631778 66.1275175,44.5604556 L123.416151,26.3802333 C125.431641,24.3920111 125.431641,21.1400667 123.416151,19.1518444 L66.1275175,0.971622222 Z" id="Fill-1" fill="#FFFFFF"></path>
                    <path d="M66.1661442,42.0605155 C63.9795487,43.1689039 61.3418951,43.098265 58.8338558,42.0605155 L1.50798489,23.7868764 C0.738075168,23.0239763 0.266278636,22.7137354 0.0848184319,21.7222222 C-0.209406328,23.3276516 0.261094059,25.0473875 1.50798489,26.2829259 L58.8338558,44.556565 C61.3418951,45.5930302 63.9795487,45.6649535 66.1661442,44.556565 L123.492015,26.2829259 C124.738906,25.0473875 125.209406,23.3276516 124.915182,21.7222222 C124.733721,22.7137354 124.261925,23.0239763 123.492015,23.7868764 L66.1661442,42.0605155 Z" id="Fill-4" fill="#98B3C5"></path>
                </g>
                <g transform="translate(35.000000, 0.000000)">
                    <path d="M22.2017,54.675 L0.3977,54.675 C0.2767,54.486 0.1487,54.379 0.1457,54.268 C-0.0863,46.01 -0.2323,37.756 1.2587,29.576 C1.9527,25.764 3.3767,22.442 7.1247,20.602 C11.1967,18.603 15.6427,19.572 18.6127,23.588 C21.8927,28.024 24.8887,32.672 27.9637,37.258 C29.4337,39.451 29.6477,39.598 32.1227,38.518 C34.0717,37.667 35.9487,36.655 37.8937,35.795 C39.8537,34.927 41.5387,35.225 41.9607,36.406 C42.4277,37.71 41.0367,39.181 39.0587,39.812 C37.3097,40.37 35.6287,41.155 33.9487,41.911 C32.8607,42.4 31.8597,43.087 30.7657,43.559 C27.8357,44.823 24.9687,45.334 22.2017,42.462 L22.2017,54.675 Z" id="Fill-1" fill="#000000"></path>
                    <path d="M44.3741,4.5426 C44.3741,12.1046 44.3441,19.1646 44.4231,26.2236 C44.4311,26.8696 44.9981,27.6746 45.5401,28.1226 C50.3111,32.0756 55.1331,35.9676 59.9491,39.8666 C60.3821,40.2176 60.8751,40.4936 61.5831,40.9666 C61.5831,33.0576 61.5921,25.4756 61.5581,17.8946 C61.5561,17.4996 61.2931,16.9656 60.9781,16.7316 C55.5881,12.7406 50.1701,8.7866 44.3741,4.5426 M65.4501,47.6516 C64.5801,47.1606 63.8471,46.8936 63.2981,46.4156 C56.6711,40.6476 50.0591,34.8626 43.4851,29.0336 C42.9591,28.5666 42.4511,27.7396 42.4461,27.0756 C42.3831,18.3556 42.4121,9.6356 42.4251,0.9156 C42.4251,0.7276 42.5231,0.5396 42.6721,0.0006 C43.4801,0.3616 44.2941,0.5806 44.9381,1.0376 C51.4501,5.6566 57.9491,10.2946 64.4031,14.9936 C65.0011,15.4296 65.6311,16.3136 65.6371,16.9936 C65.7141,26.8456 65.6861,36.6976 65.6781,46.5486 C65.6781,46.7396 65.6031,46.9306 65.4501,47.6516" id="Fill-4" fill="#000000"></path>
                    <path d="M27.7989,28.6418 C31.9269,28.6418 35.5909,28.6168 39.2529,28.6698 C39.7919,28.6778 40.4359,28.9288 40.8439,29.2828 C47.5929,35.1308 54.3119,41.0118 61.0319,46.8918 C61.2239,47.0598 61.3569,47.2958 61.6619,47.6848 C61.0979,47.8058 60.6899,47.9658 60.2809,47.9678 C56.4149,47.9868 52.5489,47.9958 48.6839,47.9608 C48.1219,47.9558 47.3659,47.8908 47.0309,47.5378 C44.6989,45.0898 42.4539,42.5578 40.0809,39.9418 C39.8619,40.3458 39.8779,40.2628 39.9269,40.2328 C42.2289,38.8508 43.1069,37.2528 42.3289,35.8498 C41.6089,34.5488 39.6499,34.2318 37.4549,35.4208 C35.8839,36.2738 34.9079,36.0828 33.7509,34.7628 C32.3059,33.1138 30.6149,31.6828 29.0489,30.1388 C28.6699,29.7658 28.3609,29.3208 27.7989,28.6418" id="Fill-6" fill="#000000"></path>
                    <path d="M4.4127,10.5275 C4.4507,6.0305 7.7427,2.5065 11.8667,2.5475 C15.9547,2.5885 19.2417,6.2055 19.2347,10.6565 C19.2277,15.1875 15.8237,18.8045 11.6377,18.7305 C7.5527,18.6585 4.3747,15.0495 4.4127,10.5275" id="Fill-8" fill="#000000"></path>
                    <path d="M44.3741,4.5426 C50.1701,8.7866 55.5881,12.7406 60.9781,16.7316 C61.2931,16.9656 61.5561,17.4996 61.5581,17.8946 C61.5921,25.4756 61.5831,33.0576 61.5831,40.9666 C60.8751,40.4936 60.3821,40.2176 59.9491,39.8666 C55.1331,35.9676 50.3111,32.0756 45.5401,28.1226 C44.9981,27.6746 44.4311,26.8696 44.4231,26.2236 C44.3441,19.1646 44.3741,12.1046 44.3741,4.5426" id="Fill-10" fill="#FFFFFF"></path>
                </g>
            </g>
        </g>
    </g>
</svg>