<?xml version="1.0" encoding="utf-8"?>
<!-- Generator: Adobe Illustrator 22.1.0, SVG Export Plug-In . SVG Version: 6.00 Build 0)  -->
<svg version="1.1" id="Calque_1" xmlns="http://www.w3.org/2000/svg" xmlns:xlink="http://www.w3.org/1999/xlink" x="0px" y="0px"
	 viewBox="0 0 200 200" style="enable-background:new 0 0 200 200;" xml:space="preserve">
<style type="text/css">
	.st0{fill:#AD91FF;}
	.st1{fill:none;stroke:#3283C8;stroke-width:8;stroke-miterlimit:10;}
	.st2{fill:#05B8EE;stroke:#000000;stroke-width:1.5;stroke-miterlimit:10;}
	.st3{fill:#FFFFFF;}
	.st4{stroke:#FFFFFF;stroke-miterlimit:10;}
	.st5{fill:#F4B940;}
	.st6{fill:#7EC500;}
</style>
<g>
	<g>
		<g>
			<g>
				<circle class="st0" cx="100.4" cy="102.8" r="46.7"/>
				<circle class="st1" cx="100.4" cy="102.8" r="46.7"/>
			</g>
		</g>
	</g>
	<g>
		<circle class="st2" cx="100.4" cy="102.8" r="9.1"/>
	</g>
	<g>
		<path class="st3" d="M131.6,132.9c-2,0-3.6,1.7-3.6,3.7l0,2.7c0,0.9-0.7,1.6-1.6,1.6s-1.6-0.7-1.6-1.6l0-2.7l0-5.2
			c0-2-1.7-3.6-3.7-3.6c-2,0-3.6,1.7-3.6,3.7l0,5.8c0,0.9-0.7,1.6-1.6,1.6c-0.9,0-1.6-0.7-1.6-1.6l0-5.8l0-1.3c0-2-1.7-3.6-3.7-3.6
			c-2,0-3.6,1.7-3.6,3.7l0.1,8.8c0,0.9-0.7,1.6-1.6,1.6c-0.9,0-1.6-0.7-1.6-1.6l-0.1-8.8l-0.2-18.6c0-2-1.7-3.6-3.7-3.6
			c-1,0-1.9,0.4-2.6,1.1c-0.7,0.7-1.1,1.6-1.1,2.6l0.2,28.1l0.1,9.4c0,0.9-0.7,1.6-1.6,1.6c-0.9,0-1.6-0.7-1.6-1.6l-0.1-9.3
			c-0.1-0.3-0.5-1.9-2.1-4.7c-0.6-1-1.5-1.8-2.7-2.1c-1.1-0.3-2.3-0.2-3.3,0.4c-1,0.6-1.8,1.5-2.1,2.7c-0.3,1.1-0.2,2.3,0.4,3.3
			c1.7,3,1.8,9.1,1.8,9.8c0,0,0.1,5.9,2.2,11.5c2.7,7.2,7.4,10.8,13.8,10.8l15.6-0.1c7-0.1,11.4-4.3,13.8-7.8l2.3-4.2
			c1.5-3.5,2.2-7.2,2.2-10.9l-0.1-12.1C135.3,134.5,133.7,132.8,131.6,132.9z"/>
		<path class="st4" d="M131.6,129.7c-1.4,0-2.6,0.4-3.7,1.1c-0.3-3.5-3.3-6.3-6.9-6.3c-1.8,0-3.5,0.7-4.7,1.9
			c-1.2-1.9-3.4-3.2-5.8-3.2c-1.3,0-2.6,0.4-3.7,1.1l-0.1-12.8c0-3.8-3.1-6.8-6.9-6.8c-1.8,0-3.5,0.7-4.8,2c-1.3,1.3-2,3-2,4.8
			l0.2,20.9c-1-1.2-2.3-2.1-3.8-2.5c-1.9-0.5-4-0.3-5.8,0.7c-1.8,1-3,2.6-3.6,4.6c-0.5,1.9-0.3,4,0.7,5.8c1.1,2,1.4,6.6,1.4,8.3
			c0,0.3,0.1,6.4,2.4,12.5c3.2,8.5,9,13,16.8,12.9l15.6-0.1c6.5-0.1,12.3-3.3,16.4-9.2l2.6-4.8c1.6-3.9,2.5-8.1,2.5-12.2l-0.1-12.1
			C138.5,132.7,135.4,129.7,131.6,129.7z M133.2,159.5l-2.3,4.2c-2.4,3.5-6.8,7.8-13.8,7.8l-15.6,0.1c-6.4,0.1-11.1-3.6-13.8-10.8
			c-2.1-5.7-2.2-11.5-2.2-11.5c0-0.7-0.1-6.8-1.8-9.8c-0.6-1-0.7-2.2-0.4-3.3c0.3-1.1,1.1-2.1,2.1-2.7c1-0.6,2.2-0.7,3.3-0.4
			c1.1,0.3,2.1,1.1,2.7,2.1c1.6,2.8,2,4.4,2.1,4.7l0.1,9.3c0,0.9,0.7,1.6,1.6,1.6c0.9,0,1.6-0.7,1.6-1.6l-0.1-9.4l-0.2-28.1
			c0-1,0.4-1.9,1.1-2.6c0.7-0.7,1.6-1.1,2.6-1.1c2,0,3.7,1.6,3.7,3.6l0.2,18.6l0.1,8.8c0,0.9,0.7,1.6,1.6,1.6c0.9,0,1.6-0.7,1.6-1.6
			l-0.1-8.8c0-2,1.6-3.7,3.6-3.7c2,0,3.7,1.6,3.7,3.6l0,1.3l0,5.8c0,0.9,0.7,1.6,1.6,1.6c0.9,0,1.6-0.7,1.6-1.6l0-5.8
			c0-2,1.6-3.7,3.6-3.7c2,0,3.7,1.6,3.7,3.6l0,5.2l0,2.7c0,0.9,0.7,1.6,1.6,1.6s1.6-0.7,1.6-1.6l0-2.7c0-2,1.6-3.7,3.6-3.7
			c2,0,3.7,1.6,3.7,3.6l0.1,12.1C135.5,152.3,134.7,156,133.2,159.5z"/>
	</g>
	<g>
		
			<rect x="98.5" y="65.5" transform="matrix(6.123234e-17 -1 1 6.123234e-17 32.9489 167.773)" class="st5" width="3.7" height="3.7"/>
		
			<rect x="98.5" y="73.2" transform="matrix(6.123234e-17 -1 1 6.123234e-17 25.2668 175.4551)" class="st5" width="3.7" height="3.7"/>
		
			<rect x="98.5" y="80.9" transform="matrix(6.123234e-17 -1 1 6.123234e-17 17.5847 183.1372)" class="st5" width="3.7" height="3.7"/>
	</g>
	<g>
		<g>
			<g>
				<rect x="98.5" y="27.4" width="3.7" height="3.7"/>
			</g>
			<g>
				<rect x="98.5" y="35.1" width="3.7" height="3.7"/>
			</g>
			<g>
				<rect x="98.5" y="42.8" width="3.7" height="3.7"/>
			</g>
		</g>
	</g>
	<g>
		<g>
			<g>
				<g>
					<g>
						
							<rect x="42.5" y="48.2" transform="matrix(0.7071 -0.7071 0.7071 0.7071 -22.389 46.0522)" class="st6" width="3.7" height="3.7"/>
					</g>
					<g>
						
							<rect x="48" y="53.6" transform="matrix(0.7071 -0.7071 0.7071 0.7071 -24.639 51.4843)" class="st6" width="3.7" height="3.7"/>
					</g>
					<g>
						
							<rect x="53.4" y="59" transform="matrix(0.7071 -0.7071 0.7071 0.7071 -26.889 56.9164)" class="st6" width="3.7" height="3.7"/>
					</g>
				</g>
			</g>
		</g>
	</g>
	<g>
		<g>
			<g>
				<g>
					<g>
						
							<rect x="157" y="48.2" transform="matrix(0.7071 -0.7071 0.7071 0.7071 11.1402 126.9988)" class="st6" width="3.7" height="3.7"/>
					</g>
					<g>
						
							<rect x="151.6" y="53.6" transform="matrix(0.7071 -0.7071 0.7071 0.7071 5.7081 124.7488)" class="st6" width="3.7" height="3.7"/>
					</g>
					<g>
						
							<rect x="146.1" y="59" transform="matrix(0.7071 -0.7071 0.7071 0.7071 0.2761 122.4987)" class="st6" width="3.7" height="3.7"/>
					</g>
				</g>
			</g>
		</g>
	</g>
	<g>
		
			<rect x="63.1" y="100.9" transform="matrix(-1 -1.224647e-16 1.224647e-16 -1 130.0413 205.6429)" class="st3" width="3.7" height="3.7"/>
		
			<rect x="70.8" y="100.9" transform="matrix(-1 -1.224647e-16 1.224647e-16 -1 145.4055 205.6429)" class="st3" width="3.7" height="3.7"/>
		
			<rect x="78.5" y="100.9" transform="matrix(-1 -1.224647e-16 1.224647e-16 -1 160.7697 205.6429)" class="st3" width="3.7" height="3.7"/>
	</g>
	<g>
		<g>
			<g>
				<rect x="25" y="100.9" width="3.7" height="3.7"/>
			</g>
			<g>
				<rect x="32.7" y="100.9" width="3.7" height="3.7"/>
			</g>
			<g>
				<rect x="40.4" y="100.9" width="3.7" height="3.7"/>
			</g>
		</g>
	</g>
	<g>
		<g>
			<g>
				<rect x="157" y="100.9" width="3.7" height="3.7"/>
			</g>
			<g>
				<rect x="164.7" y="100.9" width="3.7" height="3.7"/>
			</g>
			<g>
				<rect x="172.4" y="100.9" width="3.7" height="3.7"/>
			</g>
		</g>
	</g>
	<g>
		
			<rect x="118.9" y="100.9" transform="matrix(-1 -1.224647e-16 1.224647e-16 -1 241.556 205.6429)" class="st3" width="3.7" height="3.7"/>
		
			<rect x="126.6" y="100.9" transform="matrix(-1 -1.224647e-16 1.224647e-16 -1 256.9202 205.6429)" class="st3" width="3.7" height="3.7"/>
		
			<rect x="134.3" y="100.9" transform="matrix(-1 -1.224647e-16 1.224647e-16 -1 272.2844 205.6429)" class="st3" width="3.7" height="3.7"/>
	</g>
	<g>
		<g>
			<g>
				<g>
					<g>
						<g>
							
								<rect x="157" y="149.5" transform="matrix(0.7071 -0.7071 0.7071 0.7071 -60.5006 156.6734)" class="st6" width="3.7" height="3.7"/>
						</g>
						<g>
							
								<rect x="151.6" y="144.1" transform="matrix(0.7071 -0.7071 0.7071 0.7071 -58.2506 151.2413)" class="st6" width="3.7" height="3.7"/>
						</g>
						<g>
							
								<rect x="146.1" y="138.6" transform="matrix(0.7071 -0.7071 0.7071 0.7071 -56.0005 145.8093)" class="st6" width="3.7" height="3.7"/>
						</g>
					</g>
				</g>
			</g>
		</g>
		<g>
			<g>
				<g>
					<g>
						<g>
							
								<rect x="42.5" y="149.5" transform="matrix(0.7071 -0.7071 0.7071 0.7071 -94.0298 75.7268)" class="st6" width="3.7" height="3.7"/>
						</g>
						<g>
							
								<rect x="48" y="144.1" transform="matrix(0.7071 -0.7071 0.7071 0.7071 -88.5977 77.9769)" class="st6" width="3.7" height="3.7"/>
						</g>
						<g>
							
								<rect x="53.4" y="138.6" transform="matrix(0.7071 -0.7071 0.7071 0.7071 -83.1656 80.2269)" class="st6" width="3.7" height="3.7"/>
						</g>
					</g>
				</g>
			</g>
		</g>
	</g>
</g>
</svg>
