<?xml version="1.0" encoding="utf-8"?>
<!-- Generator: Adobe Illustrator 22.1.0, SVG Export Plug-In . SVG Version: 6.00 Build 0)  -->
<svg version="1.1" id="Calque_1" xmlns="http://www.w3.org/2000/svg" xmlns:xlink="http://www.w3.org/1999/xlink" x="0px" y="0px"
	 viewBox="0 0 200 200" style="enable-background:new 0 0 200 200;" xml:space="preserve">
<style type="text/css">
	.st0{fill:#FFFFFF;stroke:#000000;stroke-width:1.5;stroke-miterlimit:10;}
	.st1{fill:#AD91FF;stroke:#000000;stroke-width:1.5;stroke-miterlimit:10;}
	.st2{fill:#7EC500;stroke:#000000;stroke-width:1.5;stroke-miterlimit:10;}
	.st3{fill:#3283C8;stroke:#000000;stroke-width:1.5;stroke-miterlimit:10;}
	.st4{fill:none;stroke:#000000;stroke-width:1.5;stroke-linecap:round;stroke-miterlimit:10;}
	.st5{fill:#3283C8;}
</style>
<g>
	<g>
		<path class="st0" d="M92,51.5V36.9H42c-1.8,0-3.3,1.5-3.3,3.3V135c0,1.8,1.5,3.3,3.3,3.3h64.6c1.8,0,3.3-1.5,3.3-3.3V54.8H95.2
			C93.5,54.8,92,53.3,92,51.5z"/>
		<path class="st0" d="M92.1,36.9H92v14.6c0,1.8,1.5,3.3,3.3,3.3h14.7v0L92.1,36.9z"/>
	</g>
	<g>
		<path class="st1" d="M121.6,142.4l-1.2-0.7c0.4-1.8,0.6-3.6,0.6-5.4c0-1.8-0.2-3.6-0.6-5.4l1.2-0.7c0.9-0.5,1.5-1.3,1.8-2.3
			c0.3-1,0.1-2-0.4-2.9l-3.9-6.8c-0.5-0.9-1.3-1.5-2.3-1.8c-1-0.3-2-0.1-2.9,0.4l-1.2,0.7c-2.7-2.4-5.9-4.3-9.4-5.4v-1.4
			c0-2.1-1.7-3.8-3.8-3.8h-7.9c-2.1,0-3.8,1.7-3.8,3.8v1.4c-3.5,1.1-6.7,3-9.4,5.4l-1.2-0.7c-0.9-0.5-1.9-0.6-2.9-0.4
			c-1,0.3-1.8,0.9-2.3,1.8l-3.9,6.8c-0.5,0.9-0.6,1.9-0.4,2.9c0.3,1,0.9,1.8,1.8,2.3l1.2,0.7c-0.4,1.8-0.6,3.6-0.6,5.4
			c0,1.8,0.2,3.6,0.6,5.4l-1.2,0.7c-0.9,0.5-1.5,1.3-1.8,2.3c-0.3,1-0.1,2,0.4,2.9l3.9,6.8c1.1,1.8,3.4,2.4,5.2,1.4l1.2-0.7
			c2.7,2.4,5.9,4.3,9.4,5.4v1.4c0,2.1,1.7,3.8,3.8,3.8h7.9c2.1,0,3.8-1.7,3.8-3.8v-1.4c3.5-1.1,6.7-3,9.4-5.4l1.2,0.7
			c1.8,1.1,4.2,0.4,5.2-1.4l3.9-6.8c0.5-0.9,0.6-1.9,0.4-2.9C123.1,143.7,122.5,142.9,121.6,142.4z"/>
		<circle class="st0" cx="95.5" cy="136.3" r="18.4"/>
	</g>
	<g>
		<path class="st2" d="M138.5,97.5l-0.5-0.3c0.2-0.8,0.3-1.6,0.3-2.4c0-0.8-0.1-1.6-0.3-2.4l0.5-0.3c0.4-0.2,0.7-0.6,0.8-1
			c0.1-0.4,0.1-0.9-0.2-1.3l-1.8-3.1c-0.2-0.4-0.6-0.7-1-0.8c-0.4-0.1-0.9-0.1-1.3,0.2l-0.5,0.3c-1.2-1.1-2.6-1.9-4.2-2.4v-0.6
			c0-0.9-0.8-1.7-1.7-1.7H125c-0.9,0-1.7,0.8-1.7,1.7v0.6c-1.6,0.5-3,1.3-4.2,2.4l-0.5-0.3c-0.4-0.2-0.9-0.3-1.3-0.2
			c-0.4,0.1-0.8,0.4-1,0.8l-1.8,3.1c-0.2,0.4-0.3,0.9-0.2,1.3c0.1,0.4,0.4,0.8,0.8,1l0.5,0.3c-0.2,0.8-0.3,1.6-0.3,2.4
			c0,0.8,0.1,1.6,0.3,2.4l-0.5,0.3c-0.4,0.2-0.7,0.6-0.8,1c-0.1,0.4-0.1,0.9,0.2,1.3l1.8,3.1c0.5,0.8,1.5,1.1,2.3,0.6l0.5-0.3
			c1.2,1.1,2.6,1.9,4.2,2.4v0.6c0,0.9,0.8,1.7,1.7,1.7h3.5c0.9,0,1.7-0.8,1.7-1.7v-0.6c1.6-0.5,3-1.3,4.2-2.4l0.5,0.3
			c0.8,0.5,1.9,0.2,2.3-0.6l1.8-3.1c0.2-0.4,0.3-0.9,0.2-1.3C139.2,98.1,138.9,97.8,138.5,97.5z"/>
		<circle class="st0" cx="126.8" cy="94.8" r="6.8"/>
	</g>
	<g>
		<path class="st3" d="M166.8,131.7l-0.9-0.5c0.3-1.4,0.5-2.8,0.5-4.2s-0.2-2.8-0.5-4.2l0.9-0.5c0.7-0.4,1.2-1,1.4-1.8
			c0.2-0.8,0.1-1.6-0.3-2.2l-3-5.3c-0.4-0.7-1-1.2-1.8-1.4c-0.8-0.2-1.5-0.1-2.2,0.3l-0.9,0.5c-2.1-1.9-4.5-3.3-7.2-4.2v-1
			c0-1.6-1.3-2.9-2.9-2.9h-6.1c-1.6,0-2.9,1.3-2.9,2.9v1c-2.7,0.9-5.1,2.3-7.2,4.2l-0.9-0.5c-0.7-0.4-1.5-0.5-2.2-0.3
			c-0.8,0.2-1.4,0.7-1.8,1.4l-3,5.3c-0.4,0.7-0.5,1.5-0.3,2.2c0.2,0.8,0.7,1.4,1.4,1.8l0.9,0.5c-0.3,1.4-0.5,2.8-0.5,4.2
			c0,1.4,0.2,2.8,0.5,4.2l-0.9,0.5c-0.7,0.4-1.2,1-1.4,1.8c-0.2,0.8-0.1,1.5,0.3,2.2l3,5.3c0.8,1.4,2.6,1.9,4,1.1l0.9-0.5
			c2.1,1.9,4.5,3.3,7.2,4.2v1c0,1.6,1.3,2.9,2.9,2.9h6.1c1.6,0,2.9-1.3,2.9-2.9v-1c2.7-0.9,5.1-2.3,7.2-4.2l0.9,0.5
			c1.4,0.8,3.2,0.3,4-1.1l3-5.3c0.4-0.7,0.5-1.5,0.3-2.2C168,132.8,167.5,132.1,166.8,131.7z"/>
		<circle class="st0" cx="146.7" cy="127" r="12.9"/>
	</g>
	<g>
		<g>
			<g>
				<line class="st4" x1="52.6" y1="60.6" x2="55.7" y2="60.6"/>
				<line class="st4" x1="60" y1="60.6" x2="63.1" y2="60.6"/>
				<line class="st4" x1="67.5" y1="60.6" x2="82.2" y2="60.6"/>
			</g>
			<g>
				<line class="st4" x1="52.6" y1="71.5" x2="57.8" y2="71.5"/>
				<line class="st4" x1="78.2" y1="71.5" x2="83.5" y2="71.5"/>
				<line class="st4" x1="61.8" y1="71.5" x2="75.2" y2="71.5"/>
			</g>
			<g>
				<line class="st4" x1="52.6" y1="82.4" x2="55.7" y2="82.4"/>
				<line class="st4" x1="60" y1="82.4" x2="63.1" y2="82.4"/>
				<line class="st4" x1="67.5" y1="82.4" x2="82.2" y2="82.4"/>
			</g>
			<g>
				<line class="st4" x1="52.6" y1="93.3" x2="55.5" y2="93.3"/>
				<line class="st4" x1="67" y1="93.3" x2="85.1" y2="93.3"/>
				<line class="st4" x1="59.4" y1="93.3" x2="63.4" y2="93.3"/>
			</g>
		</g>
		<polyline class="st4" points="53.6,102.5 57.8,105.9 53.6,109 		"/>
		<line class="st4" x1="58.8" y1="110.1" x2="65.1" y2="110.1"/>
	</g>
	<g>
		<g>
			<rect x="84.3" y="131" class="st5" width="3.2" height="3.2"/>
			<rect x="89.6" y="131" class="st5" width="17.1" height="3.2"/>
			<rect x="103.5" y="137.9" class="st5" width="3.2" height="3.2"/>
			<rect x="84.3" y="137.9" class="st5" width="17.1" height="3.2"/>
		</g>
	</g>
</g>
</svg>
