<?xml version="1.0" encoding="utf-8"?>
<!-- Generator: Adobe Illustrator 22.1.0, SVG Export Plug-In . SVG Version: 6.00 Build 0)  -->
<svg version="1.1" id="Calque_1" xmlns="http://www.w3.org/2000/svg" xmlns:xlink="http://www.w3.org/1999/xlink" x="0px" y="0px"
	 viewBox="0 0 200 200" style="enable-background:new 0 0 200 200;" xml:space="preserve">
<style type="text/css">
	.st0{fill:#05B8EE;}
	.st1{fill:none;stroke:#000000;stroke-width:1.5;stroke-miterlimit:10;}
	.st2{fill:#7EC500;stroke:#000000;stroke-width:1.5;stroke-miterlimit:10;}
	.st3{fill:#3283C8;}
	.st4{fill:#FFFFFF;}
	.st5{fill:#3283C8;stroke:#000000;stroke-width:1.5;stroke-miterlimit:10;}
	.st6{fill:#606060;}
	.st7{fill:#DBCB32;}
	.st8{fill:#05B8EE;stroke:#000000;stroke-width:1.5;stroke-miterlimit:10;}
</style>
<g>
	<g>
		<g>
			<g>
				<g>
					<g>
						<path class="st0" d="M86.7,157H55.6c-1.7,0-3-1.3-3-3V82.7c0-1.7,1.3-3,3-3h31.1c1.7,0,3,1.3,3,3V154
							C89.7,155.7,88.3,157,86.7,157z"/>
						<path class="st1" d="M86.7,157H55.6c-1.7,0-3-1.3-3-3V82.7c0-1.7,1.3-3,3-3h31.1c1.7,0,3,1.3,3,3V154
							C89.7,155.7,88.3,157,86.7,157z"/>
					</g>
				</g>
			</g>
			<g>
				<g>
					<g>
						<rect x="60" y="96.6" width="4.6" height="4.6"/>
					</g>
					<g>
						<rect x="60" y="106" width="4.6" height="4.6"/>
					</g>
					<g>
						<rect x="60" y="115.4" width="4.6" height="4.6"/>
					</g>
				</g>
			</g>
		</g>
		
			<rect x="98.3" y="101.6" transform="matrix(-1.836970e-16 1 -1 -1.836970e-16 255.3546 52.8369)" class="st2" width="5.8" height="104.9"/>
		<g>
			<g>
				<g>
					<path class="st3" d="M146,157h-31.1c-1.6,0-3-1.3-3-3V82.7c0-1.7,1.4-3,3-3H146c1.6,0,3,1.3,3,3V154
						C149,155.7,147.6,157,146,157z"/>
					<path class="st1" d="M146,157h-31.1c-1.6,0-3-1.3-3-3V82.7c0-1.7,1.4-3,3-3H146c1.6,0,3,1.3,3,3V154
						C149,155.7,147.6,157,146,157z"/>
				</g>
			</g>
		</g>
		<g>
			<g>
				<g>
					<path class="st4" d="M122.9,157H73.3c-1.7,0-3-1.3-3-3V75.3c0-1.7,1.3-3,3-3h49.6c1.7,0,3,1.3,3,3V154
						C125.9,155.7,124.5,157,122.9,157z"/>
					<path class="st1" d="M122.9,157H73.3c-1.7,0-3-1.3-3-3V75.3c0-1.7,1.3-3,3-3h49.6c1.7,0,3,1.3,3,3V154
						C125.9,155.7,124.5,157,122.9,157z"/>
				</g>
			</g>
		</g>
		<g>
			<g>
				<g>
					<rect x="133.8" y="96.6" width="4.6" height="4.6"/>
				</g>
				<g>
					<rect x="133.8" y="106" width="4.6" height="4.6"/>
				</g>
				<g>
					<rect x="133.8" y="115.4" width="4.6" height="4.6"/>
				</g>
			</g>
		</g>
		<g>
			<g>
				<g>
					<g>
						<rect x="82.8" y="83.8" width="4.6" height="4.6"/>
					</g>
					<g>
						<rect x="82.8" y="93.2" width="4.6" height="4.6"/>
					</g>
					<g>
						<rect x="82.8" y="102.6" width="4.6" height="4.6"/>
					</g>
				</g>
			</g>
			<g>
				<g>
					<g>
						<rect x="95.8" y="83.8" width="4.6" height="4.6"/>
					</g>
					<g>
						<rect x="95.8" y="93.2" width="4.6" height="4.6"/>
					</g>
					<g>
						<rect x="95.8" y="102.6" width="4.6" height="4.6"/>
					</g>
				</g>
			</g>
			<g>
				<g>
					<g>
						<rect x="108.8" y="83.8" width="4.6" height="4.6"/>
					</g>
					<g>
						<rect x="108.8" y="93.2" width="4.6" height="4.6"/>
					</g>
					<g>
						<rect x="108.8" y="102.6" width="4.6" height="4.6"/>
					</g>
				</g>
			</g>
			<g>
				<g>
					<g>
						<rect x="82.8" y="111.9" width="4.6" height="4.6"/>
					</g>
					<g>
						<rect x="82.8" y="121.3" width="4.6" height="4.6"/>
					</g>
					<g>
						<rect x="82.8" y="130.7" width="4.6" height="4.6"/>
					</g>
				</g>
			</g>
			<g>
				<g>
					<g>
						<rect x="108.8" y="111.9" width="4.6" height="4.6"/>
					</g>
					<g>
						<rect x="108.8" y="121.3" width="4.6" height="4.6"/>
					</g>
					<g>
						<rect x="108.8" y="130.7" width="4.6" height="4.6"/>
					</g>
				</g>
			</g>
		</g>
		<rect x="95.2" y="115.5" class="st5" width="5.8" height="41.5"/>
	</g>
	<g>
		<path class="st6" d="M71,51c0-5.9,3.5-9.4,8-9.4c2.4,0,4,1.1,5.1,2.3L82.5,46c-0.8-0.9-1.8-1.6-3.4-1.6c-3,0-5,2.5-5,6.5
			c0,4.1,1.8,6.6,5.2,6.6c0.9,0,1.9-0.3,2.4-0.8v-3.9h-3.2v-2.6h5.8v7.9c-1.1,1.2-3.1,2.1-5.4,2.1C74.4,60.3,71,57,71,51z"/>
		<g>
			<path class="st6" d="M87.7,44.6h8.6v2.3h-6.1v3.9h5.1v2.3h-5.1v4.5h6.3V60h-8.8V44.6z"/>
			<path class="st6" d="M99.5,44.6h2.6l4.4,8.6l1.5,3.3h0.1c-0.1-1.6-0.3-3.5-0.3-5.2v-6.7h2.4V60h-2.6l-4.4-8.6l-1.5-3.3h-0.1
				c0.1,1.6,0.3,3.5,0.3,5.2V60h-2.4V44.6z"/>
		</g>
		<g>
			<g>
				<path class="st7" d="M114.3,58.1l1.8-2.8c0.1,0.1,0.5-0.1,0.6,0c1,0.9,2.1,1.4,3.2,1.4c1.5,0,2.5-0.6,2.5-1.7
					c0-1.3-0.6-2.1-3.5-2.2c-0.2,0-0.5-1.2-0.7-1.2l0.2-1.9c0.2,0,0.3-0.4,0.5-0.4c2.3-0.1,3-0.9,3-2.1c0-1.1-0.6-1.7-1.8-1.7
					c-1,0-1.8,0.4-2.7,1.2c-0.1,0.1-0.5-0.2-0.6-0.1l-1.9-2.5c0.1-0.1,0-0.3,0.1-0.3c1.6-1.4,3.4-2.2,5.4-2.2c3.8,0,6.2,1.9,6.2,5.2
					c0,1.8-0.9,3.1-2.8,4v0.1c1.9,0.6,3.3,2.1,3.3,4.4c0,3.5-3.1,5.4-6.7,5.4C117.6,60.7,115.6,59.7,114.3,58.1z"/>
			</g>
			<circle class="st7" cx="116.1" cy="45.3" r="1.9"/>
			<circle class="st7" cx="115.4" cy="56.6" r="1.9"/>
			<circle class="st7" cx="119" cy="51" r="1.8"/>
			<circle class="st7" cx="122.8" cy="58.1" r="2.1"/>
			<circle class="st7" cx="123.7" cy="45.1" r="2.3"/>
		</g>
	</g>
	<rect x="85.1" y="63.5" class="st8" width="1.6" height="8.8"/>
	<rect x="112.6" y="63.5" class="st8" width="1.6" height="8.8"/>
</g>
</svg>
