<?xml version="1.0" encoding="utf-8"?>
<!-- Generator: Adobe Illustrator 22.1.0, SVG Export Plug-In . SVG Version: 6.00 Build 0)  -->
<svg version="1.1" id="Calque_1" xmlns="http://www.w3.org/2000/svg" xmlns:xlink="http://www.w3.org/1999/xlink" x="0px" y="0px"
	 viewBox="0 0 200 200" style="enable-background:new 0 0 200 200;" xml:space="preserve">
<style type="text/css">
	.st0{stroke:#FFFFFF;stroke-width:2;stroke-miterlimit:10;}
	.st1{fill:#66CC00;}
	.st2{fill:#05B8EE;}
	.st3{fill:#DBCB32;}
	.st4{fill:#F4B940;}
	
		.st5{fill:none;stroke:#F4B940;stroke-width:2;stroke-linecap:round;stroke-linejoin:round;stroke-miterlimit:10;stroke-dasharray:1,4;}
</style>
<g>
	<g>
		<g>
			<g>
				<g>
					<path class="st0" d="M158.4,124.1v-67c0-3.4-2.8-6.2-6.2-6.2h-20.6c-1.1,0-2.1,0.9-2.1,2.1s0.9,2.1,2.1,2.1h20.6
						c1.1,0,2.1,0.9,2.1,2.1v67h-4.1V63.3c0-2.3-1.8-4.1-4.1-4.1h-24.4c-1.1,0-2.1,0.9-2.1,2.1s0.9,2.1,2.1,2.1H146v60.8H55.6V63.3
						h62.3c1.1,0,2.1-0.9,2.1-2.1s-0.9-2.1-2.1-2.1H55.6c-2.3,0-4.1,1.8-4.1,4.1V124h-4.1V57c0-1.1,0.9-2.1,2.1-2.1h84.7
						c1.1,0,2.1-0.9,2.1-2.1c0-1.1-0.9-2.1-2.1-2.1H49.4c-3.4,0-6.2,2.8-6.2,6.2v67c-2.3,0-4.1,1.8-4.1,4.1v3.2
						c0,5.7,4.6,10.3,10.3,10.3h102.8c5.7,0,10.3-4.6,10.3-10.3V128C162.5,125.9,160.7,124.1,158.4,124.1z M118,128.2l-1.5,2
						c-0.3,0.7-1.1,1.1-1.8,1.1H86.9c-0.8,0-1.5-0.4-1.8-1.1l-1.5-2H118z M43.2,131.4v-3.2H79l2.4,3.8c1,2.1,3.2,3.4,5.5,3.4h27.8
						c2.3,0,4.5-1.3,5.5-3.4l2.4-3.8h35.7v2.1l0,0l0,0v2.1v-0.9l0,0c0,3.4-2.8,6.2-6.2,6.2H49.4C46,137.6,43.2,134.8,43.2,131.4"/>
				</g>
			</g>
		</g>
	</g>
	<path class="st1" d="M138.9,80.4H74.3c-1.6,0-3-1.3-3-3v-6c0-1.7,1.4-3,3-3h64.6c1.6,0,3,1.3,3,3v6
		C141.9,79.1,140.5,80.4,138.9,80.4z"/>
	<path class="st2" d="M127.4,120.2H62.1c-1.6,0-3-1.3-3-3V92.7c0-1.6,1.4-3,3-3h65.3c1.7,0,3,1.4,3,3v24.5
		C130.4,118.9,129,120.2,127.4,120.2z"/>
	<g>
		<g>
			<g>
				<path class="st3" d="M79.8,67.1v18.1c0,9.8,4.4,19.2,11.8,24.9c2.9,2.3,6,3.9,9.2,4.9c3.2-1,6.3-2.7,9.2-4.9
					c7.4-5.8,11.8-15.1,11.8-24.9V67.1c-12.2-0.3-18.9-5.5-21-7.5C98.7,61.6,92.1,66.9,79.8,67.1z M116.9,70.8
					c0.5,0.1,0.9,0.5,0.9,1v13.5c0,8.6-3.8,16.8-10.3,21.8c-2,1.6-4.2,2.8-6.4,3.7c-0.1,0-0.2,0.1-0.4,0.1s-0.2,0-0.4-0.1
					c-2.2-0.9-4.4-2.1-6.4-3.7c-6.4-5-10.3-13.2-10.3-21.8V71.8c0-0.5,0.4-0.9,0.9-1c7.4-0.9,12.5-3.6,15.6-5.6
					c0.3-0.2,0.8-0.2,1.1,0C104.4,67.2,109.5,69.8,116.9,70.8z"/>
				<path class="st4" d="M85.8,72.6v12.6c0,8,3.5,15.6,9.5,20.2c1.8,1.4,3.6,2.5,5.5,3.3c1.9-0.8,3.8-1.9,5.5-3.3
					c5.9-4.7,9.5-12.2,9.5-20.2V72.6c-6.9-1-11.9-3.4-15-5.5C97.7,69.2,92.7,71.6,85.8,72.6z"/>
				<path d="M122.8,65.1c-14.6,0-21.1-7.5-21.2-7.6c-0.4-0.5-1.2-0.5-1.5,0c-0.1,0.1-6.5,7.6-21.2,7.6c-0.6,0-1,0.4-1,1v19.1
					c0,10.4,4.7,20.3,12.5,26.5c3.2,2.5,6.6,4.3,10.2,5.4c0.1,0,0.2,0,0.3,0c0.1,0,0.2,0,0.3,0c3.6-1.1,7-2.9,10.2-5.4
					c7.9-6.2,12.5-16.1,12.5-26.5V66.1C123.8,65.6,123.4,65.1,122.8,65.1z M121.8,85.2c0,9.8-4.4,19.2-11.8,24.9
					c-2.9,2.3-6,3.9-9.2,4.9c-3.2-1-6.3-2.7-9.2-4.9c-7.4-5.8-11.8-15.1-11.8-24.9V67.1c12.2-0.3,18.9-5.5,21-7.5
					c2.1,2,8.8,7.3,21,7.5V85.2z"/>
				<path d="M100.2,65.2c-3,2-8.2,4.7-15.6,5.6c-0.5,0.1-0.9,0.5-0.9,1v13.5c0,8.6,3.8,16.8,10.3,21.8c2,1.6,4.2,2.8,6.4,3.7
					c0.1,0,0.2,0.1,0.4,0.1s0.2,0,0.4-0.1c2.2-0.9,4.4-2.1,6.4-3.7c6.4-5,10.3-13.2,10.3-21.8V71.8c0-0.5-0.4-0.9-0.9-1
					c-7.4-0.9-12.5-3.6-15.6-5.6C101,64.9,100.6,64.9,100.2,65.2z M115.8,72.6v12.6c0,8-3.5,15.6-9.5,20.2c-1.8,1.4-3.6,2.5-5.5,3.3
					c-1.9-0.8-3.8-1.9-5.5-3.3c-5.9-4.7-9.5-12.2-9.5-20.2V72.6c6.9-1,11.9-3.4,15-5.5C103.9,69.2,108.9,71.6,115.8,72.6z"/>
			</g>
		</g>
		<g>
			<g>
				<g>
					<g>
						<path d="M96.2,94.8h9.3c1.3,0,2.3-1,2.3-2.3v-7.7c0-1.3-1-2.3-2.3-2.3v-3.1c0-2.1-1.7-3.9-3.9-3.9H100c-2.1,0-3.9,1.7-3.9,3.9
							v3.1c-1.3,0-2.3,1-2.3,2.3v7.7C93.9,93.7,94.9,94.8,96.2,94.8z M97.7,79.3c0-1.3,1-2.3,2.3-2.3h1.5c1.3,0,2.3,1,2.3,2.3v3.1
							h-6.2L97.7,79.3L97.7,79.3z M95.4,84.7c0-0.4,0.3-0.8,0.8-0.8h9.3c0.4,0,0.8,0.3,0.8,0.8v7.7c0,0.4-0.3,0.8-0.8,0.8h-9.3
							c-0.4,0-0.8-0.3-0.8-0.8V84.7z"/>
						<path d="M100,90v0.9c0,0.4,0.3,0.8,0.8,0.8c0.4,0,0.8-0.3,0.8-0.8V90c1.1-0.4,1.7-1.5,1.5-2.6s-1.2-1.9-2.3-1.9
							c-1.1,0-2.1,0.8-2.3,1.9C98.3,88.5,99,89.6,100,90z M100.8,87.1c0.4,0,0.8,0.3,0.8,0.8c0,0.4-0.3,0.8-0.8,0.8
							c-0.4,0-0.8-0.3-0.8-0.8S100.4,87.1,100.8,87.1z"/>
					</g>
				</g>
			</g>
		</g>
	</g>
	<g>
		<path class="st5" d="M43.2,64.1c-1,0.4-32.2,5.4,33.6,22.1"/>
		<path class="st5" d="M43.2,110.8c-1-0.4-32.2-5,33.6-20.7"/>
	</g>
	<g>
		<path class="st5" d="M158.6,64.1c1.1,0.4,37.9,5.4-33.4,22.1"/>
		<path class="st5" d="M158.6,110.8c1.1-0.4,33.9-5-37.4-20.7"/>
	</g>
</g>
</svg>
