<?xml version="1.0" encoding="utf-8"?>
<!-- Generator: Adobe Illustrator 22.1.0, SVG Export Plug-In . SVG Version: 6.00 Build 0)  -->
<svg version="1.1" id="Calque_1" xmlns="http://www.w3.org/2000/svg" xmlns:xlink="http://www.w3.org/1999/xlink" x="0px" y="0px"
	 viewBox="0 0 200 200" style="enable-background:new 0 0 200 200;" xml:space="preserve">
<style type="text/css">
	.st0{fill:#3283C8;}
	.st1{fill:#FFFFFF;}
</style>
<g id="KDUBVa.tif">
	<g>
		<g>
			<path class="st0" d="M49,105.4c0-0.2,0.1-0.4,0.1-0.6c0.2-0.5,0.6-1,1.1-1.3c2.4-1.4,4.9-2.7,7.3-4c0.3-0.2,0.3-0.3,0.3-0.6
				c0-6.1,0-12.2,0-18.2c0-1.2,0.5-1.9,1.5-2.5c5.3-2.9,10.6-5.9,15.9-8.8c1.5-0.8,2.9-1.6,4.4-2.5c0.2-0.1,0.3-0.2,0.3-0.4
				c0-2.4,0-4.7,0-7.1c0-0.9,0.4-1.6,1.2-2.1c5.1-2.8,10.2-5.7,15.3-8.5c0.7-0.4,1.4-0.8,2.1-1.2c0.8-0.5,1.6-0.5,2.4,0
				c2.8,1.6,5.6,3.1,8.5,4.7c2.7,1.5,5.3,3,8,4.4c0.1,0.1,0.3,0.1,0.5,0.1c0.9,0,1.5,0.4,2,1.1c0.4,0.8,0.4,1.5-0.1,2.3
				c-0.1,0.1-0.1,0.3-0.1,0.5c0,1.9,0,3.8,0,5.8c0,0.2,0.1,0.3,0.3,0.4c6.8,3.8,13.7,7.6,20.5,11.4c0.9,0.5,1.3,1.2,1.3,2.2
				c0,6.2,0,12.3,0,18.5c0,0.3,0.1,0.4,0.3,0.5c2.1,1.1,4.2,2.3,6.2,3.5c0.2,0.1,0.4,0.1,0.6,0.1c0.8,0,1.5,0.4,1.9,1.1
				c0.4,0.7,0.4,1.5,0,2.2c-0.1,0.2-0.2,0.4-0.2,0.6c0,6,0,11.9,0,17.9c0,1-0.4,1.8-1.4,2.3c-4.4,2.4-8.8,4.9-13.2,7.3
				c-1.4,0.8-2.8,1.6-4.3,2.4c-0.7,0.4-1.5,0.3-2.2-0.1c-1.2-0.7-2.4-1.3-3.6-2c-0.2-0.1-0.3-0.1-0.5,0c-4.7,2.6-9.4,5.2-14.1,7.8
				c-3.4,1.9-6.8,3.8-10.3,5.7c-0.2,0.1-0.5,0.2-0.7,0.3c-0.3,0-0.6,0-0.8,0c-0.4-0.2-0.9-0.4-1.3-0.6c-1.3-0.7-2.7-1.5-4-2.2
				c-3.8-2.1-7.7-4.3-11.5-6.4c-2.8-1.5-5.5-3.1-8.3-4.6c-0.1-0.1-0.3-0.1-0.5,0c-1.3,0.7-2.5,1.4-3.8,2.1c-0.6,0.3-1.3,0.4-1.9,0.1
				c-0.6-0.3-1.3-0.7-1.9-1c-5.3-2.9-10.6-5.9-15.9-8.8c-0.6-0.3-1-0.8-1.1-1.5c0-0.2-0.1-0.3-0.1-0.5C49,118.6,49,112,49,105.4z
				 M79.9,71.9c-0.1,0.1-0.2,0.1-0.3,0.2c-5.7,3.1-11.3,6.3-17,9.4c-0.3,0.1-0.3,0.3-0.3,0.6c0,4.8,0,9.6,0,14.4c0,0.1,0,0.2,0,0.4
				c0.1-0.1,0.2-0.1,0.3-0.2c1.7-0.9,3.4-1.9,5.1-2.8c0.8-0.4,1.6-0.4,2.3,0c0.8,0.5,1.7,0.9,2.5,1.4c4.6,2.5,9.1,5.1,13.7,7.6
				c0.3,0.2,0.6,0.3,1,0.3c1.6,0,2.6,1.9,1.8,3.3c-0.1,0.2-0.2,0.5-0.2,0.7c0,5.9,0,11.9,0,17.8c0,1.1-0.4,1.8-1.4,2.3
				c-2.3,1.2-4.6,2.5-6.9,3.8c-0.6,0.4-1.3,0.7-2,1.1c0.1,0.1,0.2,0.1,0.3,0.2c1.8,1,3.5,2,5.3,2.9c5.1,2.8,10.3,5.7,15.4,8.6
				c0.2,0.1,0.4,0.1,0.6,0c2.1-1.2,4.3-2.4,6.5-3.6c4.7-2.6,9.4-5.2,14.1-7.8c0.1-0.1,0.2-0.1,0.4-0.2c-0.1-0.1-0.2-0.1-0.3-0.2
				c-2.9-1.6-5.7-3.2-8.6-4.7c-0.8-0.5-1.3-1.2-1.3-2.1c0-6.5,0-13,0-19.5c0-0.9,0.4-1.6,1.2-2c5.8-3.2,11.6-6.4,17.4-9.7
				c0.9-0.5,1.7-0.5,2.5,0c1.3,0.7,2.6,1.5,3.9,2.2c0.5,0.2,0.9,0.5,1.4,0.8c0-0.2,0-0.3,0-0.5c0-4.5,0-9,0-13.5
				c0-0.4,0.1-0.9-0.1-1.2c-0.2-0.3-0.6-0.4-1-0.6c-0.1,0-0.2-0.1-0.2-0.1c-4.8-2.7-9.7-5.4-14.5-8.1c-0.6-0.3-1.2-0.7-1.8-1
				c0,0.2,0,0.3,0,0.4c0,2.1,0,4.2,0,6.4c0,1.1-0.4,1.8-1.3,2.3c-3.7,2.1-7.5,4.1-11.2,6.2c-2,1.1-4,2.2-6,3.3
				c-0.8,0.5-1.6,0.6-2.5,0.1c-5.8-3.2-11.6-6.5-17.5-9.7c-0.8-0.5-1.3-1.2-1.2-2.1c0-2.1,0-4.2,0-6.3
				C79.9,72.3,79.9,72.1,79.9,71.9z M102,84.8c0.1-0.1,0.2-0.1,0.3-0.1c4.2-2.3,8.5-4.7,12.7-7c0.2-0.1,0.3-0.2,0.3-0.5
				c0-2.8,0-5.6,0-8.4c0-0.4-0.1-0.8-0.1-1.1c0-0.5,0.1-1,0.1-1.5c0-1.1,0-2.1,0-3.2c-0.2,0.1-0.3,0.2-0.5,0.2
				c-4.1,2.2-8.3,4.5-12.4,6.7c-0.3,0.1-0.4,0.3-0.4,0.6c0,4.6,0,9.3,0,13.9C102,84.5,102,84.7,102,84.8z M97.5,84.9
				c0-0.1,0-0.2,0-0.2c0-4.7,0-9.5,0-14.2c0-0.2-0.1-0.3-0.3-0.4c-3.8-2.1-7.6-4.1-11.4-6.2c-0.5-0.3-1-0.5-1.6-0.8
				c0,0.2,0,0.3,0,0.4c-0.1,1.9,0.1,3.8,0,5.6c-0.1,2.7,0,5.4,0,8.2c0,0.3,0.1,0.4,0.3,0.5c3.9,2.1,7.8,4.3,11.7,6.4
				C96.7,84.4,97.1,84.6,97.5,84.9z M84.3,109.3c-0.2,0.1-0.3,0.1-0.4,0.2c-4.2,2.3-8.4,4.6-12.6,6.8c-0.2,0.1-0.3,0.2-0.3,0.5
				c0,4.7,0,9.4,0,14.1c0,0.1,0,0.2,0,0.4c0.8-0.4,1.6-0.8,2.3-1.2c3.5-1.9,7-3.9,10.5-5.8c0.3-0.2,0.4-0.3,0.4-0.6
				c0-4.6,0-9.1,0-13.7C84.3,109.6,84.3,109.5,84.3,109.3z M128.4,131.2c0-0.2,0-0.3,0-0.4c0-4.7,0-9.4,0-14.1
				c0-0.2-0.1-0.3-0.3-0.5c-3.8-2-7.6-4.1-11.4-6.1c-0.5-0.3-1-0.6-1.6-0.8c0,0.1,0,0.2,0,0.2c0,4.7,0,9.4,0,14.2
				c0,0.2,0.1,0.3,0.2,0.4c2.5,1.4,4.9,2.7,7.4,4.1c1.4,0.8,2.8,1.5,4.2,2.3C127.5,130.7,127.9,130.9,128.4,131.2z M146.1,109.3
				c-0.2,0.1-0.4,0.2-0.6,0.3c-4.1,2.2-8.3,4.5-12.4,6.7c-0.2,0.1-0.3,0.2-0.3,0.5c0,4.7,0,9.4,0,14c0,0.1,0,0.2,0,0.4
				c0.1,0,0.2-0.1,0.3-0.1c4.2-2.3,8.4-4.7,12.7-7c0.2-0.1,0.3-0.3,0.3-0.5c0-4.6,0-9.2,0-13.9C146.1,109.6,146.1,109.4,146.1,109.3
				z M53.5,109.3c0,0.1,0,0.2,0,0.3c0,4.7,0,9.4,0,14c0,0.2,0.1,0.3,0.3,0.4c3.7,2,7.3,4,11,6.1c0.6,0.3,1.3,0.7,1.9,1.1
				c0-0.2,0-0.3,0-0.4c0-4.7,0-9.3,0-14c0-0.3-0.1-0.4-0.3-0.5c-3.2-1.7-6.3-3.4-9.5-5.1C55.7,110.5,54.6,109.9,53.5,109.3z
				 M82,105.5c-0.9-0.5-1.8-1-2.6-1.4c-3.4-1.9-6.8-3.8-10.2-5.6c-0.2-0.1-0.3-0.1-0.5,0c-3.6,2-7.1,3.9-10.7,5.9
				c-0.7,0.4-1.4,0.8-2.2,1.2c0.1,0.1,0.2,0.1,0.2,0.2c4.2,2.3,8.4,4.5,12.6,6.8c0.2,0.1,0.3,0.1,0.5,0c3.5-1.9,7-3.8,10.4-5.7
				C80.4,106.4,81.1,106,82,105.5z M112.8,59.2c-0.2-0.1-0.3-0.2-0.4-0.2c-1.2-0.7-2.4-1.4-3.7-2c-2.9-1.6-5.8-3.2-8.8-4.8
				c-0.2-0.1-0.3-0.1-0.5,0c-3.7,2.1-7.4,4.1-11.2,6.2c-0.6,0.3-1.1,0.6-1.7,1c0.1,0,0.1,0.1,0.1,0.1c4.3,2.3,8.5,4.6,12.8,6.9
				c0.1,0.1,0.3,0,0.4,0c3.2-1.7,6.4-3.4,9.6-5.2C110.6,60.4,111.7,59.8,112.8,59.2z M117.6,105.5c0.1,0.1,0.1,0.1,0.2,0.1
				c4.2,2.3,8.4,4.6,12.6,6.8c0.2,0.1,0.4,0.1,0.6,0c3.7-2,7.4-4,11.1-6c0.5-0.3,1.1-0.6,1.7-0.9c-1.8-1-3.6-2-5.4-3
				c-2.4-1.4-4.9-2.7-7.3-4.1c-0.3-0.1-0.4-0.1-0.7,0c-3.3,1.8-6.5,3.6-9.8,5.4C119.5,104.4,118.6,105,117.6,105.5z"/>
			<path class="st1" d="M102,84.8c0-0.2,0-0.3,0-0.4c0-4.6,0-9.3,0-13.9c0-0.3,0.1-0.4,0.4-0.6c4.1-2.2,8.3-4.5,12.4-6.7
				c0.1-0.1,0.3-0.1,0.5-0.2c0,1.1,0,2.2,0,3.2c0,0.5-0.1,1-0.1,1.5c0,0.4,0.1,0.8,0.1,1.1c0,2.8,0,5.6,0,8.4c0,0.2-0.1,0.3-0.3,0.5
				c-4.2,2.3-8.5,4.7-12.7,7C102.2,84.7,102.1,84.8,102,84.8z"/>
			<path class="st1" d="M97.5,84.9c-0.4-0.2-0.8-0.5-1.2-0.7c-3.9-2.1-7.8-4.3-11.7-6.4c-0.2-0.1-0.3-0.3-0.3-0.5c0-2.7,0-5.4,0-8.2
				c0-1.9-0.1-3.8,0-5.6c0-0.1,0-0.2,0-0.4c0.6,0.3,1.1,0.6,1.6,0.8c3.8,2.1,7.6,4.1,11.4,6.2c0.2,0.1,0.3,0.2,0.3,0.4
				c0,4.7,0,9.5,0,14.2C97.6,84.7,97.6,84.7,97.5,84.9z"/>
			<path class="st1" d="M84.3,109.3c0,0.2,0,0.3,0,0.4c0,4.6,0,9.1,0,13.7c0,0.3-0.1,0.5-0.4,0.6c-3.5,1.9-7,3.9-10.5,5.8
				c-0.8,0.4-1.5,0.8-2.3,1.2c0-0.1,0-0.2,0-0.4c0-4.7,0-9.4,0-14.1c0-0.2,0-0.3,0.3-0.5c4.2-2.3,8.4-4.5,12.6-6.8
				C84.1,109.4,84.2,109.4,84.3,109.3z"/>
			<path class="st1" d="M128.4,131.2c-0.5-0.3-0.9-0.5-1.4-0.7c-1.4-0.8-2.8-1.5-4.2-2.3c-2.5-1.4-4.9-2.7-7.4-4.1
				c-0.1-0.1-0.3-0.2-0.2-0.4c0-4.7,0-9.4,0-14.2c0-0.1,0-0.1,0-0.2c0.5,0.3,1.1,0.6,1.6,0.8c3.8,2.1,7.6,4.1,11.4,6.1
				c0.2,0.1,0.3,0.2,0.3,0.5c0,4.7,0,9.4,0,14.1C128.4,130.9,128.4,131,128.4,131.2z"/>
			<path class="st1" d="M146.1,109.3c0,0.2,0,0.3,0,0.4c0,4.6,0,9.2,0,13.9c0,0.3-0.1,0.4-0.3,0.5c-4.2,2.3-8.4,4.7-12.7,7
				c-0.1,0-0.1,0.1-0.3,0.1c0-0.2,0-0.3,0-0.4c0-4.7,0-9.4,0-14c0-0.2,0-0.3,0.3-0.5c4.1-2.2,8.3-4.5,12.4-6.7
				C145.7,109.5,145.8,109.4,146.1,109.3z"/>
			<path class="st1" d="M53.5,109.3c1.2,0.6,2.3,1.2,3.4,1.8c3.2,1.7,6.3,3.4,9.5,5.1c0.2,0.1,0.3,0.3,0.3,0.5c0,4.7,0,9.3,0,14
				c0,0.1,0,0.2,0,0.4c-0.7-0.4-1.3-0.7-1.9-1.1c-3.7-2-7.3-4.1-11-6.1c-0.2-0.1-0.3-0.2-0.3-0.4c0-4.7,0-9.4,0-14
				C53.4,109.5,53.5,109.4,53.5,109.3z"/>
			<path class="st1" d="M82,105.5c-0.8,0.5-1.6,0.9-2.4,1.3c-3.5,1.9-7,3.8-10.4,5.7c-0.2,0.1-0.3,0.1-0.5,0
				c-4.2-2.3-8.4-4.5-12.6-6.8c-0.1,0-0.1-0.1-0.2-0.2c0.7-0.4,1.4-0.8,2.2-1.2c3.6-2,7.1-3.9,10.7-5.9c0.2-0.1,0.3-0.1,0.5,0
				c3.4,1.9,6.8,3.8,10.2,5.6C80.2,104.6,81.1,105,82,105.5z"/>
			<path class="st1" d="M112.8,59.2c-1.1,0.6-2.2,1.2-3.3,1.8c-3.2,1.7-6.4,3.5-9.6,5.2c-0.1,0.1-0.3,0.1-0.4,0
				c-4.3-2.3-8.5-4.6-12.8-6.9c0,0-0.1,0-0.1-0.1c0.6-0.3,1.1-0.6,1.7-1c3.7-2.1,7.4-4.1,11.2-6.2c0.2-0.1,0.3,0,0.5,0
				c2.9,1.6,5.8,3.2,8.8,4.8c1.2,0.7,2.4,1.4,3.7,2C112.6,59.1,112.7,59.1,112.8,59.2z"/>
			<path class="st1" d="M117.6,105.5c1-0.6,2-1.1,2.9-1.6c3.3-1.8,6.5-3.6,9.8-5.4c0.3-0.1,0.4-0.1,0.7,0c2.4,1.4,4.9,2.7,7.3,4.1
				c1.8,1,3.6,2,5.4,3c-0.6,0.3-1.1,0.6-1.7,0.9c-3.7,2-7.4,4-11.1,6c-0.2,0.1-0.4,0.1-0.6,0c-4.2-2.3-8.4-4.6-12.6-6.8
				C117.7,105.6,117.7,105.6,117.6,105.5z"/>
		</g>
	</g>
</g>
</svg>
