<?xml version="1.0" encoding="utf-8"?>
<!-- Generator: Adobe Illustrator 22.1.0, SVG Export Plug-In . SVG Version: 6.00 Build 0)  -->
<svg version="1.1" id="Calque_1" xmlns="http://www.w3.org/2000/svg" xmlns:xlink="http://www.w3.org/1999/xlink" x="0px" y="0px"
	 viewBox="0 0 200 200" style="enable-background:new 0 0 200 200;" xml:space="preserve">
<style type="text/css">
	.st0{fill:#AD91FF;stroke:#000000;stroke-width:1.5;stroke-miterlimit:10;}
	.st1{fill:#FFFFFF;}
	.st2{fill:none;stroke:#05B8EE;stroke-width:2;stroke-miterlimit:10;}
	.st3{fill:#05B8EE;stroke:#000000;stroke-width:1.5;stroke-miterlimit:10;}
	.st4{fill:#FFFFFF;stroke:#000000;stroke-width:1.5;stroke-miterlimit:10;}
	.st5{fill:#F4B940;}
	.st6{fill:#3283C8;stroke:#000000;stroke-width:1.5;stroke-miterlimit:10;}
</style>
<g>
	<g>
		<path class="st0" d="M108.3,92.5H65.9c-1.7,0-3-1.3-3-3V55.6c0-1.7,1.4-3,3-3h42.4c1.6,0,3,1.3,3,3v33.9
			C111.3,91.1,109.9,92.5,108.3,92.5z"/>
		<g>
			<rect x="71.3" y="59.6" class="st1" width="3.2" height="3.2"/>
			<rect x="80" y="59.6" class="st1" width="22.9" height="3.2"/>
			
				<rect x="99.7" y="82.1" transform="matrix(-1 -1.224647e-16 1.224647e-16 -1 202.5915 167.4603)" class="st1" width="3.2" height="3.2"/>
			
				<rect x="71.3" y="82.2" transform="matrix(-1 -1.224647e-16 1.224647e-16 -1 165.4792 167.5726)" class="st1" width="22.9" height="3.2"/>
			<rect x="71.3" y="66.9" class="st1" width="31.6" height="3.2"/>
			<rect x="71.3" y="74.5" class="st1" width="31.6" height="3.2"/>
		</g>
	</g>
	<g>
		<path class="st2" d="M109.2,110h-17c-0.9,0-1.7-0.8-1.7-1.7V93.5"/>
	</g>
	<g>
		<path class="st2" d="M138.9,132.7v17c0,0.9-0.8,1.7-1.7,1.7h-14.8"/>
	</g>
	<g>
		<path class="st2" d="M133,32.8v44.7c0,0.9-0.8,1.7-1.7,1.7h-19.1"/>
	</g>
	<g>
		<path class="st3" d="M141.1,69.1H124c-1.7,0-3-1.3-3-3v-9.2c0-1.6,1.3-3,3-3h17.1c1.6,0,3,1.4,3,3v9.2
			C144.1,67.8,142.8,69.1,141.1,69.1z"/>
		<rect x="124.4" y="60.3" class="st1" width="3.2" height="3.2"/>
		<rect x="129.8" y="60.3" class="st1" width="10.7" height="3.2"/>
	</g>
	<g>
		<g>
			<path class="st4" d="M96.8,147.6H45.9c-1.7,0-3-1.4-3-3v-40.9c0-1.6,1.3-3,3-3h50.9c1.7,0,3,1.4,3,3v40.9
				C99.8,146.2,98.5,147.6,96.8,147.6z"/>
		</g>
		<g>
			<g id="SJLbBR.tif">
				<g>
					<g>
						<path class="st5" d="M68.4,134.7c0-1-0.1-2.1-0.4-3.1c-0.3-1.1-0.8-2-1.5-2.9c0,0,0,0-0.1-0.1c0,0-0.1-0.1-0.1-0.1
							c-0.5-0.6-1-1.2-1.5-1.6c-1.2-1-2.4-2-3.5-3c-1-0.9-2-1.7-3-2.6c-0.6-0.5-1.3-1.1-1.8-1.7c-1.2-1.5-1.8-3.1-1.8-5
							c0-0.7,0-1.3,0-2c0-0.3,0-0.7-0.2-1c0,0,0-0.1,0-0.1c0-0.1,0-0.1,0.1-0.1c0,0,0.1,0,0.1,0c0.1-0.7-0.4-1.1-0.9-1.1
							c-0.6,0-1,0.4-1,1c0,1,0,2.1,0,3.1c0,1.1,0.1,2.1,0.4,3.1c0.3,1,0.8,2,1.5,2.8c0.6,0.8,1.4,1.6,2.2,2.2c1.2,1,2.4,2,3.6,3
							c0.8,0.7,1.7,1.4,2.5,2.1c0.5,0.5,1.1,1,1.6,1.5c0.3,0.2,0.4,0.6,0.8,0.7c0,0,0,0,0,0.1c-0.1,0-0.1-0.1-0.2-0.1
							c0,0.1,0.1,0.1,0.1,0.2c0.5,0.8,0.9,1.6,1.1,2.5c0.1,0.6,0.2,1.1,0.2,1.7c0,1.1,0,2.2,0,3.3c0,0.2,0,0.4,0.1,0.5
							c0.1,0.3,0.5,0.5,0.9,0.5c0.4,0,0.7-0.3,0.8-0.6 M67.9,117.1C67.9,117.2,68,117.2,67.9,117.1c0.1,0,0.2-0.1,0.2-0.1
							c0.2-0.7,0.3-1.3,0.3-2c0-1.3,0-2.5,0-3.8c0-0.5-0.4-0.9-0.9-0.9c-0.5,0-1,0.4-0.9,1c0,1.1,0,2.1,0,3.2c0,0.6-0.1,1.2-0.2,1.8
							c-0.2,0.9-0.6,1.8-1.1,2.6c-0.5,0.8-1.2,1.4-1.9,2c-0.6,0.5-1.3,1.1-1.9,1.6c-0.1,0.1-0.1,0.1,0,0.2c0.4,0.3,0.8,0.7,1.2,1.1
							c0.1,0.1,0.1,0,0.2,0c0.6-0.5,1.1-1,1.7-1.4c1.3-1.1,2.3-2.3,3-3.8c0.1-0.1,0.2-0.3,0.1-0.5c0-0.1,0-0.3,0.1-0.3
							C67.9,117.6,68,117.4,67.9,117.1z M53.3,131.8c-0.1,0-0.1,0.1-0.1,0.2c0,0.1,0,0.1,0,0.2c0,0.1-0.1,0.2-0.1,0.3
							c-0.1,0.5-0.2,1.1-0.2,1.6c0,1.2,0,2.3,0,3.5c0,0.1,0,0.2,0,0.3c0.1,0.5,0.5,0.7,1,0.7c0.4,0,0.8-0.5,0.8-0.9
							c0-1.1,0-2.1,0-3.2c0-0.6,0.1-1.2,0.2-1.7c0.2-0.9,0.6-1.8,1.1-2.6c0.5-0.8,1.2-1.4,1.9-2c0.6-0.5,1.3-1.1,1.9-1.6
							c0.1-0.1,0.1-0.1,0-0.2c-0.4-0.3-0.8-0.7-1.2-1c-0.1-0.1-0.1-0.1-0.2,0c-0.1,0.1-0.3,0.2-0.4,0.3c-0.8,0.7-1.6,1.3-2.3,2.1
							c-1,1-1.8,2.2-2.3,3.6c0,0.1,0,0.2,0,0.3c0,0,0,0,0,0C53.3,131.5,53.3,131.6,53.3,131.8z M60.6,136.8c1,0,2.1,0,3.1,0
							c0.2,0,0.4-0.2,0.4-0.4c0-0.4,0-0.7,0-1.1c0-0.2-0.2-0.4-0.4-0.4c-2.1,0-4.2,0-6.2,0c-0.3,0-0.4,0.2-0.4,0.4c0,0.3,0,0.7,0,1
							c0,0.3,0.1,0.5,0.5,0.5C58.6,136.8,59.6,136.8,60.6,136.8z M60.6,111.9c-1,0-2.1,0-3.1,0c-0.3,0-0.4,0.2-0.4,0.4
							c0,0.3,0,0.7,0,1c0,0.3,0.2,0.4,0.4,0.4c2.1,0,4.1,0,6.2,0c0.3,0,0.4-0.2,0.4-0.4c0-0.3,0-0.7,0-1c0-0.3-0.2-0.4-0.4-0.4
							C62.7,111.9,61.6,111.9,60.6,111.9z M60.6,116.4c-1,0-1.9,0-2.9,0c-0.1,0-0.2,0-0.3,0c-0.2,0-0.4,0.2-0.4,0.4
							c0,0.2,0,0.4,0.1,0.6c0.3,0.6,0.7,0.9,1.4,0.9c0.6,0,1.1,0,1.7,0c0.8,0,1.5,0,2.3,0c0.8,0,1.3-0.5,1.5-1.2
							c0.1-0.4-0.1-0.6-0.5-0.6C62.6,116.4,61.6,116.4,60.6,116.4z M60.6,132.3c0.7,0,1.4,0,2.2,0c0.3,0,0.6,0,1,0
							c0.3,0,0.4-0.2,0.4-0.4c0-0.2-0.1-0.4-0.1-0.6c-0.3-0.6-0.7-0.9-1.4-0.9c-1.3,0-2.7,0-4,0c-0.2,0-0.3,0-0.5,0.1
							c-0.6,0.2-0.9,0.6-1,1.2c-0.1,0.4,0.1,0.6,0.5,0.6C58.6,132.3,59.6,132.3,60.6,132.3z"/>
						<path class="st5" d="M68.4,136.7c0,0.4,0.1,0.8-0.1,1.2c-0.1,0.3-0.4,0.6-0.8,0.6c-0.4,0-0.7-0.2-0.9-0.5
							c-0.1-0.2-0.1-0.3-0.1-0.5c0-1.1,0-2.2,0-3.3c0-0.6-0.1-1.1-0.2-1.7c-0.2-0.9-0.6-1.7-1.1-2.5c0,0,0-0.1-0.1-0.2
							c0.1,0,0.1,0.1,0.2,0.1c0,0,0-0.1,0-0.1c-0.3-0.2-0.5-0.5-0.8-0.7c-0.5-0.5-1-1-1.6-1.5c-0.8-0.7-1.6-1.4-2.5-2.1
							c-1.2-1-2.4-2-3.6-3c-0.8-0.7-1.6-1.4-2.2-2.2c-0.6-0.9-1.1-1.8-1.5-2.8c-0.3-1-0.5-2-0.4-3.1c0-1,0-2.1,0-3.1
							c0-0.6,0.4-1,1-1c0.5,0,1,0.5,0.9,1.1c0,0-0.1,0-0.1,0c-0.1,0-0.1,0-0.1,0.1c0,0,0,0.1,0,0.1c0.1,0.3,0.2,0.6,0.2,1
							c0,0.7,0,1.3,0,2c0,1.9,0.6,3.6,1.8,5c0.5,0.7,1.2,1.2,1.8,1.7c1,0.9,2,1.7,3,2.6c1.2,1,2.4,2,3.5,3c0.6,0.5,1.1,1,1.5,1.6
							c0,0,0.1,0.1,0.1,0.1c-0.1-0.1-0.2-0.1-0.3,0c-0.1,0.1,0,0.2,0.1,0.3c0.1,0.1,0.2,0.1,0.2,0l0,0c0-0.1,0-0.1,0.1-0.2
							c0.7,0.9,1.1,1.9,1.5,2.9c0.3,1,0.4,2,0.4,3.1 M60.8,124.2c-0.2,0-0.3,0.1-0.3,0.3c0,0,0,0.1,0,0.1c0,0,0.1-0.1,0.1-0.1
							c0-0.1,0-0.2,0.2-0.2C60.8,124.3,60.9,124.3,60.8,124.2C60.9,124.2,60.8,124.2,60.8,124.2z M60.9,124.9c0.2,0,0.3-0.1,0.3-0.3
							c0,0,0,0,0-0.1c0,0-0.1,0-0.1,0.1c0,0.1,0,0.2-0.2,0.2C60.8,124.8,60.8,124.9,60.9,124.9C60.8,124.9,60.9,124.9,60.9,124.9z
							 M65.8,128.9c0,0.1,0.1,0.2,0.1,0.3c0,0,0,0,0,0c-0.1-0.1-0.2-0.1-0.2-0.2c0,0,0,0,0,0c0.1,0.1,0.2,0.2,0.3,0.2c0,0,0,0,0.1,0
							C65.9,129.2,66.1,129,65.8,128.9z M65.4,129.2C65.3,129.2,65.3,129.2,65.4,129.2c0,0.2,0.1,0.3,0.3,0.4c0,0,0,0,0,0
							C65.5,129.4,65.4,129.3,65.4,129.2z M65.2,129.4C65.2,129.5,65.2,129.5,65.2,129.4c0,0.1,0.1,0.2,0.2,0.3c0,0,0,0,0,0
							C65.3,129.6,65.3,129.5,65.2,129.4z"/>
						<path class="st5" d="M67.9,117.1c0.1,0.3,0,0.4-0.2,0.6c-0.1,0.1-0.1,0.2-0.1,0.3c0,0.2-0.1,0.3-0.1,0.5
							c-0.7,1.5-1.7,2.8-3,3.8c-0.6,0.5-1.1,1-1.7,1.4c-0.1,0.1-0.1,0.1-0.2,0c-0.4-0.4-0.8-0.7-1.2-1.1c-0.1-0.1-0.1-0.1,0-0.2
							c0.6-0.5,1.3-1.1,1.9-1.6c0.7-0.6,1.4-1.3,1.9-2c0.5-0.8,0.9-1.7,1.1-2.6c0.1-0.6,0.2-1.2,0.2-1.8c0-1.1,0-2.1,0-3.2
							c0-0.6,0.5-1,0.9-1c0.5,0,0.9,0.4,0.9,0.9c0,1.3,0,2.5,0,3.8c0,0.7-0.1,1.4-0.3,2C68.1,117.1,68,117.1,67.9,117.1
							C68,117.2,67.9,117.2,67.9,117.1z"/>
						<path class="st5" d="M53.3,131.8c0-0.1,0-0.2,0.1-0.3c0,0,0,0,0,0c0-0.1,0-0.2,0-0.3c0.5-1.3,1.2-2.6,2.3-3.6
							c0.7-0.7,1.5-1.4,2.3-2.1c0.1-0.1,0.3-0.2,0.4-0.3c0.1-0.1,0.1-0.1,0.2,0c0.4,0.3,0.8,0.7,1.2,1c0.1,0.1,0.1,0.1,0,0.2
							c-0.6,0.5-1.3,1.1-1.9,1.6c-0.7,0.6-1.4,1.2-1.9,2c-0.5,0.8-0.9,1.7-1.1,2.6c-0.1,0.6-0.2,1.2-0.2,1.7c0,1.1,0,2.1,0,3.2
							c0,0.4-0.4,0.8-0.8,0.9c-0.5,0-0.9-0.2-1-0.7c0-0.1,0-0.2,0-0.3c0-1.2,0-2.3,0-3.5c0-0.5,0.1-1.1,0.2-1.6
							c0-0.1,0.1-0.2,0.1-0.3c0-0.1,0-0.1,0-0.2C53.1,131.8,53.2,131.8,53.3,131.8z"/>
						<path class="st5" d="M60.6,136.8c-1,0-2.1,0-3.1,0c-0.3,0-0.5-0.1-0.5-0.5c0-0.3,0-0.7,0-1c0-0.3,0.2-0.4,0.4-0.4
							c2.1,0,4.2,0,6.2,0c0.2,0,0.4,0.2,0.4,0.4c0,0.4,0,0.7,0,1.1c0,0.2-0.2,0.4-0.4,0.4C62.7,136.8,61.7,136.8,60.6,136.8z"/>
						<path class="st5" d="M60.6,111.9c1,0,2.1,0,3.1,0c0.3,0,0.4,0.1,0.4,0.4c0,0.3,0,0.7,0,1c0,0.3-0.2,0.4-0.4,0.4
							c-2.1,0-4.1,0-6.2,0c-0.3,0-0.4-0.2-0.4-0.4c0-0.3,0-0.7,0-1c0-0.3,0.2-0.4,0.4-0.4C58.5,111.9,59.6,111.9,60.6,111.9z"/>
						<path class="st5" d="M60.6,116.4c1,0,2,0,3,0c0.4,0,0.6,0.2,0.5,0.6c-0.2,0.8-0.7,1.2-1.5,1.2c-0.8,0-1.5,0-2.3,0
							c-0.6,0-1.1,0-1.7,0c-0.6,0-1.1-0.3-1.4-0.9c-0.1-0.2-0.1-0.4-0.1-0.6c0-0.2,0.1-0.4,0.4-0.4c0.1,0,0.2,0,0.3,0
							C58.7,116.4,59.7,116.4,60.6,116.4z"/>
						<path class="st5" d="M60.6,132.3c-1,0-2,0-3,0c-0.4,0-0.6-0.2-0.5-0.6c0.1-0.6,0.5-1,1-1.2c0.1-0.1,0.3-0.1,0.5-0.1
							c1.3,0,2.7,0,4,0c0.6,0,1.1,0.3,1.4,0.9c0.1,0.2,0.1,0.4,0.1,0.6c0,0.3-0.1,0.4-0.4,0.4c-0.3,0-0.6,0-1,0
							C62,132.3,61.3,132.3,60.6,132.3z"/>
						<path class="st5" d="M66.6,128.7c0,0.1,0,0.1-0.1,0.2c0-0.1,0-0.2-0.1-0.3c0,0-0.1,0-0.1,0c0,0,0,0.1,0,0.1
							c0,0.1,0.1,0.2,0.3,0.1c-0.1,0.1-0.2,0.1-0.2,0c-0.1-0.1-0.2-0.2-0.1-0.3C66.3,128.6,66.4,128.6,66.6,128.7
							C66.5,128.7,66.6,128.7,66.6,128.7z"/>
						<path class="st5" d="M60.8,124.2C60.8,124.2,60.9,124.2,60.8,124.2c0,0.1,0,0.1,0,0.1c-0.1,0-0.2,0.1-0.2,0.2
							c0,0,0,0.1-0.1,0.1c0,0,0-0.1,0-0.1C60.5,124.3,60.6,124.2,60.8,124.2z"/>
						<path class="st5" d="M60.9,124.9C60.9,124.9,60.8,124.9,60.9,124.9c0-0.1,0-0.1,0-0.1c0.1,0,0.2-0.1,0.2-0.2c0,0,0,0,0.1-0.1
							c0,0,0,0,0,0.1C61.2,124.8,61.1,124.9,60.9,124.9z"/>
						<path class="st5" d="M65.8,128.9c0.2,0.1,0.1,0.3,0.2,0.4c0,0,0,0-0.1,0c-0.1-0.1-0.2-0.2-0.3-0.2c0,0,0,0,0,0
							c0.1,0.1,0.2,0.1,0.2,0.2c0,0,0,0,0,0C65.9,129.1,65.9,129,65.8,128.9z"/>
						<path class="st5" d="M65.4,129.2c0.1,0.1,0.2,0.3,0.3,0.4c0,0,0,0,0,0C65.5,129.5,65.4,129.3,65.4,129.2
							C65.3,129.2,65.3,129.2,65.4,129.2z"/>
						<path class="st5" d="M65.2,129.4c0.1,0.1,0.1,0.2,0.2,0.3c0,0,0,0,0,0C65.3,129.7,65.2,129.6,65.2,129.4
							C65.2,129.5,65.2,129.5,65.2,129.4z"/>
						<path class="st5" d="M66.5,128.9c-0.1,0.1-0.2,0-0.3-0.1c0,0,0-0.1,0-0.1c0,0,0.1,0,0.1,0C66.5,128.7,66.6,128.8,66.5,128.9
							C66.5,128.9,66.5,128.9,66.5,128.9z"/>
					</g>
				</g>
			</g>
			<g id="SJLbBR.tif_1_">
				<g>
					<g>
						<path class="st5" d="M89.6,134.8c0-1-0.1-2.1-0.4-3.1c-0.3-1.1-0.8-2-1.5-2.9c0,0,0,0-0.1-0.1c0,0-0.1-0.1-0.1-0.1
							c-0.5-0.6-1-1.2-1.5-1.6c-1.2-1-2.4-2-3.5-3c-1-0.9-2-1.7-3-2.6c-0.6-0.5-1.3-1.1-1.8-1.7c-1.2-1.5-1.8-3.1-1.8-5
							c0-0.7,0-1.3,0-2c0-0.3,0-0.7-0.2-1c0,0,0-0.1,0-0.1c0-0.1,0-0.1,0.1-0.1c0,0,0.1,0,0.1,0c0.1-0.7-0.4-1.1-0.9-1.1
							c-0.6,0-1,0.4-1,1c0,1,0,2.1,0,3.1c0,1.1,0.1,2.1,0.4,3.1c0.3,1,0.8,2,1.5,2.8c0.6,0.8,1.4,1.6,2.2,2.2c1.2,1,2.4,2,3.6,3
							c0.8,0.7,1.7,1.4,2.5,2.1c0.5,0.5,1.1,1,1.6,1.5c0.3,0.2,0.4,0.6,0.8,0.7c0,0,0,0,0,0.1c-0.1,0-0.1-0.1-0.2-0.1
							c0,0.1,0.1,0.1,0.1,0.2c0.5,0.8,0.9,1.6,1.1,2.5c0.1,0.6,0.2,1.1,0.2,1.7c0,1.1,0,2.2,0,3.3c0,0.2,0,0.4,0.1,0.5
							c0.1,0.3,0.5,0.5,0.9,0.5c0.4,0,0.7-0.3,0.8-0.6 M89.1,117.2C89.1,117.2,89.1,117.2,89.1,117.2c0.1,0,0.2-0.1,0.2-0.1
							c0.2-0.7,0.3-1.3,0.3-2c0-1.3,0-2.5,0-3.8c0-0.5-0.4-0.9-0.9-0.9c-0.5,0-1,0.4-0.9,1c0,1.1,0,2.1,0,3.2c0,0.6-0.1,1.2-0.2,1.8
							c-0.2,0.9-0.6,1.8-1.1,2.6c-0.5,0.8-1.2,1.4-1.9,2c-0.6,0.5-1.3,1.1-1.9,1.6c-0.1,0.1-0.1,0.1,0,0.2c0.4,0.3,0.8,0.7,1.2,1.1
							c0.1,0.1,0.1,0,0.2,0c0.6-0.5,1.1-1,1.7-1.4c1.3-1.1,2.3-2.3,3-3.8c0.1-0.1,0.2-0.3,0.1-0.5c0-0.1,0-0.3,0.1-0.3
							C89.1,117.6,89.2,117.4,89.1,117.2z M74.5,131.8c-0.1,0-0.1,0.1-0.1,0.2c0,0.1,0,0.1,0,0.2c0,0.1-0.1,0.2-0.1,0.3
							c-0.1,0.5-0.2,1.1-0.2,1.6c0,1.2,0,2.3,0,3.5c0,0.1,0,0.2,0,0.3c0.1,0.5,0.5,0.7,1,0.7c0.4,0,0.8-0.5,0.8-0.9
							c0-1.1,0-2.1,0-3.2c0-0.6,0.1-1.2,0.2-1.7c0.2-0.9,0.6-1.8,1.1-2.6c0.5-0.8,1.2-1.4,1.9-2c0.6-0.5,1.3-1.1,1.9-1.6
							c0.1-0.1,0.1-0.1,0-0.2c-0.4-0.3-0.8-0.7-1.2-1c-0.1-0.1-0.1-0.1-0.2,0c-0.1,0.1-0.3,0.2-0.4,0.3c-0.8,0.7-1.6,1.3-2.3,2.1
							c-1,1-1.8,2.2-2.3,3.6c0,0.1,0,0.2,0,0.3c0,0,0,0,0,0C74.5,131.6,74.5,131.7,74.5,131.8z M81.8,136.9c1,0,2.1,0,3.1,0
							c0.2,0,0.4-0.2,0.4-0.4c0-0.4,0-0.7,0-1.1c0-0.2-0.2-0.4-0.4-0.4c-2.1,0-4.2,0-6.2,0c-0.3,0-0.4,0.2-0.4,0.4c0,0.3,0,0.7,0,1
							c0,0.3,0.1,0.5,0.5,0.5C79.7,136.9,80.8,136.9,81.8,136.9z M81.8,112c-1,0-2.1,0-3.1,0c-0.3,0-0.4,0.2-0.4,0.4
							c0,0.3,0,0.7,0,1c0,0.3,0.2,0.4,0.4,0.4c2.1,0,4.1,0,6.2,0c0.3,0,0.4-0.2,0.4-0.4c0-0.3,0-0.7,0-1c0-0.3-0.2-0.4-0.4-0.4
							C83.8,112,82.8,112,81.8,112z M81.8,116.4c-1,0-1.9,0-2.9,0c-0.1,0-0.2,0-0.3,0c-0.2,0-0.4,0.2-0.4,0.4c0,0.2,0,0.4,0.1,0.6
							c0.3,0.6,0.7,0.9,1.4,0.9c0.6,0,1.1,0,1.7,0c0.8,0,1.5,0,2.3,0c0.8,0,1.3-0.5,1.5-1.2c0.1-0.4-0.1-0.6-0.5-0.6
							C83.8,116.5,82.8,116.4,81.8,116.4z M81.8,132.4c0.7,0,1.4,0,2.2,0c0.3,0,0.6,0,1,0c0.3,0,0.4-0.2,0.4-0.4
							c0-0.2-0.1-0.4-0.1-0.6c-0.3-0.6-0.7-0.9-1.4-0.9c-1.3,0-2.7,0-4,0c-0.2,0-0.3,0-0.5,0.1c-0.6,0.2-0.9,0.6-1,1.2
							c-0.1,0.4,0.1,0.6,0.5,0.6C79.8,132.3,80.8,132.4,81.8,132.4z"/>
						<path class="st5" d="M89.6,136.7c0,0.4,0.1,0.8-0.1,1.2c-0.1,0.3-0.4,0.6-0.8,0.6c-0.4,0-0.7-0.2-0.9-0.5
							c-0.1-0.2-0.1-0.3-0.1-0.5c0-1.1,0-2.2,0-3.3c0-0.6-0.1-1.1-0.2-1.7c-0.2-0.9-0.6-1.7-1.1-2.5c0,0,0-0.1-0.1-0.2
							c0.1,0,0.1,0.1,0.2,0.1c0,0,0-0.1,0-0.1c-0.3-0.2-0.5-0.5-0.8-0.7c-0.5-0.5-1-1-1.6-1.5c-0.8-0.7-1.6-1.4-2.5-2.1
							c-1.2-1-2.4-2-3.6-3c-0.8-0.7-1.6-1.4-2.2-2.2c-0.6-0.9-1.1-1.8-1.5-2.8c-0.3-1-0.5-2-0.4-3.1c0-1,0-2.1,0-3.1
							c0-0.6,0.4-1,1-1c0.5,0,1,0.5,0.9,1.1c0,0-0.1,0-0.1,0c-0.1,0-0.1,0-0.1,0.1c0,0,0,0.1,0,0.1c0.1,0.3,0.2,0.6,0.2,1
							c0,0.7,0,1.3,0,2c0,1.9,0.6,3.6,1.8,5c0.5,0.7,1.2,1.2,1.8,1.7c1,0.9,2,1.7,3,2.6c1.2,1,2.4,2,3.5,3c0.6,0.5,1.1,1,1.5,1.6
							c0,0,0.1,0.1,0.1,0.1c-0.1-0.1-0.2-0.1-0.3,0c-0.1,0.1,0,0.2,0.1,0.3c0.1,0.1,0.2,0.1,0.2,0l0,0c0-0.1,0-0.1,0.1-0.2
							c0.7,0.9,1.1,1.9,1.5,2.9c0.3,1,0.4,2,0.4,3.1 M82,124.3c-0.2,0-0.3,0.1-0.3,0.3c0,0,0,0.1,0,0.1c0,0,0.1-0.1,0.1-0.1
							c0-0.1,0-0.2,0.2-0.2C82,124.4,82,124.3,82,124.3C82,124.3,82,124.3,82,124.3z M82,125c0.2,0,0.3-0.1,0.3-0.3c0,0,0,0,0-0.1
							c0,0-0.1,0-0.1,0.1c0,0.1,0,0.2-0.2,0.2C82,124.9,82,124.9,82,125C82,125,82,125,82,125z M87,128.9c0,0.1,0.1,0.2,0.1,0.3
							c0,0,0,0,0,0c-0.1-0.1-0.2-0.1-0.2-0.2c0,0,0,0,0,0c0.1,0.1,0.2,0.2,0.3,0.2c0,0,0,0,0.1,0C87.1,129.2,87.2,129,87,128.9z
							 M86.5,129.2C86.5,129.2,86.5,129.3,86.5,129.2c0,0.2,0.1,0.3,0.3,0.4c0,0,0,0,0,0C86.7,129.5,86.6,129.3,86.5,129.2z
							 M86.4,129.5C86.3,129.5,86.3,129.5,86.4,129.5c0,0.1,0.1,0.2,0.2,0.3c0,0,0,0,0,0C86.5,129.7,86.4,129.6,86.4,129.5z"/>
						<path class="st5" d="M89.1,117.2c0.1,0.3,0,0.4-0.2,0.6c-0.1,0.1-0.1,0.2-0.1,0.3c0,0.2-0.1,0.3-0.1,0.5
							c-0.7,1.5-1.7,2.8-3,3.8c-0.6,0.5-1.1,1-1.7,1.4c-0.1,0.1-0.1,0.1-0.2,0c-0.4-0.4-0.8-0.7-1.2-1.1c-0.1-0.1-0.1-0.1,0-0.2
							c0.6-0.5,1.3-1.1,1.9-1.6c0.7-0.6,1.4-1.3,1.9-2c0.5-0.8,0.9-1.7,1.1-2.6c0.1-0.6,0.2-1.2,0.2-1.8c0-1.1,0-2.1,0-3.2
							c0-0.6,0.5-1,0.9-1c0.5,0,0.9,0.4,0.9,0.9c0,1.3,0,2.5,0,3.8c0,0.7-0.1,1.4-0.3,2C89.2,117.1,89.2,117.1,89.1,117.2
							C89.1,117.2,89.1,117.2,89.1,117.2z"/>
						<path class="st5" d="M74.5,131.8c0-0.1,0-0.2,0.1-0.3c0,0,0,0,0,0c0-0.1,0-0.2,0-0.3c0.5-1.3,1.2-2.6,2.3-3.6
							c0.7-0.7,1.5-1.4,2.3-2.1c0.1-0.1,0.3-0.2,0.4-0.3c0.1-0.1,0.1-0.1,0.2,0c0.4,0.3,0.8,0.7,1.2,1c0.1,0.1,0.1,0.1,0,0.2
							c-0.6,0.5-1.3,1.1-1.9,1.6c-0.7,0.6-1.4,1.2-1.9,2c-0.5,0.8-0.9,1.7-1.1,2.6c-0.1,0.6-0.2,1.2-0.2,1.7c0,1.1,0,2.1,0,3.2
							c0,0.4-0.4,0.8-0.8,0.9c-0.5,0-0.9-0.2-1-0.7c0-0.1,0-0.2,0-0.3c0-1.2,0-2.3,0-3.5c0-0.5,0.1-1.1,0.2-1.6
							c0-0.1,0.1-0.2,0.1-0.3c0-0.1,0-0.1,0-0.2C74.3,131.9,74.3,131.8,74.5,131.8z"/>
						<path class="st5" d="M81.8,136.9c-1,0-2.1,0-3.1,0c-0.3,0-0.5-0.1-0.5-0.5c0-0.3,0-0.7,0-1c0-0.3,0.2-0.4,0.4-0.4
							c2.1,0,4.2,0,6.2,0c0.2,0,0.4,0.2,0.4,0.4c0,0.4,0,0.7,0,1.1c0,0.2-0.2,0.4-0.4,0.4C83.9,136.9,82.8,136.9,81.8,136.9z"/>
						<path class="st5" d="M81.8,112c1,0,2.1,0,3.1,0c0.3,0,0.4,0.1,0.4,0.4c0,0.3,0,0.7,0,1c0,0.3-0.2,0.4-0.4,0.4
							c-2.1,0-4.1,0-6.2,0c-0.3,0-0.4-0.2-0.4-0.4c0-0.3,0-0.7,0-1c0-0.3,0.2-0.4,0.4-0.4C79.7,112,80.8,112,81.8,112z"/>
						<path class="st5" d="M81.8,116.4c1,0,2,0,3,0c0.4,0,0.6,0.2,0.5,0.6c-0.2,0.8-0.7,1.2-1.5,1.2c-0.8,0-1.5,0-2.3,0
							c-0.6,0-1.1,0-1.7,0c-0.6,0-1.1-0.3-1.4-0.9c-0.1-0.2-0.1-0.4-0.1-0.6c0-0.2,0.1-0.4,0.4-0.4c0.1,0,0.2,0,0.3,0
							C79.9,116.4,80.8,116.4,81.8,116.4z"/>
						<path class="st5" d="M81.8,132.4c-1,0-2,0-3,0c-0.4,0-0.6-0.2-0.5-0.6c0.1-0.6,0.5-1,1-1.2c0.1-0.1,0.3-0.1,0.5-0.1
							c1.3,0,2.7,0,4,0c0.6,0,1.1,0.3,1.4,0.9c0.1,0.2,0.1,0.4,0.1,0.6c0,0.3-0.1,0.4-0.4,0.4c-0.3,0-0.6,0-1,0
							C83.2,132.4,82.5,132.4,81.8,132.4z"/>
						<path class="st5" d="M87.8,128.8c0,0.1,0,0.1-0.1,0.2c0-0.1,0-0.2-0.1-0.3c0,0-0.1,0-0.1,0c0,0,0,0.1,0,0.1
							c0,0.1,0.1,0.2,0.3,0.1c-0.1,0.1-0.2,0.1-0.2,0c-0.1-0.1-0.2-0.2-0.1-0.3C87.5,128.6,87.6,128.6,87.8,128.8
							C87.7,128.7,87.7,128.7,87.8,128.8z"/>
						<path class="st5" d="M82,124.3C82,124.3,82,124.3,82,124.3c0,0.1,0,0.1,0,0.1c-0.1,0-0.2,0.1-0.2,0.2c0,0,0,0.1-0.1,0.1
							c0,0,0-0.1,0-0.1C81.7,124.4,81.8,124.3,82,124.3z"/>
						<path class="st5" d="M82,125C82,125,82,125,82,125c0-0.1,0-0.1,0-0.1c0.1,0,0.2-0.1,0.2-0.2c0,0,0,0,0.1-0.1c0,0,0,0,0,0.1
							C82.3,124.9,82.2,125,82,125z"/>
						<path class="st5" d="M87,128.9c0.2,0.1,0.1,0.3,0.2,0.4c0,0,0,0-0.1,0c-0.1-0.1-0.2-0.2-0.3-0.2c0,0,0,0,0,0
							c0.1,0.1,0.2,0.1,0.2,0.2c0,0,0,0,0,0C87.1,129.2,87.1,129.1,87,128.9z"/>
						<path class="st5" d="M86.5,129.2c0.1,0.1,0.2,0.3,0.3,0.4c0,0,0,0,0,0C86.7,129.5,86.6,129.4,86.5,129.2
							C86.5,129.3,86.5,129.2,86.5,129.2z"/>
						<path class="st5" d="M86.4,129.5c0.1,0.1,0.1,0.2,0.2,0.3c0,0,0,0,0,0C86.5,129.7,86.4,129.6,86.4,129.5
							C86.3,129.5,86.3,129.5,86.4,129.5z"/>
						<path class="st5" d="M87.7,129c-0.1,0.1-0.2,0-0.3-0.1c0,0,0-0.1,0-0.1c0,0,0.1,0,0.1,0C87.7,128.8,87.7,128.9,87.7,129
							C87.7,129,87.7,129,87.7,129z"/>
					</g>
				</g>
			</g>
		</g>
	</g>
	<g>
		<path class="st6" d="M155.1,138.8h-42.4c-1.7,0-3-1.4-3-3v-33.9c0-1.6,1.3-3,3-3h42.4c1.7,0,3,1.4,3,3v33.9
			C158.1,137.5,156.7,138.8,155.1,138.8z"/>
		<g>
			<rect x="119.2" y="106" class="st1" width="3.2" height="3.2"/>
			<rect x="127.9" y="106" class="st1" width="22.9" height="3.2"/>
			
				<rect x="147.6" y="128.5" transform="matrix(-1 -1.224647e-16 1.224647e-16 -1 298.3365 260.1578)" class="st1" width="3.2" height="3.2"/>
			
				<rect x="119.2" y="128.5" transform="matrix(-1 -1.224647e-16 1.224647e-16 -1 261.2242 260.2701)" class="st1" width="22.9" height="3.2"/>
			<rect x="119.2" y="113.3" class="st1" width="31.6" height="3.2"/>
			<rect x="119.2" y="120.9" class="st1" width="31.6" height="3.2"/>
		</g>
	</g>
	<g>
		<path class="st6" d="M125.7,169h-17.1c-1.6,0-3-1.4-3-3v-17.1c0-1.7,1.4-3,3-3h17.1c1.7,0,3,1.3,3,3V166
			C128.7,167.6,127.4,169,125.7,169z"/>
		<rect x="112.4" y="152.6" class="st1" width="10.7" height="3.2"/>
		<rect x="112.4" y="159.2" class="st1" width="10.7" height="3.2"/>
	</g>
	<g>
		<path class="st3" d="M141.3,44.2h-17.1c-1.7,0-3-1.4-3-3V32c0-1.6,1.3-3,3-3h17.1c1.7,0,3,1.4,3,3v9.2
			C144.3,42.9,142.9,44.2,141.3,44.2z"/>
		<rect x="125.2" y="35.4" class="st1" width="15.5" height="3.2"/>
	</g>
</g>
</svg>
