<?xml version="1.0" encoding="utf-8"?>
<!-- Generator: Adobe Illustrator 22.1.0, SVG Export Plug-In . SVG Version: 6.00 Build 0)  -->
<svg version="1.1" id="Calque_1" xmlns="http://www.w3.org/2000/svg" xmlns:xlink="http://www.w3.org/1999/xlink" x="0px" y="0px"
	 viewBox="0 0 200 200" style="enable-background:new 0 0 200 200;" xml:space="preserve">
<style type="text/css">
	.st0{fill:#05B8EE;stroke:#000000;stroke-width:1.5;stroke-miterlimit:10;}
	.st1{fill:#FFFFFF;stroke:#000000;stroke-width:1.5;stroke-miterlimit:10;}
	.st2{fill:#F4B940;}
	.st3{fill:#3283C8;}
	.st4{fill:#AD91FF;}
	.st5{fill:none;stroke:#000000;stroke-miterlimit:10;}
	.st6{fill:#FFFFFF;stroke:#000000;stroke-miterlimit:10;}
	.st7{fill:none;stroke:#000000;stroke-width:0.75;stroke-miterlimit:10;}
</style>
<g>
	<g>
		<path class="st0" d="M160,137.3H56.4c-1.6,0-3-1.4-3-3V59.7c0-1.7,1.4-3,3-3H160c1.7,0,3,1.3,3,3v74.5
			C163,135.9,161.6,137.3,160,137.3z"/>
		<path class="st1" d="M53.4,69.4v-9.7c0-1.7,1.4-3,3-3H160c1.7,0,3,1.3,3,3v9.7H53.4z"/>
		<g>
			<circle cx="59.8" cy="63.1" r="1.2"/>
			<circle cx="65.7" cy="63.1" r="1.2"/>
			<circle cx="71.6" cy="63.1" r="1.2"/>
		</g>
	</g>
	<path class="st2" d="M142.6,121.7c0-3.6,2.9-6.5,6.5-6.5c3.6,0,6.5,2.9,6.5,6.5"/>
	<g>
		<g>
			<g>
				<path class="st3" d="M115.3,118.9H77.4c-1.7,0-3-1.3-3-3V94.5c0-1.6,1.3-3,3-3h37.9c1.7,0,3,1.4,3,3v21.4
					C118.3,117.5,117,118.9,115.3,118.9z"/>
			</g>
		</g>
	</g>
	<path class="st2" d="M142.6,129.1c0-3.6,2.9-6.5,6.5-6.5c3.6,0,6.5,2.9,6.5,6.5"/>
	<path class="st2" d="M142.6,106.8c0-3.6,2.9-6.5,6.5-6.5c3.6,0,6.5,2.9,6.5,6.5"/>
	<path class="st2" d="M142.6,114.2c0-3.6,2.9-6.5,6.5-6.5c3.6,0,6.5,2.9,6.5,6.5"/>
	<path class="st4" d="M151.2,93.1H131c-1.6,0-3-1.3-3-3V79.7c0-1.7,1.4-3,3-3h20.2c1.6,0,3,1.3,3,3v10.4
		C154.2,91.7,152.9,93.1,151.2,93.1z"/>
	<g>
		<line class="st5" x1="67.5" y1="99.1" x2="79.7" y2="86.8"/>
		
			<rect x="78.6" y="84.6" transform="matrix(0.7071 -0.7071 0.7071 0.7071 -37.4857 82.0259)" class="st6" width="3.3" height="3.3"/>
		
			<rect x="65.8" y="97.4" transform="matrix(0.7071 -0.7071 0.7071 0.7071 -50.2759 76.728)" class="st6" width="3.3" height="3.3"/>
	</g>
	<g>
		<line class="st5" x1="111.4" y1="124" x2="123.6" y2="111.8"/>
		
			<rect x="122.5" y="109.6" transform="matrix(0.7071 -0.7071 0.7071 0.7071 -42.2984 120.3781)" class="st6" width="3.3" height="3.3"/>
		
			<rect x="109.7" y="122.4" transform="matrix(0.7071 -0.7071 0.7071 0.7071 -55.0885 115.0802)" class="st6" width="3.3" height="3.3"/>
	</g>
	<g>
		<line class="st5" x1="82.2" y1="126.1" x2="70" y2="113.8"/>
		
			<rect x="67.8" y="111.6" transform="matrix(-0.7071 -0.7071 0.7071 -0.7071 38.4606 242.5137)" class="st6" width="3.3" height="3.3"/>
		
			<rect x="80.6" y="124.4" transform="matrix(-0.7071 -0.7071 0.7071 -0.7071 51.2508 273.3918)" class="st6" width="3.3" height="3.3"/>
	</g>
	<g>
		<line class="st5" x1="125.2" y1="98.2" x2="113" y2="85.9"/>
		
			<rect x="110.8" y="83.8" transform="matrix(-0.7071 -0.7071 0.7071 -0.7071 131.5619 225.2997)" class="st6" width="3.3" height="3.3"/>
		
			<rect x="123.6" y="96.5" transform="matrix(-0.7071 -0.7071 0.7071 -0.7071 144.352 256.1778)" class="st6" width="3.3" height="3.3"/>
	</g>
	<g>
		<g>
			<path class="st1" d="M25.6,82.9c-1.1,0-1.9,1-1.9,2.2v40c0,1.2,0.9,2.2,1.9,2.2h42.9c1.1,0,1.9-1,1.9-2.2L25.6,82.9z M45,116
				H34.1c-0.3,0-0.5-0.3-0.5-0.6v-10.2c0-0.3,0.2-0.6,0.5-0.6l11.4,10.8C45.5,115.7,45.3,116,45,116z"/>
		</g>
		<g>
			<line class="st7" x1="23.6" y1="86.5" x2="26.3" y2="86.5"/>
			<line class="st7" x1="23.6" y1="93.8" x2="26.3" y2="93.8"/>
			<line class="st7" x1="23.6" y1="90.2" x2="26.3" y2="90.2"/>
			<line class="st7" x1="23.6" y1="97.5" x2="26.3" y2="97.5"/>
			<line class="st7" x1="23.6" y1="101.2" x2="26.3" y2="101.2"/>
			<line class="st7" x1="23.6" y1="108.6" x2="26.3" y2="108.6"/>
			<line class="st7" x1="23.6" y1="104.9" x2="26.3" y2="104.9"/>
			<line class="st7" x1="23.6" y1="112.3" x2="26.3" y2="112.3"/>
			<line class="st7" x1="23.6" y1="119.7" x2="26.3" y2="119.7"/>
			<line class="st7" x1="23.6" y1="116" x2="26.3" y2="116"/>
			<line class="st7" x1="23.6" y1="123.4" x2="26.3" y2="123.4"/>
		</g>
	</g>
</g>
</svg>
