<?xml version="1.0" encoding="utf-8"?>
<!-- Generator: Adobe Illustrator 22.1.0, SVG Export Plug-In . SVG Version: 6.00 Build 0)  -->
<svg version="1.1" id="Calque_1" xmlns="http://www.w3.org/2000/svg" xmlns:xlink="http://www.w3.org/1999/xlink" x="0px" y="0px"
	 viewBox="0 0 200 200" style="enable-background:new 0 0 200 200;" xml:space="preserve">
<style type="text/css">
	.st0{fill:#3283C8;}
</style>
<g id="y0NT9C.tif">
	<g>
		<g>
			<path class="st0" d="M148.4,152.3c-34.6,0-69,0-103.5,0c0-2.1,0-4.1,0-6.1c0-0.2,0.6-0.5,0.9-0.5c3.8,0,7.6,0,11.4,0
				c29.8,0,59.6,0,89.3,0c2.2,0,1.8-0.1,1.8,1.8C148.4,149.1,148.4,150.7,148.4,152.3z"/>
			<path class="st0" d="M142.6,138c0,1.9,0,3.7,0,5.6c-30.6,0-61.2,0-91.9,0c0-1.8,0-3.7,0-5.6C81.3,138,111.9,138,142.6,138z"/>
			<g>
				<path class="st0" d="M56.4,133.6c0,0.7,0,1.5,0,2.2c26.9,0,53.6,0,80.4,0c0-1.5,0-3,0-4.5c-26.8,0-53.5,0-80.4,0
					C56.4,132.1,56.4,132.8,56.4,133.6z"/>
				<path class="st0" d="M50.7,143.6c30.7,0,61.3,0,91.9,0c0-1.9,0-3.7,0-5.6c-30.7,0-61.3,0-91.9,0
					C50.7,139.9,50.7,141.7,50.7,143.6z"/>
				<path class="st0" d="M146.5,145.7c-29.8,0-59.6,0-89.3,0c-3.8,0-7.6,0-11.4,0c-0.3,0-0.9,0.3-0.9,0.5c-0.1,2,0,4,0,6.1
					c34.5,0,68.9,0,103.5,0c0-1.6,0-3.2,0-4.8C148.3,145.5,148.7,145.7,146.5,145.7z"/>
				<path class="st0" d="M59.1,72.1c0,2.2,0,4.3,0,6.4c0.3,0,0.5,0.1,0.7,0.1c1-0.2,1.4,0.3,1.7,1.1c0.4,1,0.9,2,1.4,2.9
					c0.2,0.3,0.7,0.7,1.1,0.7c3.2,0.1,6.4,0,9.5,0c0.7,0,1-0.2,1.3-0.8c0.5-1.1,1-2.2,1.6-3.3c0.2-0.3,0.7-0.6,1-0.6
					c3.5,0,6.9,0,10.4,0c0.4,0,0.8,0.3,1,0.7c0.6,1.1,1.1,2.2,1.6,3.3c0.2,0.6,0.6,0.8,1.2,0.8c3.2,0,6.4,0,9.6,0
					c0.7,0,1-0.2,1.2-0.8c0.5-1.1,0.9-2.2,1.5-3.2c0.2-0.3,0.7-0.7,1.1-0.7c3.5-0.1,6.9,0,10.4,0c0.4,0,0.9,0.3,1,0.6
					c0.6,1.1,1.1,2.2,1.6,3.3c0.3,0.6,0.7,0.8,1.3,0.8c2.4,0,4.9-0.2,7.3,0c2.4,0.2,3.8-0.5,4.4-2.8c0.3-1.3,1-2.3,2.7-2.1
					c0,0,0.1-0.1,0.2-0.2c0-1.9,0-4,0-6.1c2.4,1,4.7,1.8,7.1,2.8c0.9-2.7,1.7-5.2,2.6-7.7c0.2-0.7,0.1-0.9-0.6-1.2
					c-15.3-6.1-30.6-12.2-45.9-18.3c-0.4-0.2-1.1-0.2-1.5,0C80.6,53.9,65.3,60,50.1,66.1c-0.3,0.1-0.5,0.3-0.9,0.4
					c0.9,2.8,1.9,5.6,2.8,8.4C54.4,74,56.7,73.1,59.1,72.1z M68.4,68.4l27.3-10.9c0.5-0.2,1.2-0.2,1.7,0c9.1,3.6,18.3,7.3,27.4,10.9
					c0.3,0.1,0.6,0.3,0.9,0.4c0,0.1,0,0.1-0.1,0.2c-19.4,0-38.7,0-58.1,0c0-0.1,0-0.1-0.1-0.2C67.8,68.7,68.1,68.5,68.4,68.4z"/>
				<g>
					<path class="st0" d="M133.4,125.2c-1.4-0.3-2-1.1-2.1-2.4c-0.1-1.4-0.1-2.9-0.2-4.3c-0.4-8.1-0.8-16.1-1.2-24.2
						c-0.1-2.7-0.3-5.5-0.4-8.2c-3.5,0-6.8,0-10.1,0c0,0.2-0.1,0.3-0.1,0.4c-0.4,7.3-0.7,14.7-1.1,22c-0.2,4.7-0.4,9.4-0.7,14.1
						c-0.1,1.1-0.4,2.2-1.8,2.4c-0.2,0-0.4,0.3-0.5,0.5c-0.1,1.1-0.2,2.2-0.3,3.4c6.4,0,12.7,0,19,0
						C133.7,127.7,133.5,126.5,133.4,125.2z M121.2,90c0.1-1,0.6-1.6,1.4-1.6c0.8,0,1.4,0.7,1.4,1.7c0,0.3-0.1,0.6-0.1,1
						c0,0.3,0,0.6,0,0.7c-0.4,8.4-0.8,16.5-1.2,24.6c-0.1,1.8-0.2,3.6-0.3,5.3c-0.1,1.1-0.6,1.6-1.4,1.6c-0.9,0-1.3-0.6-1.3-1.7"/>
					<path class="st0" d="M77.7,125.1c-1.4-0.3-1.7-1.4-1.8-2.5c-0.5-9.4-0.9-18.9-1.4-28.3c-0.1-2.7-0.3-5.4-0.5-8.2
						c-3.4,0-6.7,0-10.1,0c0,0.3-0.1,0.6-0.1,0.9c-0.3,6.8-0.7,13.5-1,20.3c-0.3,5.1-0.5,10.1-0.8,15.2c-0.1,1.4-0.5,2.6-2.2,2.8
						c-0.1,1.3-0.3,2.5-0.4,3.8c6.4,0,12.6,0,19,0c-0.1-1.2-0.2-2.3-0.4-3.4C78.1,125.4,77.8,125.2,77.7,125.1z M68.6,90.2
						c-0.1,2.7-0.2,5.3-0.4,8c0,0,0,0,0,0c-0.3,6.3-0.6,12.5-0.9,18.8c-0.1,1.6-0.1,3.2-0.2,4.8c-0.1,1-0.7,1.6-1.5,1.5
						c-0.8-0.1-1.3-0.7-1.2-1.7c0.4-7.6,0.8-15.3,1.2-22.9c0.1-2.9,0.3-5.8,0.4-8.8c0.1-1.1,0.6-1.7,1.4-1.6
						C68.2,88.4,68.6,89.1,68.6,90.2z"/>
					<path class="st0" d="M105.5,125.2c-1.7-0.4-1.9-1.7-2-3.1c-0.1-1.6-0.2-3.2-0.2-4.8c-0.4-8-0.8-16-1.1-24
						c-0.1-2.4-0.3-4.8-0.4-7.3c-3,0-6,0-8.9,0c-0.4,0-0.8,0-1.2,0c0,0.3-0.1,0.4-0.1,0.5c-0.4,7.2-0.7,14.4-1.1,21.6
						c-0.2,4.8-0.4,9.6-0.7,14.3c-0.1,1.2-0.4,2.3-1.8,2.6c-0.2,0-0.4,0.3-0.4,0.4c-0.1,1.1-0.3,2.3-0.4,3.5c6.4,0,12.7,0,19,0
						c-0.1-1.2-0.2-2.3-0.4-3.4C105.7,125.5,105.6,125.2,105.5,125.2z M96.3,90.1c-0.2,5.4-0.5,10.8-0.8,16.3
						c-0.2,5.1-0.5,10.1-0.8,15.2c0,0.5-0.3,1.2-0.7,1.6c-0.3,0.2-1.1,0.2-1.3,0c-0.4-0.3-0.7-0.9-0.7-1.4c0.1-2.8,0.2-5.6,0.4-8.4
						c0.1-2.5,0.3-5,0.4-7.5c0,0,0,0,0,0c0.3-5.2,0.5-10.5,0.8-15.7c0.1-1.1,0.6-1.7,1.4-1.7C95.8,88.4,96.3,89,96.3,90.1z"/>
				</g>
			</g>
			<path class="st0" d="M136.8,131.3c0,1.5,0,3,0,4.5c-26.8,0-53.5,0-80.4,0c0-0.7,0-1.5,0-2.2c0-0.7,0-1.5,0-2.3
				C83.2,131.3,110,131.3,136.8,131.3z"/>
		</g>
	</g>
</g>
</svg>
