<?xml version="1.0" encoding="utf-8"?>
<!-- Generator: Adobe Illustrator 22.1.0, SVG Export Plug-In . SVG Version: 6.00 Build 0)  -->
<svg version="1.1" id="Calque_1" xmlns="http://www.w3.org/2000/svg" xmlns:xlink="http://www.w3.org/1999/xlink" x="0px" y="0px"
	 viewBox="0 0 200 200" style="enable-background:new 0 0 200 200;" xml:space="preserve">
<style type="text/css">
	.st0{fill:none;stroke:#05B8EE;stroke-width:2;stroke-miterlimit:10;}
	.st1{fill:#FFFFFF;stroke:#000000;stroke-width:1.5;stroke-linecap:round;stroke-linejoin:round;stroke-miterlimit:10;}
	.st2{fill:#3283C8;stroke:#000000;stroke-width:1.5;stroke-miterlimit:10;}
	.st3{fill:#FFFFFF;}
	.st4{fill:#05B8EE;}
	.st5{fill:none;stroke:#000000;stroke-width:1.5;stroke-miterlimit:10;}
	.st6{fill:#7EC500;}
</style>
<g>
	<g>
		<path class="st0" d="M101.6,95.6h31.6c0.7,0,1.2-0.9,1.2-2V71.5"/>
	</g>
	<g>
		<path class="st0" d="M118.7,95.6H66.8c-1.1,0-2-0.9-2-2V71.5"/>
	</g>
	<path class="st1" d="M61.5,102.6L52,91c-1.2-1.2-1.1-1.2-2.3,0l-9.5,11.6h6.7v28.5h8v-28.5H61.5z"/>
	<path class="st1" d="M159.9,102.6L150.4,91c-1.2-1.2-1.1-1.2-2.3,0l-9.5,11.6h6.7v28.5h8v-28.5H159.9z"/>
	<path class="st1" d="M110.2,139.4l-9.5-11.6c-1.2-1.2-1.1-1.2-2.3,0l-9.5,11.6h6.7v19.1h8v-19.1H110.2z"/>
	<path class="st2" d="M125.3,119.6H73.8c-1.7,0-3-1.3-3-3V90.2c0-1.7,1.3-3,3-3h51.5c1.6,0,3,1.3,3,3v26.4
		C128.3,118.3,126.9,119.6,125.3,119.6z"/>
	<rect x="81.5" y="95.6" class="st3" width="36.2" height="15.6"/>
	<g>
		<g>
			<g>
				<rect x="90" y="101.6" width="3.7" height="3.7"/>
			</g>
			<g>
				<rect x="97.7" y="101.6" width="3.7" height="3.7"/>
			</g>
			<g>
				<rect x="105.4" y="101.6" width="3.7" height="3.7"/>
			</g>
		</g>
	</g>
	<g>
		<g>
			<g>
				<path class="st4" d="M81.1,79h-46c-1.7,0-3-1.3-3-3V52.7c0-1.7,1.3-3,3-3h46c1.7,0,3,1.3,3,3V76C84.1,77.7,82.8,79,81.1,79z"/>
				<path class="st5" d="M81.1,79h-46c-1.7,0-3-1.3-3-3V52.7c0-1.7,1.3-3,3-3h46c1.7,0,3,1.3,3,3V76C84.1,77.7,82.8,79,81.1,79z"/>
			</g>
		</g>
	</g>
	<rect x="41.7" y="57.3" class="st3" width="32.7" height="14.2"/>
	<g>
		<g>
			<g>
				<rect x="48.6" y="62.5" width="3.7" height="3.7"/>
			</g>
			<g>
				<rect x="56.2" y="62.5" width="3.7" height="3.7"/>
			</g>
			<g>
				<rect x="63.9" y="62.5" width="3.7" height="3.7"/>
			</g>
		</g>
	</g>
	<g>
		<g>
			<g>
				<g>
					<path class="st6" d="M165.4,79h-46c-1.7,0-3-1.3-3-3V52.7c0-1.7,1.3-3,3-3h46c1.6,0,3,1.3,3,3V76C168.4,77.7,167.1,79,165.4,79
						z"/>
					<path class="st5" d="M165.4,79h-46c-1.7,0-3-1.3-3-3V52.7c0-1.7,1.3-3,3-3h46c1.6,0,3,1.3,3,3V76C168.4,77.7,167.1,79,165.4,79
						z"/>
				</g>
			</g>
		</g>
		<rect x="126" y="57.3" class="st3" width="32.7" height="14.2"/>
		<g>
			<rect x="132.8" y="62.5" transform="matrix(-1 -1.224647e-16 1.224647e-16 -1 269.4415 128.7005)" width="3.7" height="3.7"/>
			<rect x="140.5" y="62.5" transform="matrix(-1 -1.224647e-16 1.224647e-16 -1 284.8057 128.7005)" width="3.7" height="3.7"/>
			<rect x="148.2" y="62.5" transform="matrix(-1 -1.224647e-16 1.224647e-16 -1 300.1699 128.7005)" width="3.7" height="3.7"/>
		</g>
	</g>
	<g>
		<g>
			<g>
				<rect x="36.1" y="113.1" width="3.7" height="3.7"/>
			</g>
			<g>
				<rect x="36.1" y="120.8" width="3.7" height="3.7"/>
			</g>
			<g>
				<rect x="36.1" y="128.5" width="3.7" height="3.7"/>
			</g>
		</g>
	</g>
	<g>
		<g>
			<g>
				<rect x="160.1" y="113.1" width="3.7" height="3.7"/>
			</g>
			<g>
				<rect x="160.1" y="120.8" width="3.7" height="3.7"/>
			</g>
			<g>
				<rect x="160.1" y="128.5" width="3.7" height="3.7"/>
			</g>
		</g>
	</g>
	<g>
		<g>
			<g>
				<rect x="97.7" y="49.3" width="3.7" height="3.7"/>
			</g>
			<g>
				<rect x="97.7" y="57" width="3.7" height="3.7"/>
			</g>
			<g>
				<rect x="97.7" y="64.7" width="3.7" height="3.7"/>
			</g>
		</g>
	</g>
</g>
</svg>
