<?xml version="1.0" encoding="utf-8"?>
<!-- Generator: Adobe Illustrator 22.1.0, SVG Export Plug-In . SVG Version: 6.00 Build 0)  -->
<svg version="1.1" id="Calque_1" xmlns="http://www.w3.org/2000/svg" xmlns:xlink="http://www.w3.org/1999/xlink" x="0px" y="0px"
	 viewBox="0 0 200 200" style="enable-background:new 0 0 200 200;" xml:space="preserve">
<style type="text/css">
	.st0{fill:#FFFFFF;}
	.st1{fill:#3283C8;}
</style>
<g id="uNbKVX.tif">
	<g>
		<g>
			<path class="st0" d="M69.9,49.1C58,61.6,46.2,74,35,85.8c5,5.2,10.6,11.2,16.4,17.2c1.1-1,2.2-2,3.4-3.1
				c4.2,5.7,8.3,11.3,12.4,16.9c-5.8,7.5-5.3,10.4,2.3,13.3c-0.2,5.6,0.9,6.9,6.7,7.9c0.8,5.4,2,6.5,7.7,7c0.3,0.8,0.4,1.7,0.8,2.5
				c1.9,4.4,6.7,5.4,10.1,2c0.6-0.6,1.2-1.4,1.9-1.8c0.6-0.4,1.6-0.7,2.3-0.5c5.9,2,8.8,0.8,11.5-5c4.3,0.6,7.8-0.5,9.2-5.3
				c0.1-0.4,1.3-0.6,2-0.7c3.9-0.5,5.4-1.8,6.6-5.4c0.3-0.9,1.4-1.7,2.3-2c3.9-1.3,5.9-4,5-7.9c-0.5-2.2-2-4.2-3.3-6.8
				c2.8-4.3,6-9.1,9.4-14.2c-8.9-8.7-18-17.6-27.5-26.8c-1.8,3.6-4.6,3.5-7.6,3.2c-3.4-0.4-7.1-1-10.4-0.3c-5.4,1.2-8.9-1-12.2-4.9
				c1.3-1.4,2.6-2.8,3.5-3.7C81.6,61.3,76,55.4,69.9,49.1z"/>
			<path class="st1" d="M166,84.3c-5.4,5.2-10.9,10.4-16.7,16C138,88.4,126.7,76.6,115.7,65c4.4-4.5,9.6-9.9,15-15.5
				c6.7,6.6,13.4,13.2,20.1,19.7c5,4.9,10.1,9.7,15.2,14.6C166,83.9,166,84.1,166,84.3z"/>
			<path class="st1" d="M69.9,49.1c6.1,6.3,11.7,12.2,17.6,18.3c-0.9,0.9-2.1,2.3-3.5,3.7c3.3,3.9,6.8,6.1,12.2,4.9
				c3.3-0.7,6.9-0.1,10.4,0.3c3.1,0.3,5.8,0.4,7.6-3.2c9.4,9.2,18.6,18.1,27.5,26.8c-3.4,5.1-6.6,9.9-9.4,14.2
				c1.3,2.6,2.8,4.6,3.3,6.8c0.9,3.9-1.1,6.6-5,7.9c-0.9,0.3-2,1.2-2.3,2c-1.2,3.6-2.7,4.9-6.6,5.4c-0.7,0.1-1.9,0.3-2,0.7
				c-1.4,4.7-4.9,5.9-9.2,5.3c-2.6,5.8-5.5,7-11.5,5c-0.6-0.2-1.6,0.1-2.3,0.5c-0.8,0.4-1.3,1.2-1.9,1.8c-3.5,3.3-8.2,2.4-10.1-2
				c-0.3-0.8-0.5-1.7-0.8-2.5c-5.7-0.5-6.9-1.6-7.7-7c-5.9-1-7-2.2-6.7-7.9c-7.6-2.9-8.1-5.8-2.3-13.3c-4.1-5.6-8.2-11.2-12.4-16.9
				c-1.2,1.1-2.3,2.1-3.4,3.1C45.6,96.9,40,91,35,85.8C46.2,74,58,61.6,69.9,49.1z M58.2,97.7c3.2,4.4,6.6,9.3,10.3,14.2
				c0.7,0.9,2.1,2.1,3,2c4.4-0.4,6.6,1.9,8,5.5c7-1.8,9.8,0.6,9,7.5c5.5,2.3,6.1,3.3,5.5,9.1c3.8,1.7,3.8,1.7,5.8,6.1
				c0.8,1.9,3.3,2.8,5,1.6c1.7-1.2,1.9-3,0.7-4.7c-0.9-1.2-2-2.2-3.1-3.2c-1.1-1.1-2.5-2.2-1.1-3.7c1.4-1.5,2.7-0.3,3.8,0.8
				c1.5,1.4,2.9,3.1,4.5,4.3c1.7,1.2,3.8,1.8,5.4,0c1.6-1.9,0.4-3.4-1.1-4.9c-2.2-2.1-4.5-4.2-6.5-6.6c-0.6-0.7-0.4-2.1-0.6-3.3
				c1.1,0.2,2.6,0,3.3,0.6c2.8,2.4,5.3,5.1,7.9,7.7c1.7,1.7,4.5,2,5.6,0.5c1.5-2,0.7-3.6-0.9-5.2c-2.8-2.7-5.6-5.4-8.2-8.3
				c-0.5-0.6-0.3-1.9-0.5-2.8c1.1,0,2.2-0.1,3.2,0.1c0.6,0.1,1,0.9,1.5,1.4c2.1,2.1,4.2,4.3,6.3,6.3c2.2,2.2,4.8,2.7,6,1.1
				c1.7-2.3,0.4-4.1-1.2-5.7c-0.1-0.1-0.1-0.1-0.2-0.2c-6.1-5.9-12.2-11.7-18.2-17.6c-3.6-3.5-7.3-7-10.6-10.1
				c-4.1,3.9-7.9,7.4-11.7,11.1c-2,2-4.2,2.3-6.8,1.6c-4.5-1.3-8.3-7.8-3.1-12.5c3.7-3.3,7.2-7,10.5-10.2c-3.1-2.1-6-4.1-9.1-6.2
				C73.4,81.7,66,89.5,58.2,97.7z M52.3,81.6c-0.4,0-0.9-0.1-1.3-0.1c-1,1.2-2.6,2.3-3,3.6c-0.6,2.2,0.9,3.6,3.1,3.8
				c2.2,0.2,3.9-1.1,3.7-3.3C54.7,84.3,53.2,82.9,52.3,81.6z"/>
			<path class="st0" d="M58.2,97.7c7.8-8.1,15.1-15.9,22.3-23.5c3.1,2.1,6,4.1,9.1,6.2c-3.3,3.2-6.7,6.9-10.5,10.2
				c-5.3,4.6-1.4,11.2,3.1,12.5c2.6,0.8,4.8,0.4,6.8-1.6c3.7-3.7,7.6-7.3,11.7-11.1c3.3,3.2,7,6.6,10.6,10.1
				c6.1,5.9,12.2,11.7,18.2,17.6c0.1,0.1,0.1,0.1,0.2,0.2c1.7,1.6,2.9,3.5,1.2,5.7c-1.2,1.6-3.7,1-6-1.1c-2.1-2.1-4.2-4.2-6.3-6.3
				c-0.5-0.5-0.9-1.3-1.5-1.4c-1-0.2-2.1-0.1-3.2-0.1c0.1,1-0.1,2.2,0.5,2.8c2.6,2.9,5.4,5.6,8.2,8.3c1.6,1.6,2.5,3.2,0.9,5.2
				c-1.1,1.4-3.9,1.1-5.6-0.5c-2.6-2.6-5.2-5.3-7.9-7.7c-0.7-0.6-2.2-0.4-3.3-0.6c0.2,1.1,0,2.5,0.6,3.3c2,2.3,4.3,4.4,6.5,6.6
				c1.5,1.4,2.7,3,1.1,4.9c-1.6,1.8-3.7,1.2-5.4,0c-1.7-1.2-3-2.9-4.5-4.3c-1.1-1-2.4-2.3-3.8-0.8c-1.4,1.5,0,2.7,1.1,3.7
				c1.1,1,2.2,2,3.1,3.2c1.2,1.7,1,3.5-0.7,4.7c-1.6,1.2-4.1,0.3-5-1.6c-2-4.4-2-4.4-5.8-6.1c0.6-5.8,0-6.9-5.5-9.1
				c0.8-6.9-2-9.3-9-7.5c-1.3-3.6-3.6-5.9-8-5.5c-0.9,0.1-2.3-1.1-3-2C64.9,107,61.4,102,58.2,97.7z"/>
			<path class="st0" d="M52.3,81.6c0.9,1.4,2.3,2.7,2.5,4.1c0.2,2.1-1.5,3.5-3.7,3.3c-2.2-0.2-3.7-1.7-3.1-3.8c0.4-1.4,2-2.4,3-3.6
				C51.4,81.5,51.9,81.5,52.3,81.6z"/>
		</g>
	</g>
</g>
</svg>
