<?xml version="1.0" encoding="UTF-8"?>
<svg width="146px" height="36px" viewBox="0 0 146 36" version="1.1" xmlns="http://www.w3.org/2000/svg" xmlns:xlink="http://www.w3.org/1999/xlink">
    <!-- Generator: Sketch 51.2 (57519) - http://www.bohemiancoding.com/sketch -->
    <title>gen3logo-white</title>
    <desc>Created with Sketch.</desc>
    <defs>
        <polygon id="path-1" points="0.0201025641 0.664042328 21.4835784 0.664042328 21.4835784 34.8377121 0.0201025641 34.8377121"></polygon>
        <polygon id="path-3" points="0 0.35668783 5.86300854 0.35668783 5.86300854 8.46144974 0 8.46144974"></polygon>
        <polygon id="path-5" points="0.574279202 0.528962963 6.28197152 0.528962963 6.28197152 7.04761905 0.574279202 7.04761905"></polygon>
        <polygon id="path-7" points="0.486210827 0.528962963 6.19390313 0.528962963 6.19390313 7.04761905 0.486210827 7.04761905"></polygon>
        <polygon id="path-9" points="0.350119658 0.192165079 6.62020512 0.192165079 6.62020512 8.61375662 0.350119658 8.61375662"></polygon>
        <polygon id="path-11" points="0.414096866 0.528728042 6.13295726 0.528728042 6.13295726 7.04761905 0.414096866 7.04761905"></polygon>
        <polygon id="path-13" points="0.281994302 0.528728042 6.00165242 0.528728042 6.00165242 7.04761905 0.281994302 7.04761905"></polygon>
        <polygon id="path-15" points="0.230062678 0.528728042 5.61467807 0.528728042 5.61467807 7.04761905 0.230062678 7.04761905"></polygon>
    </defs>
    <g id="Symbols" stroke="none" stroke-width="1" fill="none" fill-rule="evenodd">
        <g id="navi" transform="translate(-110.000000, -23.000000)">
            <g id="gen3logo-white" transform="translate(110.000000, 23.000000)">
                <path d="M0,18.4761475 C0,7.17085696 6.61290864,1.54166667 13.6501456,1.54166667 C17.9013011,1.54166667 20.3575243,2.78199674 22.9082177,5.16724686 L20.4519945,7.74252191 C18.4681219,5.8828219 16.3425441,5.02413185 13.6501456,5.02413185 C8.92742667,5.02413185 4.39286075,8.36348202 4.39286075,18.4761475 C4.39286075,28.017148 7.36866963,31.9758682 13.0368771,31.9758682 C15.3033727,31.9758682 17.3817155,31.4511131 19.2238829,30.4023981 L19.2238829,20.4320526 L12.8471495,20.4320526 L12.3755862,16.9495874 L23.3333333,16.9495874 L23.3333333,32.5960332 C20.4047594,34.2657082 17.2872453,35.4583333 12.7062316,35.4583333 C4.95968149,35.4583333 0,29.829143 0,18.4761475" id="Fill-1" fill="#FEFEFE" fill-rule="nonzero"></path>
                <polygon id="Fill-3" fill="#FEFEFE" fill-rule="nonzero" points="31.0102958 22.5368081 39.9703624 22.5368081 39.9703624 24.9192967 31.0102958 24.9192967 31.0102958 33.1086019 42 33.1086019 42 35.4583333 28 35.4583333 28 12.3333333 41.6850563 12.3333333 41.3351187 14.7501771 31.0102958 14.7501771"></polygon>
                <path d="M48.8921068,15.1528512 C48.9566123,16.1595365 49.2791398,20.3213016 49.2791398,23.8790552 L49.2791398,35.4583333 L46.6666667,35.4583333 L46.6666667,12.3333333 L50.4724918,12.3333333 L58.4404586,32.7394841 C58.4082058,31.7999111 58.0534255,28.0743764 58.0534255,23.9126115 L58.0534255,12.3333333 L60.6666667,12.3333333 L60.6666667,35.4583333 L56.7310625,35.4583333 L48.8921068,15.1528512 Z" id="Fill-5" fill="#FEFEFE" fill-rule="nonzero"></path>
                <g id="Group-9" stroke-width="1" fill-rule="evenodd" transform="translate(65.333333, 0.000000)">
                    <g id="Fill-7-Clipped">
                        <mask id="mask-2" fill="white">
                            <use xlink:href="#path-1"></use>
                        </mask>
                        <g id="path-1"></g>
                        <path d="M9.68289459,18.9500296 L9.68289459,14.6893524 C11.8343476,14.6893524 13.2822108,14.4536487 14.0232934,13.9822413 C15.3467123,13.1545376 16.0088205,11.827236 16.0088205,9.99955345 C16.0088205,8.58689736 15.5285926,7.43735238 14.5689345,6.55248466 C13.6228376,5.6535217 12.3943476,5.20325714 10.8826667,5.20325714 C9.47149857,5.20325714 8.38101424,5.53919366 7.61041596,6.20950053 C6.86933333,6.89468571 6.31571509,8.0512783 5.95275214,9.67849524 L0.892011395,9.67849524 C1.41611396,6.56736296 2.4914416,4.28628359 4.12038746,2.83760634 C5.74853561,1.3889291 8.02523076,0.663807408 10.9480798,0.663807408 C13.8996467,0.663807408 16.3063704,1.52048466 18.1682506,3.23383916 C20.0293333,4.93231534 20.9602734,7.1233418 20.9602734,9.80691851 C20.9602734,12.8334794 19.7381652,15.1889503 17.2955442,16.8733312 C20.087567,18.4864529 21.4835784,21.105818 21.4835784,24.7314264 C21.4835784,27.7008233 20.4656866,30.1267704 18.4299032,32.011617 C16.3933219,33.8956804 13.7839772,34.8377121 10.5986781,34.8377121 C6.54147009,34.8377121 3.53166951,33.3749396 1.56847863,30.4486116 C0.754005698,29.2207597 0.237880342,27.5222837 0.0201025641,25.3524 L4.92768091,25.3524 C5.18933333,26.9514264 5.82511681,28.1753629 6.83662678,29.0242095 C7.84654131,29.8738392 9.16676924,30.2982625 10.7957151,30.2982625 C12.4382222,30.2982625 13.7975385,29.7634264 14.8744615,28.6921884 C15.9497892,27.5935429 16.4882506,26.2020296 16.4882506,24.5168655 C16.4882506,22.2906011 15.681755,20.7056699 14.0671681,19.763638 C13.1218689,19.2217545 11.6604444,18.9500296 9.68289459,18.9500296" id="Fill-7" fill="#DBCB32" fill-rule="nonzero" mask="url(#mask-2)"></path>
                    </g>
                </g>
                <g id="Group" stroke-width="1" fill-rule="evenodd" transform="translate(93.333333, 12.333333)">
                    <g id="Group-12" transform="translate(0.000000, 1.513789)">
                        <g id="Fill-10-Clipped">
                            <mask id="mask-4" fill="white">
                                <use xlink:href="#path-3"></use>
                            </mask>
                            <g id="path-3"></g>
                            <path d="M2.15360684,1.40208466 L1.38779487,1.40208466 L1.38779487,7.42779895 L2.16557266,7.42779895 C3.31429059,7.42779895 4.40317948,6.84049736 4.40317948,4.36208466 C4.40317948,1.78970371 3.25446154,1.40208466 2.15360684,1.40208466 M2.0219829,8.46144974 L-0.00023931624,8.46144974 L-0.00023931624,0.35668783 L1.89035898,0.35668783 C3.90061538,0.35668783 5.86300854,1.00271958 5.86300854,4.36208466 C5.86300854,7.7324127 3.86471795,8.46144974 2.0219829,8.46144974" id="Fill-10" fill="#FEFEFE" fill-rule="nonzero" mask="url(#mask-4)"></path>
                        </g>
                    </g>
                    <g id="Group-15" transform="translate(7.179488, 3.079926)">
                        <g id="Fill-13-Clipped">
                            <mask id="mask-6" fill="white">
                                <use xlink:href="#path-5"></use>
                            </mask>
                            <g id="path-5"></g>
                            <path d="M4.4751339,5.28610582 L4.4751339,3.91182011 L3.73325356,3.91182011 C2.4768433,3.91182011 1.98624501,4.34642328 1.98624501,5.07467725 C1.98624501,5.73245503 2.34521938,6.08483597 3.05120228,6.08483597 C3.60162962,6.08483597 4.16402278,5.79118518 4.4751339,5.28610582 M6.28197152,6.15531217 L5.9708604,7.04801058 C5.36060398,6.97753439 4.89393732,6.73086772 4.6665869,6.19055026 C4.19992023,6.76610582 3.45803988,7.04801058 2.65633049,7.04801058 C1.36402279,7.04801058 0.574279202,6.27277249 0.574279202,5.12166138 C0.574279202,3.82959788 1.65120228,3.08959788 3.57769801,3.08959788 L4.4751339,3.08959788 L4.4751339,2.6902328 C4.4751339,1.87975662 3.96060398,1.56261375 3.0751339,1.56261375 C2.65633049,1.56261375 2.03410827,1.65658201 1.39992023,1.87975662 L1.06487749,0.951820105 C1.85462108,0.658169312 2.63239886,0.528962963 3.27855271,0.528962963 C4.97769801,0.528962963 5.80333903,1.30420106 5.80333903,2.60801058 L5.80333903,5.38007408 C5.80333903,5.86166138 5.94692877,6.04959788 6.28197152,6.15531217" id="Fill-13" fill="#FEFEFE" fill-rule="nonzero" mask="url(#mask-6)"></path>
                        </g>
                    </g>
                    <path d="M19.5157608,10.127546 C18.0439658,10.127546 17.266188,9.3170699 17.266188,8.09548252 L17.266188,4.73611747 L15.866188,4.73611747 L15.866188,3.77294288 L17.266188,3.77294288 L17.266188,2.38769417 L18.606359,2.23421262 L18.606359,3.77294288 L20.7482392,3.77294288 L20.5926837,4.73611747 L18.606359,4.73611747 L18.606359,8.08373657 C18.606359,8.75326035 18.9294359,9.07040323 19.7072137,9.07040323 C20.1619146,9.07040323 20.5567863,8.95294288 20.8798632,8.77675242 L21.3584957,9.64595874 C20.891829,9.93960955 20.2217436,10.127546 19.5157608,10.127546" id="Fill-16" fill="#FEFEFE" fill-rule="nonzero"></path>
                    <g id="Group-20" transform="translate(23.133903, 3.079926)">
                        <g id="Fill-18-Clipped">
                            <mask id="mask-8" fill="white">
                                <use xlink:href="#path-7"></use>
                            </mask>
                            <g id="path-7"></g>
                            <path d="M4.38706553,5.28610582 L4.38706553,3.91182011 L3.64518518,3.91182011 C2.38877494,3.91182011 1.89817664,4.34642328 1.89817664,5.07467725 C1.89817664,5.73245503 2.257151,6.08483597 2.9631339,6.08483597 C3.51356126,6.08483597 4.07595442,5.79118518 4.38706553,5.28610582 M6.19390313,6.15531217 L5.88279202,7.04801058 C5.27253561,6.97753439 4.80586895,6.73086772 4.57851851,6.19055026 C4.11185185,6.76610582 3.36997152,7.04801058 2.56826211,7.04801058 C1.27595442,7.04801058 0.486210827,6.27277249 0.486210827,5.12166138 C0.486210827,3.82959788 1.5631339,3.08959788 3.48962962,3.08959788 L4.38706553,3.08959788 L4.38706553,2.6902328 C4.38706553,1.87975662 3.87253561,1.56261375 2.98706553,1.56261375 C2.56826211,1.56261375 1.94603988,1.65658201 1.31185185,1.87975662 L0.976809117,0.951820105 C1.76655271,0.658169312 2.54433049,0.528962963 3.19048433,0.528962963 C4.88962962,0.528962963 5.71527065,1.30420106 5.71527065,2.60801058 L5.71527065,5.38007408 C5.71527065,5.86166138 5.8588604,6.04959788 6.19390313,6.15531217" id="Fill-18" fill="#FEFEFE" fill-rule="nonzero" mask="url(#mask-8)"></path>
                        </g>
                    </g>
                </g>
                <g id="Group-2" stroke-width="1" fill-rule="evenodd" transform="translate(91.777778, 23.125000)">
                    <g id="Group-23" transform="translate(0.199430, 1.513789)">
                        <g id="Fill-21-Clipped">
                            <mask id="mask-10" fill="white">
                                <use xlink:href="#path-9"></use>
                            </mask>
                            <g id="path-9"></g>
                            <path d="M6.50054701,1.0143873 L5.7825983,1.86010159 C5.28003418,1.46073651 4.71764102,1.26105397 4.07148719,1.26105397 C2.83900854,1.26105397 1.7979829,2.10676825 1.7979829,4.39724445 C1.7979829,6.64073651 2.77917948,7.50994286 4.08345299,7.50994286 C4.96892307,7.50994286 5.4954188,7.16930793 5.95011965,6.81692699 L6.62020512,7.65089524 C6.06977778,8.17946667 5.24413675,8.61406984 4.03558974,8.61406984 C1.92960684,8.61406984 0.350119658,7.14581587 0.350119658,4.39724445 C0.350119658,1.67216508 2.0014017,0.192165079 4.01165812,0.192165079 C5.13644444,0.192165079 5.83046154,0.485815874 6.50054701,1.0143873" id="Fill-21" fill="#FEFEFE" fill-rule="nonzero" mask="url(#mask-10)"></path>
                        </g>
                    </g>
                    <g id="Group-26" transform="translate(8.176638, 3.079926)">
                        <g id="Fill-24-Clipped">
                            <mask id="mask-12" fill="white">
                                <use xlink:href="#path-11"></use>
                            </mask>
                            <g id="path-11"></g>
                            <path d="M1.82606268,3.79412487 C1.82606268,5.33285503 2.30469515,6.03761693 3.27392593,6.03761693 C4.2431567,6.03761693 4.72178918,5.33285503 4.72178918,3.78237884 C4.72178918,2.25539471 4.2431567,1.5506328 3.28589173,1.5506328 C2.31666097,1.5506328 1.82606268,2.25539471 1.82606268,3.79412487 M6.13295726,3.78237884 C6.13295726,5.75571217 5.10469515,7.04777566 3.27392593,7.04777566 C1.43119088,7.04777566 0.414096866,5.80269629 0.414096866,3.79412487 C0.414096866,1.85602963 1.4431567,0.528728042 3.28589173,0.528728042 C5.12862678,0.528728042 6.13295726,1.8090455 6.13295726,3.78237884" id="Fill-24" fill="#FEFEFE" fill-rule="nonzero" mask="url(#mask-12)"></path>
                        </g>
                    </g>
                    <path d="M22.4713163,5.37063803 L22.4713163,9.97508252 L21.2867009,9.97508252 L21.2867009,5.54682864 C21.2867009,4.90079677 21.2388377,4.63063803 20.8678974,4.63063803 C20.5567863,4.63063803 20.2448775,4.80682864 19.9345641,5.25317783 L19.9345641,9.97508252 L18.8456752,9.97508252 L18.8456752,5.54682864 C18.8456752,4.90079677 18.797812,4.63063803 18.4268719,4.63063803 C18.1037948,4.63063803 17.8046496,4.80682864 17.4935385,5.25317783 L17.4935385,9.97508252 L16.2969573,9.97508252 L16.2969573,3.77317783 L17.3020854,3.77317783 L17.397812,4.44270162 C17.7567863,3.94936828 18.1396924,3.60873333 18.7499488,3.60873333 C19.2285812,3.60873333 19.6465869,3.80841586 19.8268719,4.39571747 C20.1858462,3.92587621 20.6046496,3.60873333 21.2149059,3.60873333 C21.932057,3.60873333 22.4713163,3.99635242 22.4713163,5.37063803" id="Fill-27" fill="#FEFEFE" fill-rule="nonzero"></path>
                    <path d="M30.404171,5.37063803 L30.404171,9.97508252 L29.2195556,9.97508252 L29.2195556,5.54682864 C29.2195556,4.90079677 29.1716924,4.63063803 28.7999544,4.63063803 C28.489641,4.63063803 28.1785299,4.80682864 27.8666211,5.25317783 L27.8666211,9.97508252 L26.7785299,9.97508252 L26.7785299,5.54682864 C26.7785299,4.90079677 26.7306667,4.63063803 26.3597266,4.63063803 C26.0358518,4.63063803 25.7367065,4.80682864 25.4263932,5.25317783 L25.4263932,9.97508252 L24.229812,9.97508252 L24.229812,3.77317783 L25.2349401,3.77317783 L25.3306667,4.44270162 C25.689641,3.94936828 26.0717494,3.60873333 26.6828035,3.60873333 C27.1614359,3.60873333 27.5802392,3.80841586 27.7597266,4.39571747 C28.1187009,3.92587621 28.5367065,3.60873333 29.1477608,3.60873333 C29.8649117,3.60873333 30.404171,3.99635242 30.404171,5.37063803" id="Fill-29" fill="#FEFEFE" fill-rule="nonzero"></path>
                    <g id="Group-33" transform="translate(32.108263, 3.079926)">
                        <g id="Fill-31-Clipped">
                            <mask id="mask-14" fill="white">
                                <use xlink:href="#path-13"></use>
                            </mask>
                            <g id="path-13"></g>
                            <path d="M1.69396012,3.79412487 C1.69396012,5.33285503 2.17339032,6.03761693 3.14182336,6.03761693 C4.11105413,6.03761693 4.58968661,5.33285503 4.58968661,3.78237884 C4.58968661,2.25539471 4.11105413,1.5506328 3.15378918,1.5506328 C2.1845584,1.5506328 1.69396012,2.25539471 1.69396012,3.79412487 M6.00165242,3.78237884 C6.00165242,5.75571217 4.9725926,7.04777566 3.14182336,7.04777566 C1.29908832,7.04777566 0.281994302,5.80269629 0.281994302,3.79412487 C0.281994302,1.85602963 1.31185185,0.528728042 3.15378918,0.528728042 C4.99732193,0.528728042 6.00165242,1.8090455 6.00165242,3.78237884" id="Fill-31" fill="#FEFEFE" fill-rule="nonzero" mask="url(#mask-14)"></path>
                        </g>
                    </g>
                    <path d="M40.6584729,3.77317783 L41.8191567,3.77317783 L41.9148833,4.58365404 C42.4413789,3.94936828 43.1952251,3.60873333 43.9610371,3.60873333 C45.1328889,3.60873333 45.7200114,4.29000323 45.7200114,5.45286035 L45.7200114,9.97508252 L44.3798404,9.97508252 L44.3798404,6.11063803 C44.3798404,5.03000323 44.2482166,4.61889207 43.4824046,4.61889207 C42.8601824,4.61889207 42.3336866,5.0534953 41.9986439,5.52333657 L41.9986439,9.97508252 L40.6584729,9.97508252 L40.6584729,3.77317783 Z" id="Fill-34" fill="#FEFEFE" fill-rule="nonzero"></path>
                    <g id="Group-38" transform="translate(48.062678, 3.079926)">
                        <g id="Fill-36-Clipped">
                            <mask id="mask-16" fill="white">
                                <use xlink:href="#path-15"></use>
                            </mask>
                            <g id="path-15"></g>
                            <path d="M4.19074644,5.21539471 C4.19074644,4.71031534 3.98732763,4.47539471 2.68305413,4.14650583 C1.42664387,3.82936296 0.601002848,3.39475979 0.601002848,2.31412487 C0.601002848,1.24523598 1.57023362,0.528728042 3.12578918,0.528728042 C4.19074644,0.528728042 4.9565584,0.834124867 5.53091737,1.24523598 L4.9565584,2.07920424 C4.46596012,1.76206138 3.90356696,1.52792381 3.16168661,1.52792381 C2.30014815,1.52792381 1.96510541,1.79729947 1.96510541,2.20841058 C1.96510541,2.67825185 2.31291167,2.85444233 3.56852421,3.19507725 C4.80100284,3.52396613 5.61467807,3.94682328 5.61467807,5.12142646 C5.61467807,6.47222011 4.27370941,7.04777566 2.82664388,7.04777566 C1.6539943,7.04777566 0.817185185,6.67190264 0.230062678,6.1785693 L0.936045584,5.37983916 C1.42664387,5.7674582 2.08476354,6.04936296 2.82664388,6.04936296 C3.66425071,6.04936296 4.19074644,5.73222011 4.19074644,5.21539471" id="Fill-36" fill="#FEFEFE" fill-rule="nonzero" mask="url(#mask-16)"></path>
                        </g>
                    </g>
                </g>
            </g>
        </g>
    </g>
</svg>