<svg xmlns="http://www.w3.org/2000/svg" xmlns:xlink="http://www.w3.org/1999/xlink" x="0px" y="0px" viewBox="0 0 241.9 181" style="enable-background:new 0 0 241.9 181;" xml:space="preserve">
<style type="text/css">
	.st0{fill:#F3F6F8;}
	.st1{fill-rule:evenodd;clip-rule:evenodd;fill:#FFFFFF;}
	.st2{fill:url(#SVGID_1_);}
	.st3{fill:url(#SVGID_2_);}
	.st4{fill:url(#SVGID_3_);}
	.st5{fill:url(#SVGID_4_);}
	.st6{fill:none;stroke:#222829;stroke-width:1.474;stroke-miterlimit:10;}
	.st7{fill:none;stroke:#222829;stroke-width:1.474;stroke-linejoin:round;stroke-miterlimit:10;}
	.st8{fill:none;stroke:#222829;stroke-width:1.474;stroke-linecap:round;stroke-linejoin:round;stroke-miterlimit:10;}
	.st9{fill:none;stroke:#2AC9E6;stroke-width:1.474;stroke-miterlimit:10;}
	.st10{fill:none;stroke:#F4AF00;stroke-width:1.474;stroke-linejoin:round;stroke-miterlimit:10;}
	.st11{fill:none;stroke:#F4AF00;stroke-width:1.474;stroke-miterlimit:10;}
	.st12{fill:none;stroke:#E04347;stroke-width:1.474;stroke-miterlimit:10;}
	.st13{fill:none;stroke:#222829;stroke-miterlimit:10;}
	.st14{fill:#F4AF00;stroke:#222829;stroke-miterlimit:10;}
	.st15{fill:none;stroke:#2AC9E6;stroke-miterlimit:10;}
	.st16{fill:none;stroke:#E04347;stroke-miterlimit:10;}
	.st17{fill:none;stroke:#F4AF00;stroke-miterlimit:10;}
	.st18{fill:none;stroke:#E04347;stroke-width:1.474;stroke-linejoin:round;stroke-miterlimit:10;}
	.st19{fill:none;stroke:#2AC9E6;stroke-width:1.474;stroke-linejoin:round;stroke-miterlimit:10;}
	.st20{fill:none;stroke:#D3DEE3;stroke-width:1.474;stroke-miterlimit:10;}
	.st21{fill-rule:evenodd;clip-rule:evenodd;fill:#00CAE8;}
	.st22{fill:none;stroke:#08131F;stroke-width:1.474;stroke-miterlimit:10;}
	.st23{fill-rule:evenodd;clip-rule:evenodd;fill:url(#SVGID_5_);}
	.st24{fill-rule:evenodd;clip-rule:evenodd;fill:url(#SVGID_6_);}
	.st25{fill-rule:evenodd;clip-rule:evenodd;fill:url(#SVGID_7_);}
	.st26{fill-rule:evenodd;clip-rule:evenodd;fill:url(#SVGID_8_);}
	.st27{fill-rule:evenodd;clip-rule:evenodd;fill:url(#SVGID_9_);}
	.st28{fill-rule:evenodd;clip-rule:evenodd;fill:url(#SVGID_10_);}
	.st29{fill-rule:evenodd;clip-rule:evenodd;fill:url(#SVGID_11_);}
	.st30{fill-rule:evenodd;clip-rule:evenodd;fill:url(#SVGID_12_);}
	.st31{fill-rule:evenodd;clip-rule:evenodd;fill:url(#SVGID_13_);}
	.st32{fill-rule:evenodd;clip-rule:evenodd;fill:url(#SVGID_14_);}
	.st33{fill-rule:evenodd;clip-rule:evenodd;fill:url(#SVGID_15_);}
	.st34{fill-rule:evenodd;clip-rule:evenodd;fill:url(#SVGID_16_);}
	.st35{fill-rule:evenodd;clip-rule:evenodd;fill:url(#SVGID_17_);}
	.st36{fill-rule:evenodd;clip-rule:evenodd;fill:url(#SVGID_18_);}
	.st37{fill-rule:evenodd;clip-rule:evenodd;fill:url(#SVGID_19_);}
	.st38{fill-rule:evenodd;clip-rule:evenodd;fill:url(#SVGID_20_);}
	.st39{fill-rule:evenodd;clip-rule:evenodd;fill:url(#SVGID_21_);}
	.st40{fill-rule:evenodd;clip-rule:evenodd;fill:url(#SVGID_22_);}
	.st41{fill-rule:evenodd;clip-rule:evenodd;fill:url(#SVGID_23_);}
	.st42{fill-rule:evenodd;clip-rule:evenodd;fill:url(#SVGID_24_);}
	.st43{fill-rule:evenodd;clip-rule:evenodd;fill:url(#SVGID_25_);}
	.st44{fill-rule:evenodd;clip-rule:evenodd;fill:url(#SVGID_26_);}
	.st45{fill-rule:evenodd;clip-rule:evenodd;fill:url(#SVGID_27_);}
	.st46{fill-rule:evenodd;clip-rule:evenodd;fill:url(#SVGID_28_);}
	.st47{fill-rule:evenodd;clip-rule:evenodd;fill:url(#SVGID_29_);}
	.st48{fill-rule:evenodd;clip-rule:evenodd;fill:url(#SVGID_30_);}
	.st49{fill-rule:evenodd;clip-rule:evenodd;fill:url(#SVGID_31_);}
	.st50{clip-path:url(#SVGID_33_);}
	.st51{clip-path:url(#SVGID_35_);fill:#FFFFFF;}
	.st52{clip-path:url(#SVGID_37_);}
	.st53{clip-path:url(#SVGID_39_);fill:#FFFFFF;}
	.st54{clip-path:url(#SVGID_41_);}
	.st55{clip-path:url(#SVGID_43_);fill:#FFFFFF;}
	.st56{clip-path:url(#SVGID_45_);}
	.st57{clip-path:url(#SVGID_47_);fill:#FFFFFF;}
	.st58{clip-path:url(#SVGID_49_);}
	.st59{clip-path:url(#SVGID_51_);fill:#FFFFFF;}
	.st60{clip-path:url(#SVGID_53_);}
	.st61{clip-path:url(#SVGID_55_);fill:#2AC7E4;}
	.st62{clip-path:url(#SVGID_57_);}
	.st63{clip-path:url(#SVGID_59_);fill:#FFFFFF;}
	.st64{clip-path:url(#SVGID_61_);}
	.st65{clip-path:url(#SVGID_63_);fill:#F3F6F8;}
	.st66{clip-path:url(#SVGID_65_);}
	.st67{clip-path:url(#SVGID_67_);fill:#FFFFFF;}
	.st68{clip-path:url(#SVGID_69_);}
	.st69{clip-path:url(#SVGID_71_);fill:#F3F6F8;}
	.st70{clip-path:url(#SVGID_73_);}
	.st71{clip-path:url(#SVGID_75_);fill:#FFFFFF;}
	.st72{clip-path:url(#SVGID_77_);fill:#FFFFFF;}
	.st73{clip-path:url(#SVGID_79_);fill:#F4AF00;}
	.st74{clip-path:url(#SVGID_81_);fill:#F11A3A;}
	.st75{clip-path:url(#SVGID_83_);fill:#00CAE8;}
	.st76{clip-path:url(#SVGID_85_);}
	.st77{clip-path:url(#SVGID_87_);enable-background:new    ;}
	.st78{clip-path:url(#SVGID_89_);}
	.st79{clip-path:url(#SVGID_91_);fill:#77A8FF;}
	.st80{clip-path:url(#SVGID_91_);fill:#2AC7E4;}
	.st81{fill:none;stroke:#08131F;stroke-width:0.737;stroke-miterlimit:10;}
	.st82{clip-path:url(#SVGID_93_);}
	.st83{clip-path:url(#SVGID_95_);fill:#FFFFFF;}
	.st84{clip-path:url(#SVGID_97_);}
	.st85{clip-path:url(#SVGID_99_);fill:#FFFFFF;}
	.st86{clip-path:url(#SVGID_101_);}
	.st87{clip-path:url(#SVGID_103_);fill:#F4AF00;}
	.st88{fill:none;stroke:#F11A3A;stroke-width:1.474;stroke-miterlimit:10;}
	.st89{clip-path:url(#SVGID_105_);}
	.st90{clip-path:url(#SVGID_107_);fill:#FFFFFF;}
	.st91{fill:none;stroke:#00CAE8;stroke-width:1.474;stroke-linejoin:round;stroke-miterlimit:10;}
	.st92{fill:none;stroke:#F11A3A;stroke-width:1.474;stroke-linejoin:round;stroke-miterlimit:10;}
	.st93{clip-path:url(#SVGID_109_);}
	.st94{clip-path:url(#SVGID_111_);fill:#FFFFFF;}
	.st95{clip-path:url(#SVGID_113_);}
	.st96{clip-path:url(#SVGID_115_);fill:#FFFFFF;}
	.st97{clip-path:url(#SVGID_117_);}
	.st98{clip-path:url(#SVGID_119_);fill:#00CDEC;}
	.st99{fill:none;stroke:#00CAE8;stroke-width:1.5396;stroke-linejoin:round;stroke-miterlimit:10;}
	.st100{clip-path:url(#SVGID_121_);}
	.st101{clip-path:url(#SVGID_123_);fill:#FFFFFF;}
	.st102{clip-path:url(#SVGID_125_);}
	.st103{clip-path:url(#SVGID_127_);fill:#00CAE8;}
	.st104{clip-path:url(#SVGID_129_);}
	.st105{clip-path:url(#SVGID_131_);fill:#F4AF00;}
	.st106{clip-path:url(#SVGID_133_);}
	.st107{clip-path:url(#SVGID_135_);fill:#F11A3A;}
	.st108{fill:none;stroke:#08131F;stroke-width:0.737;stroke-linejoin:round;stroke-miterlimit:10;}
	.st109{fill:none;stroke:#2AC7E4;stroke-width:1.474;stroke-miterlimit:10;}
	.st110{fill:#FFFFFF;stroke:#08131F;stroke-width:1.474;stroke-miterlimit:10;}
	.st111{fill:#E04347;stroke:#222829;stroke-miterlimit:10;}
	.st112{fill:#F4AF00;stroke:#222829;stroke-width:1.474;stroke-miterlimit:10;}
	.st113{fill:#2AC9E6;stroke:#222829;stroke-width:1.474;stroke-miterlimit:10;}
	.st114{clip-path:url(#SVGID_137_);}
	.st115{clip-path:url(#SVGID_139_);fill:#FFFFFF;}
	.st116{clip-path:url(#SVGID_141_);}
	.st117{clip-path:url(#SVGID_143_);fill:#FFFFFF;}
	.st118{clip-path:url(#SVGID_145_);}
	.st119{clip-path:url(#SVGID_147_);fill:#F3F6F8;}
	.st120{clip-path:url(#SVGID_149_);}
	.st121{clip-path:url(#SVGID_151_);fill:#FFFFFF;}
	.st122{clip-path:url(#SVGID_153_);}
	.st123{clip-path:url(#SVGID_155_);fill:#F3F6F8;}
	.st124{fill:none;stroke:#2AC7E4;stroke-width:1.474;stroke-linejoin:round;stroke-miterlimit:10;}
	.st125{fill:url(#SVGID_156_);}
	.st126{fill:url(#SVGID_157_);}
	.st127{fill:url(#SVGID_158_);}
	.st128{fill:url(#SVGID_159_);}
	.st129{fill-rule:evenodd;clip-rule:evenodd;fill:#2AC9E6;}
	.st130{fill-rule:evenodd;clip-rule:evenodd;fill:#E03842;}
	.st131{fill-rule:evenodd;clip-rule:evenodd;fill:#ECB22C;}
	.st132{fill:none;stroke:#222829;stroke-width:1.5;stroke-linecap:round;stroke-linejoin:round;}
	.st133{fill-rule:evenodd;clip-rule:evenodd;fill:#00CCEA;}
	.st134{fill-rule:evenodd;clip-rule:evenodd;fill:#F6B100;}
	.st135{fill-rule:evenodd;clip-rule:evenodd;fill:#F31A3A;}
	.st136{filter:url(#Adobe_OpacityMaskFilter);}
	.st137{fill:url(#SVGID_161_);}
	.st138{mask:url(#SVGID_160_);}
	.st139{fill:#FFFFFF;}
	.st140{fill:#263B8C;}
	.st141{fill:#7097C7;}
	.st142{fill:#BAC9CE;}
	.st143{fill:#2AC9E6;}
	.st144{fill:none;stroke:#222829;stroke-width:0.9438;stroke-miterlimit:10;}
	.st145{fill:none;stroke:#E04347;stroke-width:0.9438;stroke-miterlimit:10;}
	.st146{fill:none;stroke:#2AC9E6;stroke-width:0.9438;stroke-miterlimit:10;}
	.st147{fill:none;stroke:#86C457;stroke-width:0.9438;stroke-miterlimit:10;}
	.st148{fill:none;stroke:#86C457;stroke-width:0.9438;stroke-linejoin:round;stroke-miterlimit:10;}
	.st149{fill:none;stroke:#2AC9E6;stroke-width:0.9438;stroke-linejoin:round;stroke-miterlimit:10;}
	.st150{fill:none;stroke:#E04347;stroke-width:0.9438;stroke-linejoin:round;stroke-miterlimit:10;}
	.st151{fill:none;stroke:#222829;stroke-width:0.9438;stroke-linejoin:round;stroke-miterlimit:10;}
	.st152{fill:none;stroke:#8476BB;stroke-width:0.9438;stroke-miterlimit:10;}
	.st153{clip-path:url(#SVGID_163_);}
	.st154{clip-path:url(#SVGID_165_);fill:#FFFFFF;}
	.st155{fill:none;stroke:#222829;stroke-width:1.0856;stroke-linejoin:round;stroke-miterlimit:10;}
	.st156{fill:none;stroke:#00CAE8;stroke-width:1.0856;stroke-linejoin:round;stroke-miterlimit:10;}
	.st157{fill:none;stroke:#F11A3A;stroke-width:1.0856;stroke-linejoin:round;stroke-miterlimit:10;}
	.st158{fill:none;stroke:#08131F;stroke-width:0.9926;stroke-linejoin:round;stroke-miterlimit:10;}
	.st159{fill:none;stroke:#2AC9E6;stroke-width:0.9926;stroke-linejoin:round;stroke-miterlimit:10;}
	.st160{fill:none;stroke:#08131F;stroke-width:0.9926;stroke-miterlimit:10;}
	.st161{fill:none;stroke:#E04347;stroke-width:0.9926;stroke-miterlimit:10;}
	.st162{fill:none;stroke:#222829;stroke-width:0.8731;stroke-miterlimit:10;}
	.st163{fill:none;stroke:#86C457;stroke-width:0.8731;stroke-miterlimit:10;}
	.st164{fill:none;stroke:#2AC9E6;stroke-width:0.8731;stroke-miterlimit:10;}
	.st165{fill:none;stroke:#E04347;stroke-width:0.8731;stroke-miterlimit:10;}
	.st166{fill:none;stroke:#08131F;stroke-width:0.8731;stroke-miterlimit:10;}
	.st167{fill:none;stroke:#222829;stroke-width:0.888;stroke-linejoin:round;stroke-miterlimit:10;}
	.st168{fill:none;stroke:#222829;stroke-width:0.888;stroke-linecap:round;stroke-linejoin:round;stroke-miterlimit:10;}
	.st169{fill:none;stroke:#222829;stroke-width:0.888;stroke-miterlimit:10;}
	.st170{fill:none;stroke:#E91F38;stroke-width:0.888;stroke-miterlimit:10;}
	.st171{clip-path:url(#SVGID_167_);}
	.st172{clip-path:url(#SVGID_169_);fill:#00CAE8;}
	.st173{clip-path:url(#SVGID_171_);}
	.st174{clip-path:url(#SVGID_173_);fill:#F4AF00;}
	.st175{clip-path:url(#SVGID_175_);}
	.st176{clip-path:url(#SVGID_177_);fill:#F11A3A;}
	.st177{fill:none;stroke:#222829;stroke-width:1.063;stroke-miterlimit:10;}
	.st178{opacity:0.2;}
	.st179{fill:none;stroke:#222829;stroke-width:2;}
	.st180{filter:url(#Adobe_OpacityMaskFilter_1_);}
	.st181{mask:url(#mask-2_8_);fill:none;stroke:#1D8498;stroke-width:2;stroke-linejoin:round;}
	.st182{filter:url(#Adobe_OpacityMaskFilter_2_);}
	.st183{mask:url(#mask-2_7_);fill:none;stroke:#1D8498;stroke-width:2;stroke-linejoin:round;}
	.st184{filter:url(#Adobe_OpacityMaskFilter_3_);}
	.st185{mask:url(#mask-2_6_);fill:none;stroke:#1D8498;stroke-width:2;stroke-linejoin:round;}
	.st186{filter:url(#Adobe_OpacityMaskFilter_4_);}
	.st187{mask:url(#mask-2_5_);fill:none;stroke:#1D8498;stroke-width:2;stroke-linejoin:round;}
	.st188{fill:none;stroke:#08131F;stroke-width:2;}
	.st189{fill:none;stroke:#883C95;stroke-width:2;}
	.st190{fill:none;stroke:#222829;stroke-width:2;stroke-miterlimit:10;}
	.st191{fill:none;stroke:#E04347;stroke-width:2;stroke-miterlimit:10;}
	.st192{fill:none;stroke:#86C457;stroke-width:2;stroke-linejoin:round;stroke-miterlimit:10;}
	.st193{fill:none;stroke:#2AC9E6;stroke-width:2;stroke-linejoin:round;stroke-miterlimit:10;}
	.st194{fill:none;stroke:#E04347;stroke-width:2;stroke-linejoin:round;stroke-miterlimit:10;}
	.st195{fill:none;stroke:#D3D4D4;stroke-width:2;stroke-linejoin:round;stroke-miterlimit:10;}
	.st196{fill:none;stroke:#222829;stroke-width:1.47;stroke-linejoin:round;stroke-miterlimit:10;}
	.st197{fill:none;stroke:#222829;stroke-width:1.47;stroke-miterlimit:10;}
	.st198{fill:none;stroke:#2AC9E6;stroke-width:1.47;stroke-linejoin:round;stroke-miterlimit:10;}
	.st199{fill:none;stroke:#E04347;stroke-width:1.47;stroke-linejoin:round;stroke-miterlimit:10;}
	.st200{fill:none;stroke:#2AC9E6;stroke-width:1.47;stroke-miterlimit:10;}
	.st201{fill:#F4AF00;stroke:#222829;stroke-width:1.47;stroke-linejoin:round;stroke-miterlimit:10;}
	.st202{fill:none;stroke:#222829;stroke-width:1.6108;stroke-linecap:round;stroke-linejoin:round;stroke-miterlimit:10;}
	.st203{fill:none;stroke:#222829;stroke-width:1.6108;stroke-miterlimit:10;}
	.st204{fill:none;stroke:#2AC9E6;stroke-width:1.6108;stroke-miterlimit:10;}
	.st205{fill:none;stroke:#F4AF00;stroke-width:1.6108;stroke-miterlimit:10;}
	.st206{fill:none;stroke:#08131F;stroke-width:1.47;stroke-miterlimit:10;}
	.st207{fill:none;stroke:#E04347;stroke-width:1.47;stroke-miterlimit:10;}
	.st208{fill:#2AC9E6;stroke:#222829;stroke-width:1.47;stroke-miterlimit:10;}
	.st209{fill:#F4AF00;stroke:#222829;stroke-width:1.47;stroke-miterlimit:10;}
	.st210{fill:none;stroke:#08131F;stroke-width:1.47;stroke-linejoin:round;stroke-miterlimit:10;}
	.st211{fill:none;stroke:#F4AF00;stroke-width:1.47;stroke-linejoin:round;stroke-miterlimit:10;}
	.st212{fill:#E04347;stroke:#222829;stroke-width:1.47;stroke-miterlimit:10;}
	.st213{fill:#86C457;stroke:#222829;stroke-width:1.47;stroke-miterlimit:10;}
	.st214{fill:none;stroke:#F4AF00;stroke-width:1.47;stroke-miterlimit:10;}
	.st215{fill:none;stroke:#222829;stroke-width:1.3575;stroke-linejoin:round;stroke-miterlimit:10;}
</style>
<g id="bg">
</g>
<g id="Layer_1">
	<g>
		<g>
			<path class="st140" d="M1.1,126.2c0-2.8-0.1-5.6-0.2-8.4c-0.1-2.8-0.2-5.5-0.4-8.3c1.1,0.1,2.3,0.2,3.4,0.2     c1.2,0.1,2.3,0.1,3.4,0.1c1.1,0,2.3-0.1,3.4-0.2c1.2-0.1,2.3-0.2,3.4-0.2c1.8,0,3.6,0.1,5.2,0.4c1.6,0.3,3.1,0.8,4.3,1.5     c1.2,0.7,2.2,1.7,3,2.9c0.7,1.2,1.1,2.7,1.1,4.5c0,3.2-1,5.7-3,7.5s-4.6,3.1-7.8,3.8v0.1c3.8,0.2,6.8,1.1,9.1,2.8     c2.2,1.7,3.3,4.4,3.3,8.1c0,2.4-0.5,4.4-1.5,6.1c-1,1.6-2.3,3-3.9,4c-1.6,1-3.3,1.7-5.3,2.1c-1.9,0.4-3.8,0.6-5.7,0.6     c-1,0-2.1,0-3.1-0.1c-1.1,0-2.1-0.1-3.1-0.1s-2.1,0-3.1,0c-1.1,0-2.1,0-3.1,0.1c0.1-2.8,0.2-5.5,0.4-8.2c0.1-2.7,0.2-5.5,0.2-8.4     V126.2z M9.8,129.4c1.5,0,3-0.2,4.5-0.5c1.5-0.3,2.8-0.8,4-1.5c1.2-0.7,2.1-1.7,2.8-2.8c0.7-1.2,1.1-2.7,1.1-4.5     c0-1.8-0.3-3.2-1-4.2c-0.6-1.1-1.5-1.9-2.5-2.5c-1-0.6-2.1-1-3.4-1.2c-1.2-0.2-2.5-0.3-3.7-0.3c-1.1,0-2.1,0-2.8,0.1     c-0.8,0.1-1.5,0.1-2.1,0.2c-0.1,2.1-0.2,4.1-0.3,6.1c-0.1,2-0.1,4.1-0.1,6.1v4.8H9.8z M6.3,138.4c0,2.2,0,4.4,0.1,6.5     c0.1,2.2,0.2,4.3,0.3,6.5c0.8,0.1,1.8,0.2,2.9,0.2c1.1,0.1,2.3,0.1,3.4,0.1c1.4,0,2.7-0.2,4-0.7c1.3-0.5,2.4-1.2,3.3-2.1     c0.9-0.9,1.7-2.1,2.3-3.4c0.6-1.4,0.8-2.9,0.8-4.6c0-1.8-0.3-3.4-1-4.5c-0.7-1.2-1.6-2.1-2.9-2.8c-1.2-0.7-2.7-1.1-4.5-1.4     c-1.7-0.3-3.7-0.4-5.8-0.4H6.3V138.4z"></path>
		</g>
		<g>
			<path class="st140" d="M37.5,121.6c-0.1-2.5-0.2-5-0.3-7.5c0.5,0.1,1,0.1,1.4,0.2c0.5,0.1,0.9,0.1,1.4,0.1s0.9,0,1.4-0.1     c0.5-0.1,0.9-0.1,1.4-0.2c-0.1,2.6-0.2,5.1-0.3,7.5c-0.1,2.5-0.1,5-0.1,7.5v10c0,2.6,0,5.1,0.1,7.5c0.1,2.5,0.2,4.9,0.3,7.3     c-0.9-0.1-1.8-0.1-2.8-0.1c-1,0-2,0-2.8,0.1c0.1-2.4,0.2-4.8,0.3-7.3c0.1-2.5,0.1-5,0.1-7.5v-10C37.6,126.5,37.6,124,37.5,121.6z     "></path>
		</g>
		<g>
			<path class="st140" d="M49,134.1c0-3.3,0.5-6.2,1.6-8.8c1.1-2.6,2.6-4.7,4.5-6.5c1.9-1.8,4.2-3.1,6.9-4.1     c2.7-0.9,5.6-1.4,8.8-1.4c3.2,0,6.1,0.5,8.8,1.4s5,2.3,6.9,4.1c1.9,1.8,3.4,4,4.5,6.5c1.1,2.6,1.6,5.5,1.6,8.8     c0,3.3-0.5,6.2-1.6,8.8c-1.1,2.6-2.6,4.7-4.5,6.5c-1.9,1.8-4.2,3.1-6.9,4c-2.7,0.9-5.6,1.3-8.8,1.3c-3.2,0-6.1-0.4-8.8-1.3     c-2.7-0.9-5-2.2-6.9-4c-1.9-1.8-3.4-4-4.5-6.5C49.5,140.3,49,137.4,49,134.1z M86.7,134.1c0-3.2-0.4-6-1.2-8.3     c-0.8-2.3-1.9-4.3-3.4-5.8c-1.4-1.5-3.2-2.7-5.1-3.4c-2-0.7-4.1-1.1-6.3-1.1c-2.2,0-4.3,0.4-6.3,1.1c-2,0.7-3.7,1.9-5.1,3.4     c-1.4,1.5-2.6,3.5-3.4,5.8c-0.8,2.3-1.2,5.1-1.2,8.3c0,3.2,0.4,6,1.2,8.3c0.8,2.3,1.9,4.3,3.4,5.8c1.4,1.5,3.1,2.7,5.1,3.4     c2,0.7,4,1.1,6.3,1.1c2.3,0,4.4-0.4,6.3-1.1c2-0.7,3.7-1.9,5.1-3.4s2.6-3.5,3.4-5.8C86.3,140.1,86.7,137.3,86.7,134.1z"></path>
		</g>
		<g>
			<path class="st140" d="M109.9,113c-1.1,0-2.3,0-3.5,0c-1.2,0-2.5,0.1-3.7,0.1s-2.4,0.1-3.5,0.2c-1.1,0.1-2.2,0.2-3.1,0.3     c0.2-0.8,0.3-1.5,0.3-2.1c0-0.5-0.1-1.1-0.3-2c2.8,0.1,5.6,0.2,8.3,0.2c2.7,0.1,5.5,0.1,8.3,0.1s5.6,0,8.3-0.1     c2.7-0.1,5.5-0.1,8.3-0.2c-0.2,0.9-0.3,1.5-0.3,2.1c0,0.6,0.1,1.2,0.3,2c-0.9-0.1-1.9-0.2-3.1-0.3c-1.1-0.1-2.3-0.2-3.5-0.2     c-1.2-0.1-2.5-0.1-3.7-0.1c-1.2,0-2.4,0-3.5,0c-0.1,4.4-0.2,8.9-0.2,13.4v11.1c0,2.8,0.1,5.6,0.2,8.4c0.1,2.8,0.2,5.5,0.4,8.1     c-1-0.1-2-0.1-3.2-0.1c-1.1,0-2.2,0-3.2,0.1c0.1-2.7,0.2-5.4,0.4-8.1c0.1-2.8,0.2-5.5,0.2-8.4v-11.1     C110.1,121.8,110,117.4,109.9,113z"></path>
		</g>
		<g>
			<path class="st140" d="M133,121.5c-0.1-2.5-0.2-4.9-0.3-7.4c1.7,0.1,3.5,0.1,5.2,0.2c1.7,0.1,3.4,0.1,5.2,0.1     c1.7,0,3.5,0,5.2-0.1c1.7-0.1,3.4-0.1,5.2-0.2c-0.1,0.6-0.2,1.2-0.2,1.7s0.1,1.2,0.2,1.7c-1.2-0.1-2.4-0.2-3.4-0.2     c-1-0.1-2.1-0.2-3.2-0.2c-1.1-0.1-2.4-0.1-3.7-0.2c-1.4-0.1-3-0.1-4.9-0.1c0,1.2-0.1,2.4-0.1,3.5c-0.1,1.1-0.1,2.4-0.1,3.8     c0,1.5,0,3,0,4.4c0,1.4,0,2.5,0,3.2c1.7,0,3.2,0,4.6-0.1c1.4,0,2.6-0.1,3.7-0.1c1.1-0.1,2.2-0.1,3.1-0.2c0.9-0.1,1.8-0.1,2.7-0.2     c-0.1,0.6-0.2,1.2-0.2,1.8c0,0.6,0.1,1.2,0.2,1.7c-1-0.1-2.2-0.2-3.5-0.3c-1.3-0.1-2.7-0.1-4-0.1c-1.3,0-2.6,0-3.8-0.1     c-1.2,0-2.1,0-2.8,0c0,0.3,0,0.7,0,1.1c0,0.4,0,0.9,0,1.5v2.3v3.5c0,2.2,0,4,0,5.5c0,1.4,0,2.5,0.1,3.2c1.3,0,2.6,0,4.1,0     c1.5,0,2.9,0,4.3-0.1c1.4-0.1,2.7-0.1,4-0.2c1.3-0.1,2.3-0.2,3.3-0.4c-0.1,0.3-0.1,0.6-0.1,0.9c0,0.3,0,0.6,0,0.9     c0,0.6,0.1,1.1,0.2,1.5c-1.7-0.1-3.5-0.1-5.2-0.1c-1.7,0-3.5,0-5.2,0c-1.8,0-3.5,0-5.3,0s-3.5,0-5.3,0.1c0.1-2.5,0.2-4.9,0.3-7.4     c0.1-2.5,0.1-5,0.1-7.5v-10C133.2,126.5,133.1,124,133,121.5z"></path>
		</g>
		<g>
			<path class="st140" d="M193.6,153.9c-0.5-0.1-1.1-0.1-1.5-0.1c-0.5,0-1,0-1.5,0c-0.5,0-1.1,0-1.5,0c-0.5,0-1,0-1.5,0.1     c-0.3-0.9-0.6-2-1.1-3.2s-1-2.6-1.5-3.9c-0.6-1.4-1.1-2.8-1.7-4.2c-0.6-1.4-1.1-2.8-1.6-4c-1.2,0-2.5-0.1-3.8-0.1     c-1.3,0-2.6,0-3.8,0c-1.2,0-2.4,0-3.5,0c-1.2,0-2.3,0-3.5,0.1c-1.2,3-2.4,5.9-3.4,8.6c-1,2.7-1.8,5-2.3,6.8     c-0.7-0.1-1.4-0.1-2.1-0.1c-0.8,0-1.5,0-2.1,0.1c3.1-6.8,6.2-13.5,9.2-20.2c3-6.7,6-13.5,9-20.4h1.1c0.9,2.2,1.9,4.7,3,7.3     c1.1,2.6,2.2,5.2,3.3,7.9c1.1,2.7,2.2,5.3,3.4,7.9c1.1,2.6,2.2,5.1,3.2,7.3c1,2.3,1.9,4.3,2.7,6.1     C192.4,151.6,193.1,153,193.6,153.9z M167.9,135.9c1,0,2,0,3.1,0.1c1.1,0,2.1,0.1,3.1,0.1c1.1,0,2.2,0,3.2,0c1.1,0,2.2,0,3.2-0.1     l-6.4-14.7L167.9,135.9z"></path>
		</g>
		<g>
			<path class="st140" d="M210.6,129.3c2.7,5.2,5.6,10.5,8.6,15.9c0.4-0.7,0.9-1.8,1.7-3.2c0.7-1.4,1.6-2.9,2.6-4.7     c1-1.8,2-3.7,3.1-5.8c1.1-2.1,2.2-4.2,3.4-6.3c1.1-2.1,2.3-4.2,3.4-6.3c1.1-2,2.2-4,3.1-5.7h0.8c0.4,3.7,0.8,7.3,1.2,10.8     c0.4,3.5,0.7,6.9,1.1,10.2c0.4,3.3,0.8,6.6,1.2,9.9c0.4,3.3,0.8,6.5,1.3,9.7c-0.5-0.1-0.9-0.1-1.4-0.1c-0.4,0-0.9,0-1.4,0     s-0.9,0-1.4,0c-0.4,0-0.9,0-1.4,0.1c-0.4-5.1-0.9-10.1-1.3-15c-0.4-4.8-0.9-9.8-1.6-14.8h-0.1c-2.7,4.9-5.3,9.7-7.9,14.5     c-2.6,4.8-5,9.8-7.3,15.1h-0.5c-2.3-4.9-4.7-9.8-7.3-14.6c-2.5-4.9-5.1-9.9-7.6-15h-0.1c-0.3,2.4-0.6,5-0.9,7.8     c-0.3,2.8-0.6,5.6-0.9,8.3c-0.3,2.7-0.5,5.3-0.7,7.7c-0.2,2.4-0.3,4.4-0.3,5.9c-0.6-0.1-1.3-0.1-2-0.1c-0.7,0-1.4,0-2,0.1     c0.5-3.1,1-6.4,1.6-9.9c0.5-3.5,1.1-7,1.6-10.5c0.5-3.5,1-7,1.4-10.4c0.4-3.4,0.8-6.7,1.1-9.8h1     C205.2,118.8,207.9,124.1,210.6,129.3z"></path>
		</g>
		<g>
			<path class="st141" d="M13.6,180.8c-0.3,0-0.7,0-1,0s-0.6,0-0.9,0s-0.6,0-0.9,0s-0.6,0-0.9,0c-0.2-0.7-0.5-1.4-0.7-2.1     c-0.2-0.7-0.5-1.4-0.8-2.2c-0.5,0-0.9,0-1.4,0c-0.5,0-0.9,0-1.4,0c-0.4,0-0.7,0-1.1,0c-0.4,0-0.7,0-1.1,0     c-0.3,0.7-0.5,1.4-0.8,2.2c-0.2,0.7-0.5,1.4-0.7,2.1c-0.2,0-0.3,0-0.5,0c-0.2,0-0.3,0-0.5,0s-0.3,0-0.5,0s-0.4,0-0.6,0     c0.2-0.4,0.4-0.9,0.7-1.5c0.3-0.7,0.6-1.4,0.9-2.2c0.3-0.8,0.7-1.7,1.1-2.6s0.8-1.9,1.2-2.9c0.4-1,0.8-1.9,1.1-2.8     c0.4-0.9,0.7-1.8,1-2.6c0.1,0,0.3,0.1,0.4,0.1s0.3,0,0.4,0s0.3,0,0.4,0s0.3,0,0.4-0.1c0.5,1.2,0.9,2.5,1.5,3.9s1,2.7,1.6,4     c0.5,1.3,1,2.6,1.5,3.8C12.7,178.9,13.2,179.9,13.6,180.8z M6.1,170.2c-0.4,0.9-0.7,1.7-1,2.5c-0.3,0.8-0.6,1.7-1,2.5h3.9     c-0.3-0.9-0.6-1.7-0.9-2.5C6.7,171.8,6.4,171,6.1,170.2z"></path>
			<path class="st141" d="M25.7,171.9c-0.3-0.4-0.8-0.6-1.5-0.6c-0.8,0-1.5,0.4-1.9,1.2c-0.4,0.8-0.6,1.8-0.6,3.2     c0,1.3,0.3,2.3,0.8,3c0.5,0.7,1.3,1,2.4,1c0.4,0,0.9-0.1,1.3-0.3c0.4-0.2,0.7-0.4,0.9-0.7l0.3,0.2c-0.1,0.2-0.2,0.4-0.3,0.6     c-0.1,0.2-0.1,0.4-0.2,0.6c-0.3,0.2-0.7,0.4-1.2,0.6c-0.5,0.2-1,0.2-1.7,0.2c-1,0-1.9-0.1-2.6-0.4c-0.7-0.3-1.3-0.7-1.7-1.2     s-0.7-1.1-0.9-1.7s-0.3-1.3-0.3-1.9c0-0.8,0.1-1.5,0.4-2.2s0.6-1.2,1.1-1.7s1.1-0.9,1.8-1.1c0.7-0.3,1.5-0.4,2.3-0.4     c0.8,0,1.5,0.1,2.1,0.3c0.6,0.2,1.1,0.4,1.6,0.7c-0.2,0.3-0.3,0.6-0.5,1s-0.3,0.8-0.3,1.2h-0.5C26.3,172.8,26,172.3,25.7,171.9z"></path>
			<path class="st141" d="M40,171.9c-0.3-0.4-0.8-0.6-1.5-0.6c-0.8,0-1.5,0.4-1.9,1.2c-0.4,0.8-0.6,1.8-0.6,3.2c0,1.3,0.3,2.3,0.8,3     c0.5,0.7,1.3,1,2.4,1c0.4,0,0.9-0.1,1.3-0.3c0.4-0.2,0.7-0.4,0.9-0.7l0.3,0.2c-0.1,0.2-0.2,0.4-0.3,0.6c-0.1,0.2-0.1,0.4-0.2,0.6     c-0.3,0.2-0.7,0.4-1.2,0.6c-0.5,0.2-1,0.2-1.7,0.2c-1,0-1.9-0.1-2.6-0.4c-0.7-0.3-1.3-0.7-1.7-1.2s-0.7-1.1-0.9-1.7     s-0.3-1.3-0.3-1.9c0-0.8,0.1-1.5,0.4-2.2s0.6-1.2,1.1-1.7s1.1-0.9,1.8-1.1c0.7-0.3,1.5-0.4,2.3-0.4c0.8,0,1.5,0.1,2.1,0.3     c0.6,0.2,1.1,0.4,1.6,0.7c-0.2,0.3-0.3,0.6-0.5,1s-0.3,0.8-0.3,1.2h-0.5C40.5,172.8,40.3,172.3,40,171.9z"></path>
			<path class="st141" d="M50.1,175.7c0,0.6,0.1,1.1,0.2,1.6s0.3,0.9,0.5,1.3c0.2,0.4,0.5,0.6,0.9,0.9c0.4,0.2,0.8,0.3,1.3,0.3     c1,0,1.8-0.3,2.6-1l0.3,0.2l-0.5,1.2c-0.4,0.3-0.8,0.5-1.3,0.6c-0.5,0.2-1.1,0.2-2,0.2c-0.7,0-1.4-0.1-2-0.3     c-0.6-0.2-1.2-0.5-1.6-0.9c-0.5-0.4-0.8-1-1.1-1.7s-0.4-1.5-0.4-2.4c0-0.9,0.1-1.7,0.4-2.4c0.2-0.7,0.6-1.2,1-1.7s1-0.8,1.6-1     s1.3-0.3,2-0.3c1.4,0,2.5,0.4,3.2,1.2c0.7,0.8,1.1,2,1.1,3.5v0.4c0,0.1,0,0.2,0,0.3H50.1z M53.3,174.7c0-1.1-0.2-1.9-0.4-2.6     c-0.2-0.6-0.6-1-1.2-1c-0.3,0-0.6,0.1-0.8,0.3c-0.2,0.2-0.4,0.5-0.5,0.8c-0.1,0.3-0.2,0.7-0.3,1.1c-0.1,0.4-0.1,0.8-0.1,1.2H53.3     z"></path>
			<path class="st141" d="M62.3,168.3c0-1.2-0.1-2.3-0.1-3.5c0.2,0,0.4,0.1,0.7,0.1c0.3,0,0.6,0,0.9,0s0.6,0,0.9,0     c0.3,0,0.5,0,0.7-0.1c-0.1,1.2-0.1,2.4-0.1,3.5c0,1.2,0,2.4,0,3.8v1.4c0,1.4,0,2.7,0,3.8c0,1.2,0.1,2.3,0.1,3.5     c-0.2,0-0.4,0-0.7,0c-0.3,0-0.6,0-0.9,0s-0.6,0-0.9,0s-0.5,0-0.7,0c0.1-1.1,0.1-2.3,0.1-3.5c0-1.2,0-2.4,0-3.8v-1.4     C62.3,170.7,62.3,169.4,62.3,168.3z"></path>
			<path class="st141" d="M74.6,175.7c0,0.6,0.1,1.1,0.2,1.6s0.3,0.9,0.5,1.3c0.2,0.4,0.5,0.6,0.9,0.9c0.4,0.2,0.8,0.3,1.3,0.3     c1,0,1.8-0.3,2.6-1l0.3,0.2l-0.5,1.2c-0.4,0.3-0.8,0.5-1.3,0.6c-0.5,0.2-1.1,0.2-2,0.2c-0.7,0-1.4-0.1-2-0.3     c-0.6-0.2-1.2-0.5-1.6-0.9c-0.5-0.4-0.8-1-1.1-1.7s-0.4-1.5-0.4-2.4c0-0.9,0.1-1.7,0.4-2.4c0.2-0.7,0.6-1.2,1-1.7s1-0.8,1.6-1     s1.3-0.3,2-0.3c1.4,0,2.5,0.4,3.2,1.2c0.7,0.8,1.1,2,1.1,3.5v0.4c0,0.1,0,0.2,0,0.3H74.6z M77.9,174.7c0-1.1-0.2-1.9-0.4-2.6     c-0.2-0.6-0.6-1-1.2-1c-0.3,0-0.6,0.1-0.8,0.3c-0.2,0.2-0.4,0.5-0.5,0.8c-0.1,0.3-0.2,0.7-0.3,1.1c-0.1,0.4-0.1,0.8-0.1,1.2H77.9     z"></path>
			<path class="st141" d="M89.6,173.2c0.4-1,0.8-1.7,1.3-2.2c0.5-0.5,1.1-0.7,1.9-0.7c0.1,0,0.1,0,0.2,0c0,0,0.1,0,0.2,0     c0,0.2-0.1,0.4-0.1,0.7c0,0.2,0,0.5,0,0.9v0.7c0,0.1,0,0.2,0,0.4c0,0.1,0,0.2,0,0.4l-0.2,0.2c-0.1-0.1-0.3-0.2-0.5-0.2     c-0.2-0.1-0.4-0.1-0.6-0.1c-0.6,0-1.1,0.2-1.5,0.6c-0.4,0.4-0.6,0.9-0.6,1.5v0.8c0,0.9,0,1.7,0,2.4c0,0.8,0.1,1.5,0.1,2.2     c-0.2,0-0.4,0-0.7,0s-0.6,0-0.9,0c-0.3,0-0.6,0-0.9,0s-0.5,0-0.7,0c0.1-0.7,0.1-1.4,0.1-2.2c0-0.8,0-1.6,0-2.4v-0.8     c0-0.9,0-1.7,0-2.4c0-0.8-0.1-1.5-0.1-2.3c0.2,0,0.5,0.1,0.7,0.1c0.2,0,0.5,0,0.7,0c0.2,0,0.5,0,0.7,0c0.2,0,0.5,0,0.7-0.1     L89.6,173.2L89.6,173.2z"></path>
			<path class="st141" d="M98.9,171.7c0.6-0.5,1.2-0.8,1.9-1.1c0.7-0.3,1.4-0.4,2.1-0.4c0.6,0,1.1,0.1,1.6,0.2     c0.5,0.1,0.9,0.3,1.2,0.6s0.6,0.6,0.8,1.1s0.3,1,0.3,1.6c0,0.9,0,1.7,0,2.5c0,0.8,0,1.5,0,2.3c0,0.3,0,0.6,0.1,0.8     c0,0.2,0.1,0.3,0.2,0.4c0.1,0.1,0.2,0.2,0.4,0.2c0.2,0,0.4,0,0.6,0v0.5c-0.4,0.2-0.8,0.3-1,0.4c-0.3,0.1-0.6,0.1-0.9,0.1     c-0.5,0-0.9-0.1-1.3-0.4c-0.3-0.3-0.6-0.6-0.7-1.1c-0.3,0.5-0.7,0.8-1.1,1.1s-1,0.4-1.6,0.4c-0.5,0-1-0.1-1.4-0.2     s-0.7-0.3-0.9-0.6c-0.2-0.3-0.4-0.6-0.5-0.9c-0.1-0.3-0.2-0.7-0.2-1c0-0.5,0.1-0.9,0.2-1.2c0.1-0.3,0.4-0.6,0.6-0.9     c0.3-0.2,0.6-0.4,1-0.6c0.4-0.2,0.8-0.3,1.3-0.4c0.6-0.1,1.1-0.3,1.4-0.4c0.3-0.1,0.6-0.2,0.8-0.3s0.3-0.2,0.3-0.4     c0-0.1,0.1-0.3,0.1-0.5c0-0.5-0.2-0.9-0.5-1.3s-0.9-0.5-1.5-0.5c-0.2,0-0.5,0-0.7,0.1s-0.5,0.2-0.7,0.3c-0.2,0.1-0.4,0.2-0.6,0.4     c-0.2,0.1-0.3,0.3-0.4,0.4h-0.1L98.9,171.7z M103.9,177.5c0-0.6,0-1.1,0-1.4c0-0.3,0-0.6,0-0.8c-0.3,0.2-0.6,0.3-0.9,0.4     c-0.3,0.1-0.6,0.2-0.9,0.4s-0.5,0.4-0.7,0.7c-0.2,0.3-0.3,0.7-0.3,1.2c0,0.5,0.1,0.9,0.3,1.2c0.2,0.3,0.5,0.4,0.9,0.4     c0.5,0,0.8-0.2,1.1-0.5C103.7,178.7,103.9,178.2,103.9,177.5z"></path>
			<path class="st141" d="M118.6,171.2c0,0.2,0,0.4,0.1,0.5l-1.9,0c0,0.3-0.1,0.7-0.1,1.1c0,0.4,0,0.9,0,1.3c0,0.4,0,0.9,0,1.3     c0,0.4,0,0.8,0,1c0,0.7,0,1.3,0.1,1.8c0,0.5,0.1,0.8,0.2,1c0.1,0.2,0.2,0.4,0.4,0.5s0.4,0.1,0.6,0.1c0.3,0,0.5,0,0.6-0.1     c0.1,0,0.3-0.1,0.4-0.2v0.9c-0.3,0.1-0.6,0.2-1.1,0.3c-0.4,0.1-0.8,0.1-1.3,0.1c-1.8,0-2.7-1.1-2.7-3.2c0-0.4,0-0.9,0-1.4     c0-0.5,0-1,0.1-1.6c0-0.5,0-1.1,0.1-1.6s0-1,0-1.5l-1.5,0c0-0.2,0.1-0.3,0.1-0.5c0-0.2,0-0.4-0.1-0.6l1.5,0.1c0-0.4,0-0.8,0-1.2     s0-0.8-0.1-1.4c0.5-0.2,1-0.4,1.5-0.6c0.5-0.2,1-0.5,1.4-0.7l0.2,0.1c0,0.2-0.1,0.5-0.1,0.8c0,0.3,0,0.6-0.1,1c0,0.3,0,0.7,0,1     c0,0.3,0,0.7,0,1l1.9,0C118.6,170.9,118.6,171,118.6,171.2z"></path>
			<path class="st141" d="M126.7,175.7c0,0.6,0.1,1.1,0.2,1.6s0.3,0.9,0.5,1.3c0.2,0.4,0.5,0.6,0.9,0.9c0.4,0.2,0.8,0.3,1.3,0.3     c1,0,1.8-0.3,2.6-1l0.3,0.2l-0.5,1.2c-0.4,0.3-0.8,0.5-1.3,0.6c-0.5,0.2-1.1,0.2-2,0.2c-0.7,0-1.4-0.1-2-0.3     c-0.6-0.2-1.2-0.5-1.6-0.9c-0.5-0.4-0.8-1-1.1-1.7s-0.4-1.5-0.4-2.4c0-0.9,0.1-1.7,0.4-2.4c0.2-0.7,0.6-1.2,1-1.7s1-0.8,1.6-1     s1.3-0.3,2-0.3c1.4,0,2.5,0.4,3.2,1.2c0.7,0.8,1.1,2,1.1,3.5v0.4c0,0.1,0,0.2,0,0.3H126.7z M130,174.7c0-1.1-0.2-1.9-0.4-2.6     c-0.2-0.6-0.6-1-1.2-1c-0.3,0-0.6,0.1-0.8,0.3c-0.2,0.2-0.4,0.5-0.5,0.8c-0.1,0.3-0.2,0.7-0.3,1.1c-0.1,0.4-0.1,0.8-0.1,1.2H130z     "></path>
			<path class="st141" d="M153.4,167.2c-0.7,0-1.2,0.2-1.6,0.6c-0.4,0.4-0.6,0.8-0.6,1.3c0,0.5,0.2,1,0.5,1.3s0.7,0.6,1.2,0.9     c0.5,0.3,1,0.5,1.6,0.8c0.6,0.2,1.1,0.6,1.6,0.9c0.5,0.4,0.9,0.8,1.2,1.3c0.3,0.5,0.5,1.2,0.5,2c0,0.7-0.1,1.4-0.4,1.9     c-0.3,0.6-0.7,1.1-1.1,1.5c-0.5,0.4-1.1,0.7-1.8,1c-0.7,0.2-1.5,0.3-2.3,0.3c-0.8,0-1.4-0.1-2.1-0.2c-0.6-0.2-1.1-0.4-1.4-0.6     c0.1-0.5,0.3-0.9,0.4-1.4c0.1-0.4,0.2-0.9,0.3-1.3h0.4c0.1,0.3,0.2,0.6,0.3,0.9c0.2,0.3,0.4,0.5,0.6,0.7c0.2,0.2,0.5,0.4,0.9,0.5     s0.7,0.2,1.1,0.2c0.9,0,1.5-0.2,1.9-0.6c0.4-0.4,0.6-0.9,0.6-1.5c0-0.5-0.2-1-0.5-1.3s-0.7-0.6-1.2-0.9c-0.5-0.3-1-0.5-1.5-0.8     c-0.6-0.2-1.1-0.5-1.5-0.9c-0.5-0.4-0.9-0.8-1.2-1.3c-0.3-0.5-0.5-1.2-0.5-2c0-0.7,0.1-1.4,0.4-2c0.3-0.6,0.6-1,1.1-1.4     c0.4-0.4,0.9-0.7,1.5-0.9s1.2-0.3,1.8-0.3c0.8,0,1.4,0.1,2,0.3c0.6,0.2,1.1,0.4,1.5,0.8c-0.1,0.3-0.2,0.6-0.3,0.9     c-0.1,0.3-0.2,0.7-0.4,1.2H156C155.5,167.8,154.7,167.2,153.4,167.2z"></path>
			<path class="st141" d="M170.7,171.9c-0.3-0.4-0.8-0.6-1.5-0.6c-0.8,0-1.5,0.4-1.9,1.2c-0.4,0.8-0.6,1.8-0.6,3.2     c0,1.3,0.3,2.3,0.8,3c0.5,0.7,1.3,1,2.4,1c0.4,0,0.9-0.1,1.3-0.3c0.4-0.2,0.7-0.4,0.9-0.7l0.3,0.2c-0.1,0.2-0.2,0.4-0.3,0.6     c-0.1,0.2-0.1,0.4-0.2,0.6c-0.3,0.2-0.7,0.4-1.2,0.6c-0.5,0.2-1,0.2-1.7,0.2c-1,0-1.9-0.1-2.6-0.4c-0.7-0.3-1.3-0.7-1.7-1.2     s-0.7-1.1-0.9-1.7s-0.3-1.3-0.3-1.9c0-0.8,0.1-1.5,0.4-2.2s0.6-1.2,1.1-1.7s1.1-0.9,1.8-1.1c0.7-0.3,1.5-0.4,2.3-0.4     c0.8,0,1.5,0.1,2.1,0.3c0.6,0.2,1.1,0.4,1.6,0.7c-0.2,0.3-0.3,0.6-0.5,1s-0.3,0.8-0.3,1.2h-0.5     C171.3,172.8,171,172.3,170.7,171.9z"></path>
			<path class="st141" d="M178.4,166.5c0-0.5,0.2-0.9,0.5-1.2c0.3-0.3,0.7-0.5,1.2-0.5c0.5,0,0.9,0.2,1.2,0.5s0.5,0.7,0.5,1.2     c0,0.5-0.2,0.9-0.5,1.2s-0.7,0.5-1.2,0.5c-0.5,0-0.9-0.2-1.2-0.5C178.6,167.4,178.4,167,178.4,166.5z M178.6,175.3     c0-0.9,0-1.7,0-2.4c0-0.8-0.1-1.5-0.1-2.3c0.2,0,0.4,0.1,0.7,0.1s0.6,0,0.9,0c0.7,0,1.2,0,1.6-0.1c-0.1,0.8-0.1,1.5-0.1,2.3     c0,0.8,0,1.6,0,2.4v0.8c0,0.9,0,1.7,0,2.4c0,0.8,0.1,1.5,0.1,2.2c-0.2,0-0.4,0-0.7,0s-0.6,0-0.9,0s-0.6,0-0.9,0s-0.5,0-0.7,0     c0.1-0.7,0.1-1.4,0.1-2.2c0-0.8,0-1.6,0-2.4V175.3z"></path>
			<path class="st141" d="M190.8,175.7c0,0.6,0.1,1.1,0.2,1.6s0.3,0.9,0.5,1.3c0.2,0.4,0.5,0.6,0.9,0.9c0.4,0.2,0.8,0.3,1.3,0.3     c1,0,1.8-0.3,2.6-1l0.3,0.2l-0.5,1.2c-0.4,0.3-0.8,0.5-1.3,0.6c-0.5,0.2-1.1,0.2-2,0.2c-0.7,0-1.4-0.1-2-0.3     c-0.6-0.2-1.2-0.5-1.6-0.9c-0.5-0.4-0.8-1-1.1-1.7s-0.4-1.5-0.4-2.4c0-0.9,0.1-1.7,0.4-2.4c0.2-0.7,0.6-1.2,1-1.7s1-0.8,1.6-1     s1.3-0.3,2-0.3c1.4,0,2.5,0.4,3.2,1.2c0.7,0.8,1.1,2,1.1,3.5v0.4c0,0.1,0,0.2,0,0.3H190.8z M194.1,174.7c0-1.1-0.2-1.9-0.4-2.6     c-0.2-0.6-0.6-1-1.2-1c-0.3,0-0.6,0.1-0.8,0.3c-0.2,0.2-0.4,0.5-0.5,0.8c-0.1,0.3-0.2,0.7-0.3,1.1c-0.1,0.4-0.1,0.8-0.1,1.2     H194.1z"></path>
			<path class="st141" d="M205.9,172.1c0.4-0.6,0.9-1.1,1.4-1.4c0.5-0.3,1.1-0.5,1.8-0.5c1.1,0,1.9,0.3,2.5,0.9     c0.6,0.6,0.9,1.6,0.9,3c0,0.7,0,1.4,0,1.9c0,0.6,0,1.1,0,1.7c0,0.5,0,0.9,0,1.5c0,0.5,0,1,0.1,1.5c-0.2,0-0.4,0-0.7,0     s-0.6,0-0.9,0c-0.3,0-0.6,0-0.9,0c-0.3,0-0.5,0-0.7,0c0.1-0.7,0.2-1.6,0.2-2.6s0-2.1,0-3.4c0-0.9-0.2-1.5-0.5-2     c-0.3-0.4-0.7-0.6-1.3-0.6c-0.6,0-1.1,0.3-1.4,0.8c-0.3,0.6-0.4,1.3-0.4,2.3v0.8c0,0.9,0,1.7,0,2.4c0,0.8,0.1,1.5,0.1,2.2     c-0.2,0-0.4,0-0.7,0s-0.6,0-0.9,0c-0.3,0-0.6,0-0.9,0c-0.3,0-0.5,0-0.7,0c0.1-0.7,0.1-1.4,0.1-2.2c0-0.8,0-1.6,0-2.4v-0.8     c0-0.9,0-1.7,0-2.4c0-0.8-0.1-1.5-0.1-2.3c0.3,0,0.5,0.1,0.8,0.1c0.2,0,0.5,0,0.8,0c0.3,0,0.5,0,0.8,0s0.5,0,0.8-0.1L205.9,172.1     L205.9,172.1z"></path>
			<path class="st141" d="M225.7,171.9c-0.3-0.4-0.8-0.6-1.5-0.6c-0.8,0-1.5,0.4-1.9,1.2c-0.4,0.8-0.6,1.8-0.6,3.2     c0,1.3,0.3,2.3,0.8,3c0.5,0.7,1.3,1,2.4,1c0.4,0,0.9-0.1,1.3-0.3c0.4-0.2,0.7-0.4,0.9-0.7l0.3,0.2c-0.1,0.2-0.2,0.4-0.3,0.6     c-0.1,0.2-0.1,0.4-0.2,0.6c-0.3,0.2-0.7,0.4-1.2,0.6c-0.5,0.2-1,0.2-1.7,0.2c-1,0-1.9-0.1-2.6-0.4c-0.7-0.3-1.3-0.7-1.7-1.2     s-0.7-1.1-0.9-1.7s-0.3-1.3-0.3-1.9c0-0.8,0.1-1.5,0.4-2.2s0.6-1.2,1.1-1.7s1.1-0.9,1.8-1.1c0.7-0.3,1.5-0.4,2.3-0.4     c0.8,0,1.5,0.1,2.1,0.3c0.6,0.2,1.1,0.4,1.6,0.7c-0.2,0.3-0.3,0.6-0.5,1s-0.3,0.8-0.3,1.2h-0.5     C226.3,172.8,226.1,172.3,225.7,171.9z"></path>
			<path class="st141" d="M235.8,175.7c0,0.6,0.1,1.1,0.2,1.6s0.3,0.9,0.5,1.3c0.2,0.4,0.5,0.6,0.9,0.9c0.4,0.2,0.8,0.3,1.3,0.3     c1,0,1.8-0.3,2.6-1l0.3,0.2l-0.5,1.2c-0.4,0.3-0.8,0.5-1.3,0.6c-0.5,0.2-1.1,0.2-2,0.2c-0.7,0-1.4-0.1-2-0.3     c-0.6-0.2-1.2-0.5-1.6-0.9c-0.5-0.4-0.8-1-1.1-1.7s-0.4-1.5-0.4-2.4c0-0.9,0.1-1.7,0.4-2.4c0.2-0.7,0.6-1.2,1-1.7s1-0.8,1.6-1     s1.3-0.3,2-0.3c1.4,0,2.5,0.4,3.2,1.2c0.7,0.8,1.1,2,1.1,3.5v0.4c0,0.1,0,0.2,0,0.3H235.8z M239.1,174.7c0-1.1-0.2-1.9-0.4-2.6     c-0.2-0.6-0.6-1-1.2-1c-0.3,0-0.6,0.1-0.8,0.3c-0.2,0.2-0.4,0.5-0.5,0.8c-0.1,0.3-0.2,0.7-0.3,1.1c-0.1,0.4-0.1,0.8-0.1,1.2     H239.1z"></path>
		</g>
		<rect x="0.4" y="42" class="st140" width="40" height="5"></rect>
		<rect x="0.4" y="42" class="st140" width="40" height="5"></rect>
		<rect x="0.4" y="59" class="st142" width="40" height="5"></rect>
		<rect x="0.4" y="59" class="st142" width="40" height="5"></rect>
		<rect x="0.4" y="67" class="st143" width="40" height="5"></rect>
		<rect x="0.4" y="67" class="st143" width="40" height="5"></rect>
		<rect x="0.4" y="89" class="st141" width="40" height="5"></rect>
		<rect x="0.4" y="89" class="st141" width="40" height="5"></rect>
		<rect x="49.4" y="25" class="st142" width="40" height="5"></rect>
		<rect x="49.4" y="25" class="st142" width="40" height="5"></rect>
		<rect x="49.4" y="42" class="st140" width="40" height="5"></rect>
		<rect x="49.4" y="42" class="st140" width="40" height="5"></rect>
		<rect x="49.4" y="50" class="st143" width="40" height="5"></rect>
		<rect x="49.4" y="50" class="st143" width="40" height="5"></rect>
		<rect x="49.4" y="64" class="st141" width="40" height="5"></rect>
		<rect x="49.4" y="64" class="st141" width="40" height="5"></rect>
		<rect x="49.4" y="92" class="st142" width="40" height="5"></rect>
		<rect x="49.4" y="92" class="st142" width="40" height="5"></rect>
		<rect x="49.4" y="12" class="st141" width="40" height="5"></rect>
		<rect x="49.4" y="12" class="st141" width="40" height="5"></rect>
		<rect x="101.4" y="12" class="st143" width="40" height="5"></rect>
		<rect x="101.4" y="12" class="st143" width="40" height="5"></rect>
		<rect x="101.4" y="30" class="st141" width="40" height="5"></rect>
		<rect x="101.4" y="30" class="st141" width="40" height="5"></rect>
		<rect x="101.4" y="72" class="st140" width="40" height="5"></rect>
		<rect x="101.4" y="72" class="st140" width="40" height="5"></rect>
		<rect x="101.4" y="84" class="st142" width="40" height="5"></rect>
		<rect x="101.4" y="84" class="st142" width="40" height="5"></rect>
		<rect x="101.4" class="st142" width="40" height="5"></rect>
		<rect x="101.4" class="st142" width="40" height="5"></rect>
		<rect x="151.4" y="20" class="st142" width="40" height="5"></rect>
		<rect x="151.4" y="20" class="st142" width="40" height="5"></rect>
		<rect x="151.4" y="45" class="st143" width="40" height="5"></rect>
		<rect x="151.4" y="45" class="st143" width="40" height="5"></rect>
		<rect x="151.4" y="62" class="st143" width="40" height="5"></rect>
		<rect x="151.4" y="62" class="st143" width="40" height="5"></rect>
		<rect x="151.4" y="92" class="st142" width="40" height="5"></rect>
		<rect x="151.4" y="92" class="st142" width="40" height="5"></rect>
		<rect x="151.4" y="12" class="st140" width="40" height="5"></rect>
		<rect x="151.4" y="12" class="st140" width="40" height="5"></rect>
		<rect x="198.4" y="55" class="st142" width="40" height="5"></rect>
		<rect x="198.4" y="55" class="st142" width="40" height="5"></rect>
		<rect x="198.4" y="69" class="st140" width="40" height="5"></rect>
		<rect x="198.4" y="77" class="st143" width="40" height="5"></rect>
		<rect x="198.4" y="77" class="st143" width="40" height="5"></rect>
		<rect x="198.4" y="92" class="st141" width="40" height="5"></rect>
		<rect x="198.4" y="92" class="st141" width="40" height="5"></rect>
	</g>
</g>
</svg>