<?xml version="1.0" encoding="UTF-8"?>
<svg width="400px" height="37px" viewBox="0 0 400 37" version="1.1" xmlns="http://www.w3.org/2000/svg" xmlns:xlink="http://www.w3.org/1999/xlink">
    <!-- Generator: Sketch 51.2 (57519) - http://www.bohemiancoding.com/sketch -->
    <title>cdis-logo</title>
    <desc>Created with Sketch.</desc>
    <defs></defs>
    <g id="cdis-logo" stroke="none" stroke-width="1" fill="none" fill-rule="evenodd">
        <g id="cdis" fill="#741023" fill-rule="nonzero">
            <polygon id="Fill-1" points="186.4 36.9 187.5 36.9 187.5 0.1 186.4 0.1"></polygon>
            <path d="M198.6,14.3 C200.1,14.3 201.1,13.3 201.1,11.8 C201.1,10.3 200.1,9.3 198.6,9.3 L197.2,9.3 L197.2,14.3 L198.6,14.3 Z M195.4,7.6 L198.6,7.6 C201.2,7.6 203,9.4 203,11.7 C203,14 201.2,15.9 198.6,15.9 L195.4,15.9 L195.4,7.6 Z" id="Fill-3"></path>
            <path d="M204.6,16 L206.4,16 L206.4,9.6 L204.6,9.6 L204.6,16 Z M204.5,8.9 L206.4,8.9 L206.4,7.3 L204.5,7.3 L204.5,8.9 Z" id="Fill-4"></path>
            <polyline id="Fill-5" points="207.3 9.6 209.3 9.6 210.7 13.9 212.1 9.6 214 9.6 211.5 16 209.9 16 207.3 9.6"></polyline>
            <path d="M215,16 L216.8,16 L216.8,9.6 L215,9.6 L215,16 Z M214.9,8.9 L216.8,8.9 L216.8,7.3 L214.9,7.3 L214.9,8.9 Z" id="Fill-6"></path>
            <path d="M217.9,15.1 L218.7,13.9 C219.4,14.4 220.1,14.7 220.7,14.7 C221.2,14.7 221.5,14.5 221.5,14.2 C221.5,13.8 220.9,13.7 220.2,13.5 C219.3,13.2 218.3,12.8 218.3,11.6 C218.3,10.3 219.3,9.6 220.6,9.6 C221.4,9.6 222.3,9.9 223,10.3 L222.3,11.5 C221.7,11.1 221,10.9 220.6,10.9 C220.2,10.9 219.9,11.1 219.9,11.3 C219.9,11.7 220.5,11.8 221.2,12.1 C222.1,12.4 223.1,12.8 223.1,14 C223.1,15.4 222,16.1 220.7,16.1 C219.8,16.1 218.8,15.8 217.9,15.1" id="Fill-7"></path>
            <path d="M224.5,16 L226.3,16 L226.3,9.6 L224.5,9.6 L224.5,16 Z M224.4,8.9 L226.3,8.9 L226.3,7.3 L224.4,7.3 L224.4,8.9 Z" id="Fill-8"></path>
            <path d="M232.7,12.8 C232.7,11.8 232,11 231,11 C230,11 229.3,11.8 229.3,12.7 C229.3,13.6 230,14.5 231,14.5 C232.1,14.5 232.7,13.7 232.7,12.8 Z M227.6,12.8 C227.6,10.9 229.1,9.5 231.1,9.5 C233.1,9.5 234.5,11 234.5,12.8 C234.5,14.6 233,16.1 231,16.1 C229,16.1 227.6,14.6 227.6,12.8 Z" id="Fill-9"></path>
            <path d="M235.7,9.6 L237.5,9.6 L237.5,10.5 C237.9,10 238.5,9.5 239.4,9.5 C240.8,9.5 241.6,10.4 241.6,11.9 L241.6,16 L239.8,16 L239.8,12.4 C239.8,11.5 239.4,11.1 238.7,11.1 C238,11.1 237.6,11.5 237.6,12.4 L237.6,16 L235.8,16 L235.8,9.6" id="Fill-10"></path>
            <path d="M251.4,12.8 C251.4,11.8 250.7,11 249.7,11 C248.7,11 248,11.8 248,12.7 C248,13.6 248.7,14.5 249.7,14.5 C250.8,14.5 251.4,13.7 251.4,12.8 Z M246.3,12.8 C246.3,10.9 247.8,9.5 249.8,9.5 C251.8,9.5 253.2,11 253.2,12.8 C253.2,14.6 251.7,16.1 249.7,16.1 C247.8,16.1 246.3,14.6 246.3,12.8 Z" id="Fill-11"></path>
            <path d="M254.7,11.1 L254,11.1 L254,9.6 L254.8,9.6 L254.8,9.2 C254.8,8.5 255,8 255.3,7.7 C255.6,7.4 256.1,7.2 256.8,7.2 C257.4,7.2 257.8,7.3 258.1,7.4 L258.1,8.9 C257.8,8.8 257.6,8.7 257.3,8.7 C256.9,8.7 256.6,8.9 256.6,9.4 L256.6,9.6 L258.1,9.6 L258.1,11.1 L256.7,11.1 L256.7,16 L254.9,16 L254.9,11.1" id="Fill-12"></path>
            <path d="M262.7,14.1 L262.7,11.1 L262,11.1 L262,9.6 L262.8,9.6 L262.8,8 L264.6,8 L264.6,9.6 L266.1,9.6 L266.1,11.1 L264.6,11.1 L264.6,13.8 C264.6,14.2 264.8,14.4 265.2,14.4 C265.5,14.4 265.8,14.3 266.1,14.2 L266.1,15.7 C265.7,15.9 265.3,16.1 264.7,16.1 C263.5,16.1 262.7,15.6 262.7,14.1" id="Fill-13"></path>
            <path d="M267.4,7.3 L269.2,7.3 L269.2,10.5 C269.6,10 270.2,9.5 271.1,9.5 C272.5,9.5 273.3,10.4 273.3,11.9 L273.3,16 L271.5,16 L271.5,12.4 C271.5,11.5 271.1,11.1 270.4,11.1 C269.7,11.1 269.3,11.5 269.3,12.4 L269.3,16 L267.5,16 L267.5,7.3" id="Fill-14"></path>
            <path d="M279,12.3 C278.9,11.5 278.4,10.9 277.7,10.9 C276.9,10.9 276.5,11.4 276.3,12.3 L279,12.3 Z M274.5,12.8 C274.5,11 275.8,9.5 277.7,9.5 C279.8,9.5 280.8,11.2 280.8,13 C280.8,13.1 280.8,13.3 280.8,13.5 L276.4,13.5 C276.6,14.3 277.1,14.7 278,14.7 C278.6,14.7 279,14.5 279.5,14 L280.5,14.9 C279.9,15.6 279,16.1 277.9,16.1 C275.9,16.1 274.5,14.8 274.5,12.8 Z" id="Fill-15"></path>
            <path d="M289.7,14.4 C290.5,14.4 291,14.1 291,13.5 C291,12.9 290.6,12.6 289.6,12.6 L287.5,12.6 L287.5,14.4 L289.7,14.4 Z M289.2,11 C290,11 290.5,10.7 290.5,10.1 C290.5,9.6 290.1,9.2 289.3,9.2 L287.5,9.2 L287.5,11 L289.2,11 Z M285.8,7.6 L289.7,7.6 C290.7,7.6 291.4,7.9 291.9,8.3 C292.3,8.7 292.5,9.1 292.5,9.7 C292.5,10.6 292,11.2 291.4,11.5 C292.4,11.9 293,12.4 293,13.5 C293,15 291.8,15.8 289.9,15.8 L285.9,15.8 L285.9,7.6 L285.8,7.6 Z" id="Fill-16"></path>
            <path d="M294.3,16 L296.1,16 L296.1,9.6 L294.3,9.6 L294.3,16 Z M294.2,8.9 L296.1,8.9 L296.1,7.3 L294.2,7.3 L294.2,8.9 Z" id="Fill-17"></path>
            <path d="M302.5,12.8 C302.5,11.8 301.8,11 300.8,11 C299.8,11 299.1,11.8 299.1,12.7 C299.1,13.6 299.8,14.5 300.8,14.5 C301.9,14.5 302.5,13.7 302.5,12.8 Z M297.4,12.8 C297.4,10.9 298.9,9.5 300.9,9.5 C302.9,9.5 304.3,11 304.3,12.8 C304.3,14.6 302.8,16.1 300.8,16.1 C298.8,16.1 297.4,14.6 297.4,12.8 Z" id="Fill-18"></path>
            <polygon id="Fill-19" points="305.6 16 307.4 16 307.4 7.3 305.6 7.3"></polygon>
            <path d="M313.9,12.8 C313.9,11.8 313.2,11 312.2,11 C311.2,11 310.5,11.8 310.5,12.7 C310.5,13.6 311.2,14.5 312.2,14.5 C313.2,14.5 313.9,13.7 313.9,12.8 Z M308.7,12.8 C308.7,10.9 310.2,9.5 312.2,9.5 C314.2,9.5 315.6,11 315.6,12.8 C315.6,14.6 314.1,16.1 312.1,16.1 C310.2,16.1 308.7,14.6 308.7,12.8 Z" id="Fill-20"></path>
            <path d="M321.5,12.5 C321.5,11.6 320.8,11 319.9,11 C319,11 318.4,11.6 318.4,12.5 C318.4,13.4 319.1,14 319.9,14 C320.7,14 321.5,13.3 321.5,12.5 Z M316.9,17.2 L317.5,15.8 C318.2,16.2 318.8,16.4 319.7,16.4 C320.9,16.4 321.5,15.8 321.5,14.7 L321.5,14.4 C321,15 320.4,15.4 319.4,15.4 C317.9,15.4 316.6,14.3 316.6,12.4 C316.6,10.5 318,9.4 319.4,9.4 C320.4,9.4 321,9.8 321.5,10.4 L321.5,9.6 L323.3,9.6 L323.3,14.5 C323.3,15.6 323,16.5 322.5,17 C321.9,17.6 321,17.9 319.8,17.9 C318.7,17.9 317.7,17.6 316.9,17.2 Z" id="Fill-21"></path>
            <path d="M325,16 L326.8,16 L326.8,9.6 L325,9.6 L325,16 Z M324.9,8.9 L326.8,8.9 L326.8,7.3 L324.9,7.3 L324.9,8.9 Z" id="Fill-22"></path>
            <path d="M328.1,12.8 C328.1,11 329.5,9.5 331.4,9.5 C332.6,9.5 333.4,9.9 333.9,10.6 L332.8,11.8 C332.4,11.4 332,11.1 331.3,11.1 C330.4,11.1 329.8,11.9 329.8,12.8 C329.8,13.8 330.4,14.6 331.4,14.6 C332,14.6 332.4,14.3 332.9,13.9 L334,15 C333.4,15.7 332.7,16.2 331.4,16.2 C329.5,16.1 328.1,14.6 328.1,12.8" id="Fill-23"></path>
            <path d="M338.9,13.7 L338.9,13.4 C338.6,13.3 338.2,13.2 337.7,13.2 C336.9,13.2 336.5,13.5 336.5,14.1 C336.5,14.6 336.9,14.9 337.5,14.9 C338.3,14.8 338.9,14.4 338.9,13.7 Z M334.8,14.1 C334.8,12.7 335.9,12 337.4,12 C338,12 338.5,12.1 339,12.3 L339,12.2 C339,11.5 338.5,11 337.6,11 C336.9,11 336.4,11.1 335.8,11.3 L335.3,9.9 C336,9.6 336.7,9.4 337.8,9.4 C338.8,9.4 339.5,9.7 340,10.1 C340.5,10.6 340.7,11.3 340.7,12.1 L340.7,16 L339,16 L339,15.3 C338.6,15.8 338,16.1 337.1,16.1 C335.8,16.1 334.8,15.4 334.8,14.1 Z" id="Fill-24"></path>
            <polygon id="Fill-25" points="342.3 16 344.1 16 344.1 7.3 342.3 7.3"></polygon>
            <path d="M348.9,14.7 L350,13.4 C350.7,14 351.5,14.4 352.5,14.4 C353.3,14.4 353.7,14.1 353.7,13.6 C353.7,13.1 353.4,12.9 352,12.5 C350.3,12.1 349.2,11.6 349.2,10 C349.2,8.5 350.4,7.5 352.1,7.5 C353.3,7.5 354.3,7.9 355.2,8.6 L354.2,10 C353.5,9.5 352.7,9.2 352,9.2 C351.3,9.2 350.9,9.5 350.9,9.9 C350.9,10.4 351.3,10.6 352.7,11 C354.4,11.4 355.3,12 355.3,13.5 C355.3,15.2 354,16.1 352.2,16.1 C351.1,16.1 349.9,15.6 348.9,14.7" id="Fill-26"></path>
            <path d="M356.5,12.8 C356.5,11 357.9,9.5 359.8,9.5 C361,9.5 361.8,9.9 362.3,10.6 L361.2,11.8 C360.8,11.4 360.4,11.1 359.7,11.1 C358.8,11.1 358.2,11.9 358.2,12.8 C358.2,13.8 358.8,14.6 359.8,14.6 C360.4,14.6 360.8,14.3 361.3,13.9 L362.4,15 C361.8,15.7 361.1,16.2 359.8,16.2 C357.9,16.1 356.5,14.6 356.5,12.8" id="Fill-27"></path>
            <path d="M363.5,16 L365.3,16 L365.3,9.6 L363.5,9.6 L363.5,16 Z M363.5,8.9 L365.4,8.9 L365.4,7.3 L363.5,7.3 L363.5,8.9 Z" id="Fill-28"></path>
            <path d="M371.1,12.3 C371,11.5 370.5,10.9 369.8,10.9 C369.1,10.9 368.6,11.4 368.4,12.3 L371.1,12.3 Z M366.6,12.8 C366.6,11 367.9,9.5 369.8,9.5 C371.9,9.5 372.9,11.2 372.9,13 C372.9,13.1 372.9,13.3 372.9,13.5 L368.5,13.5 C368.7,14.3 369.3,14.7 370.1,14.7 C370.7,14.7 371.1,14.5 371.6,14 L372.6,14.9 C372,15.6 371.1,16.1 370,16.1 C368,16.1 366.6,14.8 366.6,12.8 Z" id="Fill-29"></path>
            <path d="M374.2,9.6 L376,9.6 L376,10.5 C376.4,10 377,9.5 377.9,9.5 C379.3,9.5 380.1,10.4 380.1,11.9 L380.1,16 L378.3,16 L378.3,12.4 C378.3,11.5 377.9,11.1 377.2,11.1 C376.5,11.1 376.1,11.5 376.1,12.4 L376.1,16 L374.3,16 L374.3,9.6" id="Fill-30"></path>
            <path d="M381.3,12.8 C381.3,11 382.7,9.5 384.6,9.5 C385.8,9.5 386.6,9.9 387.1,10.6 L386,11.8 C385.6,11.4 385.2,11.1 384.5,11.1 C383.6,11.1 383,11.9 383,12.8 C383,13.8 383.6,14.6 384.6,14.6 C385.2,14.6 385.6,14.3 386.1,13.9 L387.2,15 C386.6,15.7 385.9,16.2 384.6,16.2 C382.7,16.1 381.3,14.6 381.3,12.8" id="Fill-31"></path>
            <path d="M392.3,12.3 C392.2,11.5 391.7,10.9 391,10.9 C390.3,10.9 389.8,11.4 389.6,12.3 L392.3,12.3 Z M387.8,12.8 C387.8,11 389.1,9.5 391,9.5 C393.1,9.5 394.1,11.2 394.1,13 C394.1,13.1 394.1,13.3 394.1,13.5 L389.7,13.5 C389.9,14.3 390.4,14.7 391.3,14.7 C391.9,14.7 392.3,14.5 392.8,14 L393.8,14.9 C393.2,15.6 392.3,16.1 391.2,16.1 C389.2,16.1 387.8,14.8 387.8,12.8 Z" id="Fill-32"></path>
            <path d="M394.8,15.1 L395.6,13.9 C396.3,14.4 397,14.7 397.6,14.7 C398.1,14.7 398.4,14.5 398.4,14.2 C398.4,13.8 397.8,13.7 397.1,13.5 C396.2,13.2 395.2,12.8 395.2,11.6 C395.2,10.3 396.2,9.6 397.5,9.6 C398.3,9.6 399.2,9.9 399.9,10.3 L399.2,11.5 C398.6,11.1 397.9,10.9 397.5,10.9 C397.1,10.9 396.8,11.1 396.8,11.3 C396.8,11.7 397.4,11.8 398.1,12.1 C399,12.4 400,12.8 400,14 C400,15.4 398.9,16.1 397.6,16.1 C396.7,16.1 395.7,15.8 394.8,15.1" id="Fill-33"></path>
            <path d="M195,25.4 C195,23 196.8,21.1 199.3,21.1 C200.9,21.1 201.8,21.6 202.6,22.4 L201.4,23.7 C200.8,23.1 200.1,22.8 199.3,22.8 C197.9,22.8 196.9,24 196.9,25.4 C196.9,26.8 197.9,28 199.3,28 C200.3,28 200.8,27.6 201.5,27 L202.7,28.2 C201.8,29.1 200.9,29.7 199.3,29.7 C196.8,29.6 195,27.8 195,25.4" id="Fill-34"></path>
            <path d="M208,25.8 C207.9,25 207.4,24.4 206.7,24.4 C205.9,24.4 205.5,24.9 205.3,25.8 L208,25.8 Z M203.5,26.4 C203.5,24.6 204.8,23.1 206.7,23.1 C208.8,23.1 209.8,24.8 209.8,26.6 C209.8,26.7 209.8,26.9 209.8,27.1 L205.4,27.1 C205.6,27.9 206.1,28.3 207,28.3 C207.6,28.3 208,28.1 208.5,27.6 L209.5,28.5 C208.9,29.2 208,29.7 206.9,29.7 C204.9,29.6 203.5,28.3 203.5,26.4 Z" id="Fill-35"></path>
            <path d="M211,23.1 L212.8,23.1 L212.8,24 C213.2,23.5 213.8,23 214.7,23 C216.1,23 216.9,23.9 216.9,25.4 L216.9,29.5 L215.1,29.5 L215.1,25.9 C215.1,25 214.7,24.6 214,24.6 C213.3,24.6 212.9,25 212.9,25.9 L212.9,29.5 L211,29.5 L211,23.1" id="Fill-36"></path>
            <path d="M218.7,27.7 L218.7,24.7 L217.9,24.7 L217.9,23.2 L218.7,23.2 L218.7,21.6 L220.5,21.6 L220.5,23.2 L222,23.2 L222,24.7 L220.5,24.7 L220.5,27.4 C220.5,27.8 220.7,28 221.1,28 C221.4,28 221.7,27.9 222,27.8 L222,29.3 C221.6,29.5 221.2,29.7 220.6,29.7 C219.4,29.6 218.7,29.2 218.7,27.7" id="Fill-37"></path>
            <path d="M227.4,25.8 C227.3,25 226.8,24.4 226.1,24.4 C225.3,24.4 224.9,24.9 224.7,25.8 L227.4,25.8 Z M222.9,26.4 C222.9,24.6 224.2,23.1 226.1,23.1 C228.2,23.1 229.2,24.8 229.2,26.6 C229.2,26.7 229.2,26.9 229.2,27.1 L224.8,27.1 C225,27.9 225.6,28.3 226.4,28.3 C227,28.3 227.4,28.1 227.9,27.6 L228.9,28.5 C228.3,29.2 227.4,29.7 226.3,29.7 C224.3,29.6 222.9,28.3 222.9,26.4 Z" id="Fill-38"></path>
            <path d="M230.5,23.1 L232.3,23.1 L232.3,24.4 C232.7,23.5 233.3,22.9 234.3,23 L234.3,24.9 L234.2,24.9 C233,24.9 232.3,25.6 232.3,27.1 L232.3,29.5 L230.5,29.5 L230.5,23.1" id="Fill-39"></path>
            <path d="M239.2,24.7 L238.4,24.7 L238.4,23.2 L239.2,23.2 L239.2,22.8 C239.2,22.1 239.4,21.6 239.7,21.3 C240,21 240.5,20.8 241.2,20.8 C241.8,20.8 242.2,20.9 242.5,21 L242.5,22.5 C242.2,22.4 242,22.3 241.7,22.3 C241.3,22.3 241,22.5 241,23 L241,23.2 L242.5,23.2 L242.5,24.7 L241,24.7 L241,29.5 L239.2,29.5 L239.2,24.7" id="Fill-40"></path>
            <path d="M248.2,26.4 C248.2,25.4 247.5,24.6 246.5,24.6 C245.5,24.6 244.8,25.4 244.8,26.3 C244.8,27.2 245.5,28.1 246.5,28.1 C247.6,28.1 248.2,27.3 248.2,26.4 Z M243.1,26.4 C243.1,24.5 244.6,23.1 246.6,23.1 C248.6,23.1 250,24.6 250,26.4 C250,28.2 248.5,29.7 246.5,29.7 C244.5,29.6 243.1,28.2 243.1,26.4 Z" id="Fill-41"></path>
            <path d="M251.3,23.1 L253.1,23.1 L253.1,24.4 C253.5,23.5 254.1,22.9 255.1,23 L255.1,24.9 L255,24.9 C253.8,24.9 253.1,25.6 253.1,27.1 L253.1,29.5 L251.3,29.5 L251.3,23.1" id="Fill-42"></path>
            <path d="M263.1,27.9 C264.6,27.9 265.6,26.9 265.6,25.4 C265.6,23.9 264.6,22.9 263.1,22.9 L261.7,22.9 L261.7,27.9 L263.1,27.9 Z M259.9,21.2 L263.1,21.2 C265.7,21.2 267.5,23 267.5,25.3 C267.5,27.6 265.7,29.5 263.1,29.5 L259.9,29.5 L259.9,21.2 Z" id="Fill-43"></path>
            <path d="M272.7,27.3 L272.7,27 C272.4,26.9 272,26.8 271.5,26.8 C270.7,26.8 270.3,27.1 270.3,27.7 C270.3,28.2 270.7,28.5 271.3,28.5 C272.1,28.4 272.7,27.9 272.7,27.3 Z M268.5,27.7 C268.5,26.3 269.6,25.6 271.1,25.6 C271.7,25.6 272.2,25.7 272.7,25.9 L272.7,25.8 C272.7,25.1 272.2,24.6 271.3,24.6 C270.6,24.6 270.1,24.7 269.5,24.9 L269,23.5 C269.7,23.2 270.4,23 271.5,23 C272.5,23 273.2,23.3 273.7,23.7 C274.2,24.2 274.4,24.9 274.4,25.7 L274.4,29.4 L272.7,29.4 L272.7,28.7 C272.3,29.2 271.7,29.5 270.8,29.5 C269.5,29.6 268.5,28.9 268.5,27.7 Z" id="Fill-44"></path>
            <path d="M276.2,27.7 L276.2,24.7 L275.4,24.7 L275.4,23.2 L276.2,23.2 L276.2,21.6 L278,21.6 L278,23.2 L279.5,23.2 L279.5,24.7 L278,24.7 L278,27.4 C278,27.8 278.2,28 278.6,28 C278.9,28 279.2,27.9 279.5,27.8 L279.5,29.3 C279.1,29.5 278.7,29.7 278.1,29.7 C276.9,29.6 276.2,29.2 276.2,27.7" id="Fill-45"></path>
            <path d="M284.5,27.3 L284.5,27 C284.2,26.9 283.8,26.8 283.3,26.8 C282.5,26.8 282.1,27.1 282.1,27.7 C282.1,28.2 282.5,28.5 283.1,28.5 C284,28.4 284.5,27.9 284.5,27.3 Z M280.4,27.7 C280.4,26.3 281.5,25.6 283,25.6 C283.6,25.6 284.1,25.7 284.6,25.9 L284.6,25.8 C284.6,25.1 284.1,24.6 283.2,24.6 C282.5,24.6 282,24.7 281.4,24.9 L280.9,23.5 C281.6,23.2 282.3,23 283.4,23 C284.4,23 285.1,23.3 285.6,23.7 C286.1,24.2 286.3,24.9 286.3,25.7 L286.3,29.4 L284.6,29.4 L284.6,28.7 C284.2,29.2 283.6,29.5 282.7,29.5 C281.4,29.6 280.4,28.9 280.4,27.7 Z" id="Fill-46"></path>
            <polygon id="Fill-47" points="291.6 29.5 293.4 29.5 293.4 21.2 291.6 21.2"></polygon>
            <path d="M295.2,23.1 L297,23.1 L297,24 C297.4,23.5 298,23 298.9,23 C300.3,23 301.1,23.9 301.1,25.4 L301.1,29.5 L299.3,29.5 L299.3,25.9 C299.3,25 298.9,24.6 298.2,24.6 C297.5,24.6 297.1,25 297.1,25.9 L297.1,29.5 L295.3,29.5 L295.3,23.1" id="Fill-48"></path>
            <path d="M302.9,27.7 L302.9,24.7 L302.1,24.7 L302.1,23.2 L302.9,23.2 L302.9,21.6 L304.7,21.6 L304.7,23.2 L306.2,23.2 L306.2,24.7 L304.7,24.7 L304.7,27.4 C304.7,27.8 304.9,28 305.3,28 C305.6,28 305.9,27.9 306.2,27.8 L306.2,29.3 C305.8,29.5 305.4,29.7 304.8,29.7 C303.6,29.6 302.9,29.2 302.9,27.7" id="Fill-49"></path>
            <path d="M311.6,25.8 C311.5,25 311,24.4 310.3,24.4 C309.6,24.4 309.1,24.9 308.9,25.8 L311.6,25.8 Z M307.1,26.4 C307.1,24.6 308.4,23.1 310.3,23.1 C312.4,23.1 313.4,24.8 313.4,26.6 C313.4,26.7 313.4,26.9 313.4,27.1 L309,27.1 C309.2,27.9 309.8,28.3 310.6,28.3 C311.2,28.3 311.6,28.1 312.1,27.6 L313.1,28.5 C312.5,29.2 311.6,29.7 310.5,29.7 C308.5,29.6 307.1,28.3 307.1,26.4 Z" id="Fill-50"></path>
            <path d="M314.7,23.1 L316.5,23.1 L316.5,24 C316.9,23.5 317.5,23 318.4,23 C319.8,23 320.6,23.9 320.6,25.4 L320.6,29.5 L318.8,29.5 L318.8,25.9 C318.8,25 318.4,24.6 317.7,24.6 C317,24.6 316.6,25 316.6,25.9 L316.6,29.5 L314.8,29.5 L314.8,23.1" id="Fill-51"></path>
            <path d="M321.6,28.7 L322.4,27.5 C323.1,28 323.8,28.3 324.4,28.3 C324.9,28.3 325.2,28.1 325.2,27.8 C325.2,27.4 324.6,27.3 323.9,27.1 C323,26.8 322,26.4 322,25.2 C322,23.9 323,23.2 324.3,23.2 C325.1,23.2 326,23.5 326.7,23.9 L326,25.2 C325.4,24.8 324.7,24.6 324.3,24.6 C323.9,24.6 323.6,24.8 323.6,25 C323.6,25.4 324.2,25.5 324.9,25.8 C325.8,26.1 326.8,26.5 326.8,27.7 C326.8,29.1 325.7,29.8 324.4,29.8 C323.4,29.6 322.4,29.3 321.6,28.7" id="Fill-52"></path>
            <path d="M328.1,29.5 L329.9,29.5 L329.9,23.1 L328.1,23.1 L328.1,29.5 Z M328.1,22.4 L330,22.4 L330,20.8 L328.1,20.8 L328.1,22.4 Z" id="Fill-53"></path>
            <polyline id="Fill-54" points="330.9 23.1 332.8 23.1 334.2 27.4 335.7 23.1 337.6 23.1 335 29.6 333.4 29.6 330.9 23.1"></polyline>
            <path d="M342.4,25.8 C342.3,25 341.8,24.4 341.1,24.4 C340.4,24.4 339.9,24.9 339.7,25.8 L342.4,25.8 Z M337.9,26.4 C337.9,24.6 339.2,23.1 341.1,23.1 C343.2,23.1 344.2,24.8 344.2,26.6 C344.2,26.7 344.2,26.9 344.2,27.1 L339.8,27.1 C340,27.9 340.6,28.3 341.4,28.3 C342,28.3 342.4,28.1 342.9,27.6 L343.9,28.5 C343.3,29.2 342.4,29.7 341.3,29.7 C339.3,29.6 337.9,28.3 337.9,26.4 Z" id="Fill-55"></path>
            <path d="M348.6,28.3 L349.7,27 C350.4,27.6 351.2,28 352.2,28 C353,28 353.4,27.7 353.4,27.2 C353.4,26.7 353.1,26.5 351.7,26.1 C350,25.7 348.9,25.2 348.9,23.6 C348.9,22.1 350.1,21.1 351.8,21.1 C353,21.1 354,21.5 354.9,22.2 L353.9,23.6 C353.2,23.1 352.4,22.8 351.7,22.8 C351,22.8 350.6,23.1 350.6,23.5 C350.6,24 351,24.2 352.4,24.6 C354.1,25 355,25.6 355,27.1 C355,28.8 353.7,29.7 351.9,29.7 C350.9,29.6 349.6,29.2 348.6,28.3" id="Fill-56"></path>
            <path d="M356.2,26.4 C356.2,24.6 357.6,23.1 359.5,23.1 C360.7,23.1 361.5,23.5 362,24.2 L360.9,25.4 C360.5,25 360.1,24.7 359.4,24.7 C358.5,24.7 357.9,25.5 357.9,26.4 C357.9,27.4 358.5,28.2 359.5,28.2 C360.1,28.2 360.5,27.9 361,27.5 L362.1,28.6 C361.5,29.3 360.8,29.8 359.5,29.8 C357.6,29.6 356.2,28.2 356.2,26.4" id="Fill-57"></path>
            <path d="M363.3,29.5 L365.1,29.5 L365.1,23.1 L363.3,23.1 L363.3,29.5 Z M363.2,22.4 L365.1,22.4 L365.1,20.8 L363.2,20.8 L363.2,22.4 Z" id="Fill-58"></path>
            <path d="M370.9,25.8 C370.8,25 370.3,24.4 369.6,24.4 C368.9,24.4 368.4,24.9 368.2,25.8 L370.9,25.8 Z M366.4,26.4 C366.4,24.6 367.7,23.1 369.6,23.1 C371.7,23.1 372.7,24.8 372.7,26.6 C372.7,26.7 372.7,26.9 372.7,27.1 L368.3,27.1 C368.5,27.9 369.1,28.3 369.9,28.3 C370.5,28.3 370.9,28.1 371.4,27.6 L372.4,28.5 C371.8,29.2 370.9,29.7 369.8,29.7 C367.8,29.6 366.4,28.3 366.4,26.4 Z" id="Fill-59"></path>
            <path d="M373.9,23.1 L375.7,23.1 L375.7,24 C376.1,23.5 376.7,23 377.6,23 C379,23 379.8,23.9 379.8,25.4 L379.8,29.5 L378,29.5 L378,25.9 C378,25 377.6,24.6 376.9,24.6 C376.2,24.6 375.8,25 375.8,25.9 L375.8,29.5 L374,29.5 L374,23.1" id="Fill-60"></path>
            <path d="M381,26.4 C381,24.6 382.4,23.1 384.3,23.1 C385.5,23.1 386.3,23.5 386.8,24.2 L385.7,25.4 C385.3,25 384.9,24.7 384.2,24.7 C383.3,24.7 382.7,25.5 382.7,26.4 C382.7,27.4 383.3,28.2 384.3,28.2 C384.9,28.2 385.3,27.9 385.8,27.5 L386.9,28.6 C386.3,29.3 385.6,29.8 384.3,29.8 C382.4,29.6 381,28.2 381,26.4" id="Fill-61"></path>
            <path d="M392.1,25.8 C392,25 391.5,24.4 390.8,24.4 C390.1,24.4 389.6,24.9 389.4,25.8 L392.1,25.8 Z M387.6,26.4 C387.6,24.6 388.9,23.1 390.8,23.1 C392.9,23.1 393.9,24.8 393.9,26.6 C393.9,26.7 393.9,26.9 393.9,27.1 L389.5,27.1 C389.7,27.9 390.3,28.3 391.1,28.3 C391.7,28.3 392.1,28.1 392.6,27.6 L393.6,28.5 C393,29.2 392.1,29.7 391,29.7 C389,29.6 387.6,28.3 387.6,26.4 Z" id="Fill-62"></path>
            <path d="M177.4,2.9 C177.4,2.4 177.4,1.9 177.4,1.3 L177.4,1.2 L177.3,1.2 C177.2,1.2 176.4,1.2 175.7,1.2 L173.5,1.2 C173.1,1.2 172.6,1.2 172.1,1.2 C172,1.2 172,1.4 172,1.4 C172,1.5 172,1.6 172.1,1.6 L172.3,1.6 C172.9,1.7 172.9,1.7 172.9,3 L172.9,7.3 C172.9,8.6 172.9,8.6 172.3,8.7 L172,8.7 C171.9,8.8 171.9,8.9 171.9,9 C171.9,9.1 172,9.2 172,9.2 C172.6,9.2 173,9.2 173.5,9.2 C174,9.2 174.4,9.2 175.1,9.2 C175.2,9.2 175.2,9.1 175.2,9 C175.2,8.9 175.2,8.8 175.1,8.8 L174.7,8.7 C174.1,8.6 174.1,8.6 174.1,7.3 L174.1,5.8 C174.1,5.6 174.1,5.6 174.4,5.6 L175.2,5.6 C175.6,5.6 175.9,5.6 176.1,5.7 C176.3,5.8 176.4,5.9 176.4,6.1 L176.5,6.6 C176.6,6.7 176.9,6.7 176.9,6.6 C176.9,6.5 176.9,6.3 176.9,6.1 C176.9,5.9 176.9,5.6 176.9,5.4 C176.9,5.2 176.9,4.9 176.9,4.7 C176.9,4.5 176.9,4.3 176.9,4.2 C176.8,4.1 176.7,4.1 176.7,4.1 C176.6,4.1 176.5,4.1 176.5,4.2 L176.4,4.7 C176.3,5 176.3,5 176.2,5.1 C176.1,5.1 175.7,5.2 175.2,5.2 L174.4,5.2 C174,5 174,5 174,4.7 L174,2.2 C174,1.8 174,1.8 174.3,1.8 L175,1.8 C175.5,1.8 175.9,1.8 176.1,1.9 C176.6,2 176.8,2.4 176.9,3 C176.9,3 177,3.1 177.1,3.1 C177.2,3.1 177.4,3 177.4,2.9 Z M169.4,5.3 C169.4,3.3 168.1,1.1 165.2,1.1 C162.7,1.1 160.8,3 160.8,5.4 C160.8,7.5 162.3,9.6 165.2,9.6 C167.5,9.5 169.4,7.7 169.4,5.3 Z M168,5.6 C168,8.1 166.5,8.9 165.3,8.9 C162.8,8.9 162.2,6.4 162.2,4.9 C162.2,2.4 163.7,1.5 165,1.5 C167.2,1.6 168,3.8 168,5.6 Z M158.2,26.1 C158.2,31.3 162.1,35.8 168.4,35.8 C173.9,35.8 178.4,31.6 178.4,25.8 C178.4,20.7 175.1,15.9 168.4,15.9 C162.5,15.9 158.2,20.3 158.2,26.1 Z M161.1,25.1 C161.1,18.8 165,16.8 168,16.8 C173.5,16.8 175.6,21.9 175.6,26.7 C175.6,32.4 172.3,35 168.9,35 C163.1,34.9 161.1,29.4 161.1,25.1 Z M154.7,1.7 C154.8,1.6 154.8,1.6 154.8,1.5 C154.8,1.4 154.7,1.3 154.7,1.3 C153.8,1.3 153.3,1.3 152.4,1.3 C152.3,1.3 152.3,1.4 152.3,1.5 C152.3,1.6 152.3,1.7 152.4,1.8 L152.6,1.8 C152.8,1.8 153,1.9 153,1.9 C153,2.1 152.5,2.8 152.3,3.3 L152.2,3.4 C151.9,4 151.6,4.6 151.2,5.3 C150.9,4.7 150.6,4.1 150.3,3.5 C150.2,3.3 150.1,3 149.9,2.8 C149.8,2.6 149.5,2 149.5,1.9 C149.5,1.9 149.6,1.8 149.9,1.8 L150.1,1.8 C150.2,1.7 150.2,1.6 150.2,1.5 C150.2,1.4 150.1,1.4 150.1,1.3 C149.8,1.3 149.4,1.3 148.8,1.3 C148.2,1.3 147.8,1.3 147.4,1.3 C147.3,1.3 147.3,1.4 147.3,1.5 C147.3,1.6 147.3,1.7 147.4,1.8 L147.8,1.9 C148.1,2 148.3,2 148.7,2.8 L150.1,5.6 C150.4,6.3 150.5,6.4 150.5,7 L150.5,7.6 C150.5,8.9 150.5,9 149.9,9 L149.5,9 C149.4,9.1 149.4,9.2 149.4,9.3 C149.4,9.4 149.5,9.5 149.5,9.5 C150.1,9.5 150.6,9.5 151.1,9.5 C151.6,9.5 152,9.5 152.7,9.5 C152.8,9.5 152.8,9.4 152.8,9.3 C152.8,9.2 152.8,9.1 152.7,9 L152.2,9 C151.6,9 151.6,8.9 151.6,7.6 L151.6,6.8 C151.6,5.9 151.6,5.8 152.2,4.9 L153,3.6 C153.1,3.5 153.1,3.4 153.2,3.3 C153.7,2.5 154,1.9 154.5,1.8 L154.7,1.7 Z M150.5,16.3 C150,16.2 148.5,15.9 146.8,15.9 C142.5,15.9 139.6,17.3 137.7,19.3 C135.9,21.2 135.1,23.7 135.1,26.1 C135.1,28.6 136,30.9 137.7,32.6 C139.9,34.8 143,35.8 146.5,35.8 C148.1,35.8 150.1,35.5 151.6,35.1 C152.1,35 152.7,34.8 153,34.8 C153.1,34.7 153.1,34.5 153,34.5 C152.5,34.3 152.3,33.6 152.3,32.5 L152.3,30.9 C152.3,29.4 152.3,28.6 153.5,28.5 L154,28.4 C154.2,28.2 154.2,27.8 154,27.7 C153.1,27.8 152.1,27.8 151,27.8 C149.3,27.8 147.7,27.8 146.9,27.7 C146.7,27.8 146.7,28.3 146.9,28.4 L148.2,28.5 C150,28.7 150.1,28.9 150.1,31.3 L150.1,32.4 C150.1,33.3 150,33.8 149.8,34 C149.5,34.5 148.4,34.9 146.6,34.9 C140.8,34.9 138,30.6 138,25 C138,20.7 140.4,16.7 146,16.7 C148.9,16.7 151.1,17.7 151.9,20.8 C152.1,21 152.6,20.9 152.7,20.7 C152.4,19 152.3,17.5 152.3,16.5 C151.9,16.7 151.1,16.5 150.5,16.3 Z M145.6,1.1 C145.5,0.9 145.4,0.9 145.4,0.9 C145.4,0.9 145.3,0.9 145.3,0.9 C145.1,1.2 145.1,1.2 144.4,1.2 L139.4,1.2 C138.9,1.2 138.6,1.2 138.6,0.9 C138.6,0.9 138.5,0.8 138.4,0.8 C138.4,0.8 138.3,0.8 138.2,0.8 C138.1,1.3 137.9,2 137.7,2.6 C137.8,2.7 138,2.8 138.1,2.7 C138.2,2.4 138.3,2.2 138.6,1.9 C138.9,1.7 139.5,1.6 140,1.6 L140.7,1.6 C141,1.6 141,1.6 141,1.9 L141,7.3 C141,8.6 140.9,8.7 140.3,8.7 L139.9,8.7 C139.8,8.7 139.8,8.8 139.8,8.9 C139.8,9 139.8,9.1 139.9,9.1 C140.6,9.1 141.1,9.1 141.6,9.1 C142.1,9.1 142.5,9.1 143.2,9.1 C143.3,9 143.3,8.9 143.3,8.9 C143.3,8.8 143.3,8.7 143.2,8.7 L142.8,8.6 C142.2,8.5 142.2,8.5 142.2,7.2 L142.2,2.1 C142.2,2 142.2,1.9 142.2,1.8 C142.2,1.8 142.3,1.8 142.4,1.8 L143.3,1.8 C143.9,1.8 144.4,1.9 144.6,2.1 C144.7,2.2 144.8,2.5 144.9,2.9 C144.9,3 145,3 145.1,3 C145.2,3 145.3,3 145.3,2.9 C145.4,2.5 145.5,1.5 145.6,1.1 Z M134.7,7.4 L134.7,3.2 C134.7,1.9 134.7,1.8 135.3,1.8 L135.6,1.8 C135.7,1.8 135.7,1.7 135.7,1.6 C135.7,1.6 135.7,1.4 135.6,1.4 C135,1.4 134.6,1.4 134.1,1.4 C133.6,1.4 133.2,1.4 132.6,1.4 C132.5,1.4 132.5,1.6 132.5,1.6 C132.5,1.7 132.5,1.8 132.6,1.8 L132.9,1.8 C133.5,1.9 133.5,1.9 133.5,3.2 L133.5,7.5 C133.5,8.8 133.5,8.9 132.9,8.9 L132.6,8.9 C132.5,9 132.5,9.1 132.5,9.2 C132.5,9.3 132.6,9.4 132.6,9.4 C133.2,9.4 133.6,9.4 134.1,9.4 C134.6,9.4 135,9.4 135.6,9.4 C135.7,9.3 135.7,9.2 135.7,9.2 C135.7,9.1 135.7,9 135.6,9 L135.3,8.9 C134.7,8.8 134.7,8.7 134.7,7.4 Z M132.7,34.6 C131.5,34.5 131.1,34 130.3,31.6 L126.3,20 C125.9,18.7 125.4,17.4 125,16.1 C124.9,15.9 124.7,15.8 124.6,15.8 C124.3,16.2 123.8,16.7 123.1,16.9 C123.2,17.4 123,17.9 122.6,18.9 L119.7,26.7 C118.5,29.9 117.7,31.8 117.2,33.1 C116.8,34.1 116.2,34.5 115.5,34.5 L114.6,34.6 C114.4,34.7 114.5,35.2 114.7,35.3 C115.5,35.3 116.5,35.2 117.5,35.2 C118.9,35.2 119.7,35.2 120.5,35.3 C120.8,35.2 120.8,34.7 120.6,34.6 L119.7,34.5 C119,34.4 118.9,34.3 118.9,33.9 C118.9,33.6 119.1,32.8 119.5,31.5 L120.5,28.5 C120.7,27.9 120.9,27.8 121.6,27.8 L125.9,27.8 C126.8,27.8 126.9,27.9 127.1,28.5 L128.4,32.4 C128.6,33.1 128.8,33.6 128.8,33.9 C128.8,34.2 128.4,34.4 127.8,34.4 L127,34.5 C126.8,34.6 126.8,35.1 127.1,35.2 C127.9,35.2 129,35.1 130.4,35.1 C131.7,35.1 132.7,35.1 133.9,35.2 C134,35.1 134.1,34.6 133.9,34.5 L132.7,34.6 Z M125.3,26.8 L121.8,26.8 C121,26.8 121,26.8 121.2,26.1 L123,21.1 C123.3,20.2 123.6,19.5 123.7,19.4 L123.8,19.4 C124,19.7 124.2,20.5 124.5,21.2 L126.1,25.9 C126.2,26.7 126.1,26.8 125.3,26.8 Z M126.5,2.9 C126.5,2.4 126.7,1.7 127.8,1.7 C128.9,1.7 129.2,2.4 129.3,3 C129.3,3 129.4,3.1 129.5,3.1 C129.6,3.1 129.7,3.1 129.8,3 C129.8,2.5 129.7,1.8 129.6,1.5 L129.6,1.4 L129.5,1.4 C129.4,1.4 129.3,1.4 129.1,1.3 C128.8,1.2 128.4,1.1 128,1.1 C126.5,1.1 125.5,2 125.5,3.3 C125.5,4.4 126.3,5.1 126.8,5.4 L127.9,6.1 C128.7,6.6 128.8,7.2 128.8,7.7 C128.8,8.3 128.4,9 127.4,9 C126.2,9 125.7,8.1 125.4,7.3 C125.4,7.2 125.3,7.2 125.2,7.2 C125.1,7.2 125,7.2 124.9,7.3 C124.9,7.8 125.1,8.7 125.2,9 C125.4,9.1 126.1,9.5 127.1,9.5 C128.7,9.5 129.7,8.6 129.7,7.2 C129.7,6.2 129.2,5.5 128.2,4.8 L127.2,4.2 C127.1,4 126.5,3.5 126.5,2.9 Z M123.4,9.4 C123.5,9.4 123.5,9.3 123.5,9.2 C123.5,9.1 123.5,9.1 123.4,9.1 C123.1,9.1 122.8,9 122.6,8.8 C121.8,8.1 121.1,7.1 120.2,5.6 C120.1,5.5 120.1,5.5 120.1,5.4 C120.5,5.2 121.6,4.6 121.6,3.3 C121.6,2.3 121,1.8 120.6,1.5 C120,1.2 119.2,1.1 118.6,1.1 C117.5,1.1 116.7,1.1 115.9,1.2 C115.8,1.2 115.8,1.3 115.8,1.4 C115.8,1.5 115.8,1.6 115.9,1.7 L116.3,1.8 C116.7,1.8 116.7,1.9 116.7,3.1 L116.7,7.4 C116.7,8.7 116.7,8.7 116.1,8.8 L115.8,8.8 C115.7,8.9 115.7,9 115.7,9.1 C115.7,9.2 115.8,9.2 115.8,9.3 C116.3,9.3 116.8,9.3 117.3,9.3 C117.8,9.3 118.2,9.3 118.7,9.3 C118.8,9.3 118.8,9.1 118.8,9.1 C118.8,9 118.8,8.9 118.7,8.9 L118.4,8.9 C117.8,8.8 117.8,8.8 117.8,7.5 L117.8,5.9 C117.8,5.7 117.8,5.7 118.3,5.7 C118.8,5.7 118.9,5.8 119.1,6 C119.3,6.3 119.5,6.6 119.7,6.9 C119.9,7.2 120.1,7.6 120.3,7.8 C121.1,9 121.7,9.3 122.9,9.3 C123.1,9.5 123.3,9.5 123.4,9.4 Z M119.8,4.9 C119.5,5.2 119,5.2 118.6,5.2 C118.1,5.2 117.9,5.2 117.8,5.2 C117.8,5.2 117.8,5 117.8,4.9 L117.8,2.1 C117.8,1.8 117.8,1.8 118.5,1.8 C119.8,1.8 120.3,2.7 120.3,3.6 C120.4,4.2 120.2,4.6 119.8,4.9 Z M113.6,7.6 C113.5,7.4 113.4,7.4 113.3,7.4 C113.2,7.4 113.2,7.4 113.1,7.4 C112.8,8.1 112.4,8.4 112.3,8.5 C112,8.6 111.7,8.7 110.8,8.7 C109.8,8.7 109.5,8.6 109.4,8.5 C109.2,8.3 109.2,7.9 109.2,7.3 L109.2,5.7 C109.2,5.5 109.2,5.5 109.5,5.5 L110.2,5.5 C110.6,5.5 110.9,5.5 111.1,5.6 C111.3,5.6 111.4,5.8 111.4,6 L111.5,6.5 C111.5,6.6 111.6,6.6 111.7,6.6 C111.8,6.6 111.9,6.6 111.9,6.5 C111.9,6.4 111.9,6.2 111.9,6.1 C111.9,5.9 111.9,5.6 111.9,5.4 C111.9,5.1 111.9,4.9 111.9,4.7 C111.9,4.5 111.9,4.4 111.9,4.2 C111.9,4.1 111.8,4.1 111.7,4.1 C111.6,4.1 111.5,4.1 111.5,4.2 L111.4,4.7 C111.3,5 111.3,5 111.2,5.1 C111.1,5.1 110.7,5.2 110.2,5.2 L109.5,5.2 C109.2,5.2 109.2,5.2 109.2,5 L109.2,2.2 C109.2,1.8 109.2,1.8 109.5,1.8 L110.4,1.8 C110.9,1.8 111.3,1.8 111.5,1.9 C112,2 112.2,2.4 112.3,2.9 L112.3,3 C112.3,3 112.4,3.1 112.5,3.1 C112.6,3.1 112.7,3.1 112.8,3 L112.8,2.8 C112.7,2.1 112.7,1.5 112.6,1.3 L112.6,1.2 L112.5,1.2 C112.4,1.2 111.6,1.2 110.9,1.2 L108.6,1.2 C108.1,1.2 107.7,1.2 107.2,1.2 C107.1,1.2 107.1,1.4 107.1,1.4 C107.1,1.5 107.1,1.6 107.2,1.6 L107.4,1.6 C108,1.7 108,1.8 108,3 L108,7.3 C108,8.6 107.9,8.7 107.3,8.7 L106.9,8.7 C106.8,8.8 106.8,8.9 106.8,9 C106.8,9.1 106.9,9.2 106.9,9.2 C107.6,9.2 108,9.2 108.5,9.2 L109.6,9.2 C110.6,9.2 111.7,9.2 112.8,9.2 L112.9,9.2 L112.9,9.1 C113.3,9 113.6,8.1 113.6,7.6 Z M105.4,1.7 C105.5,1.6 105.5,1.5 105.5,1.4 C105.5,1.3 105.5,1.2 105.4,1.2 C105,1.2 104.6,1.2 104.2,1.2 C103.7,1.2 103.3,1.2 103,1.2 C102.9,1.2 102.9,1.3 102.9,1.4 C102.9,1.5 102.9,1.6 103,1.6 L103.2,1.6 C103.6,1.6 103.7,1.7 103.7,1.7 C103.7,1.8 103.7,1.9 103.6,2.1 C103.4,2.6 102.8,4 102.5,4.8 C102.4,5 102.3,5.3 102.2,5.6 C102,6.1 101.7,6.8 101.5,7.3 C100.9,6 100.4,4.7 99.9,3.4 C99.6,2.5 99.3,1.9 99.3,1.8 C99.3,1.8 99.4,1.7 99.8,1.7 L100,1.7 C100.1,1.6 100.1,1.6 100.1,1.5 C100.1,1.4 100,1.3 100,1.3 C99.5,1.3 99,1.3 98.6,1.3 C98.1,1.3 97.7,1.3 97.4,1.3 C97.3,1.3 97.3,1.4 97.3,1.5 C97.3,1.6 97.3,1.7 97.4,1.7 L97.6,1.7 C98.1,1.8 98.2,2 98.5,2.6 L100.6,7.8 C100.9,8.4 101,9 101.1,9.4 C101.2,9.4 101.2,9.4 101.3,9.4 C101.4,9.4 101.4,9.4 101.5,9.3 C101.7,8.7 102.3,7.2 102.7,6.2 L103.3,4.7 C103.9,3.4 104.3,2.5 104.6,2 C104.8,1.8 104.9,1.6 105.2,1.6 L105.4,1.7 Z M97.6,18.4 C95.4,20 94,22.8 94,26 C94,29.7 95.8,32.3 98.1,33.9 C100.2,35.3 102.7,35.8 105.3,35.8 C107.1,35.8 109.2,35.4 109.8,35.1 C110.1,35 110.5,34.9 110.8,34.8 C111.2,34.3 112,32.4 112.2,30.9 C112.1,30.7 111.7,30.6 111.5,30.8 C110.8,32.5 109.2,34.9 105.5,34.9 C100.8,34.9 97,31.6 97,25.5 C97,19.5 100.7,16.8 105.1,16.8 C109.3,16.8 110.6,19 111,21 C111.2,21.2 111.6,21.1 111.8,20.9 C111.6,19.1 111.4,17.3 111.4,16.7 C111.1,16.7 110.9,16.7 110.6,16.6 C109.2,16.2 107.1,15.9 105.5,15.9 C102.4,15.9 99.7,16.7 97.6,18.4 Z M93.9,7.4 L93.9,3.2 C93.9,1.9 93.9,1.8 94.5,1.8 L94.8,1.8 C95,1.6 95,1.6 95,1.5 C95,1.5 95,1.3 94.9,1.3 C94.3,1.3 93.9,1.3 93.4,1.3 C92.9,1.3 92.5,1.3 91.9,1.3 C91.8,1.3 91.8,1.5 91.8,1.5 C91.8,1.6 91.8,1.7 91.9,1.7 L92.2,1.7 C92.8,1.8 92.8,1.8 92.8,3.1 L92.8,7.4 C92.8,8.7 92.8,8.8 92.1,8.8 L91.8,8.8 C91.7,8.9 91.7,9 91.7,9.1 C91.7,9.2 91.8,9.3 91.8,9.3 C92.4,9.3 92.8,9.3 93.3,9.3 C93.8,9.3 94.2,9.3 94.8,9.3 C95,9.3 95,9.2 95,9.1 C95,9 95,9 94.9,8.9 L94.6,8.8 C94,8.8 93.9,8.7 93.9,7.4 Z M87.9,31 L87.9,20.7 C87.9,17.7 88,17.2 89.7,17 L90.4,16.9 C90.6,16.8 90.5,16.3 90.3,16.2 C88.9,16.3 87.9,16.3 86.7,16.3 C85.5,16.3 84.5,16.3 83.1,16.2 C82.9,16.3 82.9,16.8 83,16.9 L83.7,17 C85.4,17.1 85.5,17.6 85.5,20.7 L85.5,31 C85.5,34 85.4,34.4 83.7,34.7 L83,34.8 C82.8,35 82.9,35.4 83.1,35.5 C84.5,35.4 85.5,35.4 86.7,35.4 C87.9,35.4 88.8,35.4 90.3,35.5 C90.5,35.4 90.5,34.9 90.4,34.8 L89.7,34.7 C88,34.4 87.9,34 87.9,31 Z M89.4,1.7 C89.5,1.6 89.5,1.5 89.5,1.5 C89.5,1.4 89.4,1.3 89.4,1.3 C89,1.3 88.7,1.3 88.2,1.3 C87.8,1.3 87.4,1.3 86.8,1.3 C86.7,1.3 86.7,1.4 86.7,1.5 C86.7,1.6 86.7,1.7 86.8,1.8 L87,1.8 C87.4,1.9 87.6,1.9 87.7,2 C87.8,2.2 87.9,3.1 87.9,4.4 L87.9,7 C87.9,7.1 87.9,7.2 87.9,7.3 C87.5,6.9 87,6.4 86.5,5.8 L84.8,3.9 C83.6,2.6 82.9,1.7 82.8,1.3 L82.8,1.2 L82.7,1.2 C82.6,1.2 82.4,1.2 82.2,1.2 C82,1.2 81.4,1.2 80.9,1.2 C80.8,1.2 80.8,1.3 80.8,1.4 C80.8,1.5 80.8,1.6 80.9,1.7 L81.1,1.7 C81.4,1.7 81.7,1.8 81.8,2 C82,2.2 82,2.5 82,2.8 L82,6.4 C82,7 82,8.3 81.9,8.7 C81.9,8.8 81.8,8.8 81.4,8.9 L81,8.9 C80.9,9 80.9,9 80.9,9.1 C80.9,9.2 80.9,9.3 81,9.3 C81.4,9.3 81.7,9.3 82.2,9.3 C82.6,9.3 83,9.3 83.6,9.3 C83.7,9.3 83.7,9.2 83.7,9.1 C83.7,9 83.7,8.9 83.6,8.9 L83.2,8.9 C82.9,8.9 82.7,8.8 82.7,8.7 C82.6,8.5 82.5,7.6 82.5,6.3 L82.5,3.6 C82.5,3.4 82.5,3.2 82.5,3 C82.6,3.2 83,3.6 83.2,4 C83.4,4.2 83.6,4.4 83.7,4.6 L86.5,7.8 C87.4,8.9 87.9,9.4 88,9.6 C88.2,9.6 88.3,9.5 88.3,9.4 C88.3,9.3 88.3,8.8 88.3,7.3 L88.3,4.3 C88.3,3.7 88.3,2.4 88.5,2 C88.5,2 88.7,1.9 89.1,1.8 L89.4,1.7 Z M78.7,1.7 C78.8,1.6 78.8,1.5 78.8,1.4 C78.8,1.3 78.7,1.3 78.7,1.2 C78.3,1.2 78,1.2 77.4,1.2 C76.9,1.2 76.5,1.2 76,1.2 C75.9,1.2 75.9,1.3 75.9,1.4 C75.9,1.5 75.9,1.6 76,1.6 L76.3,1.6 C76.6,1.6 76.8,1.7 76.8,1.8 C76.9,2.2 77,3 77,4.4 L77,5.8 C77,7.2 76.6,8.9 74.7,8.9 C73.1,8.9 72.4,7.9 72.4,5.8 L72.4,3.1 C72.4,1.8 72.4,1.7 73,1.7 L73.3,1.7 C73.4,1.7 73.4,1.6 73.4,1.5 C73.4,1.4 73.4,1.3 73.3,1.3 C72.7,1.3 72.3,1.3 71.8,1.3 C71.3,1.3 70.9,1.3 70.3,1.3 C70.2,1.3 70.2,1.4 70.2,1.5 C70.2,1.6 70.2,1.7 70.3,1.7 L70.6,1.7 C71.2,1.8 71.2,1.8 71.2,3.1 L71.2,6 C71.2,7.4 71.5,8.3 72.2,8.9 C72.7,9.4 73.5,9.6 74.5,9.6 C75.4,9.6 76.3,9.3 76.9,8.7 C77.5,8.1 77.8,7.1 77.8,5.8 L77.8,4.4 C77.8,3.8 77.8,2.4 78,2 C78.1,1.9 78.3,1.8 78.5,1.8 L78.7,1.7 Z M64.9,17 C65.1,16.9 65,16.4 64.8,16.3 C63.6,16.4 62.6,16.4 61.5,16.4 C60.3,16.4 59.3,16.3 57.9,16.3 C57.7,16.4 57.7,16.9 57.8,17 L58.5,17.1 C60,17.2 60.2,17.7 60.2,20.7 L60.2,31 C60.2,34 60.1,34.3 58.5,34.6 L58,34.7 C57.8,34.9 57.9,35.3 58.1,35.4 C59.2,35.4 60.2,35.3 61.4,35.3 C62.5,35.3 63.5,35.3 65.1,35.4 C65.3,35.3 65.3,34.8 65.2,34.7 L64.4,34.6 C62.8,34.4 62.6,34 62.6,31 L62.6,27 C62.6,26.1 62.7,26.1 64,26.1 L72.2,26.1 C73.6,26.1 73.6,26.2 73.6,27 L73.6,31 C73.6,34 73.6,34.3 71.8,34.6 L71.3,34.7 C71.1,34.9 71.2,35.3 71.4,35.4 C72.7,35.3 73.7,35.3 74.9,35.3 C76,35.3 77,35.3 78.4,35.4 C78.6,35.3 78.6,34.8 78.5,34.7 L77.8,34.6 C76.1,34.4 76.1,34 76.1,31 L76.1,20.7 C76.1,17.7 76.2,17.2 77.8,17.1 L78.4,17 C78.6,16.9 78.5,16.4 78.3,16.3 C77,16.4 76,16.4 74.9,16.4 C73.7,16.4 72.7,16.4 71.4,16.3 C71.2,16.4 71.2,16.9 71.3,17 L71.8,17.1 C73.5,17.3 73.6,17.7 73.6,20.7 L73.6,24 C73.6,24.9 73.5,24.9 72.2,24.9 L64,24.9 C62.6,24.9 62.6,24.9 62.6,24 L62.6,20.7 C62.6,17.7 62.7,17.2 64.3,17.1 L64.9,17 Z M63.7,7.6 C63.6,7.4 63.5,7.4 63.4,7.4 C63.3,7.4 63.3,7.4 63.2,7.4 C62.9,8.1 62.5,8.4 62.4,8.5 C62.1,8.6 61.8,8.7 60.9,8.7 C59.9,8.7 59.6,8.6 59.5,8.5 C59.3,8.3 59.3,7.9 59.3,7.3 L59.3,5.7 C59.3,5.5 59.3,5.5 59.6,5.5 L60.3,5.5 C60.7,5.5 61,5.5 61.2,5.6 C61.4,5.6 61.5,5.8 61.5,6 L61.6,6.5 C61.6,6.6 61.7,6.6 61.8,6.6 C61.9,6.6 62,6.6 62,6.5 C62,6.4 62,6.2 62,6.1 C62,5.9 62,5.6 62,5.4 C62,5.1 62,4.9 62,4.7 C62,4.5 62,4.4 62,4.2 C62,4.1 61.9,4.1 61.8,4.1 C61.7,4.1 61.6,4.1 61.6,4.2 L61.5,4.7 C61.4,5 61.4,5 61.3,5.1 C61.2,5.1 60.8,5.2 60.3,5.2 L59.6,5.2 C59.3,5.2 59.3,5.2 59.3,5 L59.3,2.2 C59.3,1.8 59.3,1.8 59.6,1.8 L60.5,1.8 C61,1.8 61.4,1.8 61.6,1.9 C62.1,2 62.3,2.4 62.4,2.9 L62.4,3 C62.4,3 62.5,3.1 62.6,3.1 C62.7,3.1 62.8,3.1 62.9,3 L62.9,2.8 C62.8,2.1 62.8,1.5 62.7,1.3 L62.7,1.2 L62.6,1.2 C62.5,1.2 61.7,1.2 61,1.2 L58.7,1.2 C58.2,1.2 57.8,1.2 57.3,1.2 C57.2,1.2 57.2,1.4 57.2,1.4 C57.2,1.5 57.2,1.6 57.3,1.6 L57.5,1.6 C58.1,1.7 58.1,1.8 58.1,3 L58.1,7.3 C58.1,8.6 58,8.7 57.4,8.7 L57,8.7 C57,9 57,9.1 57,9.2 C57,9.3 57.1,9.4 57.1,9.4 C57.8,9.4 58.2,9.4 58.7,9.4 L59.8,9.4 C60.8,9.4 61.9,9.4 63,9.4 L63.1,9.4 L63.1,9.3 C63.3,9 63.6,8.1 63.7,7.6 Z M53.7,7.5 L53.7,3.1 C53.7,1.8 53.7,1.7 54.3,1.7 L54.6,1.7 C54.7,1.7 54.7,1.6 54.7,1.5 C54.7,1.5 54.7,1.3 54.6,1.3 C54,1.3 53.6,1.3 53.2,1.3 C52.7,1.3 52.3,1.3 51.8,1.3 C51.7,1.3 51.7,1.5 51.7,1.5 C51.7,1.6 51.7,1.7 51.8,1.7 L52.1,1.7 C52.7,1.8 52.7,1.8 52.7,3.1 L52.7,4.5 C52.7,4.8 52.7,4.8 52.2,4.8 L48.8,4.8 C48.3,4.8 48.3,4.8 48.3,4.5 L48.3,3.1 C48.3,1.8 48.3,1.7 48.9,1.7 L49.1,1.7 C49.2,1.7 49.2,1.6 49.2,1.5 C49.2,1.5 49.2,1.3 49.1,1.3 C48.6,1.3 48.2,1.3 47.7,1.3 C47.4,1.3 47.1,1.3 46.8,1.3 C46.6,1.3 46.4,1.3 46.2,1.3 C46.1,1.3 46.1,1.5 46.1,1.5 C46.1,1.6 46.1,1.7 46.2,1.7 L46.5,1.7 C47,1.7 47.1,1.8 47.1,3.1 L47.1,7.4 C47.1,8.6 47.1,8.7 46.5,8.8 L46.3,8.8 C46,9 46,9.1 46,9.2 C46,9.3 46.1,9.4 46.1,9.4 C46.3,9.4 46.4,9.4 46.6,9.4 C46.9,9.4 47.2,9.4 47.5,9.4 C48,9.4 48.3,9.4 49,9.4 C49.1,9.4 49.1,9.3 49.1,9.2 C49.1,9.1 49.1,9 49,9 L48.6,8.9 C48,8.8 48,8.8 48,7.5 L48,5.8 C48,5.5 48,5.5 48.5,5.5 L52,5.5 C52.5,5.5 52.5,5.5 52.5,5.8 L52.5,7.5 C52.5,8.8 52.5,8.8 51.8,8.9 L51.5,8.9 C51.4,9 51.4,9.1 51.4,9.2 C51.4,9.3 51.5,9.4 51.5,9.4 C52.1,9.4 52.5,9.4 52.9,9.4 C53.4,9.4 53.8,9.4 54.3,9.4 C54.4,9.4 54.4,9.2 54.4,9.2 C54.4,9.1 54.4,9 54.3,9 L54,8.9 C53.7,8.8 53.7,8.7 53.7,7.5 Z M43.9,1.1 C43.8,0.9 43.7,0.9 43.7,0.9 C43.7,0.9 43.6,0.9 43.6,0.9 C43.4,1.2 43.4,1.2 42.7,1.2 L37.7,1.2 C37.2,1.2 36.9,1.2 36.9,0.9 C36.9,0.9 36.8,0.8 36.7,0.8 C36.7,0.8 36.6,0.8 36.5,0.8 C36.4,1.3 36.2,2 36,2.6 C36.1,2.7 36.3,2.8 36.5,2.7 C36.6,2.4 36.7,2.2 37,1.9 C37.3,1.7 37.9,1.6 38.4,1.6 L39.1,1.6 C39.4,1.6 39.4,1.6 39.4,1.9 L39.4,7.3 C39.4,8.6 39.3,8.7 38.7,8.7 L38.3,8.7 C38.2,8.7 38.2,8.8 38.2,8.9 C38.2,9 38.2,9.1 38.3,9.1 C39,9.1 39.5,9.1 40,9.1 C40.5,9.1 40.9,9.1 41.6,9.1 C41.7,9.1 41.7,9 41.7,8.9 C41.7,8.8 41.7,8.7 41.6,8.7 L41.2,8.6 C40.6,8.5 40.6,8.5 40.6,7.2 L40.6,2.1 C40.6,2 40.6,1.9 40.6,1.8 C40.6,1.8 40.7,1.8 40.8,1.8 L41.6,1.8 C42.2,1.8 42.7,1.9 42.9,2.1 C43,2.2 43.1,2.5 43.2,2.9 C43.3,3 43.3,3 43.4,3 C43.5,3 43.6,3 43.6,2.9 C43.7,2.5 43.7,1.5 43.9,1.1 Z M35.7,26 C35.7,29.7 37.5,32.3 39.8,33.9 C41.9,35.3 44.4,35.8 47,35.8 C48.8,35.8 50.9,35.4 51.5,35.1 C51.8,35 52.2,34.9 52.5,34.8 C52.9,34.3 53.7,32.4 53.9,30.9 C53.8,30.7 53.4,30.6 53.2,30.8 C52.5,32.5 50.9,34.9 47.2,34.9 C42.5,34.9 38.7,31.6 38.7,25.5 C38.7,19.5 42.4,16.8 46.8,16.8 C51,16.8 52.3,19 52.7,21 C52.9,21.2 53.3,21.1 53.5,20.9 C53.3,19.1 53.1,17.3 53.1,16.7 C52.8,16.7 52.6,16.7 52.3,16.6 C50.9,16.2 48.8,15.9 47.2,15.9 C44.2,15.9 41.5,16.7 39.4,18.3 C37.1,20 35.7,22.8 35.7,26 Z M28.2,21.1 L28.2,1.1 C12.1,-0.5 0,1.1 0,1.1 C0,1.1 0,21.1 0,21.1 C1.3,34.7 14,36.3 14.1,36.2 C16.4,35.9 27,33.7 28.2,21.1 Z M27.5,21 C26.4,33.1 16.3,35.2 14.1,35.5 C14,35.6 1.9,34 0.7,21 C0.7,21 0.7,1.8 0.7,1.8 C0.7,1.8 12.2,0.3 27.5,1.8 L27.5,21 Z M23.4,28.1 C23.9,27.5 24.1,26.8 24.3,26 C24,26.3 23.7,26.6 23.3,26.8 C23,27.7 23.1,28.6 23.4,28.1 Z M23.9,26.2 C24.2,25.9 24.4,25.5 24.8,25.3 C24.5,25 24.2,25.6 24,25.4 C24.3,24.9 24.5,24.6 24.5,24 C24.5,23.7 24.9,23.4 25,23.2 C24.7,23.2 23.7,23.8 23.6,24.1 C23,24.9 23,25.7 20.4,26.8 C20.3,26.8 20.9,26.4 21,25.9 C21.1,25.7 21.4,24.6 21.2,24 C20.7,24.5 20.8,24.7 20.6,25.1 C20.2,26.2 20,26.3 19,26.9 C18.9,27 18.1,28.1 17.2,28.2 C17.3,28.2 17.2,27.9 17.6,27.7 C18.7,27 18.3,25.5 19.7,25.2 C19,25 18.5,25.6 18.4,25.6 C19,24.8 18.5,24.2 18.5,23.5 C18.3,23.6 18.1,23.8 18.1,24 C18,25.1 17.5,25.3 17.4,25.8 C17.5,26.6 16.9,27.2 16.4,27.8 C16.3,27.3 16.4,26.9 17,26.5 C17.3,26.3 17,25.6 17,25.6 C16.9,26.3 16.5,26.5 16.2,26.6 C16,26.6 17,25.6 16.8,24.7 C16.8,24.3 16.6,24.5 16.6,24 C15.8,24.9 16.4,25.5 15.5,26.6 C15.1,27.1 14.9,28 14.9,28 C14.9,26.7 15,27.1 15.5,26 C16,25.1 15.5,24.3 15.4,23.7 C14.3,24.4 14.4,25.9 14.4,25.5 C14.4,25.2 14.2,24.7 14.4,24.2 C14.6,23.4 14.1,22.2 14.1,22.2 C12.6,24.5 13.9,27.3 13.8,27.2 C13.2,26.2 12.7,26.1 12.5,25.4 C12.4,25 11.7,22.7 10.2,22.6 C10.9,23.2 10.7,23.3 10.8,24.3 C10.3,26.8 13.9,27.1 13.6,28.4 C13.1,27.6 12.4,27.3 11.3,26.7 C10.8,26.3 10.3,26.1 10.2,25.5 C10.3,25.1 10.3,25.1 10.2,24.6 C10.1,24.2 9.7,24.4 9.4,23.6 C9,24.4 9.2,25 9.3,25.4 C9.3,25.5 9.4,25.9 9.3,26.1 C9.1,25.9 8.9,25.6 8.7,25.3 C8.2,24.7 8.2,24 8,23.5 C7.8,23.3 7.7,23 7.6,23 C7.5,23.9 7.5,24.7 8,25.4 C8,25.4 7.9,25.6 7.8,25.6 C7.4,25.5 6.8,25.2 6.6,24.5 C6.1,24.9 6.5,25.4 6.4,25.4 C5.3,24.8 6.4,22.6 4.8,22.7 C5.2,23.1 4.9,23.7 4.9,24.2 C4.9,25 5.9,25.7 5.9,25.7 C4.7,25.3 4.5,25.9 4.5,25.9 C4.5,25.9 6.2,26.6 8.9,26.9 C9.2,26.9 9.7,27.3 9.7,27.3 C9.4,27.3 8.7,26.8 7.7,27.7 C8.3,27.7 8.7,28.7 9.6,28.1 C12,27.4 13,28.6 13.4,28.9 C13.3,29.1 11.5,27.8 10.1,28.6 C9.3,29.1 8.1,28.6 7.2,27.9 C7.6,28.9 9.2,30 9.8,30 C10.5,30 11.3,29.1 12.3,29.2 C13.8,29.3 14.1,30.7 13.9,30.5 C13.9,30.5 12.7,28.5 11.1,30.6 C11.8,30.3 12.8,30.4 13.7,30.8 C13.8,30.9 13.5,31.2 13.3,31.5 C13.2,31.7 12.5,32.6 11.8,31.7 C11.7,31.6 11.4,30.7 9.2,30.9 C10,31.3 11,32.3 11.4,32.7 C12.6,33.8 14.3,31.3 14.4,31.6 C14.4,32.2 14.7,32.4 14.8,32.8 C15.2,33.6 14.3,33.4 13.8,33.2 C13.8,33.2 14.7,34.6 15.5,33.8 C16.3,32.9 14.4,32.3 15,31.6 C15.3,31.2 16.6,32.5 17.1,32.5 C18.6,32.7 18.5,31.2 19.3,31.3 C18.6,30.5 17.8,31 17.6,31.2 C17.1,31.8 16.5,31.4 16.1,31.1 C15.9,30.8 15.5,30.8 15.2,30.9 C15,30.9 15.5,30.4 16.1,30.5 C17.5,30.8 18.9,30.3 19.2,30.1 C19.8,29.8 20.1,29.3 20.7,28.7 C20.5,28.7 19.4,29.4 19,29.6 C17.9,30.2 17.2,29.4 17.1,29.4 C16.9,29.4 16.9,29.2 17.3,29.1 C18.4,28.8 19.2,27.8 20.3,27.5 C21.3,26.8 22.9,27.2 23.9,26.2 Z M21.6,24.7 C21.6,24.9 21.6,25.1 21.5,25.4 C21.5,25.4 21.8,25.5 21.9,25.6 C22.1,25.4 22.2,25.4 22.4,25.1 C22.4,25.1 21.6,24.4 21.6,24.5 C21.6,24.6 21.6,24.6 21.6,24.7 Z M21.7,25.8 C21.7,25.8 21.4,25.6 21.4,25.6 C21.4,25.7 21.3,25.9 21.2,26 C21.2,26.2 21.4,26.1 21.7,25.8 Z M25,22.9 C24.9,20.3 23.3,17.4 23.8,18 C24.9,19.3 25.2,22.2 26,24.7 C26,24.7 26.5,24.9 26.4,21.8 C26.4,21.2 26.1,20.3 25.8,19.7 C25.2,18.5 23.9,16.5 23.9,16.5 C24.2,16.3 25,18 25.6,18.6 C26,19 27.2,19.5 27.3,19.4 C26.4,17.6 24.1,15.9 24.3,15.6 C26,17.2 26.5,17.2 26.6,17.2 L25,15.8 C24.6,15.2 24,14.8 24.1,14.8 C24.8,14.9 23.7,14.2 23,14 C22.9,14 22.6,13.9 22.6,13.9 C22.6,13.8 22.8,13.8 23,13.8 C23.1,13.8 23.2,13.7 23.2,13.5 C22.9,13.6 22.6,13.5 22.3,13.4 C21.8,13.2 20.8,12.9 20.4,13 C20.1,13.1 20.1,13.1 19.8,13.3 C19.7,13.2 19.3,13 18.9,13.6 C18.8,13.8 18.6,14 18.6,14.1 C18.6,14.5 18.6,14.1 18.7,14.5 C18.7,14.7 18.6,14.9 17.9,15.2 C17.6,15.3 17.7,15.6 17.7,15.6 C17.8,15.5 18,15.4 18.4,15.5 C19,15.8 19.2,15.3 19.6,15 C19.6,15 19.5,15.4 19.6,15.4 C20.1,15.5 19.9,15.9 19.9,15.9 C19.3,16.5 19.5,16.7 19.3,17 C19.1,17.3 18.8,17.5 18.3,17.4 C17.6,17.4 19.2,16.4 17.7,15.9 C17.9,16.3 18,16.6 17.5,16.9 C17.2,17.1 17.3,18.1 16.5,17.6 C16.5,17.6 16.4,18.3 16.3,18.3 C17.4,19.3 16.8,19.8 16.9,21.3 C17.3,22.2 16.9,22.6 16.8,22.7 C16.9,23.3 16.9,23.7 17.3,24.2 C17.6,24.6 17.3,25.1 17.6,25.5 C17.9,24.6 18.1,25 18.2,23.7 C18.3,23.5 18.7,23.1 19,23.1 C19,23.9 19.3,24.6 19.2,24.9 C19.2,24.9 19.9,24.8 20.1,24.9 C20.3,25 20.4,25.2 20.4,25.3 C20.2,25.4 20.2,25.4 19.8,25.6 C19.2,26 18.9,26.9 18.9,26.9 C18.9,26.9 20.3,25.8 20.4,25.6 C20.5,25.4 20.6,25.2 20.6,24.9 C20.6,24.9 19.9,24.5 19.7,24.1 C19.1,22.9 20.7,24.8 20.7,24.6 C20.8,24.2 21.1,23.8 21.1,23.8 C21,23.7 20.8,23.6 20.4,22.9 C19.5,21.4 21.4,23.5 21.4,23.5 C21.9,23.2 21.9,23.6 22,24 C22,24 22.8,24.7 22.9,24.7 C23.1,24.5 23.3,24.2 23.4,24 C23.4,24 21.9,22.6 21.6,22.2 C19.5,18.6 23.3,23.8 23.5,23.6 C23.6,23.3 23.6,22.9 23.6,22.4 C23.6,22.4 22.9,21.9 22.4,21.1 C20.6,18.2 23.5,22 23.5,21.9 C23.5,21.3 23,18.6 23.3,19.4 C23.5,19.8 24,21.5 23.9,23.3 C23.9,23.3 24.7,23 25,22.9 Z M26.2,5.7 C26.2,5.8 26.2,5.9 26.2,5.9 C26.2,5.9 26.2,5.8 26.2,5.7 C26.2,5.7 26.2,4.7 25.1,4.7 C24.8,4.7 24.4,5.1 23.3,4.7 L23.3,6.3 C23.7,6.4 24.9,5.8 25.4,5.6 C25.7,5.4 26.1,5.5 26.2,5.7 Z M23.2,8.1 L23.2,9.7 C23.2,9.7 24.1,9.7 25.1,9 C25.4,8.8 25.9,8.9 26.1,9.1 C26.1,9.1 26,8 25.1,8.2 C23.4,8.4 23.2,8.1 23.2,8.1 Z M17,10.7 C17.9,10.7 21.3,11.6 23,11.5 L23,2.9 C23,2.9 20.6,3.2 18.5,2.5 C16.8,1.9 14.4,3 14.4,3 C14.4,3.3 14.4,11.5 14.4,11.5 C14.4,11.5 15.2,10.7 17,10.7 Z M15.1,7.8 C15.2,7.8 15.4,7.8 15.5,7.8 C15.5,8 15.5,9.3 15.5,9.4 C15.5,9.5 15.6,9.6 15.7,9.5 C15.8,9.5 15.8,9.5 15.7,9.6 C15.6,9.7 15.4,9.9 15.4,10 C15.3,9.9 15.1,9.8 15.1,9.7 C15.2,9.5 15.1,8 15.1,7.8 Z M15.6,6 C15.8,5.9 16.4,5.8 16.6,5.8 C16.7,5.8 16.8,5.8 16.8,5.8 C16.8,5.7 16.9,5.8 16.9,5.8 C16.9,5.8 16.9,6.5 16.9,6.5 C16.9,6.6 16.8,6.6 16.8,6.5 C16.8,6.4 16.8,6.4 16.7,6.3 C16.5,6 15.9,5.9 15.5,6.3 C15.4,6.4 15.4,6.7 15.5,6.7 C15.6,6.7 16.1,6.7 16.2,6.7 C16.3,6.7 16.7,6.6 16.7,6.6 C16.7,6.6 16.8,6.5 16.8,6.6 C16.8,6.7 16.8,6.9 16.8,7 C16.8,7.1 16.7,7 16.7,7 C16.7,7 16.3,6.9 16.2,6.9 C16,6.9 15.6,6.8 15.5,6.8 C15.4,6.8 15.5,7 15.6,7.2 C15.9,7.6 16.5,7.6 16.7,7.3 C16.8,7.2 16.8,7.2 16.8,7.1 C16.8,7 16.9,7 16.9,7.1 C16.9,7.2 16.9,7.7 16.9,7.7 C16.9,7.7 16.8,7.8 16.8,7.7 C16.8,7.6 16.7,7.6 16.6,7.6 C16.3,7.7 15.8,7.7 15.6,7.6 C15.3,7.4 15,7.4 15,6.7 C15,6.4 15.4,6.1 15.6,6 Z M17.4,3.3 C17.3,3.3 17.1,3.5 17.1,3.6 C17.1,3.8 16.6,5.2 16.5,5.3 C16.4,4.8 15.9,3.8 15.7,3.5 C15.6,3.3 15.4,3.3 15.3,3.3 C15.2,3.3 15.2,3.2 15.3,3.2 C15.4,3.2 16.2,3.3 16.5,3.3 C16.6,3.3 16.6,3.4 16.5,3.4 C16.4,3.4 16.3,3.5 16.3,3.5 C16.3,3.6 16.6,4.2 16.7,4.3 C16.8,4.1 17,3.4 17,3.3 C16.9,3.1 16.9,3.1 16.8,3.1 C16.7,3.1 16.7,3 16.8,3 C16.9,3 17.3,2.9 17.4,3 C17.5,3.2 17.5,3.3 17.4,3.3 Z M18.2,3.4 L18.1,3.5 L18,3.5 L17.9,3.4 L17.9,3.2 L18,2.9 L18.2,3.1 L18.2,3.4 Z M18.6,5 L18.3,5.3 L18.1,5.3 C18,5.2 17.9,5.1 17.9,5 L17.9,4.2 L17.6,4 C17.5,4.1 17.4,4.1 17.5,4 L17.9,3.6 L18,3.6 L18.2,4 L18.2,4.9 C18.3,5 18.4,5 18.6,5 Z M20.1,4.1 C20,4.1 19.4,4.2 19.4,4.2 C19.4,4.2 19.4,5 19.5,5.1 C19.5,5.2 19.6,5.3 19.7,5.2 C19.8,5.1 19.8,5.2 19.8,5.3 C19.8,5.3 19.6,5.6 19.5,5.7 C19.4,5.8 19.3,5.6 19.2,5.4 C19,5.1 19,4.5 19,4.2 C19,4.2 18.7,4.1 18.8,4 C19.1,3.9 19.4,3.5 19.4,3.4 C19.4,3.3 19.5,3.3 19.5,3.4 C19.4,3.6 19.4,3.7 19.5,3.9 C19.5,3.9 20.1,3.9 20.1,3.9 C20.1,3.9 20.1,4.1 20.1,4.1 Z M19.3,6.8 C19.2,7.1 19.5,7.3 19.7,7.4 C19.8,7.5 20.1,7.4 20.2,7.4 C20.3,7.4 20.2,7.4 20.3,7.3 C20.3,7.3 20.4,7.3 20.4,7.3 C20.4,7.3 20,7.7 19.9,7.8 C19.8,7.8 19.6,7.8 19.5,7.7 C19.3,7.4 19.1,7.3 19.2,6.8 C19.2,6.5 19.8,6.2 20,6.1 C20.1,6.2 20.3,6.4 20.4,6.5 C20.4,6.6 20.2,6.6 20.1,6.6 C20,6.6 19.9,6.5 19.8,6.4 C19.5,6.5 19.4,6.6 19.3,6.8 Z M21.6,5.4 L21.3,5.8 C21.2,5.7 21.1,5.7 21.1,5.5 C20.8,5.6 20.7,5.7 20.5,5.8 C20.4,5.7 20.2,5.4 20.2,5.3 C20.2,5.1 20.3,4.9 20.4,4.8 C20.4,4.8 20.4,4.8 20.4,4.8 C20.3,4.8 20.3,4.7 20.2,4.7 C20.2,4.7 20.2,4.6 20.2,4.5 C20.3,4.4 20.5,4.1 20.7,4.1 C20.8,4.1 21,4.1 21.3,4.3 C21.3,4.3 21.3,5.1 21.3,5.2 C21.5,5.3 21.6,5.4 21.6,5.4 Z M22.3,7.2 C22.2,7.2 22.1,7.2 22,7.2 C21.9,7.2 21.9,7.1 22,7.1 C22.1,7.1 22.2,7.1 22.3,7.1 C22.4,7 22.4,7.2 22.3,7.2 Z M22.3,7.4 C22.2,7.4 22.1,7.4 22,7.4 C21.9,7.4 21.9,7.3 22,7.3 C22.1,7.3 22.2,7.3 22.3,7.3 C22.4,7.3 22.4,7.4 22.3,7.4 Z M20.5,9 C20.6,8.9 20.9,8.7 21,8.6 C21.2,8.7 21.3,8.8 21.3,8.9 C21.4,8.8 21.6,8.7 21.6,8.7 C21.8,8.8 22,8.9 22,9 C22.1,8.9 22.2,9 22.1,9.1 C22,9.2 21.8,9.3 21.8,9.4 C21.7,9.3 21.5,9.1 21.5,9.1 C21.5,9.1 21.4,9.2 21.4,9.2 C21.4,9.3 21.4,10.2 21.4,10.3 C21.3,10.3 21.1,10.3 21,10.3 C21,10.2 21,9.4 21,9.3 C20.9,9.1 20.7,9 20.5,9 Z M20.5,7.3 C20.5,6.9 20.8,6.5 21.3,6.3 C21.7,6.4 21.8,6.8 21.8,7.1 C21.8,7.3 21.7,7.6 21.6,7.8 C21.5,7.9 21.3,8 21.2,8.2 C20.7,8.1 20.5,7.5 20.5,7.3 Z M18.7,8.8 C18.8,8.6 19,8.5 19.1,8.5 C19.2,8.6 19.3,8.7 19.4,8.8 C19.4,9 19.4,9.4 19.4,9.6 C19.4,9.7 20,9.8 20,9.6 C20,9.4 20,9.1 20,9 C20,8.9 19.8,8.9 19.7,8.9 C19.9,8.7 20,8.6 20.1,8.5 C20.2,8.6 20.4,8.7 20.4,8.9 C20.4,9.1 20.4,9.6 20.4,9.7 C20.4,9.8 20.4,9.8 20.5,9.9 C20.4,10 20.3,10 20.3,10.1 C20.2,10.1 20,9.9 20,9.8 C19.9,9.9 19.5,10 19.4,10.1 C19.1,9.8 19,9.8 19,9.6 C19,9.4 19,9 19,8.9 C18.9,8.8 18.8,8.8 18.7,8.8 Z M18.4,7.5 C18.3,7.4 18.1,7.2 18,7.1 C17.8,7.3 17.8,7.5 17.4,7.6 C17.6,7.4 17.8,7.1 17.8,6.7 C17.8,6.4 17.6,6.2 17.5,6.2 C17.4,6.3 17.3,6.3 17.2,6.4 C17.1,6.4 17.1,6.3 17.2,6.3 C17.4,6.2 17.7,5.9 17.8,5.9 C18,5.9 18.1,6.1 18.2,6.2 C18.3,6.1 18.5,5.9 18.6,5.9 C18.7,6 18.9,6.2 19.1,6.2 C18.9,6.6 18.4,6.3 18.4,6.3 C18.3,6.4 18.3,6.5 18.4,6.7 C18.5,6.9 18.9,7.1 19.1,7.2 C18.7,7.1 18.5,7.4 18.4,7.5 Z M17.8,8.6 C17.8,8.6 17.5,8.5 17.6,8.4 C17.8,8.3 18.1,8 18.1,7.9 C18.1,7.8 18.2,7.8 18.2,7.9 C18.2,8 18.1,8.2 18.1,8.3 C18.1,8.3 18.3,8.3 18.4,8.3 C18.4,8.3 18.4,8.4 18.4,8.4 C18.3,8.4 18.1,8.4 18.1,8.4 C18.1,8.4 18.1,9.2 18.1,9.3 C18.1,9.4 18.3,9.4 18.4,9.3 C18.5,9.2 18.5,9.3 18.5,9.4 C18.5,9.4 18.3,9.7 18.2,9.7 C18.1,9.7 17.9,9.7 17.8,9.6 C17.8,9.5 17.8,8.9 17.8,8.6 Z M17.1,9.8 C17,9.7 16.9,9.7 16.8,9.6 C16.5,9.7 16.4,9.9 16.2,10 C16.1,9.9 16,9.7 16,9.5 C16,9.3 16.2,9.1 16.3,9 C16.3,9 16.3,9 16.3,9 C16.3,9 16.2,8.7 16.3,8.6 C16.4,8.5 16.6,8.1 16.8,8.1 C16.9,8.1 17.1,8.3 17.2,8.4 C17.2,8.4 17.2,9.1 17.2,9.2 C17.3,9.3 17.4,9.4 17.5,9.3 C17.6,9.2 17.6,9.3 17.6,9.4 C17.4,9.5 17.2,9.8 17.1,9.8 Z M16.9,9.1 C16.9,9 16.9,8.8 16.9,8.8 C16.9,8.7 16.7,8.6 16.6,8.6 C16.5,8.6 16.5,8.6 16.4,8.7 C16.4,8.8 16.4,9 16.4,9 C16.6,9.1 16.7,9.1 16.9,9.1 Z M16.5,9.1 C16.3,9.4 16.5,9.5 16.6,9.5 C16.7,9.4 16.8,9.4 16.9,9.3 C16.9,9.2 16.9,9.1 16.9,9 C16.7,9.2 16.6,9.2 16.5,9.1 Z M20.8,7.3 C20.9,7.5 21.2,7.7 21.3,7.8 C21.4,7.6 21.5,7.3 21.5,7.1 C21.5,6.9 21.2,6.7 21,6.6 C20.7,6.8 20.7,7.1 20.8,7.3 Z M20.8,5.5 C20.9,5.4 21,5.4 21.1,5.4 C21.1,5.4 21.1,5.3 21.1,5.3 C21.1,5.3 21.1,5.1 21.1,5 C20.9,5 20.8,4.9 20.6,4.8 C20.6,4.8 20.6,4.8 20.7,4.8 C20.5,5.2 20.7,5.5 20.8,5.5 Z M20.5,4.6 C20.6,4.7 21,4.9 21.1,4.9 C21.1,4.8 21.1,4.6 21.1,4.5 C21.1,4.4 20.8,4.2 20.7,4.2 C20.6,4.2 20.6,4.3 20.5,4.4 C20.4,4.6 20.4,4.6 20.5,4.6 Z M14,12.4 C13.7,12.4 13.4,12.6 13.3,12.9 C13.1,13.1 13.1,12.6 12.8,12.8 C12.7,13 13,13.4 12.9,13.4 C12.5,13.5 12.6,12.9 12.4,12.8 C12.1,12.9 11.3,13.6 12.1,14.1 C12.1,13.7 12.8,13.3 13,14.1 C13.7,14 13.9,14.5 14,14.7 C15,14.9 14.7,15.6 14.7,15.6 C14.6,15.5 14.2,14.8 13.4,15.2 C13.2,15.3 12.9,15.4 12.8,15.3 C12.8,15.5 13.1,15.7 13.3,15.7 C13.9,15.5 14.1,16.1 13.6,16.3 C13.7,16.5 13.9,16.5 14.1,16.3 C14.4,16.1 14.4,16 14.5,15.9 C14.7,16.7 13.6,16.8 13.3,16.9 C13.4,17.1 13.5,17.1 13.7,17.2 C12.6,17.2 12.3,18.3 12.4,18.9 C12.7,18.9 13,18.4 13,18.7 C12.2,19.5 11.9,20.7 12.4,21.4 C12.6,21.3 12.7,21.1 12.7,20.9 C12.7,20.9 13.1,21.1 12.5,21.8 C12.5,22 12.2,22.6 12.7,22.8 C12.9,22.6 12.9,22.4 12.9,22.1 C13,22 13.1,22.5 13.1,22.7 C12.4,23 12.5,25 13.3,26.1 C12.9,25.3 13,24.3 13.3,23.5 C13.5,22.9 14.1,21.5 14.1,21.5 C14.4,21.9 14.8,23.4 14.8,24.1 C15.2,23.7 15.3,23.3 15.6,23.1 C15.8,23.7 15.8,24 16,24.5 C16.2,24 16.6,23.5 16,21.9 C16.1,21.8 16.4,22.4 16.4,22.4 C16.5,22.4 16.5,22 16.3,21.4 C15.9,21 15.8,20.4 15.8,20.4 C15.9,20.4 16.1,21 16.3,21 C16.3,20.5 16.5,20 16.4,19.6 C16.4,19.5 16.2,19 15.7,18.5 C15.4,18.3 15.3,17.7 15.3,17.6 C15.6,17.8 15.5,18 15.7,18.1 C15.8,17.9 15.7,17.1 15.5,16.8 C15.3,16.5 15.4,16.6 15.6,16.7 C15.8,17 15.7,17 15.9,17.1 C16.4,16 15.9,15.8 16,15.7 C16,15.6 16.4,16.2 16.6,16 C16.1,15.8 16.2,15.4 16.1,15 C16.1,14.7 15.9,14.6 15.9,14.5 C16.4,14.8 16.5,14.5 16.5,14.4 C16.4,14.4 16,14.5 16,13.9 C16,13.6 15.6,13.5 15.6,13.5 C15.8,13.5 16.6,13.4 16.4,12.7 C16.3,12.9 16.1,13.2 15.6,13 C15.6,13 15.9,12.9 15.8,12.6 C15.4,13.2 14.8,12.3 14,12.4 Z M15.4,13.4 C14.9,13.5 14.6,14 14,13.8 C13.9,13.8 13.8,13.7 13.8,13.6 C13.9,13.7 14.1,13.7 14.2,13.7 C14.2,13.7 13.9,13.5 14.2,13.2 C13.9,13.4 13.8,13.4 13.8,13.2 C13.8,13.2 14.2,12.8 14.6,13 C14.8,13.1 15,13.4 15.4,13.4 Z M14.6,13.4 C14.6,13.5 14.5,13.7 14.5,13.7 L15,13.4 C14.9,13.3 14.6,13.2 14.5,13.1 C14.4,13.2 14.6,13.3 14.6,13.4 Z M11.5,10.7 C12.8,10.8 13.9,11.4 13.9,11.4 L13.9,2.9 C13.9,2.9 12,1.5 8.8,2.8 C7.9,3.1 5.7,2.8 5.7,2.8 L5.7,11.5 C7.6,11.6 10.2,10.6 11.5,10.7 Z M10.5,6.1 C10.8,6.2 11.1,6.1 11.2,6.5 C11.3,6.9 11.1,7.3 10.8,7.3 C10.6,7.3 10.3,7.2 10.2,7.2 C10.1,7.2 10.1,7.2 10.1,7.3 C10.1,7.4 10,7.4 10,7.3 C10,7.2 10,6.8 10,6.7 C10,6.6 10.1,6.6 10.1,6.7 C10.1,6.8 10.2,6.9 10.3,7 C10.4,7.1 10.9,7.2 11,7.1 C11.1,7 11.1,6.7 11,6.6 C10.9,6.5 10.3,6.4 10.2,6.2 C10,5.9 10.3,5.7 10.5,5.6 C10.7,5.5 11,5.5 11,5.5 C11.1,5.5 11.2,5.5 11.2,5.4 C11.2,5.3 11.3,5.3 11.3,5.4 C11.3,5.7 11.4,5.5 11.3,5.8 C11.3,5.9 11.3,5.9 11.2,5.8 C11.2,5.7 10.8,5.4 10.5,5.6 C10.2,5.9 10.3,6 10.5,6.1 Z M11.3,7.8 C11.2,7.9 11.1,8 11,8.1 C10.9,8 10.8,7.9 10.7,7.9 C10.9,7.8 10.9,7.7 11,7.6 C11,7.8 11.2,7.8 11.3,7.8 Z M9.7,8.5 C9.8,8.4 10,8 10.1,7.9 C10.1,7.8 10.2,7.8 10.2,7.9 C10.2,8 10.1,8.4 10.1,8.4 C10.1,8.4 10.3,8.4 10.4,8.4 C10.4,8.4 10.4,8.5 10.4,8.5 C10.3,8.5 10.1,8.5 10.1,8.5 C10.1,8.5 10.1,9 10.1,9.1 C10.2,9.2 10.3,9.3 10.4,9.1 C10.5,9 10.5,9.1 10.5,9.2 C10.5,9.2 10.3,9.5 10.2,9.6 C10.2,9.7 9.9,9.6 9.8,9.5 C9.7,9.4 9.8,9 9.8,8.7 C9.8,8.7 9.5,8.6 9.7,8.5 Z M9.5,7.5 C9.4,7.6 9.2,7.5 9.2,7.3 C9,7.1 9.1,6.7 9.1,6.3 C9.1,6.3 9,6.2 9,6.2 C8.9,6.2 8.9,6.1 9,6.1 C9.2,6 9.4,5.6 9.5,5.5 C9.5,5.4 9.6,5.5 9.5,5.6 C9.4,5.8 9.4,6.1 9.5,6.1 C9.5,6.1 9.8,6.1 9.9,6.1 C9.9,6.1 9.9,6.2 9.9,6.2 C9.8,6.2 9.4,6.3 9.4,6.3 C9.4,6.3 9.4,7 9.5,7.1 C9.5,7.1 9.6,7.2 9.7,7.2 C9.8,7.1 9.8,7.2 9.8,7.3 C9.7,7.3 9.6,7.4 9.5,7.5 Z M7.9,8.5 C8.1,8.4 8.1,8.3 8.3,8.2 C8.4,8.4 8.4,8.5 8.5,8.6 C8.6,8.5 8.8,8.4 8.9,8.3 C9,8.3 9.1,8.4 9.1,8.7 C9.1,9 9.1,9.5 9.1,9.6 C9.1,9.7 9.1,9.6 9.2,9.6 C9.3,9.6 9.3,9.6 9.3,9.7 C9.3,9.7 9,9.9 8.9,10 C8.8,9.8 8.8,9.6 8.8,9.4 C8.8,9.2 8.8,8.8 8.8,8.7 C8.8,8.6 8.7,8.6 8.6,8.5 C8.5,8.6 8.5,8.7 8.4,8.7 C8.4,8.8 8.4,9.7 8.4,9.8 C8.2,9.8 8.2,9.8 8.1,9.8 C8.1,9.6 8.1,8.9 8.1,8.8 C8.1,8.7 8,8.6 7.9,8.5 Z M6.6,9 C6.7,8.4 7.3,8.2 7.4,8.1 C7.4,8.3 7.6,8.6 7.8,8.7 C7.6,8.8 7.1,9.2 6.9,9.3 C7,9.5 7.4,9.6 7.5,9.5 C7.6,9.4 7.7,9.4 7.6,9.6 C7.5,9.7 7.3,9.9 7.3,10 C7,9.9 6.5,9.6 6.6,9 Z M6.4,6.3 C6.5,6.1 6.9,5.9 7.1,5.8 C7.2,5.9 7.3,6 7.4,6.2 C7.3,6.2 7.2,6.4 7.1,6.4 C7.1,6.3 6.8,5.9 6.6,6.2 C6.5,6.4 6.4,6.8 6.7,7.1 C6.9,7.2 7.1,7.3 7.3,7.2 C7.2,7.4 7.2,7.5 7.1,7.6 C6.8,7.7 6.6,7.6 6.5,7.4 C6.1,7.1 6.2,6.6 6.4,6.3 Z M8,5.5 C7.9,5.4 7.9,5.4 7.8,5.4 C7.5,5.5 7.2,5.6 6.9,5.4 C6.6,5.3 6.4,5.2 6.4,4.6 C6.4,4.2 6.7,4 6.9,3.8 C7.1,3.7 7.5,3.8 7.7,3.8 C7.8,3.8 7.9,3.8 7.9,3.7 C7.9,3.6 8,3.7 8,3.7 C8,3.8 8,4.5 8,4.5 C8,4.6 7.9,4.6 7.9,4.5 C7.9,4.4 7.9,4.3 7.8,4.1 C7.8,3.9 7.3,3.6 6.9,4 C6.9,4 6.7,4.3 6.8,4.5 C6.8,4.6 6.8,4.8 6.9,5 C7.2,5.4 7.6,5.3 7.8,4.9 C7.9,5 7.9,4.8 7.9,4.7 C7.9,4.6 8,4.6 8,4.7 C8,4.8 8,5.2 8,5.3 C8,5.4 8,5.4 8.1,5.5 C8.1,5.6 8.1,5.7 8,5.5 Z M8.2,6 C8.3,6 8.4,6.3 8.6,6.4 C8.6,6.4 8.6,7.2 8.6,7.3 C8.6,7.3 8.7,7.4 8.8,7.4 C8.9,7.3 8.9,7.4 8.9,7.5 C8.7,7.4 8.4,7.6 8.4,7.7 C8.3,7.6 8.3,7.5 8.2,7.4 C8,7.4 7.9,7.5 7.8,7.7 C7.7,7.6 7.5,7.4 7.5,7.3 C7.5,7.1 7.6,7 7.7,6.9 C7.7,6.9 7.7,6.9 7.6,6.8 C7.6,6.8 7.5,6.5 7.5,6.4 C7.7,6.2 8,6 8.2,6 Z M9.7,4 C9.6,4.1 9.4,4.2 9.3,4.2 C9.3,4.2 9.1,4 9.1,4 C9.1,4 9,4 9,4.1 C9,4.2 9,5.1 9,5.3 C8.9,5.3 8.8,5.3 8.7,5.3 C8.7,5.2 8.7,4.4 8.7,4.3 C8.6,4.1 8.5,4 8.3,4 C8.4,3.9 8.6,3.7 8.7,3.7 C8.8,3.8 8.9,3.8 9,3.9 C9.1,3.8 9.3,3.7 9.3,3.7 C9.4,3.7 9.5,3.9 9.7,4 C9.7,3.9 9.7,3.9 9.7,4 Z M11,4.9 C10.9,4.9 10.7,5.1 10.6,5.1 C10.2,5.1 9.7,4.8 9.7,4.2 C9.8,3.6 10.2,3.4 10.4,3.4 C10.6,3.4 10.7,3.6 10.8,3.7 C10.6,3.9 10.3,4.2 10.1,4.4 C10.1,4.5 10.4,4.9 10.8,4.7 C11.2,4.7 11.2,4.8 11,4.9 Z M12.7,3.9 C12.7,4 12.5,4.1 12.3,4.2 C12.3,4.2 12.4,4.2 12.4,4.2 C12.7,4.4 12.8,4.6 12.5,4.9 C12.3,5 12.1,5.2 11.8,5.2 C11.6,5.2 11.2,5 11.2,5 C11.4,4.8 11.5,4.7 11.7,4.6 C11.5,4.5 11.3,4.2 11.5,4 C11.6,3.8 12,3.5 12.3,3.6 C12.4,3.6 12.6,3.8 12.7,3.9 Z M12.9,5.5 L13.1,5.7 L13.1,5.9 L12.9,6 L12.8,6 L12.7,5.9 L12.7,5.7 L12.9,5.5 Z M13.2,4.6 C12.8,4.6 12.9,4.4 13,4.4 C13.4,4.4 13.3,4.6 13.2,4.6 Z M13.2,4.8 C12.8,4.8 12.9,4.6 13,4.6 C13.4,4.7 13.3,4.8 13.2,4.8 Z M13.4,7.4 L13.2,7.6 L13,7.8 C12.9,7.7 12.8,7.6 12.8,7.6 L12.8,6.8 L12.6,6.7 C12.5,6.8 12.4,6.8 12.5,6.7 L12.9,6.4 L13,6.4 L13.2,6.6 L13.2,7.4 C13.2,7.4 13.2,7.4 13.4,7.4 Z M11.8,9.4 C11.8,9.2 11.9,9.1 12,8.9 C12,8.9 12,8.9 12,8.9 C12,8.9 11.9,8.5 11.9,8.5 C12,8.4 12.3,8.1 12.4,8.1 C12.5,8.1 12.7,8.4 12.8,8.5 C12.8,8.5 12.8,9.3 12.8,9.4 C12.8,9.5 13,9.5 13,9.4 C13.1,9.3 13.1,9.4 13.1,9.5 C13.2,9.6 13,9.8 13,9.8 C12.9,9.7 12.8,9.7 12.7,9.5 C12.5,9.5 12.3,9.7 12.1,9.8 C11.9,9.8 11.8,9.6 11.8,9.4 Z M11.5,7.1 C11.4,6.8 11.6,6.4 11.7,6.4 C11.8,6.2 12,6.1 12.1,6 C12.2,6.1 12.3,6.1 12.4,6.2 C12.4,6.3 12.3,6.4 12.2,6.4 C12,6.4 11.8,6.4 11.7,6.5 C11.6,6.6 11.7,6.9 11.8,7.1 C11.9,7.2 12.2,7.3 12.2,7.2 C12.3,7.1 12.4,7.1 12.3,7.3 C12.2,7.4 12.1,7.6 12.1,7.7 C11.9,7.5 11.6,7.4 11.5,7.1 Z M11.6,9.4 L11.4,9.6 L11.3,9.8 C11.2,9.7 11.1,9.7 11.1,9.6 L11.1,8.8 L10.9,8.7 C10.8,8.8 10.7,8.8 10.8,8.7 L11.2,8.4 L11.3,8.4 L11.5,8.7 L11.5,9.4 C11.5,9.4 11.4,9.4 11.6,9.4 Z M12.2,9.1 C11.9,9.3 12.2,9.5 12.3,9.6 C12.4,9.6 12.5,9.5 12.6,9.5 C12.6,9.5 12.6,9.4 12.6,9.4 C12.6,9.4 12.6,9.3 12.6,9.2 C12.4,9.1 12.3,9.1 12.2,9.1 Z M12.5,9 C12.5,8.9 12.5,8.7 12.5,8.7 C12.5,8.6 12.2,8.4 12.2,8.4 C12.1,8.4 12.1,8.4 12.1,8.5 C12.1,8.6 12.1,8.7 12.1,8.8 C12.3,9 12.4,9 12.5,9 Z M12,4.3 C12.1,4.2 12.2,4.2 12.2,4.1 C12.1,4 11.9,3.9 11.8,3.9 C11.7,3.9 11.5,4 11.6,4.1 C11.7,4.2 11.7,4.3 11.9,4.3 C11.9,4.3 12,4.3 12,4.3 Z M11.9,4.6 C11.8,4.7 11.6,4.8 11.6,4.9 C11.6,5 12,5.2 12.2,5.1 C12.4,5 12.5,4.8 12.3,4.7 C12.1,4.7 12,4.6 11.9,4.6 Z M10.2,4.3 C10.3,4.2 10.5,4 10.6,3.9 C10.5,3.9 10.4,3.8 10.3,3.6 C10.1,3.8 10.1,4 10.2,4.3 Z M8.2,7.3 C8.2,7.3 8.2,7.2 8.2,7.2 C8.2,7.2 8.2,7 8.2,6.9 C8.1,7 8,7 7.9,6.9 C7.6,7.1 8,7.3 8.1,7.3 C8.1,7.3 8.2,7.3 8.2,7.3 Z M8.2,6.8 C8.2,6.7 8.2,6.6 8.2,6.5 C8.2,6.4 8,6.2 8,6.2 C7.9,6.2 7.8,6.3 7.8,6.4 C7.8,6.5 7.8,6.6 7.8,6.7 C7.9,6.9 8,6.9 8.2,6.8 Z M7.1,8.4 C6.6,8.7 6.7,9 6.9,9.2 C7,9.2 7.3,8.9 7.4,8.8 C7.3,8.8 7.2,8.5 7.1,8.4 Z M4.2,9.5 L5.3,9.5 L5.3,8.5 L4.2,8.5 L4.2,9.5 Z M4.2,5.9 L5.3,5.9 L5.3,4.8 L4.2,4.8 L4.2,5.9 Z M2.9,8 C1.6,8 1.6,9.8 2.9,9.8 C4.2,9.8 4.2,8 2.9,8 Z M2.9,4.3 C1.7,4.3 1.7,6.1 2.9,6.1 C4.2,6.2 4.2,4.3 2.9,4.3 Z M13.7,15.1 C13.6,14.9 13.5,14.8 13.3,14.7 C12.6,14.4 11.2,15.1 11.2,14 C11.2,14 10.7,14.4 10.9,14.7 C11.5,15.6 13,14.6 13.7,15.1 Z M7.3,23.8 C6.9,24.2 6.8,24.2 6.8,24.4 C6.9,24.6 7.1,24.8 7.3,25 C7.5,25.2 7.6,25.4 7.5,24.8 C7.3,24.5 7.3,24.2 7.3,23.8 Z M4.5,16.3 C4.5,17.1 2.2,18.3 1.2,18.9 C2.7,19.4 4.2,18 4,18.3 C3.8,18.7 1.9,20.3 1.1,21.2 C1.7,21.4 2.3,20.9 2.8,20.5 C3.3,20.1 4.1,19 4,19.5 C2.6,21.2 1.6,24.7 2.2,24.9 C2.6,24.1 4.1,20.1 4.2,20.1 C4.3,20.1 4.1,21.2 4,21.9 C3.9,23.4 3.9,24.1 4.2,25.6 C4.4,25.4 4.5,25.4 4.8,25.4 C4.8,25.3 4.8,25.3 4.7,25.1 C4.3,24.5 4.8,23.7 4.6,23.3 C4.4,22.9 4.3,23.2 4.2,22.8 C4.3,22.7 4.6,22.7 4.8,22.6 C4.9,21 5.5,20.2 5.3,21.2 C5.2,21.7 5,22.5 5.1,22.6 C5.2,22.6 5.2,22.6 5.2,22.7 C5.2,22.7 7.8,18.4 6.4,21.4 C6.2,21.8 5.4,22.8 5.4,22.8 C5.8,22.9 6,23.1 6,23.3 C6,23.3 9.5,18.7 7.1,22.4 C7,22.6 6.2,23.4 6.1,23.6 C6.1,23.6 6.2,24.5 6.2,24.5 C6.6,24.2 7.1,23.7 7.3,23.4 C7.3,22.9 7.4,23 7.4,22.5 C7.5,22.4 7.7,22.6 7.8,22.8 C7.9,22.9 10.2,18.9 8.7,21.9 C8.5,22.4 8,23 8,23 C8.1,23.1 8.2,23.4 8.4,23.8 C8.4,23.8 11.5,19.4 9.6,22.7 C9.5,23 8.5,24.1 8.5,24.1 C8.8,24.7 9,25.3 9,25.3 C8.9,24.9 8.9,24 9.8,23.3 C9.9,24.1 10.1,24.1 10.4,24.3 C10.5,24.4 10.7,24.8 10.8,24.5 C10.9,23.4 10.5,23.4 10.3,23 C10.2,22.9 10.2,22.6 10.3,22.7 C12.5,22.8 12.4,24.8 12.8,24.8 C12.6,24.3 12.6,23.8 12.8,23.3 C12.2,22.9 12.4,22.2 12.5,21.8 C11.8,21.1 12.2,19.6 12.5,19.3 C12.1,18.7 12.6,18.3 12.5,17.9 C12.3,16.5 11.1,16.9 10.8,15.7 C10.6,15.9 10.3,16.7 10.4,17 C10.6,17.3 11,17.3 11,17.5 C11,17.6 11,17.9 11,17.9 C10.8,17.9 10.6,17.7 10.4,17.6 C9.9,17.4 8.8,18.2 8.7,17.5 C8.7,17.1 8.8,17.4 8.8,17 C8.8,16.6 8.6,16.9 8.6,16.3 C8.5,16 9,15.8 9,15.7 C9.1,15.3 9.8,16.3 10.2,15.3 C10,15.3 9.5,15.2 9.5,14.9 C9.6,14.3 9.6,12.7 8.2,13.1 C7.7,13.2 6.3,14 6.1,13.2 C5.6,14.1 6.6,14 6.9,13.9 C6.8,14 6.6,14.1 6.2,14 C5.4,14.5 2.4,16.4 1.6,16.9 C2.7,17.4 4.5,16.3 4.5,16.3 Z M5.4,26.5 C5.1,26.4 4.8,26.3 4.6,26.1 C4.8,26.7 4.9,27.2 5.3,27.9 C5.4,28.3 5.7,27.4 5.4,26.5 Z" id="Fill-64"></path>
        </g>
    </g>
</svg>