<svg xmlns="http://www.w3.org/2000/svg" xml:space="preserve" viewBox="22.99 23 445.46 54"><path fill="#606061" d="m97.995 50-15-27H28.764c-3.186 0-5.769 2.59-5.769 5.786v42.428c0 3.195 2.583 5.786 5.769 5.786h54.231l15-27z"/><path fill="#BA1F40" d="M96.496 25.815A5.858 5.858 0 0 0 91.481 23h-4.485l15.201 27-15.202 27h4.486a5.857 5.857 0 0 0 5.015-2.815L109.995 50 96.496 25.815z"/><g fill="#FFF"><path d="M54.995 38h4v24h-4zM46.995 38v17.6l-11-17.6h-4v24h4V44.4l11 17.6h4V38zM77.995 38v10h-11V38h-4v24h4V52h11v10h4V38z"/></g><g fill="#BB0E3D"><path d="M130.849 31h2.495v11.184h-2.495l-5.328-7.008v7.008h-2.496V31h2.336l5.488 7.2V31zM144.064 42.184l-1.04-2.416h-4.688l-1.04 2.416h-2.656L139.472 31h2.416l4.832 11.184h-2.656zm-3.376-7.857-1.407 3.248h2.8l-1.393-3.248zM151.936 33.159v9.025h-2.495v-9.025h-3.168V31h8.831v2.159h-3.168zM156.928 31h2.496v11.184h-2.496V31zM171.584 40.64c-1.131 1.104-2.522 1.656-4.176 1.656s-3.046-.553-4.176-1.656c-1.131-1.104-1.696-2.478-1.696-4.121 0-1.643.565-3.016 1.696-4.12 1.13-1.104 2.522-1.656 4.176-1.656s3.045.553 4.176 1.656c1.131 1.104 1.696 2.478 1.696 4.12 0 1.643-.565 3.016-1.696 4.121zm-.848-4.113c0-.997-.32-1.848-.96-2.552-.641-.704-1.427-1.056-2.36-1.056s-1.72.352-2.36 1.056c-.64.704-.96 1.555-.96 2.552 0 .998.32 1.846.96 2.544.641.699 1.427 1.048 2.36 1.048s1.72-.349 2.36-1.048c.64-.698.96-1.546.96-2.544zM183.216 31h2.496v11.184h-2.496l-5.328-7.008v7.008h-2.496V31h2.336l5.488 7.2V31zM196.432 42.184l-1.04-2.416h-4.688l-1.04 2.416h-2.656L191.84 31h2.416l4.832 11.184h-2.656zm-3.376-7.857-1.408 3.248h2.8l-1.392-3.248zM200.384 42.184V31h2.496v8.96h4.768v2.224h-7.264zM218.832 39.976c1.226 0 2.229-.485 3.008-1.456l1.6 1.648c-1.27 1.429-2.766 2.144-4.488 2.144s-3.141-.544-4.256-1.632c-1.114-1.088-1.672-2.461-1.672-4.121 0-1.658.568-3.042 1.704-4.152 1.136-1.108 2.525-1.664 4.168-1.664 1.835 0 3.37.699 4.608 2.097l-1.553 1.76c-.789-.981-1.771-1.472-2.943-1.472-.939 0-1.742.307-2.408.92-.667.613-1 1.439-1 2.479s.314 1.875.944 2.504c.629.63 1.392.945 2.288.945zM233.296 42.184l-1.04-2.416h-4.688l-1.04 2.416h-2.656L228.704 31h2.416l4.832 11.184h-2.656zm-3.376-7.857-1.408 3.248h2.8l-1.392-3.248zM245.072 31h2.495v11.184h-2.495l-5.328-7.008v7.008h-2.496V31h2.336l5.488 7.2V31zM255.455 39.976c1.227 0 2.229-.485 3.008-1.456l1.601 1.648c-1.27 1.429-2.766 2.144-4.488 2.144s-3.142-.544-4.256-1.632c-1.115-1.088-1.672-2.461-1.672-4.121 0-1.658.567-3.042 1.704-4.152 1.136-1.108 2.524-1.664 4.168-1.664 1.834 0 3.37.699 4.607 2.097l-1.552 1.76c-.79-.981-1.771-1.472-2.944-1.472-.938 0-1.741.307-2.408.92-.666.613-1 1.439-1 2.479s.315 1.875.944 2.504c.629.63 1.393.945 2.288.945zM270.095 31v2.224h-5.567v2.304h5.008v2.128h-5.008v2.321h5.744v2.208h-8.24V31h8.063zM281.567 34.711c0 1.792-.71 2.949-2.129 3.472l2.832 4h-3.071l-2.48-3.568h-1.728v3.568h-2.496V31h4.24c1.738 0 2.979.293 3.72.88s1.112 1.53 1.112 2.831zm-3.008 1.329c.31-.277.464-.718.464-1.32s-.159-1.017-.479-1.24-.88-.336-1.68-.336h-1.872v3.312h1.823c.853 0 1.434-.139 1.744-.416zM288.352 31h2.496v11.184h-2.496V31zM301.424 31h2.495v11.184h-2.495l-5.328-7.008v7.008H293.6V31h2.336l5.488 7.2V31zM309.287 33.231c-.24.197-.36.459-.36.784s.146.584.439.776c.294.191.971.418 2.032.68s1.886.653 2.473 1.176c.586.522.88 1.285.88 2.289 0 1.003-.376 1.816-1.128 2.44s-1.742.936-2.969.936c-1.771 0-3.365-.656-4.783-1.968l1.487-1.824c1.205 1.056 2.32 1.584 3.345 1.584.458 0 .818-.099 1.079-.296.262-.197.393-.464.393-.8s-.139-.603-.416-.8-.827-.398-1.648-.601c-1.301-.309-2.253-.712-2.855-1.208s-.904-1.274-.904-2.336.381-1.88 1.145-2.456c.762-.576 1.714-.864 2.855-.864a6.87 6.87 0 0 1 2.24.385 5.997 5.997 0 0 1 1.952 1.088l-1.265 1.824c-.971-.736-1.973-1.104-3.008-1.104-.417-.001-.745.098-.984.295zM321.519 33.159v9.025h-2.496v-9.025h-3.168V31h8.832v2.159h-3.168zM326.51 31h2.496v11.184h-2.496V31zM336.494 33.159v9.025h-2.496v-9.025h-3.168V31h8.832v2.159h-3.168zM344.445 39.296c.416.518.977.775 1.681.775s1.261-.258 1.672-.775c.41-.518.616-1.225.616-2.121V31h2.495v6.256c0 1.622-.447 2.867-1.344 3.736-.896.87-2.043 1.305-3.439 1.305-1.397 0-2.547-.438-3.448-1.312-.901-.874-1.353-2.117-1.353-3.728V31h2.496v6.176c0 .895.208 1.602.624 2.12zM358.237 33.159v9.025h-2.496v-9.025h-3.168V31h8.832v2.159h-3.168zM371.293 31v2.224h-5.568v2.304h5.008v2.128h-5.008v2.321h5.744v2.208h-8.24V31h8.064z"/></g><g fill="#606060"><path d="M129.562 66.049c1.61 0 2.926-.637 3.948-1.91l2.1 2.162c-1.666 1.877-3.63 2.814-5.891 2.814s-4.123-.714-5.586-2.142c-1.463-1.429-2.194-3.23-2.194-5.407s.746-3.994 2.236-5.45c1.491-1.456 3.314-2.184 5.471-2.184 2.408 0 4.424.917 6.048 2.751l-2.037 2.31c-1.036-1.287-2.323-1.932-3.863-1.932-1.232 0-2.286.402-3.161 1.207-.875.806-1.312 1.891-1.312 3.256 0 1.364.413 2.46 1.239 3.286s1.826 1.239 3.002 1.239zM147.349 68.947h-2.961v-1.365c-.812 1.022-1.816 1.533-3.014 1.533s-2.201-.347-3.014-1.039c-.812-.693-1.218-1.617-1.218-2.772s.42-2.02 1.26-2.593c.841-.574 1.988-.861 3.444-.861h2.353v-.063c0-1.203-.638-1.806-1.911-1.806-.546 0-1.124.108-1.732.325-.609.218-1.124.487-1.544.809l-1.407-2.037c1.484-1.077 3.178-1.616 5.082-1.616 1.372 0 2.492.343 3.36 1.028.868.687 1.302 1.771 1.302 3.255v7.202zm-3.171-4.304v-.546h-1.974c-1.261 0-1.891.392-1.891 1.176 0 .406.15.718.452.935.301.217.731.325 1.291.325s1.054-.171 1.48-.515c.428-.343.642-.801.642-1.375zM153.375 62.647v6.3h-3.149V57.649h3.149v1.26c.952-.966 2.023-1.448 3.213-1.448s2.188.42 2.993 1.26c.805.84 1.207 1.96 1.207 3.359v6.867h-3.149v-6.384c0-1.735-.638-2.604-1.911-2.604-.63 0-1.18.228-1.648.682-.47.456-.705 1.125-.705 2.006zM169.063 66.322c1.05 0 1.995-.525 2.835-1.575l1.869 2.101c-1.456 1.512-3.031 2.268-4.726 2.268-1.693 0-3.125-.535-4.294-1.606s-1.754-2.471-1.754-4.2.592-3.136 1.774-4.221c1.184-1.085 2.587-1.627 4.211-1.627.812 0 1.634.168 2.468.504a6.257 6.257 0 0 1 2.194 1.49l-1.639 2.143a3.73 3.73 0 0 0-1.333-1.008 3.766 3.766 0 0 0-1.564-.357c-.826 0-1.537.27-2.132.809s-.893 1.288-.893 2.247.298 1.704.893 2.236 1.293.796 2.091.796zM185.653 67.31c-1.274 1.204-2.77 1.806-4.483 1.806-1.716 0-3.133-.528-4.253-1.586-1.12-1.057-1.68-2.474-1.68-4.252 0-1.777.57-3.191 1.711-4.242 1.142-1.05 2.488-1.574 4.043-1.574 1.554 0 2.873.469 3.958 1.406 1.085.938 1.628 2.227 1.628 3.864v1.68h-8.232c.098.616.42 1.12.966 1.512a3.089 3.089 0 0 0 1.849.589c1.105 0 2.016-.371 2.729-1.113l1.764 1.91zm-3.025-6.7c-.434-.363-.963-.546-1.585-.546-.624 0-1.194.189-1.712.567a2.165 2.165 0 0 0-.903 1.532h4.956c-.07-.671-.322-1.188-.756-1.553zM194.787 60.422c-.938 0-1.638.332-2.1.997s-.693 1.544-.693 2.636v4.893h-3.149V57.649h3.149v1.491a5.303 5.303 0 0 1 1.522-1.176 4.14 4.14 0 0 1 1.859-.504l.021 2.961h-.609zM215.241 59.141c0 2.352-.931 3.871-2.793 4.557l3.717 5.25h-4.031l-3.256-4.683h-2.268v4.683h-3.276V54.269h5.565c2.281 0 3.909.385 4.883 1.155.972.769 1.459 2.009 1.459 3.717zm-3.949 1.743c.406-.364.609-.941.609-1.732s-.21-1.334-.63-1.628-1.155-.441-2.205-.441h-2.457v4.348h2.394c1.121-.001 1.883-.183 2.289-.547zM228.072 67.31c-1.274 1.204-2.77 1.806-4.483 1.806-1.716 0-3.133-.528-4.253-1.586-1.12-1.057-1.68-2.474-1.68-4.252 0-1.777.57-3.191 1.711-4.242 1.142-1.05 2.488-1.574 4.043-1.574 1.554 0 2.873.469 3.958 1.406 1.085.938 1.628 2.227 1.628 3.864v1.68h-8.232c.098.616.42 1.12.966 1.512a3.089 3.089 0 0 0 1.849.589c1.105 0 2.016-.371 2.729-1.113l1.764 1.91zm-3.025-6.7c-.434-.363-.963-.546-1.585-.546-.624 0-1.194.189-1.712.567a2.165 2.165 0 0 0-.903 1.532h4.956c-.07-.671-.322-1.188-.756-1.553zM239.768 65.43c0 1.113-.409 2.006-1.229 2.678s-1.858 1.008-3.118 1.008c-.841 0-1.716-.15-2.625-.451a7.748 7.748 0 0 1-2.457-1.334l1.386-1.974c1.176.91 2.429 1.365 3.759 1.365.406 0 .728-.081.966-.242.238-.16.357-.374.357-.641 0-.266-.165-.511-.494-.734s-.805-.434-1.428-.63-1.099-.364-1.428-.504-.703-.343-1.124-.609c-.854-.531-1.28-1.319-1.28-2.362s.42-1.894 1.26-2.552c.84-.657 1.925-.986 3.255-.986s2.66.448 3.99 1.344l-1.176 2.1c-.98-.672-1.957-1.008-2.93-1.008-.974 0-1.46.267-1.46.798 0 .294.154.525.462.693.309.168.819.364 1.533.588s1.222.396 1.522.515.662.305 1.082.557c.784.473 1.177 1.267 1.177 2.381zM251.969 67.31c-1.274 1.204-2.77 1.806-4.483 1.806-1.716 0-3.133-.528-4.253-1.586-1.12-1.057-1.68-2.474-1.68-4.252 0-1.777.57-3.191 1.711-4.242 1.142-1.05 2.488-1.574 4.043-1.574 1.554 0 2.873.469 3.958 1.406 1.085.938 1.628 2.227 1.628 3.864v1.68h-8.232c.098.616.42 1.12.966 1.512a3.089 3.089 0 0 0 1.849.589c1.105 0 2.016-.371 2.729-1.113l1.764 1.91zm-3.024-6.7c-.434-.363-.963-.546-1.585-.546-.624 0-1.194.189-1.712.567a2.165 2.165 0 0 0-.903 1.532h4.956c-.071-.671-.323-1.188-.756-1.553zM264.757 68.947h-2.961v-1.365c-.812 1.022-1.816 1.533-3.014 1.533s-2.201-.347-3.014-1.039c-.812-.693-1.218-1.617-1.218-2.772s.42-2.02 1.26-2.593c.841-.574 1.988-.861 3.444-.861h2.353v-.063c0-1.203-.638-1.806-1.911-1.806-.546 0-1.124.108-1.732.325-.609.218-1.124.487-1.544.809l-1.407-2.037c1.484-1.077 3.178-1.616 5.082-1.616 1.372 0 2.492.343 3.36 1.028.868.687 1.302 1.771 1.302 3.255v7.202zm-3.171-4.304v-.546h-1.974c-1.261 0-1.891.392-1.891 1.176 0 .406.15.718.452.935.301.217.731.325 1.291.325s1.054-.171 1.48-.515c.429-.343.642-.801.642-1.375zM273.577 60.422c-.938 0-1.638.332-2.1.997s-.693 1.544-.693 2.636v4.893h-3.149V57.649h3.149v1.491a5.303 5.303 0 0 1 1.522-1.176 4.14 4.14 0 0 1 1.859-.504l.021 2.961h-.609zM281.683 66.322c1.05 0 1.995-.525 2.835-1.575l1.869 2.101c-1.456 1.512-3.031 2.268-4.726 2.268-1.693 0-3.125-.535-4.294-1.606s-1.754-2.471-1.754-4.2.592-3.136 1.774-4.221c1.184-1.085 2.587-1.627 4.211-1.627.812 0 1.634.168 2.468.504a6.257 6.257 0 0 1 2.194 1.49l-1.639 2.143a3.73 3.73 0 0 0-1.333-1.008 3.766 3.766 0 0 0-1.564-.357c-.826 0-1.537.27-2.132.809s-.893 1.288-.893 2.247.298 1.704.893 2.236 1.293.796 2.091.796zM291.636 62.857v6.09h-3.149V53.365h3.149v5.544c.952-.966 2.02-1.448 3.203-1.448 1.183 0 2.18.42 2.992 1.26.812.84 1.218 1.96 1.218 3.359v6.867H295.9v-6.174c0-1.735-.638-2.604-1.911-2.604-.63 0-1.18.228-1.648.682-.47.456-.705 1.125-.705 2.006zM318.978 56.19c1.4 1.28 2.101 3.062 2.101 5.344 0 2.282-.683 4.088-2.048 5.418s-3.447 1.995-6.247 1.995h-5.02V54.269h5.188c2.617 0 4.627.64 6.026 1.921zm-2.404 8.725c.805-.756 1.208-1.854 1.208-3.297 0-1.441-.403-2.551-1.208-3.328s-2.04-1.166-3.706-1.166h-1.827v8.925h2.079c1.498 0 2.649-.378 3.454-1.134zM333.049 68.947h-2.961v-1.365c-.812 1.022-1.816 1.533-3.014 1.533s-2.201-.347-3.014-1.039c-.812-.693-1.218-1.617-1.218-2.772s.42-2.02 1.26-2.593c.841-.574 1.988-.861 3.444-.861h2.353v-.063c0-1.203-.638-1.806-1.911-1.806-.546 0-1.124.108-1.732.325-.609.218-1.124.487-1.544.809l-1.407-2.037c1.484-1.077 3.178-1.616 5.082-1.616 1.372 0 2.492.343 3.36 1.028.868.687 1.302 1.771 1.302 3.255v7.202zm-3.171-4.304v-.546h-1.974c-1.261 0-1.891.392-1.891 1.176 0 .406.15.718.452.935.301.217.731.325 1.291.325s1.054-.171 1.48-.515c.429-.343.642-.801.642-1.375zM339.559 59.918v5.061c0 .434.112.773.336 1.019s.49.367.798.367c.588 0 1.085-.266 1.491-.798l1.176 2.205c-.979.896-2.013 1.344-3.098 1.344s-2.002-.357-2.751-1.071-1.123-1.687-1.123-2.919v-5.207h-1.323V57.65h1.323v-3.381h3.171v3.381h2.73v2.269h-2.73zM354.636 68.947h-2.961v-1.365c-.812 1.022-1.816 1.533-3.014 1.533s-2.201-.347-3.014-1.039c-.812-.693-1.218-1.617-1.218-2.772s.42-2.02 1.26-2.593c.841-.574 1.988-.861 3.444-.861h2.353v-.063c0-1.203-.638-1.806-1.911-1.806-.546 0-1.124.108-1.732.325-.609.218-1.124.487-1.544.809l-1.407-2.037c1.484-1.077 3.178-1.616 5.082-1.616 1.372 0 2.492.343 3.36 1.028.868.687 1.302 1.771 1.302 3.255v7.202zm-3.171-4.304v-.546h-1.974c-1.261 0-1.891.392-1.891 1.176 0 .406.15.718.452.935.301.217.731.325 1.291.325s1.054-.171 1.48-.515c.428-.343.642-.801.642-1.375zM370.113 66.049c1.61 0 2.926-.637 3.948-1.91l2.1 2.162c-1.666 1.877-3.63 2.814-5.891 2.814s-4.123-.714-5.586-2.142c-1.463-1.429-2.194-3.23-2.194-5.407s.746-3.994 2.236-5.45c1.491-1.456 3.314-2.184 5.471-2.184 2.408 0 4.424.917 6.048 2.751l-2.037 2.31c-1.036-1.287-2.323-1.932-3.863-1.932-1.232 0-2.286.402-3.161 1.207-.875.806-1.312 1.891-1.312 3.256 0 1.364.413 2.46 1.239 3.286s1.826 1.239 3.002 1.239zM389.286 63.298c0 1.639-.567 3.018-1.701 4.138s-2.559 1.68-4.273 1.68-3.14-.56-4.273-1.68-1.701-2.499-1.701-4.138c0-1.638.567-3.02 1.701-4.146s2.559-1.69 4.273-1.69 3.14.563 4.273 1.69 1.701 2.508 1.701 4.146zm-8.779 0c0 .925.263 1.677.788 2.258.524.581 1.196.872 2.016.872s1.491-.291 2.016-.872c.525-.581.788-1.333.788-2.258 0-.924-.263-1.68-.788-2.268-.524-.588-1.196-.882-2.016-.882s-1.491.294-2.016.882c-.525.588-.788 1.344-.788 2.268zM401.991 62.857v6.09h-3.171v-6.174c0-.896-.137-1.554-.41-1.974-.272-.42-.714-.63-1.322-.63-.609 0-1.148.228-1.617.682-.47.455-.704 1.124-.704 2.006v6.09h-3.149V57.649h3.149v1.281c.868-.979 1.862-1.47 2.982-1.47.714 0 1.361.21 1.942.63s1.019.931 1.312 1.532a4.436 4.436 0 0 1 1.754-1.596c.734-.378 1.473-.566 2.215-.566 1.33 0 2.401.396 3.213 1.187.812.791 1.219 1.936 1.219 3.433v6.867h-3.171v-6.174c0-1.735-.638-2.604-1.911-2.604-.63 0-1.177.228-1.639.682-.462.456-.692 1.125-.692 2.006zM422.633 62.857v6.09h-3.171v-6.174c0-.896-.137-1.554-.41-1.974-.272-.42-.714-.63-1.322-.63-.609 0-1.148.228-1.617.682-.47.455-.704 1.124-.704 2.006v6.09h-3.149V57.649h3.149v1.281c.868-.979 1.862-1.47 2.982-1.47.714 0 1.361.21 1.942.63s1.019.931 1.312 1.532a4.436 4.436 0 0 1 1.754-1.596c.734-.378 1.473-.566 2.215-.566 1.33 0 2.401.396 3.213 1.187.812.791 1.219 1.936 1.219 3.433v6.867h-3.171v-6.174c0-1.735-.638-2.604-1.911-2.604-.63 0-1.177.228-1.639.682-.461.456-.692 1.125-.692 2.006zM444.2 63.298c0 1.639-.567 3.018-1.701 4.138s-2.559 1.68-4.273 1.68-3.14-.56-4.273-1.68-1.701-2.499-1.701-4.138c0-1.638.567-3.02 1.701-4.146s2.559-1.69 4.273-1.69 3.14.563 4.273 1.69 1.701 2.508 1.701 4.146zm-8.779 0c0 .925.263 1.677.788 2.258.524.581 1.196.872 2.016.872s1.491-.291 2.016-.872c.525-.581.788-1.333.788-2.258 0-.924-.263-1.68-.788-2.268-.524-.588-1.196-.882-2.016-.882s-1.491.294-2.016.882c-.525.588-.788 1.344-.788 2.268zM449.68 62.647v6.3h-3.149V57.649h3.149v1.26c.952-.966 2.023-1.448 3.213-1.448s2.188.42 2.993 1.26c.805.84 1.207 1.96 1.207 3.359v6.867h-3.149v-6.384c0-1.735-.638-2.604-1.911-2.604-.63 0-1.18.228-1.648.682-.47.456-.705 1.125-.705 2.006zM468.455 65.43c0 1.113-.409 2.006-1.229 2.678s-1.858 1.008-3.118 1.008c-.841 0-1.716-.15-2.625-.451a7.748 7.748 0 0 1-2.457-1.334l1.386-1.974c1.176.91 2.429 1.365 3.759 1.365.406 0 .728-.081.966-.242.238-.16.357-.374.357-.641 0-.266-.165-.511-.494-.734s-.805-.434-1.428-.63-1.099-.364-1.428-.504-.703-.343-1.124-.609c-.854-.531-1.28-1.319-1.28-2.362s.42-1.894 1.26-2.552c.84-.657 1.925-.986 3.255-.986s2.66.448 3.99 1.344l-1.176 2.1c-.98-.672-1.957-1.008-2.93-1.008-.974 0-1.46.267-1.46.798 0 .294.154.525.462.693.309.168.819.364 1.533.588s1.222.396 1.522.515.662.305 1.082.557c.784.473 1.177 1.267 1.177 2.381z"/></g></svg>