<?xml version="1.0" encoding="UTF-8"?>
<svg width="432px" height="76px" viewBox="0 0 432 76" version="1.1" xmlns="http://www.w3.org/2000/svg" xmlns:xlink="http://www.w3.org/1999/xlink">
    <!-- Generator: Sketch 52.3 (67297) - http://www.bohemiancoding.com/sketch -->
    <title>Group 70</title>
    <desc>Created with Sketch.</desc>
    <g id="Page-1" stroke="none" stroke-width="1" fill="none" fill-rule="evenodd">
        <g id="Group-70">
            <path d="M113.3928,57.5687 C115.5048,57.5687 117.6198,57.3207 119.7328,56.8247 C121.8458,56.3297 123.7538,55.4887 125.4578,54.3007 C127.1618,53.1157 128.5518,51.5097 129.6308,49.4817 C130.7078,47.4557 131.2478,44.8887 131.2478,41.7837 C131.2478,38.5067 130.7078,35.8317 129.6308,33.7607 C128.5518,31.6907 127.1618,30.0737 125.4578,28.9097 C123.7538,27.7447 121.8458,26.9477 119.7328,26.5157 C117.6198,26.0857 115.5048,25.8687 113.3928,25.8687 L106.5998,25.8687 L106.5998,57.5687 L113.3928,57.5687 Z M98.4488,18.8817 L114.6868,18.8817 C117.6628,18.8817 120.6598,19.2697 123.6788,20.0467 C126.6978,20.8227 129.4138,22.1067 131.8298,23.8957 C134.2458,25.6857 136.2068,28.0367 137.7178,30.9477 C139.2268,33.8587 139.9818,37.4707 139.9818,41.7837 C139.9818,45.7947 139.2268,49.2457 137.7178,52.1337 C136.2068,55.0247 134.2458,57.3967 131.8298,59.2507 C129.4138,61.1057 126.6978,62.4747 123.6788,63.3587 C120.6598,64.2437 117.6628,64.6847 114.6868,64.6847 L98.4488,64.6847 L98.4488,18.8817 Z" id="Fill-1" fill="#00ACE7"></path>
            <path d="M179.3147,29.6215 C178.1067,27.9825 176.5327,26.7855 174.5917,26.0305 C172.6517,25.2765 170.7527,24.8985 168.8987,24.8985 C166.5267,24.8985 164.3707,25.3305 162.4297,26.1925 C160.4887,27.0555 158.8167,28.2415 157.4167,29.7505 C156.0137,31.2615 154.9357,33.0285 154.1807,35.0555 C153.4257,37.0835 153.0487,39.2825 153.0487,41.6535 C153.0487,44.1555 153.4157,46.4415 154.1487,48.5115 C154.8817,50.5815 155.9277,52.3605 157.2867,53.8495 C158.6447,55.3365 160.2727,56.4915 162.1707,57.3095 C164.0687,58.1295 166.2037,58.5395 168.5757,58.5395 C171.0337,58.5395 173.2107,58.0545 175.1097,57.0835 C177.0067,56.1125 178.5387,54.8305 179.7027,53.2335 L186.2367,57.8275 C184.2097,60.3725 181.7297,62.3465 178.7967,63.7465 C175.8637,65.1475 172.4347,65.8495 168.5107,65.8495 C164.9307,65.8495 161.6417,65.2565 158.6447,64.0705 C155.6467,62.8845 153.0707,61.2245 150.9147,59.0895 C148.7567,56.9545 147.0757,54.4095 145.8687,51.4555 C144.6607,48.5015 144.0567,45.2345 144.0567,41.6535 C144.0567,37.9885 144.6927,34.6785 145.9647,31.7245 C147.2367,28.7695 148.9837,26.2575 151.2057,24.1865 C153.4257,22.1165 156.0457,20.5215 159.0657,19.3995 C162.0847,18.2785 165.3627,17.7175 168.8987,17.7175 C170.3647,17.7175 171.8957,17.8575 173.4927,18.1385 C175.0867,18.4195 176.6187,18.8505 178.0857,19.4325 C179.5507,20.0145 180.9317,20.7365 182.2257,21.5995 C183.5197,22.4625 184.6197,23.4975 185.5257,24.7045 L179.3147,29.6215 Z" id="Fill-3" fill="#323E77"></path>
            <polygon id="Fill-5" fill="#00ABA2" points="189.6662 18.8822 219.2312 18.8822 219.2312 25.9982 197.8172 25.9982 197.8172 38.5492 218.0022 38.5492 218.0022 45.4062 197.8172 45.4062 197.8172 64.6852 189.6662 64.6852"></polygon>
            <path d="M240.843,36.3422 C241.833,36.3422 242.824,36.2262 243.816,35.9922 C244.807,35.7602 245.701,35.3662 246.501,34.8102 C247.3,34.2532 247.952,33.5002 248.458,32.5492 C248.963,31.5992 249.216,30.3952 249.216,28.9392 C249.216,27.4022 248.963,26.1482 248.458,25.1772 C247.952,24.2062 247.3,23.4472 246.501,22.9022 C245.701,22.3562 244.807,21.9822 243.816,21.7792 C242.824,21.5762 241.833,21.4762 240.843,21.4762 L237.657,21.4762 L237.657,36.3422 L240.843,36.3422 Z M233.834,18.1982 L241.449,18.1982 C242.845,18.1982 244.251,18.3812 245.667,18.7442 C247.082,19.1092 248.357,19.7112 249.489,20.5502 C250.622,21.3902 251.542,22.4912 252.25,23.8572 C252.958,25.2222 253.313,26.9162 253.313,28.9392 C253.313,30.8202 252.958,32.4392 252.25,33.7932 C251.542,35.1492 250.622,36.2612 249.489,37.1302 C248.357,38.0002 247.082,38.6432 245.667,39.0572 C244.251,39.4722 242.845,39.6792 241.449,39.6792 L233.834,39.6792 L233.834,18.1982 Z" id="Fill-7" fill="#3A3A3A"></path>
            <path d="M263.8401,33.0346 L263.0211,33.0346 C262.4341,33.0346 261.8171,33.0596 261.1701,33.1106 C260.5231,33.1616 259.9261,33.2726 259.3801,33.4446 C258.8341,33.6166 258.3791,33.8586 258.0151,34.1726 C257.6511,34.4866 257.4691,34.9156 257.4691,35.4626 C257.4691,35.8056 257.5441,36.0946 257.6961,36.3266 C257.8481,36.5586 258.0451,36.7466 258.2871,36.8886 C258.5301,37.0296 258.8041,37.1306 259.1071,37.1906 C259.4101,37.2526 259.7141,37.2826 260.0171,37.2826 C261.2711,37.2826 262.2221,36.9486 262.8691,36.2806 C263.5161,35.6136 263.8401,34.7036 263.8401,33.5506 L263.8401,33.0346 Z M263.9011,37.8286 L263.8101,37.8286 C263.4451,38.4756 262.8591,39.0076 262.0501,39.4216 C261.2401,39.8356 260.3201,40.0436 259.2891,40.0436 C258.7021,40.0436 258.0911,39.9676 257.4531,39.8156 C256.8171,39.6636 256.2301,39.4116 255.6941,39.0566 C255.1571,38.7036 254.7121,38.2376 254.3591,37.6616 C254.0051,37.0856 253.8281,36.3726 253.8281,35.5226 C253.8281,34.4306 254.1361,33.5606 254.7531,32.9136 C255.3701,32.2656 256.1641,31.7706 257.1351,31.4276 C258.1061,31.0836 259.1831,30.8556 260.3661,30.7446 C261.5491,30.6336 262.7071,30.5776 263.8401,30.5776 L263.8401,30.2136 C263.8401,29.3036 263.5111,28.6316 262.8541,28.1956 C262.1961,27.7616 261.4121,27.5436 260.5021,27.5436 C259.7341,27.5436 258.9951,27.7056 258.2871,28.0286 C257.5791,28.3526 256.9931,28.7476 256.5281,29.2126 L254.6471,26.9976 C255.4761,26.2286 256.4321,25.6526 257.5141,25.2676 C258.5961,24.8846 259.6941,24.6916 260.8061,24.6916 C262.1001,24.6916 263.1671,24.8736 264.0071,25.2376 C264.8461,25.6016 265.5091,26.0776 265.9941,26.6636 C266.4801,27.2506 266.8181,27.9076 267.0101,28.6356 C267.2021,29.3636 267.2981,30.0926 267.2981,30.8196 L267.2981,39.6796 L263.9011,39.6796 L263.9011,37.8286 Z" id="Fill-9" fill="#3A3A3A"></path>
            <path d="M268.3899,28.0287 L268.3899,25.1167 L270.9389,25.1167 L270.9389,20.8987 L274.5189,20.8987 L274.5189,25.1167 L278.1599,25.1167 L278.1599,28.0287 L274.5189,28.0287 L274.5189,34.7947 C274.5189,35.4417 274.6349,35.9777 274.8679,36.4027 C275.0999,36.8277 275.6199,37.0397 276.4299,37.0397 C276.6729,37.0397 276.9359,37.0137 277.2189,36.9637 C277.5019,36.9137 277.7539,36.8377 277.9779,36.7357 L278.0989,39.5887 C277.7749,39.7097 277.3909,39.8047 276.9459,39.8767 C276.4999,39.9467 276.0759,39.9827 275.6709,39.9827 C274.7009,39.9827 273.9109,39.8457 273.3049,39.5727 C272.6989,39.2997 272.2179,38.9257 271.8639,38.4507 C271.5099,37.9747 271.2669,37.4287 271.1359,36.8117 C271.0039,36.1957 270.9389,35.5327 270.9389,34.8247 L270.9389,28.0287 L268.3899,28.0287 Z" id="Fill-11" fill="#3A3A3A"></path>
            <path d="M289.0207,33.0346 L288.2017,33.0346 C287.6147,33.0346 286.9977,33.0596 286.3507,33.1106 C285.7037,33.1616 285.1067,33.2726 284.5607,33.4446 C284.0147,33.6166 283.5597,33.8586 283.1957,34.1726 C282.8317,34.4866 282.6497,34.9156 282.6497,35.4626 C282.6497,35.8056 282.7247,36.0946 282.8767,36.3266 C283.0287,36.5586 283.2257,36.7466 283.4677,36.8886 C283.7107,37.0296 283.9847,37.1306 284.2877,37.1906 C284.5907,37.2526 284.8947,37.2826 285.1977,37.2826 C286.4517,37.2826 287.4027,36.9486 288.0497,36.2806 C288.6967,35.6136 289.0207,34.7036 289.0207,33.5506 L289.0207,33.0346 Z M289.0817,37.8286 L288.9907,37.8286 C288.6257,38.4756 288.0397,39.0076 287.2307,39.4216 C286.4207,39.8356 285.5007,40.0436 284.4697,40.0436 C283.8827,40.0436 283.2717,39.9676 282.6337,39.8156 C281.9977,39.6636 281.4107,39.4116 280.8747,39.0566 C280.3377,38.7036 279.8927,38.2376 279.5397,37.6616 C279.1857,37.0856 279.0087,36.3726 279.0087,35.5226 C279.0087,34.4306 279.3167,33.5606 279.9337,32.9136 C280.5507,32.2656 281.3447,31.7706 282.3157,31.4276 C283.2867,31.0836 284.3637,30.8556 285.5467,30.7446 C286.7297,30.6336 287.8877,30.5776 289.0207,30.5776 L289.0207,30.2136 C289.0207,29.3036 288.6917,28.6316 288.0347,28.1956 C287.3767,27.7616 286.5927,27.5436 285.6827,27.5436 C284.9147,27.5436 284.1757,27.7056 283.4677,28.0286 C282.7597,28.3526 282.1737,28.7476 281.7087,29.2126 L279.8277,26.9976 C280.6567,26.2286 281.6127,25.6526 282.6947,25.2676 C283.7767,24.8846 284.8747,24.6916 285.9867,24.6916 C287.2807,24.6916 288.3477,24.8736 289.1877,25.2376 C290.0267,25.6016 290.6897,26.0776 291.1747,26.6636 C291.6607,27.2506 291.9987,27.9076 292.1907,28.6356 C292.3827,29.3636 292.4787,30.0926 292.4787,30.8196 L292.4787,39.6796 L289.0817,39.6796 L289.0817,37.8286 Z" id="Fill-13" fill="#3A3A3A"></path>
            <path d="M312.4123,23.2348 C311.8463,22.4668 311.1073,21.9058 310.1973,21.5508 C309.2873,21.1978 308.3963,21.0208 307.5273,21.0208 C306.4153,21.0208 305.4033,21.2228 304.4933,21.6278 C303.5833,22.0318 302.7993,22.5888 302.1413,23.2968 C301.4843,24.0048 300.9783,24.8338 300.6253,25.7838 C300.2703,26.7348 300.0943,27.7658 300.0943,28.8788 C300.0943,30.0508 300.2663,31.1238 300.6093,32.0938 C300.9533,33.0648 301.4443,33.8998 302.0813,34.5968 C302.7193,35.2958 303.4813,35.8368 304.3723,36.2198 C305.2623,36.6048 306.2633,36.7978 307.3763,36.7978 C308.5283,36.7978 309.5503,36.5698 310.4393,36.1148 C311.3293,35.6598 312.0483,35.0578 312.5943,34.3088 L315.6583,36.4638 C314.7073,37.6568 313.5443,38.5828 312.1693,39.2398 C310.7933,39.8958 309.1853,40.2248 307.3453,40.2248 C305.6663,40.2248 304.1243,39.9468 302.7193,39.3908 C301.3123,38.8348 300.1043,38.0558 299.0933,37.0548 C298.0813,36.0528 297.2923,34.8608 296.7263,33.4748 C296.1603,32.0888 295.8773,30.5568 295.8773,28.8788 C295.8773,27.1598 296.1753,25.6068 296.7713,24.2208 C297.3683,22.8368 298.1873,21.6578 299.2293,20.6868 C300.2703,19.7158 301.5003,18.9678 302.9163,18.4418 C304.3313,17.9158 305.8683,17.6528 307.5273,17.6528 C308.2153,17.6528 308.9333,17.7188 309.6823,17.8498 C310.4303,17.9818 311.1473,18.1838 311.8353,18.4568 C312.5223,18.7298 313.1703,19.0688 313.7773,19.4728 C314.3843,19.8788 314.8993,20.3638 315.3243,20.9288 L312.4123,23.2348 Z" id="Fill-15" fill="#3A3A3A"></path>
            <path d="M319.5725,32.3373 C319.5725,32.9033 319.6585,33.4703 319.8305,34.0353 C320.0025,34.6033 320.2595,35.1083 320.6035,35.5533 C320.9475,35.9983 321.3835,36.3613 321.9085,36.6453 C322.4345,36.9293 323.0615,37.0693 323.7905,37.0693 C324.5175,37.0693 325.1445,36.9293 325.6715,36.6453 C326.1965,36.3613 326.6315,35.9983 326.9755,35.5533 C327.3195,35.1083 327.5775,34.6033 327.7495,34.0353 C327.9215,33.4703 328.0075,32.9033 328.0075,32.3373 C328.0075,31.7713 327.9215,31.2093 327.7495,30.6523 C327.5775,30.0973 327.3195,29.5963 326.9755,29.1513 C326.6315,28.7063 326.1965,28.3473 325.6715,28.0743 C325.1445,27.8013 324.5175,27.6643 323.7905,27.6643 C323.0615,27.6643 322.4345,27.8013 321.9085,28.0743 C321.3835,28.3473 320.9475,28.7063 320.6035,29.1513 C320.2595,29.5963 320.0025,30.0973 319.8305,30.6523 C319.6585,31.2093 319.5725,31.7713 319.5725,32.3373 M315.8715,32.3373 C315.8715,31.1843 316.0785,30.1373 316.4935,29.1963 C316.9075,28.2563 317.4685,27.4523 318.1765,26.7843 C318.8855,26.1173 319.7245,25.6023 320.6955,25.2373 C321.6665,24.8733 322.6975,24.6913 323.7905,24.6913 C324.8825,24.6913 325.9135,24.8733 326.8845,25.2373 C327.8555,25.6023 328.6945,26.1173 329.4025,26.7843 C330.1105,27.4523 330.6725,28.2563 331.0865,29.1963 C331.5015,30.1373 331.7085,31.1843 331.7085,32.3373 C331.7085,33.4893 331.5015,34.5413 331.0865,35.4923 C330.6725,36.4423 330.1105,37.2573 329.4025,37.9353 C328.6945,38.6123 327.8555,39.1433 326.8845,39.5273 C325.9135,39.9113 324.8825,40.1043 323.7905,40.1043 C322.6975,40.1043 321.6665,39.9113 320.6955,39.5273 C319.7245,39.1433 318.8855,38.6123 318.1765,37.9353 C317.4685,37.2573 316.9075,36.4423 316.4935,35.4923 C316.0785,34.5413 315.8715,33.4893 315.8715,32.3373" id="Fill-17" fill="#3A3A3A"></path>
            <path d="M351.8528,24.6918 C352.8038,24.6918 353.6178,24.8588 354.2948,25.1918 C354.9728,25.5258 355.5288,25.9658 355.9638,26.5118 C356.3988,27.0578 356.7168,27.6848 356.9198,28.3928 C357.1228,29.1008 357.2228,29.8298 357.2228,30.5778 L357.2228,39.6788 L353.5818,39.6788 L353.5818,31.6088 C353.5818,31.1838 353.5518,30.7398 353.4918,30.2738 C353.4308,29.8088 353.2988,29.3888 353.0968,29.0148 C352.8948,28.6408 352.6168,28.3328 352.2628,28.0888 C351.9088,27.8468 351.4388,27.7248 350.8518,27.7248 C350.2858,27.7248 349.7998,27.8468 349.3958,28.0888 C348.9908,28.3328 348.6578,28.6458 348.3948,29.0298 C348.1308,29.4148 347.9398,29.8438 347.8188,30.3198 C347.6968,30.7958 347.6358,31.2648 347.6358,31.7298 L347.6358,39.6788 L343.9958,39.6788 L343.9958,30.8798 C343.9958,29.9698 343.7778,29.2168 343.3428,28.6208 C342.9078,28.0238 342.2248,27.7248 341.2948,27.7248 C340.7488,27.7248 340.2738,27.8418 339.8698,28.0748 C339.4638,28.3068 339.1358,28.6048 338.8828,28.9688 C338.6298,29.3338 338.4378,29.7538 338.3068,30.2288 C338.1748,30.7038 338.1098,31.1838 338.1098,31.6698 L338.1098,39.6788 L334.4688,39.6788 L334.4688,25.1168 L337.9278,25.1168 L337.9278,27.4528 L337.9888,27.4528 C338.1498,27.0878 338.3678,26.7448 338.6408,26.4208 C338.9138,26.0968 339.2368,25.8038 339.6118,25.5418 C339.9858,25.2788 340.4148,25.0708 340.9008,24.9198 C341.3858,24.7668 341.9218,24.6918 342.5088,24.6918 C343.6408,24.6918 344.5818,24.9448 345.3308,25.4498 C346.0788,25.9558 346.6548,26.6238 347.0598,27.4528 C347.5448,26.5628 348.1928,25.8798 349.0008,25.4048 C349.8098,24.9288 350.7608,24.6918 351.8528,24.6918" id="Fill-19" fill="#3A3A3A"></path>
            <path d="M378.0959,24.6918 C379.0469,24.6918 379.8609,24.8588 380.5379,25.1918 C381.2159,25.5258 381.7719,25.9658 382.2069,26.5118 C382.6419,27.0578 382.9599,27.6848 383.1629,28.3928 C383.3659,29.1008 383.4659,29.8298 383.4659,30.5778 L383.4659,39.6788 L379.8249,39.6788 L379.8249,31.6088 C379.8249,31.1838 379.7949,30.7398 379.7349,30.2738 C379.6739,29.8088 379.5419,29.3888 379.3399,29.0148 C379.1379,28.6408 378.8599,28.3328 378.5059,28.0888 C378.1519,27.8468 377.6819,27.7248 377.0949,27.7248 C376.5289,27.7248 376.0429,27.8468 375.6389,28.0888 C375.2339,28.3328 374.9009,28.6458 374.6379,29.0298 C374.3739,29.4148 374.1829,29.8438 374.0619,30.3198 C373.9399,30.7958 373.8789,31.2648 373.8789,31.7298 L373.8789,39.6788 L370.2389,39.6788 L370.2389,30.8798 C370.2389,29.9698 370.0209,29.2168 369.5859,28.6208 C369.1509,28.0238 368.4679,27.7248 367.5379,27.7248 C366.9919,27.7248 366.5169,27.8418 366.1129,28.0748 C365.7069,28.3068 365.3789,28.6048 365.1259,28.9688 C364.8729,29.3338 364.6809,29.7538 364.5499,30.2288 C364.4179,30.7038 364.3529,31.1838 364.3529,31.6698 L364.3529,39.6788 L360.7119,39.6788 L360.7119,25.1168 L364.1709,25.1168 L364.1709,27.4528 L364.2319,27.4528 C364.3929,27.0878 364.6109,26.7448 364.8839,26.4208 C365.1569,26.0968 365.4799,25.8038 365.8549,25.5418 C366.2289,25.2788 366.6579,25.0708 367.1439,24.9198 C367.6289,24.7668 368.1649,24.6918 368.7519,24.6918 C369.8839,24.6918 370.8249,24.9448 371.5739,25.4498 C372.3219,25.9558 372.8979,26.6238 373.3029,27.4528 C373.7879,26.5628 374.4359,25.8798 375.2439,25.4048 C376.0529,24.9288 377.0039,24.6918 378.0959,24.6918" id="Fill-21" fill="#3A3A3A"></path>
            <path d="M389.8069,32.3373 C389.8069,32.9033 389.8929,33.4703 390.0649,34.0353 C390.2369,34.6033 390.4939,35.1083 390.8379,35.5533 C391.1819,35.9983 391.6179,36.3613 392.1429,36.6453 C392.6689,36.9293 393.2959,37.0693 394.0249,37.0693 C394.7519,37.0693 395.3789,36.9293 395.9059,36.6453 C396.4309,36.3613 396.8659,35.9983 397.2099,35.5533 C397.5539,35.1083 397.8119,34.6033 397.9839,34.0353 C398.1559,33.4703 398.2419,32.9033 398.2419,32.3373 C398.2419,31.7713 398.1559,31.2093 397.9839,30.6523 C397.8119,30.0973 397.5539,29.5963 397.2099,29.1513 C396.8659,28.7063 396.4309,28.3473 395.9059,28.0743 C395.3789,27.8013 394.7519,27.6643 394.0249,27.6643 C393.2959,27.6643 392.6689,27.8013 392.1429,28.0743 C391.6179,28.3473 391.1819,28.7063 390.8379,29.1513 C390.4939,29.5963 390.2369,30.0973 390.0649,30.6523 C389.8929,31.2093 389.8069,31.7713 389.8069,32.3373 M386.1059,32.3373 C386.1059,31.1843 386.3129,30.1373 386.7279,29.1963 C387.1419,28.2563 387.7029,27.4523 388.4109,26.7843 C389.1199,26.1173 389.9589,25.6023 390.9299,25.2373 C391.9009,24.8733 392.9319,24.6913 394.0249,24.6913 C395.1169,24.6913 396.1479,24.8733 397.1189,25.2373 C398.0899,25.6023 398.9289,26.1173 399.6369,26.7843 C400.3449,27.4523 400.9069,28.2563 401.3209,29.1963 C401.7359,30.1373 401.9429,31.1843 401.9429,32.3373 C401.9429,33.4893 401.7359,34.5413 401.3209,35.4923 C400.9069,36.4423 400.3449,37.2573 399.6369,37.9353 C398.9289,38.6123 398.0899,39.1433 397.1189,39.5273 C396.1479,39.9113 395.1169,40.1043 394.0249,40.1043 C392.9319,40.1043 391.9009,39.9113 390.9299,39.5273 C389.9589,39.1433 389.1199,38.6123 388.4109,37.9353 C387.7029,37.2573 387.1419,36.4423 386.7279,35.4923 C386.3129,34.5413 386.1059,33.4893 386.1059,32.3373" id="Fill-23" fill="#3A3A3A"></path>
            <path d="M404.7033,25.1166 L408.1623,25.1166 L408.1623,27.4526 L408.2233,27.4526 C408.5463,26.7236 409.1063,26.0826 409.9063,25.5256 C410.7053,24.9706 411.6503,24.6916 412.7433,24.6916 C413.6933,24.6916 414.5073,24.8586 415.1853,25.1916 C415.8623,25.5256 416.4193,25.9666 416.8533,26.5126 C417.2883,27.0576 417.6073,27.6846 417.8093,28.3926 C418.0123,29.1006 418.1133,29.8296 418.1133,30.5776 L418.1133,39.6796 L414.4733,39.6796 L414.4733,31.6086 C414.4733,31.1836 414.4413,30.7396 414.3813,30.2736 C414.3203,29.8086 414.1883,29.3886 413.9863,29.0146 C413.7843,28.6406 413.5063,28.3326 413.1523,28.0896 C412.7993,27.8466 412.3283,27.7246 411.7413,27.7246 C411.1553,27.7246 410.6493,27.8426 410.2243,28.0746 C409.8003,28.3066 409.4513,28.6046 409.1783,28.9696 C408.9053,29.3336 408.6973,29.7536 408.5563,30.2286 C408.4143,30.7036 408.3443,31.1836 408.3443,31.6696 L408.3443,39.6796 L404.7033,39.6796 L404.7033,25.1166 Z" id="Fill-25" fill="#3A3A3A"></path>
            <path d="M429.5813,28.9994 C429.2573,28.5744 428.8113,28.2064 428.2463,27.8924 C427.6803,27.5784 427.0623,27.4224 426.3953,27.4224 C425.8093,27.4224 425.2723,27.5434 424.7873,27.7864 C424.3023,28.0284 424.0593,28.4344 424.0593,28.9994 C424.0593,29.5654 424.3273,29.9664 424.8633,30.1974 C425.3983,30.4314 426.1833,30.6684 427.2143,30.9114 C427.7613,31.0324 428.3113,31.1944 428.8673,31.3964 C429.4243,31.5994 429.9303,31.8664 430.3853,32.2004 C430.8403,32.5344 431.2093,32.9484 431.4923,33.4444 C431.7753,33.9394 431.9173,34.5414 431.9173,35.2494 C431.9173,36.1404 431.7503,36.8934 431.4163,37.5104 C431.0823,38.1274 430.6383,38.6274 430.0813,39.0124 C429.5243,39.3954 428.8783,39.6744 428.1403,39.8464 C427.4013,40.0184 426.6383,40.1034 425.8493,40.1034 C424.7163,40.1034 423.6133,39.8954 422.5423,39.4814 C421.4703,39.0674 420.5803,38.4764 419.8723,37.7074 L422.2693,35.4624 C422.6733,35.9874 423.1993,36.4234 423.8473,36.7674 C424.4933,37.1104 425.2123,37.2824 426.0013,37.2824 C426.2643,37.2824 426.5313,37.2524 426.8053,37.1904 C427.0783,37.1304 427.3303,37.0344 427.5633,36.9024 C427.7953,36.7714 427.9823,36.5954 428.1243,36.3724 C428.2663,36.1494 428.3373,35.8764 428.3373,35.5534 C428.3373,34.9454 428.0593,34.5114 427.5023,34.2484 C426.9463,33.9854 426.1113,33.7234 424.9993,33.4594 C424.4533,33.3384 423.9233,33.1824 423.4063,32.9894 C422.8913,32.7974 422.4313,32.5444 422.0263,32.2304 C421.6213,31.9174 421.2983,31.5284 421.0563,31.0624 C420.8123,30.5984 420.6913,30.0204 420.6913,29.3334 C420.6913,28.5244 420.8583,27.8264 421.1913,27.2394 C421.5253,26.6534 421.9663,26.1734 422.5123,25.7994 C423.0583,25.4254 423.6753,25.1464 424.3623,24.9644 C425.0503,24.7824 425.7583,24.6914 426.4863,24.6914 C427.5373,24.6914 428.5643,24.8734 429.5653,25.2374 C430.5663,25.6024 431.3603,26.1584 431.9473,26.9064 L429.5813,28.9994 Z" id="Fill-27" fill="#3A3A3A"></path>
            <polygon id="Fill-30" fill="#3A3A3A" points="233.8342 44.7953 247.6992 44.7953 247.6992 48.1333 237.6572 48.1333 237.6572 54.0193 247.1232 54.0193 247.1232 57.2343 237.6572 57.2343 237.6572 66.2753 233.8342 66.2753"></polygon>
            <path d="M249.0041,51.7133 L252.4931,51.7133 L252.4931,54.1403 L252.5541,54.1403 C252.9581,53.2903 253.5251,52.6033 254.2531,52.0763 C254.9811,51.5513 255.8301,51.2883 256.8011,51.2883 C256.9421,51.2883 257.0941,51.2933 257.2561,51.3033 C257.4181,51.3143 257.5601,51.3393 257.6811,51.3793 L257.6811,54.7163 C257.4391,54.6553 257.2311,54.6153 257.0591,54.5953 C256.8871,54.5753 256.7201,54.5653 256.5591,54.5653 C255.7291,54.5653 255.0621,54.7163 254.5561,55.0203 C254.0501,55.3233 253.6551,55.6873 253.3731,56.1113 C253.0891,56.5363 252.8981,56.9723 252.7961,57.4163 C252.6941,57.8613 252.6451,58.2163 252.6451,58.4793 L252.6451,66.2763 L249.0041,66.2763 L249.0041,51.7133 Z" id="Fill-32" fill="#3A3A3A"></path>
            <path d="M267.8762,59.6312 L267.0572,59.6312 C266.4702,59.6312 265.8532,59.6562 265.2062,59.7072 C264.5592,59.7582 263.9622,59.8692 263.4162,60.0412 C262.8702,60.2132 262.4152,60.4552 262.0512,60.7692 C261.6872,61.0832 261.5052,61.5122 261.5052,62.0592 C261.5052,62.4022 261.5802,62.6912 261.7322,62.9232 C261.8842,63.1552 262.0812,63.3432 262.3232,63.4852 C262.5662,63.6262 262.8402,63.7272 263.1432,63.7872 C263.4462,63.8492 263.7502,63.8792 264.0532,63.8792 C265.3072,63.8792 266.2582,63.5452 266.9052,62.8772 C267.5522,62.2102 267.8762,61.3002 267.8762,60.1472 L267.8762,59.6312 Z M267.9372,64.4252 L267.8462,64.4252 C267.4812,65.0722 266.8952,65.6042 266.0862,66.0182 C265.2762,66.4322 264.3562,66.6402 263.3252,66.6402 C262.7382,66.6402 262.1272,66.5642 261.4892,66.4122 C260.8532,66.2602 260.2662,66.0082 259.7302,65.6532 C259.1932,65.3002 258.7482,64.8342 258.3952,64.2582 C258.0412,63.6822 257.8642,62.9692 257.8642,62.1192 C257.8642,61.0272 258.1722,60.1572 258.7892,59.5102 C259.4062,58.8622 260.2002,58.3672 261.1712,58.0242 C262.1422,57.6802 263.2192,57.4522 264.4022,57.3412 C265.5852,57.2302 266.7432,57.1742 267.8762,57.1742 L267.8762,56.8102 C267.8762,55.9002 267.5472,55.2282 266.8902,54.7922 C266.2322,54.3582 265.4482,54.1402 264.5382,54.1402 C263.7702,54.1402 263.0312,54.3022 262.3232,54.6252 C261.6152,54.9492 261.0292,55.3442 260.5642,55.8092 L258.6832,53.5942 C259.5122,52.8252 260.4682,52.2492 261.5502,51.8642 C262.6322,51.4812 263.7302,51.2882 264.8422,51.2882 C266.1362,51.2882 267.2032,51.4702 268.0432,51.8342 C268.8822,52.1982 269.5452,52.6742 270.0302,53.2602 C270.5162,53.8472 270.8542,54.5042 271.0462,55.2322 C271.2382,55.9602 271.3342,56.6892 271.3342,57.4162 L271.3342,66.2762 L267.9372,66.2762 L267.9372,64.4252 Z" id="Fill-34" fill="#3A3A3A"></path>
            <path d="M292.2072,51.2885 C293.1582,51.2885 293.9722,51.4555 294.6492,51.7885 C295.3272,52.1225 295.8832,52.5625 296.3182,53.1085 C296.7532,53.6545 297.0712,54.2815 297.2742,54.9895 C297.4772,55.6975 297.5772,56.4265 297.5772,57.1745 L297.5772,66.2755 L293.9362,66.2755 L293.9362,58.2055 C293.9362,57.7805 293.9062,57.3365 293.8462,56.8705 C293.7852,56.4055 293.6532,55.9855 293.4512,55.6115 C293.2492,55.2375 292.9712,54.9295 292.6172,54.6855 C292.2632,54.4435 291.7932,54.3215 291.2062,54.3215 C290.6402,54.3215 290.1542,54.4435 289.7502,54.6855 C289.3452,54.9295 289.0122,55.2425 288.7492,55.6265 C288.4852,56.0115 288.2942,56.4405 288.1732,56.9165 C288.0512,57.3925 287.9902,57.8615 287.9902,58.3265 L287.9902,66.2755 L284.3502,66.2755 L284.3502,57.4765 C284.3502,56.5665 284.1322,55.8135 283.6972,55.2175 C283.2622,54.6205 282.5792,54.3215 281.6492,54.3215 C281.1032,54.3215 280.6282,54.4385 280.2242,54.6715 C279.8182,54.9035 279.4902,55.2015 279.2372,55.5655 C278.9842,55.9305 278.7922,56.3505 278.6612,56.8255 C278.5292,57.3005 278.4642,57.7805 278.4642,58.2665 L278.4642,66.2755 L274.8232,66.2755 L274.8232,51.7135 L278.2822,51.7135 L278.2822,54.0495 L278.3432,54.0495 C278.5042,53.6845 278.7222,53.3415 278.9952,53.0175 C279.2682,52.6935 279.5912,52.4005 279.9662,52.1385 C280.3402,51.8755 280.7692,51.6675 281.2552,51.5165 C281.7402,51.3635 282.2762,51.2885 282.8632,51.2885 C283.9952,51.2885 284.9362,51.5415 285.6852,52.0465 C286.4332,52.5525 287.0092,53.2205 287.4142,54.0495 C287.8992,53.1595 288.5472,52.4765 289.3552,52.0015 C290.1642,51.5255 291.1152,51.2885 292.2072,51.2885" id="Fill-36" fill="#3A3A3A"></path>
            <path d="M311.3215,57.5385 C311.3215,57.0725 311.2555,56.6285 311.1245,56.2035 C310.9925,55.7785 310.7855,55.4045 310.5025,55.0805 C310.2185,54.7575 309.8595,54.4995 309.4255,54.3075 C308.9895,54.1145 308.4785,54.0185 307.8925,54.0185 C306.8005,54.0185 305.8755,54.3485 305.1165,55.0045 C304.3585,55.6625 303.9385,56.5065 303.8575,57.5385 L311.3215,57.5385 Z M314.9625,59.1765 L314.9625,59.6615 C314.9625,59.8235 314.9515,59.9855 314.9315,60.1465 L303.8575,60.1465 C303.8975,60.6735 304.0345,61.1535 304.2665,61.5885 C304.4995,62.0235 304.8075,62.3975 305.1925,62.7115 C305.5765,63.0245 306.0115,63.2715 306.4975,63.4545 C306.9825,63.6365 307.4875,63.7265 308.0135,63.7265 C308.9245,63.7265 309.6925,63.5595 310.3195,63.2265 C310.9465,62.8925 311.4625,62.4335 311.8675,61.8465 L314.2945,63.7875 C312.8575,65.7295 310.7745,66.7005 308.0445,66.7005 C306.9115,66.7005 305.8705,66.5225 304.9195,66.1695 C303.9685,65.8155 303.1445,65.3155 302.4465,64.6675 C301.7495,64.0205 301.2035,63.2265 300.8085,62.2865 C300.4145,61.3465 300.2175,60.2785 300.2175,59.0855 C300.2175,57.9125 300.4145,56.8455 300.8085,55.8845 C301.2035,54.9245 301.7445,54.1045 302.4315,53.4275 C303.1195,52.7495 303.9335,52.2245 304.8745,51.8495 C305.8145,51.4755 306.8315,51.2885 307.9235,51.2885 C308.9345,51.2885 309.8695,51.4555 310.7295,51.7885 C311.5895,52.1225 312.3325,52.6185 312.9595,53.2755 C313.5865,53.9335 314.0765,54.7525 314.4305,55.7325 C314.7845,56.7145 314.9625,57.8615 314.9625,59.1765 Z" id="Fill-38" fill="#3A3A3A"></path>
            <polygon id="Fill-40" fill="#3A3A3A" points="315.6594 51.7133 319.6034 51.7133 322.6384 62.1503 322.6984 62.1503 325.8234 51.7133 329.7064 51.7133 332.8614 62.1503 332.9234 62.1503 336.0174 51.7133 339.8094 51.7133 334.7734 66.2763 331.0724 66.2763 327.7644 56.0813 327.7044 56.0813 324.4284 66.2763 320.7264 66.2763"></polygon>
            <path d="M344.2082,58.934 C344.2082,59.5 344.2942,60.067 344.4662,60.632 C344.6382,61.2 344.8952,61.705 345.2392,62.15 C345.5832,62.595 346.0192,62.958 346.5442,63.242 C347.0702,63.526 347.6972,63.666 348.4262,63.666 C349.1532,63.666 349.7802,63.526 350.3072,63.242 C350.8322,62.958 351.2672,62.595 351.6112,62.15 C351.9552,61.705 352.2132,61.2 352.3852,60.632 C352.5572,60.067 352.6432,59.5 352.6432,58.934 C352.6432,58.368 352.5572,57.806 352.3852,57.249 C352.2132,56.694 351.9552,56.193 351.6112,55.748 C351.2672,55.303 350.8322,54.944 350.3072,54.671 C349.7802,54.398 349.1532,54.261 348.4262,54.261 C347.6972,54.261 347.0702,54.398 346.5442,54.671 C346.0192,54.944 345.5832,55.303 345.2392,55.748 C344.8952,56.193 344.6382,56.694 344.4662,57.249 C344.2942,57.806 344.2082,58.368 344.2082,58.934 M340.5072,58.934 C340.5072,57.781 340.7142,56.734 341.1292,55.793 C341.5432,54.853 342.1042,54.049 342.8122,53.381 C343.5212,52.714 344.3602,52.199 345.3312,51.834 C346.3022,51.47 347.3332,51.288 348.4262,51.288 C349.5182,51.288 350.5492,51.47 351.5202,51.834 C352.4912,52.199 353.3302,52.714 354.0382,53.381 C354.7462,54.049 355.3082,54.853 355.7222,55.793 C356.1372,56.734 356.3442,57.781 356.3442,58.934 C356.3442,60.086 356.1372,61.138 355.7222,62.089 C355.3082,63.039 354.7462,63.854 354.0382,64.532 C353.3302,65.209 352.4912,65.74 351.5202,66.124 C350.5492,66.508 349.5182,66.701 348.4262,66.701 C347.3332,66.701 346.3022,66.508 345.3312,66.124 C344.3602,65.74 343.5212,65.209 342.8122,64.532 C342.1042,63.854 341.5432,63.039 341.1292,62.089 C340.7142,61.138 340.5072,60.086 340.5072,58.934" id="Fill-42" fill="#3A3A3A"></path>
            <path d="M359.1047,51.7133 L362.5937,51.7133 L362.5937,54.1403 L362.6547,54.1403 C363.0587,53.2903 363.6257,52.6033 364.3537,52.0763 C365.0817,51.5513 365.9307,51.2883 366.9017,51.2883 C367.0427,51.2883 367.1947,51.2933 367.3567,51.3033 C367.5187,51.3143 367.6607,51.3393 367.7817,51.3793 L367.7817,54.7163 C367.5397,54.6553 367.3317,54.6153 367.1597,54.5953 C366.9877,54.5753 366.8207,54.5653 366.6597,54.5653 C365.8297,54.5653 365.1627,54.7163 364.6567,55.0203 C364.1507,55.3233 363.7557,55.6873 363.4737,56.1113 C363.1897,56.5363 362.9987,56.9723 362.8967,57.4163 C362.7947,57.8613 362.7457,58.2163 362.7457,58.4793 L362.7457,66.2763 L359.1047,66.2763 L359.1047,51.7133 Z" id="Fill-44" fill="#3A3A3A"></path>
            <polygon id="Fill-46" fill="#3A3A3A" points="369.4494 43.3393 373.0904 43.3393 373.0904 57.8413 373.1804 57.8413 378.7034 51.7133 383.3754 51.7133 377.0644 58.2963 383.7694 66.2763 378.9454 66.2763 373.1804 58.8123 373.0904 58.8123 373.0904 66.2763 369.4494 66.2763"></polygon>
            <path d="M13.3811,27.2074 C13.7771,28.5634 14.3261,29.8724 15.0211,31.1014 L13.0421,33.5974 C12.3961,34.4124 12.4681,35.5754 13.1951,36.3114 L16.6051,39.7204 C17.3391,40.4554 18.5031,40.5204 19.3181,39.8734 L21.7981,37.9104 C23.0741,38.6454 24.4321,39.2194 25.8461,39.6224 L26.2171,42.8134 C26.3381,43.8484 27.2111,44.6234 28.2441,44.6234 L33.0681,44.6234 C34.1021,44.6234 34.9741,43.8484 35.0951,42.8134 L35.4501,39.7354 C36.9691,39.3404 38.4231,38.7504 39.7881,37.9824 L42.1881,39.8814 C43.0031,40.5274 44.1661,40.4544 44.9021,39.7284 L48.3111,36.3184 C49.0461,35.5834 49.1101,34.4204 48.4641,33.6044 L46.5981,31.2374 C47.3731,29.8964 47.9801,28.4674 48.3831,26.9734 L51.2591,26.6414 C52.2931,26.5204 53.0691,25.6474 53.0691,24.6134 L53.0691,19.7914 C53.0691,18.7574 52.2931,17.8854 51.2591,17.7644 L48.4241,17.4324 C48.0361,15.9544 47.4541,14.5404 46.7111,13.2164 L48.4561,11.0104 C49.1031,10.1944 49.0291,9.0314 48.3031,8.2964 L44.9021,4.8954 C44.1671,4.1604 43.0031,4.0954 42.1881,4.7414 L40.0471,6.4374 C38.6571,5.6224 37.1711,5.0004 35.6121,4.5804 L35.2891,1.8104 C35.1681,0.7754 34.2951,0.0004 33.2611,0.0004 L28.4391,0.0004 C27.4041,0.0004 26.5321,0.7754 26.4111,1.8104 L26.0881,4.5804 C24.4881,5.0084 22.9621,5.6544 21.5401,6.5034 L19.3181,4.7414 C18.5031,4.0954 17.3391,4.1684 16.6051,4.8954 L13.1951,8.3044 C12.4601,9.0394 12.3961,10.2024 13.0421,11.0194 L14.9001,13.3694 C14.1561,14.7104 13.5911,16.1404 13.2201,17.6264 L10.2471,17.9654 C9.2131,18.0864 8.4381,18.9594 8.4381,19.9934 L8.4381,24.8154 C8.4381,25.8504 9.2131,26.7224 10.2471,26.8434 L13.3811,27.2074 Z" id="Fill-48" fill="#00ACE7"></path>
            <path d="M80.0022,28.8383 L77.4582,26.6903 C76.6752,26.0273 75.5202,26.0603 74.7762,26.7623 L73.3702,28.0793 C72.1832,27.5053 70.9232,27.1023 69.6222,26.8673 L69.2272,24.9293 C69.0242,23.9273 68.0962,23.2323 67.0772,23.3133 L63.7582,23.5963 C62.7392,23.6853 61.9402,24.5173 61.9072,25.5423 L61.8432,27.5143 C60.5662,27.9743 59.3632,28.6043 58.2652,29.3963 L56.5842,28.2803 C55.7282,27.7153 54.5892,27.8773 53.9272,28.6603 L51.7782,31.2213 C51.1152,32.0053 51.1482,33.1603 51.8512,33.9033 L53.3202,35.4703 C52.8122,36.6173 52.4482,37.8213 52.2382,39.0573 L50.1382,39.4843 C49.1362,39.6873 48.4412,40.6163 48.5232,41.6343 L48.8052,44.9543 C48.8942,45.9723 49.7262,46.7723 50.7522,46.8043 L53.0222,46.8763 C53.4342,47.9593 53.9752,48.9843 54.6292,49.9463 L53.3612,51.8603 C52.7962,52.7173 52.9572,53.8563 53.7402,54.5193 L56.2852,56.6673 C57.0692,57.3293 58.2242,57.2973 58.9682,56.5943 L60.6322,55.0353 C61.7222,55.5443 62.8692,55.9243 64.0482,56.1503 L64.5092,58.4283 C64.7112,59.4303 65.6402,60.1243 66.6572,60.0443 L69.9782,59.7613 C70.9952,59.6723 71.7952,58.8403 71.8272,57.8143 L71.9002,55.5843 C73.1122,55.1563 74.2592,54.5743 75.3172,53.8563 L77.1512,55.0673 C78.0072,55.6333 79.1472,55.4723 79.8092,54.6883 L81.9572,52.1443 C82.6202,51.3593 82.5882,50.2043 81.8852,49.4613 L80.4062,47.8953 C80.9472,46.7473 81.3442,45.5353 81.5692,44.2913 L83.5892,43.8793 C84.5912,43.6783 85.2852,42.7483 85.2052,41.7313 L84.9222,38.4103 C84.8332,37.3933 84.0012,36.5933 82.9762,36.5613 L80.9472,36.4963 C80.5272,35.3173 79.9622,34.2023 79.2602,33.1683 L80.3662,31.5043 C80.9472,30.6483 80.7862,29.5003 80.0022,28.8383" id="Fill-50" fill="#323E77"></path>
            <path d="M26.4885,57.0043 C25.4705,57.1093 24.6875,57.9653 24.6785,58.9913 L24.6555,61.0353 C24.6385,62.0613 25.3985,62.9343 26.4165,63.0633 L27.9185,63.2563 C28.1695,64.1693 28.5245,65.0423 28.9845,65.8653 L28.0155,67.0623 C27.3695,67.8603 27.4185,69.0083 28.1365,69.7433 L29.5665,71.2053 C30.2855,71.9413 31.4325,72.0223 32.2485,71.3913 L33.4525,70.4623 C34.3005,70.9633 35.1965,71.3583 36.1345,71.6343 L36.2955,73.1853 C36.4005,74.2023 37.2575,74.9853 38.2825,74.9943 L40.3265,75.0183 C41.3525,75.0343 42.2245,74.2753 42.3535,73.2573 L42.5405,71.7873 C43.5575,71.5363 44.5275,71.1573 45.4485,70.6563 L46.5795,71.5683 C47.3795,72.2153 48.5255,72.1663 49.2605,71.4473 L50.7225,70.0183 C51.4585,69.2993 51.5395,68.1513 50.9095,67.3363 L50.0445,66.2133 C50.5775,65.3243 50.9895,64.3793 51.2725,63.3863 L52.6135,63.2483 C53.6315,63.1443 54.4145,62.2873 54.4235,61.2613 L54.4475,59.2173 C54.4635,58.1913 53.7045,57.3193 52.6855,57.1903 L51.3775,57.0203 C51.1275,56.0343 50.7555,55.0813 50.2705,54.1923 L51.0865,53.1913 C51.7325,52.3923 51.6845,51.2443 50.9655,50.5093 L49.5355,49.0473 C48.8165,48.3123 47.6695,48.2323 46.8535,48.8613 L45.8765,49.6123 C44.9555,49.0553 43.9695,48.6273 42.9355,48.3363 L42.8065,47.0673 C42.7015,46.0503 41.8445,45.2673 40.8195,45.2593 L38.7755,45.2343 C37.7495,45.2183 36.8775,45.9783 36.7485,46.9953 L36.5865,48.2563 C35.5195,48.5303 34.4945,48.9503 33.5415,49.4993 L32.5315,48.6763 C31.7315,48.0293 30.5845,48.0783 29.8485,48.7973 L28.3795,50.2343 C27.6435,50.9533 27.5625,52.1013 28.1935,52.9163 L29.0575,54.0313 C28.5565,54.9203 28.1615,55.8653 27.9025,56.8583 L26.4885,57.0043 Z" id="Fill-52" fill="#00ABA2"></path>
            <polygon id="Fill-54" fill="#323E77" points="70.283 23.1607 76.343 23.1607 76.343 17.1007 70.283 17.1007"></polygon>
            <polygon id="Fill-56" fill="#00ABA2" points="62.703 15.7377 68.763 15.7377 68.763 9.6777 62.703 9.6777"></polygon>
            <path d="M66.8635,36.4613 C63.9825,36.4613 61.6465,38.7973 61.6465,41.6783 C61.6465,44.5603 63.9825,46.8953 66.8635,46.8953 C69.7455,46.8953 72.0805,44.5603 72.0805,41.6783 C72.0805,38.7973 69.7455,36.4613 66.8635,36.4613" id="Fill-57" fill="#C7CAC7"></path>
            <polygon id="Fill-58" fill="#C7CAC7" points="66.3469 42.558 35.2069 25.714 36.1589 23.954 67.2979 40.798"></polygon>
            <polygon id="Fill-59" fill="#C7CAC7" points="40.1047 61.3744 38.9977 59.7104 66.5487 41.3734 67.6567 43.0374"></polygon>
            <path d="M39.551,56.6039 C37.606,56.6039 36.029,58.1809 36.029,60.1259 C36.029,62.0719 37.606,63.6489 39.551,63.6489 C41.496,63.6489 43.073,62.0719 43.073,60.1259 C43.073,58.1809 41.496,56.6039 39.551,56.6039" id="Fill-60" fill="#C7CAC7"></path>
            <polygon id="Fill-61" fill="#00ABA2" points="16.411 53.7007 22.471 53.7007 22.471 47.6407 16.411 47.6407"></polygon>
            <polygon id="Fill-62" fill="#323E77" points="6.51 61.6547 12.571 61.6547 12.571 55.5947 6.51 55.5947"></polygon>
            <polygon id="Fill-63" fill="#00ACE7" points="6.51 45.2567 12.571 45.2567 12.571 39.1967 6.51 39.1967"></polygon>
            <polygon id="Fill-64" fill="#323E77" points="0 23.1607 6.06 23.1607 6.06 17.1007 0 17.1007"></polygon>
            <path d="M30.7531,18.8236 C28.8301,18.8236 27.2661,20.3876 27.2661,22.3116 C27.2661,24.2346 28.8301,25.7996 30.7531,25.7996 C32.6761,25.7996 34.2401,24.2346 34.2401,22.3116 C34.2401,20.3876 32.6761,18.8236 30.7531,18.8236 M30.7531,28.7996 C27.1761,28.7996 24.2661,25.8886 24.2661,22.3116 C24.2661,18.7336 27.1761,15.8236 30.7531,15.8236 C34.3301,15.8236 37.2401,18.7336 37.2401,22.3116 C37.2401,25.8886 34.3301,28.7996 30.7531,28.7996" id="Fill-65" fill="#C7CAC7"></path>
            <polygon id="Fill-66" fill="#C7CAC7" points="38.5705 60.7387 31.8835 27.2717 33.8445 26.8797 40.5315 60.3457"></polygon>
            <polygon id="Fill-67" fill="#00ACE7" points="54.182 23.1607 60.242 23.1607 60.242 17.1007 54.182 17.1007"></polygon>
            <polygon id="Fill-68" fill="#00ACE7" points="73.697 64.6847 79.757 64.6847 79.757 58.6247 73.697 58.6247"></polygon>
            <polygon id="Fill-69" fill="#323E77" points="57.213 70.7447 63.273 70.7447 63.273 64.6847 57.213 64.6847"></polygon>
        </g>
    </g>
</svg>