<?xml version="1.0" encoding="UTF-8" standalone="no"?>
<!DOCTYPE svg PUBLIC "-//W3C//DTD SVG 1.1//EN" "http://www.w3.org/Graphics/SVG/1.1/DTD/svg11.dtd">
<svg xmlns:dc="http://purl.org/dc/elements/1.1/" xmlns="http://www.w3.org/2000/svg" xmlns:xl="http://www.w3.org/1999/xlink" version="1.1" viewBox="0 0 85 76" width="85" height="76">
  <defs/>
  <metadata> Produced by OmniGraffle 7.10.2 
    <dc:date>2019-11-07 18:30:51 +0000</dc:date>
  </metadata>
  <g id="Canvas_1" stroke-dasharray="none" stroke="none" fill="none" stroke-opacity="1" fill-opacity="1">
    <title>Canvas 1</title>
    <g id="Canvas_1: Layer 1">
      <title>Layer 1</title>
      <g id="Group_2">
        <title>Page-1</title>
        <g id="Group_3">
          <title>Group-70</title>
          <g id="Graphic_21">
            <title>Fill-48</title>
            <path d="M 13.3811 27.697926 C 13.7771 29.053926 14.3261 30.362926 15.0211 31.591926 L 13.0421 34.087926 C 12.3961 34.902926 12.4681 36.065926 13.1951 36.801926 L 16.6051 40.210926 C 17.3391 40.945926 18.5031 41.010926 19.3181 40.363926 L 21.7981 38.400926 C 23.0741 39.135926 24.4321 39.709926 25.8461 40.112926 L 26.2171 43.303926 C 26.3381 44.338926 27.2111 45.113926 28.2441 45.113926 L 33.0681 45.113926 C 34.1021 45.113926 34.9741 44.338926 35.0951 43.303926 L 35.4501 40.225926 C 36.9691 39.830926 38.4231 39.240926 39.7881 38.472926 L 42.1881 40.371926 C 43.0031 41.017926 44.1661 40.944926 44.9021 40.218926 L 48.3111 36.808926 C 49.0461 36.073926 49.1101 34.910926 48.4641 34.094926 L 46.5981 31.727926 C 47.3731 30.386926 47.9801 28.957926 48.3831 27.463926 L 51.2591 27.131926 C 52.2931 27.010926 53.0691 26.137926 53.0691 25.103926 L 53.0691 20.281926 C 53.0691 19.247926 52.2931 18.375926 51.2591 18.254926 L 48.4241 17.922926 C 48.0361 16.444926 47.4541 15.030926 46.7111 13.706926 L 48.4561 11.500926 C 49.1031 10.684926 49.0291 9.521926 48.3031 8.786926 L 44.9021 5.385926 C 44.1671 4.650926 43.0031 4.585926 42.1881 5.231926 L 40.0471 6.927926 C 38.6571 6.112926 37.1711 5.490926 35.6121 5.070926 L 35.2891 2.3009258 C 35.1681 1.2659258 34.2951 .49092584 33.2611 .49092584 L 28.4391 .49092584 C 27.4041 .49092584 26.5321 1.2659258 26.4111 2.3009258 L 26.0881 5.070926 C 24.4881 5.498926 22.9621 6.144926 21.5401 6.993926 L 19.3181 5.231926 C 18.5031 4.585926 17.3391 4.658926 16.6051 5.385926 L 13.1951 8.794926 C 12.4601 9.529926 12.3961 10.692926 13.0421 11.509926 L 14.9001 13.859926 C 14.1561 15.200926 13.5911 16.630926 13.2201 18.116926 L 10.2471 18.455926 C 9.2131 18.576926 8.4381 19.449926 8.4381 20.483926 L 8.4381 25.305926 C 8.4381 26.340926 9.2131 27.212926 10.2471 27.333926 Z" fill="#00ace7"/>
          </g>
          <g id="Graphic_20">
            <title>Fill-50</title>
            <path d="M 80.0022 29.328826 L 77.4582 27.180826 C 76.6752 26.517826 75.5202 26.550826 74.7762 27.252826 L 73.3702 28.569826 C 72.1832 27.995826 70.9232 27.592826 69.6222 27.357826 L 69.2272 25.419826 C 69.0242 24.417826 68.0962 23.722826 67.0772 23.803826 L 63.7582 24.086826 C 62.7392 24.175826 61.9402 25.007826 61.9072 26.032826 L 61.8432 28.004826 C 60.5662 28.464826 59.3632 29.094826 58.2652 29.886826 L 56.5842 28.770826 C 55.7282 28.205826 54.5892 28.367826 53.9272 29.150826 L 51.7782 31.711826 C 51.1152 32.495826 51.1482 33.650826 51.8512 34.393826 L 53.3202 35.960826 C 52.8122 37.107826 52.4482 38.311826 52.2382 39.547826 L 50.1382 39.974826 C 49.1362 40.177826 48.4412 41.106826 48.5232 42.124826 L 48.8052 45.444826 C 48.8942 46.462826 49.7262 47.262826 50.7522 47.294826 L 53.0222 47.366826 C 53.4342 48.449826 53.9752 49.474826 54.6292 50.436826 L 53.3612 52.350826 C 52.7962 53.207826 52.9572 54.346826 53.7402 55.009826 L 56.2852 57.157826 C 57.0692 57.819826 58.2242 57.787826 58.9682 57.084826 L 60.6322 55.525826 C 61.7222 56.034826 62.8692 56.414826 64.0482 56.640826 L 64.5092 58.918826 C 64.7112 59.920826 65.6402 60.614826 66.6572 60.534826 L 69.9782 60.251826 C 70.9952 60.162826 71.7952 59.330826 71.8272 58.304826 L 71.9002 56.074826 C 73.1122 55.646826 74.2592 55.064826 75.3172 54.346826 L 77.1512 55.557826 C 78.0072 56.123826 79.1472 55.962826 79.8092 55.178826 L 81.9572 52.634826 C 82.6202 51.849826 82.5882 50.694826 81.8852 49.951826 L 80.4062 48.385826 C 80.9472 47.237826 81.3442 46.025826 81.5692 44.781826 L 83.5892 44.369826 C 84.5912 44.168826 85.2852 43.238826 85.2052 42.221826 L 84.9222 38.900826 C 84.8332 37.883826 84.0012 37.083826 82.9762 37.051826 L 80.9472 36.986826 C 80.5272 35.807826 79.9622 34.692826 79.2602 33.658826 L 80.3662 31.994826 C 80.9472 31.138826 80.7862 29.990826 80.0022 29.328826" fill="#323e77"/>
          </g>
          <g id="Graphic_19">
            <title>Fill-52</title>
            <path d="M 26.4885 57.494826 C 25.4705 57.599826 24.6875 58.455826 24.6785 59.481826 L 24.6555 61.525826 C 24.6385 62.551826 25.3985 63.424826 26.4165 63.553826 L 27.9185 63.746826 C 28.1695 64.659826 28.5245 65.532826 28.9845 66.355826 L 28.0155 67.552826 C 27.3695 68.350826 27.4185 69.498826 28.1365 70.23383 L 29.5665 71.69583 C 30.2855 72.43183 31.4325 72.51283 32.2485 71.88183 L 33.4525 70.95283 C 34.3005 71.45383 35.1965 71.84883 36.1345 72.12483 L 36.2955 73.67583 C 36.4005 74.69283 37.2575 75.47583 38.2825 75.48483 L 40.3265 75.50883 C 41.3525 75.52483 42.2245 74.76583 42.3535 73.74783 L 42.5405 72.27783 C 43.5575 72.02683 44.5275 71.64783 45.4485 71.14683 L 46.5795 72.05883 C 47.3795 72.70583 48.5255 72.65683 49.2605 71.93783 L 50.7225 70.50883 C 51.4585 69.78983 51.5395 68.641826 50.9095 67.826826 L 50.0445 66.703826 C 50.5775 65.814826 50.9895 64.869826 51.2725 63.876826 L 52.6135 63.738826 C 53.6315 63.634826 54.4145 62.777826 54.4235 61.751826 L 54.4475 59.707826 C 54.4635 58.681826 53.7045 57.809826 52.6855 57.680826 L 51.3775 57.510826 C 51.1275 56.524826 50.7555 55.571826 50.2705 54.682826 L 51.0865 53.681826 C 51.7325 52.882826 51.6845 51.734826 50.9655 50.999826 L 49.5355 49.537826 C 48.8165 48.802826 47.6695 48.722826 46.8535 49.351826 L 45.8765 50.102826 C 44.9555 49.545826 43.9695 49.117826 42.9355 48.826826 L 42.8065 47.557826 C 42.7015 46.540826 41.8445 45.757826 40.8195 45.749826 L 38.7755 45.724826 C 37.7495 45.708826 36.8775 46.468826 36.7485 47.485826 L 36.5865 48.746826 C 35.5195 49.020826 34.4945 49.440826 33.5415 49.989826 L 32.5315 49.166826 C 31.7315 48.519826 30.5845 48.568826 29.8485 49.287826 L 28.3795 50.724826 C 27.6435 51.443826 27.5625 52.591826 28.1935 53.406826 L 29.0575 54.521826 C 28.5565 55.410826 28.1615 56.355826 27.9025 57.348826 Z" fill="#00aba2"/>
          </g>
          <g id="Graphic_18">
            <title>Fill-54</title>
            <rect x="70.283" y="17.591226" width="6.06" height="6.06" fill="#323e77"/>
          </g>
          <g id="Graphic_17">
            <title>Fill-56</title>
            <rect x="62.703" y="10.168226" width="6.06" height="6.06" fill="#00aba2"/>
          </g>
          <g id="Graphic_16">
            <title>Fill-57</title>
            <path d="M 66.8635 36.951826 C 63.9825 36.951826 61.6465 39.287826 61.6465 42.168826 C 61.6465 45.050826 63.9825 47.385826 66.8635 47.385826 C 69.7455 47.385826 72.0805 45.050826 72.0805 42.168826 C 72.0805 39.287826 69.7455 36.951826 66.8635 36.951826" fill="#c7cac7"/>
          </g>
          <g id="Graphic_15">
            <title>Fill-58</title>
            <path d="M 66.3469 43.048526 L 35.2069 26.204526 L 36.1589 24.444526 L 67.2979 41.288526 Z" fill="#c7cac7"/>
          </g>
          <g id="Graphic_14">
            <title>Fill-59</title>
            <path d="M 40.1047 61.864926 L 38.9977 60.200926 L 66.5487 41.863926 L 67.6567 43.527926 Z" fill="#c7cac7"/>
          </g>
          <g id="Graphic_13">
            <title>Fill-60</title>
            <path d="M 39.551 57.094426 C 37.606 57.094426 36.029 58.671426 36.029 60.616426 C 36.029 62.562426 37.606 64.139426 39.551 64.139426 C 41.496 64.139426 43.073 62.562426 43.073 60.616426 C 43.073 58.671426 41.496 57.094426 39.551 57.094426" fill="#c7cac7"/>
          </g>
          <g id="Graphic_12">
            <title>Fill-61</title>
            <rect x="16.411" y="48.131226" width="6.06" height="6.06" fill="#00aba2"/>
          </g>
          <g id="Graphic_11">
            <title>Fill-62</title>
            <rect x="6.51" y="56.085226" width="6.061" height="6.06" fill="#323e77"/>
          </g>
          <g id="Graphic_10">
            <title>Fill-63</title>
            <rect x="6.51" y="39.687226" width="6.061" height="6.06" fill="#00ace7"/>
          </g>
          <g id="Graphic_9">
            <title>Fill-64</title>
            <rect x="13322676e-22" y="17.591226" width="6.06" height="6.06" fill="#323e77"/>
          </g>
          <g id="Graphic_8">
            <title>Fill-65</title>
            <path d="M 30.7531 19.314126 C 28.8301 19.314126 27.2661 20.878126 27.2661 22.802126 C 27.2661 24.725126 28.8301 26.290126 30.7531 26.290126 C 32.6761 26.290126 34.2401 24.725126 34.2401 22.802126 C 34.2401 20.878126 32.6761 19.314126 30.7531 19.314126 M 30.7531 29.290126 C 27.1761 29.290126 24.2661 26.379126 24.2661 22.802126 C 24.2661 19.224126 27.1761 16.314126 30.7531 16.314126 C 34.3301 16.314126 37.2401 19.224126 37.2401 22.802126 C 37.2401 26.379126 34.3301 29.290126 30.7531 29.290126" fill="#c7cac7"/>
          </g>
          <g id="Graphic_7">
            <title>Fill-66</title>
            <path d="M 38.5705 61.229226 L 31.8835 27.762226 L 33.8445 27.370226 L 40.5315 60.836226 Z" fill="#c7cac7"/>
          </g>
          <g id="Graphic_6">
            <title>Fill-67</title>
            <rect x="54.182" y="17.591226" width="6.06" height="6.06" fill="#00ace7"/>
          </g>
          <g id="Graphic_5">
            <title>Fill-68</title>
            <rect x="73.697" y="59.115226" width="6.06" height="6.06" fill="#00ace7"/>
          </g>
          <g id="Graphic_4">
            <title>Fill-69</title>
            <rect x="57.213" y="65.175226" width="6.06" height="6.06" fill="#323e77"/>
          </g>
        </g>
      </g>
    </g>
  </g>
</svg>
