<?xml version="1.0" encoding="utf-8"?>
<!-- Generator: Adobe Illustrator 25.4.1, SVG Export Plug-In . SVG Version: 6.00 Build 0)  -->
<svg version="1.1" xmlns="http://www.w3.org/2000/svg" xmlns:xlink="http://www.w3.org/1999/xlink" x="0px" y="0px"
	 viewBox="0 0 642.24 258.48" style="enable-background:new 0 0 642.24 258.48;" xml:space="preserve">
<style type="text/css">
	.st0{display:none;}
	.st1{display:inline;}
	.st2{fill:#FFFFFF;}
	.st3{fill:#58595B;}
	.st4{fill:#800000;}
</style>
<g id="DOES_NOT_PRINT" class="st0">
</g>
<g id="rule">
	<g>
		<rect x="164.17" y="77.97" width="430.2" height="1.67"/>
	</g>
</g>
<g id="secondary">
	<g>
		<path class="st3" d="M162.8,106.73v-0.09c0-8.76,6.6-15.93,16.06-15.93c5.81,0,9.29,1.94,12.15,4.75l-4.31,4.97
			c-2.38-2.16-4.8-3.48-7.88-3.48c-5.19,0-8.93,4.31-8.93,9.59v0.09c0,5.28,3.65,9.68,8.93,9.68c3.52,0,5.68-1.41,8.1-3.61
			l4.31,4.36c-3.17,3.39-6.69,5.5-12.63,5.5C169.53,122.57,162.8,115.58,162.8,106.73z"/>
		<path class="st3" d="M196.65,91.24h23.24v6.03h-16.5v6.25h14.52v6.03h-14.52v6.47h16.72v6.03h-23.46V91.24z"/>
		<path class="st3" d="M226.98,91.24h6.25l14.43,18.97V91.24h6.69v30.8h-5.76l-14.92-19.58v19.58h-6.69V91.24z"/>
		<path class="st3" d="M268.79,97.49h-9.37v-6.25h25.52v6.25h-9.37v24.56h-6.78V97.49z"/>
		<path class="st3" d="M290,91.24h23.24v6.03h-16.5v6.25h14.52v6.03h-14.52v6.47h16.72v6.03H290V91.24z"/>
		<path class="st3" d="M320.34,91.24h14.08c3.92,0,6.95,1.1,8.98,3.12c1.72,1.72,2.64,4.14,2.64,7.04v0.09c0,4.97-2.68,8.1-6.6,9.55
			l7.53,11h-7.92l-6.6-9.86h-5.32v9.86h-6.78V91.24z M333.98,106.2c3.3,0,5.19-1.76,5.19-4.36v-0.09c0-2.9-2.02-4.4-5.33-4.4h-6.73
			v8.85H333.98z"/>
		<path class="st3" d="M366.67,91.24h23.46v6.16h-16.68v6.56h14.7v6.16h-14.7v11.93h-6.78V91.24z"/>
		<path class="st3" d="M393.6,106.73v-0.09c0-8.76,6.91-15.93,16.42-15.93c9.5,0,16.33,7.08,16.33,15.84v0.09
			c0,8.76-6.91,15.93-16.42,15.93C400.42,122.57,393.6,115.49,393.6,106.73z M419.26,106.73v-0.09c0-5.28-3.87-9.68-9.33-9.68
			c-5.46,0-9.24,4.31-9.24,9.59v0.09c0,5.28,3.87,9.68,9.33,9.68C415.47,116.32,419.26,112.01,419.26,106.73z"/>
		<path class="st3" d="M432.75,91.24h14.08c3.92,0,6.95,1.1,8.98,3.12c1.72,1.72,2.64,4.14,2.64,7.04v0.09c0,4.97-2.68,8.1-6.6,9.55
			l7.53,11h-7.92l-6.6-9.86h-5.32v9.86h-6.78V91.24z M446.39,106.2c3.3,0,5.19-1.76,5.19-4.36v-0.09c0-2.9-2.02-4.4-5.33-4.4h-6.73
			v8.85H446.39z"/>
		<path class="st3" d="M171.33,141.49h-9.37v-6.25h25.52v6.25h-9.37v24.56h-6.78V141.49z"/>
		<path class="st3" d="M192.55,135.24h14.08c3.92,0,6.95,1.1,8.98,3.12c1.72,1.72,2.64,4.14,2.64,7.04v0.09
			c0,4.97-2.68,8.1-6.6,9.55l7.53,11h-7.92l-6.6-9.86h-5.32v9.86h-6.78V135.24z M206.19,150.2c3.3,0,5.19-1.76,5.19-4.36v-0.09
			c0-2.9-2.02-4.4-5.33-4.4h-6.73v8.85H206.19z"/>
		<path class="st3" d="M236.18,135.02h6.25l13.2,31.02h-7.08l-2.82-6.91h-13.03l-2.82,6.91h-6.91L236.18,135.02z M243.31,153.15
			l-4.09-9.99l-4.09,9.99H243.31z"/>
		<path class="st3" d="M260.51,135.24h6.25l14.43,18.97v-18.97h6.69v30.8h-5.76l-14.92-19.58v19.58h-6.69V135.24z"/>
		<path class="st3" d="M293.7,161.56l4-4.8c2.77,2.29,5.68,3.74,9.2,3.74c2.77,0,4.44-1.1,4.44-2.9v-0.09c0-1.72-1.06-2.6-6.21-3.92
			c-6.2-1.58-10.21-3.3-10.21-9.42v-0.09c0-5.59,4.49-9.29,10.78-9.29c4.49,0,8.32,1.41,11.44,3.92l-3.52,5.1
			c-2.73-1.89-5.41-3.04-8.01-3.04c-2.6,0-3.96,1.19-3.96,2.68v0.09c0,2.02,1.32,2.68,6.64,4.05c6.25,1.63,9.77,3.87,9.77,9.24v0.09
			c0,6.12-4.67,9.55-11.31,9.55C302.11,166.49,297.4,164.86,293.7,161.56z"/>
		<path class="st3" d="M324.49,135.24h6.78v24.64h15.36v6.16h-22.14V135.24z"/>
		<path class="st3" d="M363.6,135.02h6.25l13.2,31.02h-7.08l-2.82-6.91h-13.03l-2.82,6.91h-6.91L363.6,135.02z M370.73,153.15
			l-4.09-9.99l-4.09,9.99H370.73z"/>
		<path class="st3" d="M391.29,141.49h-9.37v-6.25h25.52v6.25h-9.37v24.56h-6.78V141.49z"/>
		<path class="st3" d="M412.65,135.24h6.78v30.8h-6.78V135.24z"/>
		<path class="st3" d="M425.96,150.73v-0.09c0-8.76,6.91-15.93,16.42-15.93c9.5,0,16.33,7.08,16.33,15.84v0.09
			c0,8.76-6.91,15.93-16.41,15.93C432.78,166.57,425.96,159.49,425.96,150.73z M451.62,150.73v-0.09c0-5.28-3.87-9.68-9.33-9.68
			c-5.46,0-9.24,4.31-9.24,9.59v0.09c0,5.28,3.87,9.68,9.33,9.68C447.83,160.32,451.62,156.01,451.62,150.73z"/>
		<path class="st3" d="M465.11,135.24h6.25l14.43,18.97v-18.97h6.69v30.8h-5.76l-14.92-19.58v19.58h-6.69V135.24z"/>
		<path class="st3" d="M510.53,135.02h6.25l13.2,31.02h-7.08l-2.82-6.91h-13.03l-2.82,6.91h-6.91L510.53,135.02z M517.66,153.15
			l-4.09-9.99l-4.09,9.99H517.66z"/>
		<path class="st3" d="M534.85,135.24h6.78v24.64h15.36v6.16h-22.14V135.24z"/>
		<path class="st3" d="M164.16,179.24h12.01c9.68,0,16.37,6.65,16.37,15.31v0.09c0,8.67-6.69,15.4-16.37,15.4h-12.01V179.24z
			 M170.94,185.36v18.57h5.24c5.54,0,9.29-3.74,9.29-9.2v-0.09c0-5.46-3.74-9.29-9.29-9.29H170.94z"/>
		<path class="st3" d="M207.44,179.02h6.25l13.2,31.02h-7.08l-2.82-6.91h-13.03l-2.82,6.91h-6.91L207.44,179.02z M214.57,197.15
			l-4.09-9.99l-4.09,9.99H214.57z"/>
		<path class="st3" d="M235.13,185.49h-9.37v-6.25h25.52v6.25h-9.37v24.56h-6.78V185.49z"/>
		<path class="st3" d="M263.32,179.02h6.25l13.2,31.02h-7.08l-2.82-6.91h-13.03l-2.82,6.91h-6.91L263.32,179.02z M270.45,197.15
			l-4.09-9.99l-4.09,9.99H270.45z"/>
		<path class="st3" d="M299.92,205.56l4-4.8c2.77,2.29,5.68,3.74,9.2,3.74c2.77,0,4.44-1.1,4.44-2.9v-0.09
			c0-1.72-1.06-2.6-6.21-3.92c-6.2-1.58-10.21-3.3-10.21-9.42v-0.09c0-5.59,4.49-9.29,10.78-9.29c4.49,0,8.32,1.41,11.44,3.92
			l-3.52,5.1c-2.73-1.89-5.41-3.04-8.01-3.04c-2.6,0-3.96,1.19-3.96,2.68v0.09c0,2.02,1.32,2.68,6.64,4.05
			c6.25,1.63,9.77,3.87,9.77,9.24v0.09c0,6.12-4.67,9.55-11.31,9.55C308.33,210.49,303.62,208.86,299.92,205.56z"/>
		<path class="st3" d="M328.79,194.73v-0.09c0-8.76,6.6-15.93,16.06-15.93c5.81,0,9.29,1.94,12.15,4.75l-4.31,4.97
			c-2.38-2.16-4.8-3.48-7.88-3.48c-5.19,0-8.93,4.31-8.93,9.59v0.09c0,5.28,3.65,9.68,8.93,9.68c3.52,0,5.68-1.41,8.1-3.61
			l4.31,4.36c-3.17,3.39-6.69,5.5-12.63,5.5C335.53,210.57,328.79,203.58,328.79,194.73z"/>
		<path class="st3" d="M362.77,179.24h6.78v30.8h-6.78V179.24z"/>
		<path class="st3" d="M377.66,179.24h23.24v6.03h-16.5v6.25h14.52v6.03h-14.52v6.47h16.72v6.03h-23.46V179.24z"/>
		<path class="st3" d="M407.99,179.24h6.25l14.43,18.97v-18.97h6.69v30.8h-5.76l-14.92-19.58v19.58h-6.69V179.24z"/>
		<path class="st3" d="M441.84,194.73v-0.09c0-8.76,6.6-15.93,16.06-15.93c5.81,0,9.29,1.94,12.15,4.75l-4.31,4.97
			c-2.38-2.16-4.8-3.48-7.88-3.48c-5.19,0-8.93,4.31-8.93,9.59v0.09c0,5.28,3.65,9.68,8.93,9.68c3.52,0,5.68-1.41,8.1-3.61
			l4.31,4.36c-3.17,3.39-6.69,5.5-12.63,5.5C448.58,210.57,441.84,203.58,441.84,194.73z"/>
		<path class="st3" d="M475.69,179.24h23.24v6.03h-16.5v6.25h14.52v6.03h-14.52v6.47h16.72v6.03h-23.46V179.24z"/>
	</g>
</g>
<g id="primary">
	<g>
		<g>
			<path class="st4" d="M56.4,165.82c2.42,0,4.79,0,7.22,0c0-0.25,0,0.22,0,0c0-27.77,0-56.23,0-83.99c0-1.03,0-1.03,0.73-1.03
				c20.04,0,39.39,0,59.43,0c0.16,0,0.32,0,0.51,0c0-0.94,0-1.82,0-2.74c-22.85,0-45.02,0-67.89,0
				C56.4,107.3,56.4,136.53,56.4,165.82z"/>
			<path class="st4" d="M69.07,90.8c0,25.01,0,50,0,75.02c2.4,0,4.79,0,7.22,0c0-24.06,0-48.12,0-72.24c17.38,0,10.49,0,27.85,0
				c0-0.96,0-1.84,0-2.78C84.39,90.8,88.87,90.8,69.07,90.8z"/>
		</g>
		<path class="st4" d="M140.47,102.81c0,20.74,0,42.24,0,63.01c-4.22,0-6.18,0-10.49,0c0-19.79,0-40.36,0-60.24
			c-25.3,0-56.54,0-81.8,0c0-0.96,0-1.85,0-2.78C77.68,102.81,110.92,102.81,140.47,102.81z"/>
		<path class="st4" d="M123.98,165.82c-4.28,0-6.22,0-10.5,0c0-15.56,0-31.85,0-47.46c-19.78,0,6.81,0-12.96,0c0-0.97,0-1.87,0-2.8
			c24,0-0.58,0,23.46,0C123.98,132.06,123.98,149.29,123.98,165.82z"/>
		<path class="st4" d="M96.96,165.82c0-11.32,0-23.37,0-34.7c-14.25,0-16.53,0-30.8,0c0-0.96,0-1.86,0-2.8c18.49,0,22.78,0,41.33,0
			c0,12.25,0,25.25,0,37.5C103.23,165.82,101.25,165.82,96.96,165.82z"/>
		<path class="st4" d="M91.12,141.1c0,8,0,16.72,0,24.72c-4.26,0-5.54,0-9.85,0c0-7.04,0-14.85,0-21.96c-8.83,0-24.29,0-33.08,0
			c0-0.95,0-1.83,0-2.77C61.23,141.1,78.02,141.1,91.12,141.1z"/>
		<rect x="87.6" y="115.56" class="st4" width="2.74" height="2.74"/>
		<rect x="92.73" y="115.56" class="st4" width="5.39" height="2.74"/>
		<rect x="124.1" y="78.05" class="st4" width="2.74" height="2.74"/>
		<rect x="130.89" y="78.05" class="st4" width="7.39" height="2.74"/>
		<rect x="106.54" y="90.92" class="st4" width="2.74" height="2.74"/>
		<rect x="111.68" y="90.92" class="st4" width="2.74" height="2.74"/>
		<rect x="116.82" y="90.92" class="st4" width="8.76" height="2.74"/>
		<rect x="48.18" y="128.32" class="st4" width="4.89" height="2.74"/>
	</g>
	<g>
		<g>
			<path class="st4" d="M169.53,51.87h-5.54v-3.69h15.08v3.69h-5.54v14.51h-4V51.87z"/>
			<path class="st4" d="M183.05,48.18h4v7.2h7.38v-7.2h4v18.2h-4v-7.31h-7.38v7.31h-4V48.18z"/>
			<path class="st4" d="M203.72,48.18h13.73v3.56h-9.75v3.69h8.58V59h-8.58v3.82h9.88v3.56h-13.86V48.18z"/>
			<path class="st4" d="M230.47,58.58v-10.4h4v10.3c0,2.96,1.48,4.5,3.93,4.5c2.44,0,3.93-1.48,3.93-4.37V48.18h4v10.27
				c0,5.51-3.09,8.22-7.98,8.22C233.47,66.67,230.47,63.94,230.47,58.58z"/>
			<path class="st4" d="M251.33,48.18h3.69l8.53,11.21V48.18h3.95v18.2h-3.41l-8.81-11.57v11.57h-3.95V48.18z"/>
			<path class="st4" d="M272.96,48.18h4v18.2h-4V48.18z"/>
			<path class="st4" d="M280.86,48.18h4.42L290.04,61l4.76-12.82h4.32l-7.36,18.33h-3.54L280.86,48.18z"/>
			<path class="st4" d="M302.83,48.18h13.73v3.56h-9.75v3.69h8.58V59h-8.58v3.82h9.88v3.56h-13.86V48.18z"/>
			<path class="st4" d="M321.16,48.18h8.32c2.31,0,4.11,0.65,5.3,1.85c1.01,1.01,1.56,2.44,1.56,4.16v0.05
				c0,2.94-1.59,4.78-3.9,5.64l4.45,6.5h-4.68l-3.9-5.82h-3.15v5.82h-4V48.18z M329.22,57.02c1.95,0,3.07-1.04,3.07-2.57V54.4
				c0-1.72-1.2-2.6-3.15-2.6h-3.98v5.23H329.22z"/>
			<path class="st4" d="M339.62,63.73l2.37-2.83c1.64,1.35,3.35,2.21,5.43,2.21c1.64,0,2.63-0.65,2.63-1.72v-0.05
				c0-1.01-0.62-1.53-3.67-2.31c-3.67-0.94-6.03-1.95-6.03-5.56v-0.05c0-3.3,2.65-5.49,6.37-5.49c2.65,0,4.91,0.83,6.76,2.31
				l-2.08,3.02c-1.61-1.12-3.2-1.79-4.73-1.79s-2.34,0.7-2.34,1.59v0.05c0,1.2,0.78,1.59,3.93,2.39c3.69,0.96,5.77,2.29,5.77,5.46
				V61c0,3.61-2.76,5.64-6.68,5.64C344.59,66.64,341.81,65.68,339.62,63.73z"/>
			<path class="st4" d="M358.6,48.18h4v18.2h-4V48.18z"/>
			<path class="st4" d="M372.3,51.87h-5.54v-3.69h15.08v3.69h-5.54v14.51h-4V51.87z"/>
			<path class="st4" d="M390.95,59.21l-6.99-11.03h4.68l4.34,7.31l4.42-7.31h4.55l-6.99,10.95v7.25h-4V59.21z"/>
			<path class="st4" d="M413.25,57.33v-0.05c0-5.17,4.08-9.41,9.7-9.41s9.65,4.19,9.65,9.36v0.05c0,5.17-4.08,9.41-9.7,9.41
				S413.25,62.51,413.25,57.33z M428.41,57.33v-0.05c0-3.12-2.29-5.72-5.51-5.72s-5.46,2.55-5.46,5.67v0.05
				c0,3.12,2.29,5.72,5.51,5.72C426.18,63,428.41,60.45,428.41,57.33z"/>
			<path class="st4" d="M437.07,48.18h13.86v3.64h-9.85v3.87h8.68v3.64h-8.68v7.05h-4V48.18z"/>
			<path class="st4" d="M462.94,57.33v-0.05c0-5.17,3.9-9.41,9.49-9.41c3.43,0,5.49,1.14,7.18,2.81l-2.55,2.94
				c-1.4-1.27-2.83-2.05-4.65-2.05c-3.07,0-5.28,2.55-5.28,5.67v0.05c0,3.12,2.16,5.72,5.28,5.72c2.08,0,3.35-0.83,4.78-2.13
				l2.55,2.57c-1.87,2-3.95,3.25-7.46,3.25C466.92,66.69,462.94,62.56,462.94,57.33z"/>
			<path class="st4" d="M483.84,48.18h4v7.2h7.38v-7.2h4v18.2h-4v-7.31h-7.38v7.31h-4V48.18z"/>
			<path class="st4" d="M504.69,48.18h4v18.2h-4V48.18z"/>
			<path class="st4" d="M513.35,57.33v-0.05c0-5.17,3.9-9.41,9.49-9.41c3.43,0,5.49,1.14,7.18,2.81l-2.55,2.94
				c-1.4-1.27-2.83-2.05-4.65-2.05c-3.07,0-5.28,2.55-5.28,5.67v0.05c0,3.12,2.16,5.72,5.28,5.72c2.08,0,3.35-0.83,4.78-2.13
				l2.55,2.57c-1.87,2-3.95,3.25-7.46,3.25C517.33,66.69,513.35,62.56,513.35,57.33z"/>
			<path class="st4" d="M540.5,48.05h3.69l7.8,18.33h-4.19l-1.66-4.08h-7.7l-1.66,4.08h-4.08L540.5,48.05z M544.71,58.76l-2.42-5.9
				l-2.42,5.9H544.71z"/>
			<path class="st4" d="M553.73,57.33v-0.05c0-5.17,4.03-9.41,9.54-9.41c3.28,0,5.25,0.88,7.15,2.5l-2.52,3.04
				c-1.4-1.17-2.65-1.85-4.76-1.85c-2.91,0-5.23,2.57-5.23,5.67v0.05c0,3.33,2.29,5.77,5.51,5.77c1.46,0,2.76-0.36,3.77-1.09v-2.6
				h-4.03V55.9h7.9v7.9c-1.87,1.59-4.45,2.89-7.77,2.89C557.63,66.69,553.73,62.72,553.73,57.33z"/>
			<path class="st4" d="M575.02,57.33v-0.05c0-5.17,4.08-9.41,9.7-9.41s9.65,4.19,9.65,9.36v0.05c0,5.17-4.08,9.41-9.7,9.41
				S575.02,62.51,575.02,57.33z M590.18,57.33v-0.05c0-3.12-2.29-5.72-5.51-5.72s-5.46,2.55-5.46,5.67v0.05
				c0,3.12,2.29,5.72,5.51,5.72C587.95,63,590.18,60.45,590.18,57.33z"/>
		</g>
	</g>
</g>
</svg>
