<?xml version="1.0" encoding="utf-8"?>
<!-- Generator: Adobe Illustrator 22.1.0, SVG Export Plug-In . SVG Version: 6.00 Build 0)  -->
<svg version="1.1" id="Layer_1" xmlns="http://www.w3.org/2000/svg" xmlns:xlink="http://www.w3.org/1999/xlink" x="0px" y="0px"
	 viewBox="0 0 263.7 300.9" style="enable-background:new 0 0 263.7 300.9;" xml:space="preserve">
<style type="text/css">
	.st0{fill:#793A78;}
	.st1{fill:#98B3C5;}
	.st2{fill:#FCFCFC;}
	.st3{fill:#FFFFFF;}
	.st4{fill:#ECE8F4;}
	.st5{fill:#9ECCC7;}
	.st6{fill:#003E7D;}
	.st7{fill:#F5FFFF;}
	.st8{fill:none;stroke:#98B3C5;stroke-width:1.3;stroke-linecap:round;}
	.st9{fill:#4EA098;}
	.st10{fill:#DBCB32;}
	.st11{fill:#F4F5F9;}
	.st12{fill:#4EA098;fill-opacity:0.7931;}
</style>
<title>product kv</title>
<desc>Created with Sketch.</desc>
<g id="product-kv" transform="translate(373.000000, 2820.000000)">
	<g id="Group-35">
		<ellipse id="Oval-2" class="st0" cx="-309.7" cy="-2692.4" rx="1" ry="1"/>
		<g id="Group-28" transform="translate(33.783032, 0.000000)">
			<path id="Fill-27_1_" class="st1" d="M-345.9-2683.4"/>
			<path id="Fill-29_2_" class="st2" d="M-345.9-2691.9"/>
			<line id="Fill-42_1_" x1="-346.3" y1="-2683.4" x2="-346.3" y2="-2691.9"/>
			<g id="Group-7_1_" transform="translate(284.742698, 221.066975)">
				<line id="Stroke-229_2_" x1="-684.4" y1="-2879.7" x2="-685.4" y2="-2879.7"/>
				<path id="Stroke-115_2_" d="M-630.2-2913h-1"/>
				<line id="Stroke-237_2_" x1="-639.7" y1="-2903.9" x2="-640.6" y2="-2903.9"/>
			</g>
			<path id="Fill-193" class="st3" d="M-302.2-2642.3c-0.9,1.4,66.1,29.3,69.5,30.4c3.4,1.1,30.2-18.7,30.2-18.7l-70.1-29
				L-302.2-2642.3z"/>
			<polygon id="Fill-195" class="st1" points="-302.2,-2638.5 -302.2,-2642.3 -232.7,-2611.8 -232.7,-2609.1 			"/>
			<g id="Group-4_1_" transform="translate(370.648122, 208.452471)">
				<line id="Path-7_3_" x1="-723" y1="-2900.5" x2="-724" y2="-2900.5"/>
				<line id="Path-7_2_" x1="-730.9" y1="-2907.2" x2="-731.9" y2="-2907.2"/>
				<path id="Stroke-121_1_" d="M-714.7-2897.4h-1"/>
			</g>
			<path id="Fill-197" d="M-232.7-2609.1c0,0,30.2-17.9,30.8-19.3s-0.6-2.2-0.6-2.2l-30.2,18.7V-2609.1z"/>
			<polygon id="Fill-199" class="st4" points="-286.8,-2651.3 -275.3,-2658 -202.5,-2630.5 -217.8,-2621.1 			"/>
			<polyline id="Fill-201_1_" class="st2" points="-333.8,-2817.4 -154.2,-2744.6 -154.2,-2605.8 -334.8,-2681.4 			"/>
			<polyline id="Fill-203_1_" class="st1" points="-331.3,-2813.7 -157.1,-2742 -156.2,-2609.1 -332.3,-2683.4 			"/>
			<path id="Fill-205" class="st4" d="M-333.8-2817.4c0,0,4.4-2.3,9-2.6s175.4,71.3,178.4,72.1c2.2,0.6-3.3,1.3-5.9,2.9
				c-1,0.6-1.8,1-2.3,1C-154.6-2744.6-214.3-2769-333.8-2817.4z"/>
			<path id="Fill-207" d="M-154.2-2605.8c0,0,7.4-5.4,8.2-8.1c0.8-2.7,0-133.9,0-133.9s-8.3,3.1-8.5,3.7L-154.2-2605.8z"/>
			<path id="Fill-239" d="M-401.1-2579.2c7.5-3.5,15.9-10.9,15.9-10.9s5.5-4.9,8-5.2c2.5-0.4,3-3,5.3-2.8c2.3,0.2,6.8,2.6,3.8,5
				c0,0,0.5,0.2-0.3,2.3c-0.8,2.1-8.8,4.8-6.6,6.7c1.9,1.6,3.2,5.8-0.1,4.9c-3.3-0.9-4.5-0.7-4.5-0.7l-8.4,6.3l-3.9-1.2
				c0,0,4.9-4.6,3.9-5.1c-1-0.5-9.6,1.6-9.6,1.6L-401.1-2579.2z"/>
			<path id="Fill-241" class="st5" d="M-402.5-2654.3c0,0-7.7,15.2-2.5,19c5.2,3.8,6.2-4.1,6.2-4.1L-402.5-2654.3z"/>
			<path id="Fill-243" class="st6" d="M-399.1-2585c0,0,0.5,0.1,1.4-0.3c0.9-0.3,3.5-1.3,4,1.7c0,0-3.6,3.1-5.3,3.9
				c-1.7,0.8-3,0.6-3.5,0.2C-403-2579.8-401.5-2585.2-399.1-2585"/>
			<path id="Fill-245" class="st6" d="M-388-2578.8c0,0,0.5,0.1,1.4-0.3c0.9-0.3,3.5-1.3,4,1.7c0,0-3.6,3.1-5.3,3.9
				c-1.7,0.8-3,0.6-3.5,0.2C-392-2573.6-390.5-2579-388-2578.8"/>
			<path id="Fill-247" d="M-392.2-2608.4v33.8c0,0-0.4,1.3,2.1,0.9c2.5-0.4,3-5.3,3-5.3v-29.4H-392.2z"/>
			<path id="Fill-249" d="M-402.8-2614.3v33.8c0,0-0.4,1.3,2.1,0.9c2.5-0.4,3-5.3,3-5.3v-29.4H-402.8z"/>
			<path id="Fill-251" class="st4" d="M-381.4-2618.8c0,0,1.2,2.9,4.4,2.9c3.3,0,0.9-3.9,0.4-4c-0.6-0.1-0.9,0-0.9,0s-1.4-1.2-2-1.2
				S-382.1-2620-381.4-2618.8"/>
			<path id="Fill-253" class="st7" d="M-399.8-2657.8c-2,0.2-4.9,1.9-5.2,11.5c-0.2,9.6,0,35.1,0,35.1s7.1,7.3,13.2,7.3
				c6.1,0,8.7,0.7,8.5-7.5c-0.2-8.2-0.9-29-0.7-34.7C-383.8-2651.8-391.4-2658.5-399.8-2657.8"/>
			<path id="Fill-255" class="st2" d="M-390.5-2649.6c0,0,1.5-3,4.2-1.9c2.7,1.1,2.2,3.9,2.2,5.3c0,1.4-0.7,13.8-0.7,13.8
				s6.2,9.3,6.3,10.6c0.1,1.3-2,2.8-3.8,2.8c-1.8,0-6.3-8.8-7-12C-390-2634-390.5-2649.6-390.5-2649.6"/>
			<path id="Fill-257" class="st4" d="M-397.5-2657.5v3.1c0,0,1.1,3.5,5.8,1.6v-4.1L-397.5-2657.5z"/>
			<path id="Fill-259" class="st2" d="M-392.4-2670.5c0,0,3.7,3,4.2,8.5c0.5,5.5-3.8,6.9-3.8,6.9s-2.9,2.2-6.1-2.8
				C-401.3-2663-397.8-2672.9-392.4-2670.5"/>
			<path id="Fill-261" class="st0" d="M-399.6-2670.9c-2.7,1.2-3.7,3.1-3.8,5.9c-0.1,2.8,0.6,5,1.9,6.3c1.3,1.3,4.8,4.5,5.7,3.2
				c0.9-1.3,3.5-5,3.6-6.1c0.1-1.1-0.3-3.7-1.5-4.8c-1.2-1.1-0.5-3,0.2-3.3c0.7-0.3,1.2,0.7,1.3-0.3
				C-392.1-2670.9-395.1-2672.9-399.6-2670.9"/>
			<path id="Fill-263" class="st2" d="M-391.9-2661.8c0,0-1.6-3-3-1.5c-1.3,1.4,1.9,4.7,1.9,4.7L-391.9-2661.8z"/>
			<path id="Fill-265" class="st4" d="M-389.4-2666.5c0,0,1.9-0.5,0.9,2.7L-389.4-2666.5z"/>
			<polygon id="Stroke-267" points="-389.2,-2665.5 -388.7,-2664.7 -392.3,-2662.4 -392.8,-2663.2 			"/>
			<g id="Group-33" transform="translate(498.058414, 181.487298)">
				<path id="Path-21" class="st1" d="M-735.5-2928.2l56.3,36.7v48.7l-56.3-39.4V-2928.2z M-734.3-2925.8v43l53.8,37.7v-45.6
					L-734.3-2925.8z"/>
				<path id="Path-21_1_" class="st1" d="M-735.5-2914.3l56.3,13.2v18.3l-56.3-14.2V-2914.3z"/>
				<path id="Path-21_2_" class="st1" d="M-734.3-2908.5v41.5l53.8,36.3v-44L-734.3-2908.5z"/>
				<path id="Path-21_3_" class="st1" d="M-680.9-2884.9l-54.3,17.2l-0.2-15.3l55.5-16.4L-680.9-2884.9z M-681.3-2897.6l-52.9,15.7
					l0.2,12.6l51.9-16.5L-681.3-2897.6z"/>
				<path id="Path-21_4_" class="st1" d="M-680.9-2865l-55,12l0-9.7l56.2-16.5L-680.9-2865z M-681.1-2877.6l-53.5,15.7l0,7.2
					l52.6-11.4L-681.1-2877.6z"/>
				<path id="Path-21_5_" class="st1" d="M-735.5-2913.6l56.3,30.8v43.8l-56.3-35.9V-2913.6z M-734.3-2911.5v35.9l53.8,34.3v-40.8
					L-734.3-2911.5z"/>
			</g>
			<polygon id="Path-21_7_" class="st8" points="-317,-2736.8 -317,-2703.2 -255.1,-2674 -255.1,-2709.7 			"/>
			<line id="Fill-300_1_" class="st9" x1="-153.8" y1="-2667.8" x2="-160.4" y2="-2674.9"/>
			<polygon id="Fill-312" class="st0" points="-249.2,-2765.5 -321.5,-2794.9 -321.5,-2752.7 -249.2,-2719.4 			"/>
			<polygon id="Fill-312_1_" class="st6" points="-249.2,-2713.4 -321.5,-2746.6 -321.5,-2696.7 -249.2,-2663.5 			"/>
			<g id="Group-30" transform="translate(427.596662, 156.387991)">
				<polygon id="Fill-269" class="st3" points="-740.7,-2913.8 -740.7,-2929.9 -737.8,-2928.6 -737.8,-2912.3 				"/>
				<polygon id="Fill-271" class="st3" points="-734.9,-2911.2 -734.9,-2920.2 -732,-2918.9 -732,-2909.6 				"/>
				<polygon id="Fill-273" class="st10" points="-729.1,-2907.9 -729.1,-2925.1 -726.2,-2923.7 -726.2,-2906.7 				"/>
				<polygon id="Fill-275" class="st3" points="-723.3,-2905.4 -723.3,-2920.2 -720.4,-2918.9 -720.4,-2904.8 				"/>
			</g>
			<g id="Group-30_1_" transform="translate(461.379694, 177.625866)">
				<polygon id="Fill-269_1_" class="st3" points="-740.7,-2917.9 -740.7,-2925.1 -737.8,-2923.7 -737.8,-2916.4 				"/>
				<polygon id="Fill-271_1_" class="st3" points="-733.9,-2915 -733.9,-2924.1 -731,-2922.8 -731,-2913.5 				"/>
				<polygon id="Fill-273_1_" class="st10" points="-728.1,-2913.1 -728.1,-2929.9 -725.2,-2928.6 -725.2,-2911.6 				"/>
				<polygon id="Fill-275_1_" class="st3" points="-722.3,-2910.2 -722.3,-2924.1 -719.5,-2922.8 -719.5,-2908.7 				"/>
			</g>
			<path id="Fill-316" class="st5" d="M-306.9-2640.1c0,0-7.7,15.2-2.5,19c5.2,3.8,6.2-4.1,6.2-4.1L-306.9-2640.1z"/>
			<path id="Fill-344" d="M-354.9-2607.8c7.5-3.5,15.9-10.9,15.9-10.9s5.5-4.9,8-5.2c2.5-0.4,3-3,5.3-2.8c2.3,0.2,6.8,2.6,3.8,5
				c0,0,0.5,0.2-0.3,2.3c-0.8,2.1-8.8,4.8-6.6,6.7c1.9,1.6,3.2,5.8-0.1,4.9c-3.3-0.9-4.5-0.7-4.5-0.7l-8.4,6.3l-3.9-1.2
				c0,0,4.9-4.6,3.9-5.1c-1-0.5-9.6,1.6-9.6,1.6L-354.9-2607.8z"/>
			<path id="Fill-346" class="st5" d="M-356.3-2682.9c0,0-7.7,15.2-2.5,19c5.2,3.8,6.2-4.1,6.2-4.1L-356.3-2682.9z"/>
			<path id="Fill-348" class="st0" d="M-352.9-2613.5c0,0,0.5,0.1,1.4-0.3c0.9-0.3,3.5-1.3,4,1.7c0,0-3.6,3.1-5.3,3.9
				s-3,0.6-3.5,0.2C-356.8-2608.4-355.3-2613.7-352.9-2613.5"/>
			<path id="Fill-350" class="st0" d="M-341.8-2607.3c0,0,0.5,0.1,1.4-0.3c0.9-0.3,3.5-1.3,4,1.7c0,0-3.6,3.1-5.3,3.9
				c-1.7,0.8-3,0.6-3.5,0.2C-345.8-2602.2-344.2-2607.5-341.8-2607.3"/>
			<path id="Fill-352" class="st11" d="M-348.1-2637v33.8c0,0-0.6,1.3,3,0.9c3.6-0.4,4.2-5.3,4.2-5.3v-29.4H-348.1z"/>
			<path id="Fill-354" class="st11" d="M-356.5-2642.8v33.8c0,0-0.6,1.3,3,0.9c3.6-0.4,4.2-5.3,4.2-5.3v-29.4H-356.5z"/>
			<path id="Path-5" class="st3" d="M-351.8-2675.8c-0.9-1.8-2-2.7-3.4-1.3c-1.4,1.3-5.4,11.1-5.4,15.5c0,3,1.8,6.6,5.4,10.8
				c2.3-0.8,3.4-1.8,3.4-3.2s-1.7-4.8-5-10.3C-352.9-2670.8-351.2-2674.6-351.8-2675.8z"/>
			<path id="Fill-358" class="st7" d="M-355-2685.5c-2,0.2-3.5,0.9-3.8,9.8c-0.2,8.9,0,32.4,0,32.4s7.1,6.7,13.2,6.7
				c6.1,0,8.7,0.7,8.5-7c-0.2-7.6-1.6-24.1-1.4-29.3c0.2-5.2-6.5-12.6-15-12L-355-2685.5z"/>
			<path id="Fill-362" class="st4" d="M-351.2-2686.1v3.1c0,0,1.1,3.5,5.8,1.6v-4.1L-351.2-2686.1z"/>
			<path id="Fill-364" class="st2" d="M-346.2-2699.1c0,0,3.7,3,4.2,8.5c0.5,5.5-3.8,6.9-3.8,6.9s-2.9,2.2-6.1-2.8
				C-355.1-2691.6-351.6-2701.5-346.2-2699.1"/>
			<path id="Fill-366" class="st0" d="M-358.3-2690.9c-0.7,3.9-3.4,10.3-8.2,19.4c8.8,5.2,13.4,7.3,14.1,6.4
				c0.9-1.3,6.4-24,6.5-25.1c0.1-1.1-0.2-3.7-0.4-4.8c-0.3-1.1,2.3-0.8,3-1.1c0.7-0.3-0.7-1.9-1.8-3c-1.1-1-5.3-2.1-8.5-0.3
				C-356.5-2698.2-357.3-2696.7-358.3-2690.9z"/>
			<path id="Fill-368" class="st2" d="M-345.5-2689.5c0,0-1.6-3-3-1.5c-1.3,1.4,1.9,4.7,1.9,4.7L-345.5-2689.5z"/>
			<path id="Fill-436_1_" class="st10" d="M-143.1-2681l-0.5-0.7"/>
			<path id="Path-5_1_" class="st3" d="M-342.9-2674.9c1.1-1.8,2.5-2.7,4.2-1.3c1.7,1.3,8.1,14.7,8.1,14.7s-2.7,3.9-8.1,11.6
				c-2.8-0.8-4.2-1.8-4.2-3.2s2-4.8,6.1-10.3C-341.6-2669.8-343.6-2673.7-342.9-2674.9z"/>
			<path id="Path-17" class="st3" d="M-296.1-2622.6c0.8-0.4,1.3-1,1.3-1.7c0-1.1-1.6-3.6-3.3-1.8
				C-299.2-2625-298.5-2623.8-296.1-2622.6z"/>
			<path id="Path-16" class="st3" d="M-294.5-2615.3c-0.7,1.8-1.6,2.7-2.8,2.7c-1.8,0,6.7,8.1,7.9,8.1s6.2-11.1,6.2-12.3
				s-2.2-2.3-3.5,0.7c-0.9,2-2.1,4.1-3.5,6.3L-294.5-2615.3z"/>
			<path id="Path-17_1_" class="st3" d="M-284.2-2615.9c1.3-0.6,1.9-1.4,1.9-2.5c0-1.6-2.4-5.2-4.9-2.7
				C-288.9-2619.3-287.9-2617.6-284.2-2615.9z"/>
			<polygon id="Path-19" class="st11" points="-297.6,-2619.1 -295.1,-2633.5 -286.4,-2628 -289.7,-2615.2 			"/>
			<path id="Path-18" d="M-302.1-2621c1.3-1.5,2.5-2.2,3.4-2.2s2.9,2.8,5.8,8.5c-1.9,3.2-3.6,4.7-5.1,4.7
				C-299.5-2609.9-300.8-2613.6-302.1-2621z"/>
			<polygon id="Path-20" class="st10" points="-282.3,-2621.7 -290,-2620.4 -291.7,-2619.2 -290,-2618.5 -282,-2620.1 			"/>
			<g id="Group-29" transform="translate(426.631433, 284.780600)">
				<path id="Fill-314" d="M-735.9-2829.9c8.3-3.9,17.6-12,17.6-12s6.1-5.4,8.9-5.8c2.7-0.4,3.3-3.3,5.8-3c2.5,0.2,7.5,2.9,4.2,5.5
					c0,0,0.6,0.3-0.3,2.5s-9.8,5.3-7.3,7.4c2.2,1.8,3.5,6.4-0.2,5.4c-3.7-1-5-0.8-5-0.8l-9.3,7l-4.3-1.3c0,0,5.4-5.1,4.3-5.6
					c-1.1-0.5-10.6,1.7-10.6,1.7L-735.9-2829.9z"/>
				<path id="Fill-318" class="st10" d="M-733.9-2835.5c0,0,0.5,0.1,1.5-0.3c1-0.3,3.8-1.4,4.3,1.7c0,0-3.9,3.2-5.8,4
					c-1.9,0.8-3.2,0.6-3.8,0.3C-738.2-2830.2-736.6-2835.7-733.9-2835.5"/>
				<path id="Fill-320" class="st10" d="M-721.4-2828.8c0,0,0.5,0.1,1.5-0.3c1-0.3,3.8-1.4,4.3,1.7c0,0-3.9,3.2-5.8,4
					c-1.9,0.8-3.2,0.6-3.8,0.2C-725.7-2823.4-724-2829-721.4-2828.8"/>
				<path id="Fill-322" d="M-726.2-2874.9v50.7c0,0-0.5,2,2.4,1.3c2.9-0.7,3.4-7.9,3.4-7.9v-44.1H-726.2z"/>
				<path id="Fill-324" d="M-737.8-2883.6v50.7c0,0-0.5,2,2.4,1.3c2.9-0.7,3.4-7.9,3.4-7.9v-44.1H-737.8z"/>
				<path id="Fill-328" d="M-740.6-2903.7c-0.3,8.1,0,29.5,0,29.5s8.8,6.1,14.6,6.1c5.8,0,6.3,0.8,6.1-6.1
					c-0.3-6.9,0.4-25.2-1.4-30.1c-1.8-4.9-2.7-8.4-12.1-7.8C-738-2912-740.4-2909.2-740.6-2903.7z"/>
				<path id="Fill-332" class="st3" d="M-734.9-2915.4v4c0,0,1.3,4.6,6.8,2.1v-5.3L-734.9-2915.4z"/>
				<path id="Fill-334" class="st2" d="M-729.4-2928.9c0.5,0.5,4.4,2.3,5,8.3c0.6,6-4.9,7.6-4.9,7.6s-3.7,2.4-7.8-3.1
					c-3.2-4.3-1.8-9.7,2.5-11.6c1.2-0.5,1.9-1.3,3.4-0.8L-729.4-2928.9z"/>
				<path id="Path-15" d="M-737.8-2876.8c-2.6,3-2.6,5.4,0,7.3c2.6,1.9,4.9,1.9,6.7,0l-0.7-7.3H-737.8z"/>
				<path id="Path-15_1_" d="M-731-2874.9c-2.6,3-2.6,5.4,0,7.3c2.6,1.9,4.9,1.9,6.7,0l-0.7-7.3H-731z"/>
				<path id="Path-13" class="st0" d="M-737.8-2917.3c-2.1-3.2-2.5-6.3-1.1-9c2.1-4.1,7.6-3.8,9.8-3.1c1.5,0.5,2.8,1.8,3.8,3.7
					c-0.9,2.5-2.2,4.3-3.8,5.3S-733.6-2918.3-737.8-2917.3z"/>
				<path id="Fill-338" class="st1" d="M-728.9-2919.2c0-0.3-0.5-1.7-1.1,0.5c-0.3,1.4,0.1,2.3,1.2,2.6c0.3-0.1-0.2-1.2-0.3-1.8
					C-729.1-2918.3-729-2918.7-728.9-2919.2z"/>
				<path id="Path-14" class="st0" d="M-726.3-2927.7c0.7-0.3,4.7-0.7,3.9,1c-0.5,1.1-2.7,3-6.7,5.5c1.7-2.5,2.6-4.1,2.6-4.6
					s-0.3-1-0.8-1.4C-727.1-2927.3-726.8-2927.5-726.3-2927.7z"/>
			</g>
			<path id="Path-22" class="st5" d="M-316.8-2706.3c1.1,0.5,4.2-1.8,9.4-7c7.7-7.7,19.6-8.8,24.5,3.5s12.6,25.7,27.7,29.3
				c0,3.7-0.3,5.7-0.9,6l-60.7-28.3V-2706.3z"/>
			<path id="Path-22_1_" class="st12" d="M-316.8-2706.3c3.2,2.8,8,5.3,14.6,7.4c9.9,3.2,18.1-5.1,27.9-1.3
				c9.8,3.8,4,16.1,19.1,19.8c0,3.7-0.3,5.7-0.9,6l-60.7-28.3V-2706.3z"/>
			<path id="Path-21_8_" class="st1" d="M-288.5-2746.6c0.3,0.1,0.4,0.5,0.3,0.8c-0.1,0.3-0.5,0.4-0.8,0.3l-28.5-13.3v-25.4
				c0-0.3,0.3-0.6,0.6-0.6s0.6,0.3,0.6,0.6v24.6L-288.5-2746.6z"/>
			<path id="Path-21_9_" class="st1" d="M-317.6-2737.8l63.2,27.7v37.1l-63.2-29.8V-2737.8z M-316.4-2703.6l60.6,28.6v-34.3
				l-60.6-26.6V-2703.6z"/>
			<path id="Path-21_10_" class="st1" d="M-254.8-2730.2c0.3,0.1,0.4,0.5,0.3,0.8c-0.1,0.3-0.5,0.4-0.8,0.3l-28.5-13.3v-25.4
				c0-0.3,0.3-0.6,0.6-0.6s0.6,0.3,0.6,0.6v24.6L-254.8-2730.2z"/>
		</g>
	</g>
</g>
<line id="Stroke-229_1_" x1="169.6" y1="200.5" x2="168.7" y2="200.5"/>
<path id="Fill-239_1_" d="M168.2,279.8c7.5-3.5,15.9-10.9,15.9-10.9s5.5-4.9,8-5.2c2.5-0.4,3-3,5.3-2.8c2.3,0.2,6.8,2.6,3.8,5
	c0,0,0.5,0.2-0.3,2.3c-0.8,2.1-8.8,4.8-6.6,6.7c1.9,1.6,3.2,5.8-0.1,4.9c-3.3-0.9-4.5-0.7-4.5-0.7l-8.4,6.3l-3.9-1.2
	c0,0,4.9-4.6,3.9-5.1c-1-0.5-9.6,1.6-9.6,1.6L168.2,279.8z"/>
<path id="Fill-241_1_" class="st5" d="M166.8,204.7c0,0-7.7,15.2-2.5,19c5.2,3.8,6.2-4.1,6.2-4.1L166.8,204.7z"/>
<path id="Fill-243_1_" class="st6" d="M170.2,274.1c0,0,0.5,0.1,1.4-0.3c0.9-0.3,3.5-1.3,4,1.7c0,0-3.6,3.1-5.3,3.9
	c-1.7,0.8-3,0.6-3.5,0.2C166.3,279.3,167.8,273.9,170.2,274.1"/>
<path id="Fill-245_1_" class="st6" d="M181.3,280.3c0,0,0.5,0.1,1.4-0.3c0.9-0.3,3.5-1.3,4,1.7c0,0-3.6,3.1-5.3,3.9
	c-1.7,0.8-3,0.6-3.5,0.2C177.4,285.5,178.9,280.1,181.3,280.3"/>
<path id="Fill-247_1_" d="M177.1,250.7v33.8c0,0-0.4,1.3,2.1,0.9c2.5-0.4,3-5.3,3-5.3v-29.4H177.1z"/>
<path id="Fill-249_1_" d="M166.6,244.8v33.8c0,0-0.4,1.3,2.1,0.9c2.5-0.4,3-5.3,3-5.3v-29.4H166.6z"/>
<path id="Fill-251_1_" class="st4" d="M187.9,240.2c0,0,1.2,2.9,4.4,2.9c3.3,0,0.9-3.9,0.4-4s-0.9,0-0.9,0s-1.4-1.2-2-1.2
	S187.2,239.1,187.9,240.2"/>
<path id="Fill-253_1_" class="st7" d="M169.5,201.3c-2,0.2-4.9,1.9-5.2,11.5c-0.2,9.6,0,35.1,0,35.1s7.1,7.3,13.2,7.3
	c6.1,0,8.7,0.7,8.5-7.5c-0.2-8.2-0.9-29-0.7-34.7C185.5,207.3,178,200.6,169.5,201.3"/>
<path id="Fill-255_1_" class="st2" d="M178.8,209.5c0,0,1.5-3,4.2-1.9c2.7,1.1,2.2,3.9,2.2,5.3c0,1.4-0.7,13.8-0.7,13.8
	s6.2,9.3,6.3,10.6c0.1,1.3-2,2.8-3.8,2.8c-1.8,0-6.3-8.8-7-12C179.4,225,178.8,209.5,178.8,209.5"/>
<path id="Fill-257_1_" class="st4" d="M171.9,201.5v3.1c0,0,1.1,3.5,5.8,1.6v-4.1L171.9,201.5z"/>
<path id="Fill-259_1_" class="st2" d="M176.9,188.5c0,0,3.7,3,4.2,8.5c0.5,5.5-3.8,6.9-3.8,6.9s-2.9,2.2-6.1-2.8
	C168,196.1,171.5,186.1,176.9,188.5"/>
<path id="Fill-261_1_" class="st0" d="M169.7,188.2c-2.7,1.2-3.7,3.1-3.8,5.9c-0.1,2.8,0.6,5,1.9,6.3c1.3,1.3,4.8,4.5,5.7,3.2
	c0.9-1.3,3.5-5,3.6-6.1c0.1-1.1-0.3-3.7-1.5-4.8c-1.2-1.1-0.5-3,0.2-3.3c0.7-0.3,1.2,0.7,1.3-0.3
	C177.2,188.1,174.3,186.1,169.7,188.2"/>
<path id="Fill-263_1_" class="st2" d="M177.5,197.2c0,0-1.6-3-3-1.5c-1.3,1.4,1.9,4.7,1.9,4.7L177.5,197.2z"/>
<path id="Fill-265_1_" class="st4" d="M179.9,192.6c0,0,1.9-0.5,0.9,2.7L179.9,192.6z"/>
<polygon id="Stroke-267_1_" points="180.1,193.5 180.6,194.3 177,196.6 176.5,195.8 "/>
<line id="Fill-195_1_" class="st1" x1="230.9" y1="200.3" x2="231" y2="196.5"/>
<path id="Fill-316_1_" class="st5" d="M226.2,198.7c0,0-7.7,15.2-2.5,19c5.2,3.8,6.2-4.1,6.2-4.1L226.2,198.7z"/>
<path id="Path-17_3_" class="st3" d="M237.1,216.2c0.8-0.4,1.3-1,1.3-1.7c0-1.1-1.6-3.6-3.3-1.8C233.9,213.8,234.6,215,237.1,216.2z
	"/>
<path id="Path-16_1_" class="st3" d="M238.6,223.5c-0.7,1.8-1.6,2.7-2.8,2.7c-1.8,0,6.7,8.1,7.9,8.1s6.2-11.1,6.2-12.3
	s-2.2-2.3-3.5,0.7c-0.9,2-2.1,4.1-3.5,6.3L238.6,223.5z"/>
<path id="Path-17_2_" class="st3" d="M249,223c1.3-0.6,1.9-1.4,1.9-2.5c0-1.6-2.4-5.2-4.9-2.7C244.3,219.5,245.3,221.2,249,223z"/>
<polygon id="Path-19_1_" class="st11" points="235.5,219.7 238.1,205.3 246.8,210.8 243.5,223.6 "/>
<path id="Path-18_1_" d="M231,217.9c1.3-1.5,2.5-2.2,3.4-2.2s2.9,2.8,5.8,8.5c-1.9,3.2-3.6,4.7-5.1,4.7
	C233.7,228.9,232.3,225.2,231,217.9z"/>
<polygon id="Path-20_1_" class="st10" points="250.9,217.1 243.1,218.4 241.5,219.6 243.1,220.3 251.2,218.7 "/>
<g id="Group-29_1_" transform="translate(426.631433, 284.780600)">
	<path id="Fill-314_1_" d="M-202.7,8.9c8.3-3.9,17.6-12,17.6-12s6.1-5.4,8.9-5.8c2.7-0.4,3.3-3.3,5.8-3c2.5,0.2,7.5,2.9,4.2,5.5
		c0,0,0.6,0.3-0.3,2.5s-9.8,5.3-7.3,7.4c2.2,1.8,3.5,6.4-0.2,5.4c-3.7-1-5-0.8-5-0.8l-9.3,7l-4.3-1.3c0,0,5.4-5.1,4.3-5.6
		c-1.1-0.5-10.6,1.7-10.6,1.7L-202.7,8.9z"/>
	<path id="Fill-318_1_" class="st10" d="M-200.8,3.3c0,0,0.5,0.1,1.5-0.3c1-0.3,3.8-1.4,4.3,1.7c0,0-3.9,3.2-5.8,4
		c-1.9,0.8-3.2,0.6-3.8,0.3C-205.1,8.7-203.4,3.1-200.8,3.3"/>
	<path id="Fill-320_1_" class="st10" d="M-188.2,10.1c0,0,0.5,0.1,1.5-0.3c1-0.3,3.8-1.4,4.3,1.7c0,0-3.9,3.2-5.8,4
		c-1.9,0.8-3.2,0.6-3.8,0.3C-192.5,15.4-190.9,9.8-188.2,10.1"/>
	<path id="Fill-322_1_" d="M-193-36v50.7c0,0-0.5,2,2.4,1.3c2.9-0.7,3.4-7.9,3.4-7.9V-36H-193z"/>
	<path id="Fill-324_1_" d="M-204.6-44.7V5.9c0,0-0.5,2,2.4,1.3c2.9-0.7,3.4-7.9,3.4-7.9v-44.1H-204.6z"/>
	<path id="Fill-328_1_" d="M-207.4-64.9c-0.3,8.1,0,29.5,0,29.5s8.8,6.1,14.6,6.1c5.8,0,6.3,0.8,6.1-6.1c-0.3-6.9,0.4-25.2-1.4-30.1
		s-2.7-8.4-12.1-7.8C-204.9-73.1-207.2-70.3-207.4-64.9z"/>
	<path id="Fill-332_1_" class="st3" d="M-201.7-76.6v4c0,0,1.3,4.6,6.8,2.1v-5.3L-201.7-76.6z"/>
	<path id="Fill-334_1_" class="st2" d="M-196.2-90.1c0.5,0.5,4.4,2.3,5,8.3c0.6,6-4.9,7.6-4.9,7.6s-3.7,2.4-7.8-3.1
		c-3.2-4.3-1.8-9.7,2.5-11.6c1.2-0.5,1.9-1.3,3.4-0.8L-196.2-90.1z"/>
	<path id="Path-15_3_" d="M-204.6-38c-2.6,3-2.6,5.4,0,7.3c2.6,1.9,4.9,1.9,6.7,0l-0.7-7.3H-204.6z"/>
	<path id="Path-15_2_" d="M-197.8-36c-2.6,3-2.6,5.4,0,7.3c2.6,1.9,4.9,1.9,6.7,0l-0.7-7.3H-197.8z"/>
	<path id="Path-13_1_" class="st0" d="M-204.7-78.5c-2.1-3.2-2.5-6.3-1.1-9c2.1-4.1,7.6-3.8,9.8-3.1c1.5,0.5,2.8,1.8,3.8,3.7
		c-0.9,2.5-2.2,4.3-3.8,5.3C-197.5-80.5-200.4-79.5-204.7-78.5z"/>
	<path id="Fill-338_1_" class="st1" d="M-195.8-80.4c0-0.3-0.5-1.7-1.1,0.5c-0.3,1.4,0.1,2.3,1.2,2.6c0.3-0.1-0.2-1.2-0.3-1.8
		C-195.9-79.4-195.9-79.8-195.8-80.4z"/>
	<path id="Path-14_1_" class="st0" d="M-193.2-88.9c0.7-0.3,4.7-0.7,3.9,1c-0.5,1.1-2.7,3-6.7,5.5c1.7-2.5,2.6-4.1,2.6-4.6
		c0-0.6-0.3-1-0.8-1.4C-194-88.5-193.6-88.6-193.2-88.9z"/>
</g>
</svg>
