<?xml version="1.0" encoding="UTF-8"?>
<svg width="794px" height="532px" viewBox="0 0 794 532" version="1.1" xmlns="http://www.w3.org/2000/svg" xmlns:xlink="http://www.w3.org/1999/xlink">
    <!-- Generator: Sketch 52.6 (67491) - http://www.bohemiancoding.com/sketch -->
    <title>Group 63</title>
    <desc>Created with Sketch.</desc>
    <g id="Welcome" stroke="none" stroke-width="1" fill="none" fill-rule="evenodd">
        <g id="Desktop-2.1-products-Copy-2" transform="translate(-565.000000, -95.000000)">
            <g id="Group-70" transform="translate(564.000000, 94.000000)">
                <g id="Group-63">
                    <g id="Group-64" transform="translate(164.949978, 414.261980)" fill-rule="nonzero">
                        <g id="Group-59">
                            <g id="Group-56" fill="#000000">
                                <ellipse id="Oval" cx="46.0806259" cy="13.9307173" rx="11.1846179" ry="10.3356934"></ellipse>
                                <path d="M37.5156032,7.49644169 C37.1082287,3.35539253 37.5783067,1.00184707 38.9258374,0.435805327 C40.2733681,-0.13023642 41.3385351,1.70773378 42.1213385,5.94971594 L37.5156032,7.49644169 Z" id="Path-26"></path>
                                <path d="M53.5548881,7.49644169 C53.5181787,3.41121645 53.1115123,1.09611052 52.3348889,0.551123914 C51.1699538,-0.266356001 48.5709519,1.27163959 48.5709519,3.99902125 C48.5709519,5.81727568 50.232264,6.9830825 53.5548881,7.49644169 Z" id="Path-27"></path>
                                <path d="M40.2646245,12.6069336 C33.1882193,23.051147 28.3264612,29.5833916 25.6793502,32.2036672 C21.7086838,36.1340807 21.2252305,42.0387401 22.5845202,47.341364 C23.4907134,50.8764466 25.8179506,53.0213889 29.5662319,53.7761908 C33.8792542,55.4666126 37.445385,56.3291047 40.2646245,56.3636672 C43.0838641,56.3982297 47.637301,55.631623 53.9249355,54.0638471 C54.4994232,51.6302904 54.0926245,50.4135121 52.7045392,50.4135121 C50.6224112,50.4135121 53.9249355,45.728083 54.834338,41.2169398 C55.7437405,36.7057966 55.0110079,33.5117522 55.0110079,31.9295773 C55.0110079,30.874794 55.1453266,27.5191509 55.4139642,21.8626481 C56.552748,14.144729 55.7581486,10.5071177 53.030166,10.9498141 C50.3021834,11.3925106 46.0470029,11.9448837 40.2646245,12.6069336 Z" id="Path-29"></path>
                                <path d="" id="Path-30"></path>
                                <path d="M22.1995912,47.9247827 C14.7185281,48.7089326 9.83630863,49.595733 3.92502041,55.9812312 C0.958749844,59.1854592 0.25287473,61.7985646 0.824074057,63.5049942 C1.39118082,65.1991975 3.78244554,64.8037812 4.48517877,63.5947315 C5.89571655,61.1679068 7.51289212,54.0840563 24.3997079,52.6330283 C41.2865236,51.1820004 29.6806543,47.1406328 22.1995912,47.9247827 Z" id="Path-31"></path>
                            </g>
                            <ellipse id="Oval" fill="#D8D8D8" cx="53.6861661" cy="10.7850714" rx="1" ry="1"></ellipse>
                        </g>
                    </g>
                    <g id="Group-60" transform="translate(217.077398, 426.750843)" fill="#FFFFFF" fill-rule="nonzero">
                        <g id="Group-65">
                            <g id="Group-57" transform="translate(21.969104, 51.000000) scale(-1, 1) translate(-21.969104, -51.000000) translate(0.469104, 0.000000)">
                                <g id="Group-58" transform="translate(14.635070, 16.247938) rotate(10.000000) translate(-14.635070, -16.247938) translate(2.635070, 2.747938)">
                                    <ellipse id="Oval" cx="11.7410837" cy="14.9001378" rx="11.7410837" ry="11.2879832"></ellipse>
                                    <path d="M9.9347631,4.39818102 C7.64596275,1.12834755 6.13916423,-0.318264423 5.41436754,0.0583451068 C4.68957086,0.434954636 4.40324794,2.82360935 4.55539878,7.22430924 L9.9347631,4.39818102 Z" id="Path-32"></path>
                                    <path d="M20.7726865,8.1273479 C19.6850442,2.60082752 18.501694,-0.107206318 17.2226358,0.00324636893 C15.9435777,0.113699056 15.3210474,1.8485171 15.3550452,5.20770051 L20.7726865,8.1273479 Z" id="Path-33"></path>
                                </g>
                                <path d="M24.0693122,17.352735 C24.0693122,18.848942 28.6794159,29.1208006 30.3726573,31.5130764 C32.0658986,33.9053522 42.3799181,48.9039561 37.5678568,56.3057798 C32.7557956,63.7076035 13.1483191,61.1693737 9.93910435,60.1567796 C6.72988958,59.1441856 4.51580141,57.3185919 4.51580141,54.8955097 C4.51580141,52.4724274 5.93942332,42.1328462 5.93942332,40.5214222 C5.93942332,38.9099983 7.63149071,36.4031396 6.78545702,34.5745552 C5.93942332,32.7459707 5.93942332,24.6785716 5.93942332,24.0602228 C5.93942332,23.441874 24.0693122,15.8565281 24.0693122,17.352735 Z" id="Path-34"></path>
                                <path d="M6.57123168,33.4124302 C5.87489942,35.4504265 5.1091011,38.0919004 4.27383673,41.3368519 C3.43857237,44.5818035 3.43857237,48.2777855 4.27383673,52.4247978 C1.98228343,53.4186084 1.28683412,54.340222 2.1874888,55.1896384 C3.08814348,56.0390548 4.84926136,56.9073333 7.47084243,57.7944739 C9.71556306,45.7804522 10.8379234,39.0543888 10.8379234,37.6162837 C10.8379234,36.1781786 9.41569281,34.7768941 6.57123168,33.4124302 Z" id="Path-35"></path>
                                <path d="M30.457252,60.2418224 C33.5662137,61.4073359 34.7374081,63.3064886 33.9708351,65.9392803 C32.8209757,69.8884678 28.0935284,85.0994672 30.457252,92.6215829 C32.8209757,100.143699 39.6641522,102.377423 41.6586418,101.663155 C43.6531314,100.948888 43.8699455,98.6393101 38.9203903,94.8669425 C33.9708351,91.0945749 33.3397067,80.5288029 36.1264113,73.6349831 C38.9131158,66.7411633 38.9131158,59.6846887 33.9708351,58.9068269 C30.6759813,58.3882524 29.504787,58.8332509 30.457252,60.2418224 Z" id="Path-36"></path>
                            </g>
                        </g>
                    </g>
                    <g id="Group-62" transform="translate(0.318870, 0.000000)">
                        <g id="Group-52" transform="translate(413.964282, 229.000000) scale(-1, 1) translate(-413.964282, -229.000000) translate(0.464282, 0.000000)">
                            <g id="Group-51" transform="translate(477.481342, 229.112873) scale(-1, 1) translate(-477.481342, -229.112873) translate(127.981342, 0.612873)">
                                <path d="M365.392487,378.809648 C363.558655,381.865716 505.896474,441.141375 513.22615,443.584721 C520.557711,446.028068 577.372593,403.86526 577.372593,403.86526 L428.313863,342.146256 L365.392487,378.809648 Z" id="Fill-193" fill="#FFFFFF"></path>
                                <polygon id="Fill-195" fill="#98B3C5" points="365.374206 386.838567 365.393053 378.809083 513.226715 443.586041 513.226715 449.517189"></polygon>
                                <path d="M513.227092,449.517377 C513.227092,449.517377 577.386729,411.458864 578.709802,408.480093 C580.032875,405.501322 577.371651,403.864883 577.371651,403.864883 L513.227092,443.586229 L513.227092,449.517377 Z" id="Fill-197" fill="#000000"></path>
                                <polygon id="Fill-199" fill="#ECE8F4" points="398.205838 359.689709 422.682696 345.427428 577.37297 403.866014 544.884168 423.982145"></polygon>
                                <polygon id="Fill-201" fill="#FCFCFC" points="298.130193 6.05643098 680.104342 161.024345 680.104342 456.375149 296.077577 295.615778"></polygon>
                                <polygon id="Fill-203" fill="#98B3C5" points="303.417443 13.9491288 673.853512 166.646135 675.906129 449.375404 301.364826 291.348655"></polygon>
                                <path d="M298.222764,6.06056073 C298.222764,6.06056073 307.683507,1.07838746 317.275472,0.521314649 C326.867436,-0.0357581604 690.275831,152.223331 696.663147,153.965347 C701.314417,155.234639 689.741501,156.682132 684.166053,160.105995 C682.089584,161.381147 680.238808,162.232288 679.310126,162.232288 C679.310126,161.029557 552.281005,108.972314 298.222764,6.06056073 Z" id="Fill-205" fill="#ECE8F4"></path>
                                <path d="M680.103965,456.375526 C680.103965,456.375526 695.771642,444.888405 697.511239,439.085457 C699.25272,433.28251 697.511239,154.154696 697.511239,154.154696 C697.511239,154.154696 679.811254,160.792898 679.394678,162.132838 L680.103965,456.375526 Z" id="Fill-207" fill="#000000"></path>
                                <polygon id="Path-21" stroke="#98B3C5" stroke-width="1.3" stroke-linecap="round" fill-rule="nonzero" points="333.902771 177.559265 333.902771 249.202178 465.533944 311.279231 465.533944 235.327709"></polygon>
                                <polygon id="Fill-312" fill="#793A78" points="478.008273 116.55431 324.284861 53.995633 324.284861 143.795975 478.008273 214.545379"></polygon>
                                <polygon id="Fill-312" fill="#FFFFFF" points="651.348307 187.520528 497.624894 124.961851 497.624894 344.289836 651.348307 408.731132"></polygon>
                                <g id="Group-7" transform="translate(88.198191, 79.387127)" fill="#923990">
                                    <g id="Group-8">
                                        <path d="M69.8696469,74.2857143 C69.8696469,79.7028704 67.7296837,84.9270504 62.5093271,88.4197633 C60.9840095,89.4406375 61.6318904,91.8832758 63.4473689,91.9644652 C78.2715722,92.6274137 86.7435952,83.9131246 89.1818182,74.2857143 L69.8696469,74.2857143 Z" id="Path" transform="translate(75.419192, 83.142857) scale(-1, 1) translate(-75.419192, -83.142857) "></path>
                                        <rect id="Rectangle" fill-rule="nonzero" x="0" y="0" width="109" height="75.2857143" rx="23"></rect>
                                    </g>
                                </g>
                                <g id="Group-9" transform="translate(4.198191, 51.387127)" fill="#4EA098">
                                    <path d="M49.9984629,53.2919255 C49.9984629,57.1781462 48.4671131,60.9259275 44.7314451,63.4315694 C43.6399334,64.1639356 44.1035546,65.9162631 45.4027043,65.9745077 C56.0108498,66.4501012 62.0733984,60.1985459 63.8181818,53.2919255 L49.9984629,53.2919255 Z" id="Path" transform="translate(53.969697, 59.645963) scale(-1, 1) translate(-53.969697, -59.645963) "></path>
                                    <rect id="Rectangle" fill-rule="nonzero" x="0" y="-1.0658141e-14" width="78" height="54.0093168" rx="23"></rect>
                                </g>
                                <g id="Group-7" transform="translate(0.198191, 137.387127)" fill="#3498D6">
                                    <g id="Group-68" transform="translate(79.500000, 100.000000) scale(-1, 1) translate(-79.500000, -100.000000) translate(67.000000, 92.000000)">
                                        <path d="M7.45958753,6.96331881e-13 C7.45958753,4.89291522 5.51595125,9.61152941 0.774526459,12.7662379 C-0.610853733,13.6883177 -0.022411446,15.8945717 1.62650933,15.9679041 C15.090694,16.5666963 22.7854672,8.69572545 25,0 L7.45958753,6.96331881e-13 Z" id="Path"></path>
                                    </g>
                                    <rect id="Rectangle" fill-rule="nonzero" x="0" y="0" width="137" height="94" rx="23"></rect>
                                </g>
                                <path d="M651.348307,301.135033 C638.487157,279.892288 623.273617,266.57397 605.707687,261.180078 C622.05829,244.168132 620.145033,181.525139 579.091058,180.5696 C551.721741,179.932574 540.271016,201.753319 544.73888,246.031835 C526.872365,246.212889 511.167703,250.251838 497.624894,258.14868 L497.624894,124.961851 L651.348307,187.520528 L651.348307,301.135033 Z" id="Combined-Shape" fill="#4F586F"></path>
                                <polygon id="Fill-312" fill="#003E7D" points="478.008273 227.513313 324.284861 156.735451 324.284861 262.974164 478.008273 333.723568"></polygon>
                                <polygon id="Fill-269" fill="#FFFFFF" points="342.225427 133.643507 342.225427 99.4770034 348.383278 102.322528 348.383278 136.96373"></polygon>
                                <polygon id="Fill-271" fill="#FFFFFF" points="354.541128 139.310176 354.541128 120.024967 360.698979 122.869217 360.698979 142.627727"></polygon>
                                <polygon id="Fill-273" fill="#DBCB32" points="366.856829 146.328326 366.856829 109.750985 373.01468 112.59651 373.01468 148.792116"></polygon>
                                <polygon id="Fill-275" fill="#FFFFFF" points="379.17253 151.661054 379.17253 120.024967 385.33038 122.849387 385.33038 152.901709"></polygon>
                                <polygon id="Fill-269" fill="#FFFFFF" points="414.067016 170.129449 414.067016 154.956505 420.224866 157.80203 420.224866 173.449672"></polygon>
                                <polygon id="Fill-271" fill="#FFFFFF" points="428.435334 176.296511 428.435334 157.011302 434.593184 159.855552 434.593184 179.614062"></polygon>
                                <polygon id="Fill-273" fill="#DBCB32" points="440.751035 180.40343 440.751035 144.682523 446.908885 147.528048 446.908885 183.723654"></polygon>
                                <polygon id="Fill-275" fill="#FFFFFF" points="453.066735 186.592592 453.066735 157.011302 459.224586 159.835721 459.224586 189.888043"></polygon>
                                <path d="M334.398417,242.627752 C336.783658,243.667202 343.430069,238.713242 354.33765,227.765871 C370.699022,211.344814 396.016671,209.004802 406.494543,235.264414 C416.972415,261.524026 433.306314,289.93825 465.405626,297.704509 C465.431333,305.623619 464.774476,309.885931 463.435054,310.491447 L334.398417,250.182349 L334.398417,242.627752 Z" id="Path-22" fill="#9ECCC7" fill-rule="nonzero"></path>
                                <path d="M334.398417,242.627752 C341.12161,248.586 351.472813,253.837379 365.452027,258.381889 C386.420847,265.198653 403.897634,247.502244 424.726551,255.639098 C445.555468,263.775952 433.306314,289.93825 465.405626,297.704509 C465.431333,305.623619 464.774476,309.885931 463.435054,310.491447 L334.398417,250.182349 L334.398417,242.627752 Z" id="Path-22" fill-opacity="0.793110281" fill="#4EA098" fill-rule="nonzero"></path>
                                <polyline id="Path-21" stroke="#98B3C5" stroke-width="1.3" stroke-linecap="round" fill-rule="nonzero" points="334.275059 76.8742435 334.275059 130.023989 394.025324 157.925568"></polyline>
                                <polygon id="Path-21" stroke="#98B3C5" stroke-width="1.3" stroke-linecap="round" fill-rule="nonzero" points="333.902771 177.559265 333.902771 249.202178 465.533944 311.279231 465.533944 235.327709"></polygon>
                                <polyline id="Path-21" stroke="#98B3C5" stroke-width="1.3" stroke-linecap="round" fill-rule="nonzero" points="405.856549 111.805782 405.856549 164.955528 465.606814 192.857106"></polyline>
                            </g>
                            <g id="Group-67" transform="translate(75.548252, 263.318234) rotate(-38.000000) translate(-75.548252, -263.318234) translate(23.548252, 208.318234)" fill-rule="nonzero">
                                <polygon id="Path-10" fill="#ECE8F4" transform="translate(61.593280, 42.196361) rotate(19.000000) translate(-61.593280, -42.196361) " points="94.6096361 75.4538605 36.4811277 41.7710024 54.955261 32.90264 28.5769237 8.93886234 80.2842134 35.7796137 56.6099446 41.3905739"></polygon>
                                <polygon id="Path-10" fill="#FFFFFF" transform="translate(35.428747, 74.497091) rotate(-22.000000) translate(-35.428747, -74.497091) " points="62.250713 101.548053 15.1426754 74.0372123 30.0241069 66.9497104 8.60678096 47.4461287 50.496598 69.3934538 36.0321766 77.6732361"></polygon>
                            </g>
                            <g id="Group-69" transform="translate(541.558071, 75.910310)" fill-rule="nonzero">
                                <polygon id="Path-10" fill="#ECE8F4" transform="translate(29.707922, 54.106059) rotate(117.000000) translate(-29.707922, -54.106059) " points="51.6047405 76.0630332 13.1065087 53.7723584 25.2999315 47.9757832 7.81110416 32.1490855 42.0499109 49.9233198 30.1953684 56.6891833"></polygon>
                                <polygon id="Path-10" fill="#FFFFFF" transform="translate(22.592246, 22.393554) rotate(89.000000) translate(-22.592246, -22.393554) " points="44.6049654 44.4069739 5.89040002 22.0716146 18.1622406 16.246195 0.579527211 0.380133335 35.0123111 18.1872516 23.0806599 24.9849384"></polygon>
                            </g>
                        </g>
                        <ellipse id="Oval" fill="#000000" fill-rule="nonzero" cx="567.252843" cy="212.17554" rx="2.48979321" ry="3.11107829"></ellipse>
                        <ellipse id="Oval" fill="#000000" fill-rule="nonzero" cx="588.416086" cy="218.397696" rx="2.48979321" ry="3.11107829"></ellipse>
                        <polygon id="Path-24" fill="#003E7D" fill-rule="nonzero" points="566.36383 271.286027 548.112641 312.126917 546.089601 365.572329 558.798301 370.840533 574.722223 323.901676 570.075896 271.286027"></polygon>
                        <path d="M566.544473,237.686382 C564.98489,250.130695 566.825373,256.352851 572.065921,256.352851 C577.306469,256.352851 580.26673,250.907973 580.946706,240.018216 L566.544473,237.686382 Z" id="Path-25" fill="#793A78" fill-rule="nonzero"></path>
                        <path d="M574.541564,235.826205 C568.565028,232.559203 564.337855,233.028074 561.860044,237.232815 C559.660872,240.964719 556.808737,243.247123 553.303641,244.080027 C552.85954,244.185558 552.844972,244.566043 553.279271,244.68025 C557.059126,245.674235 559.917846,246.39507 561.855431,246.842755 C569.244723,248.550076 574.816539,244.762474 576.630572,240.378383 C578.033824,241.792877 584.956479,242.031502 588.481964,238.980945 C590.198459,237.495684 593.119982,234.366264 596.314751,229.510418 C596.503626,229.223341 595.951356,228.94001 595.520104,229.07283 C593.416262,229.720787 590.072519,230.219979 589.159659,230.131509 C586.888485,229.911398 585.270675,227.703327 581.43779,227.705169 C578.563101,227.70655 576.264359,230.413562 574.541564,235.826205 Z" id="Path-23" fill="#000000" fill-rule="nonzero" transform="translate(574.657381, 237.483186) scale(-1, 1) rotate(4.000000) translate(-574.657381, -237.483186) "></path>
                    </g>
                    <g id="Group-55" transform="translate(433.122880, 359.640651)">
                        <path d="M27.393045,37.2981912 C27.393045,37.2981912 29.9569803,32.2192248 34.5324584,34.08181 C39.1094253,35.9443952 38.2622249,40.6856564 38.2622249,43.0585186 C38.2622249,45.429893 37.0755487,66.2604984 37.0755487,66.2604984 C37.0755487,66.2604984 47.5025167,81.9169254 47.6707657,84.1187034 C47.8405036,86.3204815 44.3028088,88.8465754 41.2534827,88.8465754 C38.2011788,88.8465754 30.6344429,73.9905245 29.4477667,68.6869173 C28.2610904,63.3818224 27.393045,37.2981912 27.393045,37.2981912" id="Fill-255" fill="#FCFCFC"></path>
                        <path d="M9.51130844,155.437269 C22.1374243,149.499907 30.8151557,138.749075 32.7748688,135.719062 C34.734582,132.689048 39.4942652,126.073277 43.6573099,125.469276 C47.8188658,124.865274 44.4184289,116.976544 52.4081539,115.776406 C60.3978789,114.576269 65.1776806,122.90326 60.0944779,126.95721 C60.0944779,126.95721 60.9401894,127.348472 59.6701332,130.8371 C58.398588,134.325728 49.6796283,144.11894 53.4674631,147.315981 C56.7386396,150.075642 58.8052727,157.061824 53.2232788,155.522067 C47.6412849,153.980823 45.6356979,154.302163 45.6356979,154.302163 L31.484919,164.890038 L24.9887228,162.908438 C24.9887228,162.908438 33.2046317,155.159072 31.484919,154.354232 C29.7652063,153.550881 15.3345088,157.003804 15.3345088,157.003804 L9.51130844,155.437269 Z" id="Fill-239" fill="#000000"></path>
                        <path d="M7.21404027,29.296067 C7.21404027,29.296067 -5.72921738,54.9021504 3.05844012,61.2590406 C11.8475865,67.6159308 13.446696,54.3636074 13.446696,54.3636074 L7.21404027,29.296067 Z" id="Fill-241" fill="#9ECCC7"></path>
                        <path d="M12.9473093,145.80211 C12.9473093,145.80211 13.7126187,145.903273 15.2357928,145.346877 C16.7604559,144.79197 21.0470817,143.12576 21.9210829,148.125878 C21.9210829,148.125878 15.8864547,153.36254 12.9473093,154.633025 C10.008164,155.902023 7.94450871,155.598535 7.14942076,155.036189 C6.35582173,154.472355 8.89742312,145.462917 12.9473093,145.80211" id="Fill-243" fill="#003E7D"></path>
                        <path d="M31.489088,156.207296 C31.489088,156.207296 32.2543974,156.306971 33.7775715,155.750576 C35.3022345,155.195669 39.5888604,153.529458 40.4628616,158.529577 C40.4628616,158.529577 34.4282333,163.766238 31.489088,165.036724 C28.5499426,166.305722 26.4862874,166.002233 25.6911994,165.439887 C24.8976004,164.877541 27.4392018,155.866616 31.489088,156.207296" id="Fill-245" fill="#003E7D"></path>
                        <path d="M24.5402575,106.456783 L24.5402575,163.268607 C24.5402575,163.268607 23.8047267,165.476336 28.0377511,164.73993 C32.2677977,164.005012 33.0048175,155.914966 33.0048175,155.914966 L33.0048175,106.456783 L24.5402575,106.456783 Z" id="Fill-247" fill="#000000"></path>
                        <path d="M6.77197732,96.6023385 L6.77197732,153.414162 C6.77197732,153.414162 6.03495759,155.620404 10.267982,154.885486 C14.4995176,154.150568 15.2365373,146.060521 15.2365373,146.060521 L15.2365373,96.6023385 L6.77197732,96.6023385 Z" id="Fill-249" fill="#000000"></path>
                        <path d="M42.6328263,88.9068268 C42.6328263,88.9068268 44.6384134,93.8236352 50.1042708,93.8236352 C55.5701283,93.8236352 51.6974246,87.2554933 50.7668441,87.0695323 C49.8362637,86.8835713 49.2779154,87.0695323 49.2779154,87.0695323 C49.2779154,87.0695323 46.9507197,85.1161981 45.8340232,85.1161981 C44.7173266,85.1161981 41.4387055,87.0055617 42.6328263,88.9068268" id="Fill-251" fill="#ECE8F4"></path>
                        <path d="M11.6821666,23.4689424 C8.31569865,23.7486277 3.37841091,26.6302791 2.98235586,42.8311998 C2.58778974,59.0291452 2.98235586,101.703471 2.98235586,101.703471 C2.98235586,101.703471 14.8461402,113.950118 25.1271932,113.950118 C35.4097352,113.950118 39.7588961,115.135805 39.3643299,101.307746 C38.9682749,87.4782001 37.8917794,52.5413385 38.2625227,43.0588161 C38.6332659,33.574806 25.9193033,22.2847428 11.6821666,23.4689424" id="Fill-253" fill="#F5FFFF"></path>
                        <path d="M15.6735379,23.9454488 L15.6735379,29.1240902 C15.6735379,29.1240902 17.5570327,35.0837678 25.3858201,31.8123422 L25.3858201,24.9302982 L15.6735379,23.9454488 Z" id="Fill-257" fill="#ECE8F4"></path>
                        <path d="M24.115615,2.07316439 C24.115615,2.07316439 30.302114,7.08518478 31.1388919,16.2746327 C31.974181,25.4640806 24.784144,27.8027259 24.784144,27.8027259 C24.784144,27.8027259 19.936192,31.4788026 14.586471,23.1239476 C9.23526105,14.7705802 15.08824,-1.93615439 24.115615,2.07316439 L28.9402175,11.725766" id="Fill-259" fill="#FCFCFC"></path>
                        <path d="M12.0268536,1.46157591 C7.48264301,3.46995451 5.77930852,6.71460173 5.622971,11.3963554 C5.46812241,16.0781091 6.55950719,19.8241071 8.82565675,22.0095206 C11.0888285,24.1934464 16.8688499,29.5208566 18.4307361,27.326517 C19.9926224,25.129202 24.3656061,18.8868638 24.5219437,17.0138648 C24.6782812,15.1408658 24.0529311,10.7730142 22.0235212,8.90001519 C19.9926224,7.02701618 21.2418336,3.90733474 22.3347073,3.43722538 C23.427581,2.97009139 24.410274,4.53067596 24.5442776,2.97009139 C24.6782812,1.40950683 19.6799474,-1.91696322 12.0268536,1.46157591" id="Fill-261" fill="#793A78"></path>
                        <path d="M25.0651049,16.7030868 C25.0651049,16.7030868 22.2956974,11.7342093 20.1084611,14.1398006 C17.9212247,16.5468796 23.2322336,22.0081817 23.2322336,22.0081817 L25.0651049,16.7030868 Z" id="Fill-263" fill="#FCFCFC"></path>
                        <path d="M29.1218402,8.87100528 C29.1218402,8.87100528 32.259013,8.04682621 30.7015936,13.4828376 L29.1218402,8.87100528 Z" id="Fill-265" fill="#000000"></path>
                        <path d="M30.1286003,11.1546118 L23.8843844,15.0346448" id="Stroke-267" stroke="#000000"></path>
                    </g>
                    <g id="Group-54" transform="translate(226.336258, 219.019912)">
                        <ellipse id="Oval-2" fill="#793A78" fill-rule="nonzero" transform="translate(38.103132, 14.310960) rotate(-11.000000) translate(-38.103132, -14.310960) " cx="38.1031319" cy="14.3109602" rx="1" ry="1.86667287"></ellipse>
                        <path d="M19.5653325,156.467222 C26.0585471,153.413058 36.0987321,148.178515 40.0041943,143.333171 C41.9360594,140.936387 38.5532502,137.91017 40.0041943,136.71662 C41.3237144,135.63118 46.3288269,138.229657 46.3288269,138.229657 C46.3288269,138.229657 55.6197423,130.025058 59.7827871,129.419569 C63.9458319,128.817056 64.7930324,124.453667 68.6061789,124.79286 C72.4193254,125.13354 80.0456185,129.186002 74.9609268,133.238464 C74.9609268,133.238464 75.8081273,133.629726 74.538071,137.119841 C73.2665259,140.608469 59.7336525,145.148893 63.5214872,148.345934 C66.7926637,151.105595 68.8592968,158.09029 63.2773029,156.55202 C57.6938201,155.010776 55.689722,155.332116 55.689722,155.332116 L41.5389431,165.919991 L35.0427469,163.93839 C35.0427469,163.93839 43.2586558,156.189024 41.5389431,155.384185 C39.8192304,154.580834 25.3885329,158.033757 25.3885329,158.033757 L19.5653325,156.467222 Z" id="Fill-344" fill="#000000"></path>
                        <path d="M17.2664266,30.3260199 C17.2664266,30.3260199 4.3231689,55.9321033 13.1123153,62.2875058 C21.8999728,68.6458837 23.4990823,55.3935603 23.4990823,55.3935603 L17.2664266,30.3260199 Z" id="Fill-346" fill="#9ECCC7"></path>
                        <path d="M23.0011845,146.832063 C23.0011845,146.832063 23.7664939,146.933226 25.289668,146.37683 C26.8143311,145.821923 31.100957,144.155712 31.9749581,149.155831 C31.9749581,149.155831 25.9403299,154.392493 23.0011845,155.66149 C20.0620392,156.930488 17.9983839,156.627 17.203296,156.064654 C16.4096969,155.502308 18.9498094,146.49287 23.0011845,146.832063" id="Fill-348" fill="#793A78"></path>
                        <path d="M41.5429632,157.235762 C41.5429632,157.235762 42.3082726,157.336924 43.8314467,156.780529 C45.3546208,156.225622 49.6427356,154.559411 50.5152479,159.55953 C50.5152479,159.55953 44.4821086,164.796191 41.5429632,166.066677 C38.6038178,167.334187 36.5401626,167.030698 35.7450746,166.468352 C34.9499867,165.906006 37.4915881,156.896569 41.5429632,157.235762" id="Fill-350" fill="#793A78"></path>
                        <path d="M30.9448366,107.486736 L30.9448366,164.29856 C30.9448366,164.29856 29.892199,166.504801 35.9480616,165.769883 C42.0039242,165.034965 43.0586927,156.944919 43.0586927,156.944919 L43.0586927,107.486736 L30.9448366,107.486736 Z" id="Fill-352" fill="#F4F5F9"></path>
                        <path d="M16.8455914,97.6322914 L16.8455914,154.444115 C16.8455914,154.444115 15.7931346,156.650356 21.850087,155.915439 C27.9049088,155.180521 28.959496,147.088987 28.959496,147.088987 L28.959496,97.6322914 L16.8455914,97.6322914 Z" id="Fill-354" fill="#F4F5F9"></path>
                        <path d="M10.0029981,42.1801926 C11.5090807,39.1548588 13.3886806,37.6828228 15.7597505,39.9315077 C18.1308204,42.1801926 24.9096245,58.507725 24.9096245,66.0185255 C24.9096245,71.0257258 21.8596665,77.0628469 15.7597505,84.1298886 C11.9219155,82.8110509 10.0029981,81.0246253 10.0029981,78.7706118 C10.0029981,76.5165982 12.8185753,70.7551704 18.4497298,61.4863282 C11.8145202,50.6324603 8.99894298,44.1970817 10.0029981,42.1801926 Z" id="Path-5" fill="#FFFFFF" fill-rule="nonzero" transform="translate(17.357336, 61.486328) scale(-1, 1) translate(-17.357336, -61.486328) "></path>
                        <path d="M19.3811691,25.9643175 C16.0132122,26.2231696 13.432435,27.4181873 13.03638,42.4123313 C12.6418138,57.4037214 13.03638,96.8979385 13.03638,96.8979385 C13.03638,96.8979385 24.9001643,108.233732 35.1812173,108.233732 C45.4637593,108.233732 49.8114312,109.331099 49.4168651,96.5316904 C49.0208101,83.7336585 46.7725875,56.1185774 47.1433308,47.3423906 C47.514074,38.5662039 36.1711017,26.1128491 21.9339649,27.2102167 L19.3811691,25.9643175 Z" id="Fill-358" fill="#F5FFFF"></path>
                        <path d="M25.727562,24.9754017 L25.727562,30.1540431 C25.727562,30.1540431 27.6110569,36.1137207 35.4383553,32.8422951 L35.4383553,25.9602511 L25.727562,24.9754017 Z" id="Fill-362" fill="#ECE8F4"></path>
                        <path d="M34.1696391,3.10311728 C34.1696391,3.10311728 40.3561381,8.11513768 41.192916,17.3045856 C42.0282051,26.4940335 34.8381681,28.8326788 34.8381681,28.8326788 C34.8381681,28.8326788 29.9887272,32.5087555 24.6390062,24.1539005 C19.2877962,15.8005331 25.1407752,-0.906201492 34.1696391,3.10311728" id="Fill-364" fill="#FCFCFC"></path>
                        <path d="M13.7846486,16.8626664 C12.61132,23.3494221 8.02879831,34.2036501 0.0370835363,49.4253506 C14.7482086,58.0941035 22.6243999,61.6965375 23.6656574,60.2326526 C25.2275437,58.0368253 34.4194814,19.9168167 34.5758189,18.0438177 C34.7306675,16.1708187 34.2717851,11.8017552 33.8316262,10.0020003 C33.3914673,8.20224548 37.7007751,8.67086716 38.7951377,8.20224548 C39.8880114,7.7351115 37.5601112,4.92805286 35.7023567,3.16598351 C33.8446023,1.40391417 26.8188497,-0.437946778 21.425254,2.65925356 C16.8810435,4.66614448 15.5446416,7.13253299 13.7846486,16.8626664 Z" id="Fill-366" fill="#793A78"></path>
                        <path d="M35.302296,19.186178 C35.302296,19.186178 32.5313996,14.2173005 30.3456522,16.6243795 C28.1584159,19.0314584 33.4694247,24.4927606 33.4694247,24.4927606 L35.302296,19.186178 Z" id="Fill-368" fill="#FCFCFC"></path>
                        <path d="M39.7451988,43.8016314 C41.582392,40.7762977 43.8752197,39.3042616 46.7675667,41.5529465 C49.6599136,43.8016314 60.3526711,66.303134 60.3526711,66.303134 C60.3526711,66.303134 55.8243029,72.7858651 46.7675667,85.7513274 C42.0859881,84.4324897 39.7451988,82.6460641 39.7451988,80.3920506 C39.7451988,78.1380371 43.1797775,72.3766092 50.0489349,63.107767 C41.954982,52.2538991 38.5204033,45.8185206 39.7451988,43.8016314 Z" id="Path-5" fill="#FFFFFF" fill-rule="nonzero"></path>
                    </g>
                    <g id="Group-54" transform="translate(79.000000, 290.028553)">
                        <ellipse id="Oval-2" fill="#793A78" fill-rule="nonzero" transform="translate(28.262605, 14.310960) rotate(-11.000000) translate(-28.262605, -14.310960) " cx="28.262605" cy="14.3109602" rx="1" ry="1.86667287"></ellipse>
                        <path d="M9.72480559,156.467222 C16.2180201,153.413058 26.2582052,148.178515 30.1636674,143.333171 C32.0955325,140.936387 28.7127233,137.91017 30.1636674,136.71662 C31.4831875,135.63118 36.4882999,138.229657 36.4882999,138.229657 C36.4882999,138.229657 45.7792154,130.025058 49.9422601,129.419569 C54.1053049,128.817056 54.9525054,124.453667 58.7656519,124.79286 C62.5787985,125.13354 70.2050916,129.186002 65.1203999,133.238464 C65.1203999,133.238464 65.9676003,133.629726 64.6975441,137.119841 C63.4259989,140.608469 49.8931255,145.148893 53.6809602,148.345934 C56.9521367,151.105595 59.0187698,158.09029 53.4367759,156.55202 C47.8532931,155.010776 45.849195,155.332116 45.849195,155.332116 L31.6984161,165.919991 L25.20222,163.93839 C25.20222,163.93839 33.4181288,156.189024 31.6984161,155.384185 C29.9787034,154.580834 15.5480059,158.033757 15.5480059,158.033757 L9.72480559,156.467222 Z" id="Fill-344" fill="#000000"></path>
                        <path d="M7.4258996,30.3260199 C7.4258996,30.3260199 -5.51735805,55.9321033 3.27178838,62.2875058 C12.0594459,68.6458837 13.6585554,55.3935603 13.6585554,55.3935603 L7.4258996,30.3260199 Z" id="Fill-346" fill="#9ECCC7"></path>
                        <path d="M13.1606576,146.832063 C13.1606576,146.832063 13.925967,146.933226 15.4491411,146.37683 C16.9738041,145.821923 21.26043,144.155712 22.1344312,149.155831 C22.1344312,149.155831 16.0998029,154.392493 13.1606576,155.66149 C10.2215122,156.930488 8.15785697,156.627 7.36276902,156.064654 C6.56916999,155.502308 9.10928245,146.49287 13.1606576,146.832063" id="Fill-348" fill="#793A78"></path>
                        <path d="M31.7024362,157.235762 C31.7024362,157.235762 32.4677456,157.336924 33.9909197,156.780529 C35.5140938,156.225622 39.8022087,154.559411 40.6747209,159.55953 C40.6747209,159.55953 34.6415816,164.796191 31.7024362,166.066677 C28.7632909,167.334187 26.6996356,167.030698 25.9045477,166.468352 C25.1094597,165.906006 27.6510611,156.896569 31.7024362,157.235762" id="Fill-350" fill="#793A78"></path>
                        <path d="M21.1043096,107.486736 L21.1043096,164.29856 C21.1043096,164.29856 20.051672,166.504801 26.1075346,165.769883 C32.1633972,165.034965 33.2181657,156.944919 33.2181657,156.944919 L33.2181657,107.486736 L21.1043096,107.486736 Z" id="Fill-352" fill="#F4F5F9"></path>
                        <path d="M7.00506441,97.6322914 L7.00506441,154.444115 C7.00506441,154.444115 5.9526077,156.650356 12.00956,155.915439 C18.0643819,155.180521 19.1189691,147.088987 19.1189691,147.088987 L19.1189691,97.6322914 L7.00506441,97.6322914 Z" id="Fill-354" fill="#F4F5F9"></path>
                        <path d="M33.7730319,37.2714115 C35.1785765,36.5993866 35.8813488,35.6382174 35.8813488,34.3879039 C35.8813488,32.5124337 33.1796495,28.3904536 30.3647009,31.3507729 C28.4880685,33.3243191 29.6241788,35.2978653 33.7730319,37.2714115 Z" id="Path-17" fill="#FFFFFF" fill-rule="nonzero"></path>
                        <path d="M52.1564394,49.5480616 C54.0970187,48.4059807 55.0673083,46.77251 55.0673083,44.6476496 C55.0673083,41.4603589 51.3371799,34.4552099 47.4506928,39.4861604 C44.8597013,42.8401275 46.4282835,46.1940945 52.1564394,49.5480616 Z" id="Path-17" fill="#FFFFFF" fill-rule="nonzero"></path>
                        <polygon id="Path-19" fill="#F4F5F9" fill-rule="nonzero" points="31.1095548 43.148941 35.4042396 18.9626293 50.0710637 28.1745294 44.4766188 49.7253894"></polygon>
                        <polygon id="Path-20" fill="#DBCB32" fill-rule="nonzero" points="56.9213263 38.8122493 43.9320206 40.9712304 41.1397997 42.9626595 43.9320206 44.1839094 57.4380191 41.4980793"></polygon>
                        <path d="M9.5406421,25.9643175 C6.17268526,26.2231696 3.59190806,27.4181873 3.19585301,42.4123313 C2.80128689,57.4037214 3.19585301,96.8979385 3.19585301,96.8979385 C3.19585301,96.8979385 15.0596373,108.233732 25.3406904,108.233732 C35.6232323,108.233732 39.9709043,109.331099 39.5763382,96.5316904 C39.1802831,83.7336585 36.9320605,56.1185774 37.3028038,47.3423906 C37.6735471,38.5662039 26.3305747,26.1128491 12.093438,27.2102167 L9.5406421,25.9643175 Z" id="Fill-358" fill="#F5FFFF"></path>
                        <path d="M15.887035,24.9754017 L15.887035,30.1540431 C15.887035,30.1540431 17.7705299,36.1137207 25.5978284,32.8422951 L25.5978284,25.9602511 L15.887035,24.9754017 Z" id="Fill-362" fill="#ECE8F4"></path>
                        <path d="M24.3291122,3.10311728 C24.3291122,3.10311728 30.5156111,8.11513768 31.3523891,17.3045856 C32.1876781,26.4940335 24.9976412,28.8326788 24.9976412,28.8326788 C24.9976412,28.8326788 20.1482002,32.5087555 14.7984792,24.1539005 C9.44726927,15.8005331 15.3002482,-0.906201492 24.3291122,3.10311728 Z M34.6427264,45.8527787 C36.1684789,46.1914765 38.9548972,49.8010796 43.0019814,56.6815881 C44.3706167,54.1400058 45.8203886,51.1729192 47.351297,47.7803284 C49.6476597,42.6914422 55.1935034,42.8864193 55.1935034,46.9713549 C55.1935034,51.0562905 50.0710637,64.6230331 44.4265422,66.4997722 C38.7820206,68.3765113 32.8112183,60.2986147 29.4879875,53.2855304 C26.1647567,46.272446 32.3540977,45.3447321 34.6427264,45.8527787 Z" id="Fill-365" fill="#F5FFFF"></path>
                        <path d="M3.94412169,16.8626664 C2.77079306,23.3494221 7.82394463,28.0437191 19.1035764,30.9455576 C22.7538284,23.5930637 24.6310669,19.2924837 24.7352919,18.0438177 C24.8901405,16.1708187 24.4312581,11.8017552 23.9910992,10.0020003 C23.5509403,8.20224548 27.8602481,8.67086716 28.9546108,8.20224548 C30.0474845,7.7351115 27.7195842,4.92805286 25.8618298,3.16598351 C24.0040753,1.40391417 16.9783228,-0.437946778 11.5847271,2.65925356 C7.04051653,4.66614448 5.70411463,7.13253299 3.94412169,16.8626664 Z" id="Fill-366" fill="#793A78"></path>
                        <path d="M25.4617691,19.186178 C25.4617691,19.186178 22.6908727,14.2173005 20.5051253,16.6243795 C18.3178889,19.0314584 23.6288978,24.4927606 23.6288978,24.4927606 L25.4617691,19.186178 Z" id="Fill-368" fill="#FCFCFC"></path>
                    </g>
                    <g id="Group-53" transform="translate(297.429150, 340.974181)">
                        <path d="M12.9352706,8.87056601 C12.9352706,8.87056601 -0.00798701891,34.4781371 8.77967048,40.8335396 C17.5688169,47.1904298 19.1679264,33.9395941 19.1679264,33.9395941 L12.9352706,8.87056601 Z" id="Fill-316" fill="#9ECCC7"></path>
                        <path d="M31.1473141,38.2288786 C32.5528587,37.5568537 33.255631,36.5956845 33.255631,35.345371 C33.255631,33.4699008 30.5539317,29.3479207 27.7389831,32.30824 C25.8623507,34.2817862 26.998461,36.2553324 31.1473141,38.2288786 Z" id="Path-17" fill="#FFFFFF" fill-rule="nonzero"></path>
                        <path d="M33.691653,50.5612285 C32.5418124,53.5830368 30.9483051,55.0939409 28.9111311,55.0939409 C25.8553702,55.0939409 40.1218866,68.6266353 42.1413749,68.6266353 C44.1608633,68.6266353 52.5677856,49.9369595 52.5677856,47.928822 C52.5677856,45.9206845 48.9127253,44.0431322 46.6163627,49.1320184 C45.0854542,52.5246092 43.0988749,56.0756439 40.6566248,59.7851225 L33.691653,50.5612285 Z" id="Path-16" fill="#FFFFFF" fill-rule="nonzero"></path>
                        <path d="M51.1582115,49.5789505 C53.276741,48.5937505 54.3360058,47.1846601 54.3360058,45.3516792 C54.3360058,42.6022078 50.2638263,36.5593147 46.0209501,40.8991933 C43.1923659,43.7924457 44.9047864,46.6856981 51.1582115,49.5789505 Z" id="Path-17" fill="#FFFFFF" fill-rule="nonzero"></path>
                        <polygon id="Path-19" fill="#F4F5F9" fill-rule="nonzero" points="28.483837 44.1064081 32.7785218 19.9200964 47.4453459 29.1319965 41.850901 50.6828565"></polygon>
                        <path d="M20.9308949,41.0322229 C23.1433774,38.586923 25.065873,37.364273 26.6983816,37.364273 C28.3308902,37.364273 31.5789007,42.1138084 36.4424129,51.6128794 C33.2373855,56.9122119 30.398689,59.5618782 27.9263236,59.5618782 C25.4539581,59.5618782 23.1221486,53.3853264 20.9308949,41.0322229 Z" id="Path-18" fill="#000000" fill-rule="nonzero"></path>
                        <polygon id="Path-20" fill="#DBCB32" fill-rule="nonzero" points="54.2956085 39.7697164 41.3063028 41.9286975 38.5140819 43.9201266 41.3063028 45.1413765 54.8123013 42.4555465"></polygon>
                        <path d="M9.02502954,168.390979 C15.5032314,165.355555 24.468579,160.349124 28.4709569,154.854923 C29.5213552,153.413006 24.9527565,149.025811 26.1704344,148.087327 C30.3293456,144.881987 38.6711581,148.267767 38.6711581,148.267767 C38.6711581,148.267767 48.9649986,139.213225 53.5766919,138.546774 C58.1867358,137.881964 59.1252384,133.065788 63.3509746,133.441693 C67.5734119,133.815956 76.0232348,138.287416 70.3905694,142.760517 C70.3905694,142.760517 71.3290721,143.192233 69.9204933,147.041563 C68.5119146,150.890892 53.5206126,155.900766 57.7166597,159.428361 C61.3403687,162.474994 63.6297214,170.181861 57.4461598,168.482903 C51.2625983,166.783945 49.0408705,167.13851 49.0408705,167.13851 L33.3650718,178.821102 L26.1704344,176.632976 C26.1704344,176.632976 35.2701168,168.082376 33.3650718,167.195963 C31.4600268,166.30955 15.4741429,170.117842 15.4741429,170.117842 L9.02502954,168.390979 Z" id="Fill-314" fill="#000000"></path>
                        <path d="M12.2422277,158.962945 C12.2422277,158.962945 13.07581,159.066838 14.7300256,158.488448 C16.3874784,157.910058 21.0474459,156.173339 21.9975678,161.383498 C21.9975678,161.383498 15.4373565,166.841759 12.2422277,168.166008 C9.04709892,169.488706 6.8037106,169.172375 5.93937484,168.586232 C5.07665769,168.000089 7.83961863,158.609398 12.2422277,158.962945" id="Fill-318" fill="#DBCB32"></path>
                        <path d="M33.3226025,170.312894 C33.3226025,170.312894 34.1545661,170.416788 35.8104003,169.838391 C37.4678532,169.259995 42.1278207,167.523254 43.0779426,172.735027 C43.0779426,172.735027 36.5177313,178.191804 33.3226025,179.516069 C30.1274736,180.838783 27.8840853,180.522448 27.0197496,179.936298 C26.1570324,179.350148 28.9199934,169.959343 33.3226025,170.312894" id="Fill-320" fill="#DBCB32"></path>
                        <path d="M25.2966001,92.884844 L25.2966001,178.013254 C25.2966001,178.013254 24.4561653,181.319147 29.2929183,180.217925 C34.1262688,179.116704 34.9701061,166.992125 34.9701061,166.992125 L34.9701061,92.884844 L25.2966001,92.884844 Z" id="Fill-322" fill="#000000"></path>
                        <path d="M5.83783143,78.2918945 L5.83783143,163.418257 C5.83783143,163.418257 4.99725222,166.726299 9.83313506,165.625105 C14.6690179,164.521681 15.5112987,152.399623 15.5112987,152.399623 L15.5112987,78.2918945 L5.83783143,78.2918945 Z" id="Fill-324" fill="#000000"></path>
                        <path d="M1.11152604,44.3862282 C0.674276946,58.013381 1.11152604,93.9102724 1.11152604,93.9102724 C1.11152604,93.9102724 15.8990988,104.213546 25.6519254,104.213546 C35.4047519,104.213546 36.2809001,105.543849 35.843651,93.9102724 C35.4047519,82.2766961 36.4684912,51.5736081 33.4263213,43.2842794 C30.3841514,34.9949506 28.8228275,29.2152202 13.04556,30.2126342 C5.38213677,30.5769284 1.40412544,35.3014597 1.11152604,44.3862282 Z" id="Fill-328" fill="#000000"></path>
                        <path d="M10.6465968,24.7844129 L10.6465968,31.4276306 C10.6465968,31.4276306 12.8496214,39.07277 21.9975678,34.8761496 L21.9975678,26.0496968 L10.6465968,24.7844129 Z" id="Fill-332" fill="#FFFFFF"></path>
                        <path d="M19.9450072,2.0842692 C20.8054519,3.00338515 27.319935,5.88286104 28.3969281,16.0306387 C29.4720048,26.1767736 20.2179128,28.7593066 20.2179128,28.7593066 C20.2179128,28.7593066 13.9763353,32.8187462 7.09086163,23.5925977 C1.71352538,16.3918389 4.10418145,7.27685464 11.2653675,4.12898938 C13.2763588,3.24501156 14.4404798,1.88185442 16.988328,2.85256521 L19.9450072,2.0842692 Z" id="Fill-334" fill="#FCFCFC"></path>
                        <path d="M5.84241031,89.6419663 C1.43754376,94.6948182 1.43754376,98.7798378 5.84241031,101.897025 C10.2472768,105.014213 14.0107621,105.014213 17.132866,101.897025 L16.0099613,89.6419663 L5.84241031,89.6419663 Z" id="Path-15" fill="#000000" fill-rule="nonzero"></path>
                        <path d="M17.1933813,92.884844 C12.7885148,97.9376959 12.7885148,102.022716 17.1933813,105.139903 C21.5982479,108.25709 25.3617331,108.25709 28.483837,105.139903 L27.3609323,92.884844 L17.1933813,92.884844 Z" id="Path-15" fill="#000000" fill-rule="nonzero"></path>
                        <path d="M5.73791308,21.5415352 C2.20786459,16.0858126 1.59919331,11.0379549 3.91189926,6.39796212 C7.38095818,-0.56202702 16.6434948,-0.0554761191 20.4464247,1.26838247 C22.9817113,2.15095486 25.1203263,4.24550234 26.8622697,7.55202488 C25.2888712,11.8117287 23.1502562,14.7904239 20.4464247,16.4881104 C17.7425932,18.1857969 12.839756,19.8702718 5.73791308,21.5415352 Z" id="Path-13" fill="#793A78" fill-rule="nonzero"></path>
                        <path d="M21.6321289,18.9205626 C21.8690282,18.4922063 22.1977675,15.9855701 19.690662,18.7221999 C18.0192661,20.5488835 17.9298204,22.1365257 19.4223249,23.4851268 C19.9390577,23.4984318 20.0362374,21.5910607 20.4232037,20.6529408 C20.5929734,20.2413692 20.9959485,19.6639098 21.6321289,18.9205626 Z" id="Fill-338" fill="#98B3C5" transform="translate(20.079042, 20.473274) rotate(-29.000000) translate(-20.079042, -20.473274) "></path>
                        <path d="M24.5913431,4.72227352 C25.7941498,4.14848855 32.4165443,3.5543065 31.0960554,6.40254906 C30.2157295,8.30137744 26.4898262,11.3655034 19.9183457,15.5949269 C22.8406628,11.3271062 24.3018213,8.72508737 24.3018213,7.78887043 C24.3018213,6.8526535 23.8792493,6.04401471 23.0341053,5.36295407 C23.2703926,5.31835701 23.7894719,5.10479683 24.5913431,4.72227352 Z" id="Path-14" fill="#793A78" fill-rule="nonzero"></path>
                    </g>
                    <g id="Group-54" transform="translate(146.772578, 222.619557)">
                        <ellipse id="Oval-2" fill="#793A78" fill-rule="nonzero" transform="translate(28.143959, 14.310960) rotate(-11.000000) translate(-28.143959, -14.310960) " cx="28.1439591" cy="14.3109602" rx="1" ry="1.86667287"></ellipse>
                        <path d="M8.83427518,154.922356 C15.3274897,151.868193 26.1395593,148.178515 30.0450215,143.333171 C31.9768866,140.936387 28.5940774,137.91017 30.0450215,136.71662 C31.3645416,135.63118 36.3696541,138.229657 36.3696541,138.229657 C36.3696541,138.229657 45.6605695,130.025058 49.8236143,129.419569 C53.9866591,128.817056 54.8338595,124.453667 58.6470061,124.79286 C62.4601526,125.13354 70.0864457,129.186002 65.001754,133.238464 C65.001754,133.238464 65.8489544,133.629726 64.5788982,137.119841 C63.3073531,140.608469 49.7744796,145.148893 53.5623144,148.345934 C56.8334908,151.105595 58.9001239,158.09029 53.3181301,156.55202 C47.7346472,155.010776 45.7305491,155.332116 45.7305491,155.332116 L31.5797703,165.919991 L25.0835741,163.93839 C25.0835741,163.93839 33.299483,156.189024 31.5797703,155.384185 C29.8600575,154.580834 11.3416132,156.069181 11.3416132,156.069181 L8.83427518,154.922356 Z" id="Fill-344" fill="#000000"></path>
                        <path d="M7.30725372,30.3260199 C7.30725372,30.3260199 -5.63600393,55.9321033 3.1531425,62.2875058 C11.9408,68.6458837 13.5399095,55.3935603 13.5399095,55.3935603 L7.30725372,30.3260199 Z" id="Fill-346" fill="#9ECCC7"></path>
                        <path d="M14.6519964,145.034154 C15.9301748,143.691477 21.2684149,144.444004 22.1424161,149.444123 C19.9401884,153.490614 15.9811571,154.392493 13.0420117,155.66149 C10.1028663,156.930488 8.10732039,155.308987 7.41224988,152.764672 C6.71717936,150.220357 8.99063657,146.49287 13.0420117,146.832063 C13.0420117,146.832063 13.373818,146.37683 14.6519964,145.034154 Z" id="Fill-348" fill="#793A78"></path>
                        <path d="M29.7300552,157.969208 C29.7300552,157.969208 30.4953646,158.070371 32.0185387,157.513976 C33.5417128,156.959068 37.7355996,156.326353 38.6081118,161.326472 C38.6081118,161.326472 32.6692006,165.529638 29.7300552,166.800123 C26.7909098,168.067633 24.7272546,167.764145 23.9321666,167.201799 C23.5292711,166.916841 22.0494161,162.600442 23.1223727,160.292977 C24.1668259,158.046809 27.6374082,158.83539 29.6358272,159.002703" id="Fill-350" fill="#793A78"></path>
                        <path d="M23.8210592,109.199613 L23.8210592,159.053742 C23.8210592,159.053742 23.306279,162.513341 26.2688704,161.868428 C29.2304197,161.223515 29.7462419,157.778473 29.7462419,157.778473 L29.7462419,109.199613 L23.8210592,109.199613 Z" id="Fill-354" fill="#FFFFFF"></path>
                        <path d="M18.8915968,78.399173 L18.8915968,111.091001 C18.8915968,111.091001 17.6238516,112.360561 24.917236,111.93766 C32.2106203,111.514758 33.4809318,106.859418 33.4809318,106.859418 L33.4809318,78.399173 L18.8915968,78.399173 Z" id="Fill-352" fill="#DBCB32"></path>
                        <path d="M9.34045066,94.2947251 L9.34045066,148.988472 C9.34045066,148.988472 8.82567045,151.112459 11.7882618,150.404941 C14.7498111,149.697423 15.2656334,147.73344 15.2656334,147.73344 L15.2656334,94.2947251 L9.34045066,94.2947251 Z" id="Fill-354" fill="#FFFFFF"></path>
                        <path d="M6.44257227,68.4437225 L6.44257227,106.309502 C6.44257227,106.309502 5.17504495,107.779989 12.4697417,107.290157 C19.7618725,106.800326 21.0319657,101.407218 21.0319657,101.407218 L21.0319657,68.4437225 L6.44257227,68.4437225 Z" id="Fill-354" fill="#DBCB32"></path>
                        <path d="M15.0429161,29.5458624 C11.6749592,29.75706 3.07720713,29.75706 3.07720713,39.6011459 C3.07720713,49.4452317 3.07720713,84.0560007 3.07720713,84.0560007 C3.07720713,84.0560007 14.9409914,93.3048842 25.2220445,93.3048842 C35.5045864,93.3048842 39.8522584,94.2002274 39.4576923,83.7571785 C39.1936556,76.7958948 37.9987819,61.2585104 35.8730713,37.1450251 C29.4323096,29.9165978 21.4662166,26.6008318 11.9747921,27.1977273 L15.0429161,29.5458624 Z" id="Fill-358" fill="#003E7D"></path>
                        <path d="M33.9471485,34.8440769 C38.5241155,36.7066621 37.0076088,42.2283631 37.0076088,44.6012252 C37.0076088,46.9725997 38.4489111,68.6777493 38.4489111,68.6777493 C38.4489111,68.6777493 48.8758791,84.3341763 49.0441281,86.5359543 C49.213866,88.7377324 45.6761712,91.2638264 42.6268452,91.2638264 C39.5745412,91.2638264 32.0078053,76.4077754 30.8211291,71.1041682 C30.0834246,67.8062236 28.2220938,51.856439 29.7116455,42.7190528 C30.6181963,37.1579807 32.2160443,34.1393791 33.9471485,34.8440769 Z" id="Fill-255" fill="#FCFCFC"></path>
                        <path d="M43.9630035,90.9008209 C43.9630035,90.9008209 45.9685905,95.8176293 51.434448,95.8176293 C56.9003054,95.8176293 53.0276017,89.2494874 52.0970213,89.0635264 C51.1664408,88.8775654 50.6080925,89.0635264 50.6080925,89.0635264 C50.6080925,89.0635264 48.2808969,87.1101922 47.1642003,87.1101922 C46.0475037,87.1101922 42.7688826,88.9995558 43.9630035,90.9008209" id="Fill-251" fill="#ECE8F4"></path>
                        <path d="M15.7683891,24.9754017 L15.7683891,30.1540431 C15.7683891,30.1540431 17.651884,36.1137207 25.4791825,32.8422951 L25.4791825,25.9602511 L15.7683891,24.9754017 Z" id="Fill-362" fill="#ECE8F4"></path>
                        <path d="M24.2104663,3.10311728 C24.2104663,3.10311728 30.3969653,8.11513768 31.2337432,17.3045856 C32.0690322,26.4940335 24.8789953,28.8326788 24.8789953,28.8326788 C24.8789953,28.8326788 20.0295543,32.5087555 14.6798333,24.1539005 C9.32862339,15.8005331 15.1816023,-0.906201492 24.2104663,3.10311728" id="Fill-364" fill="#FCFCFC"></path>
                        <path d="M3.51596253,14.9423711 C3.51596253,21.5878721 6.16600209,27.4025976 11.4660812,32.3865477 L25.7431839,31.1567595 C24.8879337,23.6634643 24.512421,19.2924837 24.616646,18.0438177 C24.7714946,16.1708187 24.3126122,11.8017552 23.8724533,10.0020003 C23.7830403,9.63640151 23.8896144,9.36440746 24.125414,9.15914704 C24.3463523,8.9668232 25.0327019,9.90034656 25.4256221,9.80309256 C25.8691839,9.69330397 25.7265811,8.83040779 26.1832757,8.60882526 C26.469384,8.47000906 26.8639432,9.19835011 27.2203511,9.15914704 C27.9009524,9.0842843 28.5546579,8.32270516 28.8359649,8.20224548 C29.9288386,7.7351115 27.5400678,5.01292729 25.7431839,3.16598351 C22.7911189,0.131676215 14.3802752,-0.46510835 8.68943642,3.16598351 C4.97238692,5.53768105 3.51596253,11.0558707 3.51596253,14.9423711 Z" id="Fill-366" fill="#793A78"></path>
                        <path d="M26.7820052,18.1532387 C26.7820052,18.1532387 24.0111088,13.1843612 21.8253614,15.5914402 C19.638125,17.9985191 24.9491339,23.4598213 24.9491339,23.4598213 L26.7820052,18.1532387 Z" id="Fill-368" fill="#FCFCFC"></path>
                    </g>
                    <g id="Group-61" transform="translate(552.567279, 372.084964)">
                        <ellipse id="Oval-2" fill="#793A78" fill-rule="nonzero" transform="translate(39.279918, 16.799823) rotate(-11.000000) translate(-39.279918, -16.799823) " cx="39.279918" cy="16.7998228" rx="1" ry="1.86667287"></ellipse>
                        <path d="M13.429616,147.414091 C26.0537207,139.881547 40.1702532,124.251372 40.1702532,124.251372 C40.1702532,124.251372 49.4470671,113.82396 53.6139012,113.063432 C57.7807451,112.306695 58.6147598,106.750566 62.4343191,107.19252 C66.2538834,107.636368 73.9041081,112.818356 68.8256931,117.96744 C68.8256931,117.96744 69.6753581,118.468043 68.4150259,122.910655 C67.1531977,127.351367 53.6164729,133.100172 57.4200921,137.182543 C60.7048959,140.706417 62.7973902,149.60925 57.2025798,147.635269 C51.6062685,145.657494 49.6004445,146.061647 49.6004445,146.061647 L35.4648617,159.512425 L28.95312,156.971338 C28.95312,156.971338 37.1549327,147.121043 35.4301821,146.091343 C33.7054365,145.063539 19.2660609,149.424704 19.2660609,149.424704 L13.429616,147.414091 Z" id="Fill-344" fill="#000000" transform="translate(41.970844, 133.339976) rotate(-20.000000) translate(-41.970844, -133.339976) "></path>
                        <path d="M18.4432126,32.8148825 C18.4432126,32.8148825 5.49995493,58.4209659 14.2891014,64.7763684 C23.0767589,71.1347463 24.6758683,57.8824229 24.6758683,57.8824229 L18.4432126,32.8148825 Z" id="Fill-346" fill="#9ECCC7"></path>
                        <path d="M24.1779706,149.320926 C24.1779706,149.320926 24.9432799,149.422088 26.4664541,148.865693 C27.9911171,148.310785 32.277743,146.644575 33.1517442,151.644694 C33.1517442,151.644694 27.1171159,156.881355 24.1779706,158.150353 C21.2388252,159.419351 19.17517,159.115862 18.380082,158.553516 C17.586483,157.99117 20.1265954,148.981733 24.1779706,149.320926" id="Fill-348" fill="#793A78"></path>
                        <path d="M43.3558073,150.50262 C43.3558073,150.50262 44.1211166,150.603783 45.6442908,150.047388 C47.1674649,149.49248 51.4555797,147.82627 52.3280919,152.826389 C52.3280919,152.826389 46.2949526,158.06305 43.3558073,159.333535 C40.4166619,160.601046 38.3530067,160.297557 37.5579187,159.735211 C36.7628307,159.172865 39.3044321,150.163428 43.3558073,150.50262" id="Fill-350" fill="#793A78"></path>
                        <path d="M37.482621,100.798937 L37.482621,157.610761 C37.482621,157.610761 36.4299833,159.817002 42.485846,159.082084 C48.5417086,158.347166 49.596477,150.25712 49.596477,150.25712 L49.596477,100.798937 L37.482621,100.798937 Z" id="Fill-352" fill="#F4F5F9"></path>
                        <path d="M18.0223774,100.121154 L18.0223774,156.932978 C18.0223774,156.932978 16.9699207,159.139219 23.026873,158.404301 C29.0816949,157.669383 30.1362821,149.577849 30.1362821,149.577849 L30.1362821,100.121154 L18.0223774,100.121154 Z" id="Fill-354" fill="#F4F5F9"></path>
                        <path d="M20.3151131,35.5182235 C16.9032702,39.015419 15.7116728,44.7385593 15.3156177,59.7327033 C14.9210516,74.7240934 14.213166,99.3868012 14.213166,99.3868012 C14.213166,99.3868012 22.1346238,107.701214 32.4156768,107.701214 C42.6982188,107.701214 50.5936511,101.598358 50.5936511,99.020553 C50.5936511,96.442748 48.3425112,56.2355089 48.7132545,47.4593221 C49.0839977,38.6831354 41.5359045,30.0714152 27.2987677,31.1687828 L20.3151131,35.5182235 Z" id="Fill-358" fill="#F5FFFF"></path>
                        <path d="M26.904348,27.4642643 L26.904348,32.6429058 C26.904348,32.6429058 28.7878429,38.6025833 36.6151413,35.3311577 L36.6151413,28.4491137 L26.904348,27.4642643 Z" id="Fill-362" fill="#ECE8F4"></path>
                        <path d="M7.28247109,41.4531675 C7.28247109,41.4531675 9.86927873,36.366948 14.4622338,38.2204112 C19.0566849,40.0738713 18.1953837,44.8186006 18.190315,47.1922927 C18.1852495,49.5644966 16.9485119,70.4049228 16.9485119,70.4049228 C16.9485119,70.4049228 27.390931,86.0445536 27.5552657,88.2467424 C27.7210963,90.448928 24.1614162,92.9834622 21.0977909,92.9899757 C18.0311739,92.9964955 10.4606896,78.1514111 9.27977786,72.8484836 C8.0988693,67.5440679 7.28247109,41.4531675 7.28247109,41.4531675" id="Fill-255" fill="#F5FFFF" transform="translate(17.421660, 65.401956) rotate(16.000000) translate(-17.421660, -65.401956) "></path>
                        <path d="M37.1840264,41.280884 C37.1840264,41.280884 39.6134821,36.1950999 43.9256303,38.0491253 C48.2391831,39.9031477 47.4298746,44.6476729 47.424805,47.0213183 C47.4197386,49.3934756 46.2558222,70.2333371 46.2558222,70.2333371 C46.2558222,70.2333371 56.0583119,85.8740246 56.21232,88.0761921 C56.3677326,90.2783567 53.025167,92.8123783 50.1486849,92.8184927 C47.2693938,92.8246131 40.1633005,77.9788306 39.0552194,72.675852 C37.9471414,67.3713853 37.1840264,41.280884 37.1840264,41.280884" id="Fill-255" fill="#F5FFFF" transform="translate(46.700785, 65.230446) scale(-1, 1) rotate(16.000000) translate(-46.700785, -65.230446) "></path>
                        <path d="M45.3373659,19.3174086 C46.1137488,27.1329599 40.0694028,29.8068446 37.7614139,30.8128508 C37.2338255,31.042816 36.8202684,31.9027281 36.8202684,31.9027281 C36.3638285,31.9982211 35.4774427,31.2397879 35.2484605,30.6674124 C34.9384864,31.3732441 35.2764542,32.2650108 34.5501969,32.3776558 C31.5639033,32.8408402 25.4795343,30.4614585 22.6503074,26.8709336 C21.375836,25.2535232 20.2431069,22.9402742 19.9578576,19.4604875 C19.9112489,18.8919032 18.9525298,21.5395435 18.8444834,20.9054253 C17.5366588,13.2298753 22.1670417,3.83797286 30.4917667,4.94271423 C36.2003184,-0.0706796372 44.3817774,9.71528608 45.3373659,19.3174086 Z" id="Fill-364" fill="#793A78" transform="translate(32.015549, 18.009977) rotate(13.000000) translate(-32.015549, -18.009977) "></path>
                    </g>
                    <path d="" id="Path-37" stroke="#979797" fill-rule="nonzero"></path>
                </g>
            </g>
        </g>
    </g>
</svg>