<?xml version="1.0" encoding="UTF-8"?>
<svg width="614px" height="412px" viewBox="0 0 614 412" version="1.1" xmlns="http://www.w3.org/2000/svg" xmlns:xlink="http://www.w3.org/1999/xlink">
    <!-- Generator: Sketch 53.2 (72643) - https://sketchapp.com -->
    <title>webniars</title>
    <desc>Created with Sketch.</desc>
    <g id="Page-1" stroke="none" stroke-width="1" fill="none" fill-rule="evenodd">
        <g id="webniars">
            <g id="Group-64" transform="translate(127.447488, 320.076724)" fill-rule="nonzero">
                <g id="Group-59">
                    <g id="Group-56" fill="#000000">
                        <ellipse id="Oval" cx="35.6038847" cy="10.7634747" rx="8.64171956" ry="7.98580377"></ellipse>
                        <path d="M28.9861777,5.7920751 C28.6714225,2.5925214 29.0346251,0.774070379 30.0757856,0.336722046 C31.1169461,-0.100626291 31.9399402,1.31946898 32.544768,4.59700788 L28.9861777,5.7920751 Z" id="Path-26"></path>
                        <path d="M41.378823,5.7920751 C41.3504597,2.63565338 41.0362516,0.846902398 40.4361988,0.425822174 C39.5361196,-0.205798167 37.5280183,0.98252375 37.5280183,3.08981679 C37.5280183,4.49467881 38.8116199,5.39543158 41.378823,5.7920751 Z" id="Path-27"></path>
                        <path d="M31.1101905,9.74066219 C25.6426537,17.8103132 21.8862491,22.8574079 19.8409767,24.8819462 C16.7730681,27.9187537 16.3995311,32.4809489 17.4497772,36.5779855 C18.1499412,39.3093432 19.9480653,40.9666184 22.8441496,41.549811 C26.1765772,42.855904 28.9319241,43.5223027 31.1101905,43.5490072 C33.2884569,43.5757117 36.8066392,42.9833982 41.6647376,41.7720667 C42.1086116,39.8917955 41.7943014,38.95166 40.7218066,38.95166 C39.1130645,38.95166 41.6647376,35.3314948 42.3673813,31.8459905 C43.070025,28.3604861 42.5038841,25.8926292 42.5038841,24.6701725 C42.5038841,23.8552013 42.6076645,21.2624863 42.8152256,16.8920276 C43.6950992,10.9288294 43.0811573,8.1182536 40.9734,8.46029999 C38.8656426,8.80234645 35.5779061,9.2291338 31.1101905,9.74066219 Z" id="Path-29"></path>
                        <path d="M17.1523644,37.02876 C11.3721714,37.6346281 7.5999575,38.3198085 3.03264054,43.2535206 C0.740771599,45.7292457 0.195381954,47.748244 0.63671526,49.0667053 C1.07488647,50.3757201 2.92248103,50.0702043 3.46544312,49.1360402 C4.55528562,47.2609705 5.80478541,41.7876812 18.8522697,40.6665542 C31.8997539,39.5454273 22.9325573,36.4228919 17.1523644,37.02876 Z" id="Path-31"></path>
                    </g>
                    <circle id="Oval" fill="#D8D8D8" cx="41.480254" cy="8.33301265" r="1"></circle>
                </g>
            </g>
            <g id="Group-60" transform="translate(167.723387, 329.726160)" fill="#FFFFFF" fill-rule="nonzero">
                <g id="Group-65">
                    <g id="Group-57" transform="translate(16.974280, 39.404806) scale(-1, 1) translate(-16.974280, -39.404806) translate(0.362450, 0.000000)">
                        <g id="Group-58" transform="translate(11.307688, 12.553860) rotate(10.000000) translate(-11.307688, -12.553860) translate(2.035969, 2.123176)">
                            <ellipse id="Oval" cx="9.07166911" cy="11.5124909" rx="9.07166911" ry="8.72158406"></ellipse>
                            <path d="M7.67602768,3.39822489 C5.90760153,0.871810122 4.74338382,-0.245904859 4.18337455,0.0450799531 C3.62336529,0.336064765 3.40213981,2.18164271 3.51969813,5.58181379 L7.67602768,3.39822489 Z" id="Path-32"></path>
                            <path d="M16.0498761,6.27954052 C15.2095166,2.00951184 14.295209,-0.0828322383 13.3069534,0.00250828506 C12.3186977,0.0878488085 11.8377039,1.42824427 11.8639721,4.02369466 L16.0498761,6.27954052 Z" id="Path-33"></path>
                        </g>
                        <path d="M18.5969917,13.4074736 C18.5969917,14.5635079 22.1589572,22.4999901 23.4672287,24.3483659 C24.7755002,26.1967416 32.7445578,37.7853117 29.0265511,43.5042809 C25.3085445,49.22325 10.15896,47.2621039 7.67938192,46.4797299 C5.19980378,45.697356 3.48910349,44.2868233 3.48910349,42.4146452 C3.48910349,40.542467 4.58905536,32.5536594 4.58905536,31.3086035 C4.58905536,30.0635477 5.89641981,28.1266402 5.24273759,26.7137968 C4.58905536,25.3009533 4.58905536,19.0677318 4.58905536,18.5899688 C4.58905536,18.1122058 18.5969917,12.2514395 18.5969917,13.4074736 Z" id="Path-34"></path>
                        <path d="M5.07721782,25.8158888 C4.5392014,27.3905329 3.9475125,29.4314498 3.30215111,31.9386397 C2.65678974,34.4458297 2.65678974,37.3015052 3.30215111,40.5056663 C1.53159792,41.2735274 0.994263701,41.9856059 1.69014846,42.6419018 C2.38603322,43.2981976 3.74674907,43.9690671 5.772296,44.6545103 C7.50666425,35.3719575 8.37384839,30.17511 8.37384839,29.0639678 C8.37384839,27.9528256 7.27497152,26.8701326 5.07721782,25.8158888 Z" id="Path-35"></path>
                        <path d="M23.5325903,46.5454376 C25.9347086,47.4459638 26.839624,48.9133313 26.2473365,50.94754 C25.3589054,53.9988531 21.7062752,65.7515292 23.5325903,71.5634411 C25.3589054,77.3753534 30.6462396,79.1012252 32.1872685,78.5493508 C33.7282975,77.9974772 33.8958174,76.2129975 30.071577,73.2983031 C26.2473365,70.3836087 25.7596994,62.2200363 27.912828,56.8935729 C30.0659564,51.5671095 30.0659564,46.114972 26.2473365,45.5139624 C23.70159,45.1132893 22.7966746,45.4571144 23.5325903,46.5454376 Z" id="Path-36"></path>
                    </g>
                </g>
            </g>
            <g id="Group-62" transform="translate(0.246373, 0.000000)">
                <g id="Group-52" transform="translate(319.846710, 176.935305) scale(-1, 1) translate(-319.846710, -176.935305) translate(0.358724, 0.000000)">
                    <g id="Group-51" transform="translate(368.922737, 177.022516) scale(-1, 1) translate(-368.922737, -177.022516) translate(98.883920, 0.473532)">
                        <path d="M282.31804,292.684719 C280.901142,295.045969 390.877497,340.844907 396.540722,342.732742 C402.205403,344.620577 446.103039,312.043768 446.103039,312.043768 L330.933817,264.356996 L282.31804,292.684719 Z" id="Fill-193" fill="#FFFFFF" fill-rule="nonzero"></path>
                        <polygon id="Fill-195" fill="#98B3C5" fill-rule="nonzero" points="282.303915 298.888209 282.318477 292.684282 396.541159 342.733762 396.541159 347.316423"></polygon>
                        <path d="M396.54145,347.316569 C396.54145,347.316569 446.113961,317.910915 447.136224,315.609388 C448.158488,313.307861 446.102311,312.043477 446.102311,312.043477 L396.54145,342.733907 L396.54145,347.316569 Z" id="Fill-197" fill="#000000" fill-rule="nonzero"></path>
                        <polygon id="Fill-199" fill="#ECE8F4" fill-rule="nonzero" points="307.671054 277.911827 326.582933 266.892172 446.10333 312.044351 421.001076 327.586944"></polygon>
                        <polygon id="Fill-201" fill="#FCFCFC" fill-rule="nonzero" points="230.348282 4.67946054 525.478031 124.414374 525.478031 352.61518 228.762342 228.405536"></polygon>
                        <polygon id="Fill-203" fill="#98B3C5" fill-rule="nonzero" points="234.43344 10.7777003 520.64837 128.758012 522.23431 347.206874 232.8475 225.108573"></polygon>
                        <path d="M230.419807,4.68265136 C230.419807,4.68265136 237.729586,0.833208795 245.140753,0.402790246 C252.551919,-0.0276283014 533.336964,117.61433 538.27208,118.960287 C541.865853,119.940996 532.924117,121.059392 528.616285,123.704817 C527.011915,124.690054 525.581926,125.347683 524.864386,125.347683 C524.864386,124.418401 426.716192,84.1967232 230.419807,4.68265136 Z" id="Fill-205" fill="#ECE8F4" fill-rule="nonzero"></path>
                        <path d="M525.47774,352.615471 C525.47774,352.615471 537.583265,343.740025 538.927353,339.256416 C540.272896,334.772808 538.927353,119.106586 538.927353,119.106586 C538.927353,119.106586 525.251579,124.235548 524.929714,125.270843 L525.47774,352.615471 Z" id="Fill-207" fill="#000000" fill-rule="nonzero"></path>
                        <polygon id="Path-21" stroke="#98B3C5" stroke-width="1.3" stroke-linecap="round" points="257.987723 137.189968 257.987723 192.544382 359.691661 240.507798 359.691661 181.824367"></polygon>
                        <polygon id="Fill-312" fill="#793A78" fill-rule="nonzero" points="369.329867 90.0549013 250.55651 41.7193615 250.55651 111.10299 369.329867 165.76704"></polygon>
                        <polygon id="Fill-312" fill="#FFFFFF" fill-rule="nonzero" points="503.259875 144.886471 384.486517 96.5509311 384.486517 266.013219 503.259875 315.803352"></polygon>
                        <g id="Group-7" transform="translate(68.145737, 61.337928)" fill="#923990" fill-rule="nonzero">
                            <g id="Group-8">
                                <path d="M53.9843114,57.396356 C53.9843114,61.5818851 52.3308833,65.6183125 48.29741,68.3169336 C47.1188836,69.1057051 47.6194644,70.9929931 49.0221816,71.0557236 C60.4760023,71.5679463 67.0218537,64.8349096 68.9057303,57.396356 L53.9843114,57.396356 Z" id="Path" transform="translate(58.272130, 64.239768) scale(-1, 1) translate(-58.272130, -64.239768) "></path>
                                <rect id="Rectangle" x="0" y="0" width="84.2181146" height="58.1689992" rx="23"></rect>
                            </g>
                        </g>
                        <g id="Group-9" transform="translate(3.243704, 39.703917)" fill="#4EA098" fill-rule="nonzero">
                            <path d="M38.6309751,41.1756467 C38.6309751,44.1783089 37.447788,47.0740068 34.5614493,49.0099741 C33.7181002,49.5758319 34.076314,50.929756 35.0800932,50.9747583 C43.2764053,51.3422224 47.9605926,46.5120003 49.3086877,41.1756467 L38.6309751,41.1756467 Z" id="Path" transform="translate(41.699322, 46.085051) scale(-1, 1) translate(-41.699322, -46.085051) "></path>
                            <rect id="Rectangle" x="0" y="-1.0658141e-14" width="60.2661738" height="41.7299342" rx="20.8649671"></rect>
                        </g>
                        <g id="Group-7" transform="translate(0.153131, 106.151237)" fill="#3498D6" fill-rule="nonzero">
                            <g id="Group-68" transform="translate(61.425139, 77.264325) scale(-1, 1) translate(-61.425139, -77.264325) translate(51.767098, 71.083179)">
                                <path d="M5.76359998,5.3801613e-13 C5.76359998,3.78047793 4.26186252,7.42628335 0.598432643,9.86374758 C-0.471972016,10.5761863 -0.0173160525,12.2808336 1.25671146,12.3374934 C11.6597229,12.8001461 17.6050375,6.7186936 19.3160813,0 L5.76359998,5.3801613e-13 Z" id="Path"></path>
                            </g>
                            <rect id="Rectangle" x="0" y="0" width="105.852126" height="72.6284658" rx="23"></rect>
                        </g>
                        <path d="M503.259875,232.669952 C493.322794,216.256888 481.568155,205.966579 467.995958,201.799025 C480.629141,188.65486 479.150876,140.254174 447.430799,139.515883 C426.284081,139.023689 417.436755,155.883341 420.88882,190.094837 C407.084378,190.234728 394.950277,193.355394 384.486517,199.456836 L384.486517,96.5509311 L503.259875,144.886471 L503.259875,232.669952 Z" id="Combined-Shape" fill="#4F586F" fill-rule="nonzero"></path>
                        <polygon id="Fill-312" fill="#003E7D" fill-rule="nonzero" points="369.329867 175.786626 250.55651 121.100589 250.55651 203.185214 369.329867 257.849263"></polygon>
                        <polygon id="Fill-269" fill="#FFFFFF" fill-rule="nonzero" points="264.418167 103.258754 264.418167 76.8602355 269.175989 79.0588109 269.175989 105.824102"></polygon>
                        <polygon id="Fill-271" fill="#FFFFFF" fill-rule="nonzero" points="273.933811 107.637068 273.933811 92.736481 278.691633 94.9340715 278.691633 110.200351"></polygon>
                        <polygon id="Fill-273" fill="#DBCB32" fill-rule="nonzero" points="283.449454 113.059594 283.449454 84.7983581 288.207276 86.9969338 288.207276 114.963225"></polygon>
                        <polygon id="Fill-275" fill="#FFFFFF" fill-rule="nonzero" points="292.965097 117.17989 292.965097 92.736481 297.722918 94.91875 297.722918 118.138474"></polygon>
                        <polygon id="Fill-269" fill="#FFFFFF" fill-rule="nonzero" points="319.926086 131.449371 319.926086 119.726098 324.683908 121.924674 324.683908 134.014719"></polygon>
                        <polygon id="Fill-271" fill="#FFFFFF" fill-rule="nonzero" points="331.02767 136.21431 331.02767 121.313723 335.785492 123.511314 335.785492 138.777593"></polygon>
                        <polygon id="Fill-273" fill="#DBCB32" fill-rule="nonzero" points="340.543314 139.387493 340.543314 111.787975 345.301135 113.986551 345.301135 141.952842"></polygon>
                        <polygon id="Fill-275" fill="#FFFFFF" fill-rule="nonzero" points="350.058956 144.169507 350.058956 121.313723 354.816778 123.495991 354.816778 146.715715"></polygon>
                        <path d="M258.370681,187.464696 C260.213621,188.26782 265.348926,184.440176 273.776595,175.981764 C286.418098,163.294145 305.979609,161.48615 314.075266,181.775462 C322.170923,202.064774 334.7912,224.018833 359.592517,230.01938 C359.612379,236.138027 359.104863,239.431274 358.069968,239.899122 L258.370681,193.301704 L258.370681,187.464696 Z" id="Path-22" fill="#9ECCC7" fill-rule="nonzero"></path>
                        <path d="M258.370681,187.464696 C263.56531,192.068296 271.563098,196.125738 282.364043,199.637023 C298.56546,204.90395 312.068782,191.230939 328.162104,197.517824 C344.255426,203.80471 334.7912,224.018833 359.592517,230.01938 C359.612379,236.138027 359.104863,239.431274 358.069968,239.899122 L258.370681,193.301704 L258.370681,187.464696 Z" id="Path-22" fill-opacity="0.793110281" fill="#4EA098" fill-rule="nonzero"></path>
                        <polyline id="Path-21" stroke="#98B3C5" stroke-width="1.3" stroke-linecap="round" points="258.275369 59.3963656 258.275369 100.462158 304.441008 122.020125"></polyline>
                        <polygon id="Path-21" stroke="#98B3C5" stroke-width="1.3" stroke-linecap="round" points="257.987723 137.189968 257.987723 192.544382 359.691661 240.507798 359.691661 181.824367"></polygon>
                        <polyline id="Path-21" stroke="#98B3C5" stroke-width="1.3" stroke-linecap="round" points="313.582324 86.3859831 313.582324 127.451776 359.747963 149.009742"></polyline>
                    </g>
                    <g id="Group-67" transform="translate(58.371847, 203.451057) rotate(-38.000000) translate(-58.371847, -203.451057) translate(18.194398, 160.955678)" fill-rule="nonzero">
                        <polygon id="Path-10" fill="#ECE8F4" transform="translate(47.589632, 32.602734) rotate(19.000000) translate(-47.589632, -32.602734) " points="73.0994969 58.2989162 28.1868971 32.2740831 42.4608115 25.4220028 22.0797672 6.90655164 62.0310557 27.6448771 43.7392917 31.9801476"></polygon>
                        <polygon id="Path-10" fill="#FFFFFF" transform="translate(27.373782, 57.559675) rotate(-22.000000) translate(-27.373782, -57.559675) " points="48.0975934 78.460418 11.6998859 57.2043526 23.1979236 51.7282421 6.6499712 36.6589312 39.0158557 53.6163839 27.8400181 60.0137018"></polygon>
                    </g>
                    <g id="Group-69" transform="translate(418.431190, 58.651589)" fill-rule="nonzero">
                        <polygon id="Path-10" fill="#ECE8F4" transform="translate(22.953625, 41.804682) rotate(117.000000) translate(-22.953625, -41.804682) " points="39.872054 58.7695893 10.1266549 41.5468498 19.5478208 37.068165 6.03519632 24.8397738 32.4895793 38.5729161 23.3302471 43.8005148"></polygon>
                        <polygon id="Path-10" fill="#FFFFFF" transform="translate(17.455747, 17.302229) rotate(89.000000) translate(-17.455747, -17.302229) " points="34.4637256 34.3107493 4.5511779 17.0534846 14.0329327 12.5525135 0.447767853 0.293707983 27.052026 14.0522578 17.8331162 19.3044446"></polygon>
                    </g>
                </g>
                <ellipse id="Oval" fill="#000000" fill-rule="nonzero" cx="438.284082" cy="163.935999" rx="1.92372193" ry="2.40375365"></ellipse>
                <ellipse id="Oval" fill="#000000" fill-rule="nonzero" cx="454.635719" cy="168.743506" rx="1.92372193" ry="2.40375365"></ellipse>
                <polygon id="Path-24" fill="#003E7D" fill-rule="nonzero" points="437.597192 209.607318 423.495534 241.162757 421.932446 282.456994 431.751737 286.527436 444.055248 250.260445 440.465295 209.607318"></polygon>
                <path d="M437.736765,183.646779 C436.531763,193.261794 437.9538,198.069301 442.002874,198.069301 C446.051948,198.069301 448.339174,193.862353 448.864553,185.448455 L437.736765,183.646779 Z" id="Path-25" fill="#793A78" fill-rule="nonzero"></path>
                <path d="M443.915663,182.209526 C439.297932,179.685299 436.031836,180.047569 434.117372,183.296334 C432.418196,186.179764 430.214513,187.943248 427.506325,188.586786 C427.163193,188.668324 427.151937,188.962303 427.487495,189.050544 C430.407975,189.81854 432.616745,190.375488 434.113807,190.721389 C439.823094,192.040539 444.12812,189.114074 445.52972,185.726736 C446.613934,186.819635 451.962676,187.004007 454.686619,184.647015 C456.012857,183.499438 458.270152,181.081513 460.738569,177.329676 C460.884502,177.107868 460.457794,176.888954 460.12459,176.991577 C458.499071,177.492216 455.91555,177.877914 455.210235,177.809558 C453.455428,177.639491 452.205438,175.933439 449.243985,175.934863 C447.022876,175.93593 445.246768,178.027484 443.915663,182.209526 Z" id="Path-23" fill="#000000" fill-rule="nonzero" transform="translate(444.005148, 183.489782) scale(-1, 1) rotate(4.000000) translate(-444.005148, -183.489782) "></path>
            </g>
            <g id="Group-55" transform="translate(334.649471, 277.873923)">
                <path d="M21.1650514,28.8181958 C21.1650514,28.8181958 23.1460587,24.8939667 26.681271,26.3330806 C30.2176336,27.7721944 29.5630499,31.4354979 29.5630499,33.2688739 C29.5630499,35.1011003 28.6461726,51.195727 28.6461726,51.195727 C28.6461726,51.195727 36.702499,63.2925597 36.8324955,64.9937487 C36.9636423,66.6949376 34.2302663,68.6467071 31.8742251,68.6467071 C29.5158831,68.6467071 23.6694956,57.1682796 22.7526183,53.0704832 C21.8357408,48.9715375 21.1650514,28.8181958 21.1650514,28.8181958" id="Fill-255" fill="#FCFCFC" fill-rule="nonzero"></path>
                <path d="M7.3488483,120.097557 C17.1043315,115.510095 23.8091221,107.203537 25.3232813,104.862418 C26.8374404,102.521298 30.5149775,97.4096669 33.7315259,96.9429896 C36.946924,96.4763115 34.3195994,90.3811375 40.4928065,89.453859 C46.6660136,88.5265812 50.3590952,94.9603746 46.4315929,98.0926318 C46.4315929,98.0926318 47.0850262,98.3949377 46.1037258,101.090403 C45.121275,103.785867 38.3846296,111.352527 41.3112746,113.822699 C43.8387271,115.954932 45.4354972,121.352759 41.1226073,120.163076 C36.8097174,118.972244 35.2601141,119.220525 35.2601141,119.220525 L24.3266102,127.401175 L19.3073681,125.870106 C19.3073681,125.870106 25.6553347,119.88261 24.3266102,119.260756 C22.9978858,118.640052 11.8481048,121.30793 11.8481048,121.30793 L7.3488483,120.097557 Z" id="Fill-239" fill="#000000" fill-rule="nonzero"></path>
                <path d="M5.57387954,22.6354085 C5.57387954,22.6354085 -4.42664115,42.4197761 2.36308312,47.3313844 C9.15395778,52.2429927 10.3894989,42.0036745 10.3894989,42.0036745 L5.57387954,22.6354085 Z" id="Fill-241" fill="#9ECCC7" fill-rule="nonzero"></path>
                <path d="M10.0036512,112.653017 C10.0036512,112.653017 10.5949623,112.73118 11.7718325,112.301284 C12.9498532,111.872539 16.2618857,110.585153 16.9371768,114.44846 C16.9371768,114.44846 12.274562,118.494532 10.0036512,119.476163 C7.73274039,120.456646 6.13827106,120.222158 5.52395171,119.787665 C4.91078278,119.352023 6.87453394,112.390941 10.0036512,112.653017" id="Fill-243" fill="#003E7D" fill-rule="nonzero"></path>
                <path d="M24.3298314,120.692513 C24.3298314,120.692513 24.9211425,120.769527 26.0980127,120.339632 C27.2760333,119.910887 30.5880659,118.6235 31.263357,122.486808 C31.263357,122.486808 26.6007422,126.532879 24.3298314,127.514511 C22.0589205,128.494994 20.4644513,128.260505 19.8501319,127.826013 C19.236963,127.39152 21.2007141,120.429289 24.3298314,120.692513" id="Fill-245" fill="#003E7D" fill-rule="nonzero"></path>
                <path d="M18.9608644,82.2531151 L18.9608644,126.148388 C18.9608644,126.148388 18.3925615,127.854175 21.6631792,127.285195 C24.9314962,126.717366 25.5009496,120.466647 25.5009496,120.466647 L25.5009496,82.2531151 L18.9608644,82.2531151 Z" id="Fill-247" fill="#000000" fill-rule="nonzero"></path>
                <path d="M5.23232259,74.6391451 L5.23232259,118.534417 C5.23232259,118.534417 4.66286927,120.239055 7.93348702,119.671226 C11.2029544,119.103396 11.7724077,112.852676 11.7724077,112.852676 L11.7724077,74.6391451 L5.23232259,74.6391451 Z" id="Fill-249" fill="#000000" fill-rule="nonzero"></path>
                <path d="M32.9399656,68.6932599 C32.9399656,68.6932599 34.4895689,72.4921987 38.7127268,72.4921987 C42.9358847,72.4921987 39.9436663,67.4173682 39.2246596,67.2736867 C38.5056529,67.1300052 38.0742489,67.2736867 38.0742489,67.2736867 C38.0742489,67.2736867 36.2761568,65.7644562 35.4133488,65.7644562 C34.5505407,65.7644562 32.0173362,67.2242602 32.9399656,68.6932599" id="Fill-251" fill="#ECE8F4" fill-rule="nonzero"></path>
                <path d="M9.02614721,18.13312 C6.42506846,18.349217 2.6103064,20.5757055 2.30429713,33.0932376 C1.99943828,45.6084708 2.30429713,78.5805007 2.30429713,78.5805007 C2.30429713,78.5805007 11.4707701,88.0427899 19.4143563,88.0427899 C27.359093,88.0427899 30.7194428,88.9589029 30.4145839,78.2747464 C30.1085747,67.5894411 29.2768277,40.5957107 29.56328,33.2691038 C29.8497322,25.9413473 20.0263748,17.2181562 9.02614721,18.13312" id="Fill-253" fill="#F5FFFF" fill-rule="nonzero"></path>
                <path d="M12.1100533,18.5012895 L12.1100533,22.5025318 C12.1100533,22.5025318 13.5653229,27.1072365 19.6141826,24.5795916 L19.6141826,19.2622267 L12.1100533,18.5012895 Z" id="Fill-257" fill="#ECE8F4" fill-rule="nonzero"></path>
                <path d="M18.6327672,1.60181648 C18.6327672,1.60181648 23.4127239,5.47432022 24.0592547,12.5744852 C24.7046352,19.6746501 19.1493016,21.4815886 19.1493016,21.4815886 C19.1493016,21.4815886 15.4035642,24.3218844 11.2701384,17.8665621 C7.13556214,11.4123891 11.6578268,-1.49595663 18.6327672,1.60181648 L22.3604638,9.05983399" id="Fill-259" fill="#FCFCFC" fill-rule="nonzero"></path>
                <path d="M9.29246729,1.12927677 C5.78141364,2.68103694 4.46534374,5.18799172 4.34455061,8.80531711 C4.22490789,12.4226425 5.06815897,15.3169626 6.81908414,17.0055076 C8.56770853,18.6929031 13.0336031,22.8090907 14.2403839,21.113649 C15.4471648,19.4159084 18.8259212,14.5928079 18.9467144,13.1456478 C19.0675075,11.6984878 18.5843349,8.32369674 17.0163251,6.87653669 C15.4471648,5.42937664 16.4123594,3.01897582 17.2567609,2.655749 C18.1011624,2.29482107 18.8604335,3.50059621 18.9639705,2.29482107 C19.0675075,1.08904594 15.2055786,-1.4811287 9.29246729,1.12927677" id="Fill-261" fill="#793A78" fill-rule="nonzero"></path>
                <path d="M19.3663842,12.9055273 C19.3663842,12.9055273 17.2266202,9.06635765 15.5366668,10.9250215 C13.8467134,12.7848349 17.9502285,17.0044731 17.9502285,17.0044731 L19.3663842,12.9055273 Z" id="Fill-263" fill="#FCFCFC" fill-rule="nonzero"></path>
                <path d="M22.5007934,6.85412238 C22.5007934,6.85412238 24.9247088,6.21732598 23.7213792,10.4174235 L22.5007934,6.85412238 Z" id="Fill-265" fill="#000000" fill-rule="nonzero"></path>
                <path d="M23.2786598,8.61853555 L18.4541085,11.6164169" id="Stroke-267" stroke="#000000"></path>
            </g>
            <g id="Group-54" transform="translate(174.877183, 169.224257)" fill-rule="nonzero">
                <ellipse id="Oval-2" fill="#793A78" transform="translate(29.440128, 11.057267) rotate(-11.000000) translate(-29.440128, -11.057267) " cx="29.4401278" cy="11.0572669" rx="1" ry="1.4422722"></ellipse>
                <path d="M15.1170222,120.893343 C20.1339606,118.533564 27.8914418,114.48913 30.9089708,110.745408 C32.4016134,108.893549 29.7879087,106.555362 30.9089708,105.633174 C31.9284891,104.794516 35.7956555,106.802212 35.7956555,106.802212 C35.7956555,106.802212 42.9742186,100.462984 46.1907671,99.9951568 C49.4073156,99.5296292 50.0618993,96.1582861 53.0081013,96.4203613 C55.9543032,96.6835854 61.8467071,99.8146929 57.9180543,102.9458 C57.9180543,102.9458 58.5726381,103.248106 57.5913377,105.94472 C56.6088869,108.640185 46.1528036,112.148313 49.0794485,114.618485 C51.606901,116.750719 53.2036711,122.147396 48.8907812,120.958862 C44.5767409,119.76803 43.028288,120.016311 43.028288,120.016311 L32.0947841,128.196962 L27.075542,126.665891 C27.075542,126.665891 33.4235085,120.678396 32.0947841,120.056542 C30.7660597,119.435838 19.6162787,122.103716 19.6162787,122.103716 L15.1170222,120.893343 Z" id="Fill-344" fill="#000000"></path>
                <path d="M13.340788,23.4311947 C13.340788,23.4311947 3.34026728,43.2155623 10.131142,48.1260211 C16.9208662,53.0387789 18.1564074,42.7994606 18.1564074,42.7994606 L13.340788,23.4311947 Z" id="Fill-346" fill="#9ECCC7"></path>
                <path d="M17.77171,113.448803 C17.77171,113.448803 18.3630212,113.526966 19.5398914,113.09707 C20.717912,112.668325 24.0299446,111.380938 24.7052356,115.244247 C24.7052356,115.244247 20.0426209,119.290318 17.77171,120.2708 C15.5007992,121.251283 13.9063299,121.016795 13.2920106,120.582302 C12.6788416,120.147809 14.6414424,113.186728 17.77171,113.448803" id="Fill-348" fill="#793A78"></path>
                <path d="M32.0978902,121.487151 C32.0978902,121.487151 32.6892014,121.565313 33.8660716,121.135418 C35.0429418,120.706673 38.3561247,119.419286 39.0302655,123.282594 C39.0302655,123.282594 34.3688011,127.328665 32.0978902,128.310298 C29.8269794,129.289631 28.2325101,129.055142 27.6181907,128.620649 C27.0038714,128.186156 28.9676226,121.225075 32.0978902,121.487151" id="Fill-350" fill="#793A78"></path>
                <path d="M23.9093192,83.0489014 L23.9093192,126.944174 C23.9093192,126.944174 23.0960059,128.648811 27.7750273,128.080982 C32.4540486,127.513152 33.2690084,121.262433 33.2690084,121.262433 L33.2690084,83.0489014 L23.9093192,83.0489014 Z" id="Fill-352" fill="#F4F5F9"></path>
                <path d="M13.0156325,75.4349312 L13.0156325,119.330203 C13.0156325,119.330203 12.2024589,121.034841 16.8823223,120.467012 C21.5605395,119.899183 22.3753592,113.647313 22.3753592,113.647313 L22.3753592,75.4349312 L13.0156325,75.4349312 Z" id="Fill-354" fill="#F4F5F9"></path>
                <path d="M7.72874829,32.5902412 C8.89241285,30.2527375 10.344673,29.1153788 12.1766642,30.85281 C14.0086553,32.5902412 19.2462526,45.205599 19.2462526,51.0087683 C19.2462526,54.8775478 16.8897231,59.5420887 12.1766642,65.0023908 C9.21138687,63.9833998 7.72874829,62.6031301 7.72874829,60.8615818 C7.72874829,59.1200334 9.90418501,54.668505 14.2550585,47.5069966 C9.12840861,39.1208288 6.95297187,34.148577 7.72874829,32.5902412 Z" id="Path-5" fill="#FFFFFF" transform="translate(13.411028, 47.506997) scale(-1, 1) translate(-13.411028, -47.506997) "></path>
                <path d="M14.9747295,20.0611547 C12.3725004,20.2611551 10.3784803,21.1844774 10.0724711,32.7696016 C9.76761214,44.3525981 10.0724711,74.8675384 10.0724711,74.8675384 C10.0724711,74.8675384 19.238944,83.6260628 27.1825302,83.6260628 C35.1272669,83.6260628 38.4864663,84.473936 38.1816074,74.5845593 C37.8755982,64.6962463 36.1385242,43.3596402 36.4249765,36.5787787 C36.7114287,29.7979172 27.9473577,20.1759167 16.94713,21.0237904 L14.9747295,20.0611547 Z" id="Fill-358" fill="#F5FFFF"></path>
                <path d="M19.8782272,19.2970756 L19.8782272,23.298318 C19.8782272,23.298318 21.3334968,27.9030226 27.3812061,25.3753777 L27.3812061,20.0580129 L19.8782272,19.2970756 Z" id="Fill-362" fill="#ECE8F4"></path>
                <path d="M26.4009411,2.39760263 C26.4009411,2.39760263 31.1808978,6.27010638 31.8274286,13.3702713 C32.4728091,20.4704362 26.9174755,22.2773747 26.9174755,22.2773747 C26.9174755,22.2773747 23.1705877,25.1176706 19.0371619,18.6623483 C14.9025856,12.2081753 19.4248503,-0.700170469 26.4009411,2.39760263" id="Fill-364" fill="#FCFCFC"></path>
                <path d="M10.6506157,13.0288254 C9.74405131,18.0407735 6.20339685,26.4272195 0.0286523441,38.1881637 C11.3951039,44.8860171 17.4805899,47.6694134 18.2851105,46.5383527 C19.4918914,44.8417615 26.5939801,15.388594 26.7147732,13.941434 C26.8344159,12.494274 26.4798635,9.11854653 26.1397777,7.72797805 C25.7996919,6.33740963 29.1292495,6.69948701 29.9748014,6.33740963 C30.8192029,5.97648171 29.0205665,3.80762679 27.585185,2.4461758 C26.1498036,1.08472481 20.7214033,-0.338376623 16.554078,2.05465432 C13.0430244,3.60526505 12.0104625,5.51090349 10.6506157,13.0288254 Z" id="Fill-366" fill="#793A78"></path>
                <path d="M27.2760808,14.824071 C27.2760808,14.824071 25.1351664,10.9849013 23.4463634,12.8447147 C21.7564101,14.7045279 25.8599252,18.9241662 25.8599252,18.9241662 L27.2760808,14.824071 Z" id="Fill-368" fill="#FCFCFC"></path>
                <path d="M30.7088597,33.843035 C32.1283546,31.5055313 33.8998925,30.3681725 36.1346449,32.1056038 C38.3693972,33.843035 46.6310841,51.2286692 46.6310841,51.2286692 C46.6310841,51.2286692 43.132271,56.2375076 36.1346449,66.2551846 C32.5174548,65.2361935 30.7088597,63.8559238 30.7088597,62.1143755 C30.7088597,60.3728272 33.3625638,55.9212988 38.6699719,48.7597904 C32.4162338,40.3736226 29.7625297,35.4013708 30.7088597,33.843035 Z" id="Path-5" fill="#FFFFFF"></path>
            </g>
            <g id="Group-54" transform="translate(61.038817, 224.088605)" fill-rule="nonzero">
                <ellipse id="Oval-2" fill="#793A78" transform="translate(21.836911, 11.057267) rotate(-11.000000) translate(-21.836911, -11.057267) " cx="21.8369111" cy="11.0572668" rx="1" ry="1.4422722"></ellipse>
                <path d="M7.51380543,120.893343 C12.5307438,118.533564 20.2882251,114.48913 23.3057541,110.745408 C24.7983966,108.893549 22.1846919,106.555362 23.3057541,105.633174 C24.3252724,104.794516 28.1924387,106.802212 28.1924387,106.802212 C28.1924387,106.802212 35.3710019,100.462984 38.5875503,99.9951568 C41.8040988,99.5296292 42.4586825,96.1582861 45.4048845,96.4203613 C48.3510865,96.6835854 54.2434904,99.8146929 50.3148376,102.9458 C50.3148376,102.9458 50.9694213,103.248106 49.9881209,105.94472 C49.0056701,108.640185 38.5495868,112.148313 41.4762317,114.618485 C44.0036842,116.750719 45.6004543,122.147396 41.2875644,120.958862 C36.9735241,119.76803 35.4250712,120.016311 35.4250712,120.016311 L24.4915673,128.196962 L19.4723252,126.665891 C19.4723252,126.665891 25.8202918,120.678396 24.4915673,120.056542 C23.1628429,119.435838 12.0130619,122.103716 12.0130619,122.103716 L7.51380543,120.893343 Z" id="Fill-344" fill="#000000"></path>
                <path d="M5.73757123,23.4311947 C5.73757123,23.4311947 -4.26294947,43.2155623 2.52792522,48.1260211 C9.31764951,53.0387789 10.5531907,42.7994606 10.5531907,42.7994606 L5.73757123,23.4311947 Z" id="Fill-346" fill="#9ECCC7"></path>
                <path d="M10.1684933,113.448803 C10.1684933,113.448803 10.7598044,113.526966 11.9366746,113.09707 C13.1146952,112.668325 16.4267278,111.380938 17.1020189,115.244247 C17.1020189,115.244247 12.4394041,119.290318 10.1684933,120.2708 C7.89758244,121.251283 6.30311315,121.016795 5.68879381,120.582302 C5.07562487,120.147809 7.03822563,113.186728 10.1684933,113.448803" id="Fill-348" fill="#793A78"></path>
                <path d="M24.4946734,121.487151 C24.4946734,121.487151 25.0859846,121.565313 26.2628548,121.135418 C27.439725,120.706673 30.752908,119.419286 31.4270487,123.282594 C31.4270487,123.282594 26.7655843,127.328665 24.4946734,128.310298 C22.2237627,129.289631 20.6292933,129.055142 20.014974,128.620649 C19.4006546,128.186156 21.3644058,121.225075 24.4946734,121.487151" id="Fill-350" fill="#793A78"></path>
                <path d="M16.3061024,83.0489014 L16.3061024,126.944174 C16.3061024,126.944174 15.4927891,128.648811 20.1718105,128.080982 C24.8508318,127.513152 25.6657916,121.262433 25.6657916,121.262433 L25.6657916,83.0489014 L16.3061024,83.0489014 Z" id="Fill-352" fill="#F4F5F9"></path>
                <path d="M5.41241575,75.4349312 L5.41241575,119.330203 C5.41241575,119.330203 4.59924218,121.034841 9.27910551,120.467012 C13.9573228,119.899183 14.7721425,113.647313 14.7721425,113.647313 L14.7721425,75.4349312 L5.41241575,75.4349312 Z" id="Fill-354" fill="#F4F5F9"></path>
                <path d="M26.0945052,28.7975046 C27.1804898,28.2782691 27.7234821,27.5356282 27.7234821,26.5695819 C27.7234821,25.1205125 25.6360323,21.9356924 23.4610813,24.2229632 C22.0111139,25.7478103 22.8889219,27.2726575 26.0945052,28.7975046 Z" id="Path-17" fill="#FFFFFF"></path>
                <path d="M40.298321,38.2829755 C41.7976965,37.4005544 42.5473842,36.1384643 42.5473842,34.4967052 C42.5473842,32.0340666 39.6653257,26.6215855 36.6624577,30.5087154 C34.6605456,33.1001355 35.8725,35.6915555 40.298321,38.2829755 Z" id="Path-17" fill="#FFFFFF"></path>
                <polygon id="Path-19" fill="#F4F5F9" points="24.0365876 33.3387381 27.3548469 14.6513476 38.6870696 21.7688601 34.3645594 38.4199866"></polygon>
                <polygon id="Path-20" fill="#DBCB32" points="43.9798787 29.9880226 33.9437793 31.6561447 31.7863887 33.194809 33.9437793 34.1383995 44.3790979 32.063211"></polygon>
                <path d="M7.37151275,20.0611547 C4.76928362,20.2611551 2.77526353,21.1844774 2.46925427,32.7696016 C2.16439542,44.3525981 2.46925427,74.8675384 2.46925427,74.8675384 C2.46925427,74.8675384 11.6357272,83.6260628 19.5793135,83.6260628 C27.5240501,83.6260628 30.8832495,84.473936 30.5783907,74.5845593 C30.2723814,64.6962463 28.5353074,43.3596402 28.8217597,36.5787787 C29.108212,29.7979172 20.3441409,20.1759167 9.34391328,21.0237904 L7.37151275,20.0611547 Z" id="Fill-358" fill="#F5FFFF"></path>
                <path d="M12.2750104,19.2970756 L12.2750104,23.298318 C12.2750104,23.298318 13.73028,27.9030226 19.7779894,25.3753777 L19.7779894,20.0580129 L12.2750104,19.2970756 Z" id="Fill-362" fill="#ECE8F4"></path>
                <path d="M18.7977244,2.39760263 C18.7977244,2.39760263 23.577681,6.27010638 24.2242119,13.3702713 C24.8695923,20.4704362 19.3142588,22.2773747 19.3142588,22.2773747 C19.3142588,22.2773747 15.5673709,25.1176706 11.4339451,18.6623483 C7.29936886,12.2081753 11.8216335,-0.700170469 18.7977244,2.39760263 Z M26.7664688,35.4278401 C27.9453312,35.6895327 30.0982385,38.4784682 33.2251908,43.7946466 C34.2826576,41.8309102 35.4028141,39.5384108 36.5856602,36.9171484 C38.3599293,32.9852548 42.644888,33.1359025 42.644888,36.2921005 C42.644888,39.4482984 38.6870696,49.9305505 34.3258681,51.3806003 C29.9646666,52.8306501 25.3513664,46.5893178 22.7836946,41.1707056 C20.2160227,35.7520932 24.9981753,35.0353013 26.7664688,35.4278401 Z" id="Fill-365" fill="#F5FFFF"></path>
                <path d="M3.04739901,13.0288254 C2.14083456,18.0407735 6.04511803,21.6677904 14.7602494,23.9098763 C17.580592,18.2290215 19.0310277,14.9062074 19.1115564,13.941434 C19.2311991,12.494274 18.8766467,9.11854653 18.5365609,7.72797805 C18.1964751,6.33740963 21.5260327,6.69948701 22.3715847,6.33740963 C23.2159862,5.97648171 21.4173497,3.80762679 19.9819683,2.4461758 C18.5465868,1.08472481 13.1181866,-0.338376623 8.95086123,2.05465432 C5.4398076,3.60526505 4.40724568,5.51090349 3.04739901,13.0288254 Z" id="Fill-366" fill="#793A78"></path>
                <path d="M19.6728641,14.824071 C19.6728641,14.824071 17.5319497,10.9849013 15.8431467,12.8447147 C14.1531933,14.7045279 18.2567085,18.9241662 18.2567085,18.9241662 L19.6728641,14.824071 Z" id="Fill-368" fill="#FCFCFC"></path>
            </g>
            <g id="Group-53" transform="translate(229.806626, 263.451400)" fill-rule="nonzero">
                <path d="M9.99434956,6.85378298 C9.99434956,6.85378298 -0.00617111627,26.6393 6.78355316,31.5497589 C13.5744278,36.4613672 14.809969,26.2231984 14.809969,26.2231984 L9.99434956,6.85378298 Z" id="Fill-316" fill="#9ECCC7"></path>
                <path d="M24.0657621,29.5372851 C25.1517466,29.0180496 25.6947389,28.2754087 25.6947389,27.3093624 C25.6947389,25.860293 23.6072892,22.6754729 21.4323381,24.9627437 C19.9823708,26.4875908 20.8601787,28.012438 24.0657621,29.5372851 Z" id="Path-17" fill="#FFFFFF"></path>
                <path d="M26.0316284,39.0657921 C25.1432118,41.4005719 23.9119991,42.5679617 22.3379904,42.5679617 C19.9769773,42.5679617 30.999905,53.0239068 32.560249,53.0239068 C34.1205931,53.0239068 40.6161449,38.5834548 40.6161449,37.031881 C40.6161449,35.4803071 37.7920872,34.0296289 36.0178181,37.9615225 C34.834972,40.5827849 33.3000549,43.3264679 31.4130669,46.1925715 L26.0316284,39.0657921 Z" id="Path-16" fill="#FFFFFF"></path>
                <path d="M39.527047,38.3068416 C41.1639145,37.5456335 41.9823483,36.4569093 41.9823483,35.040669 C41.9823483,32.9163084 38.8360063,28.2473078 35.5577766,31.6004858 C33.3722901,33.8359377 34.6953802,36.0713897 39.527047,38.3068416 Z" id="Path-17" fill="#FFFFFF"></path>
                <polygon id="Path-19" fill="#F4F5F9" points="22.0078445 34.0785186 25.3261037 15.3911281 36.6583264 22.5086405 32.3358163 39.1597671"></polygon>
                <path d="M16.1721147,31.7032702 C17.8815744,29.8139257 19.3669777,28.8692534 20.6283244,28.8692534 C21.8896712,28.8692534 24.3992246,32.5389499 28.1569845,39.878343 C25.6806417,43.9728366 23.487342,46.0200833 21.5770855,46.0200833 C19.666829,46.0200833 17.8651721,41.2478123 16.1721147,31.7032702 Z" id="Path-18" fill="#000000"></path>
                <polygon id="Path-20" fill="#DBCB32" points="41.9511356 30.7278031 31.9150362 32.3959252 29.7576455 33.9345895 31.9150362 34.87818 42.3503548 32.8029916"></polygon>
                <path d="M6.97312818,130.106154 C11.9784671,127.760854 18.9054825,123.892669 21.9978928,119.647611 C22.8094759,118.533524 19.279579,115.143787 20.2204096,114.418674 C23.4337643,111.94209 29.8790094,114.55809 29.8790094,114.55809 C29.8790094,114.55809 37.8324758,107.562159 41.3956695,107.04723 C44.9575888,106.533569 45.6827165,102.812383 48.9477031,103.102824 C52.2101408,103.391996 58.7388395,106.846839 54.3867985,110.30295 C54.3867985,110.30295 55.1119263,110.636513 54.0235974,113.610672 C52.9352686,116.58483 41.3523402,120.455675 44.5943877,123.181248 C47.394222,125.535208 49.1630749,131.489867 44.3853878,130.177178 C39.6077007,128.86449 37.8910977,129.138442 37.8910977,129.138442 L25.7792976,138.164918 L20.2204096,136.474277 C20.2204096,136.474277 27.2512178,129.867714 25.7792976,129.182833 C24.3073775,128.497952 11.9559921,131.440403 11.9559921,131.440403 L6.97312818,130.106154 Z" id="Fill-314" fill="#000000"></path>
                <path d="M9.45887464,122.821647 C9.45887464,122.821647 10.1029364,122.901919 11.3810549,122.45503 C12.6616746,122.008141 16.2621671,120.666277 16.9962723,124.691871 C16.9962723,124.691871 11.9275693,128.909159 9.45887464,129.932332 C6.99017994,130.954305 5.25684109,130.709894 4.5890179,130.257015 C3.92244531,129.804135 6.05722844,122.548481 9.45887464,122.821647" id="Fill-318" fill="#DBCB32"></path>
                <path d="M25.746484,131.591108 C25.746484,131.591108 26.3892951,131.671381 27.6686642,131.224487 C28.949284,130.777593 32.5497764,129.435712 33.2838817,133.462553 C33.2838817,133.462553 28.2151787,137.678695 25.746484,138.70188 C23.2777892,139.723866 21.5444504,139.479452 20.8766272,139.026567 C20.2100546,138.573682 22.3448378,131.31794 25.746484,131.591108" id="Fill-320" fill="#DBCB32"></path>
                <path d="M19.5452474,71.766848 L19.5452474,137.54074 C19.5452474,137.54074 18.8958911,140.095016 22.6329757,139.244164 C26.3674313,138.393313 27.0194165,129.025339 27.0194165,129.025339 L27.0194165,71.766848 L19.5452474,71.766848 Z" id="Fill-322" fill="#000000"></path>
                <path d="M4.51056107,60.4917041 L4.51056107,126.264014 C4.51056107,126.264014 3.86109321,128.81995 7.59750546,127.96912 C11.3339177,127.116567 11.9847003,117.750541 11.9847003,117.750541 L11.9847003,60.4917041 L4.51056107,60.4917041 Z" id="Fill-324" fill="#000000"></path>
                <path d="M0.858813096,34.2947198 C0.520975533,44.8236474 0.858813096,72.5591384 0.858813096,72.5591384 C0.858813096,72.5591384 12.2843314,80.5198932 19.8197871,80.5198932 C27.3552427,80.5198932 28.0321927,81.5477429 27.6943551,72.5591384 C27.3552427,63.5705341 28.1771337,39.8480003 25.8266216,33.4433064 C23.4761096,27.0386125 22.2697632,22.5729428 10.0795639,23.343588 C4.15847166,23.6250574 1.08488805,27.2754347 0.858813096,34.2947198 Z" id="Fill-328" fill="#000000"></path>
                <path d="M8.22602119,19.1495094 L8.22602119,24.2823467 C8.22602119,24.2823467 9.92817328,30.1893121 16.9962723,26.9468217 L16.9962723,20.1271225 L8.22602119,19.1495094 Z" id="Fill-332" fill="#FFFFFF"></path>
                <path d="M15.4103752,1.61039654 C16.075192,2.32054527 21.1085635,4.54535289 21.9406949,12.3859648 C22.7713457,20.2253075 15.6212339,22.2206842 15.6212339,22.2206842 C15.6212339,22.2206842 10.7987212,25.3571828 5.4787064,18.2286614 C1.32394382,12.6650437 3.17106811,5.62241264 8.70411019,3.19023579 C10.2578891,2.50723629 11.1573393,1.45400212 13.125917,2.20401526 L15.4103752,1.61039654 Z" id="Fill-334" fill="#FCFCFC"></path>
                <path d="M4.51409891,69.2612605 C1.11070849,73.1653124 1.11070849,76.3215752 4.51409891,78.7300489 C7.91748928,81.1385232 10.8253208,81.1385232 13.2375933,78.7300489 L12.3699886,69.2612605 L4.51409891,69.2612605 Z" id="Path-15" fill="#000000"></path>
                <path d="M13.2843501,71.766848 C9.88095968,75.6709 9.88095968,78.8271632 13.2843501,81.2356367 C16.6877405,83.6441102 19.595572,83.6441102 22.0078445,81.2356367 L21.1402397,71.766848 L13.2843501,71.766848 Z" id="Path-15" fill="#000000"></path>
                <path d="M4.43335983,16.6439218 C1.70589168,12.4285946 1.23560592,8.52840138 3.02250257,4.94334227 C5.70284754,-0.434246385 12.859484,-0.0428632491 15.7977921,0.980007158 C17.7566642,1.66192076 19.4090506,3.28025874 20.7549515,5.83502107 C19.5392757,9.12625249 17.8868893,11.4277212 15.7977921,12.7394273 C13.7086949,14.0511333 9.92055085,15.3526314 4.43335983,16.6439218 Z" id="Path-13" fill="#793A78"></path>
                <path d="M16.7139184,14.6188451 C16.896957,14.2878785 17.1509553,12.3511429 15.2138571,14.4655815 C13.9224643,15.8769562 13.8533547,17.1036373 15.0065283,18.1456248 C15.4057784,18.1559048 15.4808636,16.6821874 15.7798505,15.9573554 C15.9110219,15.6393574 16.2223779,15.1931873 16.7139184,14.6188451 Z" id="Fill-338" fill="#98B3C5" transform="translate(15.513936, 15.818537) rotate(-29.000000) translate(-15.513936, -15.818537) "></path>
                <path d="M19.0003353,3.64863278 C19.9296758,3.20530169 25.0464242,2.74621094 24.0261574,4.94688633 C23.3459795,6.41400327 20.4671855,8.78147952 15.3897754,12.0493151 C17.647684,8.75181218 18.7766383,6.74137989 18.7766383,6.01801819 C18.7766383,5.29465649 18.4501409,4.66986719 17.7971461,4.14365028 C17.9797118,4.10919266 18.380775,3.94418683 19.0003353,3.64863278 Z" id="Path-14" fill="#793A78"></path>
            </g>
            <g id="Group-54" transform="translate(113.402842, 172.005499)" fill-rule="nonzero">
                <ellipse id="Oval-2" fill="#793A78" transform="translate(21.745240, 11.057267) rotate(-11.000000) translate(-21.745240, -11.057267) " cx="21.7452401" cy="11.0572668" rx="1" ry="1.4422722"></ellipse>
                <path d="M6.82574312,119.699713 C11.8426815,117.339935 20.1965541,114.48913 23.2140832,110.745408 C24.7067257,108.893549 22.093021,106.555362 23.2140832,105.633174 C24.2336015,104.794516 28.1007679,106.802212 28.1007679,106.802212 C28.1007679,106.802212 35.279331,100.462984 38.4958794,99.9951568 C41.7124279,99.5296292 42.3670116,96.1582861 45.3132136,96.4203613 C48.2594155,96.6835854 54.1518194,99.8146929 50.2231667,102.9458 C50.2231667,102.9458 50.8777503,103.248106 49.89645,105.94472 C48.9139993,108.640185 38.4579158,112.148313 41.3845608,114.618485 C43.9120132,116.750719 45.5087833,122.147396 41.1958935,120.958862 C36.8818531,119.76803 35.3334002,120.016311 35.3334002,120.016311 L24.3998965,128.196962 L19.3806543,126.665891 C19.3806543,126.665891 25.7286209,120.678396 24.3998965,120.056542 C23.071172,119.435838 8.76302092,120.5858 8.76302092,120.5858 L6.82574312,119.699713 Z" id="Fill-344" fill="#000000"></path>
                <path d="M5.64590029,23.4311947 C5.64590029,23.4311947 -4.35462041,43.2155623 2.43625428,48.1260211 C9.22597856,53.0387789 10.4615197,42.7994606 10.4615197,42.7994606 L5.64590029,23.4311947 Z" id="Fill-346" fill="#9ECCC7"></path>
                <path d="M11.3207662,112.059661 C12.3083421,111.02225 16.4328973,111.603685 17.1081884,115.466993 C15.406652,118.593487 12.3477332,119.290318 10.0768223,120.2708 C7.80591149,121.251283 6.2640664,119.998441 5.72702486,118.032593 C5.18998331,116.066745 6.94655469,113.186728 10.0768223,113.448803 C10.0768223,113.448803 10.3331902,113.09707 11.3207662,112.059661 Z" id="Fill-348" fill="#793A78"></path>
                <path d="M22.9707266,122.053843 C22.9707266,122.053843 23.5620377,122.132006 24.7389079,121.702111 C25.9157781,121.273365 29.1561564,120.784502 29.8302971,124.64781 C29.8302971,124.64781 25.2416374,127.895358 22.9707266,128.87699 C20.6998157,129.856323 19.1053464,129.621835 18.4910271,129.187342 C18.1797326,128.967171 17.0363326,125.632134 17.8653453,123.849287 C18.672335,122.113801 21.353857,122.723092 22.8979219,122.852366" id="Fill-350" fill="#793A78"></path>
                <path d="M18.4051807,84.3723442 L18.4051807,122.891801 C18.4051807,122.891801 18.0074392,125.564836 20.2964655,125.066549 C22.5846866,124.568261 22.9832331,121.906473 22.9832331,121.906473 L22.9832331,84.3723442 L18.4051807,84.3723442 Z" id="Fill-354" fill="#FFFFFF"></path>
                <path d="M14.5964648,60.5745921 L14.5964648,85.8337124 C14.5964648,85.8337124 13.61695,86.8146294 19.2521343,86.4878778 C24.8873185,86.1611254 25.8688161,82.5642084 25.8688161,82.5642084 L25.8688161,60.5745921 L14.5964648,60.5745921 Z" id="Fill-352" fill="#DBCB32"></path>
                <path d="M7.21683618,72.8561832 L7.21683618,115.114938 C7.21683618,115.114938 6.81909473,116.756022 9.10812095,116.209363 C11.396342,115.662704 11.7948887,114.145246 11.7948887,114.145246 L11.7948887,72.8561832 L7.21683618,72.8561832 Z" id="Fill-354" fill="#FFFFFF"></path>
                <path d="M4.97781,52.8825804 L4.97781,82.1393195 C4.97781,82.1393195 3.99846357,83.2754813 9.63466179,82.8970159 C15.2688775,82.5185513 16.2502064,78.3516028 16.2502064,78.3516028 L16.2502064,52.8825804 L4.97781,52.8825804 Z" id="Fill-354" fill="#DBCB32"></path>
                <path d="M11.6228076,22.8284112 C9.02057846,22.9915916 2.37758333,22.9915916 2.37758333,30.5975582 C2.37758333,38.2035247 2.37758333,64.9453018 2.37758333,64.9453018 C2.37758333,64.9453018 11.5440562,72.0913893 19.4876425,72.0913893 C27.4323791,72.0913893 30.7915786,72.7831702 30.4867197,64.7144189 C30.2827136,59.33583 29.3595025,47.3309748 27.7170865,28.699853 C22.7406754,23.1148574 16.5857274,20.5529532 9.25224232,21.0141405 L11.6228076,22.8284112 Z" id="Fill-358" fill="#003E7D"></path>
                <path d="M26.2290353,26.9220409 C29.7653979,28.3611548 28.5936793,32.6274598 28.5936793,34.4608357 C28.5936793,36.2930622 29.7072918,53.0633996 29.7072918,53.0633996 C29.7072918,53.0633996 37.7636182,65.1602323 37.8936147,66.8614213 C38.0247615,68.5626102 35.2913855,70.5143797 32.9353444,70.5143797 C30.5770023,70.5143797 24.7306148,59.0359522 23.8137375,54.9381558 C23.2437551,52.3900212 21.8056104,40.0665277 22.9565024,33.0065879 C23.6569428,28.7098631 24.8915093,26.3775609 26.2290353,26.9220409 Z" id="Fill-255" fill="#FCFCFC"></path>
                <path d="M33.967718,70.233906 C33.967718,70.233906 35.5173213,74.0328448 39.7404792,74.0328448 C43.9636371,74.0328448 40.9714187,68.9580143 40.252412,68.8143328 C39.5334053,68.6706513 39.1020012,68.8143328 39.1020012,68.8143328 C39.1020012,68.8143328 37.3039092,67.3051023 36.4411012,67.3051023 C35.5782931,67.3051023 33.0450886,68.7649063 33.967718,70.233906" id="Fill-251" fill="#ECE8F4"></path>
                <path d="M12.1833395,19.2970756 L12.1833395,23.298318 C12.1833395,23.298318 13.6386091,27.9030226 19.6863185,25.3753777 L19.6863185,20.0580129 L12.1833395,19.2970756 Z" id="Fill-362" fill="#ECE8F4"></path>
                <path d="M18.7060534,2.39760263 C18.7060534,2.39760263 23.4860102,6.27010638 24.132541,13.3702713 C24.7779214,20.4704362 19.2225879,22.2773747 19.2225879,22.2773747 C19.2225879,22.2773747 15.4757,25.1176706 11.3422742,18.6623483 C7.20769792,12.2081753 11.7299626,-0.700170469 18.7060534,2.39760263" id="Fill-364" fill="#FCFCFC"></path>
                <path d="M2.71658473,11.5451222 C2.71658473,16.6797237 4.76411991,21.1724322 8.85919028,25.0232476 L19.8902974,24.07306 C19.2294941,18.283416 18.9393567,14.9062074 19.0198854,13.941434 C19.1395282,12.494274 18.7849758,9.11854653 18.44489,7.72797805 C18.3758056,7.44550061 18.4581494,7.23534624 18.6403384,7.07675317 C18.8110448,6.92815545 19.3413482,7.64943597 19.6449354,7.57429333 C19.9876504,7.48946591 19.8774693,6.822755 20.2303313,6.65155076 C20.451391,6.54429536 20.7562445,7.10704315 21.0316206,7.07675317 C21.5574826,7.01891097 22.0625638,6.43048199 22.2799137,6.33740963 C23.1243152,5.97648171 21.2786476,3.87320445 19.8902974,2.4461758 C17.6094043,0.101738739 11.1108226,-0.359362829 6.71383442,2.4461758 C3.84188121,4.2786519 2.71658473,8.5422439 2.71658473,11.5451222 Z" id="Fill-366" fill="#793A78"></path>
                <path d="M20.6929356,14.0259774 C20.6929356,14.0259774 18.5520212,10.1868077 16.8632182,12.0466211 C15.1732648,13.9064344 19.27678,18.1260726 19.27678,18.1260726 L20.6929356,14.0259774 Z" id="Fill-368" fill="#FCFCFC"></path>
            </g>
            <g id="Group-61" transform="translate(426.937380, 287.488937)" fill-rule="nonzero">
                <ellipse id="Oval-2" fill="#793A78" transform="translate(30.349364, 12.980270) rotate(-11.000000) translate(-30.349364, -12.980270) " cx="30.3493636" cy="12.9802697" rx="1" ry="1.4422722"></ellipse>
                <path d="M10.3763023,113.898503 C20.1302317,108.078534 31.0372753,96.0019842 31.0372753,96.0019842 C31.0372753,96.0019842 38.2049429,87.9453147 41.4244192,87.3576979 C44.643903,86.7730101 45.2882988,82.4801046 48.2394556,82.8215773 C51.1906162,83.1645135 57.1015107,87.1683416 53.1777076,91.1467466 C53.1777076,91.1467466 53.8341955,91.5335341 52.8604083,94.9660883 C51.8854653,98.3971745 41.4264062,102.83895 44.3652469,105.993166 C46.9032284,108.715864 48.51998,115.594578 44.1971875,114.069394 C39.8732353,112.54128 38.3234489,112.853546 38.3234489,112.853546 L27.4016863,123.246199 L22.370433,121.282845 C22.370433,121.282845 28.7075082,113.672081 27.3748913,112.87649 C26.0422782,112.082365 14.8857921,115.451989 14.8857921,115.451989 L10.3763023,113.898503 Z" id="Fill-344" fill="#000000" transform="translate(32.428490, 103.024233) rotate(-20.000000) translate(-32.428490, -103.024233) "></path>
                <path d="M14.2500238,25.3541976 C14.2500238,25.3541976 4.24950307,45.1385652 11.0403778,50.049024 C17.8301021,54.9617818 19.0656432,44.7224635 19.0656432,44.7224635 L14.2500238,25.3541976 Z" id="Fill-346" fill="#9ECCC7"></path>
                <path d="M18.6809459,115.371806 C18.6809459,115.371806 19.2722569,115.449968 20.4491272,115.020073 C21.6271478,114.591327 24.9391804,113.303941 25.6144715,117.16725 C25.6144715,117.16725 20.9518566,121.21332 18.6809459,122.193803 C16.410035,123.174286 14.8155657,122.939797 14.2012464,122.505304 C13.5880774,122.070812 15.5506781,115.109731 18.6809459,115.371806" id="Fill-348" fill="#793A78"></path>
                <path d="M33.498572,116.284834 C33.498572,116.284834 34.0898831,116.362997 35.2667533,115.933102 C36.4436235,115.504356 39.7568065,114.21697 40.4309472,118.080278 C40.4309472,118.080278 35.7694828,122.126349 33.498572,123.107981 C31.2276611,124.087315 29.6331919,123.852826 29.0188725,123.418333 C28.4045531,122.98384 30.3683043,116.02276 33.498572,116.284834" id="Fill-350" fill="#793A78"></path>
                <path d="M28.9606942,77.8816186 L28.9606942,121.776891 C28.9606942,121.776891 28.1473808,123.481528 32.8264023,122.913699 C37.5054237,122.345869 38.3203833,116.09515 38.3203833,116.09515 L38.3203833,77.8816186 L28.9606942,77.8816186 Z" id="Fill-352" fill="#F4F5F9"></path>
                <path d="M13.9248683,77.3579341 L13.9248683,121.253207 C13.9248683,121.253207 13.1116947,122.957844 17.7915581,122.390014 C22.4697754,121.822185 23.284595,115.570316 23.284595,115.570316 L23.284595,77.3579341 L13.9248683,77.3579341 Z" id="Fill-354" fill="#F4F5F9"></path>
                <path d="M15.6963351,27.4429158 C13.0601977,30.1450003 12.139518,34.566946 11.8335087,46.1520702 C11.5286498,57.7350666 10.9817068,76.7905414 10.9817068,76.7905414 C10.9817068,76.7905414 17.1021677,83.2146164 25.045754,83.2146164 C32.9904907,83.2146164 39.0908432,78.4992858 39.0908432,76.5075622 C39.0908432,74.5158386 37.3515151,43.4499865 37.6379674,36.669125 C37.9244197,29.8882636 32.0924364,23.2344761 21.0922087,24.0823497 L15.6963351,27.4429158 Z" id="Fill-358" fill="#F5FFFF"></path>
                <path d="M20.787463,21.2200785 L20.787463,25.2213209 C20.787463,25.2213209 22.2427326,29.8260255 28.2904419,27.2983806 L28.2904419,21.9810158 L20.787463,21.2200785 Z" id="Fill-362" fill="#ECE8F4"></path>
                <path d="M5.62675219,32.0285102 C5.62675219,32.0285102 7.62543166,28.0986771 11.1741474,29.5307429 C14.7240191,30.9628063 14.0585405,34.6287894 14.0546242,36.4628066 C14.0507104,38.2956739 13.0951534,54.3978886 13.0951534,54.3978886 C13.0951534,54.3978886 21.1634181,66.4817439 21.2903902,68.1832502 C21.4185181,69.884754 18.6681553,71.8430448 16.3010658,71.8480774 C13.9316649,71.8531149 8.08238128,60.3831606 7.16995779,56.2858894 C6.25753676,52.1874684 5.62675219,32.0285102 5.62675219,32.0285102" id="Fill-255" fill="#F5FFFF" transform="translate(13.460728, 50.532380) rotate(16.000000) translate(-13.460728, -50.532380) "></path>
                <path d="M28.7299877,31.8953964 C28.7299877,31.8953964 30.6070902,27.9658997 33.9388425,29.3983999 C37.2716799,30.8308978 36.6463732,34.4967232 36.6424562,36.3307043 C36.6385417,38.1635356 35.7392495,54.265314 35.7392495,54.265314 C35.7392495,54.265314 43.313077,66.3499857 43.4320704,68.0514755 C43.5521489,69.7529631 40.9695381,71.7108578 38.7470436,71.7155821 C36.5223788,71.720311 31.0319037,60.2498173 30.1757523,56.1525066 C29.3196033,52.0540462 28.7299877,31.8953964 28.7299877,31.8953964" id="Fill-255" fill="#F5FFFF" transform="translate(36.083047, 50.399864) scale(-1, 1) rotate(16.000000) translate(-36.083047, -50.399864) "></path>
                <path d="M35.0296099,14.9254654 C35.6294769,20.9640983 30.9593537,23.0300573 29.1761017,23.8073412 C28.7684641,23.9850223 28.448932,24.6494276 28.448932,24.6494276 C28.0962667,24.7232096 27.4114067,24.1372113 27.2344852,23.6949692 C26.9949858,24.2403253 27.2561143,24.9293429 26.6949765,25.0163773 C24.3876369,25.3742536 19.6865903,23.5358403 17.5006072,20.7616455 C16.5158955,19.5119643 15.6407,17.724648 15.420304,15.0360143 C15.3842921,14.5967015 14.6435443,16.6423829 14.560063,16.1524358 C13.5495811,10.2219738 17.1272152,2.96538378 23.5592578,3.81895474 C27.9699318,-0.054610203 34.2912809,7.50645018 35.0296099,14.9254654 Z" id="Fill-364" fill="#793A78" transform="translate(24.736598, 13.915287) rotate(13.000000) translate(-24.736598, -13.915287) "></path>
            </g>
        </g>
    </g>
</svg>