<?xml version="1.0" encoding="UTF-8"?>
<svg width="125px" height="102px" viewBox="0 0 125 102" version="1.1" xmlns="http://www.w3.org/2000/svg" xmlns:xlink="http://www.w3.org/1999/xlink">
    <!-- Generator: Sketch 54.1 (76490) - https://sketchapp.com -->
    <title>Group 84</title>
    <desc>Created with Sketch.</desc>
    <g id="Welcome" stroke="none" stroke-width="1" fill="none" fill-rule="evenodd">
        <g id="Group-84">
            <g id="Group-83">
                <g id="Group-79" transform="translate(0.000000, 11.000000)">
                    <g id="floor" transform="translate(0.000000, 45.000000)">
                        <path d="M66.1275175,0.971622222 C64.0783492,0.418344444 60.9670329,0.273955556 58.799992,0.971622222 L1.51135881,19.1518444 C-0.504131682,21.1400667 -0.504131682,24.3920111 1.51135881,26.3802333 L58.799992,44.5604556 C61.3064021,45.5916222 63.9423424,45.6631778 66.1275175,44.5604556 L123.416151,26.3802333 C125.431641,24.3920111 125.431641,21.1400667 123.416151,19.1518444 L66.1275175,0.971622222 Z" id="Fill-1" fill="#ECE8F4"></path>
                        <path d="M66.1661442,42.0605155 C63.9795487,43.1689039 61.3418951,43.098265 58.8338558,42.0605155 L1.50798489,23.7868764 C0.738075168,23.0239763 0.266278636,22.7137354 0.0848184319,21.7222222 C-0.209406328,23.3276516 0.261094059,25.0473875 1.50798489,26.2829259 L58.8338558,44.556565 C61.3418951,45.5930302 63.9795487,45.6649535 66.1661442,44.556565 L123.492015,26.2829259 C124.738906,25.0473875 125.209406,23.3276516 124.915182,21.7222222 C124.733721,22.7137354 124.261925,23.0239763 123.492015,23.7868764 L66.1661442,42.0605155 Z" id="Fill-4" fill="#98B3C5"></path>
                    </g>
                    <path d="M110.531878,22.0009393 C108.560723,21.9544782 107.012236,23.6388461 107.00008,25.4564723 C106.987207,27.3916149 108.522295,28.9898073 110.491488,28.9999512 C112.498726,29.0103344 113.97964,27.3619966 113.999788,25.5448009 C114.021036,23.6295156 112.442734,21.9882594 110.531878,22.0009393 M108.640091,37 C108.471075,36.8620668 108.310023,36.7338103 108.276859,36.4762586 C108.164426,35.6024086 108.037376,34.7304721 107.899952,33.8605583 C107.884654,33.7637372 107.783747,33.6477815 107.694105,33.6037173 C107.387665,33.4531006 107.062364,33.3441427 106.756763,33.19205 C106.594034,33.1110832 106.485426,33.1099898 106.336633,33.2313579 C105.71118,33.7415411 105.075091,34.23751 104.439264,34.7336429 C104.171542,34.9425381 103.92792,34.9737549 103.724378,34.7656797 C102.902194,33.9253426 102.084148,33.0798118 101.291251,32.2096794 C100.991098,31.8803456 101.012788,31.6427485 101.275533,31.2807764 C101.728565,30.6567697 102.191342,30.0404168 102.655743,29.4255947 C102.753139,29.2966274 102.765451,29.1971275 102.691317,29.0399504 C102.526544,28.6904432 102.375551,28.330166 102.260185,27.9603214 C102.195376,27.7523556 102.095569,27.6751065 101.901353,27.6479354 C101.14162,27.5414923 100.384139,27.4166253 99.6241959,27.3118224 C99.3427995,27.2730065 99.1300364,27.1526225 99,26.8859955 L99,23.0590748 C99.1403052,22.7550533 99.3914191,22.6631525 99.6944533,22.6205644 C100.471371,22.5114425 101.245513,22.3809992 102.019549,22.2511025 C102.089649,22.2393484 102.185421,22.1854435 102.210674,22.1245955 C102.396194,21.6775018 102.566781,21.223629 102.753768,20.7418197 C102.257827,20.0864322 101.750936,19.4139329 101.241164,18.7438938 C100.951909,18.3636619 100.935563,18.1817191 101.230267,17.8021433 C101.504538,17.4489185 101.790178,17.1015981 102.100704,16.7835264 C102.598164,16.2738352 103.105317,15.7717979 103.637565,15.3026174 C103.97523,15.0049377 104.155301,15.0379585 104.499358,15.3156836 C105.106683,15.8059121 105.717781,16.2911657 106.318715,16.7897588 C106.454777,16.9026529 106.558722,16.9133683 106.711759,16.8326203 C106.967535,16.697694 107.227765,16.5491001 107.502979,16.4834411 C107.83069,16.4052626 107.878052,16.1985542 107.915774,15.9045374 C108.019877,15.0944876 108.148446,14.2874447 108.284927,13.4824793 C108.344339,13.1322067 108.517913,13.0019821 108.849868,13.0014354 C109.941241,12.9996859 111.032563,12.9992485 112.123831,13.0017634 C112.485492,13.0025834 112.668759,13.176763 112.721098,13.5466075 C112.844638,14.4188721 112.965244,15.2916833 113.101724,16.1617611 C113.115923,16.2522951 113.213214,16.3602689 113.298036,16.4014903 C113.613383,16.5545125 113.944027,16.6730377 114.25995,16.8248571 C114.416759,16.9001381 114.523166,16.8806208 114.659175,16.7709522 C115.294374,16.2590195 115.939579,15.7605358 116.580749,15.2566397 C116.839722,15.0531569 117.1021,15.034733 117.314759,15.2565303 C118.104146,16.0799197 118.892485,16.9049491 119.659711,17.7506439 C120.006492,18.1329532 119.996904,18.3393336 119.693346,18.7604042 C119.252888,19.3714541 118.804886,19.9768729 118.347663,20.5743099 C118.235754,20.7204983 118.244713,20.8244812 118.31738,20.9834624 C118.478223,21.3353204 118.624396,21.6964724 118.747569,22.0644035 C118.805358,22.2369976 118.887875,22.3041874 119.053852,22.328789 C119.804103,22.4400431 120.551891,22.5702677 121.302613,22.6780229 C121.602294,22.7210484 121.85938,22.8078648 122,23.1137451 L122,26.9406658 C121.858595,27.2426098 121.607114,27.3348386 121.305809,27.3777548 C120.529205,27.4884074 119.754645,27.6157346 118.981708,27.7513716 C118.896729,27.7662965 118.795508,27.8626256 118.756424,27.9483486 C118.607107,28.2758784 118.49567,28.6227614 118.338651,28.9458082 C118.250528,29.1270402 118.259592,29.2485176 118.379569,29.4048746 C118.859216,30.0301388 119.327547,30.6649702 119.799649,31.2965762 C120.022314,31.5944746 120.048091,31.8304863 119.850155,32.0884754 C119.122642,33.0367863 118.315651,33.9056613 117.401205,34.6594007 C117.013401,34.9791126 116.825472,34.9624928 116.426036,34.6382433 C115.840715,34.1631584 115.253875,33.689987 114.674579,33.2069749 C114.549257,33.1024453 114.456786,33.0851149 114.306945,33.1641681 C114.028169,33.3112859 113.740695,33.4567089 113.440699,33.538769 C113.172034,33.6122458 113.122786,33.7812317 113.089465,34.021289 C112.977294,34.8303 112.846733,35.6365228 112.730109,36.4448778 C112.693435,36.698876 112.576759,36.8827869 112.359909,37 L108.640091,37 Z" id="Fill-1-Copy-10" fill="#3498D6" transform="translate(110.500000, 25.000000) scale(1, -1) translate(-110.500000, -25.000000) "></path>
                    <path d="M104.928905,53.8017293 C104.525207,53.8017293 104.122318,53.8420689 103.726705,53.9224775 C103.428378,52.4266624 102.46387,51.1506846 101.109677,50.4600378 C99.7557539,49.7693908 98.1611752,49.740422 96.7829978,50.3812536 C95.5357931,46.9299141 91.7397416,45.1479312 88.3042693,46.4008963 C84.8687969,47.6538615 83.0950067,51.4677162 84.3422114,54.9187851 C81.3328044,55.0143548 78.9556236,57.5167655 79.0006286,60.5411547 C79.0459031,63.5658148 81.4969245,65.9951268 84.5079484,66 L104.928905,66 C108.281643,66 111,63.2693591 111,59.9008646 C111,56.5323703 108.281643,53.8017293 104.928905,53.8017293 Z" id="Path-Copy-4" fill="#9ECCC7"></path>
                    <path d="M30,10.2037961 C29.794554,10.3256094 29.5920788,10.4528964 29.3822696,10.5664527 C29.3027091,10.6095002 29.2074595,10.626849 29.1172229,10.6461462 C26.6283838,11.1781167 25.1612972,12.7226309 24.6142149,15.1804199 C24.5975044,15.2555675 24.5738313,15.3293234 24.5594417,15.4049348 C24.4961276,15.7361407 24.3531602,16.0101046 23.9707689,15.9997138 C23.5885633,15.9893231 23.4883933,15.696897 23.4044696,15.3751541 C23.1385874,14.3570439 22.8181177,13.3577669 22.1505343,12.5153721 C21.3311642,11.4813974 20.1754494,11.0209562 18.9596697,10.6675772 C18.7674065,10.611634 18.5428363,10.607923 18.3868719,10.5015103 C18.2155896,10.3845214 17.9892555,10.1684489 18.0003958,10.0107319 C18.013857,9.82202799 18.2173534,9.56810346 18.4022827,9.48627612 C18.8075116,9.30675696 19.2558164,9.22678512 19.681655,9.09068454 C21.3739616,8.54952935 22.5159367,7.44792183 23.0582843,5.7468038 C23.1939176,5.32133874 23.2745921,4.87332942 23.4558079,4.46929533 C23.5446519,4.27112844 23.7846328,4.06711674 23.9939779,4.01377125 C24.2906816,3.93825259 24.4471102,4.18503346 24.5277846,4.46808926 C24.671309,4.97157789 24.8147406,5.47655092 24.9919644,5.96881381 C25.5270709,7.45460162 26.5479879,8.46547542 28.035684,8.99679648 C28.4416557,9.14189621 28.8635951,9.2422785 29.2687312,9.38923372 C29.5217092,9.48089519 29.7568626,9.62135618 30,9.73992232 L30,10.2037961 Z" id="Fill-1-Copy-11" fill="#923990"></path>
                    <path d="M15.0364323,42.0010735 C12.783684,41.9479751 11.0139839,43.8729669 11.0000919,45.9502541 C10.9853795,48.1618456 12.7397655,49.9883512 14.9902714,49.9999442 C17.2842583,50.0118107 18.9767319,48.1279961 18.9997576,46.0512011 C19.0240413,43.8623035 17.2202675,41.9865822 15.0364323,42.0010735 M17.1025057,59 L12.8974943,59 C12.7064328,58.8505724 12.5243736,58.7116279 12.4868838,58.4326135 C12.3597859,57.4859426 12.216164,56.5413447 12.0608155,55.5989382 C12.0435216,55.4940487 11.9294533,55.36843 11.8281185,55.3206937 C11.4817084,55.1575257 11.1139772,55.0394879 10.7685148,54.8747208 C10.5845604,54.7870069 10.4617859,54.7858223 10.2935854,54.9173044 C9.58655125,55.4700028 8.86749431,56.0073025 8.14873349,56.5447798 C7.84609112,56.771083 7.57069248,56.8049011 7.34060137,56.5794864 C6.4111754,55.6691212 5.48642825,54.7531295 4.59010934,53.810486 C4.25080638,53.4537077 4.27532574,53.1963108 4.57234169,52.8041745 C5.08446469,52.1281672 5.60760364,51.4604515 6.13257859,50.7943942 C6.24267882,50.6546797 6.25659681,50.5468881 6.17279271,50.3766129 C5.98652847,49.9979801 5.81584055,49.6076798 5.68542597,49.2070149 C5.61216401,48.9817186 5.49933941,48.898032 5.27979043,48.8685966 C4.42096128,48.7532833 3.56467882,48.6180108 2.70561276,48.5044743 C2.38751253,48.4624237 2.14699772,48.3320077 2,48.0431617 L2,43.8973311 C2.15860592,43.5679744 2.4424738,43.4684153 2.78503417,43.4222781 C3.66328929,43.3040627 4.53840547,43.1627491 5.41340319,43.0220277 C5.49264692,43.0092941 5.60091116,42.9508971 5.62945786,42.8849784 C5.8391754,42.400627 6.03201367,41.9089314 6.24338952,41.3869714 C5.68276082,40.6769682 5.10975399,39.9484273 4.53348975,39.2225516 C4.20650569,38.8106337 4.18802733,38.6135291 4.52117084,38.2023219 C4.8312164,37.8196617 5.1541139,37.443398 5.50514351,37.0988202 C6.06748975,36.5466548 6.64079271,36.002781 7.24246469,35.4945022 C7.62417312,35.1720158 7.82773121,35.2077884 8.21666515,35.5086572 C8.90320729,36.0397382 9.59401367,36.5654295 10.2733303,37.105572 C10.427139,37.227874 10.5446424,37.2394823 10.7176401,37.1520053 C11.006779,37.0058352 11.3009522,36.8448585 11.6120638,36.7737279 C11.9825194,36.6890345 12.0360592,36.4651004 12.0787016,36.1465821 C12.1963827,35.2690282 12.3417221,34.3947318 12.4960046,33.5226859 C12.5631663,33.1432239 12.7593804,33.0021472 13.1346333,33.001555 C14.3683599,32.9996597 15.6020273,32.9991859 16.8356355,33.0019103 C17.2444692,33.0027987 17.4516401,33.1914932 17.5108064,33.5921582 C17.6504601,34.5371114 17.7867973,35.482657 17.9410797,36.4252412 C17.9571298,36.5233197 18.0671116,36.6402913 18.1629977,36.6849479 C18.5194761,36.8507219 18.8932483,36.9791242 19.2503781,37.1435952 C19.4276401,37.2251496 19.5479271,37.2040059 19.7016765,37.0851982 C20.4197267,36.5306045 21.1490888,35.9905804 21.8738907,35.444693 C22.1666424,35.2242533 22.4632437,35.204294 22.7036401,35.4445745 C23.5959909,36.3365796 24.4871572,37.2303615 25.3544556,38.1465309 C25.7464692,38.5606993 25.735631,38.7842781 25.3924784,39.2404379 C24.8945695,39.9024086 24.3881321,40.558279 23.8712711,41.2055024 C23.7447654,41.3638732 23.7548929,41.4765213 23.8370387,41.6487509 C24.018861,42.0299305 24.1841002,42.4211784 24.3233394,42.8197704 C24.3886651,43.0067474 24.4819453,43.0795363 24.6695718,43.1061881 C25.5176811,43.2267133 26.3630068,43.36779 27.2116492,43.4845248 C27.5504191,43.5311358 27.8410387,43.6251869 28,43.9565572 L28,48.1023879 C27.8401503,48.4294939 27.5558679,48.5294085 27.215262,48.575901 C26.3373622,48.6957747 25.4617722,48.8337124 24.5880182,48.9806525 C24.4919544,48.9968213 24.3775308,49.1011777 24.3333485,49.1940443 C24.1645558,49.5488682 24.0385831,49.9246582 23.8610843,50.2746255 C23.761467,50.4709602 23.771713,50.6025607 23.9073394,50.7719475 C24.449549,51.449317 24.9789658,52.1370511 25.5126469,52.8212908 C25.7643554,53.1440142 25.7934943,53.3996935 25.5697403,53.6791817 C24.7473349,54.7065185 23.8350843,55.6477998 22.8013622,56.4643507 C22.3629749,56.8107053 22.150533,56.7927005 21.6989977,56.4414302 C21.0373303,55.9267549 20.3739453,55.4141526 19.7190888,54.8908895 C19.5774214,54.7776491 19.4728884,54.7588744 19.3035034,54.8445154 C18.9883645,55.003893 18.6633941,55.1614346 18.3242688,55.250333 C18.0205604,55.329933 17.9648884,55.513001 17.927221,55.7730631 C17.8004191,56.6494917 17.6528292,57.5228998 17.5209932,58.3986176 C17.4795353,58.6737824 17.3476401,58.8730191 17.1025057,59" id="Fill-1-Copy-12" fill="#4F586F" transform="translate(15.000000, 46.000000) scale(1, -1) translate(-15.000000, -46.000000) "></path>
                    <path d="M92.5227702,7.00067091 C91.1148025,6.96748446 90.0087399,8.17060433 90.0000574,9.46890881 C89.9908622,10.8511535 91.0873535,11.9927195 92.4939196,11.9999651 C93.9276614,12.0073817 94.9854574,10.8299976 94.9998485,9.53200066 C95.0150258,8.1639397 93.8876672,6.99161384 92.5227702,7.00067091 M94.0364465,19 L90.9635535,19 C90.8239317,18.8908029 90.6908884,18.7892665 90.663492,18.5853714 C90.5706128,17.8935735 90.4656583,17.2032904 90.3521344,16.5146087 C90.3394966,16.4379586 90.256139,16.3461604 90.1820866,16.3112762 C89.9289408,16.192038 89.6602141,16.1057796 89.4077608,15.9853729 C89.2733326,15.9212742 89.1836128,15.9204086 89.060697,16.0164917 C88.5440182,16.4203867 88.0185535,16.8130288 87.4933052,17.2058007 C87.2721435,17.371176 87.0708907,17.3958893 86.9027472,17.2311631 C86.2235513,16.5658962 85.5477745,15.8965177 84.8927722,15.2076629 C84.64482,14.9469402 84.662738,14.7588425 84.8797882,14.4722814 C85.2540319,13.978276 85.6363257,13.49033 86.0199613,13.0035958 C86.1004191,12.9014967 86.11059,12.8227259 86.0493485,12.6982941 C85.9132323,12.4216009 85.7884989,12.1363814 85.6931959,11.8435878 C85.6396583,11.6789482 85.5572096,11.6177926 85.3967699,11.5962822 C84.769164,11.5120147 84.1434191,11.4131617 83.5156401,11.3301927 C83.2831822,11.2994635 83.1074214,11.2041595 83,10.9930797 L83,7.96343424 C83.1159043,7.72275054 83.3233462,7.64999577 83.5736788,7.61628014 C84.2154806,7.52989196 84.8549886,7.42662433 85.49441,7.32378951 C85.5523189,7.31448417 85.6314351,7.27180945 85.6522961,7.22363808 C85.8055513,6.86968893 85.9464715,6.51037297 86.1009385,6.1289406 C85.6912483,5.61009217 85.2725125,5.07769689 84.8513964,4.54724925 C84.6124465,4.24623232 84.5989431,4.10219432 84.8423941,3.80169677 C85.0689658,3.52206049 85.3049294,3.24709852 85.561451,2.9952917 C85.9723964,2.5917862 86.3913485,2.19433999 86.8310319,1.82290545 C87.1099727,1.58724231 87.2587267,1.61338382 87.5429476,1.83324952 C88.0446515,2.22134711 88.5494715,2.60550616 89.0458952,3.00022569 C89.1582938,3.08960023 89.2441617,3.09808324 89.3705831,3.03415772 C89.581877,2.92734108 89.7968497,2.80970427 90.0242005,2.75772421 C90.294918,2.69583288 90.3340433,2.53218874 90.365205,2.2994254 C90.4512027,1.65813601 90.5574123,1.01922706 90.6701572,0.381962765 C90.7192369,0.10466364 90.8626241,0.0015691313 91.1368474,0.0011363248 C92.0384169,-0.000248655999 92.9399431,-0.000594901199 93.841426,0.0013960087 C94.1401891,0.00204521845 94.2915831,0.13993737 94.33482,0.432730967 C94.4368747,1.12327374 94.5365057,1.81424932 94.6492506,2.50306086 C94.6609795,2.57473362 94.7413508,2.6602129 94.8114214,2.69284651 C95.0719248,2.81398905 95.3450661,2.9078215 95.6060456,3.02801187 C95.7355831,3.08760932 95.8234852,3.07215813 95.9358405,2.98533715 C96.4605695,2.58005714 96.9935649,2.18542417 97.5232278,1.78650642 C97.7371617,1.62541584 97.9539089,1.61083026 98.1295831,1.78641986 C98.7816856,2.43826973 99.4329226,3.09141802 100.066718,3.7609264 C100.353189,4.06358798 100.345269,4.22697244 100.094503,4.56032 C99.7306469,5.04406783 99.3605581,5.52335775 98.9828519,5.99632869 C98.8904055,6.11206115 98.8978064,6.19438094 98.957836,6.32024108 C99.0907062,6.59879534 99.2114579,6.88470731 99.3132096,7.17598609 C99.3609476,7.3126231 99.4291139,7.36581502 99.5662255,7.38529131 C100.185998,7.47336743 100.803736,7.57646194 101.423897,7.6617681 C101.67146,7.69582998 101.883836,7.76455965 102,8.00671489 L102,11.0363604 C101.883187,11.2753994 101.675442,11.3484139 101.426538,11.3823892 C100.784995,11.4699892 100.145141,11.5707899 99.5066287,11.6781691 C99.4364282,11.6899848 99.3528109,11.7662453 99.3205239,11.8341093 C99.1971754,12.0934037 99.1051185,12.3680194 98.9754077,12.6237648 C98.9026105,12.7672401 98.9100979,12.8634098 99.0092096,12.9871924 C99.4054396,13.4821932 99.7923212,13.9847681 100.182319,14.4847895 C100.36626,14.7206257 100.387554,14.9074683 100.224041,15.1117097 C99.6230524,15.8624558 98.9564077,16.5503152 98.2009954,17.1470255 C97.8806355,17.4001308 97.7253895,17.3869735 97.3954214,17.1302759 C96.9118952,16.7541671 96.4271139,16.379573 95.9485649,15.9971885 C95.8450387,15.9144359 95.7686492,15.9007159 95.6448679,15.9632997 C95.414574,16.079768 95.1770957,16.1948945 94.9292733,16.2598588 C94.7073326,16.318028 94.6666492,16.4518084 94.639123,16.6418538 C94.5464601,17.2823208 94.4386059,17.9205806 94.3422642,18.5605283 C94.3119681,18.7616102 94.2155831,18.9072063 94.0364465,19" id="Fill-1-Copy-13" fill="#4EA098" transform="translate(92.500000, 9.500000) scale(1, -1) translate(-92.500000, -9.500000) "></path>
                    <polygon id="Fill-39-Copy-10" fill="#000000" transform="translate(14.850000, 22.850000) rotate(-270.000000) translate(-14.850000, -22.850000) " points="13 24.7 16.7 24.7 16.7 21 13 21"></polygon>
                </g>
                <polygon id="Fill-39-Copy-8" fill="#000000" transform="translate(110.850000, 56.850000) rotate(-270.000000) translate(-110.850000, -56.850000) " points="109 58.7 112.7 58.7 112.7 55 109 55"></polygon>
                <g id="Group-80" transform="translate(25.000000, 0.000000)">
                    <rect id="Rectangle" fill="#DBCB32" fill-rule="evenodd" x="17.578125" y="29.7576197" width="38.9648438" height="46.6153846"></rect>
                    <rect id="Rectangle-Copy-5" fill="#AEA016" fill-rule="evenodd" x="8.05664062" y="34.1552975" width="10.2539062" height="7.18287373"></rect>
                    <rect id="Rectangle-Copy-6" fill="#AEA016" fill-rule="evenodd" x="55.3710938" y="34.1552975" width="10.2539062" height="7.18287373"></rect>
                    <rect id="Rectangle-Copy-3" fill="#DBCB32" fill-rule="evenodd" x="58.8867187" y="29.7576197" width="10.2539062" height="51.4528302"></rect>
                    <rect id="Rectangle-Copy-4" fill="#DBCB32" fill-rule="evenodd" x="4.98046875" y="29.7576197" width="10.2539062" height="51.4528302"></rect>
                    <g id="Group-2" stroke-width="1" fill-rule="evenodd" transform="translate(26.513672, 44.709724)">
                        <rect id="Rectangle" fill="#FFFFFF" x="0" y="0" width="21.9726562" height="4.69085631" rx="2.34542816"></rect>
                        <rect id="Rectangle" stroke="#DBCB32" stroke-width="4" x="7.12695312" y="2" width="1" height="1"></rect>
                        <rect id="Rectangle-Copy-2" stroke="#DBCB32" stroke-width="4" x="18.1132812" y="2" width="1" height="1"></rect>
                        <rect id="Rectangle-Copy" stroke="#DBCB32" stroke-width="4" x="12.6933594" y="2" width="1" height="1"></rect>
                    </g>
                    <path d="M57.4220842,29.7576197 L16.9925504,29.7576197 C15.962586,29.7576197 15.0705226,29.0418519 14.8473635,28.0357685 L11.9176872,14.8427351 C11.77292,14.1916727 11.93142,13.5102616 12.3485557,12.9897553 C12.7656912,12.4698215 13.3962582,12.1669086 14.062874,12.1669086 L22.794683,12.1669086 L23.04073,10.9329247 C24.3070139,4.59809287 29.9117365,0 36.3678964,0 L38.0467382,0 C44.5028981,0 50.1070485,4.59809287 51.3733325,10.9329247 L51.6199518,12.1669086 L60.3517605,12.1669086 C61.0178043,12.1669086 61.6483713,12.4698215 62.0655068,12.9897553 C62.4826425,13.5102616 62.6411425,14.1916727 62.4963753,14.8427351 L59.566699,28.0357685 C59.3435399,29.0418519 58.4514763,29.7576197 57.4220842,29.7576197 Z" id="Path" fill="#793A78" fill-rule="nonzero"></path>
                    <path d="M40.3141304,14.8055153 L41.6902632,13.4283779 C42.5485581,12.5694565 42.5485581,11.1774311 41.6902632,10.3190822 C40.8325404,9.46016079 39.4409583,9.46016079 38.5832357,10.3190822 L37.2071027,11.695647 L35.8309699,10.3190822 C34.972675,9.46016079 33.581665,9.46016079 32.7233702,10.3190822 C31.8656474,11.1774311 31.8656474,12.5694565 32.7233702,13.4283779 L34.099503,14.8055153 L32.7233702,16.1826526 C31.8656474,17.041574 31.8656474,18.4335994 32.7233702,19.2919483 C33.1525176,19.7214089 33.7149869,19.9361393 34.277456,19.9361393 C34.8393532,19.9361393 35.4018225,19.7214089 35.8309699,19.2919483 L37.2071027,17.9148109 L38.5832357,19.2919483 C39.0118109,19.7214089 39.5742802,19.9361393 40.1367493,19.9361393 C40.6986465,19.9361393 41.2611158,19.7214089 41.6902632,19.2919483 C42.5479859,18.4330268 42.5479859,17.0410015 41.6902632,16.1826526 L40.3141304,14.8055153 Z" id="Path" fill="#FFFFFF" fill-rule="nonzero"></path>
                    <polygon id="Rectangle" fill="#4F586F" fill-rule="evenodd" points="17.578125 38.6995646 56.5429688 30.0507983 56.5429688 33.5964947 17.578125 42.5108853"></polygon>
                    <path d="M37.5,43.5370102 C33.4613801,43.5370102 30.1757812,40.2490589 30.1757812,36.2075472 L30.1757812,32.5428157 C30.1757812,31.3283008 31.159401,30.3439768 32.3730469,30.3439768 L42.6269531,30.3439768 C43.8400269,30.3439768 44.8242188,31.3283008 44.8242188,32.5428157 L44.8242188,36.2075472 C44.8242188,40.2490589 41.5386201,43.5370102 37.5,43.5370102 Z" id="Path" fill="#003E7D" fill-rule="nonzero"></path>
                    <g id="Group" stroke-width="1" fill-rule="evenodd" transform="translate(16.552734, 74.320755)">
                        <rect id="Rectangle" fill="#4F586F" x="0" y="0" width="40.8691406" height="10.701016" rx="5.35050798"></rect>
                        <ellipse id="Oval" fill="#98B3C5" cx="4.6875" cy="5.13062409" rx="3.22265625" ry="3.22496372"></ellipse>
                        <ellipse id="Oval-Copy" fill="#98B3C5" cx="12.5976562" cy="5.13062409" rx="3.22265625" ry="3.22496372"></ellipse>
                        <ellipse id="Oval-Copy-2" fill="#98B3C5" cx="20.5078125" cy="5.13062409" rx="3.22265625" ry="3.22496372"></ellipse>
                        <ellipse id="Oval-Copy-3" fill="#98B3C5" cx="28.4179688" cy="5.13062409" rx="3.22265625" ry="3.22496372"></ellipse>
                        <ellipse id="Oval-Copy-4" fill="#98B3C5" cx="36.328125" cy="5.13062409" rx="3.22265625" ry="3.22496372"></ellipse>
                    </g>
                </g>
                <polygon id="Fill-39-Copy-8" fill="#000000" transform="translate(98.850000, 52.850000) rotate(-270.000000) translate(-98.850000, -52.850000) " points="97 54.7 100.7 54.7 100.7 51 97 51"></polygon>
                <polygon id="Fill-39-Copy-9" fill="#000000" transform="translate(8.850000, 26.850000) rotate(-270.000000) translate(-8.850000, -26.850000) " points="7 28.7 10.7 28.7 10.7 25 7 25"></polygon>
            </g>
        </g>
    </g>
</svg>
