<?xml version="1.0" encoding="UTF-8"?>
<svg width="125px" height="99px" viewBox="0 0 125 99" version="1.1" xmlns="http://www.w3.org/2000/svg" xmlns:xlink="http://www.w3.org/1999/xlink">
    <!-- Generator: Sketch 54.1 (76490) - https://sketchapp.com -->
    <title>Group 82</title>
    <desc>Created with Sketch.</desc>
    <g id="Welcome" stroke="none" stroke-width="1" fill="none" fill-rule="evenodd">
        <g id="Group-82">
            <g id="Group-81">
                <polygon id="Fill-38" fill="#000000" transform="translate(99.150000, 15.850000) rotate(-270.000000) translate(-99.150000, -15.850000) " points="97.3 17.7 101 17.7 101 14 97.3 14"></polygon>
                <polygon id="Fill-39" fill="#000000" transform="translate(91.450000, 22.850000) rotate(-270.000000) translate(-91.450000, -22.850000) " points="89.6 24.7 93.3 24.7 93.3 21 89.6 21"></polygon>
                <polygon id="Fill-39-Copy-2" fill="#000000" transform="translate(15.850000, 29.850000) rotate(-270.000000) translate(-15.850000, -29.850000) " points="14 31.7 17.7 31.7 17.7 28 14 28"></polygon>
                <polygon id="Fill-40" fill="#000000" transform="translate(85.750000, 15.850000) rotate(-270.000000) translate(-85.750000, -15.850000) " points="83.9 17.7 87.6 17.7 87.6 14 83.9 14"></polygon>
                <polygon id="Fill-40-Copy-3" fill="#000000" transform="translate(31.850000, 8.850000) rotate(-270.000000) translate(-31.850000, -8.850000) " points="30 10.7 33.7 10.7 33.7 7 30 7"></polygon>
                <polygon id="Fill-40" fill="#000000" transform="translate(77.750000, 8.850000) rotate(-270.000000) translate(-77.750000, -8.850000) " points="75.9 10.7 79.6 10.7 79.6 7 75.9 7"></polygon>
                <g id="floor" transform="translate(0.000000, 53.000000)">
                    <path d="M66.1275175,0.971622222 C64.0783492,0.418344444 60.9670329,0.273955556 58.799992,0.971622222 L1.51135881,19.1518444 C-0.504131682,21.1400667 -0.504131682,24.3920111 1.51135881,26.3802333 L58.799992,44.5604556 C61.3064021,45.5916222 63.9423424,45.6631778 66.1275175,44.5604556 L123.416151,26.3802333 C125.431641,24.3920111 125.431641,21.1400667 123.416151,19.1518444 L66.1275175,0.971622222 Z" id="Fill-1" fill="#ECE8F4"></path>
                    <path d="M66.1661442,42.0605155 C63.9795487,43.1689039 61.3418951,43.098265 58.8338558,42.0605155 L1.50798489,23.7868764 C0.738075168,23.0239763 0.266278636,22.7137354 0.0848184319,21.7222222 C-0.209406328,23.3276516 0.261094059,25.0473875 1.50798489,26.2829259 L58.8338558,44.556565 C61.3418951,45.5930302 63.9795487,45.6649535 66.1661442,44.556565 L123.492015,26.2829259 C124.738906,25.0473875 125.209406,23.3276516 124.915182,21.7222222 C124.733721,22.7137354 124.261925,23.0239763 123.492015,23.7868764 L66.1661442,42.0605155 Z" id="Fill-4" fill="#98B3C5"></path>
                </g>
                <path d="M70.5500944,29.001476 C67.4525655,28.9284658 65.0192278,31.5753295 65.0001263,34.4315994 C64.9798967,37.4725377 67.3921776,39.9839829 70.4866232,39.9999233 C73.6408551,40.0162397 75.9680064,37.4259946 75.9996668,34.5704015 C76.0330568,31.5606673 73.5528678,28.9815505 70.5500944,29.001476 M73.9111617,52 L68.0888383,52 C67.8242916,51.7931003 67.5722096,51.6007155 67.5203007,51.2143879 C67.3443189,49.9036129 67.1454579,48.5957081 66.9303599,47.2908375 C66.9064146,47.1456058 66.7484738,46.9716723 66.608164,46.9055759 C66.1285194,46.6796509 65.6193531,46.5162141 65.1410205,46.2880749 C64.8863144,46.1666249 64.7163189,46.1649848 64.483426,46.3470368 C63.5044556,47.1123116 62.5088383,47.856265 61.513631,48.6004644 C61.0945877,48.9138072 60.7132665,48.9606323 60.3946788,48.6485196 C59.1077813,47.3880139 57.8273622,46.1197178 56.5863052,44.8145191 C56.1165011,44.3205184 56.150451,43.9641227 56.5617039,43.4211647 C57.2707973,42.4851546 57.9951435,41.5606252 58.7220319,40.638392 C58.8744784,40.4449412 58.8937494,40.2956913 58.777713,40.0599256 C58.5198087,39.5356648 58.2834715,38.995249 58.1028975,38.4404821 C58.0014579,38.1285334 57.8452392,38.0126597 57.5412483,37.971903 C56.3521002,37.8122384 55.1664784,37.624938 53.9770023,37.4677336 C53.5365558,37.4095097 53.2035353,37.2289337 53,36.8289932 L53,31.0886122 C53.2196082,30.63258 53.612656,30.4947288 54.0869704,30.4308466 C55.3030159,30.2671637 56.5147153,30.0714987 57.7262506,29.8766538 C57.8359727,29.8590226 57.985877,29.7781653 58.0254032,29.6868932 C58.3157813,29.0162527 58.5827882,28.3354435 58.8754624,27.6127296 C58.0992073,26.6296483 57.3058132,25.6208994 56.5079089,24.6158407 C56.0551617,24.0454928 56.0295763,23.7725787 56.4908519,23.2032149 C56.9201458,22.6733778 57.3672346,22.1523972 57.8532756,21.6752895 C58.6319089,20.9107528 59.425713,20.1576968 60.2587973,19.4539261 C60.7873166,19.0074065 61.0691663,19.0569378 61.6076902,19.4735254 C62.558287,20.2088682 63.5147882,20.9367485 64.4553804,21.6846381 C64.6683462,21.8539794 64.8310433,21.8700525 65.0705786,21.7489304 C65.4709248,21.546541 65.8782415,21.3236502 66.3090114,21.2251617 C66.8219499,21.1078939 66.896082,20.7978313 66.9551253,20.356806 C67.1180683,19.1417314 67.3193075,17.9311671 67.5329294,16.7237189 C67.6259226,16.1983101 67.8976036,16.0029731 68.4171845,16.002153 C70.1254214,15.9995289 71.8335763,15.9988728 73.5416492,16.0026451 C74.1077267,16.0038752 74.3945786,16.2651445 74.4765011,16.8199113 C74.6698679,18.1283081 74.8586424,19.437525 75.0722642,20.7426416 C75.0944875,20.8784426 75.2467699,21.0404034 75.3795353,21.1022355 C75.8731207,21.3317687 76.3906515,21.5095565 76.885139,21.7372856 C77.1305786,21.8502071 77.2971298,21.8209312 77.5100137,21.6564283 C78.5042369,20.8885293 79.514123,20.1408037 80.5176948,19.3849595 C80.9230433,19.0797353 81.3337221,19.0520994 81.6665786,19.3847955 C82.9021412,20.6198795 84.1360638,21.8574236 85.3369385,23.1259658 C85.8797267,23.6994299 85.8647198,24.0090004 85.3895854,24.6406063 C84.7001731,25.5571811 83.9989522,26.4653094 83.2832984,27.3614649 C83.1081367,27.5807474 83.1221595,27.7367218 83.2358998,27.9751936 C83.4876538,28.5029806 83.7164465,29.0447086 83.9092392,29.5966052 C83.9996902,29.8554964 84.1288474,29.9562811 84.3886378,29.9931835 C85.5629431,30.1600646 86.7333941,30.3554016 87.9084374,30.5170343 C88.3775034,30.5815726 88.7798998,30.7117972 89,31.1706177 L89,36.9109986 C88.7786697,37.3639147 88.3850478,37.5022579 87.9134396,37.5666321 C86.6978861,37.7326112 85.4855308,37.9236018 84.2757175,38.1270573 C84.1427062,38.1494448 83.9842733,38.2939384 83.9230979,38.4225229 C83.689385,38.9138175 83.5149613,39.4341421 83.2691936,39.9187122 C83.131262,40.1905603 83.1454487,40.3727764 83.3332392,40.6073119 C84.0839909,41.5452082 84.8170296,42.4974554 85.5559727,43.4448642 C85.904492,43.8917119 85.9448383,44.2457294 85.6350251,44.6327131 C84.4963098,46.0551795 83.2331936,47.358492 81.8018861,48.489101 C81.1948884,48.9686688 80.900738,48.9437392 80.2755353,48.4573649 C79.3593804,47.7447376 78.4408474,47.0349805 77.534123,46.3104624 C77.3379681,46.153668 77.1932301,46.1276723 76.958697,46.2462522 C76.5223508,46.4669288 76.0723918,46.6850633 75.6028337,46.8081534 C75.1823144,46.9183688 75.1052301,47.1718476 75.0530752,47.5319335 C74.8775034,48.74545 74.6731481,49.9547843 74.4906059,51.1673167 C74.4332027,51.548314 74.2505786,51.8241803 73.9111617,52" id="Fill-1-Copy-2" fill="#923990" transform="translate(71.000000, 34.000000) scale(1, -1) translate(-71.000000, -34.000000) "></path>
                <path d="M45.0273242,16.0008051 C43.337763,15.9609814 42.0104879,17.4047252 42.0000689,18.9626906 C41.9890346,20.6213842 43.3048241,21.9912634 44.9927036,21.9999582 C46.7131937,22.008858 47.9825489,20.5959971 47.9998182,19.0384008 C48.018031,17.3967276 46.6652006,15.9899366 45.0273242,16.0008051 M43.3826879,29 C43.2357175,28.8908029 43.095672,28.7892665 43.0668337,28.5853714 C42.9690661,27.8935735 42.8585877,27.2032904 42.7390888,26.5146087 C42.7257859,26.4379586 42.638041,26.3461604 42.5600911,26.3112762 C42.2936219,26.192038 42.0107517,26.1057796 41.7450114,25.9853729 C41.603508,25.9212742 41.5090661,25.9204086 41.3796811,26.0164917 C40.8358087,26.4203867 40.2826879,26.8130288 39.729795,27.2058007 C39.4969932,27.371176 39.2851481,27.3958893 39.1081549,27.2311631 C38.3932118,26.5658962 37.6818679,25.8965177 36.9923918,25.2076629 C36.7313895,24.9469402 36.7502506,24.7588425 36.9787244,24.4722814 C37.3726651,23.978276 37.7750797,23.49033 38.1789066,23.0035958 C38.2635991,22.9014967 38.2743052,22.8227259 38.2098405,22.6982941 C38.0665604,22.4216009 37.935262,22.1363814 37.8349431,21.8435878 C37.7785877,21.6789482 37.6917995,21.6177926 37.5229157,21.5962822 C36.8622779,21.5120147 36.2035991,21.4131617 35.542779,21.3301927 C35.2980866,21.2994635 35.1130752,21.2041595 35,20.9930797 L35,17.9634342 C35.1220046,17.7227505 35.3403645,17.6499958 35.6038724,17.6162801 C36.2794533,17.529892 36.9526196,17.4266243 37.6256948,17.3237895 C37.6866515,17.3144842 37.7699317,17.2718094 37.7918907,17.2236381 C37.9532118,16.8696889 38.101549,16.510373 38.2641458,16.1289406 C37.8328929,15.6100922 37.3921185,15.0776969 36.9488383,14.5472492 C36.6973121,14.2462323 36.6830979,14.1021943 36.9393622,13.8016968 C37.1778588,13.5220605 37.4262415,13.2470985 37.6962642,12.9952917 C38.1288383,12.5917862 38.5698405,12.19434 39.0326651,11.8229054 C39.326287,11.5872423 39.4828702,11.6133838 39.7820501,11.8332495 C40.3101595,12.2213471 40.841549,12.6055062 41.3641002,13.0002257 C41.4824146,13.0896002 41.5728018,13.0980832 41.705877,13.0341577 C41.9282916,12.9273411 42.1545786,12.8097043 42.3938952,12.7577242 C42.678861,12.6958329 42.7200456,12.5321887 42.7528474,12.2994254 C42.8433713,11.658136 42.9551708,11.0192271 43.0738497,10.3819628 C43.1255125,10.1046636 43.2764465,10.0015691 43.5651025,10.0011363 C44.514123,9.99975134 45.4630979,9.9994051 46.4120273,10.001396 C46.7265148,10.0020452 46.885877,10.1399374 46.9313895,10.432731 C47.0388155,11.1232737 47.1436902,11.8142493 47.262369,12.5030609 C47.2747153,12.5747336 47.3593166,12.6602129 47.4330752,12.6928465 C47.7072893,12.8139891 47.9948064,12.9078215 48.2695216,13.0280119 C48.405877,13.0876093 48.4984055,13.0721581 48.6166743,12.9853371 C49.1690205,12.5800571 49.7300683,12.1854242 50.2876082,11.7865064 C50.5128018,11.6254158 50.7409567,11.6108303 50.925877,11.7864199 C51.6123007,12.4382697 52.2978132,13.091418 52.9649658,13.7609264 C53.2665148,14.063588 53.2581777,14.2269724 52.9942141,14.56032 C52.6112073,15.0440678 52.2216401,15.5233577 51.8240547,15.9963287 C51.7267426,16.1120611 51.734533,16.1943809 51.7977221,16.3202411 C51.9375854,16.5987953 52.0646925,16.8847073 52.1717995,17.1759861 C52.2220501,17.3126231 52.2938041,17.365815 52.4381321,17.3852913 C53.0905239,17.4733674 53.7407745,17.5764619 54.3935763,17.6617681 C54.6541686,17.69583 54.8777221,17.7645596 55,18.0067149 L55,21.0363604 C54.8770387,21.2753994 54.6583599,21.3484139 54.3963554,21.3823892 C53.7210478,21.4699892 53.0475171,21.5707899 52.3753986,21.6781691 C52.3015034,21.6899848 52.2134852,21.7662453 52.1794989,21.8341093 C52.0496583,22.0934037 51.9527563,22.3680194 51.8162187,22.6237648 C51.73959,22.7672401 51.7474715,22.8634098 51.8517995,22.9871924 C52.2688838,23.4821932 52.6761276,23.9847681 53.0866515,24.4847895 C53.2802733,24.7206257 53.3026879,24.9074683 53.1305695,25.1117097 C52.4979499,25.8624558 51.7962187,26.5503152 51.0010478,27.1470255 C50.6638269,27.4001308 50.50041,27.3869735 50.1530752,27.1302759 C49.6441002,26.7541671 49.1338041,26.379573 48.6300683,25.9971885 C48.5210934,25.9144359 48.4406834,25.9007159 48.3103872,25.9632997 C48.0679727,26.079768 47.8179954,26.1948945 47.5571298,26.2598588 C47.323508,26.318028 47.2806834,26.4518084 47.2517084,26.6418538 C47.1541686,27.2823208 47.0406378,27.9205806 46.9392255,28.5605283 C46.9073349,28.7616102 46.805877,28.9072063 46.6173121,29 L43.3826879,29 Z" id="Fill-1-Copy-3" fill="#3498D6" transform="translate(45.000000, 19.500000) scale(1, -1) translate(-45.000000, -19.500000) "></path>
                <polygon id="Path-42" fill="#9ECCC7" points="94.1780612 43.1314757 100.547909 25.477806 113.009564 25.477806 113.009564 43.1314757"></polygon>
                <path d="M117.021489,39.6295718 L90.7618922,39.6295718 C82.7902365,44.5431906 78.8044086,47.0008647 78.8044086,47.0025941 C78.8044086,47.0043235 58.3432965,47.0043235 17.4210723,47.0025941 C15.7523331,65.0025941 19.1075218,74.0025941 27.4866384,74.0025941 C35.8657551,74.0025941 58.9161506,74.0025941 96.6378249,74.0025941 L117.021489,39.6295718 Z" id="Path-41" fill="#4EA098"></path>
                <g id="Group-2-Copy-2" transform="translate(69.000000, 56.000000) rotate(-270.000000) translate(-69.000000, -56.000000) translate(67.000000, 46.000000)" fill="#000000">
                    <polygon id="Fill-38" points="0 3.7 3.7 3.7 3.7 0 0 0"></polygon>
                    <polygon id="Fill-39" points="0 11.4 3.7 11.4 3.7 7.7 0 7.7"></polygon>
                    <polygon id="Fill-40" points="0 19.1 3.7 19.1 3.7 15.4 0 15.4"></polygon>
                </g>
                <path d="M73,6.20379613 C72.794554,6.3256094 72.5920788,6.45289637 72.3822696,6.56645268 C72.3027091,6.60950017 72.2074595,6.62684905 72.1172229,6.6461462 C69.6283838,7.17811668 68.1612972,8.72263092 67.6142149,11.1804199 C67.5975044,11.2555675 67.5738313,11.3293234 67.5594417,11.4049348 C67.4961276,11.7361407 67.3531602,12.0101046 66.9707689,11.9997138 C66.5885633,11.9893231 66.4883933,11.696897 66.4044696,11.3751541 C66.1385874,10.3570439 65.8181177,9.35776694 65.1505343,8.5153721 C64.3311642,7.48139738 63.1754494,7.02095623 61.9596697,6.66757717 C61.7674065,6.61163399 61.5428363,6.607923 61.3868719,6.50151034 C61.2155896,6.38452137 60.9892555,6.16844895 61.0003958,6.01073185 C61.013857,5.82202799 61.2173534,5.56810346 61.4022827,5.48627612 C61.8075116,5.30675696 62.2558164,5.22678512 62.681655,5.09068454 C64.3739616,4.54952935 65.5159367,3.44792183 66.0582843,1.7468038 C66.1939176,1.32133874 66.2745921,0.873329418 66.4558079,0.46929533 C66.5446519,0.271128439 66.7846328,0.0671167376 66.9939779,0.0137712495 C67.2906816,-0.0617474066 67.4471102,0.18503346 67.5277846,0.468089258 C67.671309,0.971577891 67.8147406,1.47655092 67.9919644,1.96881381 C68.5270709,3.45460162 69.5479879,4.46547542 71.035684,4.99679648 C71.4416557,5.14189621 71.8635951,5.2422785 72.2687312,5.38923372 C72.5217092,5.48089519 72.7568626,5.62135618 73,5.73992232 L73,6.20379613 Z" id="Fill-1" fill="#DBCB32"></path>
                <path d="M14,39.2037961 C13.794554,39.3256094 13.5920788,39.4528964 13.3822696,39.5664527 C13.3027091,39.6095002 13.2074595,39.626849 13.1172229,39.6461462 C10.6283838,40.1781167 9.1612972,41.7226309 8.61421491,44.1804199 C8.59750444,44.2555675 8.57383127,44.3293234 8.5594417,44.4049348 C8.49612758,44.7361407 8.35316021,45.0101046 7.97076891,44.9997138 C7.58856328,44.9893231 7.48839329,44.696897 7.40446959,44.3751541 C7.13858741,43.3570439 6.8181177,42.3577669 6.15053434,41.5153721 C5.33116421,40.4813974 4.1754494,40.0209562 2.95966974,39.6675772 C2.76740648,39.611634 2.5428363,39.607923 2.3868719,39.5015103 C2.21558956,39.3845214 1.9892555,39.1684489 2.00039582,39.0107319 C2.01385703,38.822028 2.21735344,38.5681035 2.40228267,38.4862761 C2.80751161,38.306757 3.25581643,38.2267851 3.68165496,38.0906845 C5.37396158,37.5495294 6.51593666,36.4479218 7.05828431,34.7468038 C7.19391764,34.3213387 7.27459209,33.8733294 7.45580787,33.4692953 C7.54465188,33.2711284 7.78463282,33.0671167 7.9939779,33.0137712 C8.29068161,32.9382526 8.4471102,33.1850335 8.52778464,33.4680893 C8.67130903,33.9715779 8.81474058,34.4765509 8.99196441,34.9688138 C9.52707086,36.4546016 10.5479879,37.4654754 12.035684,37.9967965 C12.4416557,38.1418962 12.8635951,38.2422785 13.2687312,38.3892337 C13.5217092,38.4808952 13.7568626,38.6213562 14,38.7399223 L14,39.2037961 Z" id="Fill-1-Copy-4" fill="#DBCB32"></path>
                <path d="M24.3952873,15.6810376 C24.1555918,15.6810376 23.9163763,15.7052413 23.6814811,15.7534865 C23.5043497,14.8559974 22.9316727,14.0904108 22.1276208,13.6760227 C21.3237289,13.2616345 20.3769478,13.2442532 19.558655,13.6287522 C18.8181271,11.5579484 16.5642216,10.4887587 14.5244099,11.2405378 C12.4845982,11.9923169 11.4314102,14.2806297 12.171938,16.3512711 C10.3851026,16.4086129 8.97365152,17.9100593 9.00037323,19.7246928 C9.02725495,21.5394889 10.4825489,22.9970761 12.2703444,23 L24.3952873,23 C26.3859758,23 28,21.3616155 28,19.3405188 C28,17.3194222 26.3859758,15.6810376 24.3952873,15.6810376 Z" id="Path-Copy" fill="#9ECCC7"></path>
                <polygon id="Rectangle" fill="#4EA098" points="22 27 30 23 30 48 22 48"></polygon>
                <path d="M40.0364323,37.0010735 C37.783684,36.9479751 36.0139839,38.8729669 36.0000919,40.9502541 C35.9853795,43.1618456 37.7397655,44.9883512 39.9902714,44.9999442 C42.2842583,45.0118107 43.9767319,43.1279961 43.9997576,41.0512011 C44.0240413,38.8623035 42.2202675,36.9865822 40.0364323,37.0010735 M41.9407745,53 L38.0592255,53 C37.882861,52.8620668 37.7148064,52.7338103 37.6802005,52.4762586 C37.5628793,51.6024086 37.4303052,50.7304721 37.2869066,49.8605583 C37.2709431,49.7637372 37.1656492,49.6477815 37.0721093,49.6037173 C36.7523462,49.4531006 36.4129021,49.3441427 36.0940137,49.19205 C35.9242096,49.1110832 35.8108793,49.1099898 35.6556173,49.2313579 C35.0029704,49.7415411 34.3392255,50.23751 33.675754,50.7336429 C33.3963918,50.9425381 33.1421777,50.9737549 32.9297859,50.7656797 C32.0718542,49.9253426 31.2182415,49.0798118 30.3908702,48.2096794 C30.0776674,47.8803456 30.1003007,47.6427485 30.3744692,47.2807764 C30.8471982,46.6567697 31.3300957,46.0404168 31.8146879,45.4255947 C31.9163189,45.2966274 31.9291663,45.1971275 31.8518087,45.0399504 C31.6798724,44.6904432 31.5223144,44.330166 31.4019317,43.9603214 C31.3343052,43.7523556 31.2301595,43.6751065 31.0274989,43.6479354 C30.2347335,43.5414923 29.4443189,43.4166253 28.6513349,43.3118224 C28.3577039,43.2730065 28.1356902,43.1526225 28,42.8859955 L28,39.0590748 C28.1464055,38.7550533 28.4084374,38.6631525 28.7246469,38.6205644 C29.535344,38.5114425 30.3431435,38.3809992 31.1508337,38.2511025 C31.2239818,38.2393484 31.323918,38.1854435 31.3502688,38.1245955 C31.5438542,37.6775018 31.7218588,37.223629 31.9169749,36.7418197 C31.3994715,36.0864322 30.8705421,35.4139329 30.3386059,34.7438938 C30.0367745,34.3636619 30.0197175,34.1817191 30.3272346,33.8021433 C30.6134305,33.4489185 30.9114897,33.1015981 31.2355171,32.7835264 C31.7546059,32.2738352 32.2838087,31.7717979 32.8391982,31.3026174 C33.1915444,31.0049377 33.3794442,31.0379585 33.7384601,31.3156836 C34.3721913,31.8059121 35.0098588,32.2911657 35.6369203,32.7897588 C35.7788975,32.9026529 35.8873622,32.9133683 36.0470524,32.8326203 C36.3139499,32.697694 36.5854943,32.5491001 36.8726743,32.4834411 C37.2146333,32.4052626 37.2640547,32.1985542 37.3034169,31.9045374 C37.4120456,31.0944876 37.546205,30.2874447 37.6886196,29.4824793 C37.750615,29.1322067 37.9317358,29.0019821 38.278123,29.0014354 C39.4169476,28.9996859 40.5557175,28.9992485 41.6944328,29.0017634 C42.0718178,29.0025834 42.2630524,29.176763 42.3176674,29.5466075 C42.4465786,30.4188721 42.5724282,31.2916833 42.7148428,32.1617611 C42.7296583,32.2522951 42.83118,32.3602689 42.9196902,32.4014903 C43.2487472,32.5545125 43.5937677,32.6730377 43.923426,32.8248571 C44.0870524,32.9001381 44.1980866,32.8806208 44.3400091,32.7709522 C45.0028246,32.2590195 45.676082,31.7605358 46.3451298,31.2566397 C46.6153622,31.0531569 46.8891481,31.034733 47.1110524,31.2565303 C47.9347608,32.0799197 48.7573759,32.9049491 49.557959,33.7506439 C49.9198178,34.1329532 49.9098132,34.3393336 49.5930569,34.7604042 C49.1334487,35.3714541 48.6659681,35.9768729 48.1888656,36.5743099 C48.0720911,36.7204983 48.0814396,36.8244812 48.1572665,36.9834624 C48.3251025,37.3353204 48.477631,37.6964724 48.6061595,38.0644035 C48.6664601,38.2369976 48.7525649,38.3041874 48.9257585,38.328789 C49.7086287,38.4400431 50.4889294,38.5702677 51.2722916,38.6780229 C51.5850023,38.7210484 51.8532665,38.8078648 52,39.1137451 L52,42.9406658 C51.8524465,43.2426098 51.5900319,43.3348386 51.2756264,43.3777548 C50.4652574,43.4884074 49.6570205,43.6157346 48.8504784,43.7513716 C48.7618041,43.7662965 48.6561822,43.8626256 48.6153986,43.9483486 C48.45959,44.2758784 48.3433075,44.6227614 48.1794624,44.9458082 C48.087508,45.1270402 48.0969658,45.2485176 48.2221595,45.4048746 C48.7226606,46.0301388 49.2113531,46.6649702 49.7039818,47.2965762 C49.936328,47.5944746 49.9632255,47.8304863 49.7566834,48.0884754 C48.9975399,49.0367863 48.1554624,49.9056613 47.2012574,50.6594007 C46.7965923,50.9791126 46.600492,50.9624928 46.1836902,50.6382433 C45.5729203,50.1631584 44.9605649,49.689987 44.356082,49.2069749 C44.2253121,49.1024453 44.12882,49.0851149 43.9724647,49.1641681 C43.6815672,49.3112859 43.3815945,49.4567089 43.0685558,49.538769 C42.7882096,49.6122458 42.73682,49.7812317 42.7020501,50.021289 C42.5850023,50.8303 42.4487654,51.6365228 42.3270706,52.4448778 C42.2888018,52.698876 42.1670524,52.8827869 41.9407745,53" id="Fill-1" fill="#4F586F" transform="translate(40.000000, 41.000000) scale(1, -1) translate(-40.000000, -41.000000) "></path>
            </g>
        </g>
    </g>
</svg>
