<?xml version="1.0" encoding="utf-8"?>
<!-- Generator: Adobe Illustrator 22.1.0, SVG Export Plug-In . SVG Version: 6.00 Build 0)  -->
<svg version="1.1" id="Layer_1" xmlns="http://www.w3.org/2000/svg" xmlns:xlink="http://www.w3.org/1999/xlink" x="0px" y="0px"
	 viewBox="0 0 400 37" style="enable-background:new 0 0 400 37;" xml:space="preserve">
<style type="text/css">
	.st0{fill:#741023;}
	.st1{filter:url(#Adobe_OpacityMaskFilter);}
	.st2{fill:#FFFFFF;}
	.st3{mask:url(#mask-2_1_);fill:#741023;}
	.st4{filter:url(#Adobe_OpacityMaskFilter_1_);}
	.st5{mask:url(#mask-2_2_);fill:#741023;}
</style>
<title>uchicago</title>
<desc>Created with Sketch.</desc>
<g id="Symbols">
	<g id="footer" transform="translate(-928.000000, -32.000000)">
		<g id="uchicago">
			<g transform="translate(928.000000, 32.000000)">
				<polygon id="Fill-1" class="st0" points="186.4,36.9 187.5,36.9 187.5,0.1 186.4,0.1 				"/>
				<path id="Fill-3" class="st0" d="M198.6,14.3c1.5,0,2.5-1,2.5-2.5v0c0-1.5-1-2.5-2.5-2.5h-1.4v5H198.6z M195.4,7.6h3.2
					c2.6,0,4.4,1.8,4.4,4.1v0c0,2.3-1.8,4.2-4.4,4.2h-3.2V7.6z"/>
				<path id="Fill-4" class="st0" d="M204.6,16h1.8V9.6h-1.8V16z M204.5,8.9h1.9V7.3h-1.9V8.9z"/>
				<polyline id="Fill-5" class="st0" points="207.3,9.6 209.3,9.6 210.7,13.9 212.1,9.6 214,9.6 211.5,16 209.9,16 207.3,9.6 				
					"/>
				<path id="Fill-6" class="st0" d="M215,16h1.8V9.6H215V16z M214.9,8.9h1.9V7.3h-1.9V8.9z"/>
				<path id="Fill-7" class="st0" d="M217.9,15.1l0.8-1.2c0.7,0.5,1.4,0.8,2,0.8c0.5,0,0.8-0.2,0.8-0.5v0c0-0.4-0.6-0.5-1.3-0.7
					c-0.9-0.3-1.9-0.7-1.9-1.9v0c0-1.3,1-2,2.3-2c0.8,0,1.7,0.3,2.4,0.7l-0.7,1.2c-0.6-0.4-1.3-0.6-1.7-0.6c-0.4,0-0.7,0.2-0.7,0.4
					v0c0,0.4,0.6,0.5,1.3,0.8c0.9,0.3,1.9,0.7,1.9,1.9v0c0,1.4-1.1,2.1-2.4,2.1C219.8,16.1,218.8,15.8,217.9,15.1"/>
				<path id="Fill-8" class="st0" d="M224.5,16h1.8V9.6h-1.8V16z M224.4,8.9h1.9V7.3h-1.9V8.9z"/>
				<path id="Fill-9" class="st0" d="M232.7,12.8L232.7,12.8c0-1-0.7-1.8-1.7-1.8c-1,0-1.7,0.8-1.7,1.7v0c0,0.9,0.7,1.8,1.7,1.8
					C232.1,14.5,232.7,13.7,232.7,12.8z M227.6,12.8L227.6,12.8c0-1.9,1.5-3.3,3.5-3.3c2,0,3.4,1.5,3.4,3.3v0c0,1.8-1.5,3.3-3.5,3.3
					C229,16.1,227.6,14.6,227.6,12.8z"/>
				<path id="Fill-10" class="st0" d="M235.7,9.6h1.8v0.9c0.4-0.5,1-1,1.9-1c1.4,0,2.2,0.9,2.2,2.4V16h-1.8v-3.6
					c0-0.9-0.4-1.3-1.1-1.3c-0.7,0-1.1,0.4-1.1,1.3V16h-1.8V9.6"/>
				<path id="Fill-11" class="st0" d="M251.4,12.8L251.4,12.8c0-1-0.7-1.8-1.7-1.8c-1,0-1.7,0.8-1.7,1.7v0c0,0.9,0.7,1.8,1.7,1.8
					C250.8,14.5,251.4,13.7,251.4,12.8z M246.3,12.8L246.3,12.8c0-1.9,1.5-3.3,3.5-3.3c2,0,3.4,1.5,3.4,3.3v0c0,1.8-1.5,3.3-3.5,3.3
					C247.8,16.1,246.3,14.6,246.3,12.8z"/>
				<path id="Fill-12" class="st0" d="M254.7,11.1H254V9.6h0.8V9.2c0-0.7,0.2-1.2,0.5-1.5c0.3-0.3,0.8-0.5,1.5-0.5
					c0.6,0,1,0.1,1.3,0.2v1.5c-0.3-0.1-0.5-0.2-0.8-0.2c-0.4,0-0.7,0.2-0.7,0.7v0.2h1.5v1.5h-1.4V16h-1.8V11.1"/>
				<path id="Fill-13" class="st0" d="M262.7,14.1v-3H262V9.6h0.8V8h1.8v1.6h1.5v1.5h-1.5v2.7c0,0.4,0.2,0.6,0.6,0.6
					c0.3,0,0.6-0.1,0.9-0.2v1.5c-0.4,0.2-0.8,0.4-1.4,0.4C263.5,16.1,262.7,15.6,262.7,14.1"/>
				<path id="Fill-14" class="st0" d="M267.4,7.3h1.8v3.2c0.4-0.5,1-1,1.9-1c1.4,0,2.2,0.9,2.2,2.4V16h-1.8v-3.6
					c0-0.9-0.4-1.3-1.1-1.3c-0.7,0-1.1,0.4-1.1,1.3V16h-1.8V7.3"/>
				<path id="Fill-15" class="st0" d="M279,12.3c-0.1-0.8-0.6-1.4-1.3-1.4c-0.8,0-1.2,0.5-1.4,1.4H279z M274.5,12.8L274.5,12.8
					c0-1.8,1.3-3.3,3.2-3.3c2.1,0,3.1,1.7,3.1,3.5c0,0.1,0,0.3,0,0.5h-4.4c0.2,0.8,0.7,1.2,1.6,1.2c0.6,0,1-0.2,1.5-0.7l1,0.9
					c-0.6,0.7-1.5,1.2-2.6,1.2C275.9,16.1,274.5,14.8,274.5,12.8z"/>
				<path id="Fill-16" class="st0" d="M289.7,14.4c0.8,0,1.3-0.3,1.3-0.9v0c0-0.6-0.4-0.9-1.4-0.9h-2.1v1.8H289.7z M289.2,11
					c0.8,0,1.3-0.3,1.3-0.9v0c0-0.5-0.4-0.9-1.2-0.9h-1.8V11H289.2z M285.8,7.6h3.9c1,0,1.7,0.3,2.2,0.7c0.4,0.4,0.6,0.8,0.6,1.4v0
					c0,0.9-0.5,1.5-1.1,1.8c1,0.4,1.6,0.9,1.6,2v0c0,1.5-1.2,2.3-3.1,2.3h-4V7.6z"/>
				<path id="Fill-17" class="st0" d="M294.3,16h1.8V9.6h-1.8V16z M294.2,8.9h1.9V7.3h-1.9V8.9z"/>
				<path id="Fill-18" class="st0" d="M302.5,12.8L302.5,12.8c0-1-0.7-1.8-1.7-1.8c-1,0-1.7,0.8-1.7,1.7v0c0,0.9,0.7,1.8,1.7,1.8
					C301.9,14.5,302.5,13.7,302.5,12.8z M297.4,12.8L297.4,12.8c0-1.9,1.5-3.3,3.5-3.3c2,0,3.4,1.5,3.4,3.3v0c0,1.8-1.5,3.3-3.5,3.3
					C298.8,16.1,297.4,14.6,297.4,12.8z"/>
				<polygon id="Fill-19" class="st0" points="305.6,16 307.4,16 307.4,7.3 305.6,7.3 				"/>
				<path id="Fill-20" class="st0" d="M313.9,12.8L313.9,12.8c0-1-0.7-1.8-1.7-1.8c-1,0-1.7,0.8-1.7,1.7v0c0,0.9,0.7,1.8,1.7,1.8
					C313.2,14.5,313.9,13.7,313.9,12.8z M308.7,12.8L308.7,12.8c0-1.9,1.5-3.3,3.5-3.3c2,0,3.4,1.5,3.4,3.3v0c0,1.8-1.5,3.3-3.5,3.3
					C310.2,16.1,308.7,14.6,308.7,12.8z"/>
				<path id="Fill-21" class="st0" d="M321.5,12.5L321.5,12.5c0-0.9-0.7-1.5-1.6-1.5s-1.5,0.6-1.5,1.5v0c0,0.9,0.7,1.5,1.5,1.5
					S321.5,13.3,321.5,12.5z M316.9,17.2l0.6-1.4c0.7,0.4,1.3,0.6,2.2,0.6c1.2,0,1.8-0.6,1.8-1.7v-0.3c-0.5,0.6-1.1,1-2.1,1
					c-1.5,0-2.8-1.1-2.8-3v0c0-1.9,1.4-3,2.8-3c1,0,1.6,0.4,2.1,1V9.6h1.8v4.9c0,1.1-0.3,2-0.8,2.5c-0.6,0.6-1.5,0.9-2.7,0.9
					C318.7,17.9,317.7,17.6,316.9,17.2z"/>
				<path id="Fill-22" class="st0" d="M325,16h1.8V9.6H325V16z M324.9,8.9h1.9V7.3h-1.9V8.9z"/>
				<path id="Fill-23" class="st0" d="M328.1,12.8L328.1,12.8c0-1.8,1.4-3.3,3.3-3.3c1.2,0,2,0.4,2.5,1.1l-1.1,1.2
					c-0.4-0.4-0.8-0.7-1.5-0.7c-0.9,0-1.5,0.8-1.5,1.7v0c0,1,0.6,1.8,1.6,1.8c0.6,0,1-0.3,1.5-0.7l1.1,1.1c-0.6,0.7-1.3,1.2-2.6,1.2
					C329.5,16.1,328.1,14.6,328.1,12.8"/>
				<path id="Fill-24" class="st0" d="M338.9,13.7v-0.3c-0.3-0.1-0.7-0.2-1.2-0.2c-0.8,0-1.2,0.3-1.2,0.9v0c0,0.5,0.4,0.8,1,0.8
					C338.3,14.8,338.9,14.4,338.9,13.7z M334.8,14.1L334.8,14.1c0-1.4,1.1-2.1,2.6-2.1c0.6,0,1.1,0.1,1.6,0.3v-0.1
					c0-0.7-0.5-1.2-1.4-1.2c-0.7,0-1.2,0.1-1.8,0.3l-0.5-1.4c0.7-0.3,1.4-0.5,2.5-0.5c1,0,1.7,0.3,2.2,0.7c0.5,0.5,0.7,1.2,0.7,2V16
					h-1.7v-0.7c-0.4,0.5-1,0.8-1.9,0.8C335.8,16.1,334.8,15.4,334.8,14.1z"/>
				<polygon id="Fill-25" class="st0" points="342.3,16 344.1,16 344.1,7.3 342.3,7.3 				"/>
				<path id="Fill-26" class="st0" d="M348.9,14.7l1.1-1.3c0.7,0.6,1.5,1,2.5,1c0.8,0,1.2-0.3,1.2-0.8v0c0-0.5-0.3-0.7-1.7-1.1
					c-1.7-0.4-2.8-0.9-2.8-2.5v0c0-1.5,1.2-2.5,2.9-2.5c1.2,0,2.2,0.4,3.1,1.1l-1,1.4c-0.7-0.5-1.5-0.8-2.2-0.8
					c-0.7,0-1.1,0.3-1.1,0.7v0c0,0.5,0.4,0.7,1.8,1.1c1.7,0.4,2.6,1,2.6,2.5v0c0,1.7-1.3,2.6-3.1,2.6
					C351.1,16.1,349.9,15.6,348.9,14.7"/>
				<path id="Fill-27" class="st0" d="M356.5,12.8L356.5,12.8c0-1.8,1.4-3.3,3.3-3.3c1.2,0,2,0.4,2.5,1.1l-1.1,1.2
					c-0.4-0.4-0.8-0.7-1.5-0.7c-0.9,0-1.5,0.8-1.5,1.7v0c0,1,0.6,1.8,1.6,1.8c0.6,0,1-0.3,1.5-0.7l1.1,1.1c-0.6,0.7-1.3,1.2-2.6,1.2
					C357.9,16.1,356.5,14.6,356.5,12.8"/>
				<path id="Fill-28" class="st0" d="M363.5,16h1.8V9.6h-1.8V16z M363.5,8.9h1.9V7.3h-1.9V8.9z"/>
				<path id="Fill-29" class="st0" d="M371.1,12.3c-0.1-0.8-0.6-1.4-1.3-1.4c-0.7,0-1.2,0.5-1.4,1.4H371.1z M366.6,12.8L366.6,12.8
					c0-1.8,1.3-3.3,3.2-3.3c2.1,0,3.1,1.7,3.1,3.5c0,0.1,0,0.3,0,0.5h-4.4c0.2,0.8,0.8,1.2,1.6,1.2c0.6,0,1-0.2,1.5-0.7l1,0.9
					c-0.6,0.7-1.5,1.2-2.6,1.2C368,16.1,366.6,14.8,366.6,12.8z"/>
				<path id="Fill-30" class="st0" d="M374.2,9.6h1.8v0.9c0.4-0.5,1-1,1.9-1c1.4,0,2.2,0.9,2.2,2.4V16h-1.8v-3.6
					c0-0.9-0.4-1.3-1.1-1.3s-1.1,0.4-1.1,1.3V16h-1.8V9.6"/>
				<path id="Fill-31" class="st0" d="M381.3,12.8L381.3,12.8c0-1.8,1.4-3.3,3.3-3.3c1.2,0,2,0.4,2.5,1.1l-1.1,1.2
					c-0.4-0.4-0.8-0.7-1.5-0.7c-0.9,0-1.5,0.8-1.5,1.7v0c0,1,0.6,1.8,1.6,1.8c0.6,0,1-0.3,1.5-0.7l1.1,1.1c-0.6,0.7-1.3,1.2-2.6,1.2
					C382.7,16.1,381.3,14.6,381.3,12.8"/>
				<path id="Fill-32" class="st0" d="M392.3,12.3c-0.1-0.8-0.6-1.4-1.3-1.4c-0.7,0-1.2,0.5-1.4,1.4H392.3z M387.8,12.8L387.8,12.8
					c0-1.8,1.3-3.3,3.2-3.3c2.1,0,3.1,1.7,3.1,3.5c0,0.1,0,0.3,0,0.5h-4.4c0.2,0.8,0.7,1.2,1.6,1.2c0.6,0,1-0.2,1.5-0.7l1,0.9
					c-0.6,0.7-1.5,1.2-2.6,1.2C389.2,16.1,387.8,14.8,387.8,12.8z"/>
				<path id="Fill-33" class="st0" d="M394.8,15.1l0.8-1.2c0.7,0.5,1.4,0.8,2,0.8c0.5,0,0.8-0.2,0.8-0.5v0c0-0.4-0.6-0.5-1.3-0.7
					c-0.9-0.3-1.9-0.7-1.9-1.9v0c0-1.3,1-2,2.3-2c0.8,0,1.7,0.3,2.4,0.7l-0.7,1.2c-0.6-0.4-1.3-0.6-1.7-0.6c-0.4,0-0.7,0.2-0.7,0.4
					v0c0,0.4,0.6,0.5,1.3,0.8c0.9,0.3,1.9,0.7,1.9,1.9v0c0,1.4-1.1,2.1-2.4,2.1C396.7,16.1,395.7,15.8,394.8,15.1"/>
				<path id="Fill-34" class="st0" d="M195,25.4L195,25.4c0-2.4,1.8-4.3,4.3-4.3c1.6,0,2.5,0.5,3.3,1.3l-1.2,1.3
					c-0.6-0.6-1.3-0.9-2.1-0.9c-1.4,0-2.4,1.2-2.4,2.6v0c0,1.4,1,2.6,2.4,2.6c1,0,1.5-0.4,2.2-1l1.2,1.2c-0.9,0.9-1.8,1.5-3.4,1.5
					C196.8,29.6,195,27.8,195,25.4"/>
				<path id="Fill-35" class="st0" d="M208,25.8c-0.1-0.8-0.6-1.4-1.3-1.4c-0.8,0-1.2,0.5-1.4,1.4H208z M203.5,26.4L203.5,26.4
					c0-1.8,1.3-3.3,3.2-3.3c2.1,0,3.1,1.7,3.1,3.5c0,0.1,0,0.3,0,0.5h-4.4c0.2,0.8,0.7,1.2,1.6,1.2c0.6,0,1-0.2,1.5-0.7l1,0.9
					c-0.6,0.7-1.5,1.2-2.6,1.2C204.9,29.6,203.5,28.3,203.5,26.4z"/>
				<path id="Fill-36" class="st0" d="M211,23.1h1.8V24c0.4-0.5,1-1,1.9-1c1.4,0,2.2,0.9,2.2,2.4v4.1h-1.8v-3.6
					c0-0.9-0.4-1.3-1.1-1.3c-0.7,0-1.1,0.4-1.1,1.3v3.6H211V23.1"/>
				<path id="Fill-37" class="st0" d="M218.7,27.7v-3h-0.8v-1.5h0.8v-1.6h1.8v1.6h1.5v1.5h-1.5v2.7c0,0.4,0.2,0.6,0.6,0.6
					c0.3,0,0.6-0.1,0.9-0.2v1.5c-0.4,0.2-0.8,0.4-1.4,0.4C219.4,29.6,218.7,29.2,218.7,27.7"/>
				<path id="Fill-38" class="st0" d="M227.4,25.8c-0.1-0.8-0.6-1.4-1.3-1.4c-0.8,0-1.2,0.5-1.4,1.4H227.4z M222.9,26.4L222.9,26.4
					c0-1.8,1.3-3.3,3.2-3.3c2.1,0,3.1,1.7,3.1,3.5c0,0.1,0,0.3,0,0.5h-4.4c0.2,0.8,0.8,1.2,1.6,1.2c0.6,0,1-0.2,1.5-0.7l1,0.9
					c-0.6,0.7-1.5,1.2-2.6,1.2C224.3,29.6,222.9,28.3,222.9,26.4z"/>
				<path id="Fill-39" class="st0" d="M230.5,23.1h1.8v1.3c0.4-0.9,1-1.5,2-1.4v1.9h-0.1c-1.2,0-1.9,0.7-1.9,2.2v2.4h-1.8V23.1"/>
				<path id="Fill-40" class="st0" d="M239.2,24.7h-0.8v-1.5h0.8v-0.4c0-0.7,0.2-1.2,0.5-1.5c0.3-0.3,0.8-0.5,1.5-0.5
					c0.6,0,1,0.1,1.3,0.2v1.5c-0.3-0.1-0.5-0.2-0.8-0.2c-0.4,0-0.7,0.2-0.7,0.7v0.2h1.5v1.5H241v4.8h-1.8V24.7"/>
				<path id="Fill-41" class="st0" d="M248.2,26.4L248.2,26.4c0-1-0.7-1.8-1.7-1.8c-1,0-1.7,0.8-1.7,1.7v0c0,0.9,0.7,1.8,1.7,1.8
					C247.6,28.1,248.2,27.3,248.2,26.4z M243.1,26.4L243.1,26.4c0-1.9,1.5-3.3,3.5-3.3c2,0,3.4,1.5,3.4,3.3v0c0,1.8-1.5,3.3-3.5,3.3
					C244.5,29.6,243.1,28.2,243.1,26.4z"/>
				<path id="Fill-42" class="st0" d="M251.3,23.1h1.8v1.3c0.4-0.9,1-1.5,2-1.4v1.9H255c-1.2,0-1.9,0.7-1.9,2.2v2.4h-1.8V23.1"/>
				<path id="Fill-43" class="st0" d="M263.1,27.9c1.5,0,2.5-1,2.5-2.5v0c0-1.5-1-2.5-2.5-2.5h-1.4v5H263.1z M259.9,21.2h3.2
					c2.6,0,4.4,1.8,4.4,4.1v0c0,2.3-1.8,4.2-4.4,4.2h-3.2V21.2z"/>
				<path id="Fill-44" class="st0" d="M272.7,27.3v-0.3c-0.3-0.1-0.7-0.2-1.2-0.2c-0.8,0-1.2,0.3-1.2,0.9v0c0,0.5,0.4,0.8,1,0.8
					C272.1,28.4,272.7,27.9,272.7,27.3z M268.5,27.7L268.5,27.7c0-1.4,1.1-2.1,2.6-2.1c0.6,0,1.1,0.1,1.6,0.3v-0.1
					c0-0.7-0.5-1.2-1.4-1.2c-0.7,0-1.2,0.1-1.8,0.3l-0.5-1.4c0.7-0.3,1.4-0.5,2.5-0.5c1,0,1.7,0.3,2.2,0.7c0.5,0.5,0.7,1.2,0.7,2
					v3.7h-1.7v-0.7c-0.4,0.5-1,0.8-1.9,0.8C269.5,29.6,268.5,28.9,268.5,27.7z"/>
				<path id="Fill-45" class="st0" d="M276.2,27.7v-3h-0.8v-1.5h0.8v-1.6h1.8v1.6h1.5v1.5H278v2.7c0,0.4,0.2,0.6,0.6,0.6
					c0.3,0,0.6-0.1,0.9-0.2v1.5c-0.4,0.2-0.8,0.4-1.4,0.4C276.9,29.6,276.2,29.2,276.2,27.7"/>
				<path id="Fill-46" class="st0" d="M284.5,27.3v-0.3c-0.3-0.1-0.7-0.2-1.2-0.2c-0.8,0-1.2,0.3-1.2,0.9v0c0,0.5,0.4,0.8,1,0.8
					C284,28.4,284.5,27.9,284.5,27.3z M280.4,27.7L280.4,27.7c0-1.4,1.1-2.1,2.6-2.1c0.6,0,1.1,0.1,1.6,0.3v-0.1
					c0-0.7-0.5-1.2-1.4-1.2c-0.7,0-1.2,0.1-1.8,0.3l-0.5-1.4c0.7-0.3,1.4-0.5,2.5-0.5c1,0,1.7,0.3,2.2,0.7c0.5,0.5,0.7,1.2,0.7,2
					v3.7h-1.7v-0.7c-0.4,0.5-1,0.8-1.9,0.8C281.4,29.6,280.4,28.9,280.4,27.7z"/>
				<polygon id="Fill-47" class="st0" points="291.6,29.5 293.4,29.5 293.4,21.2 291.6,21.2 				"/>
				<path id="Fill-48" class="st0" d="M295.2,23.1h1.8V24c0.4-0.5,1-1,1.9-1c1.4,0,2.2,0.9,2.2,2.4v4.1h-1.8v-3.6
					c0-0.9-0.4-1.3-1.1-1.3c-0.7,0-1.1,0.4-1.1,1.3v3.6h-1.8V23.1"/>
				<path id="Fill-49" class="st0" d="M302.9,27.7v-3h-0.8v-1.5h0.8v-1.6h1.8v1.6h1.5v1.5h-1.5v2.7c0,0.4,0.2,0.6,0.6,0.6
					c0.3,0,0.6-0.1,0.9-0.2v1.5c-0.4,0.2-0.8,0.4-1.4,0.4C303.6,29.6,302.9,29.2,302.9,27.7"/>
				<path id="Fill-50" class="st0" d="M311.6,25.8c-0.1-0.8-0.6-1.4-1.3-1.4c-0.7,0-1.2,0.5-1.4,1.4H311.6z M307.1,26.4L307.1,26.4
					c0-1.8,1.3-3.3,3.2-3.3c2.1,0,3.1,1.7,3.1,3.5c0,0.1,0,0.3,0,0.5h-4.4c0.2,0.8,0.8,1.2,1.6,1.2c0.6,0,1-0.2,1.5-0.7l1,0.9
					c-0.6,0.7-1.5,1.2-2.6,1.2C308.5,29.6,307.1,28.3,307.1,26.4z"/>
				<path id="Fill-51" class="st0" d="M314.7,23.1h1.8V24c0.4-0.5,1-1,1.9-1c1.4,0,2.2,0.9,2.2,2.4v4.1h-1.8v-3.6
					c0-0.9-0.4-1.3-1.1-1.3s-1.1,0.4-1.1,1.3v3.6h-1.8V23.1"/>
				<path id="Fill-52" class="st0" d="M321.6,28.7l0.8-1.2c0.7,0.5,1.4,0.8,2,0.8c0.5,0,0.8-0.2,0.8-0.5v0c0-0.4-0.6-0.5-1.3-0.7
					c-0.9-0.3-1.9-0.7-1.9-1.9v0c0-1.3,1-2,2.3-2c0.8,0,1.7,0.3,2.4,0.7l-0.7,1.3c-0.6-0.4-1.3-0.6-1.7-0.6c-0.4,0-0.7,0.2-0.7,0.4
					v0c0,0.4,0.6,0.5,1.3,0.8c0.9,0.3,1.9,0.7,1.9,1.9v0c0,1.4-1.1,2.1-2.4,2.1C323.4,29.6,322.4,29.3,321.6,28.7"/>
				<path id="Fill-53" class="st0" d="M328.1,29.5h1.8v-6.4h-1.8V29.5z M328.1,22.4h1.9v-1.6h-1.9V22.4z"/>
				<polyline id="Fill-54" class="st0" points="330.9,23.1 332.8,23.1 334.2,27.4 335.7,23.1 337.6,23.1 335,29.6 333.4,29.6 
					330.9,23.1 				"/>
				<path id="Fill-55" class="st0" d="M342.4,25.8c-0.1-0.8-0.6-1.4-1.3-1.4c-0.7,0-1.2,0.5-1.4,1.4H342.4z M337.9,26.4L337.9,26.4
					c0-1.8,1.3-3.3,3.2-3.3c2.1,0,3.1,1.7,3.1,3.5c0,0.1,0,0.3,0,0.5h-4.4c0.2,0.8,0.8,1.2,1.6,1.2c0.6,0,1-0.2,1.5-0.7l1,0.9
					c-0.6,0.7-1.5,1.2-2.6,1.2C339.3,29.6,337.9,28.3,337.9,26.4z"/>
				<path id="Fill-56" class="st0" d="M348.6,28.3l1.1-1.3c0.7,0.6,1.5,1,2.5,1c0.8,0,1.2-0.3,1.2-0.8v0c0-0.5-0.3-0.7-1.7-1.1
					c-1.7-0.4-2.8-0.9-2.8-2.5v0c0-1.5,1.2-2.5,2.9-2.5c1.2,0,2.2,0.4,3.1,1.1l-1,1.4c-0.7-0.5-1.5-0.8-2.2-0.8
					c-0.7,0-1.1,0.3-1.1,0.7v0c0,0.5,0.4,0.7,1.8,1.1c1.7,0.4,2.6,1,2.6,2.5v0c0,1.7-1.3,2.6-3.1,2.6
					C350.9,29.6,349.6,29.2,348.6,28.3"/>
				<path id="Fill-57" class="st0" d="M356.2,26.4L356.2,26.4c0-1.8,1.4-3.3,3.3-3.3c1.2,0,2,0.4,2.5,1.1l-1.1,1.2
					c-0.4-0.4-0.8-0.7-1.5-0.7c-0.9,0-1.5,0.8-1.5,1.7v0c0,1,0.6,1.8,1.6,1.8c0.6,0,1-0.3,1.5-0.7l1.1,1.1c-0.6,0.7-1.3,1.2-2.6,1.2
					C357.6,29.6,356.2,28.2,356.2,26.4"/>
				<path id="Fill-58" class="st0" d="M363.3,29.5h1.8v-6.4h-1.8V29.5z M363.2,22.4h1.9v-1.6h-1.9V22.4z"/>
				<path id="Fill-59" class="st0" d="M370.9,25.8c-0.1-0.8-0.6-1.4-1.3-1.4c-0.7,0-1.2,0.5-1.4,1.4H370.9z M366.4,26.4L366.4,26.4
					c0-1.8,1.3-3.3,3.2-3.3c2.1,0,3.1,1.7,3.1,3.5c0,0.1,0,0.3,0,0.5h-4.4c0.2,0.8,0.8,1.2,1.6,1.2c0.6,0,1-0.2,1.5-0.7l1,0.9
					c-0.6,0.7-1.5,1.2-2.6,1.2C367.8,29.6,366.4,28.3,366.4,26.4z"/>
				<path id="Fill-60" class="st0" d="M373.9,23.1h1.8V24c0.4-0.5,1-1,1.9-1c1.4,0,2.2,0.9,2.2,2.4v4.1H378v-3.6
					c0-0.9-0.4-1.3-1.1-1.3c-0.7,0-1.1,0.4-1.1,1.3v3.6h-1.8V23.1"/>
				<path id="Fill-61" class="st0" d="M381,26.4L381,26.4c0-1.8,1.4-3.3,3.3-3.3c1.2,0,2,0.4,2.5,1.1l-1.1,1.2
					c-0.4-0.4-0.8-0.7-1.5-0.7c-0.9,0-1.5,0.8-1.5,1.7v0c0,1,0.6,1.8,1.6,1.8c0.6,0,1-0.3,1.5-0.7l1.1,1.1c-0.6,0.7-1.3,1.2-2.6,1.2
					C382.4,29.6,381,28.2,381,26.4"/>
				<g id="Clip-63">
				</g>
				<defs>
					<filter id="Adobe_OpacityMaskFilter" filterUnits="userSpaceOnUse" x="387.6" y="23" width="6.3" height="6.6">
						<feColorMatrix  type="matrix" values="1 0 0 0 0  0 1 0 0 0  0 0 1 0 0  0 0 0 1 0"/>
					</filter>
				</defs>
				<mask maskUnits="userSpaceOnUse" x="387.6" y="23" width="6.3" height="6.6" id="mask-2_1_">
					<g class="st1">
						<polygon id="path-1_1_" class="st2" points="0.1,0.4 393.8,0.4 393.8,36.3 0.1,36.3 						"/>
					</g>
				</mask>
				<path id="Fill-62" class="st3" d="M392.1,25.8c-0.1-0.8-0.6-1.4-1.3-1.4c-0.7,0-1.2,0.5-1.4,1.4H392.1z M387.6,26.4L387.6,26.4
					c0-1.8,1.3-3.3,3.2-3.3c2.1,0,3.1,1.7,3.1,3.5c0,0.1,0,0.3,0,0.5h-4.4c0.2,0.8,0.8,1.2,1.6,1.2c0.6,0,1-0.2,1.5-0.7l1,0.9
					c-0.6,0.7-1.5,1.2-2.6,1.2C389,29.6,387.6,28.3,387.6,26.4z"/>
				<defs>
					<filter id="Adobe_OpacityMaskFilter_1_" filterUnits="userSpaceOnUse" x="0" y="0.4" width="178.4" height="35.9">
						<feColorMatrix  type="matrix" values="1 0 0 0 0  0 1 0 0 0  0 0 1 0 0  0 0 0 1 0"/>
					</filter>
				</defs>
				<mask maskUnits="userSpaceOnUse" x="0" y="0.4" width="178.4" height="35.9" id="mask-2_2_">
					<g class="st4">
						<polygon id="path-1_2_" class="st2" points="0.1,0.4 393.8,0.4 393.8,36.3 0.1,36.3 						"/>
					</g>
				</mask>
				<path id="Fill-64" class="st5" d="M177.4,2.9L177.4,2.9L177.4,2.9c0-0.5,0-1,0-1.6V1.2l-0.1,0c-0.1,0-0.9,0-1.6,0h-2.2
					c-0.4,0-0.9,0-1.4,0l0,0l0,0c-0.1,0-0.1,0.2-0.1,0.2c0,0.1,0,0.2,0.1,0.2l0.2,0c0.6,0.1,0.6,0.1,0.6,1.4v4.3
					c0,1.3,0,1.3-0.6,1.4l-0.3,0l0,0c-0.1,0.1-0.1,0.2-0.1,0.3c0,0.1,0.1,0.2,0.1,0.2l0,0l0,0c0.6,0,1,0,1.5,0c0.5,0,0.9,0,1.6,0
					l0,0l0,0c0.1,0,0.1-0.1,0.1-0.2c0-0.1,0-0.2-0.1-0.2l-0.4-0.1c-0.6-0.1-0.6-0.1-0.6-1.4V5.8c0-0.2,0-0.2,0.3-0.2h0.8
					c0.4,0,0.7,0,0.9,0.1c0.2,0.1,0.3,0.2,0.3,0.4l0.1,0.5l0,0c0.1,0.1,0.4,0.1,0.4,0l0,0v0c0-0.1,0-0.3,0-0.5c0-0.2,0-0.5,0-0.7
					c0-0.2,0-0.5,0-0.7c0-0.2,0-0.4,0-0.5v0l0,0c-0.1-0.1-0.2-0.1-0.2-0.1c-0.1,0-0.2,0-0.2,0.1l-0.1,0.5c-0.1,0.3-0.1,0.3-0.2,0.4
					c-0.1,0-0.5,0.1-1,0.1h-0.8C174,5,174,5,174,4.7V2.2c0-0.4,0-0.4,0.3-0.4h0.7c0.5,0,0.9,0,1.1,0.1c0.5,0.1,0.7,0.5,0.8,1.1l0,0
					l0,0c0,0,0.1,0.1,0.2,0.1C177.2,3.1,177.4,3,177.4,2.9z M169.4,5.3c0-2-1.3-4.2-4.2-4.2c-2.5,0-4.4,1.9-4.4,4.3
					c0,2.1,1.5,4.2,4.4,4.2C167.5,9.5,169.4,7.7,169.4,5.3z M168,5.6c0,2.5-1.5,3.3-2.7,3.3c-2.5,0-3.1-2.5-3.1-4
					c0-2.5,1.5-3.4,2.8-3.4C167.2,1.6,168,3.8,168,5.6z M158.2,26.1c0,5.2,3.9,9.7,10.2,9.7c5.5,0,10-4.2,10-10
					c0-5.1-3.3-9.9-10-9.9C162.5,15.9,158.2,20.3,158.2,26.1z M161.1,25.1c0-6.3,3.9-8.3,6.9-8.3c5.5,0,7.6,5.1,7.6,9.9
					c0,5.7-3.3,8.3-6.7,8.3C163.1,34.9,161.1,29.4,161.1,25.1z M154.7,1.7c0.1-0.1,0.1-0.1,0.1-0.2c0-0.1-0.1-0.2-0.1-0.2l0,0l0,0
					c-0.9,0-1.4,0-2.3,0l0,0l0,0c-0.1,0-0.1,0.1-0.1,0.2c0,0.1,0,0.2,0.1,0.3l0,0l0.2,0c0.2,0,0.4,0.1,0.4,0.1
					c0,0.2-0.5,0.9-0.7,1.4l-0.1,0.1c-0.3,0.6-0.6,1.2-1,1.9c-0.3-0.6-0.6-1.2-0.9-1.8c-0.1-0.2-0.2-0.5-0.4-0.7
					c-0.1-0.2-0.4-0.8-0.4-0.9c0,0,0.1-0.1,0.4-0.1l0.2,0l0,0c0.1-0.1,0.1-0.2,0.1-0.3c0-0.1-0.1-0.1-0.1-0.2l0,0l0,0
					c-0.3,0-0.7,0-1.3,0c-0.6,0-1,0-1.4,0l0,0l0,0c-0.1,0-0.1,0.1-0.1,0.2c0,0.1,0,0.2,0.1,0.3l0,0l0.4,0.1c0.3,0.1,0.5,0.1,0.9,0.9
					l1.4,2.8c0.3,0.7,0.4,0.8,0.4,1.4v0.6c0,1.3,0,1.4-0.6,1.4l-0.4,0l0,0c-0.1,0.1-0.1,0.2-0.1,0.3c0,0.1,0.1,0.2,0.1,0.2l0,0l0,0
					c0.6,0,1.1,0,1.6,0c0.5,0,0.9,0,1.6,0l0,0l0,0c0.1,0,0.1-0.1,0.1-0.2c0-0.1,0-0.2-0.1-0.3l0,0l-0.5,0c-0.6,0-0.6-0.1-0.6-1.4
					V6.8c0-0.9,0-1,0.6-1.9l0.8-1.3c0.1-0.1,0.1-0.2,0.2-0.3c0.5-0.8,0.8-1.4,1.3-1.5L154.7,1.7L154.7,1.7z M150.5,16.3
					c-0.5-0.1-2-0.4-3.7-0.4c-4.3,0-7.2,1.4-9.1,3.4c-1.8,1.9-2.6,4.4-2.6,6.8c0,2.5,0.9,4.8,2.6,6.5c2.2,2.2,5.3,3.2,8.8,3.2
					c1.6,0,3.6-0.3,5.1-0.7c0.5-0.1,1.1-0.3,1.4-0.3c0.1-0.1,0.1-0.3,0-0.3c-0.5-0.2-0.7-0.9-0.7-2v-1.6c0-1.5,0-2.3,1.2-2.4
					l0.5-0.1c0.2-0.2,0.2-0.6,0-0.7c-0.9,0.1-1.9,0.1-3,0.1c-1.7,0-3.3,0-4.1-0.1c-0.2,0.1-0.2,0.6,0,0.7l1.3,0.1
					c1.8,0.2,1.9,0.4,1.9,2.8v1.1c0,0.9-0.1,1.4-0.3,1.6c-0.3,0.5-1.4,0.9-3.2,0.9c-5.8,0-8.6-4.3-8.6-9.9c0-4.3,2.4-8.3,8-8.3
					c2.9,0,5.1,1,5.9,4.1c0.2,0.2,0.7,0.1,0.8-0.1c-0.3-1.7-0.4-3.2-0.4-4.2C151.9,16.7,151.1,16.5,150.5,16.3z M145.6,1.1
					L145.6,1.1L145.6,1.1c-0.1-0.2-0.2-0.2-0.2-0.2c0,0-0.1,0-0.1,0l0,0l0,0c-0.2,0.3-0.2,0.3-0.9,0.3h-5c-0.5,0-0.8,0-0.8-0.3l0,0
					l0,0c0,0-0.1-0.1-0.2-0.1c0,0-0.1,0-0.2,0l0,0l0,0c-0.1,0.5-0.3,1.2-0.5,1.8l0,0l0,0c0.1,0.1,0.3,0.2,0.4,0.1l0,0l0,0
					c0.1-0.3,0.2-0.5,0.5-0.8c0.3-0.2,0.9-0.3,1.4-0.3h0.7c0.3,0,0.3,0,0.3,0.3v5.4c0,1.3-0.1,1.4-0.7,1.4l-0.4,0l0,0
					c-0.1,0-0.1,0.1-0.1,0.2c0,0.1,0,0.2,0.1,0.2l0,0l0,0c0.7,0,1.2,0,1.7,0c0.5,0,0.9,0,1.6,0l0,0l0,0c0.1-0.1,0.1-0.2,0.1-0.2
					c0-0.1,0-0.2-0.1-0.2l-0.4-0.1c-0.6-0.1-0.6-0.1-0.6-1.4V2.1c0-0.1,0-0.2,0-0.3c0,0,0.1,0,0.2,0h0.9c0.6,0,1.1,0.1,1.3,0.3
					c0.1,0.1,0.2,0.4,0.3,0.8l0,0l0,0c0,0.1,0.1,0.1,0.2,0.1c0.1,0,0.2,0,0.2-0.1l0,0l0,0C145.4,2.5,145.5,1.5,145.6,1.1z
					 M134.7,7.4V3.2c0-1.3,0-1.4,0.6-1.4l0.3,0l0,0c0.1,0,0.1-0.1,0.1-0.2c0,0,0-0.2-0.1-0.2l0,0l0,0c-0.6,0-1,0-1.5,0
					c-0.5,0-0.9,0-1.5,0l0,0l0,0c-0.1,0-0.1,0.2-0.1,0.2c0,0.1,0,0.2,0.1,0.2l0,0l0.3,0c0.6,0.1,0.6,0.1,0.6,1.4v4.3
					c0,1.3,0,1.4-0.6,1.4l-0.3,0l0,0c-0.1,0.1-0.1,0.2-0.1,0.3c0,0.1,0.1,0.2,0.1,0.2l0,0l0,0c0.6,0,1,0,1.5,0c0.5,0,0.9,0,1.5,0
					l0,0l0,0c0.1-0.1,0.1-0.2,0.1-0.2c0-0.1,0-0.2-0.1-0.2l-0.3-0.1C134.7,8.8,134.7,8.7,134.7,7.4z M132.7,34.6
					c-1.2-0.1-1.6-0.6-2.4-3L126.3,20c-0.4-1.3-0.9-2.6-1.3-3.9c-0.1-0.2-0.3-0.3-0.4-0.3c-0.3,0.4-0.8,0.9-1.5,1.1
					c0.1,0.5-0.1,1-0.5,2l-2.9,7.8c-1.2,3.2-2,5.1-2.5,6.4c-0.4,1-1,1.4-1.7,1.4l-0.9,0.1c-0.2,0.1-0.1,0.6,0.1,0.7
					c0.8,0,1.8-0.1,2.8-0.1c1.4,0,2.2,0,3,0.1c0.3-0.1,0.3-0.6,0.1-0.7l-0.9-0.1c-0.7-0.1-0.8-0.2-0.8-0.6c0-0.3,0.2-1.1,0.6-2.4
					l1-3c0.2-0.6,0.4-0.7,1.1-0.7h4.3c0.9,0,1,0.1,1.2,0.7l1.3,3.9c0.2,0.7,0.4,1.2,0.4,1.5c0,0.3-0.4,0.5-1,0.5l-0.8,0.1
					c-0.2,0.1-0.2,0.6,0.1,0.7c0.8,0,1.9-0.1,3.3-0.1c1.3,0,2.3,0,3.5,0.1c0.1-0.1,0.2-0.6,0-0.7L132.7,34.6z M125.3,26.8h-3.5
					c-0.8,0-0.8,0-0.6-0.7l1.8-5c0.3-0.9,0.6-1.6,0.7-1.7h0.1c0.2,0.3,0.4,1.1,0.7,1.8l1.6,4.7C126.2,26.7,126.1,26.8,125.3,26.8z
					 M126.5,2.9c0-0.5,0.2-1.2,1.3-1.2c1.1,0,1.4,0.7,1.5,1.3l0,0c0,0,0.1,0.1,0.2,0.1c0.1,0,0.2,0,0.3-0.1l0,0v0
					c0-0.5-0.1-1.2-0.2-1.5l0-0.1h-0.1c-0.1,0-0.2,0-0.4-0.1c-0.3-0.1-0.7-0.2-1.1-0.2c-1.5,0-2.5,0.9-2.5,2.2
					c0,1.1,0.8,1.8,1.3,2.1l1.1,0.7c0.8,0.5,0.9,1.1,0.9,1.6c0,0.6-0.4,1.3-1.4,1.3c-1.2,0-1.7-0.9-2-1.7l0,0c0-0.1-0.1-0.1-0.2-0.1
					c-0.1,0-0.2,0-0.3,0.1l0,0l0,0c0,0.5,0.2,1.4,0.3,1.7l0,0l0,0c0.2,0.1,0.9,0.5,1.9,0.5c1.6,0,2.6-0.9,2.6-2.3
					c0-1-0.5-1.7-1.5-2.4l-1-0.6C127.1,4,126.5,3.5,126.5,2.9z M123.4,9.4c0.1,0,0.1-0.1,0.1-0.2c0-0.1,0-0.1-0.1-0.1l0,0
					c-0.3,0-0.6-0.1-0.8-0.3c-0.8-0.7-1.5-1.7-2.4-3.2c-0.1-0.1-0.1-0.1-0.1-0.2c0.4-0.2,1.5-0.8,1.5-2.1c0-1-0.6-1.5-1-1.8
					c-0.6-0.3-1.4-0.4-2-0.4c-1.1,0-1.9,0-2.7,0.1l0,0c-0.1,0-0.1,0.1-0.1,0.2c0,0.1,0,0.2,0.1,0.3l0,0l0.4,0.1
					c0.4,0,0.4,0.1,0.4,1.3v4.3c0,1.3,0,1.3-0.6,1.4l-0.3,0l0,0c-0.1,0.1-0.1,0.2-0.1,0.3c0,0.1,0.1,0.1,0.1,0.2l0,0l0,0
					c0.5,0,1,0,1.5,0c0.5,0,0.9,0,1.4,0l0,0l0,0c0.1,0,0.1-0.2,0.1-0.2c0-0.1,0-0.2-0.1-0.2l0,0l-0.3,0c-0.6-0.1-0.6-0.1-0.6-1.4
					V5.9c0-0.2,0-0.2,0.5-0.2c0.5,0,0.6,0.1,0.8,0.3c0.2,0.3,0.4,0.6,0.6,0.9c0.2,0.3,0.4,0.7,0.6,0.9c0.8,1.2,1.4,1.5,2.6,1.5
					C123.1,9.5,123.3,9.5,123.4,9.4L123.4,9.4z M119.8,4.9c-0.3,0.3-0.8,0.3-1.2,0.3c-0.5,0-0.7,0-0.8,0c0,0,0-0.2,0-0.3V2.1
					c0-0.3,0-0.3,0.7-0.3c1.3,0,1.8,0.9,1.8,1.8C120.4,4.2,120.2,4.6,119.8,4.9z M113.6,7.6L113.6,7.6L113.6,7.6
					c-0.1-0.2-0.2-0.2-0.3-0.2c-0.1,0-0.1,0-0.2,0l0,0c-0.3,0.7-0.7,1-0.8,1.1c-0.3,0.1-0.6,0.2-1.5,0.2c-1,0-1.3-0.1-1.4-0.2
					c-0.2-0.2-0.2-0.6-0.2-1.2V5.7c0-0.2,0-0.2,0.3-0.2h0.7c0.4,0,0.7,0,0.9,0.1c0.2,0,0.3,0.2,0.3,0.4l0.1,0.5l0,0
					c0,0.1,0.1,0.1,0.2,0.1c0.1,0,0.2,0,0.2-0.1l0,0v0c0-0.1,0-0.3,0-0.4c0-0.2,0-0.5,0-0.7c0-0.3,0-0.5,0-0.7c0-0.2,0-0.3,0-0.5v0
					l0,0c0-0.1-0.1-0.1-0.2-0.1c-0.1,0-0.2,0-0.2,0.1l-0.1,0.5c-0.1,0.3-0.1,0.3-0.2,0.4c-0.1,0-0.5,0.1-1,0.1h-0.7
					c-0.3,0-0.3,0-0.3-0.2V2.2c0-0.4,0-0.4,0.3-0.4h0.9c0.5,0,0.9,0,1.1,0.1c0.5,0.1,0.7,0.5,0.8,1l0,0.1l0,0c0,0,0.1,0.1,0.2,0.1
					s0.2,0,0.3-0.1l0,0l0-0.2c-0.1-0.7-0.1-1.3-0.2-1.5l0-0.1l-0.1,0c-0.1,0-0.9,0-1.6,0h-2.3c-0.5,0-0.9,0-1.4,0l0,0l0,0
					c-0.1,0-0.1,0.2-0.1,0.2c0,0.1,0,0.2,0.1,0.2l0.2,0c0.6,0.1,0.6,0.2,0.6,1.4v4.3c0,1.3-0.1,1.4-0.7,1.4l-0.4,0l0,0
					c-0.1,0.1-0.1,0.2-0.1,0.3c0,0.1,0.1,0.2,0.1,0.2l0,0l0,0c0.7,0,1.1,0,1.6,0h1.1c1,0,2.1,0,3.2,0l0.1,0l0-0.1
					C113.3,9,113.6,8.1,113.6,7.6z M105.4,1.7c0.1-0.1,0.1-0.2,0.1-0.3c0-0.1,0-0.2-0.1-0.2l0,0l0,0c-0.4,0-0.8,0-1.2,0
					c-0.5,0-0.9,0-1.2,0l0,0l0,0c-0.1,0-0.1,0.1-0.1,0.2c0,0.1,0,0.2,0.1,0.2l0,0l0.2,0c0.4,0,0.5,0.1,0.5,0.1c0,0.1,0,0.2-0.1,0.4
					c-0.2,0.5-0.8,1.9-1.1,2.7c-0.1,0.2-0.2,0.5-0.3,0.8c-0.2,0.5-0.5,1.2-0.7,1.7c-0.6-1.3-1.1-2.6-1.6-3.9
					c-0.3-0.9-0.6-1.5-0.6-1.6c0,0,0.1-0.1,0.5-0.1l0.2,0l0,0c0.1-0.1,0.1-0.1,0.1-0.2c0-0.1-0.1-0.2-0.1-0.2l0,0l0,0
					c-0.5,0-1,0-1.4,0c-0.5,0-0.9,0-1.2,0l0,0l0,0c-0.1,0-0.1,0.1-0.1,0.2c0,0.1,0,0.2,0.1,0.2l0,0l0.2,0c0.5,0.1,0.6,0.3,0.9,0.9
					l2.1,5.2c0.3,0.6,0.4,1.2,0.5,1.6l0,0l0,0c0.1,0,0.1,0,0.2,0c0.1,0,0.1,0,0.2-0.1l0,0l0,0c0.2-0.6,0.8-2.1,1.2-3.1l0.6-1.5
					c0.6-1.3,1-2.2,1.3-2.7c0.2-0.2,0.3-0.4,0.6-0.4L105.4,1.7L105.4,1.7z M97.6,18.4C95.4,20,94,22.8,94,26c0,3.7,1.8,6.3,4.1,7.9
					c2.1,1.4,4.6,1.9,7.2,1.9c1.8,0,3.9-0.4,4.5-0.7c0.3-0.1,0.7-0.2,1-0.3c0.4-0.5,1.2-2.4,1.4-3.9c-0.1-0.2-0.5-0.3-0.7-0.1
					c-0.7,1.7-2.3,4.1-6,4.1c-4.7,0-8.5-3.3-8.5-9.4c0-6,3.7-8.7,8.1-8.7c4.2,0,5.5,2.2,5.9,4.2c0.2,0.2,0.6,0.1,0.8-0.1
					c-0.2-1.8-0.4-3.6-0.4-4.2c-0.3,0-0.5,0-0.8-0.1c-1.4-0.4-3.5-0.7-5.1-0.7C102.4,15.9,99.7,16.7,97.6,18.4z M93.9,7.4V3.2
					c0-1.3,0-1.4,0.6-1.4l0.3,0l0,0C95,1.6,95,1.6,95,1.5c0,0,0-0.2-0.1-0.2l0,0l0,0c-0.6,0-1,0-1.5,0c-0.5,0-0.9,0-1.5,0l0,0l0,0
					c-0.1,0-0.1,0.2-0.1,0.2c0,0.1,0,0.2,0.1,0.2l0,0l0.3,0c0.6,0.1,0.6,0.1,0.6,1.4v4.3c0,1.3,0,1.4-0.7,1.4l-0.3,0l0,0
					c-0.1,0.1-0.1,0.2-0.1,0.3c0,0.1,0.1,0.2,0.1,0.2l0,0l0,0c0.6,0,1,0,1.5,0c0.5,0,0.9,0,1.5,0l0,0l0,0C95,9.3,95,9.2,95,9.1
					C95,9,95,9,94.9,8.9l-0.3-0.1C94,8.8,93.9,8.7,93.9,7.4z M87.9,31V20.7c0-3,0.1-3.5,1.8-3.7l0.7-0.1c0.2-0.1,0.1-0.6-0.1-0.7
					c-1.4,0.1-2.4,0.1-3.6,0.1c-1.2,0-2.2,0-3.6-0.1c-0.2,0.1-0.2,0.6-0.1,0.7l0.7,0.1c1.7,0.1,1.8,0.6,1.8,3.7V31
					c0,3-0.1,3.4-1.8,3.7l-0.7,0.1c-0.2,0.2-0.1,0.6,0.1,0.7c1.4-0.1,2.4-0.1,3.6-0.1c1.2,0,2.1,0,3.6,0.1c0.2-0.1,0.2-0.6,0.1-0.7
					l-0.7-0.1C88,34.4,87.9,34,87.9,31z M89.4,1.7c0.1-0.1,0.1-0.2,0.1-0.2c0-0.1-0.1-0.2-0.1-0.2l0,0l0,0c-0.4,0-0.7,0-1.2,0
					c-0.4,0-0.8,0-1.4,0h0l0,0c-0.1,0-0.1,0.1-0.1,0.2c0,0.1,0,0.2,0.1,0.3l0,0l0.2,0c0.4,0.1,0.6,0.1,0.7,0.2
					c0.1,0.2,0.2,1.1,0.2,2.4v2.6c0,0.1,0,0.2,0,0.3c-0.4-0.4-0.9-0.9-1.4-1.5l-1.7-1.9c-1.2-1.3-1.9-2.2-2-2.6l0-0.1l-0.1,0
					c-0.1,0-0.3,0-0.5,0c-0.2,0-0.8,0-1.3,0l0,0l0,0c-0.1,0-0.1,0.1-0.1,0.2c0,0.1,0,0.2,0.1,0.3l0,0l0.2,0c0.3,0,0.6,0.1,0.7,0.3
					c0.2,0.2,0.2,0.5,0.2,0.8v3.6c0,0.6,0,1.9-0.1,2.3c0,0.1-0.1,0.1-0.5,0.2l-0.4,0l0,0c-0.1,0.1-0.1,0.1-0.1,0.2
					c0,0.1,0,0.2,0.1,0.2l0,0l0,0c0.4,0,0.7,0,1.2,0c0.4,0,0.8,0,1.4,0l0,0l0,0c0.1,0,0.1-0.1,0.1-0.2c0-0.1,0-0.2-0.1-0.2l0,0
					l-0.4,0c-0.3,0-0.5-0.1-0.5-0.2c-0.1-0.2-0.2-1.1-0.2-2.4V3.6c0-0.2,0-0.4,0-0.6C82.6,3.2,83,3.6,83.2,4
					c0.2,0.2,0.4,0.4,0.5,0.6l2.8,3.2c0.9,1.1,1.4,1.6,1.5,1.8l0,0h0c0.2,0,0.3-0.1,0.3-0.2l0,0l0,0c0-0.1,0-0.6,0-2.1v-3
					c0-0.6,0-1.9,0.2-2.3c0,0,0.2-0.1,0.6-0.2L89.4,1.7L89.4,1.7z M78.7,1.7c0.1-0.1,0.1-0.2,0.1-0.3c0-0.1-0.1-0.1-0.1-0.2l0,0l0,0
					c-0.4,0-0.7,0-1.3,0c-0.5,0-0.9,0-1.4,0l0,0l0,0c-0.1,0-0.1,0.1-0.1,0.2c0,0.1,0,0.2,0.1,0.2l0,0l0.3,0c0.3,0,0.5,0.1,0.5,0.2
					C76.9,2.2,77,3,77,4.4v1.4c0,1.4-0.4,3.1-2.3,3.1c-1.6,0-2.3-1-2.3-3.1V3.1c0-1.3,0-1.4,0.6-1.4l0.3,0l0,0
					c0.1,0,0.1-0.1,0.1-0.2c0-0.1,0-0.2-0.1-0.2l0,0l0,0c-0.6,0-1,0-1.5,0c-0.5,0-0.9,0-1.5,0l0,0l0,0c-0.1,0-0.1,0.1-0.1,0.2
					c0,0.1,0,0.2,0.1,0.2l0,0l0.3,0c0.6,0.1,0.6,0.1,0.6,1.4V6c0,1.4,0.3,2.3,1,2.9c0.5,0.5,1.3,0.7,2.3,0.7c0.9,0,1.8-0.3,2.4-0.9
					c0.6-0.6,0.9-1.6,0.9-2.9V4.4c0-0.6,0-2,0.2-2.4c0.1-0.1,0.3-0.2,0.5-0.2L78.7,1.7L78.7,1.7z M64.9,17c0.2-0.1,0.1-0.6-0.1-0.7
					c-1.2,0.1-2.2,0.1-3.3,0.1c-1.2,0-2.2-0.1-3.6-0.1c-0.2,0.1-0.2,0.6-0.1,0.7l0.7,0.1c1.5,0.1,1.7,0.6,1.7,3.6V31
					c0,3-0.1,3.3-1.7,3.6l-0.5,0.1c-0.2,0.2-0.1,0.6,0.1,0.7c1.1,0,2.1-0.1,3.3-0.1c1.1,0,2.1,0,3.7,0.1c0.2-0.1,0.2-0.6,0.1-0.7
					l-0.8-0.1c-1.6-0.2-1.8-0.6-1.8-3.6V27c0-0.9,0.1-0.9,1.4-0.9h8.2c1.4,0,1.4,0.1,1.4,0.9V31c0,3,0,3.3-1.8,3.6l-0.5,0.1
					c-0.2,0.2-0.1,0.6,0.1,0.7c1.3-0.1,2.3-0.1,3.5-0.1c1.1,0,2.1,0,3.5,0.1c0.2-0.1,0.2-0.6,0.1-0.7l-0.7-0.1
					c-1.7-0.2-1.7-0.6-1.7-3.6V20.7c0-3,0.1-3.5,1.7-3.6l0.6-0.1c0.2-0.1,0.1-0.6-0.1-0.7c-1.3,0.1-2.3,0.1-3.4,0.1
					c-1.2,0-2.2,0-3.5-0.1c-0.2,0.1-0.2,0.6-0.1,0.7l0.5,0.1c1.7,0.2,1.8,0.6,1.8,3.6V24c0,0.9-0.1,0.9-1.4,0.9h-8.2
					c-1.4,0-1.4,0-1.4-0.9v-3.3c0-3,0.1-3.5,1.7-3.6L64.9,17z M63.7,7.6L63.7,7.6L63.7,7.6c-0.1-0.2-0.2-0.2-0.3-0.2
					c-0.1,0-0.1,0-0.2,0l0,0c-0.3,0.7-0.7,1-0.8,1.1c-0.3,0.1-0.6,0.2-1.5,0.2c-1,0-1.3-0.1-1.4-0.2c-0.2-0.2-0.2-0.6-0.2-1.2V5.7
					c0-0.2,0-0.2,0.3-0.2h0.7c0.4,0,0.7,0,0.9,0.1c0.2,0,0.3,0.2,0.3,0.4l0.1,0.5l0,0c0,0.1,0.1,0.1,0.2,0.1c0.1,0,0.2,0,0.2-0.1
					l0,0v0c0-0.1,0-0.3,0-0.4c0-0.2,0-0.5,0-0.7c0-0.3,0-0.5,0-0.7c0-0.2,0-0.3,0-0.5v0l0,0c0-0.1-0.1-0.1-0.2-0.1
					c-0.1,0-0.2,0-0.2,0.1l-0.1,0.5c-0.1,0.3-0.1,0.3-0.2,0.4c-0.1,0-0.5,0.1-1,0.1h-0.7c-0.3,0-0.3,0-0.3-0.2V2.2
					c0-0.4,0-0.4,0.3-0.4h0.9c0.5,0,0.9,0,1.1,0.1c0.5,0.1,0.7,0.5,0.8,1l0,0.1l0,0c0,0,0.1,0.1,0.2,0.1c0.1,0,0.2,0,0.3-0.1l0,0
					l0-0.2c-0.1-0.7-0.1-1.3-0.2-1.5l0-0.1l-0.1,0c-0.1,0-0.9,0-1.6,0h-2.3c-0.5,0-0.9,0-1.4,0l0,0l0,0c-0.1,0-0.1,0.2-0.1,0.2
					c0,0.1,0,0.2,0.1,0.2l0.2,0c0.6,0.1,0.6,0.2,0.6,1.4v4.3c0,1.3-0.1,1.4-0.7,1.4l-0.4,0l0,0C57,9,57,9.1,57,9.2
					c0,0.1,0.1,0.2,0.1,0.2l0,0l0,0c0.7,0,1.1,0,1.6,0h1.1c1,0,2.1,0,3.2,0l0.1,0l0-0.1C63.3,9,63.6,8.1,63.7,7.6z M53.7,7.5V3.1
					c0-1.3,0-1.4,0.6-1.4l0.3,0l0,0c0.1,0,0.1-0.1,0.1-0.2c0,0,0-0.2-0.1-0.2l0,0l0,0c-0.6,0-1,0-1.4,0c-0.5,0-0.9,0-1.4,0l0,0l0,0
					c-0.1,0-0.1,0.2-0.1,0.2c0,0.1,0,0.2,0.1,0.2l0.3,0c0.6,0.1,0.6,0.1,0.6,1.4v1.4c0,0.3,0,0.3-0.5,0.3h-3.4c-0.5,0-0.5,0-0.5-0.3
					V3.1c0-1.3,0-1.4,0.6-1.4l0.2,0l0,0c0.1,0,0.1-0.1,0.1-0.2c0,0,0-0.2-0.1-0.2l0,0l0,0c-0.5,0-0.9,0-1.4,0c-0.3,0-0.6,0-0.9,0
					c-0.2,0-0.4,0-0.6,0h0l0,0c-0.1,0-0.1,0.2-0.1,0.2c0,0.1,0,0.2,0.1,0.2l0,0l0.3,0c0.5,0,0.6,0.1,0.6,1.4v4.3
					c0,1.2,0,1.3-0.6,1.4l-0.2,0l0,0C46,9,46,9.1,46,9.2c0,0.1,0.1,0.2,0.1,0.2l0,0l0,0c0.2,0,0.3,0,0.5,0c0.3,0,0.6,0,0.9,0
					c0.5,0,0.8,0,1.5,0l0,0l0,0c0.1,0,0.1-0.1,0.1-0.2c0-0.1,0-0.2-0.1-0.2l-0.4-0.1c-0.6-0.1-0.6-0.1-0.6-1.4V5.8
					c0-0.3,0-0.3,0.5-0.3H52c0.5,0,0.5,0,0.5,0.3v1.7c0,1.3,0,1.3-0.7,1.4l-0.3,0l0,0c-0.1,0.1-0.1,0.2-0.1,0.3
					c0,0.1,0.1,0.2,0.1,0.2l0,0l0,0c0.6,0,1,0,1.4,0c0.5,0,0.9,0,1.4,0l0,0l0,0c0.1,0,0.1-0.2,0.1-0.2c0-0.1,0-0.2-0.1-0.2l-0.3-0.1
					C53.7,8.8,53.7,8.7,53.7,7.5z M43.9,1.1L43.9,1.1L43.9,1.1c-0.1-0.2-0.2-0.2-0.2-0.2c0,0-0.1,0-0.1,0l0,0l0,0
					c-0.2,0.3-0.2,0.3-0.9,0.3h-5c-0.5,0-0.8,0-0.8-0.3l0,0l0,0c0,0-0.1-0.1-0.2-0.1c0,0-0.1,0-0.2,0l0,0l0,0
					c-0.1,0.5-0.3,1.2-0.5,1.8l0,0l0,0c0.1,0.1,0.3,0.2,0.5,0.1l0,0l0,0c0.1-0.3,0.2-0.5,0.5-0.8c0.3-0.2,0.9-0.3,1.4-0.3h0.7
					c0.3,0,0.3,0,0.3,0.3v5.4c0,1.3-0.1,1.4-0.7,1.4l-0.4,0l0,0c-0.1,0-0.1,0.1-0.1,0.2c0,0.1,0,0.2,0.1,0.2l0,0l0,0
					c0.7,0,1.2,0,1.7,0c0.5,0,0.9,0,1.6,0l0,0l0,0c0.1,0,0.1-0.1,0.1-0.2c0-0.1,0-0.2-0.1-0.2l-0.4-0.1c-0.6-0.1-0.6-0.1-0.6-1.4
					V2.1c0-0.1,0-0.2,0-0.3c0,0,0.1,0,0.2,0h0.8c0.6,0,1.1,0.1,1.3,0.3c0.1,0.1,0.2,0.4,0.3,0.8l0,0l0,0C43.3,3,43.3,3,43.4,3
					c0.1,0,0.2,0,0.2-0.1l0,0l0,0C43.7,2.5,43.7,1.5,43.9,1.1z M35.7,26c0,3.7,1.8,6.3,4.1,7.9c2.1,1.4,4.6,1.9,7.2,1.9
					c1.8,0,3.9-0.4,4.5-0.7c0.3-0.1,0.7-0.2,1-0.3c0.4-0.5,1.2-2.4,1.4-3.9c-0.1-0.2-0.5-0.3-0.7-0.1c-0.7,1.7-2.3,4.1-6,4.1
					c-4.7,0-8.5-3.3-8.5-9.4c0-6,3.7-8.7,8.1-8.7c4.2,0,5.5,2.2,5.9,4.2c0.2,0.2,0.6,0.1,0.8-0.1c-0.2-1.8-0.4-3.6-0.4-4.2
					c-0.3,0-0.5,0-0.8-0.1c-1.4-0.4-3.5-0.7-5.1-0.7c-3,0-5.7,0.8-7.8,2.4C37.1,20,35.7,22.8,35.7,26z M28.2,21.1l0-20
					C12.1-0.5,0,1.1,0,1.1s0,20,0,20c1.3,13.6,14,15.2,14.1,15.1C16.4,35.9,27,33.7,28.2,21.1z M27.5,21
					c-1.1,12.1-11.2,14.2-13.4,14.5C14,35.6,1.9,34,0.7,21c0,0,0-19.2,0-19.2s11.5-1.5,26.8,0V21z M23.4,28.1
					c0.5-0.6,0.7-1.3,0.9-2.1c-0.3,0.3-0.6,0.6-1,0.8C23,27.7,23.1,28.6,23.4,28.1z M23.9,26.2c0.3-0.3,0.5-0.7,0.9-0.9
					c-0.3-0.3-0.6,0.3-0.8,0.1c0.3-0.5,0.5-0.8,0.5-1.4c0-0.3,0.4-0.6,0.5-0.8c-0.3,0-1.3,0.6-1.4,0.9c-0.6,0.8-0.6,1.6-3.2,2.7
					c-0.1,0,0.5-0.4,0.6-0.9c0.1-0.2,0.4-1.3,0.2-1.9c-0.5,0.5-0.4,0.7-0.6,1.1c-0.4,1.1-0.6,1.2-1.6,1.8c-0.1,0.1-0.9,1.2-1.8,1.3
					c0.1,0,0-0.3,0.4-0.5c1.1-0.7,0.7-2.2,2.1-2.5c-0.7-0.2-1.2,0.4-1.3,0.4c0.6-0.8,0.1-1.4,0.1-2.1c-0.2,0.1-0.4,0.3-0.4,0.5
					c-0.1,1.1-0.6,1.3-0.7,1.8c0.1,0.8-0.5,1.4-1,2c-0.1-0.5,0-0.9,0.6-1.3c0.3-0.2,0-0.9,0-0.9c-0.1,0.7-0.5,0.9-0.8,1
					c-0.2,0,0.8-1,0.6-1.9c0-0.4-0.2-0.2-0.2-0.7c-0.8,0.9-0.2,1.5-1.1,2.6c-0.4,0.5-0.6,1.4-0.6,1.4c0-1.3,0.1-0.9,0.6-2
					c0.5-0.9,0-1.7-0.1-2.3c-1.1,0.7-1,2.2-1,1.8c0-0.3-0.2-0.8,0-1.3c0.2-0.8-0.3-2-0.3-2c-1.5,2.3-0.2,5.1-0.3,5
					c-0.6-1-1.1-1.1-1.3-1.8c-0.1-0.4-0.8-2.7-2.3-2.8c0.7,0.6,0.5,0.7,0.6,1.7c-0.5,2.5,3.1,2.8,2.8,4.1c-0.5-0.8-1.2-1.1-2.3-1.7
					c-0.5-0.4-1-0.6-1.1-1.2c0.1-0.4,0.1-0.4,0-0.9c-0.1-0.4-0.5-0.2-0.8-1C9,24.4,9.2,25,9.3,25.4c0,0.1,0.1,0.5,0,0.7
					c-0.2-0.2-0.4-0.5-0.6-0.8C8.2,24.7,8.2,24,8,23.5C7.8,23.3,7.7,23,7.6,23l0,0c-0.1,0.9-0.1,1.7,0.4,2.4c0,0-0.1,0.2-0.2,0.2
					c-0.4-0.1-1-0.4-1.2-1.1c-0.5,0.4-0.1,0.9-0.2,0.9c-1.1-0.6,0-2.8-1.6-2.7c0.4,0.4,0.1,1,0.1,1.5c0,0.8,1,1.5,1,1.5
					c-1.2-0.4-1.4,0.2-1.4,0.2c0,0,1.7,0.7,4.4,1c0.3,0,0.8,0.4,0.8,0.4c-0.3,0-1-0.5-2,0.4c0.6,0,1,1,1.9,0.4
					c2.4-0.7,3.4,0.5,3.8,0.8c-0.1,0.2-1.9-1.1-3.3-0.3c-0.8,0.5-2,0-2.9-0.7c0.4,1,2,2.1,2.6,2.1c0.7,0,1.5-0.9,2.5-0.8
					c1.5,0.1,1.8,1.5,1.6,1.3c0,0-1.2-2-2.8,0.1c0.7-0.3,1.7-0.2,2.6,0.2c0.1,0.1-0.2,0.4-0.4,0.7c-0.1,0.2-0.8,1.1-1.5,0.2
					c-0.1-0.1-0.4-1-2.6-0.8c0.8,0.4,1.8,1.4,2.2,1.8c1.2,1.1,2.9-1.4,3-1.1c0,0.6,0.3,0.8,0.4,1.2c0.4,0.8-0.5,0.6-1,0.4
					c0,0,0.9,1.4,1.7,0.6c0.8-0.9-1.1-1.5-0.5-2.2c0.3-0.4,1.6,0.9,2.1,0.9c1.5,0.2,1.4-1.3,2.2-1.2c-0.7-0.8-1.5-0.3-1.7-0.1
					c-0.5,0.6-1.1,0.2-1.5-0.1c-0.2-0.3-0.6-0.3-0.9-0.2c-0.2,0,0.3-0.5,0.9-0.4c1.4,0.3,2.8-0.2,3.1-0.4c0.6-0.3,0.9-0.8,1.5-1.4
					c-0.2,0-1.3,0.7-1.7,0.9c-1.1,0.6-1.8-0.2-1.9-0.2c-0.2,0-0.2-0.2,0.2-0.3c1.1-0.3,1.9-1.3,3-1.6C21.3,26.8,22.9,27.2,23.9,26.2
					z M21.6,24.7c0,0.2,0,0.4-0.1,0.7c0,0,0.3,0.1,0.4,0.2c0.2-0.2,0.3-0.2,0.5-0.5c0,0-0.8-0.7-0.8-0.6
					C21.6,24.6,21.6,24.6,21.6,24.7z M21.7,25.8c0,0-0.3-0.2-0.3-0.2c0,0.1-0.1,0.3-0.2,0.4C21.2,26.2,21.4,26.1,21.7,25.8z
					 M25,22.9c-0.1-2.6-1.7-5.5-1.2-4.9c1.1,1.3,1.4,4.2,2.2,6.7c0,0,0.5,0.2,0.4-2.9c0-0.6-0.3-1.5-0.6-2.1
					c-0.6-1.2-1.9-3.2-1.9-3.2c0.3-0.2,1.1,1.5,1.7,2.1c0.4,0.4,1.6,0.9,1.7,0.8c-0.9-1.8-3.2-3.5-3-3.8c1.7,1.6,2.2,1.6,2.3,1.6
					L25,15.8c-0.4-0.6-1-1-0.9-1c0.7,0.1-0.4-0.6-1.1-0.8c-0.1,0-0.4-0.1-0.4-0.1c0-0.1,0.2-0.1,0.4-0.1c0.1,0,0.2-0.1,0.2-0.3
					c-0.3,0.1-0.6,0-0.9-0.1c-0.5-0.2-1.5-0.5-1.9-0.4c-0.3,0.1-0.3,0.1-0.6,0.3c-0.1-0.1-0.5-0.3-0.9,0.3c-0.1,0.2-0.3,0.4-0.3,0.5
					c0,0.4,0,0,0.1,0.4c0,0.2-0.1,0.4-0.8,0.7c-0.3,0.1-0.2,0.4-0.2,0.4c0.1-0.1,0.3-0.2,0.7-0.1c0.6,0.3,0.8-0.2,1.2-0.5
					c0,0-0.1,0.4,0,0.4c0.5,0.1,0.3,0.5,0.3,0.5c-0.6,0.6-0.4,0.8-0.6,1.1c-0.2,0.3-0.5,0.5-1,0.4c-0.7,0,0.9-1-0.6-1.5
					c0.2,0.4,0.3,0.7-0.2,1c-0.3,0.2-0.2,1.2-1,0.7c0,0-0.1,0.7-0.2,0.7c1.1,1,0.5,1.5,0.6,3c0.4,0.9,0,1.3-0.1,1.4
					c0.1,0.6,0.1,1,0.5,1.5c0.3,0.4,0,0.9,0.3,1.3c0.3-0.9,0.5-0.5,0.6-1.8c0.1-0.2,0.5-0.6,0.8-0.6c0,0.8,0.3,1.5,0.2,1.8
					c0,0,0.7-0.1,0.9,0c0.2,0.1,0.3,0.3,0.3,0.4c-0.2,0.1-0.2,0.1-0.6,0.3c-0.6,0.4-0.9,1.3-0.9,1.3c0,0,1.4-1.1,1.5-1.3
					c0.1-0.2,0.2-0.4,0.2-0.7c0,0-0.7-0.4-0.9-0.8c-0.6-1.2,1,0.7,1,0.5c0.1-0.4,0.4-0.8,0.4-0.8c-0.1-0.1-0.3-0.2-0.7-0.9
					c-0.9-1.5,1,0.6,1,0.6c0.5-0.3,0.5,0.1,0.6,0.5c0,0,0.8,0.7,0.9,0.7c0.2-0.2,0.4-0.5,0.5-0.7c0,0-1.5-1.4-1.8-1.8
					c-2.1-3.6,1.7,1.6,1.9,1.4c0.1-0.3,0.1-0.7,0.1-1.2c0,0-0.7-0.5-1.2-1.3c-1.8-2.9,1.1,0.9,1.1,0.8c0-0.6-0.5-3.3-0.2-2.5
					c0.2,0.4,0.7,2.1,0.6,3.9C23.9,23.3,24.7,23,25,22.9z M26.2,5.7c0,0.1,0,0.2,0,0.2C26.2,5.9,26.2,5.8,26.2,5.7c0,0,0-1-1.1-1
					c-0.3,0-0.7,0.4-1.8,0v1.6c0.4,0.1,1.6-0.5,2.1-0.7C25.7,5.4,26.1,5.5,26.2,5.7z M23.2,8.1v1.6c0,0,0.9,0,1.9-0.7
					c0.3-0.2,0.8-0.1,1,0.1h0c0,0-0.1-1.1-1-0.9C23.4,8.4,23.2,8.1,23.2,8.1z M17,10.7c0.9,0,4.3,0.9,6,0.8V2.9c0,0-2.4,0.3-4.5-0.4
					c-1.7-0.6-4.1,0.5-4.1,0.5c0,0.3,0,8.5,0,8.5S15.2,10.7,17,10.7z M15.1,7.8c0.1,0,0.3,0,0.4,0c0,0.2,0,1.5,0,1.6
					c0,0.1,0.1,0.2,0.2,0.1c0.1,0,0.1,0,0,0.1c-0.1,0.1-0.3,0.3-0.3,0.4c-0.1-0.1-0.3-0.2-0.3-0.3C15.2,9.5,15.1,8,15.1,7.8z
					 M15.6,6c0.2-0.1,0.8-0.2,1-0.2c0.1,0,0.2,0,0.2,0c0-0.1,0.1,0,0.1,0c0,0,0,0.7,0,0.7c0,0.1-0.1,0.1-0.1,0c0-0.1,0-0.1-0.1-0.2
					c-0.2-0.3-0.8-0.4-1.2,0c-0.1,0.1-0.1,0.4,0,0.4c0.1,0,0.6,0,0.7,0c0.1,0,0.5-0.1,0.5-0.1c0,0,0.1-0.1,0.1,0c0,0.1,0,0.3,0,0.4
					c0,0.1-0.1,0-0.1,0c0,0-0.4-0.1-0.5-0.1c-0.2,0-0.6-0.1-0.7-0.1c-0.1,0,0,0.2,0.1,0.4c0.3,0.4,0.9,0.4,1.1,0.1
					c0.1-0.1,0.1-0.1,0.1-0.2c0-0.1,0.1-0.1,0.1,0c0,0.1,0,0.6,0,0.6c0,0-0.1,0.1-0.1,0c0-0.1-0.1-0.1-0.2-0.1c-0.3,0.1-0.8,0.1-1,0
					C15.3,7.4,15,7.4,15,6.7C15,6.4,15.4,6.1,15.6,6z M17.4,3.3c-0.1,0-0.3,0.2-0.3,0.3c0,0.2-0.5,1.6-0.6,1.7
					c-0.1-0.5-0.6-1.5-0.8-1.8c-0.1-0.2-0.3-0.2-0.4-0.2c-0.1,0-0.1-0.1,0-0.1c0.1,0,0.9,0.1,1.2,0.1c0.1,0,0.1,0.1,0,0.1
					c-0.1,0-0.2,0.1-0.2,0.1c0,0.1,0.3,0.7,0.4,0.8c0.1-0.2,0.3-0.9,0.3-1c-0.1-0.2-0.1-0.2-0.2-0.2c-0.1,0-0.1-0.1,0-0.1
					c0.1,0,0.5-0.1,0.6,0C17.5,3.2,17.5,3.3,17.4,3.3z M18.2,3.4l-0.1,0.1H18l-0.1-0.1l0-0.2L18,2.9l0.2,0.2V3.4z M18.6,5l-0.3,0.3
					h-0.2c-0.1-0.1-0.2-0.2-0.2-0.3l0-0.8l-0.3-0.2c-0.1,0.1-0.2,0.1-0.1,0l0.4-0.4l0.1,0L18.2,4l0,0.9C18.3,5,18.4,5,18.6,5z
					 M20.1,4.1c-0.1,0-0.7,0.1-0.7,0.1c0,0,0,0.8,0.1,0.9c0,0.1,0.1,0.2,0.2,0.1c0.1-0.1,0.1,0,0.1,0.1c0,0-0.2,0.3-0.3,0.4
					c-0.1,0.1-0.2-0.1-0.3-0.3C19,5.1,19,4.5,19,4.2c0,0-0.3-0.1-0.2-0.2c0.3-0.1,0.6-0.5,0.6-0.6c0-0.1,0.1-0.1,0.1,0
					c-0.1,0.2-0.1,0.3,0,0.5c0,0,0.6,0,0.6,0C20.1,3.9,20.1,4.1,20.1,4.1z M19.3,6.8c-0.1,0.3,0.2,0.5,0.4,0.6c0.1,0.1,0.4,0,0.5,0
					c0.1,0,0,0,0.1-0.1c0,0,0.1,0,0.1,0c0,0-0.4,0.4-0.5,0.5c-0.1,0-0.3,0-0.4-0.1c-0.2-0.3-0.4-0.4-0.3-0.9c0-0.3,0.6-0.6,0.8-0.7
					c0.1,0.1,0.3,0.3,0.4,0.4c0,0.1-0.2,0.1-0.3,0.1c-0.1,0-0.2-0.1-0.3-0.2C19.5,6.5,19.4,6.6,19.3,6.8z M21.6,5.4l-0.3,0.4
					c-0.1-0.1-0.2-0.1-0.2-0.3c-0.3,0.1-0.4,0.2-0.6,0.3c-0.1-0.1-0.3-0.4-0.3-0.5c0-0.2,0.1-0.4,0.2-0.5c0,0,0,0,0,0
					c-0.1,0-0.1-0.1-0.2-0.1c0,0,0-0.1,0-0.2c0.1-0.1,0.3-0.4,0.5-0.4c0.1,0,0.3,0,0.6,0.2c0,0,0,0.8,0,0.9
					C21.5,5.3,21.6,5.4,21.6,5.4z M22.3,7.2c-0.1,0-0.2,0-0.3,0c-0.1,0-0.1-0.1,0-0.1c0.1,0,0.2,0,0.3,0C22.4,7,22.4,7.2,22.3,7.2z
					 M22.3,7.4c-0.1,0-0.2,0-0.3,0c-0.1,0-0.1-0.1,0-0.1c0.1,0,0.2,0,0.3,0C22.4,7.3,22.4,7.4,22.3,7.4z M20.5,9
					c0.1-0.1,0.4-0.3,0.5-0.4c0.2,0.1,0.3,0.2,0.3,0.3c0.1-0.1,0.3-0.2,0.3-0.2C21.8,8.8,22,8.9,22,9c0.1-0.1,0.2,0,0.1,0.1
					c-0.1,0.1-0.3,0.2-0.3,0.3c-0.1-0.1-0.3-0.3-0.3-0.3c0,0-0.1,0.1-0.1,0.1c0,0.1,0,1,0,1.1c-0.1,0-0.3,0-0.4,0c0-0.1,0-0.9,0-1
					C20.9,9.1,20.7,9,20.5,9z M20.5,7.3c0-0.4,0.3-0.8,0.8-1c0.4,0.1,0.5,0.5,0.5,0.8c0,0.2-0.1,0.5-0.2,0.7
					c-0.1,0.1-0.3,0.2-0.4,0.4C20.7,8.1,20.5,7.5,20.5,7.3z M18.7,8.8c0.1-0.2,0.3-0.3,0.4-0.3c0.1,0.1,0.2,0.2,0.3,0.3
					c0,0.2,0,0.6,0,0.8c0,0.1,0.6,0.2,0.6,0c0-0.2,0-0.5,0-0.6c0-0.1-0.2-0.1-0.3-0.1c0.2-0.2,0.3-0.3,0.4-0.4
					c0.1,0.1,0.3,0.2,0.3,0.4c0,0.2,0,0.7,0,0.8c0,0.1,0,0.1,0.1,0.2c-0.1,0.1-0.2,0.1-0.2,0.2c-0.1,0-0.3-0.2-0.3-0.3
					c-0.1,0.1-0.5,0.2-0.6,0.3C19.1,9.8,19,9.8,19,9.6c0-0.2,0-0.6,0-0.7C18.9,8.8,18.8,8.8,18.7,8.8z M18.4,7.5
					c-0.1-0.1-0.3-0.3-0.4-0.4c-0.2,0.2-0.2,0.4-0.6,0.5c0.2-0.2,0.4-0.5,0.4-0.9c0-0.3-0.2-0.5-0.3-0.5c-0.1,0.1-0.2,0.1-0.3,0.2
					c-0.1,0-0.1-0.1,0-0.1c0.2-0.1,0.5-0.4,0.6-0.4c0.2,0,0.3,0.2,0.4,0.3c0.1-0.1,0.3-0.3,0.4-0.3c0.1,0.1,0.3,0.3,0.5,0.3
					c-0.2,0.4-0.7,0.1-0.7,0.1c-0.1,0.1-0.1,0.2,0,0.4c0.1,0.2,0.5,0.4,0.7,0.5C18.7,7.1,18.5,7.4,18.4,7.5z M17.8,8.6
					c0,0-0.3-0.1-0.2-0.2c0.2-0.1,0.5-0.4,0.5-0.5c0-0.1,0.1-0.1,0.1,0c0,0.1-0.1,0.3-0.1,0.4c0,0,0.2,0,0.3,0c0,0,0,0.1,0,0.1
					c-0.1,0-0.3,0-0.3,0c0,0,0,0.8,0,0.9c0,0.1,0.2,0.1,0.3,0c0.1-0.1,0.1,0,0.1,0.1c0,0-0.2,0.3-0.3,0.3c-0.1,0-0.3,0-0.4-0.1
					C17.8,9.5,17.8,8.9,17.8,8.6z M17.1,9.8c-0.1-0.1-0.2-0.1-0.3-0.2c-0.3,0.1-0.4,0.3-0.6,0.4c-0.1-0.1-0.2-0.3-0.2-0.5
					c0-0.2,0.2-0.4,0.3-0.5c0,0,0,0,0,0c0,0-0.1-0.3,0-0.4c0.1-0.1,0.3-0.5,0.5-0.5c0.1,0,0.3,0.2,0.4,0.3c0,0,0,0.7,0,0.8
					c0.1,0.1,0.2,0.2,0.3,0.1c0.1-0.1,0.1,0,0.1,0.1C17.4,9.5,17.2,9.8,17.1,9.8z M16.9,9.1c0-0.1,0-0.3,0-0.3
					c0-0.1-0.2-0.2-0.3-0.2c-0.1,0-0.1,0-0.2,0.1c0,0.1,0,0.3,0,0.3C16.6,9.1,16.7,9.1,16.9,9.1z M16.5,9.1c-0.2,0.3,0,0.4,0.1,0.4
					c0.1-0.1,0.2-0.1,0.3-0.2c0-0.1,0-0.2,0-0.3C16.7,9.2,16.6,9.2,16.5,9.1z M20.8,7.3c0.1,0.2,0.4,0.4,0.5,0.5
					c0.1-0.2,0.2-0.5,0.2-0.7c0-0.2-0.3-0.4-0.5-0.5C20.7,6.8,20.7,7.1,20.8,7.3z M20.8,5.5c0.1-0.1,0.2-0.1,0.3-0.1
					c0,0,0-0.1,0-0.1c0,0,0-0.2,0-0.3c-0.2,0-0.3-0.1-0.5-0.2c0,0,0,0,0.1,0C20.5,5.2,20.7,5.5,20.8,5.5z M20.5,4.6
					c0.1,0.1,0.5,0.3,0.6,0.3c0-0.1,0-0.3,0-0.4c0-0.1-0.3-0.3-0.4-0.3c-0.1,0-0.1,0.1-0.2,0.2C20.4,4.6,20.4,4.6,20.5,4.6z
					 M14,12.4c-0.3,0-0.6,0.2-0.7,0.5c-0.2,0.2-0.2-0.3-0.5-0.1c-0.1,0.2,0.2,0.6,0.1,0.6c-0.4,0.1-0.3-0.5-0.5-0.6
					c-0.3,0.1-1.1,0.8-0.3,1.3c0-0.4,0.7-0.8,0.9,0c0.7-0.1,0.9,0.4,1,0.6c1,0.2,0.7,0.9,0.7,0.9c-0.1-0.1-0.5-0.8-1.3-0.4
					c-0.2,0.1-0.5,0.2-0.6,0.1c0,0.2,0.3,0.4,0.5,0.4c0.6-0.2,0.8,0.4,0.3,0.6c0.1,0.2,0.3,0.2,0.5,0c0.3-0.2,0.3-0.3,0.4-0.4
					c0.2,0.8-0.9,0.9-1.2,1c0.1,0.2,0.2,0.2,0.4,0.3c-1.1,0-1.4,1.1-1.3,1.7c0.3,0,0.6-0.5,0.6-0.2c-0.8,0.8-1.1,2-0.6,2.7
					c0.2-0.1,0.3-0.3,0.3-0.5c0,0,0.4,0.2-0.2,0.9c0,0.2-0.3,0.8,0.2,1c0.2-0.2,0.2-0.4,0.2-0.7c0.1-0.1,0.2,0.4,0.2,0.6
					c-0.7,0.3-0.6,2.3,0.2,3.4c-0.4-0.8-0.3-1.8,0-2.6c0.2-0.6,0.8-2,0.8-2c0.3,0.4,0.7,1.9,0.7,2.6c0.4-0.4,0.5-0.8,0.8-1
					c0.2,0.6,0.2,0.9,0.4,1.4c0.2-0.5,0.6-1,0-2.6c0.1-0.1,0.4,0.5,0.4,0.5c0.1,0,0.1-0.4-0.1-1c-0.4-0.4-0.5-1-0.5-1
					c0.1,0,0.3,0.6,0.5,0.6c0-0.5,0.2-1,0.1-1.4c0-0.1-0.2-0.6-0.7-1.1c-0.3-0.2-0.4-0.8-0.4-0.9c0.3,0.2,0.2,0.4,0.4,0.5
					c0.1-0.2,0-1-0.2-1.3c-0.2-0.3-0.1-0.2,0.1-0.1c0.2,0.3,0.1,0.3,0.3,0.4c0.5-1.1,0-1.3,0.1-1.4c0-0.1,0.4,0.5,0.6,0.3
					c-0.5-0.2-0.4-0.6-0.5-1c0-0.3-0.2-0.4-0.2-0.5c0.5,0.3,0.6,0,0.6-0.1c-0.1,0-0.5,0.1-0.5-0.5c0-0.3-0.4-0.4-0.4-0.4
					c0.2,0,1-0.1,0.8-0.8c-0.1,0.2-0.3,0.5-0.8,0.3c0,0,0.3-0.1,0.2-0.4C15.4,13.2,14.8,12.3,14,12.4z M15.4,13.4
					c-0.5,0.1-0.8,0.6-1.4,0.4c-0.1,0-0.2-0.1-0.2-0.2c0.1,0.1,0.3,0.1,0.4,0.1c0,0-0.3-0.2,0-0.5c-0.3,0.2-0.4,0.2-0.4,0
					c0,0,0.4-0.4,0.8-0.2C14.8,13.1,15,13.4,15.4,13.4L15.4,13.4z M14.6,13.4c0,0.1-0.1,0.3-0.1,0.3l0.5-0.3
					c-0.1-0.1-0.4-0.2-0.5-0.3C14.4,13.2,14.6,13.3,14.6,13.4z M11.5,10.7c1.3,0.1,2.4,0.7,2.4,0.7V2.9c0,0-1.9-1.4-5.1-0.1
					C7.9,3.1,5.7,2.8,5.7,2.8v8.7C7.6,11.6,10.2,10.6,11.5,10.7z M10.5,6.1c0.3,0.1,0.6,0,0.7,0.4c0.1,0.4-0.1,0.8-0.4,0.8
					c-0.2,0-0.5-0.1-0.6-0.1c-0.1,0-0.1,0-0.1,0.1c0,0.1-0.1,0.1-0.1,0c0-0.1,0-0.5,0-0.6c0-0.1,0.1-0.1,0.1,0
					c0,0.1,0.1,0.2,0.2,0.3c0.1,0.1,0.6,0.2,0.7,0.1c0.1-0.1,0.1-0.4,0-0.5c-0.1-0.1-0.7-0.2-0.8-0.4c-0.2-0.3,0.1-0.5,0.3-0.6
					c0.2-0.1,0.5-0.1,0.5-0.1c0.1,0,0.2,0,0.2-0.1c0-0.1,0.1-0.1,0.1,0c0,0.3,0.1,0.1,0,0.4c0,0.1,0,0.1-0.1,0
					c0-0.1-0.4-0.4-0.7-0.2C10.2,5.9,10.3,6,10.5,6.1z M11.3,7.8C11.2,7.9,11.1,8,11,8.1c-0.1-0.1-0.2-0.2-0.3-0.2
					c0.2-0.1,0.2-0.2,0.3-0.3C11,7.8,11.2,7.8,11.3,7.8z M9.7,8.5C9.8,8.4,10,8,10.1,7.9c0-0.1,0.1-0.1,0.1,0c0,0.1-0.1,0.5-0.1,0.5
					c0,0,0.2,0,0.3,0c0,0,0,0.1,0,0.1c-0.1,0-0.3,0-0.3,0c0,0,0,0.5,0,0.6c0.1,0.1,0.2,0.2,0.3,0c0.1-0.1,0.1,0,0.1,0.1
					c0,0-0.2,0.3-0.3,0.4c0,0.1-0.3,0-0.4-0.1C9.7,9.4,9.8,9,9.8,8.7C9.8,8.7,9.5,8.6,9.7,8.5z M9.5,7.5c-0.1,0.1-0.3,0-0.3-0.2
					C9,7.1,9.1,6.7,9.1,6.3c0,0-0.1-0.1-0.1-0.1c-0.1,0-0.1-0.1,0-0.1c0.2-0.1,0.4-0.5,0.5-0.6c0-0.1,0.1,0,0,0.1
					c-0.1,0.2-0.1,0.5,0,0.5c0,0,0.3,0,0.4,0c0,0,0,0.1,0,0.1c-0.1,0-0.5,0.1-0.5,0.1c0,0,0,0.7,0.1,0.8c0,0,0.1,0.1,0.2,0.1
					c0.1-0.1,0.1,0,0.1,0.1C9.7,7.3,9.6,7.4,9.5,7.5z M7.9,8.5c0.2-0.1,0.2-0.2,0.4-0.3c0.1,0.2,0.1,0.3,0.2,0.4
					c0.1-0.1,0.3-0.2,0.4-0.3c0.1,0,0.2,0.1,0.2,0.4c0,0.3,0,0.8,0,0.9c0,0.1,0,0,0.1,0c0.1,0,0.1,0,0.1,0.1C9.3,9.7,9,9.9,8.9,10
					C8.8,9.8,8.8,9.6,8.8,9.4c0-0.2,0-0.6,0-0.7c0-0.1-0.1-0.1-0.2-0.2C8.5,8.6,8.5,8.7,8.4,8.7c0,0.1,0,1,0,1.1c-0.2,0-0.2,0-0.3,0
					c0-0.2,0-0.9,0-1C8.1,8.7,8,8.6,7.9,8.5z M6.6,9c0.1-0.6,0.7-0.8,0.8-0.9c0,0.2,0.2,0.5,0.4,0.6C7.6,8.8,7.1,9.2,6.9,9.3
					C7,9.5,7.4,9.6,7.5,9.5c0.1-0.1,0.2-0.1,0.1,0.1C7.5,9.7,7.3,9.9,7.3,10C7,9.9,6.5,9.6,6.6,9z M6.4,6.3c0.1-0.2,0.5-0.4,0.7-0.5
					C7.2,5.9,7.3,6,7.4,6.2C7.3,6.2,7.2,6.4,7.1,6.4c0-0.1-0.3-0.5-0.5-0.2C6.5,6.4,6.4,6.8,6.7,7.1c0.2,0.1,0.4,0.2,0.6,0.1
					C7.2,7.4,7.2,7.5,7.1,7.6c-0.3,0.1-0.5,0-0.6-0.2C6.1,7.1,6.2,6.6,6.4,6.3z M8,5.5C7.9,5.4,7.9,5.4,7.8,5.4
					c-0.3,0.1-0.6,0.2-0.9,0C6.6,5.3,6.4,5.2,6.4,4.6c0-0.4,0.3-0.6,0.5-0.8c0.2-0.1,0.6,0,0.8,0c0.1,0,0.2,0,0.2-0.1
					c0-0.1,0.1,0,0.1,0c0,0.1,0,0.8,0,0.8c0,0.1-0.1,0.1-0.1,0c0-0.1,0-0.2-0.1-0.4c0-0.2-0.5-0.5-0.9-0.1c0,0-0.2,0.3-0.1,0.5
					c0,0.1,0,0.3,0.1,0.5c0.3,0.4,0.7,0.3,0.9-0.1C7.9,5,7.9,4.8,7.9,4.7c0-0.1,0.1-0.1,0.1,0c0,0.1,0,0.5,0,0.6
					C8,5.4,8,5.4,8.1,5.5C8.1,5.6,8.1,5.7,8,5.5z M8.2,6c0.1,0,0.2,0.3,0.4,0.4c0,0,0,0.8,0,0.9c0,0,0.1,0.1,0.2,0.1
					c0.1-0.1,0.1,0,0.1,0.1C8.7,7.4,8.4,7.6,8.4,7.7C8.3,7.6,8.3,7.5,8.2,7.4c-0.2,0-0.3,0.1-0.4,0.3C7.7,7.6,7.5,7.4,7.5,7.3
					c0-0.2,0.1-0.3,0.2-0.4c0,0,0,0-0.1-0.1c0,0-0.1-0.3-0.1-0.4C7.7,6.2,8,6,8.2,6z M9.7,4C9.6,4.1,9.4,4.2,9.3,4.2
					C9.3,4.2,9.1,4,9.1,4C9.1,4,9,4,9,4.1c0,0.1,0,1,0,1.2c-0.1,0-0.2,0-0.3,0c0-0.1,0-0.9,0-1C8.6,4.1,8.5,4,8.3,4
					c0.1-0.1,0.3-0.3,0.4-0.3C8.8,3.8,8.9,3.8,9,3.9c0.1-0.1,0.3-0.2,0.3-0.2C9.4,3.7,9.5,3.9,9.7,4C9.7,3.9,9.7,3.9,9.7,4z M11,4.9
					c-0.1,0-0.3,0.2-0.4,0.2c-0.4,0-0.9-0.3-0.9-0.9c0.1-0.6,0.5-0.8,0.7-0.8c0.2,0,0.3,0.2,0.4,0.3c-0.2,0.2-0.5,0.5-0.7,0.7
					c0,0.1,0.3,0.5,0.7,0.3C11.2,4.7,11.2,4.8,11,4.9z M12.7,3.9c0,0.1-0.2,0.2-0.4,0.3c0,0,0.1,0,0.1,0c0.3,0.2,0.4,0.4,0.1,0.7
					c-0.2,0.1-0.4,0.3-0.7,0.3c-0.2,0-0.6-0.2-0.6-0.2c0.2-0.2,0.3-0.3,0.5-0.4c-0.2-0.1-0.4-0.4-0.2-0.6c0.1-0.2,0.5-0.5,0.8-0.4
					C12.4,3.6,12.6,3.8,12.7,3.9z M12.9,5.5l0.2,0.2v0.2L12.9,6h-0.1l-0.1-0.1l0-0.2L12.9,5.5z M13.2,4.6c-0.4,0-0.3-0.2-0.2-0.2
					C13.4,4.4,13.3,4.6,13.2,4.6z M13.2,4.8c-0.4,0-0.3-0.2-0.2-0.2C13.4,4.7,13.3,4.8,13.2,4.8z M13.4,7.4l-0.2,0.2l-0.2,0.2
					c-0.1-0.1-0.2-0.2-0.2-0.2l0-0.8l-0.2-0.1c-0.1,0.1-0.2,0.1-0.1,0l0.4-0.3l0.1,0l0.2,0.2l0,0.8C13.2,7.4,13.2,7.4,13.4,7.4z
					 M11.8,9.4c0-0.2,0.1-0.3,0.2-0.5c0,0,0,0,0,0c0,0-0.1-0.4-0.1-0.4c0.1-0.1,0.4-0.4,0.5-0.4c0.1,0,0.3,0.3,0.4,0.4
					c0,0,0,0.8,0,0.9c0,0.1,0.2,0.1,0.2,0c0.1-0.1,0.1,0,0.1,0.1C13.2,9.6,13,9.8,13,9.8c-0.1-0.1-0.2-0.1-0.3-0.3
					c-0.2,0-0.4,0.2-0.6,0.3C11.9,9.8,11.8,9.6,11.8,9.4z M11.5,7.1c-0.1-0.3,0.1-0.7,0.2-0.7C11.8,6.2,12,6.1,12.1,6
					c0.1,0.1,0.2,0.1,0.3,0.2c0,0.1-0.1,0.2-0.2,0.2c-0.2,0-0.4,0-0.5,0.1c-0.1,0.1,0,0.4,0.1,0.6c0.1,0.1,0.4,0.2,0.4,0.1
					c0.1-0.1,0.2-0.1,0.1,0.1c-0.1,0.1-0.2,0.3-0.2,0.4C11.9,7.5,11.6,7.4,11.5,7.1z M11.6,9.4l-0.2,0.2l-0.1,0.2
					c-0.1-0.1-0.2-0.1-0.2-0.2l0-0.8l-0.2-0.1c-0.1,0.1-0.2,0.1-0.1,0l0.4-0.3l0.1,0l0.2,0.3l0,0.7C11.5,9.4,11.4,9.4,11.6,9.4z
					 M12.2,9.1c-0.3,0.2,0,0.4,0.1,0.5c0.1,0,0.2-0.1,0.3-0.1c0,0,0-0.1,0-0.1c0,0,0-0.1,0-0.2C12.4,9.1,12.3,9.1,12.2,9.1z M12.5,9
					c0-0.1,0-0.3,0-0.3c0-0.1-0.3-0.3-0.3-0.3c-0.1,0-0.1,0-0.1,0.1c0,0.1,0,0.2,0,0.3C12.3,9,12.4,9,12.5,9z M12,4.3
					c0.1-0.1,0.2-0.1,0.2-0.2c-0.1-0.1-0.3-0.2-0.4-0.2c-0.1,0-0.3,0.1-0.2,0.2c0.1,0.1,0.1,0.2,0.3,0.2C11.9,4.3,12,4.3,12,4.3z
					 M11.9,4.6c-0.1,0.1-0.3,0.2-0.3,0.3c0,0.1,0.4,0.3,0.6,0.2c0.2-0.1,0.3-0.3,0.1-0.4C12.1,4.7,12,4.6,11.9,4.6z M10.2,4.3
					c0.1-0.1,0.3-0.3,0.4-0.4c-0.1,0-0.2-0.1-0.3-0.3C10.1,3.8,10.1,4,10.2,4.3z M8.2,7.3c0,0,0-0.1,0-0.1c0,0,0-0.2,0-0.3
					C8.1,7,8,7,7.9,6.9C7.6,7.1,8,7.3,8.1,7.3C8.1,7.3,8.2,7.3,8.2,7.3z M8.2,6.8c0-0.1,0-0.2,0-0.3c0-0.1-0.2-0.3-0.2-0.3
					c-0.1,0-0.2,0.1-0.2,0.2c0,0.1,0,0.2,0,0.3C7.9,6.9,8,6.9,8.2,6.8z M7.1,8.4C6.6,8.7,6.7,9,6.9,9.2C7,9.2,7.3,8.9,7.4,8.8
					C7.3,8.8,7.2,8.5,7.1,8.4z M4.2,9.5h1.1V8.5H4.2V9.5z M4.2,5.9h1.1V4.8H4.2V5.9z M2.9,8c-1.3,0-1.3,1.8,0,1.8
					C4.2,9.8,4.2,8,2.9,8z M2.9,4.3c-1.2,0-1.2,1.8,0,1.8C4.2,6.2,4.2,4.3,2.9,4.3z M13.7,15.1c-0.1-0.2-0.2-0.3-0.4-0.4
					c-0.7-0.3-2.1,0.4-2.1-0.7c0,0-0.5,0.4-0.3,0.7C11.5,15.6,13,14.6,13.7,15.1z M7.3,23.8c-0.4,0.4-0.5,0.4-0.5,0.6
					c0.1,0.2,0.3,0.4,0.5,0.6c0.2,0.2,0.3,0.4,0.2-0.2C7.3,24.5,7.3,24.2,7.3,23.8z M4.5,16.3L4.5,16.3c0,0.8-2.3,2-3.3,2.6
					c1.5,0.5,3-0.9,2.8-0.6c-0.2,0.4-2.1,2-2.9,2.9c0.6,0.2,1.2-0.3,1.7-0.7c0.5-0.4,1.3-1.5,1.2-1c-1.4,1.7-2.4,5.2-1.8,5.4
					c0.4-0.8,1.9-4.8,2-4.8c0.1,0-0.1,1.1-0.2,1.8c-0.1,1.5-0.1,2.2,0.2,3.7c0.2-0.2,0.3-0.2,0.6-0.2c0-0.1,0-0.1-0.1-0.3
					c-0.4-0.6,0.1-1.4-0.1-1.8c-0.2-0.4-0.3-0.1-0.4-0.5c0.1-0.1,0.4-0.1,0.6-0.2c0.1-1.6,0.7-2.4,0.5-1.4c-0.1,0.5-0.3,1.3-0.2,1.4
					c0.1,0,0.1,0,0.1,0.1c0,0,2.6-4.3,1.2-1.3c-0.2,0.4-1,1.4-1,1.4C5.8,22.9,6,23.1,6,23.3c0,0,3.5-4.6,1.1-0.9
					c-0.1,0.2-0.9,1-1,1.2c0,0,0.1,0.9,0.1,0.9c0.4-0.3,0.9-0.8,1.1-1.1c0-0.5,0.1-0.4,0.1-0.9c0.1-0.1,0.3,0.1,0.4,0.3
					c0.1,0.1,2.4-3.9,0.9-0.9C8.5,22.4,8,23,8,23c0.1,0.1,0.2,0.4,0.4,0.8c0,0,3.1-4.4,1.2-1.1c-0.1,0.3-1.1,1.4-1.1,1.4
					C8.8,24.7,9,25.3,9,25.3c-0.1-0.4-0.1-1.3,0.8-2c0.1,0.8,0.3,0.8,0.6,1c0.1,0.1,0.3,0.5,0.4,0.2c0.1-1.1-0.3-1.1-0.5-1.5
					c-0.1-0.1-0.1-0.4,0-0.3c2.2,0.1,2.1,2.1,2.5,2.1c-0.2-0.5-0.2-1,0-1.5c-0.6-0.4-0.4-1.1-0.3-1.5c-0.7-0.7-0.3-2.2,0-2.5
					c-0.4-0.6,0.1-1,0-1.4c-0.2-1.4-1.4-1-1.7-2.2c-0.2,0.2-0.5,1-0.4,1.3c0.2,0.3,0.6,0.3,0.6,0.5c0,0.1,0,0.4,0,0.4
					c-0.2,0-0.4-0.2-0.6-0.3c-0.5-0.2-1.6,0.6-1.7-0.1c0-0.4,0.1-0.1,0.1-0.5c0-0.4-0.2-0.1-0.2-0.7C8.5,16,9,15.8,9,15.7
					c0.1-0.4,0.8,0.6,1.2-0.4c-0.2,0-0.7-0.1-0.7-0.4c0.1-0.6,0.1-2.2-1.3-1.8c-0.5,0.1-1.9,0.9-2.1,0.1c-0.5,0.9,0.5,0.8,0.8,0.7
					c-0.1,0.1-0.3,0.2-0.7,0.1c-0.8,0.5-3.8,2.4-4.6,2.9C2.7,17.4,4.5,16.3,4.5,16.3z M5.4,26.5c-0.3-0.1-0.6-0.2-0.8-0.4
					c0.2,0.6,0.3,1.1,0.7,1.8C5.4,28.3,5.7,27.4,5.4,26.5z"/>
			</g>
		</g>
	</g>
</g>
</svg>
