<?xml version="1.0" encoding="utf-8"?>
<!-- Generator: Adobe Illustrator 22.1.0, SVG Export Plug-In . SVG Version: 6.00 Build 0)  -->
<svg version="1.1" id="Layer_1" xmlns="http://www.w3.org/2000/svg" xmlns:xlink="http://www.w3.org/1999/xlink" x="0px" y="0px"
	 viewBox="0 0 119.6 70.9" style="enable-background:new 0 0 119.6 70.9;" xml:space="preserve">
<style type="text/css">
	.st0{fill:#3283C8;stroke:#000000;stroke-width:0.5;stroke-miterlimit:10;}
	.st1{filter:url(#Adobe_OpacityMaskFilter);}
	.st2{fill:#FFFFFF;}
	.st3{mask:url(#mask-4_7_);}
	.st4{filter:url(#Adobe_OpacityMaskFilter_1_);}
	.st5{mask:url(#mask-6_7_);}
	.st6{filter:url(#Adobe_OpacityMaskFilter_2_);}
	.st7{mask:url(#mask-8_7_);}
	.st8{filter:url(#Adobe_OpacityMaskFilter_3_);}
	.st9{mask:url(#mask-10_7_);}
	.st10{filter:url(#Adobe_OpacityMaskFilter_4_);}
	.st11{mask:url(#mask-12_7_);}
	.st12{filter:url(#Adobe_OpacityMaskFilter_5_);}
	.st13{mask:url(#mask-14_7_);}
	.st14{filter:url(#Adobe_OpacityMaskFilter_6_);}
	.st15{mask:url(#mask-16_7_);}
</style>
<title>fresh</title>
<g id="Symbols_4_">
	<g id="Page-1_4_">
		<path id="Fill-1_4_" class="st0" d="M0.7,26.1c0-15.8,9.4-23.7,19.5-23.7c6.1,0,9.6,1.7,13.2,5.1l-3.5,3.6
			c-2.8-2.6-5.9-3.8-9.7-3.8C13.5,7.3,7,12,7,26.1C7,39.5,11.2,45,19.3,45c3.2,0,6.2-0.7,8.8-2.2v-14H19l-0.7-4.9h15.6v21.9
			c-4.2,2.3-8.6,4-15.2,4C7.8,49.8,0.7,42,0.7,26.1"/>
		<polygon id="Fill-3_4_" class="st0" points="42.9,31.1 55,31.1 55,34.4 42.9,34.4 42.9,45.8 57.7,45.8 57.7,49.1 38.8,49.1 
			38.8,16.9 57.3,16.9 56.8,20.3 42.9,20.3 		"/>
		<path id="Fill-5_4_" class="st0" d="M64.7,20.8c0.1,1.4,0.6,7.2,0.6,12.2v16.1h-3.8V16.9h5.6l11.7,28.4c0-1.3-0.6-6.5-0.6-12.3
			V16.9H82v32.2h-5.8L64.7,20.8z"/>
		<g id="Group-9_4_" transform="translate(42.051282, 0.077156)">
			<g id="Clip-8_4_">
			</g>
			<path id="Fill-7_4_" class="st0" d="M59.6,27.2v-6.1c3,0,5.1-0.3,6.1-1c1.9-1.2,2.8-3.1,2.8-5.7c0-2-0.7-3.6-2-4.9
				c-1.3-1.3-3.1-1.9-5.2-1.9c-2,0-3.5,0.5-4.6,1.4c-1,1-1.8,2.6-2.3,4.9h-7.1c0.7-4.4,2.3-7.7,4.5-9.7c2.3-2.1,5.5-3.1,9.6-3.1
				c4.2,0,7.5,1.2,10.2,3.7c2.6,2.4,3.9,5.5,3.9,9.3c0,4.3-1.7,7.6-5.2,10c3.9,2.3,5.9,6,5.9,11.2c0,4.2-1.4,7.7-4.3,10.3
				c-2.9,2.7-6.5,4-11,4c-5.7,0-10-2.1-12.7-6.2c-1.1-1.7-1.9-4.2-2.2-7.2h6.9c0.4,2.3,1.3,4,2.7,5.2c1.4,1.2,3.3,1.8,5.6,1.8
				c2.3,0,4.2-0.8,5.7-2.3c1.5-1.6,2.3-3.5,2.3-5.9c0-3.2-1.1-5.4-3.4-6.8C64.5,27.6,62.4,27.2,59.6,27.2"/>
		</g>
		<g id="Group-12_4_" transform="translate(0.000000, 25.981917)">
			<g id="Clip-11_4_">
			</g>
		</g>
		<g id="Group-23_4_" transform="translate(25.128205, 25.981917)">
			<g id="Clip-22_4_">
			</g>
		</g>
	</g>
</g>
<g>
	<g>
		<g id="Group-12_10_" transform="translate(0.000000, 25.981917)">
			<defs>
				<filter id="Adobe_OpacityMaskFilter" filterUnits="userSpaceOnUse" x="3.8" y="33.3" width="7.7" height="10.7">
					<feColorMatrix  type="matrix" values="1 0 0 0 0  0 1 0 0 0  0 0 1 0 0  0 0 0 1 0"/>
				</filter>
			</defs>
			<mask maskUnits="userSpaceOnUse" x="3.8" y="33.3" width="7.7" height="10.7" id="mask-4_7_">
				<g class="st1">
					<polygon id="path-3_7_" class="st2" points="3.8,33.3 11.5,33.3 11.5,44 3.8,44 					"/>
				</g>
			</mask>
			<path id="Fill-10_9_" class="st3" d="M6.7,34.7h-1v8h1c1.5,0,2.9-0.8,2.9-4C9.6,35.2,8.1,34.7,6.7,34.7 M6.5,44H3.8V33.3h2.5
				c2.6,0,5.2,0.9,5.2,5.3C11.5,43,8.9,44,6.5,44"/>
		</g>
		<g id="Group-15_9_" transform="translate(4.615385, 26.997790)">
			<defs>
				<filter id="Adobe_OpacityMaskFilter_1_" filterUnits="userSpaceOnUse" x="9.4" y="34.6" width="7.5" height="8.6">
					<feColorMatrix  type="matrix" values="1 0 0 0 0  0 1 0 0 0  0 0 1 0 0  0 0 0 1 0"/>
				</filter>
			</defs>
			<mask maskUnits="userSpaceOnUse" x="9.4" y="34.6" width="7.5" height="8.6" id="mask-6_7_">
				<g class="st4">
					<polygon id="path-5_7_" class="st2" points="9.4,34.6 16.8,34.6 16.8,43.2 9.4,43.2 					"/>
				</g>
			</mask>
			<path id="Fill-13_9_" class="st5" d="M14.5,40.8V39h-1c-1.6,0-2.3,0.6-2.3,1.5c0,0.9,0.5,1.3,1.4,1.3
				C13.3,41.9,14.1,41.5,14.5,40.8 M16.8,42l-0.4,1.2c-0.8-0.1-1.4-0.4-1.7-1.1c-0.6,0.8-1.6,1.1-2.6,1.1c-1.7,0-2.7-1-2.7-2.5
				c0-1.7,1.4-2.7,3.9-2.7h1.2v-0.5c0-1.1-0.7-1.5-1.8-1.5c-0.5,0-1.4,0.1-2.2,0.4L10,35.1c1-0.4,2.1-0.6,2.9-0.6
				c2.2,0,3.3,1,3.3,2.7V41C16.2,41.6,16.4,41.9,16.8,42"/>
		</g>
		<path id="Fill-16_9_" d="M27.7,70.2c-1.9,0-2.9-1.1-2.9-2.7V63h-1.8v-1.3h1.8v-1.8l1.8-0.2v2h2.8L29.1,63h-2.6v4.4
			c0,0.9,0.4,1.3,1.4,1.3c0.6,0,1.1-0.2,1.5-0.4l0.6,1.1C29.5,69.9,28.6,70.2,27.7,70.2"/>
		<g id="Group-20_9_" transform="translate(14.871795, 26.997790)">
			<defs>
				<filter id="Adobe_OpacityMaskFilter_2_" filterUnits="userSpaceOnUse" x="17.6" y="34.6" width="7.5" height="8.6">
					<feColorMatrix  type="matrix" values="1 0 0 0 0  0 1 0 0 0  0 0 1 0 0  0 0 0 1 0"/>
				</filter>
			</defs>
			<mask maskUnits="userSpaceOnUse" x="17.6" y="34.6" width="7.5" height="8.6" id="mask-8_7_">
				<g class="st6">
					<polygon id="path-7_7_" class="st2" points="17.6,34.6 25.1,34.6 25.1,43.2 17.6,43.2 					"/>
				</g>
			</mask>
			<path id="Fill-18_9_" class="st7" d="M22.8,40.8V39h-1c-1.6,0-2.3,0.6-2.3,1.5c0,0.9,0.5,1.3,1.4,1.3
				C21.6,41.9,22.3,41.5,22.8,40.8 M25.1,42l-0.4,1.2c-0.8-0.1-1.4-0.4-1.7-1.1c-0.6,0.8-1.6,1.1-2.6,1.1c-1.7,0-2.7-1-2.7-2.5
				c0-1.7,1.4-2.7,3.9-2.7h1.2v-0.5c0-1.1-0.7-1.5-1.8-1.5c-0.5,0-1.4,0.1-2.2,0.4l-0.4-1.2c1-0.4,2.1-0.6,2.9-0.6
				c2.2,0,3.3,1,3.3,2.7V41C24.5,41.6,24.7,41.9,25.1,42"/>
		</g>
		<g id="Group-23_10_" transform="translate(25.128205, 25.981917)">
			<defs>
				<filter id="Adobe_OpacityMaskFilter_3_" filterUnits="userSpaceOnUse" x="22.9" y="33.1" width="8.2" height="11.1">
					<feColorMatrix  type="matrix" values="1 0 0 0 0  0 1 0 0 0  0 0 1 0 0  0 0 0 1 0"/>
				</filter>
			</defs>
			<mask maskUnits="userSpaceOnUse" x="22.9" y="33.1" width="8.2" height="11.1" id="mask-10_7_">
				<g class="st8">
					<polygon id="path-9_7_" class="st2" points="22.9,33.1 31.1,33.1 31.1,44.2 22.9,44.2 					"/>
				</g>
			</mask>
			<path id="Fill-21_9_" class="st9" d="M30.9,34.2L30,35.3c-0.7-0.5-1.4-0.8-2.2-0.8c-1.6,0-3,1.1-3,4.1c0,3,1.3,4.1,3,4.1
				c1.2,0,1.8-0.4,2.4-0.9l0.9,1.1c-0.7,0.7-1.8,1.3-3.4,1.3c-2.8,0-4.8-1.9-4.8-5.6c0-3.6,2.2-5.6,4.8-5.6
				C29.1,33.1,30,33.5,30.9,34.2"/>
		</g>
		<g id="Group-26_9_" transform="translate(30.256410, 26.997790)">
			<defs>
				<filter id="Adobe_OpacityMaskFilter_4_" filterUnits="userSpaceOnUse" x="28.2" y="34.6" width="7.5" height="8.6">
					<feColorMatrix  type="matrix" values="1 0 0 0 0  0 1 0 0 0  0 0 1 0 0  0 0 0 1 0"/>
				</filter>
			</defs>
			<mask maskUnits="userSpaceOnUse" x="28.2" y="34.6" width="7.5" height="8.6" id="mask-12_7_">
				<g class="st10">
					<polygon id="path-11_7_" class="st2" points="28.2,34.6 35.7,34.6 35.7,43.2 28.2,43.2 					"/>
				</g>
			</mask>
			<path id="Fill-24_9_" class="st11" d="M30.1,38.9c0,2,0.6,3,1.9,3c1.3,0,1.9-0.9,1.9-3c0-2-0.6-2.9-1.9-2.9
				C30.7,35.9,30.1,36.8,30.1,38.9 M35.7,38.9c0,2.6-1.3,4.3-3.7,4.3c-2.4,0-3.7-1.6-3.7-4.3c0-2.6,1.3-4.3,3.8-4.3
				C34.4,34.6,35.7,36.3,35.7,38.9"/>
		</g>
		<path id="Fill-27_9_" d="M76.5,63.9V70H75v-5.8c0-0.9-0.1-1.2-0.5-1.2c-0.4,0-0.8,0.2-1.2,0.8V70h-1.4v-5.8c0-0.9-0.1-1.2-0.5-1.2
			c-0.4,0-0.8,0.2-1.2,0.8V70h-1.6v-8.2h1.3l0.1,0.9c0.5-0.7,1-1.1,1.8-1.1c0.6,0,1.2,0.3,1.4,1c0.5-0.6,1-1,1.8-1
			C75.8,61.6,76.5,62.1,76.5,63.9"/>
		<path id="Fill-29_9_" d="M87,63.9V70h-1.5v-5.8c0-0.9-0.1-1.2-0.5-1.2c-0.4,0-0.8,0.2-1.2,0.8V70h-1.4v-5.8c0-0.9-0.1-1.2-0.5-1.2
			c-0.4,0-0.8,0.2-1.2,0.8V70H79v-8.2h1.3l0.1,0.9c0.5-0.7,1-1.1,1.8-1.1c0.6,0,1.2,0.3,1.4,1c0.5-0.6,1-1,1.8-1
			C86.3,61.6,87,62.1,87,63.9"/>
		<g id="Group-33_9_" transform="translate(45.641026, 26.997790)">
			<defs>
				<filter id="Adobe_OpacityMaskFilter_5_" filterUnits="userSpaceOnUse" x="44" y="34.6" width="7.5" height="8.6">
					<feColorMatrix  type="matrix" values="1 0 0 0 0  0 1 0 0 0  0 0 1 0 0  0 0 0 1 0"/>
				</filter>
			</defs>
			<mask maskUnits="userSpaceOnUse" x="44" y="34.6" width="7.5" height="8.6" id="mask-14_7_">
				<g class="st12">
					<polygon id="path-13_7_" class="st2" points="44,34.6 51.5,34.6 51.5,43.2 44,43.2 					"/>
				</g>
			</mask>
			<path id="Fill-31_9_" class="st13" d="M45.8,38.9c0,2,0.6,3,1.9,3c1.3,0,1.9-0.9,1.9-3c0-2-0.6-2.9-1.9-2.9
				C46.5,35.9,45.8,36.8,45.8,38.9 M51.5,38.9c0,2.6-1.3,4.3-3.7,4.3c-2.4,0-3.7-1.6-3.7-4.3c0-2.6,1.3-4.3,3.8-4.3
				C50.2,34.6,51.5,36.3,51.5,38.9"/>
		</g>
		<path id="Fill-34_9_" d="M100.2,61.8h1.5l0.1,1.1c0.7-0.8,1.7-1.3,2.7-1.3c1.5,0,2.3,0.9,2.3,2.4v6h-1.8v-5.1c0-1.4-0.2-2-1.2-2
			c-0.8,0-1.5,0.6-1.9,1.2V70h-1.8V61.8z"/>
		<g id="Group-38_9_" transform="translate(55.897436, 26.997790)">
			<defs>
				<filter id="Adobe_OpacityMaskFilter_6_" filterUnits="userSpaceOnUse" x="53.3" y="34.6" width="7" height="8.6">
					<feColorMatrix  type="matrix" values="1 0 0 0 0  0 1 0 0 0  0 0 1 0 0  0 0 0 1 0"/>
				</filter>
			</defs>
			<mask maskUnits="userSpaceOnUse" x="53.3" y="34.6" width="7" height="8.6" id="mask-16_7_">
				<g class="st14">
					<polygon id="path-15_7_" class="st2" points="53.3,34.6 60.4,34.6 60.4,43.2 53.3,43.2 					"/>
				</g>
			</mask>
			<path id="Fill-36_9_" class="st15" d="M58.5,40.7c0-0.7-0.3-1-2-1.4c-1.6-0.4-2.7-1-2.7-2.4c0-1.4,1.3-2.4,3.3-2.4
				c1.4,0,2.4,0.4,3.1,0.9l-0.8,1.1c-0.6-0.4-1.4-0.7-2.3-0.7c-1.1,0-1.6,0.4-1.6,0.9c0,0.6,0.5,0.9,2.1,1.3c1.6,0.4,2.7,1,2.7,2.5
				c0,1.8-1.8,2.5-3.6,2.5c-1.5,0-2.6-0.5-3.4-1.1l0.9-1.1c0.6,0.5,1.5,0.9,2.5,0.9C57.8,41.9,58.5,41.4,58.5,40.7"/>
		</g>
	</g>
</g>
</svg>
