<?xml version="1.0" encoding="UTF-8"?>
<svg width="125px" height="71px" viewBox="0 0 125 71" version="1.1" xmlns="http://www.w3.org/2000/svg" xmlns:xlink="http://www.w3.org/1999/xlink">
    <!-- Generator: Sketch 51.2 (57519) - http://www.bohemiancoding.com/sketch -->
    <title>icon-devs</title>
    <desc>Created with Sketch.</desc>
    <defs></defs>
    <g id="Welcome" stroke="none" stroke-width="1" fill="none" fill-rule="evenodd">
        <g id="Desktop-1.1-about" transform="translate(-1061.000000, -1321.000000)">
            <g id="icon-devs" transform="translate(1061.000000, 1321.000000)">
                <g id="floor" transform="translate(0.000000, 29.538462)">
                    <path d="M66.1275175,0.887133333 C64.0783492,0.381966667 60.9670329,0.250133333 58.799992,0.887133333 L1.51135881,17.4864667 C-0.504131682,19.3018 -0.504131682,22.2709667 1.51135881,24.0863 L58.799992,40.6856333 C61.3064021,41.6271333 63.9423424,41.6924667 66.1275175,40.6856333 L123.416151,24.0863 C125.431641,22.2709667 125.431641,19.3018 123.416151,17.4864667 L66.1275175,0.887133333 Z" id="Fill-1" fill="#FFFFFF"></path>
                    <path d="M66.1661442,38.4030793 C63.9795487,39.4150862 61.3418951,39.3505898 58.8338558,38.4030793 L1.50798489,21.7184523 C0.738075168,21.0218914 0.266278636,20.738628 0.0848184319,19.8333333 C-0.209406328,21.2991601 0.261094059,22.8693538 1.50798489,23.9974541 L58.8338558,40.6820811 C61.3418951,41.6284189 63.9795487,41.6940879 66.1661442,40.6820811 L123.492015,23.9974541 C124.738906,22.8693538 125.209406,21.2991601 124.915182,19.8333333 C124.733721,20.738628 124.261925,21.0218914 123.492015,21.7184523 L66.1661442,38.4030793 Z" id="Fill-4" fill="#98B3C5"></path>
                </g>
                <g id="icon-developer" transform="translate(31.000000, 0.000000)" stroke-width="1">
                    <g id="Group-17">
                        <path d="M45.7624068,4.525 C45.7479322,5.76730769 46.7735593,6.76634615 48.0948814,6.79615385 C49.4120678,6.82692308 50.5152373,5.84615385 50.5379831,4.62403846 C50.5607288,3.34519231 49.5092542,2.32307692 48.1641525,2.31634615 C46.8417966,2.30865385 45.7779153,3.2875 45.7624068,4.525 Z M52.4341525,4.54423077 C52.4300169,5.79038462 53.5280169,6.80769231 54.8638136,6.79615385 C56.1592881,6.78557692 57.2562542,5.77115385 57.2727966,4.56923077 C57.289339,3.35576923 56.1448136,2.30673077 54.818322,2.31826923 C53.5083729,2.32980769 52.4372542,3.32980769 52.4341525,4.54423077 Z M43.8662373,4.54711538 C43.8610678,3.33653846 42.781678,2.32884615 41.4789661,2.31826923 C40.1566102,2.30673077 39.0048475,3.3625 39.0213898,4.56826923 C39.04,5.80384615 40.1700508,6.82019231 41.4996441,6.79519231 C42.8064915,6.77115385 43.8714068,5.75961538 43.8662373,4.54711538 Z M3.75718644,46.5288462 L57.2169661,46.5288462 L57.2169661,9.13365385 L3.75718644,9.13365385 L3.75718644,46.5288462 Z M0,46.9788462 L0,3.02307692 C0.870542373,0.783653846 1.90547458,0.00192307692 4.03633898,0.00192307692 C21.6839492,-0.000961538462 39.3315593,-0.000961538462 56.9802034,0.00192307692 C59.4377797,0.00192307692 60.9265932,1.4 60.9265932,3.68557692 C60.9276271,10.6903846 60.9265932,17.6951923 60.9265932,24.6990385 C60.9265932,31.9557692 60.928661,39.2125 60.9255593,46.4692308 C60.9255593,48.1326923 60.0364068,49.2846154 58.3501186,49.8471154 C58.2425932,49.8826923 58.1474746,49.9480769 58.0461525,50 L2.95384746,50 C1.36784746,49.5019231 0.37220339,48.5038462 0,46.9788462 Z" id="Fill-1" fill="#000000"></path>
                        <path d="M28.3885729,36.0572115 C29.1950136,36.0543269 29.5486068,35.7725962 29.8143186,34.7610577 C30.7696407,31.1225962 31.7022169,27.4783654 32.6409966,23.8360577 C33.0710983,22.1697115 33.5260136,20.5091346 33.9147593,18.8341346 C34.1546237,17.80625 33.3874712,17.1591346 32.2687932,17.3485577 C31.5078441,17.4774038 31.3382847,18.04375 31.1914712,18.5966346 C30.5452847,21.0350962 29.9208102,23.4802885 29.2953017,25.9245192 C28.5633017,28.7908654 27.8209627,31.65625 27.1179119,34.5293269 C26.8708102,35.5408654 27.3433017,36.0600962 28.3885729,36.0572115 Z M44.6528271,26.85625 C44.3922847,26.9629808 44.2609797,27.0216346 44.125539,27.0706731 C41.4529119,28.0475962 38.7761492,29.0168269 36.1117932,30.0110577 C35.8626237,30.1043269 35.5142,30.3524038 35.5028271,30.5447115 C35.4418271,31.5639423 35.473878,32.5879808 35.473878,33.7024038 C35.7850814,33.5956731 36.0115051,33.5302885 36.2286237,33.4427885 C39.8307254,31.9879808 43.4007763,30.4552885 47.0494034,29.1091346 C48.4389627,28.5975962 48.8773356,27.9466346 48.8266746,26.5822115 C48.7894542,25.5543269 48.3603864,25.0850962 47.4795051,24.7331731 C43.6913017,23.2177885 39.9051661,21.6975962 36.1169627,20.1822115 C35.930861,20.1081731 35.7323525,20.0600962 35.473878,19.9802885 C35.473878,21.0620192 35.4521661,22.0447115 35.493522,23.0245192 C35.5007593,23.2091346 35.7199458,23.4745192 35.9101831,23.5485577 C38.2540305,24.4620192 40.6092508,25.3485577 42.9634373,26.2389423 C43.4855559,26.4360577 44.0118102,26.6216346 44.6528271,26.85625 Z M25.5267424,19.9725962 C25.3944034,19.9725962 25.3406407,19.9581731 25.3013525,19.9745192 C21.290861,21.5850962 17.2793356,23.1947115 13.2729797,24.8120192 C12.5358102,25.1100962 12.0581492,25.5475962 12.2184034,26.4033654 C12.3062847,26.8697115 12.2638949,27.3629808 12.2256407,27.8408654 C12.191522,28.2543269 12.3796915,28.4341346 12.771539,28.5908654 C16.8295898,30.2129808 20.8793695,31.8533654 24.9332847,33.4860577 C25.103878,33.5543269 25.2889458,33.5918269 25.5267424,33.6600962 L25.5267424,31.6745192 C25.5267424,30.2043269 25.5257085,30.2081731 24.0586068,29.6716346 C21.5255559,28.7475962 18.9956068,27.8177885 16.400522,26.8668269 C18.7743525,25.9514423 21.0727085,25.0610577 23.3741661,24.1783654 C23.9407424,23.9620192 24.5362678,23.8014423 25.0821661,23.5475962 C25.2848102,23.4524038 25.4977932,23.1668269 25.5070983,22.9610577 C25.5515559,21.9802885 25.5267424,20.9966346 25.5267424,19.9725962 Z M3.75697966,46.5283654 L57.2167593,46.5283654 L57.2167593,9.13317308 L3.75697966,9.13317308 L3.75697966,46.5283654 Z" id="Fill-3" fill="#FFFFFF"></path>
                        <path d="M43.8662373,4.5475 C43.8714068,5.75903846 42.8064915,6.77153846 41.4996441,6.79557692 C40.1700508,6.82057692 39.04,5.80423077 39.0213898,4.56769231 C39.0048475,3.36288462 40.1566102,2.30711538 41.4789661,2.31865385 C42.781678,2.32923077 43.8610678,3.33596154 43.8662373,4.5475" id="Fill-5" fill="#FFFFFF"></path>
                        <path d="M52.433739,4.54375 C52.4368407,3.32932692 53.5089932,2.33028846 54.8189424,2.31875 C56.1454339,2.30625 57.2889254,3.35625 57.2723831,4.56971154 C57.2558407,5.77067308 56.1588746,6.78605769 54.8644339,6.79663462 C53.5276034,6.80721154 52.4306373,5.78990385 52.433739,4.54375" id="Fill-7" fill="#FFFFFF"></path>
                        <path d="M45.7624068,4.525 C45.7779153,3.2875 46.8417966,2.30865385 48.1641525,2.31634615 C49.5092542,2.32307692 50.5607288,3.34519231 50.5379831,4.62403846 C50.5152373,5.84615385 49.4120678,6.82692308 48.0948814,6.79615385 C46.7735593,6.76634615 45.7479322,5.76730769 45.7624068,4.525" id="Fill-9" fill="#FFFFFF"></path>
                        <path d="M25.5271559,19.9725 C25.5271559,20.9965385 25.5509356,21.9801923 25.5075119,22.9609615 C25.4982068,23.1667308 25.2841898,23.4523077 25.0815458,23.5475 C24.5366814,23.8013462 23.9411559,23.9619231 23.3735458,24.1792308 C21.0720881,25.0609615 18.7747661,25.9513462 16.3999017,26.8667308 C18.9949864,27.8176923 21.5259695,28.7475 24.0590203,29.6715385 C25.526122,30.2080769 25.5271559,30.2042308 25.5271559,31.6744231 L25.5271559,33.66 C25.2893593,33.5917308 25.1042915,33.5542308 24.9336983,33.4859615 C20.8797831,31.8532692 16.8300034,30.2128846 12.7719525,28.5907692 C12.3801051,28.4340385 12.1919356,28.2542308 12.2250203,27.8407692 C12.2643085,27.3638462 12.3056644,26.8696154 12.2188169,26.4032692 C12.0575288,25.5475 12.5362237,25.11 13.2723593,24.8119231 C17.2797492,23.1946154 21.2902407,21.585 25.3007322,19.9744231 C25.3410542,19.9580769 25.3948169,19.9725 25.5271559,19.9725" id="Fill-11" fill="#000000"></path>
                        <path d="M44.6527237,26.8558654 C44.0117068,26.6222115 43.4854525,26.4356731 42.9633339,26.2385577 C40.6091475,25.3481731 38.2539271,24.4616346 35.9100797,23.5491346 C35.7198424,23.4741346 35.5006559,23.20875 35.4934186,23.0250962 C35.4520627,22.0443269 35.4737746,21.0616346 35.4737746,19.9799038 C35.7322492,20.0606731 35.9307576,20.1077885 36.1168593,20.1827885 C39.9050627,21.6981731 43.6911983,23.2183654 47.4794017,24.7327885 C48.3602831,25.0847115 48.7893508,25.5539423 48.8265712,26.5827885 C48.8772322,27.9472115 48.4388593,28.5972115 47.0493,29.1097115 C43.4006729,30.4558654 39.830622,31.9875962 36.2285203,33.4424038 C36.0114017,33.5299038 35.784978,33.59625 35.4737746,33.7020192 C35.4737746,32.5875962 35.4417237,31.5635577 35.5027237,30.5443269 C35.5140966,30.3529808 35.8625203,30.1039423 36.1116898,30.0116346 C38.7760458,29.0164423 41.4528085,28.0472115 44.1254356,27.07125 C44.2608763,27.02125 44.3921814,26.9625962 44.6527237,26.8558654" id="Fill-13" fill="#000000"></path>
                        <path d="M28.3885729,36.0572115 C27.3433017,36.0600962 26.8708102,35.5408654 27.1179119,34.5293269 C27.8209627,31.65625 28.5633017,28.7908654 29.2953017,25.9245192 C29.9208102,23.4802885 30.5452847,21.0350962 31.1914712,18.5966346 C31.3382847,18.04375 31.5078441,17.4774038 32.2687932,17.3485577 C33.3874712,17.1591346 34.1546237,17.80625 33.9147593,18.8341346 C33.5260136,20.5091346 33.0710983,22.1697115 32.6409966,23.8360577 C31.7022169,27.4783654 30.7696407,31.1225962 29.8143186,34.7610577 C29.5486068,35.7725962 29.1950136,36.0543269 28.3885729,36.0572115" id="Fill-15" fill="#000000"></path>
                    </g>
                </g>
            </g>
        </g>
    </g>
</svg>
